v 0.001866311 -0.0361986 -0.03416586
v 0.003311649 0.02442165 -0.04300153
v 0.003352121 -0.0358967 0.03102744
v -0.003352106 -0.03302528 -0.03124815
v -0.003352046 0.0361986 -0.038571
v -0.003352076 -0.03019823 0.04300159
v 0.002119943 -0.02173659 0.03915536
v -0.003201097 -0.01599103 0.03967148
v 0.003031045 0.03261991 -0.02168417
v 0.002821013 0.01258302 0.01612014
v -0.002401188 0.003453374 0.03184789
v 0.002092794 -0.03087175 0.03981471
v 0.002071753 0.03417851 -0.03831738
v -0.003201962 0.03427427 -0.01462644
v 0.002810761 0.02028611 0.006252527
v 0.002805039 -0.004209921 0.02914697
v 0.001155302 0.01523024 0.01608336
v 0.002882093 -0.02961017 0.037453
v 0.001158282 0.03509742 -0.03838241
v -0.003141105 0.03039095 -0.002939761
v 0.002806634 0.003049448 0.02433968
v -0.003092408 0.01313043 0.02222836
v -0.003095657 0.02488616 0.007719278
v 0.0003016442 0.01987782 0.01139337
v 0.002108514 0.03419113 -0.02546185
v 0.0002936125 0.0259569 0.001647949
v -0.003245175 0.03571169 -0.0227772
v 0.001118019 0.02943787 -0.007896185
f 1 2 3
f 2 4 5
f 4 2 1
f 4 1 3
f 4 6 5
f 6 4 3
f 6 7 8
f 2 9 3
f 9 10 3
f 7 11 8
f 12 6 3
f 12 7 6
f 13 9 2
f 6 14 5
f 9 15 10
f 16 11 7
f 17 11 10
f 15 17 10
f 18 12 3
f 12 18 7
f 16 18 3
f 18 16 7
f 19 2 5
f 19 13 2
f 20 14 6
f 10 21 3
f 21 16 3
f 11 21 10
f 16 21 11
f 17 22 11
f 11 22 8
f 22 6 8
f 22 20 6
f 20 22 23
f 24 17 15
f 22 24 23
f 24 22 17
f 25 14 9
f 13 25 9
f 19 25 13
f 26 20 23
f 24 26 23
f 26 24 15
f 14 27 5
f 25 27 14
f 27 19 5
f 27 25 19
f 26 28 20
f 14 28 9
f 20 28 14
f 28 15 9
f 28 26 15
