v 0.003844999 -0.006886661 -0.02125019
v 0.0002410412 -0.01432979 0.02171862
v -0.001290344 -0.02339816 -0.02459759
v -0.001187548 -0.02216768 -0.02538431
v -0.003877379 0.01608473 -0.02081525
v 0.003053963 0.0166111 -0.02024734
v -0.0006917939 -0.0136019 0.02106512
v -0.002159551 -0.003531814 0.0222078
v -0.003643349 0.01515025 0.0244168
v 0.002992705 0.01769173 0.02521425
v -0.003085569 0.02261561 0.02538437
v 0.003051572 0.0206753 0.02466118
v 0.003944919 0.02072412 -0.003937662
v -0.0004133135 0.02016151 -0.01628941
v 3.147125e-05 0.02301037 0.0008029938
v -0.001004495 0.02339816 0.01121616
v -0.003944919 0.02003795 0.02500194
v -0.003016584 -0.01017439 -0.02307868
v 0.003676005 0.0191527 -0.01248026
v 0.003752381 0.02150184 0.01093864
v -0.001826599 0.0227024 -0.0002253652
v -0.002951592 -0.01006186 -0.02399272
v -0.002189793 -0.02208024 -0.0235728
v -0.003942616 0.01597172 -0.01990217
v 0.003353432 0.01172328 -0.0208317
v 0.003324933 -0.001505315 0.01967841
v -0.001595542 0.01904094 -0.01905531
v -0.0008435398 0.02329427 0.005133033
v 0.003847666 0.01915342 0.01342881
v 0.003829092 -0.001134753 -0.000868082
f 1 2 3
f 4 5 6
f 4 1 3
f 2 7 3
f 8 7 2
f 9 8 2
f 2 10 11
f 10 12 11
f 13 14 15
f 12 16 11
f 5 17 11
f 17 2 11
f 17 9 2
f 17 18 9
f 19 13 1
f 14 19 6
f 19 14 13
f 20 13 15
f 20 16 12
f 16 20 15
f 14 21 15
f 21 5 11
f 16 21 11
f 4 22 5
f 9 23 8
f 18 23 9
f 7 23 3
f 23 7 8
f 22 23 18
f 23 4 3
f 23 22 4
f 24 17 5
f 24 18 17
f 22 24 5
f 24 22 18
f 19 25 6
f 25 19 1
f 25 4 6
f 4 25 1
f 10 26 12
f 1 26 2
f 26 10 2
f 21 27 5
f 27 21 14
f 5 27 6
f 27 14 6
f 28 16 15
f 21 28 15
f 28 21 16
f 29 20 12
f 26 29 12
f 20 29 13
f 30 26 1
f 30 29 26
f 13 30 1
f 29 30 13
