v -0.002714291 0.0289278 0.03558636
v 0.001863778 0.02891827 0.03558826
v 0.002714515 0.02892593 -0.0355882
v -0.001973897 -0.02692297 0.03483987
v 0.002528876 -0.02892777 0.03389442
v -0.002521038 0.02796501 -0.03104776
v -0.002714336 0.02158433 -0.03135717
v -0.0027145 -0.02441666 0.03267592
v 0.002572626 0.02680135 0.03290451
v 0.002684653 -0.007008642 -0.01708496
v -0.001681209 0.02830723 -0.03227407
v -0.002522796 -0.01691443 0.004047692
v 0.002468675 -0.02617048 0.01732969
v 0.002438962 -0.02307101 0.008534253
v 0.001572371 -0.02772036 0.02738494
v -0.002465338 -0.003733993 -0.01348114
v 0.002431959 -0.0167309 -0.003290176
v 0.002692759 -0.004223317 -0.01979721
v 0.0026007 0.01001328 -0.02819598
v 0.00248608 -0.02835014 0.02802444
v -0.001816943 -0.02298431 0.01608449
v -0.001697496 -0.01433627 -0.00235945
v -0.001818597 0.01514304 -0.02961659
v -0.0009280592 -0.01888594 0.00412035
f 1 2 3
f 2 1 4
f 5 2 4
f 6 7 1
f 1 8 4
f 7 8 1
f 2 9 3
f 5 9 2
f 10 9 5
f 11 1 3
f 11 6 1
f 7 11 3
f 6 11 7
f 12 8 7
f 13 10 5
f 13 14 10
f 13 15 4
f 16 12 7
f 14 17 10
f 16 18 10
f 18 19 3
f 9 18 3
f 10 18 9
f 20 13 5
f 13 20 15
f 20 5 4
f 15 20 4
f 21 13 4
f 8 21 4
f 12 21 8
f 13 21 14
f 17 22 10
f 22 16 10
f 16 22 12
f 23 16 7
f 23 18 16
f 18 23 19
f 23 7 3
f 19 23 3
f 21 24 14
f 24 21 12
f 22 24 12
f 24 17 14
f 24 22 17
