v -0.0005030334 -0.02250594 -0.01062155
v -0.002999231 -0.02250999 0.02153245
v -0.00346078 -0.01922214 0.001651168
v 0.003112137 -0.02204692 0.02639619
v -0.003797144 0.02098733 -0.01071283
v 0.001163736 0.02250993 -0.02639619
v 0.002112627 0.02166742 -0.02612439
v 0.003949761 -0.02194697 0.02378446
v -0.003593624 0.02193511 -0.01157719
v -0.003356621 0.02168584 0.01158202
v 0.0004318058 -0.02185351 -0.01005688
v 0.001981899 -0.02183896 5.352497e-05
v 0.002626777 -0.02186334 0.006994188
v 0.00135912 0.02090847 0.01702085
v 0.003873095 0.02228379 0.01295927
v 0.00175029 0.0007896423 0.02352899
v 0.003950417 0.02137083 0.01294896
v -0.003064498 0.01888597 0.01733395
v -0.001379758 -0.02156746 0.0248889
v 0.001960963 -0.02138484 0.02607849
v -0.003779605 0.01333892 0.01497182
v -0.003617972 -0.01155877 0.02367616
v -0.003897399 -0.008714437 0.0009997785
v -0.003950417 -0.001794934 -0.000366956
v 0.003098428 0.0216139 -0.01425812
v 0.000810504 -0.001026213 0.02411136
v -0.003939629 0.002224803 0.02122423
v -0.003910899 -0.001453459 0.02205655
v -0.001388162 -0.01081312 0.0249345
v -0.003617942 -0.01521158 0.02161667
f 1 2 3
f 4 2 1
f 5 1 3
f 6 7 1
f 8 4 1
f 9 5 10
f 9 6 1
f 5 9 1
f 11 12 1
f 7 11 1
f 11 7 12
f 12 13 1
f 13 8 1
f 7 13 12
f 14 15 10
f 15 14 16
f 9 15 6
f 15 9 10
f 15 16 4
f 15 8 17
f 8 15 4
f 18 14 10
f 19 2 4
f 20 19 4
f 5 21 10
f 21 18 10
f 19 22 2
f 23 5 3
f 23 24 5
f 25 13 7
f 13 25 8
f 8 25 17
f 25 15 17
f 25 7 6
f 15 25 6
f 14 26 16
f 18 26 14
f 16 26 4
f 21 27 18
f 26 27 28
f 27 26 18
f 27 21 5
f 24 27 5
f 23 27 24
f 27 23 28
f 29 19 20
f 29 22 19
f 29 20 4
f 26 29 4
f 22 29 28
f 29 26 28
f 30 22 28
f 23 30 28
f 30 23 3
f 2 30 3
f 22 30 2
