v -0.00691998 -0.006939698 0.004040703
v 0.0003926158 -0.00566281 -0.01534669
v 0.006842852 -0.006938238 0.004411772
v -0.006285846 -5.387515e-05 0.01577367
v 0.004680753 0.003573827 0.01486988
v -0.005962253 0.00523001 0.01313274
v 0.006720603 0.006856568 0.01076181
v 0.006643772 0.0001253784 0.01501523
v 0.008166075 0.006127991 0.009064928
v 0.005542159 -0.001566529 -0.01527323
v 0.004303455 0.003363132 -0.01542796
v 0.006219208 -0.007145986 0.009247616
v 0.004748881 -0.001079313 0.01579891
v 0.005733967 -0.005248461 0.01363806
v -0.006001592 -0.005080108 0.01334141
v 0.003618121 -0.004832823 -0.01526783
v 0.008069515 -0.006317869 0.00921075
v 0.006896436 0.006627068 0.004138365
v -0.008166075 0.007145986 0.008852735
v -0.007428765 0.00686533 0.004673228
v -0.008158267 -0.007106952 0.009223804
v -0.003028274 -0.004627328 -0.01548956
v 0.007965326 -0.0002093166 0.002829865
v -0.0005794764 0.004613385 -0.01558958
v -0.003856838 0.002729282 -0.01565354
v 0.001962125 0.003048837 -0.01568116
v -0.007320106 0.001599096 0.01431541
v -0.008038878 -0.000842236 0.002763048
v -0.002754152 0.002659909 -0.01576658
v 0.003998101 -0.002076626 -0.01551406
v -0.004743874 -0.00122454 -0.0156105
v -0.00317353 -0.002054714 -0.01579823
v -0.003162384 0.00100974 -0.01579891
v 0.004009128 0.0009858981 -0.01557548
v 0.0003999472 -0.004939489 -0.01551335
v 0.001933575 -0.0041252 -0.01553659
f 1 2 3
f 4 5 6
f 7 5 8
f 5 7 6
f 9 7 8
f 9 10 11
f 12 1 3
f 13 14 8
f 5 13 8
f 13 5 4
f 13 4 15
f 14 13 15
f 2 16 3
f 16 10 3
f 17 9 8
f 17 12 3
f 10 17 3
f 14 17 8
f 12 17 14
f 18 9 11
f 9 18 7
f 7 19 6
f 18 19 7
f 19 18 20
f 12 21 1
f 21 14 15
f 21 12 14
f 4 21 15
f 22 2 1
f 9 23 10
f 23 17 10
f 17 23 9
f 24 18 11
f 18 24 20
f 20 24 25
f 26 24 11
f 27 4 6
f 19 27 6
f 27 21 4
f 21 27 19
f 28 21 19
f 24 29 25
f 29 24 26
f 16 30 10
f 21 31 1
f 31 22 1
f 28 31 21
f 22 31 32
f 31 20 25
f 31 19 20
f 31 28 19
f 33 26 32
f 33 29 26
f 29 33 25
f 33 31 25
f 31 33 32
f 26 34 32
f 34 30 32
f 34 26 11
f 10 34 11
f 30 34 10
f 22 35 2
f 35 22 32
f 35 16 2
f 36 30 16
f 35 36 16
f 30 36 32
f 36 35 32
