v -0.0001694858 -0.006060421 -0.01760948
v 0.001898944 -0.001707487 -0.02854091
v -0.0008704364 -0.006088927 0.02817464
v -0.001668334 -0.005253538 0.02609634
v -0.003699392 -0.0006303117 0.02724308
v -0.003713846 -0.002897769 -0.02200758
v 0.00357008 0.002726924 -0.0171625
v 0.003713816 0.004586857 0.01644814
v -0.002430409 -0.004435487 -0.01938462
v 0.002714872 0.00265149 0.02538693
v 0.001848042 0.0007597879 0.02854097
v 0.002727419 0.003086466 -0.01717746
v 0.00326252 0.004630633 -0.01078194
v -0.000561744 -0.0003813505 -0.02654898
v -0.001038939 0.003930394 -0.009726107
v -0.0007669926 0.005157337 0.003314018
v 0.00353688 0.006088924 0.007184505
v 0.001873165 0.003011812 0.02537054
v -0.001364887 0.004268762 0.01458693
v -0.003181458 -0.001803324 -0.02546406
v -0.001854867 0.001399275 0.02817154
f 1 2 3
f 4 5 6
f 5 4 3
f 3 7 8
f 2 7 3
f 1 9 6
f 9 1 3
f 9 4 6
f 4 9 3
f 10 3 8
f 10 11 3
f 7 12 13
f 12 7 2
f 14 12 2
f 15 16 13
f 12 15 13
f 15 12 14
f 16 17 13
f 7 17 8
f 17 7 13
f 10 18 11
f 18 10 8
f 17 18 8
f 15 19 16
f 19 17 16
f 19 18 17
f 20 15 14
f 20 14 2
f 5 20 6
f 20 1 6
f 1 20 2
f 19 20 5
f 20 19 15
f 21 19 5
f 19 21 18
f 18 21 11
f 21 5 3
f 11 21 3
