v -0.005104035 0.008614898 0.03899343
v 0.0004978478 0.01022243 0.04197562
v -0.003741384 0.01063907 0.0389062
v 0.001504481 0.007822692 0.04107779
v -0.002639562 -0.009415567 0.01873955
v -0.004693568 0.004798234 0.0346566
v -0.003405958 -0.007486939 -0.02671319
v -0.005108088 0.01099324 -0.03964692
v -0.0007728338 0.01853669 0.01240486
v -0.001446784 -0.01770294 -0.01869452
v 0.003872812 -0.001626551 -0.02383015
v 0.004610479 0.01739383 -0.01575339
v 0.004718691 -0.004818201 -0.0124397
v 0.003320128 0.01274467 0.02996255
v 0.003201157 -0.0024212 0.02821796
v -0.001939982 0.01507485 0.02788316
v 0.004939795 0.005060196 0.008265674
v 0.005085707 0.01815653 -0.001305491
v 0.004398227 0.01579452 0.01925641
v 0.004409015 0.01865268 0.007860482
v -0.0007891655 -0.01966614 -0.019813
v 0.001039147 0.01165813 -0.04197574
v 0.002734959 0.01791108 -0.0248875
v 0.0001241267 0.0165602 -0.03361171
v 0.0004613996 0.01966679 -0.0118987
v -0.001492918 0.01769435 -0.02368128
v 0.003291279 -0.007977068 -0.02719218
v 0.00307253 -0.00850606 -0.02791658
v 0.002839506 0.01349318 -0.03451955
v -0.0004017651 0.01942432 0.003010213
v 0.002739936 0.01639962 0.0251525
v 0.002106249 0.004261017 -0.03691483
v 0.003551722 -0.008820236 0.0222795
v 0.004151195 0.01863635 -0.01301062
v -0.003672034 0.01345122 -0.03943986
v 0.003401577 0.01477098 -0.02979416
v 0.003171802 0.01766312 0.01943183
v -0.0003217161 -0.01966667 0.01075089
v 0.004685551 -0.003190398 0.01317781
v 0.005108237 -0.004136086 -0.002565742
v 0.00381273 -0.008145213 0.02170977
f 1 2 3
f 2 1 4
f 5 6 7
f 6 1 7
f 1 8 7
f 9 8 1
f 10 5 7
f 11 12 13
f 14 2 4
f 15 14 4
f 2 16 3
f 16 1 3
f 16 9 1
f 17 18 19
f 18 20 19
f 21 8 22
f 8 21 7
f 21 10 7
f 23 24 25
f 24 26 25
f 27 11 13
f 21 27 13
f 27 21 28
f 27 29 11
f 24 29 22
f 23 29 24
f 30 20 25
f 26 30 25
f 30 8 9
f 30 26 8
f 16 31 9
f 31 16 2
f 31 14 19
f 14 31 2
f 32 21 22
f 21 32 28
f 32 27 28
f 29 32 22
f 32 29 27
f 33 15 4
f 34 23 25
f 20 34 25
f 18 34 20
f 34 18 12
f 23 34 12
f 26 35 8
f 35 26 24
f 8 35 22
f 35 24 22
f 11 36 12
f 29 36 11
f 36 23 12
f 36 29 23
f 31 37 9
f 37 30 9
f 30 37 20
f 20 37 19
f 37 31 19
f 38 21 13
f 10 38 5
f 21 38 10
f 38 6 5
f 38 33 4
f 1 38 4
f 6 38 1
f 39 17 19
f 40 38 13
f 39 40 17
f 40 18 17
f 12 40 13
f 18 40 12
f 38 41 33
f 40 41 38
f 41 40 39
f 33 41 15
f 41 14 15
f 14 41 19
f 41 39 19
