v 0.009152442 0.08684838 -0.05157453
v 0.007475764 0.08039844 -0.05926475
v 0.007475674 0.08584368 -0.05111611
v 0.009152442 0.07148814 -0.07125616
v 0.007475644 0.0741787 -0.06684169
v 0.007475764 0.06724811 -0.07377237
v 0.009151965 0.06022596 -0.08094549
v -0.001548201 -0.06886077 -0.006557614
v -0.002475232 -0.06551838 -0.006229013
v -0.001548231 -0.06886041 0.007040858
v 0.007475019 0.05566263 -0.08281118
v 0.009152114 0.04788256 -0.0887605
v 0.007475495 0.04287541 -0.09005427
v 0.009152442 0.03892803 -0.09300828
v 0.007475793 0.03382111 -0.09380507
v -0.001548231 0.04419136 0.05385911
v -0.002475172 0.04451406 0.04914704
v -0.00154832 0.05786371 0.03877488
v 0.007475555 0.02444029 -0.09664938
v 0.009152353 0.01975048 -0.09882426
v 0.007475615 0.01482773 -0.09856147
v 0.009152383 0.005003214 -0.1006234
v 0.007475585 0.005072951 -0.09952122
v 0.007475525 -0.004727483 -0.09952092
v 0.009152353 -0.009848595 -0.1002403
v 0.007475585 -0.02409625 -0.09664661
v -0.001548231 -0.06620753 -0.01989678
v -0.002475202 -0.05949867 -0.02798444
v 0.009152085 -0.0244813 -0.09768236
v 0.007475048 -0.03804958 -0.09203535
v 0.009152144 -0.03858447 -0.09300297
v 0.007475585 -0.04690826 -0.08784491
v -0.002475202 0.03130066 0.05845436
v 0.009152949 -0.04753613 -0.08875522
v 0.007475585 -0.0593245 -0.07998186
v 0.009152055 -0.06007779 -0.08079007
v 0.007475823 -0.06689882 -0.07376429
v -0.00154826 0.03584731 0.05973724
v 0.009152383 -0.07113993 -0.07124692
v -0.001548201 -0.05932701 -0.03542405
v 0.007475644 -0.0738318 -0.06683236
v 0.007475615 -0.08004856 -0.05925483
v 0.009152561 -0.0810045 -0.05980998
v 0.007475704 -0.08549356 -0.05110437
v 0.009152085 -0.08893645 -0.0472475
v 0.007475644 -0.09011233 -0.04246059
v 0.009151965 -0.09493887 -0.03365859
v 0.007475585 -0.09539962 -0.02874976
v 0.009152204 -0.09968734 -0.01469409
v 0.007475585 -0.0977819 -0.01924151
v 0.007475525 -0.09922004 -0.009546131
v 0.009152412 -0.1006823 -0.004587829
v 0.007475585 -0.09957933 0.005144924
v -0.001548171 0.02355409 0.06555212
v 0.009152353 -0.1002989 0.01026344
v 0.007475615 -0.09777856 0.0197292
v -0.002475351 0.00665307 0.06593284
v 0.009152472 -0.09648371 0.02943799
v 0.007475644 -0.09539723 0.02923608
v -0.001548111 -0.05345058 -0.04376861
v 0.007475555 -0.09010732 0.04294646
v 0.009152114 -0.09306133 0.03899932
v 0.009151995 -0.08636487 0.05226043
v 0.007475793 -0.08548665 0.05158973
v 0.007475585 -0.07702518 0.06360403
v -0.001548141 0.006982565 0.06927547
v -0.002475262 -0.0417037 -0.05078921
v 0.009152293 -0.08084869 0.06049246
v 0.009152174 -0.07130492 0.07155576
v 0.007475644 -0.0704422 0.0708659
v 0.009152144 -0.06397104 0.07821828
v -0.00154829 -0.04641199 -0.05116162
v 0.007475436 -0.05931318 0.08046356
v 0.007475615 -0.0511651 0.08590841
v 0.009152591 -0.04752576 0.08923441
v 0.007475615 -0.04251862 0.09052816
v 0.009152472 -0.03834283 0.09357658
v 0.007475525 -0.03346324 0.0942789
v 0.009152234 -0.01939416 0.09929815
v 0.007475585 -0.02408361 0.09712359
v 0.007475644 -0.0144701 0.09903529
v 0.009152412 -0.009589672 0.1007395
v 0.007475525 -0.004715323 0.09999496
v -0.001548231 -0.03836656 -0.05744165
v 0.007475615 0.005084872 0.09999466
v 0.009152055 0.009960651 0.1007383
v 0.007475495 0.01966882 0.09819424
v 0.009152561 0.02459991 0.09821618
v -0.00154826 -0.006617308 0.06927583
v -0.002475053 -0.01585722 0.06427351
v -0.002475679 -0.0220654 -0.06191766
v 0.007475466 0.03383279 0.0942747
v 0.009152353 0.03431857 0.09526759
v 0.007475704 0.04288769 0.090523
v 0.009152532 0.04789257 0.0892289
v -0.00154826 -0.02319705 -0.0650782
v 0.007475615 0.05153072 0.08590201
v 0.007475615 0.06354523 0.0774397
v 0.009152681 0.06414723 0.07836694
v 0.007475644 0.07418668 0.06730658
v 0.009152085 0.07167077 0.0715467
v 0.009152353 0.08136129 0.06028342
v 0.007475644 0.08040512 0.05972981
v 0.007475615 0.08826721 0.04731405
v 0.009152144 0.0914104 0.04351544
v -0.00154832 -0.0263654 0.06433064
v 0.007475525 0.09422016 0.03387988
v 0.009152412 0.09809971 0.02488559
v 0.007475585 0.0970645 0.02449971
v 0.007475555 0.09957707 0.01002008
v 0.00915274 0.1006819 0.01000533
v 0.007475585 0.1000562 0.0002304912
v -0.002475232 -0.030936 0.05845797
v 0.009152323 0.1006565 -0.009789109
v 0.007475585 0.09957552 -0.009559691
v -0.00154829 -0.01335967 -0.06780171
v 0.007475495 0.09706128 -0.02403817
v 0.009152621 0.09809661 -0.0244236
v -0.00154829 0.05785596 -0.03830707
v -0.002475142 0.06116509 -0.02502891
v -0.002475083 0.05120552 -0.04164505
v 0.007475108 0.09046483 -0.04247236
v -0.00247556 0.003412843 -0.06569746
v 0.009152591 0.09341848 -0.03852415
v 0.01247501 0.08584392 -0.05111581
v 0.01247501 0.07738221 -0.06312937
v 0.01089773 0.0812068 -0.06001762
v -0.00154832 0.06549406 -0.02313781
v 0.01089785 0.07166302 -0.07108152
v 0.01247549 0.07079983 -0.07039219
v 0.01247549 0.05967093 -0.07998967
v 0.01089755 0.05637515 -0.08365661
v 0.01247534 0.04725528 -0.08785099
v 0.01089776 0.03892887 -0.09300831
v 0.01247498 0.03382158 -0.09380448
v 0.0108977 0.02482677 -0.09768453
v 0.01247495 0.01482773 -0.09856135
v -0.001548141 -0.03835928 0.05792084
v 0.01089779 0.01511204 -0.09962946
v 0.01089785 0.0002962351 -0.1007394
v 0.01247495 -0.004727602 -0.09952074
v -0.00154835 0.0001733303 -0.06913513
v -0.002475291 -0.0464977 0.04691863
v 0.01089782 -0.009848118 -0.1002399
v 0.01247501 -0.02409613 -0.09664649
v 0.01089773 -0.02925813 -0.09635383
v 0.01247519 -0.03804982 -0.09203553
v 0.01089785 -0.04311192 -0.09098852
v 0.01247492 -0.05531609 -0.08280504
v 0.0108979 -0.05582476 -0.08378655
v -0.002475023 0.06547749 -0.009453088
v 0.0108979 -0.06379068 -0.07789284
v 0.01247501 -0.0631876 -0.07696539
v 0.01247567 -0.07383108 -0.06683257
v 0.01089764 -0.07780409 -0.06391215
v 0.01247558 -0.0800482 -0.05925515
v 0.01089782 -0.08637273 -0.05177501
v -0.001548171 0.06921601 -0.006566793
v 0.01247504 -0.09011292 -0.04246038
v 0.01089787 -0.09316099 -0.03828475
v 0.01247528 -0.09386361 -0.03340587
v -0.001548141 -0.05344355 0.04425001
v 0.01089767 -0.09774375 -0.02441174
v 0.0124751 -0.09778214 -0.01924151
v 0.0108977 -0.1003253 -0.009530813
v -0.001547962 0.01370776 -0.06780386
v 0.01247492 -0.09922028 -0.009546041
v 0.01247501 -0.09957981 0.005144775
v 0.01089782 -0.1003237 0.01001811
v 0.01247552 -0.09861732 0.01489919
v -0.002475202 0.02241385 -0.06191939
v 0.01089785 -0.09780037 0.02465987
v 0.01247522 -0.09539747 0.02923611
v 0.01089764 -0.09493446 0.03414541
v 0.01247549 -0.09209502 0.03846475
v 0.0108979 -0.08892977 0.04773366
v 0.01247555 -0.08548713 0.05158961
v 0.01089779 -0.08370757 0.05644339
v 0.01247504 -0.07702458 0.063604
v 0.01089764 -0.06753755 0.0751428
v 0.01247513 -0.06689107 0.07424623
v 0.01089782 -0.05601847 0.08413014
v 0.0124751 -0.05116415 0.08590811
v 0.0108977 -0.03834283 0.09357661
v 0.01247549 -0.03346455 0.09427881
v 0.01089785 -0.02900982 0.09690279
v 0.01247486 -0.01447129 0.0990352
v -0.00154832 0.06880009 0.01041195
v 0.01089787 -0.009589672 0.1007396
v -0.00154832 0.03287721 -0.06094661
v 0.01247498 0.005084991 0.0999949
v 0.01089785 0.01020527 0.1007142
v 0.01247501 0.01966918 0.09819436
v 0.01089785 0.02483904 0.09815586
v 0.01247495 0.02917719 0.0958119
v 0.01089782 0.04324448 0.09156892
v -0.001548171 -0.06100082 0.03294218
v -0.002475083 -0.06080902 0.02550301
v -0.002475113 0.06421494 0.01627308
v 0.01247483 0.04726577 0.08831859
v 0.01089782 0.05618155 0.08426046
v 0.01247537 0.06354511 0.07743996
v 0.01089785 0.07508445 0.06795192
v 0.01247489 0.0741868 0.06730673
v 0.01247549 0.08322835 0.05572069
v 0.01089779 0.08672845 0.05224982
v -0.002475113 0.04205382 -0.05079526
v 0.0124751 0.09245574 0.03845352
v 0.01089761 0.09342325 0.0389868
v 0.01247519 0.09706485 0.02449942
v 0.01089776 0.09924042 0.01980978
v 0.01247552 0.09993649 0.005131006
v 0.01089776 0.1006817 0.01000518
v 0.01089761 0.1006798 -0.009544522
v 0.01247528 0.09957576 -0.009559512
v 0.01089776 0.09809673 -0.02442348
v 0.01247552 0.09706175 -0.02403808
v -0.001548171 0.06656468 0.02037054
v 0.01089785 0.09140468 -0.04305348
v -0.00154829 0.04149961 -0.05548626
v 0.0124754 0.09421623 -0.03341711
v -0.00154832 -0.06620562 0.02037817
v -0.01247537 -0.0513469 0.04252875
v -0.008784294 -0.04895902 0.0405677
v -0.008784264 -0.05588317 0.03020671
v -0.01247519 0.06675792 0.00350377
v -0.008784294 0.06374967 0.0002326965
v -0.008784115 0.06306052 0.009560287
v -0.01247525 0.02568412 -0.06135029
v -0.008783758 0.01862824 -0.06059659
v -0.008784294 0.03014231 -0.05582815
v -0.0124754 -0.06140494 0.0257501
v -0.002475172 0.05839944 0.03135169
v -0.01247531 0.06555748 0.01323739
v -0.0124754 0.03444445 -0.05694038
v -0.008784145 -0.05967367 0.0216566
v -0.008784294 0.06101179 0.01868641
v -0.01247552 0.04246354 -0.05129373
v -0.008784324 0.04050434 -0.0489051
v -0.0124754 -0.06448221 0.01643732
v -0.01247534 0.05896914 0.03165609
v -0.00154826 0.04922962 -0.04882008
v -0.008783728 -0.0627023 0.009569138
v -0.008783817 0.05624342 0.03019989
v -0.01247537 -0.06615889 0.006774575
v -0.008784115 0.04931617 -0.04009384
v -0.01247531 0.05371702 -0.03947592
v -0.01247534 0.05170929 0.04252172
v -0.01247528 -0.06640005 -0.003028929
v -0.008784145 -0.06331491 -0.002877891
v -0.008784562 0.04932094 0.04056185
v -0.008783817 -0.06217039 -0.01216057
v -0.008784384 0.04050958 0.0493741
v -0.01247537 -0.06361175 -0.01910916
v -0.01247543 0.03721619 0.05566007
v -0.008784294 -0.05728936 -0.02693856
v -0.01247543 -0.06008244 -0.02825862
v -0.008784294 0.03014863 0.05629796
v -0.01247552 0.02569139 0.06182048
v -0.01247525 -0.05524933 -0.03679353
v -0.008783787 -0.05267978 -0.03507653
v -0.008783817 0.01863432 0.06106788
v -0.01247549 0.01637721 0.06489769
v -0.0124754 -0.04695976 -0.046895
v -0.008784473 -0.04477561 -0.04471028
v -0.008784205 0.003302217 0.06372947
v -0.0124754 0.006716013 0.06657505
v -0.01247525 -0.03685999 -0.05518514
v -0.008784324 -0.02979207 -0.05582392
v -0.01247525 -0.003088474 0.06681639
v -0.008784145 -0.006047964 0.06350055
v -0.01247531 -0.03124785 -0.05854946
v -0.0124754 -0.01601493 0.06489864
v -0.008783787 -0.02123284 0.06009111
v -0.01247519 -0.02228141 -0.06252462
v -0.008783758 -0.02124083 -0.05961445
v -0.01247546 -0.02532673 0.06182432
v -0.01247561 0.05896449 -0.0311895
v -0.008784235 0.05624008 -0.02973285
v -0.008783758 -0.009153605 -0.06264365
v -0.008783817 -0.02978528 0.0563018
v -0.01247522 -0.006359935 -0.06610048
v -0.01247537 -0.04210746 0.05176789
v -0.008784384 0.06252635 -0.01216799
v -0.01247549 0.003445506 -0.06634277
v -0.008784294 0.003293991 -0.06325579
v -0.008784205 -0.04014707 0.04937911
v -0.01247543 0.06483912 -0.01596415
v -0.01247519 0.01317871 -0.06514218
v -0.007475644 -0.0573864 0.02083719
v -0.007475466 0.03161371 0.05267626
v -0.007475913 0.05868375 -0.01751459
v -0.007475436 -0.02596545 -0.05503139
v -0.007475346 0.05774605 0.02083063
v -0.007475495 -0.01756644 0.05874404
v -0.007475525 -0.05913067 -0.01461446
v -0.007475346 0.02899575 -0.05368477
v -0.007475495 0.06124461 0.003233373
v -0.007475495 0.0474422 0.03902048
v -0.007475466 0.01210952 0.06020084
v -0.007475406 -0.04892695 0.03666073
v -0.007475585 -0.06066656 0.006233335
v -0.007475317 -0.03861248 -0.04702112
v -0.007475555 -0.0087955 -0.06023979
v -0.007475466 0.04340839 -0.0429984
v -0.007475376 0.0001825094 0.06137717
v -0.007475406 -0.0337851 0.05107424
v -0.007475883 -0.05226469 -0.03119147
v -0.007475346 0.009146452 -0.06024081
v -0.007475525 0.04928398 -0.03618693
v -0.008048087 -0.06367731 0.03044325
v -0.006547898 -0.05363321 0.04901528
v -0.008048981 -0.05655754 0.04232004
v -0.006548107 0.03122807 -0.06542158
v -0.006548136 0.01434243 -0.07099819
v -0.008048564 0.02397168 -0.06627488
v -0.008048803 0.007097483 -0.07006258
v -0.008048773 -0.04725707 0.05258006
v -0.006548196 0.007292986 -0.07204396
v -0.008048892 0.07047725 -0.006691992
v -0.006548166 0.07063019 -0.01741493
v -0.008048356 0.06869996 -0.01693097
v -0.006548017 -0.003389239 -0.07230592
v -0.008048564 -0.003291845 -0.070317
v -0.008048564 0.06403434 -0.02996901
v -0.006548136 -0.03087115 0.06589544
v -0.008048564 -0.03906202 0.05897391
v -0.006548196 -0.01048291 -0.07160562
v -0.008048624 -0.03001893 0.06409585
v -0.008048534 -0.01360714 -0.06904373
v -0.006548226 -0.02428579 0.06862372
v -0.008048534 -0.01698124 0.06875983
v -0.007475942 -0.01032746 0.07109714
v -0.008048534 -0.02685773 -0.06502375
v -0.006548077 -0.04017735 -0.06014985
v -0.008048892 -0.03907192 -0.05849451
v -0.008048415 -0.04977417 -0.04970938
v -0.006548196 -0.05363905 -0.04853469
v -0.008048385 0.003648162 0.07079092
v -0.006548166 0.02126658 0.06973761
v -0.008048743 0.01396394 0.06951872
v -0.008048624 -0.05855966 -0.03900367
v -0.008048624 0.03348172 0.06253278
v -0.008048683 -0.06212234 -0.03305787
v -0.006548285 -0.06932545 -0.02084166
v -0.008048564 -0.0683459 -0.01692134
v -0.006548136 0.04053414 0.06062362
v -0.008048028 0.04499459 0.05483899
v -0.006549239 -0.07210207 -0.006877482
v -0.006548107 0.05399609 0.0490087
v -0.008048564 0.05478668 0.04504693
v -0.008048356 -0.07037556 0.003707677
v -0.006548107 -0.07245231 0.0002413392
v -0.008048534 0.06077051 0.03654891
v -0.008048534 -0.06910181 0.01402277
v -0.008048415 0.05691433 -0.04184654
v -0.006547958 0.04344058 -0.05810213
v -0.008048415 0.04761386 -0.05210608
v -0.006548315 0.06728101 0.02802628
v -0.008048505 0.06669021 0.02403012
v -0.006547987 0.07141459 0.01440167
v -0.008048564 0.03649068 -0.06035444
v -0.008048356 0.06946123 0.01401329
v -0.0124754 0.06775117 0.003551722
v -0.01247537 0.06750655 -0.006397903
v -0.01247528 0.02910018 -0.06092349
v -0.01247549 0.01010156 -0.06668532
v -0.0124754 -0.05415857 0.04054186
v -0.0124754 -0.0476557 0.04807884
v -0.01247522 0.06491888 -0.01940614
v -0.01247552 -0.003145218 -0.06733546
v -0.01247543 -0.0345999 0.05826807
v -0.01247534 -0.01302481 -0.06611609
v -0.0124754 0.05642891 -0.03735301
v -0.01247534 -0.01625562 0.06586456
v -0.01247531 -0.02571535 -0.06226581
v -0.0124754 -0.006448984 0.06756517
v -0.002474904 0.0663209 -0.03512254
v -0.002475768 0.06041622 -0.04444391
v -0.01247528 -0.04274523 -0.05205783
v -0.01247555 0.01338172 0.06659043
v -0.01247543 -0.05607653 -0.03734598
v -0.01247552 0.02607226 0.06273979
v -0.01247555 0.03776884 0.0564869
v -0.01247537 -0.06456304 -0.019398
v -0.0124754 0.04802036 0.04807207
v -0.01247528 -0.06739461 -0.003078043
v -0.01247534 0.05643356 0.03781986
v -0.01247558 -0.0667429 0.01016805
v -0.01247525 0.05030429 -0.04519996
v -0.01247534 0.06268442 0.02612251
v -0.01247537 -0.06352019 0.02303416
v -0.01247528 0.037763 -0.0560177
v -0.0124754 0.06653476 0.01343155
v -0.01247519 -0.05948544 0.03213227
v -0.009975523 -0.06123996 0.03307191
v -0.008048743 0.07081687 0.0002328753
v -0.009975344 0.06973839 0.003649354
v -0.00997597 0.06773615 0.01715511
v -0.009975493 0.03597856 -0.05950198
v -0.008048385 -0.06741798 0.02074775
v -0.009975433 0.04166174 -0.0557043
v -0.009975463 -0.06812787 0.01382852
v -0.009975433 0.06452334 0.02688405
v -0.009975433 0.04942143 -0.04901236
v -0.009975851 0.0580883 0.03892565
v -0.009975821 -0.06938159 0.003658712
v -0.009975791 -0.06871295 -0.009977072
v -0.009975851 0.05178452 0.04700384
v -0.009975493 0.04436326 0.05407023
v -0.009974867 -0.06539667 -0.02322155
v -0.009975553 0.03301358 0.06165522
v -0.009975553 -0.06124401 -0.03258982
v -0.009975344 0.02039933 0.06688055
v -0.009976 -0.05576301 -0.04124641
v -0.009975493 0.01040196 0.06912708
v -0.009975851 -0.04131138 -0.05569935
v -0.009975761 -0.006644011 0.06954664
v -0.009975404 -0.02327991 0.06581241
v -0.009975463 -0.01674938 -0.06731865
v -0.009975582 0.05991173 -0.03557152
v -0.009975851 -0.006652713 -0.06907201
v -0.009976 0.06575024 -0.02322912
v -0.009975463 -0.04130495 0.05617827
v -0.009975046 0.007000685 -0.06907234
v -0.009975165 -0.04906511 0.04948637
v -0.009975791 0.02039254 -0.06641024
v 0.002524555 0.02928674 0.07049763
v 0.002524316 0.03928006 0.06546557
v 0.002524287 0.04548597 0.06131873
v 0.002524555 -0.06689489 -0.03560874
v 0.002524376 -0.07259905 -0.0218344
v 0.002524525 -0.07505071 -0.01091743
v 0.002524912 0.05653214 0.05130592
v 0.002524346 0.06341457 0.04248536
v 0.002524436 -0.07578218 0.003973305
v 0.002524585 0.06724727 -0.03561845
v 0.002524734 0.05896401 -0.04801327
v 0.002525002 0.06725216 0.03608346
v 0.002524644 -0.07359302 0.01872015
v 0.002524436 0.0484215 -0.05855411
v 0.002524704 0.07178617 0.0258528
v 0.002524644 0.07476902 0.01506954
v 0.002524823 -0.06856906 0.03275707
v 0.002524734 0.03602409 -0.0668366
v 0.002524495 0.02927685 -0.07002747
v 0.002524525 -0.06305265 0.04249257
v 0.002524406 0.07623017 0.0002322495
v 0.002524406 0.0186522 -0.07353619
v 0.002524346 -0.05616856 0.05131418
v 0.002524644 0.07476807 -0.01460505
v 0.002524525 -0.0480634 0.05902874
v 0.002524763 0.003905654 -0.0757232
v 0.002524525 0.07043874 -0.02887127
v 0.002524674 -0.007280827 -0.07544708
v 0.002524734 -0.03566766 0.06731066
v 0.002524525 -0.0146631 -0.074352
v 0.002524525 -0.02543831 0.0718438
v 0.002524346 -0.02893043 -0.07002303
v 0.002524734 -0.01465368 0.07482743
v 0.002524495 -0.003549337 0.07619703
v 0.002524406 -0.04207754 -0.06299427
v 0.002524674 -0.05089867 -0.05610961
v 0.002524376 0.01134121 0.07546413
v 0.002524376 0.02225995 0.07301113
v 0.002524495 -0.06090963 -0.04506248
v -0.006547749 0.06056607 -0.04011774
v -0.002476066 -0.07401156 -0.01076317
v -0.002475023 -0.07473123 -0.003438056
v -0.002475113 0.0532136 0.05326647
v -0.006548196 0.06247866 0.03757262
v -0.002475232 0.05815792 0.04781362
v -0.002475619 -0.07257402 -0.01798147
v -0.002475739 0.04776096 0.05821005
v -0.006548017 0.04625952 0.05637717
v -0.002475172 -0.07044005 -0.02502429
v -0.002475142 0.04185021 0.06259498
v -0.002475262 -0.06762314 -0.03182584
v -0.006548762 -0.06547976 -0.03081152
v -0.003554791 0.03507793 0.06552064
v -0.006547987 0.03441954 0.0642893
v -0.002474993 -0.06415427 -0.03831649
v -0.006548315 -0.06021357 -0.0401102
v -0.002474993 0.02888381 0.06952628
v -0.003554523 -0.05704868 -0.04672128
v -0.002475113 0.0111866 0.07442454
v -0.002475142 -0.04740429 -0.05773631
v -0.006548136 -0.04859972 -0.05357578
v -0.002474904 0.003864527 0.07514691
v -0.006548107 0.007303238 0.07251698
v -0.002475262 -0.03838384 -0.06409079
v -0.002475083 -0.007167578 0.07487643
v -0.006547987 -0.003380418 0.07277927
v -0.002475172 -0.02852678 -0.06905222
v -0.006548256 -0.03406262 -0.0638147
v -0.006548196 -0.01047432 0.07208106
v -0.006548077 -0.02429354 -0.0681453
v -0.002475113 -0.02508426 0.07085407
v -0.002475142 -0.01805019 -0.07251474
v -0.002475083 -0.01082945 -0.07395065
v -0.00355497 -0.03471339 0.06552446
v -0.002475142 0.0694685 -0.02846894
v -0.006547689 -0.03715682 0.06253624
v -0.006548226 0.06727898 -0.02756205
v -0.002475441 0.0719471 -0.02153945
v -0.002475291 -0.04739833 0.05821583
v -0.002475917 0.0001724958 -0.07476285
v -0.002475232 0.07373703 -0.01440018
v -0.006548017 -0.04859257 0.05405536
v -0.002474964 -0.05285203 0.0532735
v -0.002475053 0.07481658 -0.007118285
v -0.002475083 0.01839745 -0.07251668
v -0.006548226 0.07245839 -0.006887078
v -0.002475232 0.07517838 0.0002327561
v -0.002475053 0.02544153 -0.07037991
v -0.006548822 0.02125752 -0.06926715
v -0.002475232 -0.06005919 0.04491857
v -0.006548166 -0.0602088 0.04059213
v -0.002475023 0.07481873 0.007583678
v -0.006548166 0.07245946 0.007351518
v -0.0024755 -0.06596351 0.03559655
v -0.003554434 0.03823185 -0.06325972
v -0.006548136 -0.066921 0.02803531
v -0.002475053 -0.0715903 0.02201307
v -0.002475172 0.07195055 0.02200472
v -0.002475083 0.04775512 -0.05774155
v -0.002475142 -0.07400942 0.01124695
v -0.006548226 -0.07166541 0.01089895
v -0.002475113 0.06797981 0.03229985
v -0.002474606 0.05320907 -0.0527997
v -0.006548077 0.0515337 -0.05112326
v -0.002475083 -0.07473135 0.003921509
v -0.002475649 0.06451106 0.03879032
v -0.002474993 -0.05539668 -0.05012614
v -0.002475262 0.01840651 0.07298881
v -0.002475113 -0.01444864 0.07379663
v -0.002475172 -0.03837514 0.06456962
v -0.002475172 0.01117861 -0.07395193
v -0.002474993 0.03873205 -0.06409553
f 1 2 3
f 1 4 2
f 4 5 2
f 4 6 5
f 4 7 6
f 8 9 10
f 7 11 6
f 7 12 11
f 12 13 11
f 12 14 13
f 14 15 13
f 16 17 18
f 14 19 15
f 14 20 19
f 20 21 19
f 20 22 21
f 22 23 21
f 22 24 23
f 22 25 24
f 25 26 24
f 27 28 9
f 27 9 8
f 25 29 26
f 29 30 26
f 29 31 30
f 31 32 30
f 16 33 17
f 31 34 32
f 34 35 32
f 34 36 35
f 36 37 35
f 38 33 16
f 36 39 37
f 40 28 27
f 39 41 37
f 39 42 41
f 39 43 42
f 43 44 42
f 43 45 44
f 45 46 44
f 45 47 46
f 47 48 46
f 47 49 48
f 49 50 48
f 49 51 50
f 49 52 51
f 52 53 51
f 54 33 38
f 52 55 53
f 55 56 53
f 54 57 33
f 55 58 56
f 58 59 56
f 60 28 40
f 58 61 59
f 58 62 61
f 62 63 61
f 63 64 61
f 63 65 64
f 66 57 54
f 60 67 28
f 63 68 65
f 68 69 65
f 69 70 65
f 69 71 70
f 72 67 60
f 71 73 70
f 71 74 73
f 71 75 74
f 75 76 74
f 75 77 76
f 77 78 76
f 77 79 78
f 79 80 78
f 79 81 80
f 79 82 81
f 82 83 81
f 84 67 72
f 82 85 83
f 82 86 85
f 86 87 85
f 86 88 87
f 89 90 57
f 89 57 66
f 84 91 67
f 88 92 87
f 88 93 92
f 93 94 92
f 93 95 94
f 96 91 84
f 95 97 94
f 95 98 97
f 95 99 98
f 99 100 98
f 99 101 100
f 101 102 100
f 102 103 100
f 102 104 103
f 102 105 104
f 106 90 89
f 105 107 104
f 105 108 107
f 108 109 107
f 108 110 109
f 108 111 110
f 111 112 110
f 106 113 90
f 111 114 112
f 114 115 112
f 116 91 96
f 114 117 115
f 114 118 117
f 119 120 121
f 118 122 117
f 116 123 91
f 118 124 122
f 124 1 122
f 1 3 122
f 125 126 127
f 128 120 119
f 126 129 127
f 126 130 129
f 130 131 129
f 131 132 129
f 131 133 132
f 133 134 132
f 133 135 134
f 135 136 134
f 135 137 136
f 138 113 106
f 137 139 136
f 137 140 139
f 137 141 140
f 142 123 116
f 138 143 113
f 141 144 140
f 141 145 144
f 145 146 144
f 145 147 146
f 147 148 146
f 147 149 148
f 149 150 148
f 128 151 120
f 149 152 150
f 149 153 152
f 153 154 152
f 154 155 152
f 154 156 155
f 156 157 155
f 158 151 128
f 156 159 157
f 159 160 157
f 159 161 160
f 162 143 138
f 161 163 160
f 161 164 163
f 164 165 163
f 166 123 142
f 164 167 165
f 167 168 165
f 168 169 165
f 168 170 169
f 166 171 123
f 170 172 169
f 170 173 172
f 173 174 172
f 173 175 174
f 175 176 174
f 175 177 176
f 177 178 176
f 177 179 178
f 179 180 178
f 179 181 180
f 181 182 180
f 181 183 182
f 183 184 182
f 183 185 184
f 185 186 184
f 185 187 186
f 188 151 158
f 187 189 186
f 190 171 166
f 187 191 189
f 191 192 189
f 191 193 192
f 193 194 192
f 193 195 194
f 195 196 194
f 197 198 143
f 197 143 162
f 188 199 151
f 195 200 196
f 200 201 196
f 200 202 201
f 202 203 201
f 202 204 203
f 204 205 203
f 205 206 203
f 190 207 171
f 205 208 206
f 208 209 206
f 208 210 209
f 210 211 209
f 210 212 211
f 212 213 211
f 212 214 213
f 212 215 214
f 215 216 214
f 215 217 216
f 218 199 188
f 217 219 216
f 220 207 190
f 217 221 219
f 222 198 197
f 221 125 219
f 125 127 219
f 223 224 225
f 226 227 228
f 229 230 231
f 232 223 225
f 218 233 199
f 234 226 228
f 235 229 231
f 232 225 236
f 234 228 237
f 238 231 239
f 238 235 231
f 240 232 236
f 241 234 237
f 242 207 220
f 240 236 243
f 241 237 244
f 245 240 243
f 18 233 218
f 238 239 246
f 247 238 246
f 248 241 244
f 10 198 222
f 249 243 250
f 249 245 243
f 242 121 207
f 248 244 251
f 10 9 198
f 249 250 252
f 248 251 253
f 254 249 252
f 255 248 253
f 254 252 256
f 257 254 256
f 255 253 258
f 18 17 233
f 259 255 258
f 260 256 261
f 119 121 242
f 260 257 256
f 259 258 262
f 263 259 262
f 264 260 261
f 264 261 265
f 263 262 266
f 267 263 266
f 268 264 265
f 268 265 269
f 270 267 266
f 270 266 271
f 272 268 269
f 273 270 271
f 273 271 274
f 275 269 276
f 275 272 269
f 277 273 274
f 278 246 279
f 278 247 246
f 275 276 280
f 277 274 281
f 282 275 280
f 283 277 281
f 278 279 284
f 285 280 286
f 285 282 280
f 283 281 287
f 288 278 284
f 289 286 230
f 289 285 286
f 223 283 287
f 223 287 224
f 226 284 227
f 226 288 284
f 229 289 230
f 290 291 292
f 292 293 290
f 291 294 292
f 290 295 291
f 293 296 290
f 292 297 293
f 294 298 292
f 291 299 294
f 295 300 291
f 290 301 295
f 296 302 290
f 293 303 296
f 297 304 293
f 292 305 297
f 295 306 300
f 301 307 295
f 303 308 296
f 297 309 304
f 292 310 305
f 311 312 313
f 314 315 316
f 315 317 316
f 312 318 313
f 315 319 317
f 320 321 322
f 319 323 317
f 323 324 317
f 321 325 322
f 318 326 327
f 323 328 324
f 326 329 327
f 328 330 324
f 326 331 329
f 331 332 329
f 331 333 332
f 334 335 336
f 335 337 336
f 335 338 337
f 339 340 341
f 338 342 337
f 340 343 341
f 344 345 346
f 347 348 343
f 345 349 346
f 350 351 348
f 349 352 346
f 349 353 352
f 350 354 351
f 353 355 352
f 356 357 358
f 359 360 354
f 359 361 360
f 357 362 358
f 361 363 360
f 314 316 362
f 364 365 226
f 366 289 229
f 366 367 289
f 365 288 226
f 368 369 223
f 365 370 288
f 369 283 223
f 367 285 289
f 121 120 151
f 367 371 285
f 199 233 17
f 370 278 288
f 369 372 283
f 371 282 285
f 90 113 143
f 372 277 283
f 371 373 282
f 370 374 278
f 373 275 282
f 374 247 278
f 67 91 123
f 372 375 277
f 373 376 275
f 375 273 277
f 121 151 199
f 199 17 33
f 33 57 90
f 376 272 275
f 143 198 9
f 9 28 67
f 67 123 171
f 171 207 121
f 121 199 33
f 33 90 143
f 143 9 67
f 67 171 121
f 121 33 143
f 143 67 121
f 219 127 1
f 375 377 273
f 377 270 273
f 378 3 379
f 376 268 272
f 127 4 1
f 127 129 4
f 376 380 268
f 377 267 270
f 377 381 267
f 380 264 268
f 381 263 267
f 380 382 264
f 129 7 4
f 129 132 7
f 381 383 263
f 382 260 264
f 383 259 263
f 382 257 260
f 132 12 7
f 383 384 259
f 384 255 259
f 132 134 14
f 132 14 12
f 382 385 257
f 385 254 257
f 384 386 255
f 386 248 255
f 134 136 14
f 385 249 254
f 385 387 249
f 136 20 14
f 136 139 20
f 386 388 248
f 387 245 249
f 387 389 245
f 374 390 247
f 139 22 20
f 139 140 22
f 388 241 248
f 390 238 247
f 388 391 241
f 140 144 25
f 140 25 22
f 389 240 245
f 389 392 240
f 391 234 241
f 390 393 238
f 144 146 29
f 144 29 25
f 391 394 234
f 392 232 240
f 393 235 238
f 392 395 232
f 393 366 235
f 146 31 29
f 146 148 31
f 366 229 235
f 394 226 234
f 394 364 226
f 395 223 232
f 148 34 31
f 148 150 34
f 395 368 223
f 396 368 395
f 150 36 34
f 150 152 36
f 396 313 368
f 311 313 396
f 363 397 398
f 399 364 394
f 152 39 36
f 399 398 364
f 363 398 399
f 152 155 39
f 400 316 366
f 362 316 400
f 400 366 393
f 392 396 395
f 155 43 39
f 155 157 43
f 311 396 392
f 401 311 392
f 157 45 43
f 360 363 399
f 402 400 393
f 157 160 45
f 358 400 402
f 358 362 400
f 160 47 45
f 401 392 403
f 404 394 391
f 160 163 47
f 404 399 394
f 360 399 404
f 163 49 47
f 402 393 390
f 405 402 390
f 358 402 405
f 403 392 389
f 163 165 49
f 355 401 403
f 354 360 404
f 165 52 49
f 406 404 391
f 354 404 406
f 165 169 55
f 165 55 52
f 356 358 405
f 407 403 389
f 352 403 407
f 352 355 403
f 169 172 55
f 406 391 388
f 356 405 390
f 172 58 55
f 172 174 58
f 356 390 374
f 407 389 387
f 351 354 406
f 408 407 387
f 174 62 58
f 174 176 62
f 352 407 408
f 409 406 388
f 176 63 62
f 176 178 63
f 351 406 409
f 409 388 386
f 408 387 385
f 346 352 408
f 178 68 63
f 348 351 409
f 410 409 386
f 178 180 69
f 178 69 68
f 348 409 410
f 411 408 385
f 346 408 411
f 180 71 69
f 410 386 384
f 412 410 384
f 180 182 71
f 343 410 412
f 343 348 410
f 413 385 382
f 413 411 385
f 182 75 71
f 344 411 413
f 344 346 411
f 182 184 75
f 412 384 383
f 414 412 383
f 184 77 75
f 343 412 414
f 415 413 382
f 184 186 79
f 184 79 77
f 342 413 415
f 342 344 413
f 186 189 79
f 341 343 414
f 337 342 415
f 414 383 381
f 337 382 380
f 189 82 79
f 337 415 382
f 416 414 381
f 189 192 82
f 341 414 416
f 339 341 416
f 192 86 82
f 417 337 380
f 336 337 417
f 339 381 377
f 192 88 86
f 192 194 88
f 339 416 381
f 418 339 377
f 333 339 418
f 336 380 376
f 336 417 380
f 194 196 93
f 194 93 88
f 332 333 418
f 334 336 376
f 332 377 375
f 196 95 93
f 332 418 377
f 419 332 375
f 196 201 95
f 420 334 376
f 330 334 420
f 329 332 419
f 420 376 373
f 201 99 95
f 419 375 372
f 421 356 374
f 201 203 99
f 325 356 421
f 329 419 372
f 203 101 99
f 422 420 373
f 330 420 422
f 423 374 370
f 203 102 101
f 423 421 374
f 325 421 423
f 203 206 102
f 422 373 371
f 324 330 422
f 206 105 102
f 424 329 372
f 327 329 424
f 206 209 105
f 322 325 423
f 425 422 371
f 324 422 425
f 424 372 369
f 317 324 425
f 318 327 424
f 209 108 105
f 209 211 108
f 322 423 370
f 425 371 367
f 426 424 369
f 318 424 426
f 320 370 365
f 211 213 111
f 211 111 108
f 320 322 370
f 427 425 367
f 213 214 114
f 213 114 111
f 317 425 427
f 313 318 426
f 313 369 368
f 313 426 369
f 214 216 114
f 427 367 366
f 316 317 427
f 216 118 114
f 398 365 364
f 398 320 365
f 397 320 398
f 316 427 366
f 216 219 124
f 216 124 118
f 230 309 297
f 227 284 298
f 224 287 301
f 284 292 298
f 230 286 309
f 219 1 124
f 287 307 301
f 287 281 307
f 286 304 309
f 286 280 304
f 284 279 292
f 279 310 292
f 281 274 307
f 280 276 304
f 279 246 310
f 274 295 307
f 276 293 304
f 276 269 293
f 274 271 295
f 271 306 295
f 271 266 306
f 269 303 293
f 269 265 303
f 266 300 306
f 266 262 300
f 265 261 303
f 261 308 303
f 262 258 300
f 258 291 300
f 261 256 308
f 258 253 291
f 256 296 308
f 256 252 296
f 253 299 291
f 253 251 299
f 252 250 296
f 251 244 299
f 250 302 296
f 250 243 302
f 246 305 310
f 246 239 305
f 244 294 299
f 244 237 294
f 243 236 302
f 236 290 302
f 239 297 305
f 239 231 297
f 237 228 294
f 236 225 290
f 228 298 294
f 225 301 290
f 231 230 297
f 228 227 298
f 428 429 200
f 429 202 200
f 429 430 202
f 431 161 159
f 431 432 161
f 432 164 161
f 432 433 164
f 430 204 202
f 430 434 204
f 433 167 164
f 434 205 204
f 434 435 205
f 433 168 167
f 433 436 168
f 437 126 125
f 437 438 126
f 435 439 205
f 439 208 205
f 436 170 168
f 438 130 126
f 436 440 170
f 438 441 130
f 439 442 208
f 440 173 170
f 441 131 130
f 442 210 208
f 442 443 210
f 440 175 173
f 440 444 175
f 441 133 131
f 441 445 133
f 443 212 210
f 444 177 175
f 445 446 133
f 444 447 177
f 446 135 133
f 443 448 212
f 447 179 177
f 446 449 135
f 448 215 212
f 447 450 179
f 449 137 135
f 448 451 215
f 450 181 179
f 451 217 215
f 450 452 181
f 449 453 137
f 453 141 137
f 452 183 181
f 451 221 217
f 451 454 221
f 453 455 141
f 452 456 183
f 454 125 221
f 454 437 125
f 455 145 141
f 455 457 145
f 456 185 183
f 456 458 185
f 457 147 145
f 457 459 147
f 458 187 185
f 458 460 187
f 459 149 147
f 460 461 187
f 459 462 149
f 461 191 187
f 462 153 149
f 462 463 153
f 461 464 191
f 464 193 191
f 463 154 153
f 464 465 193
f 463 466 154
f 465 195 193
f 466 156 154
f 465 428 195
f 428 200 195
f 466 159 156
f 466 431 159
f 378 379 467
f 468 353 349
f 468 469 353
f 470 471 350
f 470 472 471
f 473 468 349
f 474 470 350
f 474 350 475
f 476 349 345
f 476 473 349
f 477 474 475
f 477 475 347
f 478 476 345
f 478 345 479
f 480 347 481
f 480 477 347
f 482 478 479
f 482 479 483
f 484 480 481
f 485 482 483
f 484 481 340
f 485 483 338
f 486 484 340
f 487 338 488
f 487 485 338
f 489 340 490
f 489 486 340
f 491 487 488
f 491 488 335
f 492 490 493
f 492 489 490
f 494 335 495
f 494 491 335
f 492 493 496
f 494 495 497
f 498 492 496
f 499 494 497
f 498 496 331
f 500 499 497
f 501 331 326
f 501 498 331
f 500 497 328
f 502 378 467
f 501 326 503
f 502 467 504
f 500 328 323
f 505 502 504
f 506 501 503
f 507 500 323
f 508 504 321
f 508 505 504
f 507 323 319
f 506 503 509
f 510 506 509
f 511 508 321
f 512 319 315
f 512 507 319
f 510 509 312
f 511 321 513
f 514 511 513
f 515 315 516
f 515 512 315
f 517 510 312
f 517 312 518
f 519 514 513
f 519 513 520
f 515 516 314
f 521 517 518
f 519 520 361
f 522 515 314
f 521 518 523
f 524 521 523
f 525 519 361
f 522 314 357
f 526 522 357
f 527 523 528
f 527 524 523
f 529 361 359
f 529 525 361
f 530 357 531
f 530 526 357
f 532 527 528
f 533 529 359
f 533 359 471
f 379 530 531
f 469 528 353
f 469 532 528
f 472 533 471
f 379 531 467
f 484 477 480
f 534 482 485
f 535 484 486
f 534 485 487
f 536 492 498
f 537 498 501
f 537 501 506
f 538 507 512
f 539 515 522
f 526 539 522
f 378 122 3
f 379 3 2
f 502 122 378
f 505 122 502
f 505 117 122
f 508 117 505
f 508 115 117
f 511 115 508
f 511 112 115
f 514 112 511
f 514 110 112
f 519 110 514
f 525 110 519
f 525 109 110
f 525 107 109
f 529 107 525
f 529 104 107
f 533 104 529
f 533 103 104
f 472 103 533
f 472 100 103
f 470 100 472
f 470 98 100
f 474 98 470
f 477 98 474
f 477 97 98
f 484 97 477
f 484 94 97
f 484 92 94
f 535 92 484
f 535 87 92
f 486 87 535
f 486 85 87
f 489 85 486
f 438 119 242
f 489 83 85
f 492 83 489
f 435 18 439
f 492 81 83
f 536 81 492
f 536 80 81
f 498 80 536
f 498 78 80
f 498 76 78
f 537 76 498
f 537 74 76
f 537 73 74
f 506 73 537
f 506 70 73
f 510 70 506
f 436 10 222
f 436 222 440
f 510 65 70
f 438 242 441
f 439 18 218
f 439 218 442
f 517 65 510
f 517 64 65
f 441 242 220
f 521 64 517
f 521 61 64
f 524 61 521
f 524 59 61
f 524 56 59
f 527 56 524
f 527 53 56
f 532 53 527
f 469 53 532
f 469 51 53
f 468 51 469
f 468 50 51
f 473 50 468
f 473 48 50
f 442 218 443
f 440 222 197
f 440 197 444
f 441 220 190
f 441 190 445
f 443 218 188
f 476 48 473
f 476 46 48
f 478 46 476
f 478 44 46
f 482 44 478
f 482 42 44
f 534 42 482
f 534 41 42
f 534 37 41
f 487 37 534
f 445 190 446
f 487 35 37
f 491 35 487
f 491 32 35
f 444 197 447
f 494 32 491
f 494 30 32
f 499 30 494
f 443 188 448
f 447 197 162
f 499 26 30
f 500 26 499
f 500 24 26
f 507 24 500
f 507 23 24
f 538 23 507
f 538 21 23
f 446 190 166
f 446 166 449
f 448 188 158
f 538 19 21
f 512 19 538
f 447 162 450
f 512 15 19
f 515 15 512
f 515 13 15
f 539 13 515
f 539 11 13
f 526 11 539
f 526 6 11
f 530 6 526
f 530 5 6
f 448 158 451
f 379 5 530
f 379 2 5
f 225 224 301
f 467 531 356
f 353 528 355
f 471 359 354
f 531 357 356
f 450 162 452
f 449 166 142
f 449 142 453
f 528 401 355
f 528 523 401
f 452 162 138
f 357 314 362
f 523 311 401
f 523 518 311
f 451 158 128
f 361 520 363
f 520 397 363
f 520 513 397
f 518 312 311
f 516 315 314
f 513 320 397
f 451 128 454
f 513 321 320
f 312 509 318
f 509 503 318
f 453 142 455
f 503 326 318
f 504 325 321
f 504 467 325
f 452 138 456
f 455 142 116
f 328 497 330
f 497 334 330
f 454 128 437
f 456 138 106
f 331 496 333
f 497 495 334
f 455 116 457
f 495 335 334
f 496 339 333
f 496 493 339
f 493 490 339
f 488 338 335
f 490 340 339
f 437 128 119
f 338 483 342
f 340 481 343
f 456 106 458
f 483 344 342
f 483 479 344
f 481 347 343
f 479 345 344
f 347 475 348
f 475 350 348
f 457 116 96
f 350 471 354
f 467 356 325
f 437 119 438
f 433 10 436
f 457 96 459
f 433 8 10
f 458 106 460
f 434 18 435
f 434 16 18
f 460 106 89
f 430 16 434
f 432 8 433
f 432 27 8
f 430 38 16
f 431 27 432
f 431 40 27
f 429 38 430
f 428 38 429
f 460 89 461
f 459 96 84
f 459 84 462
f 428 54 38
f 466 40 431
f 466 60 40
f 465 54 428
f 461 89 66
f 465 66 54
f 463 60 466
f 464 66 465
f 463 72 60
f 461 66 464
f 462 84 72
f 462 72 463
