v 0.009802438 -0.0494426 0.006704807
v -0.00858546 -0.05026557 -0.01016963
v 0.01882106 -0.04828468 -0.01842976
v 0.03320292 -0.03576301 0.03205174
v 0.006763972 -0.03480505 0.05583769
v 0.03302656 0.03694242 0.02702916
v 0.007623974 0.02720046 0.05625272
v 0.01471159 0.02198438 0.05366701
v -0.003289379 0.02695869 0.048958
v -0.006803118 0.05026557 0.005612493
v 0.01927232 -0.003112264 0.05625516
v 0.03141072 -0.01602947 -0.04937434
v -0.001187477 -0.0285345 -0.04728854
v 0.0005240664 -0.003048703 -0.0562551
v 0.02703641 -0.03369174 -0.03953123
v -0.01920266 0.01320719 -0.04038215
v -0.02774291 0.003861263 -0.03366935
v -0.01666406 -0.02272582 0.04895818
v -0.01343708 -0.0329726 0.04921848
v -0.02564228 0.02932725 -0.01871181
v -0.0007694252 0.03682458 -0.0399127
v 0.02958382 0.004501052 0.04589057
v 0.01165785 0.04628368 0.01361108
v 0.01870455 0.04882368 -0.005656362
v 0.02514955 0.04330086 -0.02457058
v 0.03101369 0.02777954 -0.04276633
v 0.03320436 0.004247814 -0.05162644
v 0.02336181 -0.04054395 -0.02939641
v 0.02863794 -0.02776549 -0.04206264
v -0.01514194 -0.0148776 -0.04350626
v 0.0009867586 0.0214721 -0.05095923
v -0.01787461 0.02321475 0.03106821
v -0.03167884 0.00817249 0.007307053
v -0.02374264 0.03542358 -0.0003905296
v -0.02981488 -0.009719856 0.01558232
v -0.004617728 -0.04509592 -0.02962196
v -0.03046742 0.01297671 -0.02080333
v 0.02990565 -0.01616368 0.04372638
v 0.02951845 0.02328913 0.0395965
v 0.02930246 0.0325809 -0.03637433
v -0.002505541 0.04772723 -0.02252018
v 0.03242126 0.01637208 -0.04676616
v 0.03218511 -0.009582497 -0.04933274
v -0.02225555 -0.03674306 -0.001363516
v -0.01098001 -0.04880172 0.008355498
v -0.03320436 -0.005765289 -0.01324308
v -0.01705852 -0.02746505 0.04428244
v -0.02747191 -0.02597219 0.007778525
v -0.02917238 -0.02395233 -0.01441574
v -0.02737276 -0.02339055 -0.0248996
v 0.03276803 -0.002713248 -0.05003953
v -0.02521633 -0.03155889 -0.0002750158
v -0.02316664 -0.0153632 -0.035128
v -0.02043758 -0.0282351 -0.02825975
f 1 2 3
f 4 1 3
f 1 4 5
f 6 7 8
f 9 7 10
f 7 11 8
f 11 7 5
f 12 13 14
f 15 13 12
f 16 14 17
f 18 7 9
f 5 18 19
f 7 18 5
f 20 16 17
f 16 20 21
f 6 22 4
f 11 22 8
f 23 24 10
f 24 23 6
f 7 23 10
f 23 7 6
f 25 24 6
f 21 25 26
f 27 12 14
f 27 6 4
f 28 4 3
f 15 28 3
f 28 15 4
f 29 12 4
f 15 29 4
f 29 15 12
f 14 30 17
f 13 30 14
f 16 31 14
f 31 16 21
f 31 21 26
f 27 31 26
f 31 27 14
f 32 18 9
f 18 32 33
f 32 34 33
f 32 9 10
f 34 32 10
f 35 18 33
f 2 36 3
f 36 15 3
f 36 13 15
f 37 20 17
f 34 37 33
f 37 34 20
f 22 38 4
f 38 22 11
f 4 38 5
f 38 11 5
f 39 6 8
f 22 39 8
f 39 22 6
f 40 6 26
f 25 40 26
f 40 25 6
f 41 25 21
f 25 41 24
f 24 41 10
f 20 41 21
f 41 34 10
f 34 41 20
f 6 42 26
f 42 27 26
f 27 42 6
f 12 43 4
f 27 43 12
f 44 45 19
f 45 44 2
f 1 45 2
f 45 5 19
f 45 1 5
f 46 35 33
f 37 46 33
f 46 37 17
f 18 47 19
f 35 47 18
f 48 46 49
f 46 48 35
f 48 47 35
f 48 44 19
f 47 48 19
f 50 36 2
f 50 46 17
f 46 50 49
f 44 50 2
f 50 44 49
f 51 27 4
f 43 51 4
f 51 43 27
f 44 52 49
f 52 48 49
f 48 52 44
f 30 53 17
f 53 50 17
f 53 30 13
f 54 53 13
f 53 54 50
f 36 54 13
f 50 54 36
