v -0.001456022 0.01779325 0.01899558
v 0.003017902 0.02030893 -0.03567535
v -0.002462029 0.01670681 -0.01179618
v 0.002875507 0.01944561 0.02054101
v 0.001771986 -0.01752263 0.008631885
v 0.003668427 -0.01755238 0.02826804
v -0.0009074807 -0.02030893 -0.003992677
v 0.003889918 0.01963909 0.01702553
v 0.002497196 -0.003907815 0.03250384
v 0.004017353 0.01872794 0.01701099
v 0.00401783 -0.0166465 0.03319287
v -0.003933907 -0.01620702 0.00766927
v -0.001311898 -0.01786532 -0.003718734
v 0.003146052 0.01945944 -0.0358156
v 0.003385007 -0.01770614 0.0358156
v -0.002966583 -0.01671292 0.0340392
v -0.002712607 -0.01852949 0.03401232
v 0.002496541 0.010986 0.02569091
v 0.00401777 0.01951458 -0.03543055
v -0.004017889 -0.001296461 0.002338171
v -0.003593087 0.006626591 -0.002715886
v -0.002234399 0.01590466 0.01588356
v -0.003600895 -0.002866074 0.02984953
v -0.001020372 0.01176776 0.02344835
v -0.003786683 -0.01760222 0.02420771
f 1 2 3
f 1 4 2
f 5 6 7
f 4 8 2
f 9 8 4
f 10 8 11
f 12 13 7
f 2 13 3
f 14 13 2
f 13 14 7
f 15 9 16
f 17 15 16
f 8 15 11
f 15 8 9
f 15 6 11
f 15 17 7
f 6 15 7
f 18 9 4
f 19 8 10
f 19 10 11
f 19 14 2
f 8 19 2
f 6 19 11
f 19 6 5
f 19 5 7
f 14 19 7
f 20 21 12
f 13 21 3
f 21 13 12
f 22 1 3
f 21 22 3
f 9 23 16
f 18 23 9
f 22 23 1
f 23 21 20
f 23 22 21
f 23 24 1
f 24 23 18
f 1 24 4
f 24 18 4
f 23 25 16
f 25 17 16
f 25 20 12
f 25 23 20
f 17 25 7
f 25 12 7
