v -0.001016345 -0.03170698 0.08853872
v -0.04387131 -0.01849959 0.08253303
v -0.04296174 -0.03508756 0.07852191
v -0.04413897 -0.06654227 -0.05121955
v -0.03533325 -0.06238066 0.04636301
v -0.03883593 -0.05653923 0.06000908
v -0.001867669 -0.007386351 0.090527
v -0.04374444 -0.004602073 0.08148717
v -0.04348184 0.005240109 -0.05186358
v 0.00902297 -0.05813527 0.05987804
v 0.02340307 -0.0663075 -0.005923703
v 0.04213807 -0.06627046 -0.033727
v -0.0002853461 -0.01669301 0.09111023
v -0.0411052 -0.04846561 0.06989682
v 0.04383729 0.003719943 0.0114015
v 0.04073357 0.03355559 -0.04982109
v 0.03555971 0.0564694 -0.04118364
v 0.04407165 -0.06625728 -0.04577904
v 0.04413896 -0.03292713 0.008334223
v 0.03927935 -0.03918625 0.03580658
v 0.04005499 0.004352668 -0.06469119
v 0.04342205 -0.002365432 -0.05366925
v 0.04154982 -0.06621407 -0.06270799
v -0.00267778 -0.05835798 0.06303415
v 0.002829844 -0.05121583 0.07437327
v -0.00123008 0.004914932 0.08690137
v -0.04226688 0.01100757 0.07511461
v -0.04043169 -0.0008360688 -0.06486478
v -0.04014223 -0.06632896 -0.06537364
v 0.0001513716 -0.06181814 0.05243226
v 0.0006192084 -0.04359354 0.08170645
v 0.03264524 -0.0662064 -0.07676799
v 0.03512392 0.003437994 -0.07349914
v -0.00684322 0.05900919 -0.06962264
v 0.0214229 0.06442347 -0.03218194
v 0.02597509 0.06020107 -0.05347035
v 0.01496334 0.05336753 -0.07436762
v 0.007884534 0.04338532 -0.08439402
v 9.416416e-05 0.05124591 -0.07993957
v -0.02143787 0.06505476 -0.02286255
v -0.006377454 0.06613272 -0.01734852
v -0.01195606 0.06654218 -0.02820996
v -0.02544484 0.06446828 -0.04160254
v 0.02420516 -0.0662077 -0.08410866
v 0.009005809 0.01378181 0.0773472
v 0.02901107 0.004874978 0.0650387
v 0.01653563 0.01948533 0.06531569
v 0.02726572 0.002954278 -0.08125909
v 0.03289049 0.008874144 0.05566385
v 0.03220379 -0.03891716 0.05775865
v -0.03775705 -0.06637371 -0.02025807
v -0.0404969 0.0343524 -0.05394711
v -0.03674079 0.05752606 -0.04929615
v -0.03972176 0.02364045 0.06398171
v -0.03334653 -0.06630292 -0.07618848
v -0.02591372 0.00555996 -0.08256707
v -0.01977345 -0.0662705 -0.08669054
v 0.02012476 0.0572559 -0.06643159
v 0.008003203 0.06621537 -0.02224972
v -0.0102189 0.05536217 -0.07567366
v -0.02197255 0.05300206 -0.07431015
v -0.02089474 0.06012509 -0.06394022
v -0.03339962 0.0552134 -0.06188763
v 0.03899953 0.008931495 0.03634919
v 0.03595487 0.0530531 -0.0537551
v 0.0299828 0.0596865 -0.02626578
v -0.004922092 -0.06624269 -0.09111022
v 0.01088379 -0.06622156 -0.0900002
v 0.01778003 0.06270264 -0.01669379
v 0.008847697 -0.02595022 0.08572464
v 0.01425922 -0.009584028 0.08299222
v 0.006770484 -0.0003373409 0.08595718
v 0.0176983 0.006173784 0.07532772
v 0.02592828 -0.0271046 0.07174922
v 0.01190008 -0.04062336 0.07823259
v -0.003073694 0.02501929 0.06825638
v -0.01361863 0.005116515 -0.08880638
v -0.03478109 0.02699576 -0.07047413
v 0.0268771 0.02838828 -0.07867441
v 0.02190601 0.04807394 -0.07627712
v 0.03247919 0.03734919 -0.07136906
v -0.02879377 0.06162335 -0.05209652
v 0.004767019 0.06431711 -0.01271405
v 0.006348809 0.02418273 0.0683472
v 0.02725491 0.06169377 -0.04141834
v 0.01539205 0.006834691 -0.08807337
v 0.01697013 -0.05068023 0.06433248
v 0.001129335 0.01615824 0.07921673
v -0.01989247 0.02755078 -0.08426788
v -0.02986747 0.05045173 -0.06951326
v 0.02521996 -0.007649407 0.07295877
v 0.001484526 -0.005637489 -0.09109961
v 0.002276042 0.03025934 -0.08854041
v -0.0100373 0.03367009 -0.08643644
v 0.03102814 0.05272934 -0.06317307
v 0.0141282 0.03494665 -0.08502219
v -0.007736584 0.04821801 -0.08273603
v -0.0342678 0.06098564 -0.03615012
v -0.03294801 -0.004426261 -0.07633681
v 0.03882949 0.03102227 -0.06070457
v -0.0271302 0.03045787 -0.07852202
v -0.01805442 0.04399 -0.08128872
f 1 2 3
f 4 5 6
f 7 8 2
f 2 4 3
f 8 4 2
f 9 4 8
f 10 11 12
f 13 2 1
f 4 6 14
f 4 14 3
f 15 16 17
f 18 19 20
f 21 22 23
f 5 24 6
f 14 6 25
f 8 26 27
f 7 2 13
f 4 28 29
f 30 5 11
f 14 31 3
f 32 33 23
f 34 35 36
f 37 38 39
f 40 41 42
f 34 43 35
f 12 18 20
f 18 12 23
f 32 23 12
f 32 12 44
f 45 46 47
f 10 30 11
f 18 23 22
f 48 32 44
f 49 50 20
f 30 24 5
f 24 30 10
f 51 11 5
f 51 5 4
f 52 9 27
f 8 27 9
f 53 27 54
f 55 56 57
f 4 9 28
f 36 58 34
f 41 59 42
f 60 61 62
f 52 53 63
f 43 42 35
f 35 42 59
f 20 15 64
f 19 15 20
f 16 65 17
f 66 64 17
f 55 67 29
f 44 67 68
f 12 67 44
f 67 4 29
f 69 35 59
f 70 71 13
f 72 71 73
f 22 19 18
f 33 21 23
f 50 46 74
f 49 20 64
f 66 49 64
f 12 20 50
f 75 31 25
f 24 25 6
f 52 27 53
f 45 72 73
f 76 41 54
f 57 67 55
f 56 77 57
f 28 55 29
f 28 52 78
f 31 1 3
f 70 1 75
f 32 48 33
f 79 80 81
f 60 34 39
f 34 37 39
f 58 37 34
f 34 62 43
f 82 43 62
f 15 17 64
f 67 51 4
f 69 83 84
f 46 45 73
f 35 85 36
f 19 22 15
f 22 16 15
f 68 86 44
f 50 74 75
f 46 50 49
f 12 50 87
f 31 14 25
f 8 7 26
f 27 88 54
f 89 77 56
f 61 90 63
f 52 28 9
f 71 72 13
f 91 71 74
f 1 31 75
f 92 68 67
f 86 92 93
f 94 93 77
f 65 95 36
f 80 79 96
f 80 95 81
f 39 97 60
f 97 61 60
f 62 63 82
f 43 82 98
f 53 98 82
f 54 40 98
f 59 41 83
f 84 47 66
f 74 71 70
f 35 66 85
f 85 66 17
f 44 86 48
f 79 86 96
f 86 79 48
f 70 75 74
f 87 10 12
f 46 49 47
f 53 54 98
f 54 88 76
f 76 83 41
f 77 67 57
f 78 99 28
f 55 99 56
f 72 7 13
f 13 1 70
f 24 10 25
f 87 25 10
f 75 25 87
f 92 86 68
f 81 21 33
f 77 92 67
f 94 97 93
f 38 96 93
f 80 58 95
f 65 81 95
f 100 65 16
f 39 38 97
f 38 80 96
f 37 58 80
f 90 78 63
f 54 41 40
f 35 69 66
f 82 63 53
f 43 98 40
f 40 42 43
f 49 66 47
f 87 50 75
f 46 91 74
f 26 88 27
f 26 7 72
f 45 88 26
f 84 45 47
f 45 26 72
f 28 99 55
f 78 101 56
f 102 90 61
f 78 56 99
f 33 79 81
f 79 33 48
f 102 97 94
f 93 92 77
f 58 36 95
f 93 97 38
f 37 80 38
f 34 60 62
f 61 63 62
f 97 102 61
f 63 78 52
f 90 101 78
f 66 69 84
f 83 69 59
f 17 65 36
f 16 22 100
f 100 22 21
f 81 100 21
f 71 91 73
f 83 76 84
f 84 88 45
f 76 88 84
f 56 101 89
f 77 89 94
f 102 94 89
f 96 86 93
f 81 65 100
f 85 17 36
f 91 46 73
f 90 102 101
f 101 102 89
f 67 12 51
f 12 11 51
