v 0.01060422 -0.02844402 -0.1110383
v 0.01130088 -0.003879324 0.1208016
v -0.008378066 -0.02817136 0.1149766
v 0.00427077 0.01147892 -0.1175871
v 0.0003047884 0.02844402 -0.08897942
v -0.0006895065 0.004397169 0.08496344
v -0.009569131 0.02010062 -0.07201529
v -0.01130088 -0.01412074 0.09630454
v 0.001272984 0.01937294 -0.1116199
v -0.002554804 -0.004960999 -0.1165413
v 0.003974766 0.003424659 0.1030866
v 0.004847527 -0.002376035 -0.1208016
v 0.0001244247 -0.02600309 -0.1030173
v -0.01086453 -0.01612264 0.09203339
v -0.009208061 -0.01862264 0.04212642
v -0.0006165504 0.02650538 -0.09760958
v -0.006880283 0.01776607 -0.1037663
v -0.00570292 -0.01816414 -0.08850724
v -0.01002887 0.002239913 -0.06982118
v -0.007923745 -0.006571382 -0.08508766
v -0.008561894 0.00136444 -0.09469765
f 1 2 3
f 2 1 4
f 5 2 4
f 6 5 7
f 8 6 7
f 9 5 4
f 10 9 4
f 5 11 2
f 11 5 6
f 8 11 6
f 2 11 3
f 11 8 3
f 1 12 4
f 12 10 4
f 10 12 1
f 13 10 1
f 13 1 3
f 14 15 3
f 8 14 3
f 5 16 7
f 9 16 5
f 17 9 10
f 16 17 7
f 17 16 9
f 13 18 10
f 15 18 3
f 18 13 3
f 19 8 7
f 14 19 15
f 19 14 8
f 19 18 15
f 18 19 20
f 21 17 10
f 18 21 10
f 21 18 20
f 19 21 20
f 17 21 7
f 21 19 7
