v -0.004306309 -0.01582481 0.02036464
v 0.002003737 -0.01788062 0.02441341
v -0.001624219 -0.01546681 0.02633166
v -0.001486287 -0.01955189 -0.02572763
v -0.001479872 0.01955189 -0.0245235
v 0.001018196 0.01860636 -0.02516705
v -0.004387207 -0.01469848 0.02230895
v -0.003857687 -0.01169893 -0.02300614
v -0.004086301 -0.005855218 -0.02466428
v -0.004395574 0.01674426 -0.0238902
v 0.002051398 0.01577891 -0.01701093
v 0.002482392 -0.01143976 0.0207181
v 0.002430655 -0.005829141 0.01618534
v -0.003418587 -0.01804401 -0.011985
v 0.002715103 0.01617463 -0.02282035
v 0.002472013 0.01218836 -0.02572203
v 0.003860511 0.01042736 -0.01384676
v 0.004278228 0.007886991 -0.004589736
v 0.004257143 0.003879756 -0.006595731
v 0.0004313886 0.01032753 -0.003565311
v 0.003758222 0.00277321 0.00480026
v 0.002030827 0.0007207394 0.008936524
v -0.002426103 0.01649749 -0.01588517
v 0.003171191 -0.01114984 -0.02000141
v 0.003393538 -0.01746164 -0.009870768
v 0.004051983 -0.006664231 0.01198649
v -0.002838969 -0.01805513 -0.02534807
v -0.002266958 -0.005085573 0.01641905
v 0.002262309 -0.009238109 -0.0263316
v 0.002692014 -0.003473073 -0.02530974
v 0.003204435 -0.01923563 -0.00799489
v 0.004395582 -0.001313046 0.005461633
v 0.002710722 -0.01727521 0.02236575
v -0.002639785 -0.008630782 0.02017671
v -0.001398571 -0.0072034 0.01898032
v 0.003329672 -0.01861899 0.003301263
v 0.003015094 -0.01948379 0.003351569
f 1 2 3
f 4 5 6
f 7 1 3
f 7 8 1
f 9 5 4
f 5 9 10
f 9 7 10
f 9 8 7
f 5 11 6
f 2 12 3
f 12 13 3
f 8 14 1
f 11 15 6
f 15 16 6
f 16 15 17
f 18 19 17
f 18 20 21
f 20 18 11
f 15 18 17
f 18 15 11
f 22 13 21
f 20 22 21
f 23 11 5
f 23 20 11
f 23 5 10
f 7 23 10
f 19 24 17
f 25 24 19
f 24 25 4
f 13 26 21
f 12 26 13
f 14 27 4
f 27 14 8
f 27 9 4
f 9 27 8
f 28 22 20
f 28 23 7
f 23 28 20
f 29 24 4
f 29 4 6
f 16 29 6
f 30 16 17
f 24 30 17
f 30 29 16
f 29 30 24
f 25 31 4
f 18 32 19
f 32 25 19
f 32 18 21
f 26 32 21
f 33 12 2
f 33 26 12
f 34 7 3
f 34 28 7
f 22 35 13
f 28 35 22
f 34 35 28
f 13 35 3
f 35 34 3
f 36 31 25
f 32 36 25
f 36 32 26
f 33 36 26
f 36 37 31
f 31 37 4
f 37 33 2
f 37 36 33
f 37 14 4
f 1 37 2
f 14 37 1
