v 0.001943391 0.02759848 -0.005240262
v 0.0002369694 0.02750744 -0.00627569
v 0.0002369527 0.03268187 -0.006275654
v 0.001943396 0.03304625 -0.005240268
v -0.001805091 0.02744666 -0.00662561
v -0.001805086 0.03243897 -0.006625599
v -0.00180508 0.03755298 -0.006776333
v 0.0003450569 0.03797799 -0.006448239
v 0.00210185 0.03866686 -0.005418497
v -0.005553627 0.02759847 0.002256721
v -0.003847098 0.02750742 0.003292156
v -0.003847087 0.03268185 0.003292173
v -0.005553598 0.03304622 0.002256728
v -0.001805097 0.02744669 0.003642131
v -0.001805102 0.03243897 0.003642125
v -0.001805115 0.03755298 0.003797574
v -0.003955169 0.03797799 0.003467893
v -0.005711997 0.03866689 0.00243584
v -0.005553557 0.02759847 -0.005240262
v -0.006588995 0.02762886 -0.003533774
v -0.006589008 0.0331676 -0.003533744
v -0.005553592 0.03304622 -0.005240279
v -0.006938953 0.02762887 -0.001491779
v -0.006938959 0.03316766 -0.001491785
v -0.006970441 0.03913572 -0.001491785
v -0.006682051 0.03903317 -0.003641849
v -0.005711986 0.03866687 -0.005418533
v 0.001943421 0.02759847 0.002256751
v 0.002978861 0.02762887 0.0005502766
v 0.002978873 0.03316763 0.0005502766
v 0.001943415 0.03304622 0.002256745
v 0.003328811 0.0276289 -0.001491779
v 0.003328787 0.03316762 -0.001491749
v 0.003360247 0.03913572 -0.001491761
v 0.003071904 0.03903319 0.0006583575
v 0.002101874 0.03866688 0.002435816
v 0.0006694663 0.04025135 -0.006965887
v 0.002577102 0.04118504 -0.005953413
v -0.001805121 0.03976557 -0.007228398
v -0.001805073 0.04061889 -0.007810712
v 0.0009091198 0.0411047 -0.007633424
v 0.00342934 0.04237162 -0.006951976
v -0.004279584 0.04025133 0.003995096
v -0.006187284 0.04118501 0.002973086
v -0.001805091 0.03976556 0.004263991
v -0.001805086 0.0406068 0.004929638
v -0.004519308 0.04109268 0.004744405
v -0.007039487 0.04236391 0.004021311
v -0.006961256 0.04204315 -0.003966284
v -0.006187255 0.04118503 -0.005953407
v -0.007064795 0.04245326 -0.001491731
v -0.007261043 0.04419227 -0.001491767
v -0.007386768 0.04354248 -0.004342305
v -0.0070395 0.04237163 -0.006951946
v 0.003351092 0.04204312 0.0009827791
v 0.002577102 0.04118503 0.00297308
v 0.003454661 0.04245325 -0.001491761
v 0.003650868 0.04419228 -0.001491767
v 0.003776597 0.04354249 0.001358831
v 0.00342934 0.04236394 0.004021293
v 0.002143944 0.04386932 -0.008639771
v 0.0005710665 0.04325928 -0.008776975
v 0.0006720964 0.04435791 -0.00914151
v 0.002755092 0.04497959 -0.008916343
v -0.001805102 0.04275581 -0.00881927
v -0.001805086 0.04380276 -0.009179473
v -0.001805115 0.04528116 -0.009334087
v 0.0008646492 0.04580376 -0.00932982
v 0.003135037 0.04645662 -0.009174883
v -0.005754096 0.04385875 0.006119937
v -0.004181206 0.04331964 0.006287063
v -0.004282236 0.04483974 0.006612683
v -0.006365329 0.04503995 0.006439125
v -0.001805102 0.0428884 0.006301284
v -0.001805091 0.04457349 0.006563878
v -0.001805091 0.04646913 0.006624926
v -0.004474832 0.04656374 0.006738622
v -0.006745195 0.04658648 0.006682087
v -0.007918794 0.04487618 -0.004605507
v -0.008174926 0.04426464 -0.007109159
v -0.007597953 0.0454246 -0.001491779
v -0.007846594 0.04673022 -0.001491761
v -0.008327408 0.04642022 -0.00481227
v -0.008780574 0.04608632 -0.007451278
v 0.004308617 0.04487621 0.001622004
v 0.004564749 0.04425263 0.004204197
v 0.003987754 0.04542462 -0.001491749
v 0.00423646 0.04673024 -0.001491761
v 0.004717266 0.04642022 0.001828748
v 0.00517037 0.04607431 0.004546273
v 0.00312072 0.0504051 -0.009398401
v 0.0008522738 0.05034504 -0.009162056
v 0.000513386 0.05245627 -0.008892095
v 0.002488922 0.05229979 -0.008990521
v -0.00180511 0.05035322 -0.008920473
v -0.001805097 0.05267666 -0.008732105
v -0.00180508 0.05461532 -0.008446539
v 0.0002594348 0.05424877 -0.008477563
v 0.001752149 0.05369227 -0.008524304
v -0.006730849 0.05034088 0.006967235
v -0.004462494 0.05032875 0.006817425
v -0.004123582 0.05231705 0.006570715
v -0.006099094 0.05220487 0.006565183
v -0.001805056 0.05037688 0.00658117
v -0.001805115 0.05251584 0.00642773
v -0.00180508 0.05451502 0.006025439
v -0.003869629 0.05415388 0.006052196
v -0.005362321 0.05361269 0.006033188
v -0.008721573 0.05083134 -0.007869523
v -0.008020479 0.0508921 -0.00506413
v -0.007176924 0.0530693 -0.004785836
v -0.007809227 0.05314921 -0.007397908
v -0.007369494 0.05088434 -0.001491785
v -0.006597651 0.05289999 -0.001491761
v -0.005402625 0.05441149 -0.001491767
v -0.00582785 0.05477488 -0.004455835
v -0.006291581 0.05506197 -0.00684067
v 0.005111396 0.05081932 0.004964536
v 0.004410313 0.05089207 0.002080656
v 0.003566777 0.05306925 0.001802349
v 0.004199063 0.05313717 0.004492957
v 0.003759349 0.05088432 -0.001491755
v 0.002987551 0.05289997 -0.001491761
v 0.001792515 0.05441149 -0.001491761
v 0.002217697 0.05477487 0.001472348
v 0.00268147 0.05504994 0.00393567
v -0.003948892 0.05570152 -0.004345834
v -0.004193533 0.05630188 -0.006657332
v -0.003724659 0.05509435 -0.001491755
v -0.001805102 0.05522864 -0.001491743
v -0.001805102 0.05597013 -0.00434581
v -0.00180508 0.05675365 -0.006659108
v -0.003847098 0.02750743 -0.006275678
v -0.003847098 0.03268189 -0.006275654
v -0.003955251 0.03797805 -0.006448233
v 0.0002369881 0.02750741 0.003292168
v 0.0002369639 0.03268188 0.003292162
v 0.0003450625 0.037978 0.003467893
v -0.004279597 0.04025133 -0.006965876
v -0.004519297 0.04110466 -0.0076334
v 0.0006694663 0.04025132 0.003995074
v 0.0009091012 0.04109268 0.004744399
v -0.004181201 0.04325929 -0.008776951
v -0.004282255 0.04435792 -0.00914154
v -0.005754108 0.04386934 -0.008639758
v -0.006365312 0.04497956 -0.008916318
v -0.00674516 0.04645664 -0.009174889
v -0.004474819 0.04580376 -0.009329796
v 0.0005710479 0.04331967 0.006287051
v 0.000672102 0.04483974 0.006612688
v 0.002143931 0.04385872 0.00611992
v 0.002755105 0.04503994 0.006439114
v 0.003135061 0.04658648 0.006682074
v 0.0008646846 0.04656371 0.006738627
v -0.004462499 0.05034503 -0.009162056
v -0.004123557 0.05245624 -0.008892113
v -0.006730849 0.0504051 -0.009398365
v -0.006099088 0.05229978 -0.008990521
v -0.005362356 0.05369228 -0.008524274
v -0.003869647 0.05424884 -0.008477574
v 0.0008523706 0.05032873 0.006817443
v 0.000513399 0.05231704 0.00657071
v 0.003120696 0.05034089 0.006967222
v 0.002488911 0.05220488 0.006565167
v 0.001752185 0.05361269 0.006033123
v 0.000259446 0.05415388 0.006052166
v -0.001805091 0.05674159 0.003754133
v 0.000583278 0.05628983 0.003752375
v 0.0003387444 0.05570153 0.00136236
v -0.001805091 0.05597013 0.001362348
v 0.0001144875 0.0550944 -0.001491767
v -0.006938953 0.02762887 -0.001491779
v -0.006588984 0.02762886 0.0005502766
v -0.006589001 0.03316763 0.0005502766
v -0.006938959 0.03316766 -0.001491785
v -0.006682057 0.03903317 0.0006584227
v -0.006970441 0.03913572 -0.001491785
v 0.002978861 0.02762888 -0.003533744
v 0.002978856 0.03316761 -0.003533793
v 0.003071915 0.03903317 -0.003641861
v -0.006961256 0.0420431 0.0009827856
v -0.007064795 0.04245326 -0.001491731
v -0.00738675 0.04354247 0.001358819
v -0.007261043 0.04419227 -0.001491767
v 0.003351117 0.04204314 -0.003966265
v 0.003776621 0.04354248 -0.004342305
v -0.007918794 0.04487618 0.001622033
v -0.007597953 0.0454246 -0.001491779
v -0.00817495 0.04425265 0.004204184
v -0.008780509 0.04607433 0.00454632
v -0.008327413 0.04642022 0.001828796
v -0.007846594 0.04673022 -0.001491761
v 0.004308606 0.04487619 -0.004605532
v 0.004564738 0.04426464 -0.007109159
v 0.005170356 0.04608631 -0.007451266
v 0.004717195 0.04642025 -0.004812288
v -0.007369494 0.05088434 -0.001491785
v -0.008020431 0.05089208 0.002080619
v -0.007176949 0.05306928 0.001802337
v -0.006597651 0.05289999 -0.001491761
v -0.008721525 0.05081934 0.004964536
v -0.007809198 0.05313718 0.004492944
v -0.006291592 0.05504993 0.003935665
v -0.005827844 0.05477487 0.001472331
v -0.005402625 0.05441149 -0.001491767
v 0.004410302 0.05089211 -0.005064112
v 0.003566753 0.05306928 -0.00478583
v 0.005111407 0.05083134 -0.007869512
v 0.004199052 0.05314916 -0.007397896
v 0.002681458 0.05506194 -0.006840676
v 0.002217637 0.05477488 -0.004455823
v -0.003948892 0.05570157 0.001362336
v -0.003724659 0.05509435 -0.001491755
v -0.004193461 0.05628984 0.00375231
v 0.0003387574 0.05570154 -0.004345834
v 0.0005833022 0.05630188 -0.006657284
v -0.001805091 0.04767635 -0.009184385
v 0.0009471178 0.04796354 -0.009322328
v 0.00329653 0.04836122 -0.009397698
v -0.001805115 0.04838246 0.006638771
v -0.004557241 0.0484022 0.00684014
v -0.006906642 0.04841077 0.006932188
v -0.007778151 0.04868899 -0.001491773
v -0.008382594 0.04855064 -0.005019063
v -0.009004032 0.04837614 -0.007796013
v 0.004167985 0.04868898 -0.001491773
v 0.00477246 0.04855064 0.002035505
v 0.005393851 0.04836412 0.004891057
v -0.006906647 0.04836123 -0.009397721
v -0.004557246 0.04796352 -0.009322328
v 0.003296506 0.04841076 0.006932212
v 0.0009471048 0.04840218 0.006840164
v -0.009004051 0.04836414 0.004891027
v -0.008382594 0.04855062 0.002035523
v -0.007778151 0.04868899 -0.001491773
v 0.005393851 0.04837609 -0.007795996
v 0.004772412 0.04855061 -0.005019063
v -0.004373325 0.04214112 -0.008255708
v -0.001805091 0.04165508 -0.008352036
v -0.006479139 0.04324782 -0.008193593
v -0.007659972 0.04462377 -0.008392464
v -0.008216787 0.04632465 -0.008727091
v -0.008450484 0.04840586 -0.00907225
v -0.008221149 0.05061808 -0.009140855
v -0.007388759 0.05271172 -0.008645957
v -0.005982131 0.05446956 -0.008067012
v -0.004030013 0.05567415 -0.007883573
v -0.001805091 0.05613817 -0.007890785
v 0.0004198421 0.05567411 -0.007883566
v 0.002371954 0.05446954 -0.008067006
v 0.003778612 0.05271173 -0.008645982
v 0.004610932 0.05061807 -0.009140926
v 0.004840314 0.04840588 -0.009072274
v 0.004606605 0.04632463 -0.008727068
v 0.004049778 0.04462377 -0.008392435
v 0.002868937 0.04324782 -0.008193623
v 0.0007632188 0.04214111 -0.008255696
v 0.0007632133 0.04209304 0.005586356
v -0.001805091 0.04160699 0.005682593
v 0.002868926 0.04319974 0.005524253
v 0.004049802 0.04457575 0.005723083
v 0.004606569 0.0462765 0.00605768
v 0.004840301 0.04835785 0.006402815
v 0.004610956 0.05057 0.006471485
v 0.003778612 0.05266361 0.005976522
v 0.002372002 0.05442145 0.005397571
v 0.0004198421 0.05562605 0.005214168
v -0.001805102 0.05609007 0.005221402
v -0.004029989 0.05562604 0.005214149
v -0.005982136 0.05442145 0.005397577
v -0.007388765 0.05266364 0.005976547
v -0.008221162 0.05057003 0.006471498
v -0.008450508 0.04835784 0.006402826
v -0.008216804 0.04627651 0.006057668
v -0.007659972 0.04457572 0.005723078
v -0.006479144 0.04319975 0.005524231
v -0.004373331 0.04209302 0.005586332
v 0.0002369639 0.02559918 -0.00627566
v -0.001805073 0.02559913 -0.006625593
v 0.001943409 0.02559919 -0.005240262
v 0.001377815 0.02544628 -0.004674596
v -0.0002735853 0.02539279 -0.005079734
v -0.00180511 0.02544627 -0.005899679
v -0.003847105 0.02559919 0.003292156
v -0.001805115 0.02559918 0.003642125
v -0.005553598 0.02559918 0.002256709
v -0.004987968 0.02544627 0.001691139
v -0.003336597 0.02539278 0.002096164
v -0.001805097 0.02544627 0.002916175
v -0.006588995 0.02559916 -0.003533763
v -0.00693897 0.02559916 -0.001491761
v -0.005553586 0.02559919 -0.005240249
v -0.004987961 0.0254463 -0.004674619
v -0.005393064 0.02539279 -0.00302329
v -0.006212974 0.02544628 -0.001491791
v 0.002978818 0.02559917 0.000550312
v 0.003328811 0.02559917 -0.001491749
v 0.001943396 0.02559917 0.002256751
v 0.001377808 0.0254463 0.001691121
v 0.001782846 0.02539277 3.978051e-05
v 0.002602832 0.0254463 -0.001491773
v -0.003847117 0.02559919 -0.00627566
v -0.003336603 0.02539277 -0.005079722
v 0.0002369452 0.02559919 0.003292168
v -0.0002736282 0.02539279 0.002096183
v -0.006588995 0.0255992 0.0005502878
v -0.00693897 0.02559916 -0.001491761
v -0.006212974 0.02544628 -0.001491791
v -0.005393047 0.02539277 3.979821e-05
v 0.002978843 0.02559917 -0.003533739
v 0.001782851 0.02539279 -0.003023237
v 0.001377815 0.02544628 -0.004674596
v 0.001782851 0.02539279 -0.003023237
v -0.001805091 0.02532398 -0.001491743
v -0.0002735853 0.02539279 -0.005079734
v 0.002602832 0.0254463 -0.001491773
v 0.001782846 0.02539277 3.978051e-05
v 0.001377808 0.0254463 0.001691121
v -0.0002736282 0.02539279 0.002096183
v -0.001805097 0.02544627 0.002916175
v -0.003336597 0.02539278 0.002096164
v -0.004987968 0.02544627 0.001691139
v -0.005393047 0.02539277 3.979821e-05
v -0.006212974 0.02544628 -0.001491791
v -0.005393064 0.02539279 -0.00302329
v -0.004987961 0.0254463 -0.004674619
v -0.003336603 0.02539277 -0.005079722
v -0.00180511 0.02544627 -0.005899679
vt 0.6317 0.0736
vt 0.6949 0.07
vt 0.6879 0.1941
vt 0.6317 0.0736
vt 0.6879 0.1941
vt 0.625 0.2007
vt 0.7559 0.0685
vt 0.7489 0.1922
vt 0.6879 0.1941
vt 0.7559 0.0685
vt 0.6879 0.1941
vt 0.6949 0.07
vt 0.7416 0.3204
vt 0.6807 0.3232
vt 0.6879 0.1941
vt 0.7416 0.3204
vt 0.6879 0.1941
vt 0.7489 0.1922
vt 0.6181 0.3347
vt 0.625 0.2007
vt 0.6879 0.1941
vt 0.6181 0.3347
vt 0.6879 0.1941
vt 0.6807 0.3232
vt 0.1286 0.105
vt 0.1858 0.0962
vt 0.1838 0.2248
vt 0.1286 0.105
vt 0.1838 0.2248
vt 0.1243 0.2431
vt 0.246 0.0905
vt 0.2471 0.2139
vt 0.1838 0.2248
vt 0.246 0.0905
vt 0.1838 0.2248
vt 0.1858 0.0962
vt 0.2469 0.3433
vt 0.1809 0.3617
vt 0.1838 0.2248
vt 0.2469 0.3433
vt 0.1838 0.2248
vt 0.2471 0.2139
vt 0.1196 0.3922
vt 0.1243 0.2431
vt 0.1838 0.2248
vt 0.1196 0.3922
vt 0.1838 0.2248
vt 0.1809 0.3617
vt 0.8698 0.0735
vt 0.9216 0.0728
vt 0.9146 0.2179
vt 0.8698 0.0735
vt 0.9146 0.2179
vt 0.8615 0.2141
vt 0.9733 0.0244
vt 0.9668 0.2176
vt 0.9146 0.2179
vt 0.9733 0.0244
vt 0.9146 0.2179
vt 0.9216 0.0728
vt 0.9602 0.4109
vt 0.9069 0.3753
vt 0.9146 0.2179
vt 0.9602 0.4109
vt 0.9146 0.2179
vt 0.9668 0.2176
vt 0.8521 0.364
vt 0.8615 0.2141
vt 0.9146 0.2179
vt 0.8521 0.364
vt 0.9146 0.2179
vt 0.9069 0.3753
vt 0.3699 0.0862
vt 0.4346 0.0842
vt 0.4345 0.2113
vt 0.3699 0.0862
vt 0.4345 0.2113
vt 0.371 0.2133
vt 0.5003 0.0814
vt 0.4984 0.2079
vt 0.4345 0.2113
vt 0.5003 0.0814
vt 0.4345 0.2113
vt 0.4346 0.0842
vt 0.496 0.3452
vt 0.4334 0.3485
vt 0.4345 0.2113
vt 0.496 0.3452
vt 0.4345 0.2113
vt 0.4984 0.2079
vt 0.3707 0.3485
vt 0.371 0.2133
vt 0.4345 0.2113
vt 0.3707 0.3485
vt 0.4345 0.2113
vt 0.4334 0.3485
vt 0.6181 0.3347
vt 0.6807 0.3232
vt 0.6787 0.3858
vt 0.6181 0.3347
vt 0.6787 0.3858
vt 0.616 0.4032
vt 0.7416 0.3204
vt 0.7391 0.382
vt 0.6787 0.3858
vt 0.7416 0.3204
vt 0.6787 0.3858
vt 0.6807 0.3232
vt 0.7388 0.41
vt 0.6811 0.4142
vt 0.6787 0.3858
vt 0.7388 0.41
vt 0.6787 0.3858
vt 0.7391 0.382
vt 0.6152 0.4427
vt 0.616 0.4032
vt 0.6787 0.3858
vt 0.6152 0.4427
vt 0.6787 0.3858
vt 0.6811 0.4142
vt 0.1196 0.3922
vt 0.1809 0.3617
vt 0.1761 0.4343
vt 0.1196 0.3922
vt 0.1761 0.4343
vt 0.1155 0.4771
vt 0.2469 0.3433
vt 0.242 0.4068
vt 0.1761 0.4343
vt 0.2469 0.3433
vt 0.1761 0.4343
vt 0.1809 0.3617
vt 0.2362 0.4385
vt 0.1751 0.4733
vt 0.1761 0.4343
vt 0.2362 0.4385
vt 0.1761 0.4343
vt 0.242 0.4068
vt 0.1149 0.5377
vt 0.1155 0.4771
vt 0.1761 0.4343
vt 0.1149 0.5377
vt 0.1761 0.4343
vt 0.1751 0.4733
vt 0.8521 0.364
vt 0.9069 0.3753
vt 0.9032 0.4671
vt 0.8521 0.364
vt 0.9032 0.4671
vt 0.8471 0.4454
vt 0.9602 0.4109
vt 0.9607 0.4818
vt 0.9032 0.4671
vt 0.9602 0.4109
vt 0.9032 0.4671
vt 0.9069 0.3753
vt 0.9612 0.5526
vt 0.901 0.5241
vt 0.9032 0.4671
vt 0.9612 0.5526
vt 0.9032 0.4671
vt 0.9607 0.4818
vt 0.8415 0.4987
vt 0.8471 0.4454
vt 0.9032 0.4671
vt 0.8415 0.4987
vt 0.9032 0.4671
vt 0.901 0.5241
vt 0.3707 0.3485
vt 0.4334 0.3485
vt 0.4296 0.4254
vt 0.3707 0.3485
vt 0.4296 0.4254
vt 0.3658 0.4197
vt 0.496 0.3452
vt 0.4934 0.4245
vt 0.4296 0.4254
vt 0.496 0.3452
vt 0.4296 0.4254
vt 0.4334 0.3485
vt 0.4903 0.4686
vt 0.4258 0.4671
vt 0.4296 0.4254
vt 0.4903 0.4686
vt 0.4296 0.4254
vt 0.4934 0.4245
vt 0.3565 0.4628
vt 0.3658 0.4197
vt 0.4296 0.4254
vt 0.3565 0.4628
vt 0.4296 0.4254
vt 0.4258 0.4671
vt 0.6587 0.476
vt 0.6915 0.4651
vt 0.6882 0.4886
vt 0.6587 0.476
vt 0.6882 0.4886
vt 0.6458 0.4977
vt 0.736 0.4633
vt 0.733 0.4882
vt 0.6882 0.4886
vt 0.736 0.4633
vt 0.6882 0.4886
vt 0.6915 0.4651
vt 0.7255 0.5212
vt 0.679 0.5186
vt 0.6882 0.4886
vt 0.7255 0.5212
vt 0.6882 0.4886
vt 0.733 0.4882
vt 0.6341 0.5269
vt 0.6458 0.4977
vt 0.6882 0.4886
vt 0.6341 0.5269
vt 0.6882 0.4886
vt 0.679 0.5186
vt 0.1691 0.5788
vt 0.1951 0.5461
vt 0.2028 0.5874
vt 0.1691 0.5788
vt 0.2028 0.5874
vt 0.1689 0.6209
vt 0.2344 0.5093
vt 0.2402 0.5495
vt 0.2028 0.5874
vt 0.2344 0.5093
vt 0.2028 0.5874
vt 0.1951 0.5461
vt 0.2497 0.5929
vt 0.2104 0.6321
vt 0.2028 0.5874
vt 0.2497 0.5929
vt 0.2028 0.5874
vt 0.2402 0.5495
vt 0.1756 0.6672
vt 0.1689 0.6209
vt 0.2028 0.5874
vt 0.1756 0.6672
vt 0.2028 0.5874
vt 0.2104 0.6321
vt 0.8415 0.4987
vt 0.901 0.5241
vt 0.8983 0.577
vt 0.8415 0.4987
vt 0.8983 0.577
vt 0.8547 0.5616
vt 0.9612 0.5526
vt 0.9496 0.5999
vt 0.8983 0.577
vt 0.9612 0.5526
vt 0.8983 0.577
vt 0.901 0.5241
vt 0.938 0.6472
vt 0.8873 0.6321
vt 0.8983 0.577
vt 0.938 0.6472
vt 0.8983 0.577
vt 0.9496 0.5999
vt 0.8499 0.6146
vt 0.8547 0.5616
vt 0.8983 0.577
vt 0.8499 0.6146
vt 0.8983 0.577
vt 0.8873 0.6321
vt 0.3565 0.4628
vt 0.4258 0.4671
vt 0.4244 0.4987
vt 0.3565 0.4628
vt 0.4244 0.4987
vt 0.3712 0.499
vt 0.4903 0.4686
vt 0.4859 0.5007
vt 0.4244 0.4987
vt 0.4903 0.4686
vt 0.4244 0.4987
vt 0.4258 0.4671
vt 0.4821 0.5352
vt 0.4258 0.5329
vt 0.4244 0.4987
vt 0.4821 0.5352
vt 0.4244 0.4987
vt 0.4859 0.5007
vt 0.376 0.5322
vt 0.3712 0.499
vt 0.4244 0.4987
vt 0.376 0.5322
vt 0.4244 0.4987
vt 0.4258 0.5329
vt 0.6151 0.6047
vt 0.651 0.6121
vt 0.6388 0.6573
vt 0.6151 0.6047
vt 0.6388 0.6573
vt 0.6123 0.6454
vt 0.6901 0.6276
vt 0.6682 0.6758
vt 0.6388 0.6573
vt 0.6901 0.6276
vt 0.6388 0.6573
vt 0.651 0.6121
vt 0.6461 0.7157
vt 0.625 0.6955
vt 0.6388 0.6573
vt 0.6461 0.7157
vt 0.6388 0.6573
vt 0.6682 0.6758
vt 0.6106 0.6771
vt 0.6123 0.6454
vt 0.6388 0.6573
vt 0.6106 0.6771
vt 0.6388 0.6573
vt 0.625 0.6955
vt 0.2088 0.7577
vt 0.2402 0.7233
vt 0.2683 0.7607
vt 0.2088 0.7577
vt 0.2683 0.7607
vt 0.2398 0.7873
vt 0.2783 0.6866
vt 0.3021 0.7327
vt 0.2683 0.7607
vt 0.2783 0.6866
vt 0.2683 0.7607
vt 0.2402 0.7233
vt 0.3252 0.7762
vt 0.2946 0.7956
vt 0.2683 0.7607
vt 0.3252 0.7762
vt 0.2683 0.7607
vt 0.3021 0.7327
vt 0.2676 0.8051
vt 0.2398 0.7873
vt 0.2683 0.7607
vt 0.2676 0.8051
vt 0.2683 0.7607
vt 0.2946 0.7956
vt 0.7964 0.7229
vt 0.818 0.7562
vt 0.7606 0.8015
vt 0.7964 0.7229
vt 0.7606 0.8015
vt 0.7487 0.7617
vt 0.8505 0.802
vt 0.7746 0.8459
vt 0.7606 0.8015
vt 0.8505 0.802
vt 0.7606 0.8015
vt 0.818 0.7562
vt 0.6988 0.8898
vt 0.694 0.8297
vt 0.7606 0.8015
vt 0.6988 0.8898
vt 0.7606 0.8015
vt 0.7746 0.8459
vt 0.6949 0.7852
vt 0.7487 0.7617
vt 0.7606 0.8015
vt 0.6949 0.7852
vt 0.7606 0.8015
vt 0.694 0.8297
vt 0.3946 0.6289
vt 0.4355 0.6405
vt 0.4387 0.7003
vt 0.3946 0.6289
vt 0.4387 0.7003
vt 0.3999 0.6836
vt 0.481 0.6466
vt 0.4823 0.7081
vt 0.4387 0.7003
vt 0.481 0.6466
vt 0.4387 0.7003
vt 0.4355 0.6405
vt 0.4857 0.7684
vt 0.4392 0.7612
vt 0.4387 0.7003
vt 0.4857 0.7684
vt 0.4387 0.7003
vt 0.4823 0.7081
vt 0.3983 0.741
vt 0.3999 0.6836
vt 0.4387 0.7003
vt 0.3983 0.741
vt 0.4387 0.7003
vt 0.4392 0.7612
vt 0.6949 0.7852
vt 0.694 0.8297
vt 0.6243 0.839
vt 0.6949 0.7852
vt 0.6243 0.839
vt 0.6426 0.7912
vt 0.6988 0.8898
vt 0.6043 0.8931
vt 0.6243 0.839
vt 0.6988 0.8898
vt 0.6243 0.839
vt 0.694 0.8297
vt 0.5105 0.8652
vt 0.5676 0.8275
vt 0.6243 0.839
vt 0.5105 0.8652
vt 0.6243 0.839
vt 0.6043 0.8931
vt 0.6008 0.7802
vt 0.6426 0.7912
vt 0.6243 0.839
vt 0.6008 0.7802
vt 0.6243 0.839
vt 0.5676 0.8275
vt 0.7559 0.0685
vt 0.8144 0.0709
vt 0.8065 0.2022
vt 0.7559 0.0685
vt 0.8065 0.2022
vt 0.7489 0.1922
vt 0.8698 0.0735
vt 0.8615 0.2141
vt 0.8065 0.2022
vt 0.8698 0.0735
vt 0.8065 0.2022
vt 0.8144 0.0709
vt 0.8521 0.364
vt 0.7979 0.3398
vt 0.8065 0.2022
vt 0.8521 0.364
vt 0.8065 0.2022
vt 0.8615 0.2141
vt 0.7416 0.3204
vt 0.7489 0.1922
vt 0.8065 0.2022
vt 0.7416 0.3204
vt 0.8065 0.2022
vt 0.7979 0.3398
vt 0.246 0.0905
vt 0.3072 0.0878
vt 0.309 0.2121
vt 0.246 0.0905
vt 0.309 0.2121
vt 0.2471 0.2139
vt 0.3699 0.0862
vt 0.371 0.2133
vt 0.309 0.2121
vt 0.3699 0.0862
vt 0.309 0.2121
vt 0.3072 0.0878
vt 0.3707 0.3485
vt 0.3094 0.3428
vt 0.309 0.2121
vt 0.3707 0.3485
vt 0.309 0.2121
vt 0.371 0.2133
vt 0.2469 0.3433
vt 0.2471 0.2139
vt 0.309 0.2121
vt 0.2469 0.3433
vt 0.309 0.2121
vt 0.3094 0.3428
vt 0.7416 0.3204
vt 0.7979 0.3398
vt 0.7938 0.4095
vt 0.7416 0.3204
vt 0.7938 0.4095
vt 0.7391 0.382
vt 0.8521 0.364
vt 0.8471 0.4454
vt 0.7938 0.4095
vt 0.8521 0.364
vt 0.7938 0.4095
vt 0.7979 0.3398
vt 0.8415 0.4987
vt 0.79 0.4419
vt 0.7938 0.4095
vt 0.8415 0.4987
vt 0.7938 0.4095
vt 0.8471 0.4454
vt 0.7388 0.41
vt 0.7391 0.382
vt 0.7938 0.4095
vt 0.7388 0.41
vt 0.7938 0.4095
vt 0.79 0.4419
vt 0.2469 0.3433
vt 0.3094 0.3428
vt 0.3042 0.4077
vt 0.2469 0.3433
vt 0.3042 0.4077
vt 0.242 0.4068
vt 0.3707 0.3485
vt 0.3658 0.4197
vt 0.3042 0.4077
vt 0.3707 0.3485
vt 0.3042 0.4077
vt 0.3094 0.3428
vt 0.3565 0.4628
vt 0.2954 0.4398
vt 0.3042 0.4077
vt 0.3565 0.4628
vt 0.3042 0.4077
vt 0.3658 0.4197
vt 0.2362 0.4385
vt 0.242 0.4068
vt 0.3042 0.4077
vt 0.2362 0.4385
vt 0.3042 0.4077
vt 0.2954 0.4398
vt 0.736 0.4633
vt 0.7746 0.4926
vt 0.7709 0.5201
vt 0.736 0.4633
vt 0.7709 0.5201
vt 0.733 0.4882
vt 0.7981 0.5223
vt 0.8019 0.5545
vt 0.7709 0.5201
vt 0.7981 0.5223
vt 0.7709 0.5201
vt 0.7746 0.4926
vt 0.7972 0.5929
vt 0.7649 0.5551
vt 0.7709 0.5201
vt 0.7972 0.5929
vt 0.7709 0.5201
vt 0.8019 0.5545
vt 0.7255 0.5212
vt 0.733 0.4882
vt 0.7709 0.5201
vt 0.7255 0.5212
vt 0.7709 0.5201
vt 0.7649 0.5551
vt 0.2344 0.5093
vt 0.2776 0.5049
vt 0.2814 0.5371
vt 0.2344 0.5093
vt 0.2814 0.5371
vt 0.2402 0.5495
vt 0.3082 0.51
vt 0.3181 0.5316
vt 0.2814 0.5371
vt 0.3082 0.51
vt 0.2814 0.5371
vt 0.2776 0.5049
vt 0.3265 0.5584
vt 0.2909 0.5717
vt 0.2814 0.5371
vt 0.3265 0.5584
vt 0.2814 0.5371
vt 0.3181 0.5316
vt 0.2497 0.5929
vt 0.2402 0.5495
vt 0.2814 0.5371
vt 0.2497 0.5929
vt 0.2814 0.5371
vt 0.2909 0.5717
vt 0.6901 0.6276
vt 0.7287 0.6506
vt 0.7013 0.6913
vt 0.6901 0.6276
vt 0.7013 0.6913
vt 0.6682 0.6758
vt 0.7607 0.6758
vt 0.7287 0.7083
vt 0.7013 0.6913
vt 0.7607 0.6758
vt 0.7013 0.6913
vt 0.7287 0.6506
vt 0.7008 0.7293
vt 0.6752 0.7258
vt 0.7013 0.6913
vt 0.7008 0.7293
vt 0.7013 0.6913
vt 0.7287 0.7083
vt 0.6461 0.7157
vt 0.6682 0.6758
vt 0.7013 0.6913
vt 0.6461 0.7157
vt 0.7013 0.6913
vt 0.6752 0.7258
vt 0.2783 0.6866
vt 0.3134 0.6548
vt 0.3283 0.701
vt 0.2783 0.6866
vt 0.3283 0.701
vt 0.3021 0.7327
vt 0.3437 0.6327
vt 0.3504 0.6775
vt 0.3283 0.701
vt 0.3437 0.6327
vt 0.3283 0.701
vt 0.3134 0.6548
vt 0.3557 0.7147
vt 0.3444 0.7436
vt 0.3283 0.701
vt 0.3557 0.7147
vt 0.3283 0.701
vt 0.3504 0.6775
vt 0.3252 0.7762
vt 0.3021 0.7327
vt 0.3283 0.701
vt 0.3252 0.7762
vt 0.3283 0.701
vt 0.3444 0.7436
vt 0.3631 0.848
vt 0.3872 0.8011
vt 0.4365 0.8221
vt 0.3631 0.848
vt 0.4365 0.8221
vt 0.414 0.8698
vt 0.3983 0.741
vt 0.4392 0.7612
vt 0.4365 0.8221
vt 0.3983 0.741
vt 0.4365 0.8221
vt 0.3872 0.8011
vt 0.4857 0.7684
vt 0.4926 0.8246
vt 0.4365 0.8221
vt 0.4857 0.7684
vt 0.4365 0.8221
vt 0.4392 0.7612
vt 0.5105 0.8652
vt 0.414 0.8698
vt 0.4365 0.8221
vt 0.5105 0.8652
vt 0.4365 0.8221
vt 0.4926 0.8246
vt 0.0257 0.0805
vt 0.0764 0.1168
vt 0.0736 0.2672
vt 0.0257 0.0805
vt 0.0736 0.2672
vt 0.0273 0.2941
vt 0.1286 0.105
vt 0.1243 0.2431
vt 0.0736 0.2672
vt 0.1286 0.105
vt 0.0736 0.2672
vt 0.0764 0.1168
vt 0.1196 0.3922
vt 0.071 0.4292
vt 0.0736 0.2672
vt 0.1196 0.3922
vt 0.0736 0.2672
vt 0.1243 0.2431
vt 0.0289 0.5078
vt 0.0273 0.2941
vt 0.0736 0.2672
vt 0.0289 0.5078
vt 0.0736 0.2672
vt 0.071 0.4292
vt 0.5003 0.0814
vt 0.5664 0.0776
vt 0.5619 0.2048
vt 0.5003 0.0814
vt 0.5619 0.2048
vt 0.4984 0.2079
vt 0.6317 0.0736
vt 0.625 0.2007
vt 0.5619 0.2048
vt 0.6317 0.0736
vt 0.5619 0.2048
vt 0.5664 0.0776
vt 0.6181 0.3347
vt 0.557 0.3413
vt 0.5619 0.2048
vt 0.6181 0.3347
vt 0.5619 0.2048
vt 0.625 0.2007
vt 0.496 0.3452
vt 0.4984 0.2079
vt 0.5619 0.2048
vt 0.496 0.3452
vt 0.5619 0.2048
vt 0.557 0.3413
vt 0.0289 0.5078
vt 0.071 0.4292
vt 0.0692 0.5221
vt 0.0289 0.5078
vt 0.0692 0.5221
vt 0.03 0.5682
vt 0.1196 0.3922
vt 0.1155 0.4771
vt 0.0692 0.5221
vt 0.1196 0.3922
vt 0.0692 0.5221
vt 0.071 0.4292
vt 0.1149 0.5377
vt 0.0705 0.581
vt 0.0692 0.5221
vt 0.1149 0.5377
vt 0.0692 0.5221
vt 0.1155 0.4771
vt 0.0312 0.6287
vt 0.03 0.5682
vt 0.0692 0.5221
vt 0.0312 0.6287
vt 0.0692 0.5221
vt 0.0705 0.581
vt 0.496 0.3452
vt 0.557 0.3413
vt 0.5549 0.4166
vt 0.496 0.3452
vt 0.5549 0.4166
vt 0.4934 0.4245
vt 0.6181 0.3347
vt 0.616 0.4032
vt 0.5549 0.4166
vt 0.6181 0.3347
vt 0.5549 0.4166
vt 0.557 0.3413
vt 0.6152 0.4427
vt 0.5508 0.4578
vt 0.5549 0.4166
vt 0.6152 0.4427
vt 0.5549 0.4166
vt 0.616 0.4032
vt 0.4903 0.4686
vt 0.4934 0.4245
vt 0.5549 0.4166
vt 0.4903 0.4686
vt 0.5549 0.4166
vt 0.5508 0.4578
vt 0.0312 0.6287
vt 0.0705 0.581
vt 0.077 0.641
vt 0.0312 0.6287
vt 0.077 0.641
vt 0.0439 0.68
vt 0.1149 0.5377
vt 0.109 0.6162
vt 0.077 0.641
vt 0.1149 0.5377
vt 0.077 0.641
vt 0.0705 0.581
vt 0.1222 0.6813
vt 0.0948 0.7045
vt 0.077 0.641
vt 0.1222 0.6813
vt 0.077 0.641
vt 0.109 0.6162
vt 0.0565 0.7314
vt 0.0439 0.68
vt 0.077 0.641
vt 0.0565 0.7314
vt 0.077 0.641
vt 0.0948 0.7045
vt 0.4903 0.4686
vt 0.5508 0.4578
vt 0.5398 0.4923
vt 0.4903 0.4686
vt 0.5398 0.4923
vt 0.4859 0.5007
vt 0.6152 0.4427
vt 0.5837 0.4855
vt 0.5398 0.4923
vt 0.6152 0.4427
vt 0.5398 0.4923
vt 0.5508 0.4578
vt 0.5668 0.5235
vt 0.5284 0.5294
vt 0.5398 0.4923
vt 0.5668 0.5235
vt 0.5398 0.4923
vt 0.5837 0.4855
vt 0.4821 0.5352
vt 0.4859 0.5007
vt 0.5398 0.4923
vt 0.4821 0.5352
vt 0.5398 0.4923
vt 0.5284 0.5294
vt 0.161 0.8771
vt 0.1754 0.8345
vt 0.226 0.8721
vt 0.161 0.8771
vt 0.226 0.8721
vt 0.2235 0.9017
vt 0.1859 0.8063
vt 0.2282 0.8429
vt 0.226 0.8721
vt 0.1859 0.8063
vt 0.226 0.8721
vt 0.1754 0.8345
vt 0.2742 0.8616
vt 0.2849 0.8898
vt 0.226 0.8721
vt 0.2742 0.8616
vt 0.226 0.8721
vt 0.2282 0.8429
vt 0.286 0.9263
vt 0.2235 0.9017
vt 0.226 0.8721
vt 0.286 0.9263
vt 0.226 0.8721
vt 0.2849 0.8898
vt 0.481 0.6466
vt 0.5221 0.6337
vt 0.5241 0.6909
vt 0.481 0.6466
vt 0.5241 0.6909
vt 0.4823 0.7081
vt 0.5576 0.6156
vt 0.5605 0.6657
vt 0.5241 0.6909
vt 0.5576 0.6156
vt 0.5241 0.6909
vt 0.5221 0.6337
vt 0.5675 0.713
vt 0.5298 0.7457
vt 0.5241 0.6909
vt 0.5675 0.713
vt 0.5241 0.6909
vt 0.5605 0.6657
vt 0.4857 0.7684
vt 0.4823 0.7081
vt 0.5241 0.6909
vt 0.4857 0.7684
vt 0.5241 0.6909
vt 0.5298 0.7457
vt 0.286 0.9263
vt 0.2849 0.8898
vt 0.3556 0.8907
vt 0.286 0.9263
vt 0.3556 0.8907
vt 0.3979 0.9114
vt 0.2742 0.8616
vt 0.3223 0.8658
vt 0.3556 0.8907
vt 0.2742 0.8616
vt 0.3556 0.8907
vt 0.2849 0.8898
vt 0.3631 0.848
vt 0.414 0.8698
vt 0.3556 0.8907
vt 0.3631 0.848
vt 0.3556 0.8907
vt 0.3223 0.8658
vt 0.5105 0.8652
vt 0.3979 0.9114
vt 0.3556 0.8907
vt 0.5105 0.8652
vt 0.3556 0.8907
vt 0.414 0.8698
vt 0.4857 0.7684
vt 0.5298 0.7457
vt 0.5402 0.7938
vt 0.4857 0.7684
vt 0.5402 0.7938
vt 0.4926 0.8246
vt 0.5675 0.713
vt 0.5783 0.7526
vt 0.5402 0.7938
vt 0.5675 0.713
vt 0.5402 0.7938
vt 0.5298 0.7457
vt 0.6008 0.7802
vt 0.5676 0.8275
vt 0.5402 0.7938
vt 0.6008 0.7802
vt 0.5402 0.7938
vt 0.5783 0.7526
vt 0.5105 0.8652
vt 0.4926 0.8246
vt 0.5402 0.7938
vt 0.5105 0.8652
vt 0.5402 0.7938
vt 0.5676 0.8275
vt 0.7255 0.5212
vt 0.7103 0.5718
vt 0.6655 0.5628
vt 0.7255 0.5212
vt 0.6655 0.5628
vt 0.679 0.5186
vt 0.6901 0.6276
vt 0.651 0.6121
vt 0.6655 0.5628
vt 0.6901 0.6276
vt 0.6655 0.5628
vt 0.7103 0.5718
vt 0.6151 0.6047
vt 0.6231 0.5639
vt 0.6655 0.5628
vt 0.6151 0.6047
vt 0.6655 0.5628
vt 0.651 0.6121
vt 0.6341 0.5269
vt 0.679 0.5186
vt 0.6655 0.5628
vt 0.6341 0.5269
vt 0.6655 0.5628
vt 0.6231 0.5639
vt 0.2497 0.5929
vt 0.2616 0.6393
vt 0.2219 0.6789
vt 0.2497 0.5929
vt 0.2219 0.6789
vt 0.2104 0.6321
vt 0.2783 0.6866
vt 0.2402 0.7233
vt 0.2219 0.6789
vt 0.2783 0.6866
vt 0.2219 0.6789
vt 0.2616 0.6393
vt 0.2088 0.7577
vt 0.1882 0.7152
vt 0.2219 0.6789
vt 0.2088 0.7577
vt 0.2219 0.6789
vt 0.2402 0.7233
vt 0.1756 0.6672
vt 0.2104 0.6321
vt 0.2219 0.6789
vt 0.1756 0.6672
vt 0.2219 0.6789
vt 0.1882 0.7152
vt 0.938 0.6472
vt 0.8943 0.7246
vt 0.8604 0.6958
vt 0.938 0.6472
vt 0.8604 0.6958
vt 0.8873 0.6321
vt 0.8505 0.802
vt 0.818 0.7562
vt 0.8604 0.6958
vt 0.8505 0.802
vt 0.8604 0.6958
vt 0.8943 0.7246
vt 0.7964 0.7229
vt 0.8303 0.6711
vt 0.8604 0.6958
vt 0.7964 0.7229
vt 0.8604 0.6958
vt 0.818 0.7562
vt 0.8499 0.6146
vt 0.8873 0.6321
vt 0.8604 0.6958
vt 0.8499 0.6146
vt 0.8604 0.6958
vt 0.8303 0.6711
vt 0.4821 0.5352
vt 0.4807 0.5864
vt 0.4304 0.5824
vt 0.4821 0.5352
vt 0.4304 0.5824
vt 0.4258 0.5329
vt 0.481 0.6466
vt 0.4355 0.6405
vt 0.4304 0.5824
vt 0.481 0.6466
vt 0.4304 0.5824
vt 0.4807 0.5864
vt 0.3946 0.6289
vt 0.3853 0.577
vt 0.4304 0.5824
vt 0.3946 0.6289
vt 0.4304 0.5824
vt 0.4355 0.6405
vt 0.376 0.5322
vt 0.4258 0.5329
vt 0.4304 0.5824
vt 0.376 0.5322
vt 0.4304 0.5824
vt 0.3853 0.577
vt 0.7972 0.5929
vt 0.7835 0.6353
vt 0.7504 0.6019
vt 0.7972 0.5929
vt 0.7504 0.6019
vt 0.7649 0.5551
vt 0.7607 0.6758
vt 0.7287 0.6506
vt 0.7504 0.6019
vt 0.7607 0.6758
vt 0.7504 0.6019
vt 0.7835 0.6353
vt 0.6901 0.6276
vt 0.7103 0.5718
vt 0.7504 0.6019
vt 0.6901 0.6276
vt 0.7504 0.6019
vt 0.7287 0.6506
vt 0.7255 0.5212
vt 0.7649 0.5551
vt 0.7504 0.6019
vt 0.7255 0.5212
vt 0.7504 0.6019
vt 0.7103 0.5718
vt 0.3265 0.5584
vt 0.3354 0.5925
vt 0.3013 0.6113
vt 0.3265 0.5584
vt 0.3013 0.6113
vt 0.2909 0.5717
vt 0.3437 0.6327
vt 0.3134 0.6548
vt 0.3013 0.6113
vt 0.3437 0.6327
vt 0.3013 0.6113
vt 0.3354 0.5925
vt 0.2783 0.6866
vt 0.2616 0.6393
vt 0.3013 0.6113
vt 0.2783 0.6866
vt 0.3013 0.6113
vt 0.3134 0.6548
vt 0.2497 0.5929
vt 0.2909 0.5717
vt 0.3013 0.6113
vt 0.2497 0.5929
vt 0.3013 0.6113
vt 0.2616 0.6393
vt 0.1222 0.6813
vt 0.1492 0.7485
vt 0.1296 0.7738
vt 0.1222 0.6813
vt 0.1296 0.7738
vt 0.0948 0.7045
vt 0.1859 0.8063
vt 0.1754 0.8345
vt 0.1296 0.7738
vt 0.1859 0.8063
vt 0.1296 0.7738
vt 0.1492 0.7485
vt 0.161 0.8771
vt 0.1088 0.8042
vt 0.1296 0.7738
vt 0.161 0.8771
vt 0.1296 0.7738
vt 0.1754 0.8345
vt 0.0565 0.7314
vt 0.0948 0.7045
vt 0.1296 0.7738
vt 0.0565 0.7314
vt 0.1296 0.7738
vt 0.1088 0.8042
vt 0.5668 0.5235
vt 0.5589 0.5676
vt 0.523 0.5782
vt 0.5668 0.5235
vt 0.523 0.5782
vt 0.5284 0.5294
vt 0.5576 0.6156
vt 0.5221 0.6337
vt 0.523 0.5782
vt 0.5576 0.6156
vt 0.523 0.5782
vt 0.5589 0.5676
vt 0.481 0.6466
vt 0.4807 0.5864
vt 0.523 0.5782
vt 0.481 0.6466
vt 0.523 0.5782
vt 0.5221 0.6337
vt 0.4821 0.5352
vt 0.5284 0.5294
vt 0.523 0.5782
vt 0.4821 0.5352
vt 0.523 0.5782
vt 0.4807 0.5864
vt 0.7388 0.41
vt 0.79 0.4419
vt 0.7823 0.4681
vt 0.7388 0.41
vt 0.7823 0.4681
vt 0.7378 0.4372
vt 0.8415 0.4987
vt 0.814 0.5154
vt 0.7823 0.4681
vt 0.8415 0.4987
vt 0.7823 0.4681
vt 0.79 0.4419
vt 0.7981 0.5223
vt 0.7746 0.4926
vt 0.7823 0.4681
vt 0.7981 0.5223
vt 0.7823 0.4681
vt 0.814 0.5154
vt 0.736 0.4633
vt 0.7378 0.4372
vt 0.7823 0.4681
vt 0.736 0.4633
vt 0.7823 0.4681
vt 0.7746 0.4926
vt 0.8415 0.4987
vt 0.8547 0.5616
vt 0.8262 0.5612
vt 0.8415 0.4987
vt 0.8262 0.5612
vt 0.814 0.5154
vt 0.8499 0.6146
vt 0.8227 0.6071
vt 0.8262 0.5612
vt 0.8499 0.6146
vt 0.8262 0.5612
vt 0.8547 0.5616
vt 0.7972 0.5929
vt 0.8019 0.5545
vt 0.8262 0.5612
vt 0.7972 0.5929
vt 0.8262 0.5612
vt 0.8227 0.6071
vt 0.7981 0.5223
vt 0.814 0.5154
vt 0.8262 0.5612
vt 0.7981 0.5223
vt 0.8262 0.5612
vt 0.8019 0.5545
vt 0.8499 0.6146
vt 0.8303 0.6711
vt 0.8074 0.6547
vt 0.8499 0.6146
vt 0.8074 0.6547
vt 0.8227 0.6071
vt 0.7964 0.7229
vt 0.7803 0.698
vt 0.8074 0.6547
vt 0.7964 0.7229
vt 0.8074 0.6547
vt 0.8303 0.6711
vt 0.7607 0.6758
vt 0.7835 0.6353
vt 0.8074 0.6547
vt 0.7607 0.6758
vt 0.8074 0.6547
vt 0.7803 0.698
vt 0.7972 0.5929
vt 0.8227 0.6071
vt 0.8074 0.6547
vt 0.7972 0.5929
vt 0.8074 0.6547
vt 0.7835 0.6353
vt 0.7964 0.7229
vt 0.7487 0.7617
vt 0.7413 0.7312
vt 0.7964 0.7229
vt 0.7413 0.7312
vt 0.7803 0.698
vt 0.6949 0.7852
vt 0.698 0.7515
vt 0.7413 0.7312
vt 0.6949 0.7852
vt 0.7413 0.7312
vt 0.7487 0.7617
vt 0.7008 0.7293
vt 0.7287 0.7083
vt 0.7413 0.7312
vt 0.7008 0.7293
vt 0.7413 0.7312
vt 0.698 0.7515
vt 0.7607 0.6758
vt 0.7803 0.698
vt 0.7413 0.7312
vt 0.7607 0.6758
vt 0.7413 0.7312
vt 0.7287 0.7083
vt 0.6949 0.7852
vt 0.6426 0.7912
vt 0.6576 0.7563
vt 0.6949 0.7852
vt 0.6576 0.7563
vt 0.698 0.7515
vt 0.6008 0.7802
vt 0.6252 0.7467
vt 0.6576 0.7563
vt 0.6008 0.7802
vt 0.6576 0.7563
vt 0.6426 0.7912
vt 0.6461 0.7157
vt 0.6752 0.7258
vt 0.6576 0.7563
vt 0.6461 0.7157
vt 0.6576 0.7563
vt 0.6252 0.7467
vt 0.7008 0.7293
vt 0.698 0.7515
vt 0.6576 0.7563
vt 0.7008 0.7293
vt 0.6576 0.7563
vt 0.6752 0.7258
vt 0.6008 0.7802
vt 0.5783 0.7526
vt 0.6057 0.7236
vt 0.6008 0.7802
vt 0.6057 0.7236
vt 0.6252 0.7467
vt 0.5675 0.713
vt 0.5947 0.69
vt 0.6057 0.7236
vt 0.5675 0.713
vt 0.6057 0.7236
vt 0.5783 0.7526
vt 0.6106 0.6771
vt 0.625 0.6955
vt 0.6057 0.7236
vt 0.6106 0.6771
vt 0.6057 0.7236
vt 0.5947 0.69
vt 0.6461 0.7157
vt 0.6252 0.7467
vt 0.6057 0.7236
vt 0.6461 0.7157
vt 0.6057 0.7236
vt 0.625 0.6955
vt 0.5675 0.713
vt 0.5605 0.6657
vt 0.5881 0.6493
vt 0.5675 0.713
vt 0.5881 0.6493
vt 0.5947 0.69
vt 0.5576 0.6156
vt 0.5863 0.6059
vt 0.5881 0.6493
vt 0.5576 0.6156
vt 0.5881 0.6493
vt 0.5605 0.6657
vt 0.6151 0.6047
vt 0.6123 0.6454
vt 0.5881 0.6493
vt 0.6151 0.6047
vt 0.5881 0.6493
vt 0.5863 0.6059
vt 0.6106 0.6771
vt 0.5947 0.69
vt 0.5881 0.6493
vt 0.6106 0.6771
vt 0.5881 0.6493
vt 0.6123 0.6454
vt 0.5576 0.6156
vt 0.5589 0.5676
vt 0.5899 0.5641
vt 0.5576 0.6156
vt 0.5899 0.5641
vt 0.5863 0.6059
vt 0.5668 0.5235
vt 0.5994 0.5256
vt 0.5899 0.5641
vt 0.5668 0.5235
vt 0.5899 0.5641
vt 0.5589 0.5676
vt 0.6341 0.5269
vt 0.6231 0.5639
vt 0.5899 0.5641
vt 0.6341 0.5269
vt 0.5899 0.5641
vt 0.5994 0.5256
vt 0.6151 0.6047
vt 0.5863 0.6059
vt 0.5899 0.5641
vt 0.6151 0.6047
vt 0.5899 0.5641
vt 0.6231 0.5639
vt 0.5668 0.5235
vt 0.5837 0.4855
vt 0.615 0.492
vt 0.5668 0.5235
vt 0.615 0.492
vt 0.5994 0.5256
vt 0.6152 0.4427
vt 0.6424 0.4635
vt 0.615 0.492
vt 0.6152 0.4427
vt 0.615 0.492
vt 0.5837 0.4855
vt 0.6587 0.476
vt 0.6458 0.4977
vt 0.615 0.492
vt 0.6587 0.476
vt 0.615 0.492
vt 0.6424 0.4635
vt 0.6341 0.5269
vt 0.5994 0.5256
vt 0.615 0.492
vt 0.6341 0.5269
vt 0.615 0.492
vt 0.6458 0.4977
vt 0.6152 0.4427
vt 0.6811 0.4142
vt 0.6873 0.4404
vt 0.6152 0.4427
vt 0.6873 0.4404
vt 0.6424 0.4635
vt 0.7388 0.41
vt 0.7378 0.4372
vt 0.6873 0.4404
vt 0.7388 0.41
vt 0.6873 0.4404
vt 0.6811 0.4142
vt 0.736 0.4633
vt 0.6915 0.4651
vt 0.6873 0.4404
vt 0.736 0.4633
vt 0.6873 0.4404
vt 0.7378 0.4372
vt 0.6587 0.476
vt 0.6424 0.4635
vt 0.6873 0.4404
vt 0.6587 0.476
vt 0.6873 0.4404
vt 0.6915 0.4651
vt 0.2362 0.4385
vt 0.2954 0.4398
vt 0.2844 0.4724
vt 0.2362 0.4385
vt 0.2844 0.4724
vt 0.2334 0.4725
vt 0.3565 0.4628
vt 0.3246 0.492
vt 0.2844 0.4724
vt 0.3565 0.4628
vt 0.2844 0.4724
vt 0.2954 0.4398
vt 0.3082 0.51
vt 0.2776 0.5049
vt 0.2844 0.4724
vt 0.3082 0.51
vt 0.2844 0.4724
vt 0.3246 0.492
vt 0.2344 0.5093
vt 0.2334 0.4725
vt 0.2844 0.4724
vt 0.2344 0.5093
vt 0.2844 0.4724
vt 0.2776 0.5049
vt 0.3565 0.4628
vt 0.3712 0.499
vt 0.3418 0.5145
vt 0.3565 0.4628
vt 0.3418 0.5145
vt 0.3246 0.492
vt 0.376 0.5322
vt 0.3489 0.543
vt 0.3418 0.5145
vt 0.376 0.5322
vt 0.3418 0.5145
vt 0.3712 0.499
vt 0.3265 0.5584
vt 0.3181 0.5316
vt 0.3418 0.5145
vt 0.3265 0.5584
vt 0.3418 0.5145
vt 0.3489 0.543
vt 0.3082 0.51
vt 0.3246 0.492
vt 0.3418 0.5145
vt 0.3082 0.51
vt 0.3418 0.5145
vt 0.3181 0.5316
vt 0.376 0.5322
vt 0.3853 0.577
vt 0.3585 0.5807
vt 0.376 0.5322
vt 0.3585 0.5807
vt 0.3489 0.543
vt 0.3946 0.6289
vt 0.3674 0.6252
vt 0.3585 0.5807
vt 0.3946 0.6289
vt 0.3585 0.5807
vt 0.3853 0.577
vt 0.3437 0.6327
vt 0.3354 0.5925
vt 0.3585 0.5807
vt 0.3437 0.6327
vt 0.3585 0.5807
vt 0.3674 0.6252
vt 0.3265 0.5584
vt 0.3489 0.543
vt 0.3585 0.5807
vt 0.3265 0.5584
vt 0.3585 0.5807
vt 0.3354 0.5925
vt 0.3946 0.6289
vt 0.3999 0.6836
vt 0.3724 0.6738
vt 0.3946 0.6289
vt 0.3724 0.6738
vt 0.3674 0.6252
vt 0.3983 0.741
vt 0.3709 0.7247
vt 0.3724 0.6738
vt 0.3983 0.741
vt 0.3724 0.6738
vt 0.3999 0.6836
vt 0.3557 0.7147
vt 0.3504 0.6775
vt 0.3724 0.6738
vt 0.3557 0.7147
vt 0.3724 0.6738
vt 0.3709 0.7247
vt 0.3437 0.6327
vt 0.3674 0.6252
vt 0.3724 0.6738
vt 0.3437 0.6327
vt 0.3724 0.6738
vt 0.3504 0.6775
vt 0.3983 0.741
vt 0.3872 0.8011
vt 0.3603 0.7759
vt 0.3983 0.741
vt 0.3603 0.7759
vt 0.3709 0.7247
vt 0.3631 0.848
vt 0.3395 0.8157
vt 0.3603 0.7759
vt 0.3631 0.848
vt 0.3603 0.7759
vt 0.3872 0.8011
vt 0.3252 0.7762
vt 0.3444 0.7436
vt 0.3603 0.7759
vt 0.3252 0.7762
vt 0.3603 0.7759
vt 0.3395 0.8157
vt 0.3557 0.7147
vt 0.3709 0.7247
vt 0.3603 0.7759
vt 0.3557 0.7147
vt 0.3603 0.7759
vt 0.3444 0.7436
vt 0.3631 0.848
vt 0.3223 0.8658
vt 0.3073 0.8323
vt 0.3631 0.848
vt 0.3073 0.8323
vt 0.3395 0.8157
vt 0.2742 0.8616
vt 0.2689 0.8305
vt 0.3073 0.8323
vt 0.2742 0.8616
vt 0.3073 0.8323
vt 0.3223 0.8658
vt 0.2676 0.8051
vt 0.2946 0.7956
vt 0.3073 0.8323
vt 0.2676 0.8051
vt 0.3073 0.8323
vt 0.2689 0.8305
vt 0.3252 0.7762
vt 0.3395 0.8157
vt 0.3073 0.8323
vt 0.3252 0.7762
vt 0.3073 0.8323
vt 0.2946 0.7956
vt 0.2742 0.8616
vt 0.2282 0.8429
vt 0.2296 0.8147
vt 0.2742 0.8616
vt 0.2296 0.8147
vt 0.2689 0.8305
vt 0.1859 0.8063
vt 0.1939 0.7831
vt 0.2296 0.8147
vt 0.1859 0.8063
vt 0.2296 0.8147
vt 0.2282 0.8429
vt 0.2088 0.7577
vt 0.2398 0.7873
vt 0.2296 0.8147
vt 0.2088 0.7577
vt 0.2296 0.8147
vt 0.1939 0.7831
vt 0.2676 0.8051
vt 0.2689 0.8305
vt 0.2296 0.8147
vt 0.2676 0.8051
vt 0.2296 0.8147
vt 0.2398 0.7873
vt 0.1859 0.8063
vt 0.1492 0.7485
vt 0.1663 0.7337
vt 0.1859 0.8063
vt 0.1663 0.7337
vt 0.1939 0.7831
vt 0.1222 0.6813
vt 0.1477 0.6762
vt 0.1663 0.7337
vt 0.1222 0.6813
vt 0.1663 0.7337
vt 0.1492 0.7485
vt 0.1756 0.6672
vt 0.1882 0.7152
vt 0.1663 0.7337
vt 0.1756 0.6672
vt 0.1663 0.7337
vt 0.1477 0.6762
vt 0.2088 0.7577
vt 0.1939 0.7831
vt 0.1663 0.7337
vt 0.2088 0.7577
vt 0.1663 0.7337
vt 0.1882 0.7152
vt 0.1222 0.6813
vt 0.109 0.6162
vt 0.1387 0.62
vt 0.1222 0.6813
vt 0.1387 0.62
vt 0.1477 0.6762
vt 0.1149 0.5377
vt 0.1478 0.5646
vt 0.1387 0.62
vt 0.1149 0.5377
vt 0.1387 0.62
vt 0.109 0.6162
vt 0.1691 0.5788
vt 0.1689 0.6209
vt 0.1387 0.62
vt 0.1691 0.5788
vt 0.1387 0.62
vt 0.1478 0.5646
vt 0.1756 0.6672
vt 0.1477 0.6762
vt 0.1387 0.62
vt 0.1756 0.6672
vt 0.1387 0.62
vt 0.1689 0.6209
vt 0.1149 0.5377
vt 0.1751 0.4733
vt 0.1836 0.5093
vt 0.1149 0.5377
vt 0.1836 0.5093
vt 0.1478 0.5646
vt 0.2362 0.4385
vt 0.2334 0.4725
vt 0.1836 0.5093
vt 0.2362 0.4385
vt 0.1836 0.5093
vt 0.1751 0.4733
vt 0.2344 0.5093
vt 0.1951 0.5461
vt 0.1836 0.5093
vt 0.2344 0.5093
vt 0.1836 0.5093
vt 0.2334 0.4725
vt 0.1691 0.5788
vt 0.1478 0.5646
vt 0.1836 0.5093
vt 0.1691 0.5788
vt 0.1836 0.5093
vt 0.1951 0.5461
vt 0.7559 0.0685
vt 0.6949 0.07
vt 0.6964 0.0223
vt 0.7559 0.0685
vt 0.6964 0.0223
vt 0.7574 0.0205
vt 0.6317 0.0736
vt 0.6332 0.0254
vt 0.6964 0.0223
vt 0.6317 0.0736
vt 0.6964 0.0223
vt 0.6949 0.07
vt 0.633 0.0157
vt 0.6951 0.0127
vt 0.6964 0.0223
vt 0.633 0.0157
vt 0.6964 0.0223
vt 0.6332 0.0254
vt 0.7573 0.0097
vt 0.7574 0.0205
vt 0.6964 0.0223
vt 0.7573 0.0097
vt 0.6964 0.0223
vt 0.6951 0.0127
vt 0.246 0.0905
vt 0.1858 0.0962
vt 0.1882 0.0484
vt 0.246 0.0905
vt 0.1882 0.0484
vt 0.2473 0.0449
vt 0.1286 0.105
vt 0.1318 0.053
vt 0.1882 0.0484
vt 0.1286 0.105
vt 0.1882 0.0484
vt 0.1858 0.0962
vt 0.1326 0.044
vt 0.1909 0.0411
vt 0.1882 0.0484
vt 0.1326 0.044
vt 0.1882 0.0484
vt 0.1318 0.053
vt 0.2491 0.0382
vt 0.2473 0.0449
vt 0.1882 0.0484
vt 0.2491 0.0382
vt 0.1882 0.0484
vt 0.1909 0.0411
vt 0.9733 0.0244
vt 0.9216 0.0728
vt 0.9235 0.018
vt 0.9733 0.0244
vt 0.9235 0.018
vt 0.9734 0.0158
vt 0.8698 0.0735
vt 0.8716 0.0196
vt 0.9235 0.018
vt 0.8698 0.0735
vt 0.9235 0.018
vt 0.9216 0.0728
vt 0.8719 0.0092
vt 0.9227 0.0082
vt 0.9235 0.018
vt 0.8719 0.0092
vt 0.9235 0.018
vt 0.8716 0.0196
vt 0.9735 0.0073
vt 0.9734 0.0158
vt 0.9235 0.018
vt 0.9735 0.0073
vt 0.9235 0.018
vt 0.9227 0.0082
vt 0.5003 0.0814
vt 0.4346 0.0842
vt 0.4354 0.0375
vt 0.5003 0.0814
vt 0.4354 0.0375
vt 0.5015 0.0347
vt 0.3699 0.0862
vt 0.3706 0.0395
vt 0.4354 0.0375
vt 0.3699 0.0862
vt 0.4354 0.0375
vt 0.4346 0.0842
vt 0.371 0.0328
vt 0.4366 0.031
vt 0.4354 0.0375
vt 0.371 0.0328
vt 0.4354 0.0375
vt 0.3706 0.0395
vt 0.5023 0.0293
vt 0.5015 0.0347
vt 0.4354 0.0375
vt 0.5023 0.0293
vt 0.4354 0.0375
vt 0.4366 0.031
vt 0.8698 0.0735
vt 0.8144 0.0709
vt 0.816 0.02
vt 0.8698 0.0735
vt 0.816 0.02
vt 0.8716 0.0196
vt 0.7559 0.0685
vt 0.7574 0.0205
vt 0.816 0.02
vt 0.7559 0.0685
vt 0.816 0.02
vt 0.8144 0.0709
vt 0.7573 0.0097
vt 0.8146 0.0094
vt 0.816 0.02
vt 0.7573 0.0097
vt 0.816 0.02
vt 0.7574 0.0205
vt 0.8719 0.0092
vt 0.8716 0.0196
vt 0.816 0.02
vt 0.8719 0.0092
vt 0.816 0.02
vt 0.8146 0.0094
vt 0.3699 0.0862
vt 0.3072 0.0878
vt 0.308 0.042
vt 0.3699 0.0862
vt 0.308 0.042
vt 0.3706 0.0395
vt 0.246 0.0905
vt 0.2473 0.0449
vt 0.308 0.042
vt 0.246 0.0905
vt 0.308 0.042
vt 0.3072 0.0878
vt 0.2491 0.0382
vt 0.31 0.0355
vt 0.308 0.042
vt 0.2491 0.0382
vt 0.308 0.042
vt 0.2473 0.0449
vt 0.371 0.0328
vt 0.3706 0.0395
vt 0.308 0.042
vt 0.371 0.0328
vt 0.308 0.042
vt 0.31 0.0355
vt 0.1286 0.105
vt 0.0764 0.1168
vt 0.0789 0.0591
vt 0.1286 0.105
vt 0.0789 0.0591
vt 0.1318 0.053
vt 0.0257 0.0805
vt 0.0278 0.0659
vt 0.0789 0.0591
vt 0.0257 0.0805
vt 0.0789 0.0591
vt 0.0764 0.1168
vt 0.0298 0.0513
vt 0.0812 0.0477
vt 0.0789 0.0591
vt 0.0298 0.0513
vt 0.0789 0.0591
vt 0.0278 0.0659
vt 0.1326 0.044
vt 0.1318 0.053
vt 0.0789 0.0591
vt 0.1326 0.044
vt 0.0789 0.0591
vt 0.0812 0.0477
vt 0.6317 0.0736
vt 0.5664 0.0776
vt 0.5678 0.0301
vt 0.6317 0.0736
vt 0.5678 0.0301
vt 0.6332 0.0254
vt 0.5003 0.0814
vt 0.5015 0.0347
vt 0.5678 0.0301
vt 0.5003 0.0814
vt 0.5678 0.0301
vt 0.5664 0.0776
vt 0.5023 0.0293
vt 0.5676 0.0225
vt 0.5678 0.0301
vt 0.5023 0.0293
vt 0.5678 0.0301
vt 0.5015 0.0347
vt 0.633 0.0157
vt 0.6332 0.0254
vt 0.5678 0.0301
vt 0.633 0.0157
vt 0.5678 0.0301
vt 0.5676 0.0225
vt 0.9703 0.9826
vt 0.9391 0.9918
vt 0.9068 0.9173
vt 0.9703 0.9826
vt 0.9068 0.9173
vt 0.9807 0.9516
vt 0.9078 1.0009
vt 0.8764 0.9885
vt 0.9068 0.9173
vt 0.9078 1.0009
vt 0.9068 0.9173
vt 0.9391 0.9918
vt 0.845 0.9762
vt 0.8339 0.9453
vt 0.9068 0.9173
vt 0.845 0.9762
vt 0.9068 0.9173
vt 0.8764 0.9885
vt 0.8229 0.9145
vt 0.8332 0.8839
vt 0.9068 0.9173
vt 0.8229 0.9145
vt 0.9068 0.9173
vt 0.8339 0.9453
vt 0.8435 0.8532
vt 0.8743 0.8435
vt 0.9068 0.9173
vt 0.8435 0.8532
vt 0.9068 0.9173
vt 0.8332 0.8839
vt 0.905 0.8338
vt 0.9369 0.8452
vt 0.9068 0.9173
vt 0.905 0.8338
vt 0.9068 0.9173
vt 0.8743 0.8435
vt 0.9688 0.8566
vt 0.98 0.8886
vt 0.9068 0.9173
vt 0.9688 0.8566
vt 0.9068 0.9173
vt 0.9369 0.8452
vt 0.9911 0.9206
vt 0.9807 0.9516
vt 0.9068 0.9173
vt 0.9911 0.9206
vt 0.9068 0.9173
vt 0.98 0.8886
f 1/1 2/2 3/3
f 1/4 3/5 4/6
f 5/7 6/8 3/9
f 5/10 3/11 2/12
f 7/13 8/14 3/15
f 7/16 3/17 6/18
f 9/19 4/20 3/21
f 9/22 3/23 8/24
f 10/25 11/26 12/27
f 10/28 12/29 13/30
f 14/31 15/32 12/33
f 14/34 12/35 11/36
f 16/37 17/38 12/39
f 16/40 12/41 15/42
f 18/43 13/44 12/45
f 18/46 12/47 17/48
f 19/49 20/50 21/51
f 19/52 21/53 22/54
f 23/55 24/56 21/57
f 23/58 21/59 20/60
f 25/61 26/62 21/63
f 25/64 21/65 24/66
f 27/67 22/68 21/69
f 27/70 21/71 26/72
f 28/73 29/74 30/75
f 28/76 30/77 31/78
f 32/79 33/80 30/81
f 32/82 30/83 29/84
f 34/85 35/86 30/87
f 34/88 30/89 33/90
f 36/91 31/92 30/93
f 36/94 30/95 35/96
f 9/97 8/98 37/99
f 9/100 37/101 38/102
f 7/103 39/104 37/105
f 7/106 37/107 8/108
f 40/109 41/110 37/111
f 40/112 37/113 39/114
f 42/115 38/116 37/117
f 42/118 37/119 41/120
f 18/121 17/122 43/123
f 18/124 43/125 44/126
f 16/127 45/128 43/129
f 16/130 43/131 17/132
f 46/133 47/134 43/135
f 46/136 43/137 45/138
f 48/139 44/140 43/141
f 48/142 43/143 47/144
f 27/145 26/146 49/147
f 27/148 49/149 50/150
f 25/151 51/152 49/153
f 25/154 49/155 26/156
f 52/157 53/158 49/159
f 52/160 49/161 51/162
f 54/163 50/164 49/165
f 54/166 49/167 53/168
f 36/169 35/170 55/171
f 36/172 55/173 56/174
f 34/175 57/176 55/177
f 34/178 55/179 35/180
f 58/181 59/182 55/183
f 58/184 55/185 57/186
f 60/187 56/188 55/189
f 60/190 55/191 59/192
f 61/193 62/194 63/195
f 61/196 63/197 64/198
f 65/199 66/200 63/201
f 65/202 63/203 62/204
f 67/205 68/206 63/207
f 67/208 63/209 66/210
f 69/211 64/212 63/213
f 69/214 63/215 68/216
f 70/217 71/218 72/219
f 70/220 72/221 73/222
f 74/223 75/224 72/225
f 74/226 72/227 71/228
f 76/229 77/230 72/231
f 76/232 72/233 75/234
f 78/235 73/236 72/237
f 78/238 72/239 77/240
f 54/241 53/242 79/243
f 54/244 79/245 80/246
f 52/247 81/248 79/249
f 52/250 79/251 53/252
f 82/253 83/254 79/255
f 82/256 79/257 81/258
f 84/259 80/260 79/261
f 84/262 79/263 83/264
f 60/265 59/266 85/267
f 60/268 85/269 86/270
f 58/271 87/272 85/273
f 58/274 85/275 59/276
f 88/277 89/278 85/279
f 88/280 85/281 87/282
f 90/283 86/284 85/285
f 90/286 85/287 89/288
f 91/289 92/290 93/291
f 91/292 93/293 94/294
f 95/295 96/296 93/297
f 95/298 93/299 92/300
f 97/301 98/302 93/303
f 97/304 93/305 96/306
f 99/307 94/308 93/309
f 99/310 93/311 98/312
f 100/313 101/314 102/315
f 100/316 102/317 103/318
f 104/319 105/320 102/321
f 104/322 102/323 101/324
f 106/325 107/326 102/327
f 106/328 102/329 105/330
f 108/331 103/332 102/333
f 108/334 102/335 107/336
f 109/337 110/338 111/339
f 109/340 111/341 112/342
f 113/343 114/344 111/345
f 113/346 111/347 110/348
f 115/349 116/350 111/351
f 115/352 111/353 114/354
f 117/355 112/356 111/357
f 117/358 111/359 116/360
f 118/361 119/362 120/363
f 118/364 120/365 121/366
f 122/367 123/368 120/369
f 122/370 120/371 119/372
f 124/373 125/374 120/375
f 124/376 120/377 123/378
f 126/379 121/380 120/381
f 126/382 120/383 125/384
f 117/385 116/386 127/387
f 117/388 127/389 128/390
f 115/391 129/392 127/393
f 115/394 127/395 116/396
f 130/397 131/398 127/399
f 130/400 127/401 129/402
f 132/403 128/404 127/405
f 132/406 127/407 131/408
f 5/409 133/410 134/411
f 5/412 134/413 6/414
f 19/415 22/416 134/417
f 19/418 134/419 133/420
f 27/421 135/422 134/423
f 27/424 134/425 22/426
f 7/427 6/428 134/429
f 7/430 134/431 135/432
f 14/433 136/434 137/435
f 14/436 137/437 15/438
f 28/439 31/440 137/441
f 28/442 137/443 136/444
f 36/445 138/446 137/447
f 36/448 137/449 31/450
f 16/451 15/452 137/453
f 16/454 137/455 138/456
f 7/457 135/458 139/459
f 7/460 139/461 39/462
f 27/463 50/464 139/465
f 27/466 139/467 135/468
f 54/469 140/470 139/471
f 54/472 139/473 50/474
f 40/475 39/476 139/477
f 40/478 139/479 140/480
f 16/481 138/482 141/483
f 16/484 141/485 45/486
f 36/487 56/488 141/489
f 36/490 141/491 138/492
f 60/493 142/494 141/495
f 60/496 141/497 56/498
f 46/499 45/500 141/501
f 46/502 141/503 142/504
f 65/505 143/506 144/507
f 65/508 144/509 66/510
f 145/511 146/512 144/513
f 145/514 144/515 143/516
f 147/517 148/518 144/519
f 147/520 144/521 146/522
f 67/523 66/524 144/525
f 67/526 144/527 148/528
f 74/529 149/530 150/531
f 74/532 150/533 75/534
f 151/535 152/536 150/537
f 151/538 150/539 149/540
f 153/541 154/542 150/543
f 153/544 150/545 152/546
f 76/547 75/548 150/549
f 76/550 150/551 154/552
f 95/553 155/554 156/555
f 95/556 156/557 96/558
f 157/559 158/560 156/561
f 157/562 156/563 155/564
f 159/565 160/566 156/567
f 159/568 156/569 158/570
f 97/571 96/572 156/573
f 97/574 156/575 160/576
f 104/577 161/578 162/579
f 104/580 162/581 105/582
f 163/583 164/584 162/585
f 163/586 162/587 161/588
f 165/589 166/590 162/591
f 165/592 162/593 164/594
f 106/595 105/596 162/597
f 106/598 162/599 166/600
f 167/601 168/602 169/603
f 167/604 169/605 170/606
f 126/607 125/608 169/609
f 126/610 169/611 168/612
f 124/613 171/614 169/615
f 124/616 169/617 125/618
f 130/619 170/620 169/621
f 130/622 169/623 171/624
f 172/625 173/626 174/627
f 172/628 174/629 175/630
f 10/631 13/632 174/633
f 10/634 174/635 173/636
f 18/637 176/638 174/639
f 18/640 174/641 13/642
f 177/643 175/644 174/645
f 177/646 174/647 176/648
f 32/649 178/650 179/651
f 32/652 179/653 33/654
f 1/655 4/656 179/657
f 1/658 179/659 178/660
f 9/661 180/662 179/663
f 9/664 179/665 4/666
f 34/667 33/668 179/669
f 34/670 179/671 180/672
f 177/673 176/674 181/675
f 177/676 181/677 182/678
f 18/679 44/680 181/681
f 18/682 181/683 176/684
f 48/685 183/686 181/687
f 48/688 181/689 44/690
f 184/691 182/692 181/693
f 184/694 181/695 183/696
f 34/697 180/698 185/699
f 34/700 185/701 57/702
f 9/703 38/704 185/705
f 9/706 185/707 180/708
f 42/709 186/710 185/711
f 42/712 185/713 38/714
f 58/715 57/716 185/717
f 58/718 185/719 186/720
f 184/721 183/722 187/723
f 184/724 187/725 188/726
f 48/727 189/728 187/729
f 48/730 187/731 183/732
f 190/733 191/734 187/735
f 190/736 187/737 189/738
f 192/739 188/740 187/741
f 192/742 187/743 191/744
f 58/745 186/746 193/747
f 58/748 193/749 87/750
f 42/751 194/752 193/753
f 42/754 193/755 186/756
f 195/757 196/758 193/759
f 195/760 193/761 194/762
f 88/763 87/764 193/765
f 88/766 193/767 196/768
f 197/769 198/770 199/771
f 197/772 199/773 200/774
f 201/775 202/776 199/777
f 201/778 199/779 198/780
f 203/781 204/782 199/783
f 203/784 199/785 202/786
f 205/787 200/788 199/789
f 205/790 199/791 204/792
f 122/793 206/794 207/795
f 122/796 207/797 123/798
f 208/799 209/800 207/801
f 208/802 207/803 206/804
f 210/805 211/806 207/807
f 210/808 207/809 209/810
f 124/811 123/812 207/813
f 124/814 207/815 211/816
f 205/817 204/818 212/819
f 205/820 212/821 213/822
f 203/823 214/824 212/825
f 203/826 212/827 204/828
f 167/829 170/830 212/831
f 167/832 212/833 214/834
f 130/835 213/836 212/837
f 130/838 212/839 170/840
f 124/841 211/842 215/843
f 124/844 215/845 171/846
f 210/847 216/848 215/849
f 210/850 215/851 211/852
f 132/853 131/854 215/855
f 132/856 215/857 216/858
f 130/859 171/860 215/861
f 130/862 215/863 131/864
f 67/865 217/866 218/867
f 67/868 218/869 68/870
f 95/871 92/872 218/873
f 95/874 218/875 217/876
f 91/877 219/878 218/879
f 91/880 218/881 92/882
f 69/883 68/884 218/885
f 69/886 218/887 219/888
f 76/889 220/890 221/891
f 76/892 221/893 77/894
f 104/895 101/896 221/897
f 104/898 221/899 220/900
f 100/901 222/902 221/903
f 100/904 221/905 101/906
f 78/907 77/908 221/909
f 78/910 221/911 222/912
f 82/913 223/914 224/915
f 82/916 224/917 83/918
f 113/919 110/920 224/921
f 113/922 224/923 223/924
f 109/925 225/926 224/927
f 109/928 224/929 110/930
f 84/931 83/932 224/933
f 84/934 224/935 225/936
f 88/937 226/938 227/939
f 88/940 227/941 89/942
f 122/943 119/944 227/945
f 122/946 227/947 226/948
f 118/949 228/950 227/951
f 118/952 227/953 119/954
f 90/955 89/956 227/957
f 90/958 227/959 228/960
f 147/961 229/962 230/963
f 147/964 230/965 148/966
f 157/967 155/968 230/969
f 157/970 230/971 229/972
f 95/973 217/974 230/975
f 95/976 230/977 155/978
f 67/979 148/980 230/981
f 67/982 230/983 217/984
f 153/985 231/986 232/987
f 153/988 232/989 154/990
f 163/991 161/992 232/993
f 163/994 232/995 231/996
f 104/997 220/998 232/999
f 104/1000 232/1001 161/1002
f 76/1003 154/1004 232/1005
f 76/1006 232/1007 220/1008
f 190/1009 233/1010 234/1011
f 190/1012 234/1013 191/1014
f 201/1015 198/1016 234/1017
f 201/1018 234/1019 233/1020
f 197/1021 235/1022 234/1023
f 197/1024 234/1025 198/1026
f 192/1027 191/1028 234/1029
f 192/1030 234/1031 235/1032
f 195/1033 236/1034 237/1035
f 195/1036 237/1037 196/1038
f 208/1039 206/1040 237/1041
f 208/1042 237/1043 236/1044
f 122/1045 226/1046 237/1047
f 122/1048 237/1049 206/1050
f 88/1051 196/1052 237/1053
f 88/1054 237/1055 226/1056
f 40/1057 140/1058 238/1059
f 40/1060 238/1061 239/1062
f 54/1063 240/1064 238/1065
f 54/1066 238/1067 140/1068
f 145/1069 143/1070 238/1071
f 145/1072 238/1073 240/1074
f 65/1075 239/1076 238/1077
f 65/1078 238/1079 143/1080
f 54/1081 80/1082 241/1083
f 54/1084 241/1085 240/1086
f 84/1087 242/1088 241/1089
f 84/1090 241/1091 80/1092
f 147/1093 146/1094 241/1095
f 147/1096 241/1097 242/1098
f 145/1099 240/1100 241/1101
f 145/1102 241/1103 146/1104
f 84/1105 225/1106 243/1107
f 84/1108 243/1109 242/1110
f 109/1111 244/1112 243/1113
f 109/1114 243/1115 225/1116
f 157/1117 229/1118 243/1119
f 157/1120 243/1121 244/1122
f 147/1123 242/1124 243/1125
f 147/1126 243/1127 229/1128
f 109/1129 112/1130 245/1131
f 109/1132 245/1133 244/1134
f 117/1135 246/1136 245/1137
f 117/1138 245/1139 112/1140
f 159/1141 158/1142 245/1143
f 159/1144 245/1145 246/1146
f 157/1147 244/1148 245/1149
f 157/1150 245/1151 158/1152
f 117/1153 128/1154 247/1155
f 117/1156 247/1157 246/1158
f 132/1159 248/1160 247/1161
f 132/1162 247/1163 128/1164
f 97/1165 160/1166 247/1167
f 97/1168 247/1169 248/1170
f 159/1171 246/1172 247/1173
f 159/1174 247/1175 160/1176
f 132/1177 216/1178 249/1179
f 132/1180 249/1181 248/1182
f 210/1183 250/1184 249/1185
f 210/1186 249/1187 216/1188
f 99/1189 98/1190 249/1191
f 99/1192 249/1193 250/1194
f 97/1195 248/1196 249/1197
f 97/1198 249/1199 98/1200
f 210/1201 209/1202 251/1203
f 210/1204 251/1205 250/1206
f 208/1207 252/1208 251/1209
f 208/1210 251/1211 209/1212
f 91/1213 94/1214 251/1215
f 91/1216 251/1217 252/1218
f 99/1219 250/1220 251/1221
f 99/1222 251/1223 94/1224
f 208/1225 236/1226 253/1227
f 208/1228 253/1229 252/1230
f 195/1231 254/1232 253/1233
f 195/1234 253/1235 236/1236
f 69/1237 219/1238 253/1239
f 69/1240 253/1241 254/1242
f 91/1243 252/1244 253/1245
f 91/1246 253/1247 219/1248
f 195/1249 194/1250 255/1251
f 195/1252 255/1253 254/1254
f 42/1255 256/1256 255/1257
f 42/1258 255/1259 194/1260
f 61/1261 64/1262 255/1263
f 61/1264 255/1265 256/1266
f 69/1267 254/1268 255/1269
f 69/1270 255/1271 64/1272
f 42/1273 41/1274 257/1275
f 42/1276 257/1277 256/1278
f 40/1279 239/1280 257/1281
f 40/1282 257/1283 41/1284
f 65/1285 62/1286 257/1287
f 65/1288 257/1289 239/1290
f 61/1291 256/1292 257/1293
f 61/1294 257/1295 62/1296
f 46/1297 142/1298 258/1299
f 46/1300 258/1301 259/1302
f 60/1303 260/1304 258/1305
f 60/1306 258/1307 142/1308
f 151/1309 149/1310 258/1311
f 151/1312 258/1313 260/1314
f 74/1315 259/1316 258/1317
f 74/1318 258/1319 149/1320
f 60/1321 86/1322 261/1323
f 60/1324 261/1325 260/1326
f 90/1327 262/1328 261/1329
f 90/1330 261/1331 86/1332
f 153/1333 152/1334 261/1335
f 153/1336 261/1337 262/1338
f 151/1339 260/1340 261/1341
f 151/1342 261/1343 152/1344
f 90/1345 228/1346 263/1347
f 90/1348 263/1349 262/1350
f 118/1351 264/1352 263/1353
f 118/1354 263/1355 228/1356
f 163/1357 231/1358 263/1359
f 163/1360 263/1361 264/1362
f 153/1363 262/1364 263/1365
f 153/1366 263/1367 231/1368
f 118/1369 121/1370 265/1371
f 118/1372 265/1373 264/1374
f 126/1375 266/1376 265/1377
f 126/1378 265/1379 121/1380
f 165/1381 164/1382 265/1383
f 165/1384 265/1385 266/1386
f 163/1387 264/1388 265/1389
f 163/1390 265/1391 164/1392
f 126/1393 168/1394 267/1395
f 126/1396 267/1397 266/1398
f 167/1399 268/1400 267/1401
f 167/1402 267/1403 168/1404
f 106/1405 166/1406 267/1407
f 106/1408 267/1409 268/1410
f 165/1411 266/1412 267/1413
f 165/1414 267/1415 166/1416
f 167/1417 214/1418 269/1419
f 167/1420 269/1421 268/1422
f 203/1423 270/1424 269/1425
f 203/1426 269/1427 214/1428
f 108/1429 107/1430 269/1431
f 108/1432 269/1433 270/1434
f 106/1435 268/1436 269/1437
f 106/1438 269/1439 107/1440
f 203/1441 202/1442 271/1443
f 203/1444 271/1445 270/1446
f 201/1447 272/1448 271/1449
f 201/1450 271/1451 202/1452
f 100/1453 103/1454 271/1455
f 100/1456 271/1457 272/1458
f 108/1459 270/1460 271/1461
f 108/1462 271/1463 103/1464
f 201/1465 233/1466 273/1467
f 201/1468 273/1469 272/1470
f 190/1471 274/1472 273/1473
f 190/1474 273/1475 233/1476
f 78/1477 222/1478 273/1479
f 78/1480 273/1481 274/1482
f 100/1483 272/1484 273/1485
f 100/1486 273/1487 222/1488
f 190/1489 189/1490 275/1491
f 190/1492 275/1493 274/1494
f 48/1495 276/1496 275/1497
f 48/1498 275/1499 189/1500
f 70/1501 73/1502 275/1503
f 70/1504 275/1505 276/1506
f 78/1507 274/1508 275/1509
f 78/1510 275/1511 73/1512
f 48/1513 47/1514 277/1515
f 48/1516 277/1517 276/1518
f 46/1519 259/1520 277/1521
f 46/1522 277/1523 47/1524
f 74/1525 71/1526 277/1527
f 74/1528 277/1529 259/1530
f 70/1531 276/1532 277/1533
f 70/1534 277/1535 71/1536
f 5/1537 2/1538 278/1539
f 5/1540 278/1541 279/1542
f 1/1543 280/1544 278/1545
f 1/1546 278/1547 2/1548
f 281/1549 282/1550 278/1551
f 281/1552 278/1553 280/1554
f 283/1555 279/1556 278/1557
f 283/1558 278/1559 282/1560
f 14/1561 11/1562 284/1563
f 14/1564 284/1565 285/1566
f 10/1567 286/1568 284/1569
f 10/1570 284/1571 11/1572
f 287/1573 288/1574 284/1575
f 287/1576 284/1577 286/1578
f 289/1579 285/1580 284/1581
f 289/1582 284/1583 288/1584
f 23/1585 20/1586 290/1587
f 23/1588 290/1589 291/1590
f 19/1591 292/1592 290/1593
f 19/1594 290/1595 20/1596
f 293/1597 294/1598 290/1599
f 293/1600 290/1601 292/1602
f 295/1603 291/1604 290/1605
f 295/1606 290/1607 294/1608
f 32/1609 29/1610 296/1611
f 32/1612 296/1613 297/1614
f 28/1615 298/1616 296/1617
f 28/1618 296/1619 29/1620
f 299/1621 300/1622 296/1623
f 299/1624 296/1625 298/1626
f 301/1627 297/1628 296/1629
f 301/1630 296/1631 300/1632
f 19/1633 133/1634 302/1635
f 19/1636 302/1637 292/1638
f 5/1639 279/1640 302/1641
f 5/1642 302/1643 133/1644
f 283/1645 303/1646 302/1647
f 283/1648 302/1649 279/1650
f 293/1651 292/1652 302/1653
f 293/1654 302/1655 303/1656
f 28/1657 136/1658 304/1659
f 28/1660 304/1661 298/1662
f 14/1663 285/1664 304/1665
f 14/1666 304/1667 136/1668
f 289/1669 305/1670 304/1671
f 289/1672 304/1673 285/1674
f 299/1675 298/1676 304/1677
f 299/1678 304/1679 305/1680
f 10/1681 173/1682 306/1683
f 10/1684 306/1685 286/1686
f 172/1687 307/1688 306/1689
f 172/1690 306/1691 173/1692
f 308/1693 309/1694 306/1695
f 308/1696 306/1697 307/1698
f 287/1699 286/1700 306/1701
f 287/1702 306/1703 309/1704
f 1/1705 178/1706 310/1707
f 1/1708 310/1709 280/1710
f 32/1711 297/1712 310/1713
f 32/1714 310/1715 178/1716
f 301/1717 311/1718 310/1719
f 301/1720 310/1721 297/1722
f 281/1723 280/1724 310/1725
f 281/1726 310/1727 311/1728
f 312/1729 313/1730 314/1731
f 312/1732 314/1733 315/1734
f 316/1735 317/1736 314/1737
f 316/1738 314/1739 313/1740
f 318/1741 319/1742 314/1743
f 318/1744 314/1745 317/1746
f 320/1747 321/1748 314/1749
f 320/1750 314/1751 319/1752
f 322/1753 323/1754 314/1755
f 322/1756 314/1757 321/1758
f 324/1759 325/1760 314/1761
f 324/1762 314/1763 323/1764
f 326/1765 327/1766 314/1767
f 326/1768 314/1769 325/1770
f 328/1771 315/1772 314/1773
f 328/1774 314/1775 327/1776
