v -0.05447766 -0.01506466 -0.05876452
v -0.05654256 -0.01054321 -0.05864847
v -0.05209209 -0.01855801 -0.07371265
v 0.0464182 -0.03860439 0.108748
v 0.05414367 -0.03094776 0.113309
v 0.04912835 -0.03840299 0.1144527
v 0.04332758 -0.0433432 0.1123804
v 0.03534481 -0.04693074 0.1061105
v 0.04234388 -0.03972683 0.1035209
v 0.04328015 -0.03421858 0.09760469
v 0.06251201 -0.01731576 0.1214685
v 0.06264567 -0.01019491 0.1141568
v 0.06431091 -0.006026208 0.1185234
v 0.03693664 -0.03589388 0.09183329
v 0.03303894 -0.0422792 0.09543747
v 0.008678377 0.05551182 0.154632
v 0.04998577 -0.02775358 0.1686045
v 0.05445518 -0.01849797 0.1692762
v 0.01479439 -0.04147871 0.08158839
v 0.02130394 -0.04110523 0.08445007
v 0.01519756 -0.04491778 0.08638692
v 0.06015375 -0.01490235 0.1099469
v 0.05725339 -0.02726907 0.1164238
v 0.05521064 -0.02577613 0.108486
v 0.001240924 0.05548757 0.1528075
v -0.009495735 0.05354828 0.1502618
v 0.05368914 -0.01968213 0.1001427
v 0.03253824 -0.02860922 0.08166027
v 0.03037871 -0.03561672 0.08535075
v 0.02659801 -0.03118188 0.07875669
v 0.04934318 -0.01700704 0.09262443
v 0.05638061 -0.009783238 0.09975743
v 0.04457916 -0.03529324 0.167625
v -0.01514155 0.0515378 0.1489686
v 0.0533738 -0.007070258 0.09458482
v 0.04824977 -0.01127622 0.08935905
v 0.04049137 -0.01342207 0.08216465
v 0.04036242 -0.02169683 0.08494067
v 0.03364731 -0.01737462 0.07740849
v 0.04936773 -0.03024985 0.1023431
v 0.03258614 -0.04579598 0.1651658
v -0.02691638 0.04471777 0.1463926
v 0.06059884 -0.02276244 0.1223152
v 0.01746683 -0.03605553 0.07715929
v -0.0368475 0.03494108 0.1444052
v 0.01919629 -0.05200824 0.1621652
v 0.03070745 -0.04816633 0.1028326
v 0.04719114 -0.0277327 0.09659731
v 0.02482048 -0.04943556 0.09991789
v -0.04020745 0.03016604 0.1438004
v 0.01959726 -0.03208616 0.07497287
v 0.01714075 0.0542259 0.1567683
v 0.03179908 0.04827577 0.1606401
v 0.002909556 -0.05426379 0.1582711
v -0.04509632 0.02035898 0.1430523
v 0.02474885 -0.02420346 0.07322216
v -0.04748122 0.01254199 0.1428268
v -0.007040769 -0.05308973 0.1557754
v 0.01958732 -0.04978131 0.09750426
v 0.01353416 -0.04897657 0.09375632
v -0.04885474 4.024804e-05 0.1430656
v 0.03742376 0.04438195 0.1621995
v -0.04762739 -0.01165093 0.1439052
v -0.02111205 -0.04779503 0.152078
v 0.04795258 0.03325823 0.1652966
v 0.007566854 -0.01737629 0.05964291
v -0.007982478 -0.02430052 0.05283117
v 0.0006016046 -0.02873488 0.06213999
v -0.007492512 -0.03613833 0.06611538
v -0.01157144 -0.03748731 0.06693584
v 0.05420011 0.0215984 0.167366
v -0.02501699 -0.03019524 0.04881781
v -0.00482595 -0.01826789 0.05156887
v 0.007855803 -0.04751007 0.08955628
v -0.01449612 -0.01909637 0.0440591
v -0.03124614 -0.04049434 0.1492546
v -0.0431249 -0.02466243 0.1456097
v 0.0569323 0.01217046 0.1684719
v -0.006820127 -0.02972699 0.05859917
v -0.001504898 -0.01298866 0.05233961
v 0.05791791 -0.001834169 0.1693587
v 0.05690989 -0.009749591 0.1694757
v -0.03365539 -0.02632537 0.03528678
v -0.04165675 -0.02361857 0.01608908
v -0.03589606 -0.02206336 0.01742786
v -0.02106208 -0.01605153 0.03536344
v -0.02034494 -0.02037861 0.039226
v -0.02674174 -0.01984531 0.03058457
v -0.03647137 -0.03497039 0.1477173
v -0.02992047 -0.01661846 0.0177356
v -0.03370404 -0.02005787 0.01412243
v -0.02964924 -0.01472752 0.007032871
v -0.03138483 -0.02154958 0.02555001
v -0.01938207 -0.02464681 0.04411447
v -0.02547689 -0.02651575 0.04164541
v -0.0299678 -0.02427128 0.0334174
v -0.02285409 -0.01229388 0.03049099
v -0.03230868 -0.02987573 0.04629052
v -0.03246006 -0.01845612 0.007344186
v -0.025049 -0.01179941 0.02586031
v -0.03766528 -0.02203324 0.007042825
v -0.02732207 -0.01154481 0.01863146
v -0.01280503 -0.002765507 0.04023075
v -0.04377022 -0.02312835 0.009680033
v -0.03208694 0.03883833 0.1398182
v -0.0390074 -0.02415037 -0.0556041
v -0.03423487 -0.02341471 -0.056382
v -0.05137335 -0.02050281 0.01517081
v -0.04560126 -0.0219801 -0.0575484
v -0.04753055 -0.02093048 -0.05888903
v -0.0529436 -0.01988316 0.02433938
v -0.05223891 -0.01743662 -0.05820465
v -0.05639675 -0.01666851 0.006809652
v -0.06062465 -0.008505598 0.07380617
v -0.06157303 -0.002882615 0.07519525
v -0.06246149 -0.00939405 0.06148469
v -0.05606103 -0.000382416 0.08630437
v -0.0599013 0.008398861 0.07822728
v -0.05905636 0.0138435 0.07807696
v -0.06094055 0.01044516 0.07382435
v -0.06367686 -0.004263453 0.05310357
v -0.06337407 0.0004220083 0.06233162
v -0.06299974 0.009117551 0.04348516
v -0.0617495 -0.01173184 0.04079372
v -0.06146247 -0.008192442 0.008192539
v -0.05964486 -0.01322187 0.008511186
v -0.06228731 0.002348848 0.07152987
v -0.06206116 0.0100341 0.06703675
v -0.0633624 -0.004664123 0.03539515
v -0.06201723 -0.004433654 0.007861495
v -0.0626149 -0.008153588 0.03097868
v 0.05584474 0.02507947 0.1532943
v 0.05939183 0.01770827 0.1514478
v 0.05732828 0.02670123 0.1417937
v -0.06235021 0.01252933 0.05632281
v -0.06149327 -0.0121799 0.05042082
v -0.06290525 0.0061877 0.02794105
v -0.06200913 0.003958508 0.00820452
v -0.06093143 0.01265457 0.00862819
v -0.05721582 -0.007460453 -0.05927688
v -0.0565071 -0.01049557 -0.07322383
v 0.03139326 -0.01075048 0.07428169
v 0.007891431 -0.005700968 0.05743313
v 0.02416034 0.005592585 0.06720883
v 0.03214097 -0.001482762 0.07347852
v -0.02100781 0.00726144 0.02526087
v 0.06159037 0.02010642 0.1253994
v 0.06140211 0.01934847 0.13603
v -0.0239003 0.006173439 0.0154556
v -0.02213967 0.0134576 0.01931727
v -0.04225229 0.03994071 0.07217342
v -0.03501059 0.04269433 0.0722816
v -0.03759591 0.0419028 0.06243145
v -0.01780337 0.004130527 0.03224957
v 0.05387877 0.03224556 0.1169087
v 0.05826925 0.02693124 0.1258073
v 0.05963191 0.02308065 0.1160752
v 0.02086645 -0.01316783 0.06738794
v 0.01214279 0.05330212 0.1271816
v 0.021549 0.05107123 0.1205068
v 0.01419118 0.05150534 0.1148682
v 0.006107181 0.003533617 0.05497956
v -0.02698937 -0.006875768 0.006740272
v -0.02531971 0.0004181638 0.006707728
v -0.001262814 -0.002221838 0.0503059
v -0.04003003 0.02728947 0.1347468
v -0.01036404 0.009871759 0.04053539
v -0.02886741 -0.01303939 0.007610559
v -0.02794169 -0.02016517 -0.06024098
v -0.02654634 -0.01765995 -0.05653274
v -0.02423 -0.01408736 -0.05899906
v -0.01873234 -0.03101453 -0.07728308
v -0.02942458 -0.02912147 -0.07486057
v -0.02215378 -0.03204446 -0.07906902
v -0.007512257 -0.03566058 -0.08059889
v -0.005893722 -0.03181762 -0.07594252
v -0.0266877 -0.02399796 -0.06782216
v -0.03473632 -0.02621619 -0.06795275
v -0.02844341 -0.02663565 -0.07049811
v -0.01522686 -0.04101289 -0.09296221
v -0.01358904 -0.01746815 -0.06824905
v -0.01022036 -0.009817891 -0.06561285
v -0.01840816 -0.009218954 -0.06410813
v -0.02379461 -0.01734031 -0.06360441
v -0.01764384 0.001900747 -0.06105566
v -0.02026317 -0.01850871 -0.06714624
v -0.005854428 -0.0268719 -0.07202214
v -0.03068027 -0.02325463 -0.06293535
v -0.00586924 -0.02237169 -0.06930965
v -0.005329236 -0.01750162 -0.06693488
v -0.03599268 0.03893985 0.02151239
v -0.02968046 0.03894279 0.02654558
v -0.03491938 0.03819178 0.007204115
v -0.01333405 0.002161548 -0.06339896
v -0.01701406 0.005207375 -0.06111741
v -0.01907855 0.01187317 -0.05535835
v -0.02155706 -0.002973191 -0.05568612
v -0.004957199 -0.005718686 -0.06398886
v -0.002763063 0.004298761 -0.06349283
v 0.01387107 0.05427659 0.1386174
v -0.004929766 -0.01244744 -0.06520337
v -0.05105764 -0.02756288 -0.1032171
v -0.04689935 -0.03329217 -0.1114666
v -0.04387873 -0.03484733 -0.1069622
v -0.05076869 -0.02250791 -0.08545971
v -0.04756775 -0.02549959 -0.08552545
v -0.05484876 -0.02367586 -0.1061666
v -0.04156706 -0.03476233 -0.1009785
v -0.05511083 -0.0245194 -0.1131445
v -0.05936584 -0.01381537 0.06792808
v 0.05667764 0.02935663 0.1335664
v -0.02793269 -0.04091362 -0.1306543
v -0.0258818 -0.03729995 -0.1397581
v -0.01914579 -0.03978504 -0.1370615
v -0.01591852 -0.03379575 -0.1465268
v -0.02127038 -0.02474944 -0.1546198
v -0.01320378 -0.02724477 -0.1529386
v -0.02146246 -0.04246122 -0.1296862
v -0.02354261 -0.033369 -0.1461396
v -0.01800571 -0.03706633 -0.1419954
v -0.01334515 -0.003764749 -0.163323
v -0.005878896 -0.0002243817 -0.1626832
v -0.007835746 -0.008612745 -0.1616998
v -0.0569144 -0.01778257 0.05775291
v -0.01129727 -0.02241282 -0.1562347
v -0.03676032 -0.03948794 -0.1087519
v -0.0362941 -0.03000856 -0.08217353
v -0.04716204 -0.02197195 -0.06989563
v -0.03597681 -0.02774987 -0.07497579
v -0.04292303 -0.02811945 -0.08429003
v -0.02680136 0.03972074 0.03454399
v -0.03179441 0.04035817 0.03629994
v -0.02894454 -0.03945716 -0.09818161
v -0.0324087 -0.03997229 -0.1028887
v -0.03856215 -0.02617137 0.0326615
v 0.06355847 -0.01403709 0.1243322
v -0.006839424 -0.04227047 0.07733029
v 0.05701675 -0.02972935 0.1253864
v -0.03303738 -0.03537832 0.09586173
v -0.04097071 -0.02989383 0.08282918
v -0.03408547 -0.03431058 0.08557659
v -0.04766184 -0.02594832 0.06758463
v -0.04586282 -0.02495764 0.04164284
v -0.03862309 -0.03061595 0.06300074
v 0.05702129 -0.02717068 0.140408
v 0.05288172 -0.03382157 0.1408473
v 0.05500323 -0.03249127 0.1314337
v -0.02360785 -0.04339638 0.1219344
v -0.04084803 -0.02928526 0.09114128
v -0.007366657 -0.04594823 0.09402871
v 0.0001846403 -0.05328336 0.1304592
v -0.002408952 -0.05084234 0.1144475
v 0.004336253 -0.0505101 0.1056654
v 0.05393402 -0.03428075 0.1264243
v -0.04714404 -0.0002662018 0.1341208
v -0.04450738 -0.01594263 0.1303161
v -0.04640754 -0.006121047 0.129384
v 0.05031602 -0.03302025 0.1544751
v 0.05613561 -0.02289252 0.1553177
v -0.04686098 0.03113489 0.08656657
v -0.04041906 0.03496319 0.09325111
v -0.04529662 0.03687914 0.07816046
v -0.04494341 0.02000757 0.1064712
v -0.04245022 0.02174102 0.1170979
v -0.03856076 0.02981681 0.1152954
v -0.01740262 -0.04500218 0.1063131
v 0.05373116 -0.02975208 0.1499701
v 0.01038145 -0.05356098 0.123212
v -0.04734832 -0.0132684 0.1057824
v -0.04934457 -0.01611549 0.09487802
v 0.003603742 -0.05443875 0.1404185
v -0.05147408 -0.02256835 0.07306057
v -0.05187598 -0.02267223 0.06775492
v 0.05929108 -0.01916461 0.1469954
v 0.05074267 0.03495795 0.146262
v 0.06096305 -0.02142287 0.128157
v -0.04567045 -0.01448239 0.1134941
v -0.04683927 -0.009008504 0.1132108
v -0.04851906 -0.004985526 0.1064854
v 0.004565969 0.04957092 0.09913421
v 0.0166456 0.04859016 0.1007478
v -0.02181675 -0.04351789 0.1112453
v -0.03093751 -0.03805337 0.1274897
v -0.03338599 -0.03524088 0.1132181
v 0.01280746 -0.05433828 0.1316704
v 0.01370831 -0.05133237 0.1062571
v -0.02686031 -0.04245232 0.1364513
v 0.009216726 0.04803625 0.09340346
v 0.02266122 0.04453219 0.08842504
v 0.0581387 -0.01838847 0.1542726
v -0.02364463 -0.03728051 0.07257831
v 0.009165436 -0.05460993 0.1493078
v -0.04978622 -0.0206487 0.08601677
v -0.02625296 0.04393469 0.06385201
v -0.02173361 0.0457499 0.08692223
v -0.01298247 0.04663856 0.08231533
v -0.04252279 -0.0257555 0.03661084
v 0.01553506 -0.05440059 0.1418315
v 0.06100798 -0.01248407 0.1477841
v 0.06197196 -0.01694933 0.1331106
v 0.01709382 -0.05403674 0.1305446
v -0.04155126 0.03237268 0.09615684
v 0.06426995 -0.006271794 0.1318727
v -0.04027231 -0.02651594 0.1341065
v -0.02824672 0.04201267 0.1074594
v -0.01929376 0.04695618 0.1216601
v -0.02145994 0.04582412 0.1118698
v 0.01911405 -0.05195988 0.1117553
v -0.03813449 -0.02965998 0.115997
v -0.04458317 -0.02374079 0.09732217
v 0.02338532 -0.05324853 0.1359721
v 0.01706992 -0.05361942 0.1514353
v 0.02411877 -0.05290475 0.1287777
v 0.05447339 0.03092872 0.1430043
v -0.04259951 0.02093677 0.1300815
v -0.05380237 0.005765066 0.09027553
v -0.05212633 -0.002642177 0.09501922
v 0.02801718 -0.05034495 0.110639
v -0.05632719 -0.0172917 0.02342123
v -0.05335185 -0.0211925 0.05555415
v -0.05516227 -0.01911794 0.07048905
v -0.01766837 -0.04740614 0.128369
v 0.03321142 -0.05020946 0.1333182
v 0.05276711 0.03443363 0.1254066
v 0.02733694 -0.05180318 0.1429564
v -0.0239359 0.04489478 0.1347561
v -0.01982389 0.04806367 0.1399382
v -0.0109745 -0.04662279 0.1023501
v -0.04151551 -0.02389083 0.1185446
v -0.05351345 -0.006907985 0.09061337
v -0.05005018 0.02417341 0.08836138
v -0.04421607 0.02710513 0.09840554
v -0.01641478 -0.04945555 0.143459
v 0.02726528 -0.05042165 0.1537829
v 0.03136352 -0.05043565 0.1216226
v -0.04816534 -7.969886e-05 0.1085464
v -0.04777169 0.01242371 0.1037847
v -0.05116859 0.006018072 0.09657586
v -0.05735452 -0.01488058 0.07480282
v -0.01124091 -0.04933232 0.121587
v 0.03840539 -0.04717053 0.1396566
v 0.03843482 -0.04769329 0.1293252
v -0.04670824 0.005863316 0.1333596
v 0.03496511 -0.04673997 0.1535223
v -0.04564305 0.01184493 0.1149564
v -0.04658306 0.002963394 0.1185389
v -0.02736999 0.041691 0.1248513
v 0.03644957 -0.04832512 0.1211529
v -0.04642713 0.003102347 0.1271839
v 0.04288961 -0.04477382 0.1236828
v -0.0375874 -0.0301581 0.1256188
v -0.009150401 -0.05215741 0.1431783
v -0.03737184 -0.03143302 0.1058863
v 0.04744592 0.03874402 0.1449367
v 0.04630917 -0.04031053 0.1448783
v 0.04833774 -0.0404499 0.1303612
v 0.04253404 -0.0412835 0.1540813
v 0.04696274 -0.04108739 0.1376489
v -0.005700663 -0.05128767 0.1237819
v 0.05205572 0.03540173 0.1324545
v 0.04656766 -0.03796499 0.1526169
v 0.04889335 0.03702355 0.1137669
v 0.04998928 0.03709924 0.1229895
v 0.04862413 0.03554142 0.1052317
v -0.02967469 0.04019208 0.1145145
v 0.007137939 0.05428179 0.1339868
v -0.01515691 0.02040436 0.03361589
v 0.03642344 0.01071238 0.07611895
v 0.02502601 0.01353644 0.0676325
v -0.01961018 0.02113046 0.02518648
v -0.0211554 0.02137372 0.02050114
v 0.001710892 0.01801139 0.0510056
v -0.03308931 0.04285055 0.06110048
v -0.04098362 0.03896264 0.0307743
v -0.02300255 0.01581939 0.006614983
v -0.02252765 0.02317832 0.006814659
v -0.022495 0.0271017 0.01643229
v -0.04451561 0.01478498 0.1282485
v -0.004061282 0.01962177 0.04614186
v -0.01095048 0.01967848 0.03913486
v 0.04253551 -0.001430579 0.081936
v -0.03232485 0.04191878 0.08914864
v 0.04269382 0.008211344 0.08168
v 0.0465299 0.02385622 0.09070367
v 0.04911418 0.01522286 0.0901202
v 0.04203446 0.02059083 0.08378744
v 0.04156917 0.04060218 0.1018159
v 0.03584942 0.03977918 0.09236014
v 0.03717031 0.0422903 0.09835404
v 0.04378164 0.03364179 0.09494901
v 0.03089112 0.04392453 0.09471142
v 0.04115506 0.01441866 0.08097535
v 0.0389156 0.02816544 0.08447927
v -0.04115537 0.03812409 0.01250052
v 0.03464954 0.03216843 0.08310813
v 0.02654716 0.04173324 0.08632159
v 0.06228761 -0.002226353 0.1101959
v 0.06528267 -0.002695203 0.1232982
v 0.06477731 0.005267054 0.1199894
v 0.06303674 0.008552328 0.1142515
v 0.06389126 0.01199149 0.120668
v 0.02805568 0.03829399 0.08313149
v 0.05866209 0.01697896 0.1070002
v 0.05632886 -0.0008169562 0.09797108
v 0.05979204 -0.005044445 0.1047117
v 0.06134844 0.003397346 0.1077822
v 0.03475687 0.02500291 0.07859421
v 0.05450995 0.02986479 0.1098903
v 0.0488843 0.0290589 0.09801728
v 0.05844173 0.009666696 0.1029236
v 0.03108537 0.02093612 0.07372332
v 0.05421269 0.01752727 0.0985617
v 0.05629246 0.02427362 0.1075786
v 0.05329809 0.006685644 0.09378719
v 0.02849993 0.03464631 0.07987291
v 0.04972711 0.001422152 0.08903235
v 0.03025989 0.0251008 0.07485479
v 0.01250853 0.03607695 0.0689404
v 0.002823859 0.03229976 0.05734289
v -1.877546e-05 0.03870191 0.06113923
v 0.01207191 0.02160817 0.05984145
v 0.01067968 0.04020555 0.07199031
v 0.01520006 0.02909741 0.06581765
v 0.001204416 0.02587598 0.05215907
v -0.01470004 0.04226948 0.05490005
v -0.01090838 0.03859013 0.05055881
v -0.02800766 0.03735588 0.02270484
v -0.02769424 0.03480681 0.006931663
v -0.03148071 0.0375537 0.005906165
v -0.01507294 0.03281047 0.03815073
v -0.02301194 0.03269465 0.02319503
v -0.009945735 0.02721018 0.04129142
v -0.01592073 0.02858193 0.03391683
v -0.02120224 0.02740566 0.02208287
v -0.02296948 0.02629205 0.007558107
v -0.0179619 0.03686983 0.03948402
v -0.02527462 0.03188525 0.006624162
v 0.04846612 0.03895105 0.1340932
v -0.008310854 0.03203506 0.04576761
v -0.05894004 0.02541694 0.05609941
v -0.05592376 0.0299876 0.06828755
v -0.05568805 0.03172135 0.04932344
v -0.05215526 0.03228986 0.07402009
v -0.06057417 0.02036825 0.0446595
v -0.0603158 0.0202186 0.06179273
v -0.0589977 0.02344445 0.06651169
v -0.05676295 0.02506789 0.07538307
v -0.05478916 0.03251866 0.06055313
v -0.05373022 0.03261897 0.01999038
v -0.05758247 0.02748188 0.02950966
v -0.05313835 0.03423916 0.03922945
v -0.05508141 0.02951308 0.006876707
v -0.05670792 0.02656011 0.007872283
v -0.04948361 0.0356046 0.01706749
v -0.04666339 0.03327071 -0.0575664
v -0.06072985 0.01611237 0.01731181
v -0.05946907 0.02169865 0.02336806
v -0.05202726 0.02582122 -0.05875099
v -0.04928416 0.03034058 -0.05924177
v -0.05753005 -0.002227359 -0.0596664
v -0.05740589 0.00412266 -0.05770499
v -0.05692486 0.007815719 -0.05901724
v -0.05514002 0.01656837 -0.05976206
v -0.04422493 0.03931019 0.05630445
v -0.05769401 -0.01042837 -0.1308912
v -0.05943251 -0.006849337 -0.1240919
v -0.05811782 -0.002699014 -0.1311027
v -0.05546923 -0.02335115 -0.1216582
v -0.05825728 -0.01757499 -0.1168792
v -0.05870312 -0.01318386 -0.123847
v -0.054882 0.006826334 -0.1391071
v -0.05659299 0.01135969 -0.1315278
v -0.05432107 0.01394517 -0.1371906
v -0.05242883 -0.02796332 -0.1189582
v -0.05665636 -0.01732717 -0.1289346
v -0.05985025 -0.01024619 -0.1165057
v -0.06032534 -0.002046101 -0.1057994
v -0.06029773 0.002592474 -0.1118304
v -0.05104372 0.03223582 -0.1242635
v -0.05579475 0.02165856 -0.1228671
v -0.05201702 0.03204145 -0.1155064
v -0.05847055 0.007291183 -0.1260319
v -0.04502684 0.03303947 -0.1393714
v -0.04460593 0.02845117 -0.1448084
v -0.05119179 0.02515631 -0.1361079
v -0.04867771 0.03673676 -0.1203598
v -0.05949402 0.003426813 -0.1223541
v -0.05648731 0.02195578 -0.1096311
v -0.05682981 -0.02012764 -0.1057986
v -0.04071783 0.02584082 -0.1502614
v -0.04061647 0.03390393 -0.1433363
v -0.05277428 0.03045007 -0.1077486
v -0.05836832 0.01533663 -0.109376
v -0.05826537 0.01374178 -0.09984183
v -0.04576519 0.04043168 -0.1158623
v -0.03898907 0.04521931 -0.1150864
v -0.04258461 0.0427485 -0.1210008
v -0.05004083 0.03516025 -0.111603
v -0.04539716 0.04004541 -0.1063199
v -0.05334346 0.02341152 -0.08010304
v -0.04121572 0.03729346 -0.1383055
v -0.05157781 0.02855437 -0.08696073
v -0.05776048 0.01540104 -0.1209292
v -0.05860231 -0.0154856 -0.106971
v -0.05972424 -0.01123309 -0.1104139
v -0.04889487 0.03321543 -0.1307122
v -0.04303434 0.03930929 -0.1320639
v -0.05935688 0.005638309 -0.09744227
v -0.05538344 0.01759403 -0.08053464
v -0.0575328 0.003021628 -0.07528943
v -0.05739334 -0.01027273 -0.08386856
v -0.04102947 0.0423917 -0.12756
v -0.04842569 0.03177216 -0.07828873
v -0.05143183 0.02650031 -0.0652405
v -0.05745637 -0.003319234 -0.07229745
v -0.05039342 0.03325239 -0.1003642
v -0.04911388 -0.009361435 -0.148376
v -0.04886003 -0.01662947 -0.1448417
v -0.05236098 -0.01619726 -0.1405033
v -0.04865788 -0.02192309 -0.1406649
v 0.04245102 0.04223563 0.1164743
v -0.0001929551 0.05138855 0.1109247
v -0.05415374 -0.02313515 -0.1283673
v -0.05129126 -0.02772791 -0.1262505
v -0.04858762 -0.003685772 -0.1504169
v -0.04726796 0.006813064 -0.1518989
v -0.04533193 0.002331592 -0.153937
v -0.05256264 0.002546832 -0.1449925
v 0.04299855 0.04234061 0.146909
v -0.05164732 -0.004240952 -0.1463789
v -0.05464302 -0.001733817 -0.1410894
v -0.05065531 0.01186067 -0.1461103
v -0.04744868 0.0217521 -0.1460937
v -0.04387116 0.01049414 -0.154328
v -0.0551585 -0.01200492 -0.1375765
v -0.0509887 0.02159875 -0.1399348
v -0.05432057 -0.01639065 -0.13664
v -0.0239206 0.04517986 0.09166777
v -0.006393164 0.04665044 0.08132559
v 0.04358919 0.04227154 0.1234521
v -0.03006566 0.03935921 0.1272784
v -0.04388916 0.03660612 -0.08415431
v -0.03469369 0.04520513 -0.1011348
v -0.03829715 0.04475792 -0.1072059
v -0.02765529 0.0489891 -0.1082662
v -0.02429302 0.04741735 -0.09900928
v -0.04241475 0.03621782 -0.07475996
v -0.03626361 0.03968132 -0.0808925
v 5.51343e-06 0.05445291 0.1400555
v -0.0300317 0.04887806 -0.1130096
v -0.04299675 -0.02278157 -0.1460075
v -0.04054166 -0.02024202 -0.149942
v -0.04279363 -0.01382023 -0.1520008
v -0.03002086 -0.0246527 -0.1524707
v -0.03501232 -0.01431384 -0.1564171
v -0.03034848 -0.01371365 -0.1585243
v -0.02925384 -0.04240247 -0.122954
v -0.03872162 -0.03858314 -0.1225923
v -0.0346965 -0.03830087 -0.1312437
v -0.04449037 -0.03536181 -0.1187482
v -0.02698769 -0.02030432 -0.1563479
v -0.02422561 -0.01069856 -0.161145
v -0.03613541 -0.02797053 -0.146441
v -0.03827938 -0.004934371 -0.1576864
v -0.02881652 -0.004354402 -0.1615798
v -0.0187531 -0.01868014 -0.1585641
v -0.01866372 -0.01099011 -0.1617084
v -0.03252342 -0.03139219 -0.1448638
v -0.0230874 -0.00131093 -0.1631942
v -0.01929767 0.003925852 -0.1638031
v -0.04577337 -0.0266858 -0.138935
v -0.03872468 0.005450964 -0.1581713
v -0.03281561 -0.04174857 -0.114722
v -0.02799305 0.004987583 -0.1623756
v -0.04283318 -0.005488023 -0.1548049
v -0.03787917 -0.03409823 -0.1368675
v -0.03230576 -0.03473569 -0.1404562
v -0.009043306 -0.01373746 -0.160275
v -0.04175404 -0.0358285 -0.1269166
v 0.03610286 0.04649636 0.1528046
v -0.01061882 -0.01940847 -0.1579213
v -0.01484258 0.007535771 -0.163692
v -0.03953148 0.01184647 -0.1568648
v -0.03629151 0.01948386 -0.156256
v -0.02957836 0.04682874 -0.1303194
v -0.03352584 0.04739916 -0.1217022
v -0.02508429 0.04908139 -0.1262157
v -0.02592562 0.0439909 -0.1390275
v -0.01396245 0.04802565 -0.1325864
v -0.03202306 0.01739534 -0.1588702
v -0.02779195 0.02327929 -0.1578596
v -0.03148966 0.0271036 -0.1545321
v -0.03219163 0.03437766 -0.148571
v -0.02565373 0.03339405 -0.1518989
v -0.01249439 0.02267157 -0.1596047
v -0.02061298 0.02652562 -0.157572
v -0.01852398 0.03271353 -0.153612
v -0.01114184 0.0388758 -0.1475246
v -0.01111299 0.04193936 -0.1436509
v -0.004116714 0.03910629 -0.1452892
v -0.01027365 0.02726196 -0.1569767
v -0.0143553 0.03332353 -0.153167
v -0.003329962 0.02996121 -0.1535794
v -0.03315304 0.04358372 -0.1352124
v -0.02081239 0.02025608 -0.1604971
v -0.005376369 0.004384764 -0.1626711
v -0.004638746 0.009752333 -0.1620395
v -0.01567234 0.01099291 -0.1632584
v -0.02187428 0.01180483 -0.1627697
v -0.02030748 0.05026525 -0.1235095
v -0.01894885 0.03887608 -0.147772
v -0.03058268 0.04078889 -0.1418533
v -0.03570102 0.03923096 -0.1406742
v -0.004013464 0.0150535 -0.1607955
v -0.02472863 0.01527976 -0.161534
v -0.00353381 0.02020074 -0.15896
v -0.02346884 0.05042855 -0.1180923
v -0.03384778 0.009529091 -0.1600422
v -0.01461206 0.04993173 -0.1261494
v -0.01717743 0.04521105 -0.1388879
v -0.01791242 0.0509526 -0.1135764
v -0.04741105 0.03764531 0.06599295
v -0.04312682 0.0350599 -0.05881155
v -0.006121516 0.04819455 -0.1288483
v -0.005278721 0.04567971 -0.1351849
v -0.01782578 0.05029394 -0.1076938
v -0.0510084 0.03479239 0.06876749
v -0.003611892 0.03408838 -0.1503681
v -0.004094303 0.04226477 -0.1408906
v -0.002850965 0.02519376 -0.1564007
v 0.03976245 0.04522667 0.1412513
v -0.05234045 0.01720414 0.08876997
v -0.01214518 0.04150596 -0.08432305
v -0.03061719 0.03849801 -0.07202011
v -0.01917213 0.03860509 -0.07508749
v -0.03160447 0.04097617 -0.082219
v -0.02627514 0.03672313 -0.0616678
v -0.01390719 0.04775614 -0.09865057
v -0.03939691 0.03677893 -0.06881636
v -0.03689393 0.03689323 -0.05811673
v -0.0304067 0.03718442 -0.05725121
v 0.0006454885 0.04368255 -0.09132069
v -0.02535136 0.03549943 -0.05662799
v -0.01933262 0.0282037 -0.05810702
v -0.02191253 0.03216694 -0.05555367
v -0.01832815 0.02098955 -0.05473328
v -0.0162216 0.03338226 -0.06949556
v -0.007643819 0.03209737 -0.07341522
v -0.01138885 0.03681948 -0.07622635
v -0.01045734 0.02276317 -0.06765509
v -0.01951383 0.031117 -0.06277102
v -0.01873511 0.008652724 -0.05838686
v -0.01550369 0.022131 -0.06408548
v -0.0175548 0.02228779 -0.06063867
v -0.02081373 0.03334119 -0.06364363
v -0.02039622 0.03608765 -0.06882846
v 0.004978359 0.03231883 -0.07554084
v 0.0002586395 0.03285689 -0.07576561
v -0.001088008 0.02472725 -0.07005936
v -0.00182201 0.007394262 -0.06373966
v -0.01000285 0.01361177 -0.06532067
v -0.0009920597 0.01578391 -0.06589127
v -0.006850883 0.02662957 -0.07040828
v 0.03720857 0.04676965 0.1326066
v -0.01416992 0.01306187 -0.06373614
v -0.0271064 -0.04208158 -0.1046147
v -0.02386808 -0.04411882 -0.1171675
v -0.02267252 -0.04327547 -0.1259055
v -0.02558389 -0.04359957 -0.1114011
v 0.03587921 0.04555108 0.1146396
v 0.04299508 0.009139508 -0.05507791
v 0.03965957 -0.05204977 -0.08306086
v 0.05564494 0.03757361 -0.08589727
v 0.03736432 -0.04052085 -0.06624573
v 0.03882341 -0.0497186 -0.078192
v 0.03773928 -0.0442739 -0.07025003
v 0.06483051 0.02487117 -0.1307049
v 0.06512393 0.01631884 -0.1376151
v 0.06506923 0.02078772 -0.1343937
v 0.03723772 -0.02916671 -0.05810994
v 0.03857823 -0.01374694 -0.05303204
v 0.03714894 -0.03341936 -0.06061935
v 0.06305385 0.03430468 -0.1173463
v 0.06441101 0.02851573 -0.1265978
v 0.06381607 0.03167464 -0.1221243
v 0.0377129 -0.02164856 -0.05492949
v 0.05295698 -0.0444194 -0.130428
v 0.05607179 -0.0365066 -0.1374037
v 0.05453672 -0.04067715 -0.134148
v 0.05135347 -0.04768439 -0.1262931
v 0.05842058 0.03894243 -0.09593499
v 0.06213416 0.03637189 -0.112325
v 0.06106912 0.03784896 -0.1071268
v 0.04974675 -0.05043016 -0.1217965
v 0.06137076 -0.01672336 -0.1450194
v 0.05754121 -0.03196495 -0.1401508
v 0.04815871 -0.05261921 -0.1169987
v 0.04660988 -0.05422321 -0.1119627
v 0.04512079 -0.05522106 -0.1067549
v 0.04240564 -0.05535502 -0.09612548
v 0.03986461 -0.005368344 -0.05247587
v 0.06020847 -0.02200712 -0.143984
v 0.0589264 -0.02710985 -0.1423542
v -0.03532186 0.03456037 0.1137764
v 0.04175107 0.004014 -0.05361348
v 0.05717152 0.03859264 -0.09123886
v 0.04435897 0.01408147 -0.05713898
v 0.05271406 0.03407211 -0.07668078
v 0.05408004 0.03593633 -0.0808199
v 0.04371125 -0.05559932 -0.1014444
v 0.06499374 0.0115259 -0.1403245
v 0.06352384 -0.004158355 -0.1450695
v 0.06277439 -0.009102322 -0.1454355
v 0.04950449 0.0281847 -0.06796885
v 0.04562622 0.01815102 -0.05940533
v 0.0480946 0.02493758 -0.06458622
v 0.04121913 -0.05450119 -0.09086686
v 0.06468055 0.006469622 -0.1424886
v 0.06418836 0.001218535 -0.1440769
v -0.008485392 0.05033982 -0.1189234
v -0.01040491 0.0501815 -0.1089702
v -0.01260976 0.04875565 -0.1017911
v 0.02821551 0.05080368 0.1502438
v 0.005275428 0.03785164 -0.0818482
v -0.03653495 0.03184412 0.1249763
v -0.04588446 0.03709432 0.0166558
v 0.02164909 0.05282492 0.1379175
v -0.0108718 0.04945564 0.106732
v -0.01003706 0.05153709 0.1322507
v -0.03601301 0.03913055 0.09205532
v 0.06127594 0.01626649 0.1440393
v 0.06323348 0.0147873 0.1302752
v 0.06370504 0.009659842 0.1366709
v 0.02571002 0.05036865 0.1231036
v 0.02498807 0.05210695 0.1433118
v 0.06320533 0.007482871 0.1423339
v 0.06165016 0.005832762 0.1521783
v 0.03008454 0.04983692 0.1313612
v 0.06504866 0.005297676 0.1250997
v 0.06145063 -0.002773285 0.1533468
v 0.06379981 -0.001369238 0.1394174
v 0.03234513 0.04927019 0.1393686
v 0.06483565 0.001861855 0.1310766
f 1 2 3
f 4 5 6
f 4 6 7
f 8 9 7
f 10 4 9
f 11 12 13
f 9 14 10
f 15 9 8
f 16 17 18
f 19 20 21
f 22 23 24
f 25 26 16
f 27 22 24
f 28 29 30
f 31 32 27
f 16 33 17
f 26 34 16
f 35 32 36
f 37 38 39
f 9 4 7
f 40 4 10
f 16 41 33
f 34 42 16
f 12 11 22
f 22 11 43
f 43 23 22
f 29 20 44
f 20 19 44
f 42 45 16
f 14 9 15
f 40 5 4
f 27 32 22
f 16 46 41
f 15 8 47
f 39 38 28
f 48 10 14
f 40 10 48
f 15 47 49
f 45 50 16
f 29 44 51
f 52 16 53
f 48 14 28
f 16 54 46
f 38 37 36
f 50 55 16
f 29 14 15
f 30 29 51
f 24 23 5
f 39 28 56
f 20 15 49
f 24 5 40
f 28 30 56
f 38 48 28
f 55 57 16
f 16 58 54
f 24 40 27
f 21 49 59
f 28 14 29
f 21 59 60
f 57 61 16
f 53 16 62
f 48 27 40
f 36 32 31
f 31 27 48
f 20 49 21
f 61 63 16
f 29 15 20
f 16 64 58
f 31 48 38
f 62 16 65
f 36 31 38
f 39 56 66
f 66 56 67
f 56 30 51
f 51 44 68
f 44 69 68
f 56 68 67
f 21 70 19
f 65 16 71
f 69 70 72
f 66 67 73
f 60 74 70
f 67 75 73
f 16 76 64
f 63 77 16
f 71 16 78
f 21 60 70
f 68 79 67
f 66 73 80
f 78 16 81
f 51 68 56
f 68 69 79
f 19 69 44
f 81 16 82
f 82 16 18
f 19 70 69
f 83 84 85
f 86 87 88
f 16 89 76
f 90 91 92
f 93 85 91
f 87 94 88
f 94 95 96
f 95 72 83
f 77 89 16
f 94 96 88
f 86 88 97
f 72 70 98
f 72 98 83
f 92 91 99
f 100 97 90
f 91 85 101
f 95 83 96
f 88 93 97
f 100 90 102
f 88 96 93
f 91 101 99
f 73 103 80
f 73 75 103
f 67 94 75
f 67 79 94
f 75 86 103
f 97 91 90
f 97 93 91
f 85 84 101
f 75 94 87
f 101 84 104
f 102 90 92
f 79 69 72
f 75 87 86
f 105 45 42
f 96 83 93
f 79 95 94
f 93 83 85
f 79 72 95
f 104 106 107
f 104 108 109
f 108 110 109
f 108 111 110
f 111 112 110
f 111 113 112
f 104 109 106
f 114 115 116
f 117 118 115
f 115 119 120
f 121 122 123
f 124 125 126
f 127 128 122
f 118 119 115
f 129 130 131
f 132 133 134
f 130 125 131
f 135 122 128
f 120 128 127
f 120 127 115
f 127 122 115
f 115 122 116
f 116 122 121
f 116 121 131
f 116 131 136
f 136 131 124
f 131 125 124
f 122 135 123
f 121 129 131
f 129 123 137
f 121 123 129
f 138 137 139
f 129 138 130
f 129 137 138
f 126 2 1
f 126 125 2
f 125 140 2
f 125 130 140
f 141 3 2
f 142 143 144
f 142 144 145
f 146 100 102
f 147 134 148
f 146 149 150
f 151 152 153
f 146 102 149
f 154 97 100
f 155 156 157
f 142 39 158
f 159 160 161
f 142 158 143
f 143 162 144
f 158 39 66
f 163 164 149
f 143 158 80
f 149 102 163
f 158 66 80
f 143 80 165
f 55 50 166
f 165 103 167
f 165 80 103
f 102 92 163
f 163 92 168
f 167 97 154
f 167 103 97
f 142 37 39
f 154 100 146
f 103 86 97
f 99 169 170
f 99 101 169
f 101 107 169
f 168 92 171
f 92 170 171
f 92 99 170
f 101 104 107
f 172 173 174
f 175 176 172
f 177 178 179
f 172 179 173
f 172 177 179
f 174 173 180
f 180 175 174
f 179 178 173
f 175 172 174
f 181 182 183
f 184 185 171
f 186 183 184
f 176 187 181
f 169 184 171
f 177 184 188
f 187 189 190
f 191 192 193
f 183 194 185
f 195 196 197
f 171 185 195
f 169 171 170
f 198 199 182
f 159 200 160
f 201 198 182
f 188 169 107
f 182 199 194
f 184 183 185
f 172 186 177
f 176 181 186
f 178 188 107
f 177 188 178
f 177 186 184
f 186 181 183
f 106 178 107
f 181 201 182
f 188 184 169
f 190 201 181
f 182 194 183
f 187 190 181
f 172 176 186
f 197 171 195
f 202 203 204
f 141 205 3
f 202 204 206
f 205 207 202
f 204 208 206
f 205 206 3
f 202 206 205
f 207 209 202
f 207 205 141
f 116 210 114
f 211 134 147
f 212 213 214
f 215 216 217
f 218 212 214
f 219 215 220
f 221 222 223
f 126 1 113
f 124 126 113
f 224 124 113
f 213 219 220
f 216 225 217
f 112 1 3
f 214 213 220
f 1 112 113
f 208 204 226
f 116 136 210
f 173 227 180
f 110 228 109
f 227 173 229
f 229 178 109
f 230 227 228
f 228 229 109
f 3 228 112
f 112 228 110
f 228 227 229
f 191 231 192
f 191 232 231
f 206 230 3
f 109 178 106
f 229 173 178
f 3 230 228
f 227 233 180
f 230 234 233
f 208 234 230
f 233 227 230
f 206 208 230
f 83 235 84
f 13 236 11
f 74 237 70
f 11 236 43
f 43 238 23
f 23 238 6
f 23 6 5
f 237 98 70
f 83 98 235
f 211 147 156
f 239 240 241
f 84 235 104
f 242 243 244
f 245 246 247
f 248 249 239
f 250 237 74
f 251 252 253
f 247 254 238
f 63 255 256
f 256 255 257
f 17 258 259
f 238 254 6
f 260 261 262
f 33 258 17
f 263 264 265
f 266 241 244
f 259 258 267
f 268 251 253
f 269 117 270
f 259 267 245
f 271 251 268
f 54 58 271
f 253 250 60
f 60 250 74
f 272 273 242
f 259 245 274
f 275 65 132
f 276 247 238
f 277 278 279
f 280 161 281
f 248 239 282
f 283 284 248
f 257 278 256
f 276 238 43
f 248 284 249
f 285 271 268
f 17 259 18
f 268 253 286
f 76 283 287
f 288 281 289
f 290 259 274
f 266 244 291
f 54 271 292
f 282 239 241
f 286 253 60
f 290 18 259
f 277 279 269
f 292 271 285
f 77 63 256
f 64 76 287
f 293 272 249
f 287 283 248
f 294 295 296
f 244 243 297
f 98 297 235
f 240 272 242
f 292 285 298
f 299 274 300
f 249 272 240
f 285 268 301
f 236 276 43
f 302 261 260
f 299 300 303
f 18 290 82
f 298 285 301
f 256 278 277
f 303 300 236
f 77 256 304
f 305 306 307
f 268 286 308
f 301 268 308
f 269 270 309
f 310 270 293
f 286 60 59
f 298 301 311
f 54 292 312
f 282 241 266
f 313 301 308
f 314 132 134
f 291 244 297
f 312 292 298
f 246 245 267
f 276 245 247
f 276 274 245
f 274 276 300
f 311 301 313
f 274 299 290
f 315 55 166
f 241 240 242
f 236 300 276
f 308 286 59
f 299 82 290
f 119 118 316
f 317 316 118
f 313 308 318
f 312 298 311
f 113 319 224
f 136 124 224
f 320 224 319
f 304 256 277
f 54 312 46
f 136 224 321
f 249 310 293
f 287 248 322
f 321 210 136
f 317 118 117
f 311 313 323
f 155 324 156
f 312 311 325
f 326 327 306
f 328 266 291
f 64 287 322
f 329 277 269
f 111 319 113
f 329 269 309
f 330 115 114
f 248 282 322
f 49 308 59
f 331 332 302
f 324 211 156
f 330 117 115
f 318 308 49
f 333 64 322
f 325 311 323
f 334 312 325
f 323 313 335
f 313 318 335
f 46 312 334
f 159 161 280
f 336 337 338
f 339 114 210
f 275 132 314
f 241 242 244
f 333 322 340
f 47 318 49
f 322 282 266
f 250 291 98
f 242 320 319
f 341 325 323
f 323 335 342
f 321 224 273
f 334 325 341
f 304 277 329
f 77 304 89
f 61 57 343
f 344 334 341
f 345 336 346
f 339 210 321
f 243 242 319
f 347 326 306
f 46 334 41
f 310 309 270
f 279 338 316
f 250 98 237
f 342 335 348
f 58 64 333
f 335 318 47
f 273 224 320
f 314 134 211
f 349 345 346
f 250 328 291
f 341 323 342
f 243 319 111
f 342 348 350
f 348 335 47
f 41 334 344
f 340 322 266
f 279 336 338
f 304 329 351
f 243 111 108
f 58 333 352
f 348 47 8
f 353 310 249
f 354 65 275
f 279 316 317
f 352 333 340
f 340 266 328
f 344 341 355
f 297 243 108
f 342 350 356
f 341 342 356
f 309 310 353
f 61 343 255
f 41 344 357
f 348 8 7
f 355 341 358
f 357 344 355
f 358 341 356
f 255 343 349
f 239 249 240
f 89 304 351
f 297 108 235
f 359 340 328
f 350 348 7
f 270 330 114
f 351 329 309
f 293 339 321
f 269 317 117
f 352 340 359
f 278 346 336
f 360 211 324
f 359 328 252
f 272 321 273
f 361 357 355
f 270 114 339
f 362 363 155
f 246 358 356
f 252 328 250
f 288 280 281
f 362 155 364
f 283 89 351
f 258 355 358
f 356 350 254
f 235 108 104
f 270 339 293
f 41 357 33
f 270 117 330
f 349 346 257
f 273 320 242
f 258 358 246
f 255 349 257
f 63 61 255
f 293 321 272
f 284 351 309
f 258 361 355
f 284 353 249
f 279 317 269
f 252 250 253
f 246 356 247
f 247 356 254
f 347 306 365
f 33 357 361
f 76 89 283
f 257 346 278
f 284 309 353
f 271 352 359
f 254 350 6
f 350 7 6
f 33 361 258
f 291 297 98
f 271 359 251
f 283 351 284
f 366 200 159
f 267 258 246
f 263 265 332
f 58 352 271
f 251 359 252
f 278 336 279
f 367 154 146
f 368 145 144
f 369 368 144
f 367 146 370
f 369 144 162
f 370 146 150
f 162 143 165
f 371 370 150
f 369 162 372
f 153 373 374
f 363 324 155
f 149 164 375
f 360 314 211
f 162 165 372
f 372 165 167
f 376 149 375
f 377 150 149
f 371 150 377
f 378 315 264
f 377 149 376
f 379 372 167
f 379 167 380
f 354 62 65
f 381 37 142
f 381 142 145
f 366 16 200
f 262 382 151
f 380 167 154
f 380 154 367
f 381 145 368
f 383 381 368
f 384 385 386
f 387 388 389
f 390 388 387
f 389 388 391
f 383 392 385
f 384 386 393
f 394 191 193
f 390 393 395
f 390 395 388
f 391 388 396
f 392 383 368
f 13 397 398
f 398 397 399
f 400 401 399
f 388 395 402
f 400 403 401
f 404 405 32
f 35 404 32
f 403 157 401
f 400 399 406
f 386 407 393
f 12 405 397
f 22 405 12
f 365 306 305
f 396 388 402
f 405 22 32
f 393 407 395
f 408 409 364
f 405 404 406
f 364 390 387
f 406 404 410
f 386 392 411
f 390 364 409
f 407 386 411
f 412 403 410
f 403 412 413
f 410 404 414
f 412 409 413
f 402 395 415
f 36 381 416
f 390 409 393
f 416 404 35
f 416 414 404
f 393 409 384
f 35 36 416
f 384 409 412
f 384 412 385
f 383 414 416
f 383 385 414
f 383 416 381
f 395 407 415
f 385 392 386
f 407 411 417
f 12 397 13
f 397 406 399
f 392 368 411
f 397 405 406
f 403 400 410
f 410 400 406
f 413 408 157
f 413 157 403
f 411 368 369
f 413 409 408
f 410 414 412
f 385 412 414
f 37 381 36
f 418 419 420
f 421 369 372
f 417 411 421
f 422 418 420
f 42 34 327
f 418 417 423
f 418 423 419
f 419 423 421
f 415 417 418
f 424 421 372
f 402 415 418
f 396 402 422
f 419 421 424
f 289 420 425
f 391 396 289
f 407 417 415
f 425 420 426
f 418 422 402
f 396 420 289
f 396 422 420
f 421 411 369
f 417 421 423
f 192 427 428
f 192 428 193
f 193 428 429
f 236 13 398
f 155 408 364
f 426 420 430
f 430 431 427
f 432 380 433
f 192 430 427
f 431 434 377
f 366 25 16
f 435 377 376
f 430 432 433
f 433 367 370
f 426 430 436
f 431 377 437
f 427 431 437
f 425 426 231
f 377 435 437
f 433 370 434
f 231 426 436
f 438 314 360
f 434 370 371
f 427 437 428
f 430 433 431
f 434 371 377
f 231 436 192
f 372 379 432
f 192 436 430
f 424 372 432
f 431 433 434
f 432 379 380
f 424 439 419
f 439 424 432
f 419 430 420
f 419 439 430
f 433 380 367
f 430 439 432
f 440 441 442
f 443 260 262
f 444 135 445
f 445 135 128
f 444 445 440
f 120 446 128
f 363 360 324
f 119 447 446
f 442 441 448
f 446 447 441
f 449 450 442
f 451 449 442
f 446 440 445
f 442 448 451
f 440 446 441
f 440 442 450
f 450 452 453
f 445 128 446
f 450 449 452
f 120 119 446
f 451 454 455
f 451 455 449
f 456 457 453
f 457 444 450
f 444 456 137
f 135 444 123
f 456 444 457
f 444 137 123
f 139 137 456
f 457 450 453
f 444 440 450
f 453 452 458
f 452 459 458
f 452 449 459
f 449 455 459
f 130 138 460
f 130 460 140
f 138 461 460
f 138 462 461
f 138 139 462
f 139 463 462
f 139 456 463
f 456 453 463
f 151 153 464
f 42 327 326
f 453 458 463
f 465 466 467
f 468 469 470
f 471 472 473
f 474 209 468
f 465 475 470
f 476 477 478
f 345 378 264
f 468 209 469
f 479 480 481
f 472 471 482
f 438 275 314
f 470 466 465
f 483 484 485
f 479 481 486
f 345 264 263
f 467 487 482
f 481 480 488
f 209 489 469
f 490 484 491
f 488 492 481
f 470 476 466
f 493 494 488
f 495 496 497
f 498 499 495
f 387 362 364
f 492 488 500
f 483 501 491
f 492 500 502
f 472 503 480
f 466 478 487
f 469 504 505
f 482 487 503
f 466 476 478
f 506 485 479
f 483 507 501
f 503 487 478
f 476 505 477
f 494 508 509
f 509 508 510
f 509 510 463
f 505 511 477
f 503 488 480
f 510 462 463
f 509 463 500
f 478 508 493
f 507 497 512
f 513 502 500
f 513 500 514
f 481 498 486
f 500 463 514
f 463 458 514
f 458 459 514
f 486 498 495
f 263 332 337
f 494 500 488
f 499 496 495
f 511 141 515
f 498 516 499
f 354 275 438
f 492 502 516
f 489 504 469
f 515 510 477
f 499 516 513
f 141 2 140
f 517 518 519
f 519 518 520
f 521 362 387
f 522 159 280
f 425 288 289
f 520 523 519
f 141 140 515
f 523 524 468
f 460 510 515
f 524 474 468
f 467 466 487
f 502 513 516
f 209 207 489
f 510 460 461
f 472 482 503
f 461 462 510
f 478 493 503
f 479 486 506
f 486 507 506
f 504 511 505
f 525 526 527
f 489 141 504
f 493 488 503
f 363 438 360
f 489 207 141
f 526 525 528
f 507 486 497
f 508 478 477
f 486 495 497
f 494 493 508
f 504 141 511
f 481 492 498
f 492 516 498
f 529 62 354
f 515 477 511
f 530 531 528
f 510 508 477
f 494 509 500
f 460 515 140
f 526 532 533
f 534 527 526
f 525 517 530
f 528 525 530
f 535 467 531
f 517 519 530
f 532 536 533
f 519 535 530
f 526 528 532
f 105 42 326
f 535 531 530
f 535 519 537
f 519 523 537
f 533 484 490
f 522 366 159
f 528 531 471
f 532 528 471
f 382 307 538
f 536 484 533
f 534 526 533
f 536 485 484
f 232 539 425
f 473 485 536
f 471 473 532
f 473 536 532
f 540 363 362
f 537 465 535
f 475 537 523
f 533 490 534
f 469 476 470
f 531 467 471
f 465 537 475
f 475 523 468
f 535 465 467
f 485 506 483
f 485 473 480
f 378 55 315
f 491 484 483
f 473 472 480
f 480 479 485
f 541 326 347
f 476 469 505
f 467 482 471
f 475 468 470
f 483 506 507
f 542 513 459
f 543 544 542
f 545 543 546
f 459 513 514
f 547 542 459
f 548 546 543
f 542 544 499
f 499 513 542
f 544 496 499
f 548 543 542
f 547 459 455
f 549 25 366
f 543 550 544
f 550 543 545
f 548 542 547
f 551 520 518
f 294 296 539
f 552 518 553
f 554 552 555
f 540 438 363
f 554 555 556
f 557 558 559
f 226 203 560
f 561 556 562
f 563 552 554
f 556 564 565
f 305 307 382
f 566 562 567
f 562 556 565
f 568 554 219
f 226 204 203
f 221 569 570
f 221 570 222
f 571 524 523
f 474 203 209
f 521 540 362
f 565 564 572
f 557 573 558
f 565 574 570
f 552 553 555
f 553 517 575
f 555 553 564
f 374 232 191
f 576 571 563
f 567 562 569
f 577 576 568
f 565 572 574
f 213 568 219
f 517 525 575
f 578 567 223
f 212 559 213
f 576 579 571
f 557 559 212
f 571 520 551
f 579 560 524
f 580 62 529
f 216 566 225
f 567 569 221
f 581 566 578
f 213 577 568
f 213 559 577
f 570 582 222
f 551 518 552
f 554 556 561
f 564 575 572
f 566 567 578
f 216 561 566
f 563 571 551
f 575 527 572
f 215 219 216
f 573 560 558
f 553 575 564
f 203 202 209
f 568 576 563
f 563 551 552
f 560 474 524
f 573 226 560
f 568 563 554
f 575 525 527
f 216 554 561
f 518 517 553
f 566 581 225
f 559 558 579
f 559 579 576
f 223 567 221
f 559 576 577
f 560 203 474
f 527 534 572
f 569 565 570
f 556 555 564
f 529 354 438
f 562 565 569
f 561 562 566
f 558 560 579
f 219 554 216
f 571 523 520
f 579 524 571
f 583 534 584
f 585 586 587
f 588 587 589
f 590 584 591
f 592 593 594
f 595 596 597
f 598 599 600
f 601 602 603
f 507 512 604
f 605 591 596
f 588 585 587
f 606 222 582
f 582 607 606
f 607 582 608
f 584 534 490
f 570 608 582
f 570 574 609
f 601 597 602
f 570 609 608
f 586 610 587
f 598 611 599
f 152 538 295
f 612 613 604
f 608 595 614
f 574 615 609
f 496 550 586
f 616 614 595
f 490 491 593
f 591 584 592
f 586 617 610
f 574 618 615
f 584 490 592
f 349 378 345
f 591 592 596
f 618 574 572
f 589 610 619
f 608 609 605
f 608 605 595
f 618 572 583
f 593 613 612
f 612 604 588
f 618 590 615
f 602 598 603
f 501 507 613
f 496 544 550
f 53 62 580
f 593 612 594
f 609 615 605
f 594 588 611
f 603 598 600
f 611 620 599
f 337 345 263
f 593 491 613
f 613 507 604
f 550 617 586
f 604 512 585
f 589 587 610
f 611 588 620
f 618 583 590
f 596 592 594
f 596 594 597
f 588 604 585
f 594 612 588
f 572 534 583
f 583 584 590
f 620 588 589
f 512 497 586
f 615 590 591
f 615 591 605
f 617 621 610
f 491 501 613
f 622 262 151
f 602 597 611
f 602 611 598
f 497 496 586
f 592 490 593
f 512 586 585
f 550 545 617
f 620 589 599
f 605 596 595
f 545 621 617
f 597 594 611
f 595 597 601
f 454 623 455
f 624 625 589
f 455 548 547
f 545 626 621
f 448 441 627
f 627 441 443
f 546 626 545
f 600 628 603
f 629 600 599
f 608 614 607
f 260 443 441
f 601 603 630
f 260 441 447
f 625 629 599
f 601 630 595
f 589 625 599
f 331 447 119
f 631 529 438
f 331 119 632
f 633 634 635
f 636 634 633
f 635 634 637
f 638 626 546
f 639 548 455
f 636 639 634
f 639 640 634
f 639 455 623
f 639 623 640
f 546 636 638
f 337 332 632
f 105 326 541
f 633 638 636
f 546 548 636
f 641 637 634
f 634 640 641
f 642 638 633
f 636 548 639
f 429 428 643
f 437 435 644
f 428 645 643
f 435 376 646
f 435 646 644
f 428 437 645
f 437 644 645
f 376 375 646
f 375 196 646
f 343 378 349
f 375 164 196
f 164 197 196
f 631 580 529
f 164 163 197
f 163 171 197
f 163 168 171
f 647 648 649
f 194 195 185
f 650 647 651
f 652 196 195
f 195 653 652
f 654 644 646
f 651 647 655
f 654 651 644
f 647 656 655
f 657 658 659
f 652 653 654
f 654 646 196
f 194 199 660
f 194 660 661
f 660 662 661
f 662 659 663
f 654 196 652
f 627 262 622
f 659 658 663
f 664 438 540
f 662 663 661
f 661 665 194
f 650 663 647
f 464 153 374
f 664 631 438
f 658 648 663
f 651 645 644
f 522 549 366
f 651 643 645
f 651 655 643
f 665 195 194
f 648 647 663
f 665 653 195
f 643 655 637
f 661 663 650
f 653 650 651
f 661 653 665
f 661 650 653
f 653 651 654
f 666 234 226
f 226 234 208
f 667 573 557
f 666 233 234
f 667 557 668
f 667 669 573
f 668 212 218
f 668 557 212
f 573 666 226
f 670 521 387
f 573 669 666
f 671 672 673
f 674 672 671
f 675 672 674
f 676 675 674
f 677 678 679
f 680 674 681
f 343 55 378
f 681 674 671
f 682 674 680
f 683 677 684
f 683 684 685
f 686 680 681
f 677 687 688
f 688 687 689
f 690 687 677
f 691 692 693
f 694 690 683
f 683 690 677
f 695 688 696
f 677 688 678
f 678 688 695
f 692 694 683
f 697 694 698
f 698 694 699
f 699 694 700
f 691 694 692
f 700 694 691
f 701 681 671
f 702 696 703
f 695 696 702
f 704 347 365
f 705 701 671
f 673 691 706
f 671 673 707
f 708 673 709
f 707 673 708
f 710 699 700
f 678 695 711
f 712 695 713
f 711 695 712
f 714 707 708
f 715 707 714
f 443 262 627
f 672 700 673
f 716 715 714
f 673 700 691
f 717 700 672
f 711 712 718
f 718 712 719
f 189 682 680
f 189 187 682
f 394 374 191
f 187 176 682
f 176 674 682
f 343 57 55
f 176 175 674
f 175 676 674
f 175 180 676
f 180 675 676
f 180 672 675
f 180 233 672
f 233 666 672
f 666 717 672
f 666 669 717
f 669 700 717
f 539 280 288
f 669 667 700
f 667 710 700
f 667 668 699
f 667 699 710
f 668 698 699
f 668 218 698
f 218 697 698
f 218 214 697
f 214 694 697
f 214 220 694
f 220 690 694
f 670 387 389
f 220 215 690
f 215 687 690
f 215 217 689
f 215 689 687
f 217 688 689
f 217 225 688
f 225 696 688
f 225 581 696
f 199 198 701
f 454 464 374
f 581 703 696
f 581 578 703
f 198 681 701
f 578 702 703
f 198 201 686
f 198 686 681
f 578 223 702
f 223 695 702
f 223 222 695
f 201 190 686
f 190 680 686
f 451 151 464
f 190 189 680
f 222 713 695
f 589 619 624
f 624 619 720
f 621 721 720
f 638 722 626
f 723 53 580
f 626 721 621
f 619 610 720
f 626 722 721
f 616 595 630
f 610 621 720
f 630 678 711
f 630 603 678
f 603 679 678
f 603 628 679
f 628 677 679
f 628 600 677
f 600 684 677
f 600 629 684
f 629 685 684
f 629 625 685
f 625 683 685
f 625 624 683
f 624 692 683
f 624 693 692
f 624 720 693
f 720 691 693
f 720 721 691
f 721 706 691
f 721 722 673
f 721 673 706
f 722 638 709
f 722 709 673
f 638 642 709
f 642 708 709
f 331 302 260
f 642 724 708
f 724 714 708
f 724 657 714
f 657 716 714
f 657 715 716
f 657 659 715
f 365 305 261
f 725 105 541
f 659 707 715
f 659 671 707
f 222 606 713
f 659 662 671
f 606 607 712
f 606 712 713
f 662 705 671
f 607 614 719
f 607 719 712
f 662 660 705
f 660 701 705
f 614 718 719
f 614 616 718
f 660 199 701
f 616 711 718
f 616 630 711
f 656 649 635
f 637 655 656
f 635 649 633
f 521 664 540
f 657 724 658
f 337 336 345
f 635 637 656
f 724 649 658
f 633 724 642
f 649 724 633
f 648 658 649
f 656 647 649
f 193 429 637
f 429 643 637
f 726 394 640
f 394 641 640
f 394 193 641
f 454 726 623
f 726 640 623
f 193 637 641
f 200 52 727
f 200 16 52
f 538 728 295
f 153 152 373
f 327 34 729
f 200 727 160
f 261 730 262
f 155 157 408
f 632 332 331
f 134 133 148
f 156 147 157
f 262 730 382
f 148 133 731
f 132 71 133
f 704 541 347
f 327 729 306
f 147 148 732
f 265 704 332
f 132 65 71
f 622 151 451
f 281 161 160
f 315 166 264
f 148 733 732
f 147 401 157
f 148 731 733
f 373 294 374
f 728 549 522
f 160 727 734
f 373 295 294
f 727 52 735
f 307 728 538
f 731 736 733
f 264 725 265
f 264 166 725
f 729 34 26
f 723 580 631
f 147 732 401
f 306 729 307
f 133 737 731
f 166 50 725
f 151 382 538
f 232 425 231
f 71 78 133
f 281 391 289
f 734 727 738
f 374 294 232
f 731 737 736
f 281 160 391
f 50 105 725
f 151 538 152
f 401 732 739
f 160 734 391
f 727 735 738
f 736 737 740
f 307 729 728
f 728 522 295
f 401 739 399
f 50 45 105
f 736 740 741
f 726 374 394
f 735 52 723
f 737 81 740
f 735 742 738
f 733 743 732
f 733 736 743
f 265 725 541
f 743 739 732
f 743 736 741
f 737 133 78
f 737 78 81
f 734 738 670
f 295 522 296
f 741 303 743
f 743 398 739
f 303 398 743
f 119 316 632
f 296 522 280
f 296 280 539
f 739 398 399
f 332 704 302
f 539 288 425
f 451 464 454
f 729 26 549
f 735 723 742
f 265 541 704
f 730 305 382
f 741 740 299
f 741 299 303
f 723 52 53
f 448 622 451
f 316 337 632
f 734 389 391
f 738 742 664
f 316 338 337
f 730 261 305
f 448 627 622
f 740 82 299
f 704 365 302
f 740 81 82
f 26 25 549
f 734 670 389
f 398 303 236
f 447 331 260
f 729 549 728
f 742 723 631
f 738 664 670
f 454 374 726
f 152 295 373
f 294 539 232
f 670 664 521
f 742 631 664
f 302 365 261
