v 0.00660529 -0.002945032 -0.078089
v 0.00647901 0.006764336 -0.08165455
v 0.006640702 -0.01675681 0.08165497
v -0.004936907 0.0167568 0.04108292
v -0.005113065 -0.01254184 0.07215786
v 0.004189454 -0.01673332 -0.06582242
v -0.004369598 -0.00919247 -0.05875105
v -0.006111976 -0.01257802 -0.02519345
v -0.006640662 0.002955623 0.02420896
v -0.006353468 0.00326395 -0.0466308
v -0.006032374 0.0008643717 0.05620778
v -0.005019367 0.01626559 -0.002241611
v -0.006583035 0.002724577 0.001658082
v -0.005646858 0.01380298 0.02277058
v -0.005682983 0.01332988 0.03955239
v -0.006288603 0.01095832 0.02528232
f 1 2 3
f 4 5 3
f 2 4 3
f 6 1 3
f 5 6 3
f 7 2 1
f 6 7 1
f 8 6 5
f 8 7 6
f 9 8 5
f 7 10 2
f 8 10 7
f 4 11 5
f 11 9 5
f 12 4 2
f 10 12 2
f 13 8 9
f 13 10 8
f 12 14 4
f 15 11 4
f 16 12 10
f 16 14 12
f 13 16 10
f 16 13 9
f 11 16 9
f 15 16 11
f 14 16 4
f 16 15 4
