v -0.002633154 0.00399036 0.01132298
v -0.002633706 0.005932972 -0.001504332
v -0.002633758 -0.003997162 0.01131976
v 3.2112e-05 0.005927548 0.009791881
v -0.002633706 -0.005927339 -0.00151059
v -0.001837254 7.346098e-06 -0.011323
v 3.20524e-05 -0.005932972 0.009786427
v -0.0005407855 -0.003796198 -0.001966596
v 0.001870997 -0.003801115 0.008258224
v -0.0005407631 0.003802545 -0.001962721
v 0.002633765 -1.400884e-06 0.007624865
v 0.001871087 0.003796726 0.008261919
v 0.00038068 3.151421e-06 -0.002165198
f 1 2 3
f 2 1 4
f 2 5 3
f 5 2 6
f 5 7 3
f 7 1 3
f 1 7 4
f 8 5 6
f 7 8 9
f 8 7 5
f 2 10 6
f 10 2 4
f 11 12 9
f 7 12 4
f 12 7 9
f 12 10 4
f 10 13 6
f 13 8 6
f 13 12 11
f 12 13 10
f 13 11 9
f 8 13 9
