v -0.0005354136 0.004793614 -0.02309588
v -0.0005353689 -0.004793614 -0.0230931
v -0.0005354136 -0.004609756 0.02309588
v -0.0005353689 0.00462763 0.02309403
v 0.0005354136 0.004619107 -0.02165359
v 0.000534758 -0.004618511 -0.02165219
v 0.0003266633 -0.004654489 -0.02250522
v 0.0004352778 0.004636645 -0.02222976
v 0.0004341751 -0.004635975 -0.02222702
v 0.0003280342 0.004655212 -0.02250651
f 1 2 3
f 4 1 3
f 5 4 3
f 2 6 3
f 6 5 3
f 7 2 1
f 7 6 2
f 6 8 5
f 7 9 6
f 9 8 6
f 8 9 7
f 10 7 1
f 10 8 7
f 8 10 5
f 4 10 1
f 5 10 4
