v 0.01447371 0.005736664 0.04160538
v 0.01345715 -0.004923746 0.03922549
v 0.01345764 -0.004923195 -0.04025659
v -0.01447369 -0.01527013 0.03922555
v -0.004217736 -0.01485345 -0.04025617
v -0.004219264 -0.01485354 0.03922477
v 0.00540664 -0.01128875 -0.0402551
v -0.01429815 0.01527011 0.04160488
v -0.009137042 0.01459801 0.04160509
v -0.01424973 -0.01335137 0.04160452
v -0.01447364 0.00665468 0.04160443
v -0.01429194 -0.01370968 0.04153374
v -0.01440345 -0.01465991 0.04069009
v -0.01447371 -0.01526978 -0.0163545
v -0.004839383 -0.01175023 -0.04074487
v 0.00540518 -0.01128803 0.03922561
v -0.004339479 -0.01425115 0.04068998
v -0.004527211 -0.01331329 0.04153439
v -0.004029877 0.01340801 0.0416052
v 0.000654541 0.01187626 0.04160538
v -0.00459829 -0.01295919 0.04160532
v 0.004459091 -0.009604007 0.04160532
v 0.004839011 -0.01027826 -0.04160497
v 0.004347876 -0.009403422 -0.0415878
v 0.005281337 -0.01106541 -0.04086617
v 0.0130057 -0.004507512 0.04068992
v 0.01203675 -0.00361383 0.04160535
v 0.01230207 -0.003858656 0.04153419
v -0.004467718 -0.01361348 0.04133233
v 0.003912427 -0.008629888 -0.04102051
v -0.004643105 -0.01273367 -0.0415884
v 0.005091764 -0.01072828 -0.04124829
v -0.004817046 -0.01186274 -0.04102045
v 0.01252798 -0.004066184 0.0413321
v 0.006573297 0.009317324 0.04160562
v -0.01432762 -0.01401445 0.0413318
v 0.003856517 -0.008529291 -0.04074502
v -0.004268043 -0.01460274 -0.04086661
v 0.00510443 -0.01075298 0.04069024
v -0.004344217 -0.01422367 -0.0412477
v 0.004636206 -0.009918861 0.04153422
v 0.004786246 -0.01018646 0.04133287
v -0.004445471 -0.01371772 -0.04160562
f 1 2 3
f 4 5 6
f 2 7 3
f 5 7 6
f 8 9 3
f 10 11 12
f 11 10 8
f 13 11 4
f 4 14 5
f 11 14 4
f 15 14 8
f 14 11 8
f 7 16 6
f 16 7 2
f 17 4 6
f 17 13 4
f 18 10 12
f 19 20 3
f 9 19 3
f 19 9 20
f 18 21 10
f 21 18 22
f 10 21 8
f 21 9 8
f 23 24 3
f 7 25 3
f 26 2 1
f 27 28 1
f 17 29 13
f 24 30 3
f 31 30 24
f 32 23 3
f 25 32 3
f 33 14 15
f 33 31 14
f 33 30 31
f 28 34 1
f 34 26 1
f 35 21 22
f 27 35 22
f 9 35 20
f 21 35 9
f 35 27 1
f 35 1 3
f 20 35 3
f 29 36 13
f 11 36 12
f 13 36 11
f 36 18 12
f 36 29 18
f 37 8 3
f 30 37 3
f 37 15 8
f 37 33 15
f 33 37 30
f 38 32 25
f 38 7 5
f 38 25 7
f 14 38 5
f 39 16 2
f 26 39 2
f 16 39 6
f 39 17 6
f 38 40 32
f 40 38 14
f 41 27 22
f 27 41 28
f 18 41 22
f 34 42 26
f 42 39 26
f 42 34 28
f 41 42 28
f 42 29 17
f 39 42 17
f 29 42 18
f 42 41 18
f 32 43 23
f 40 43 32
f 43 24 23
f 43 31 24
f 31 43 14
f 43 40 14
