v 0.0005420186 0.004618883 0.03718734
v -6.215647e-05 -0.004526436 -0.03861845
v -6.248429e-05 0.004552424 -0.03861696
v -0.0005420111 0.004793674 0.03861845
v -0.0005419813 -0.004605532 -0.0374113
v -0.0005420223 -0.004793689 0.03861752
v 0.0004364252 0.004637241 0.03776133
v 0.0005415492 -0.004618704 0.03718561
v -0.000541918 0.004631042 -0.03740948
v 0.0003264099 0.004655108 0.03803825
v 0.0003262796 -0.004654393 0.03803667
v 0.0004360266 -0.004636183 0.03775963
f 1 2 3
f 4 5 6
f 2 5 3
f 7 1 3
f 1 8 2
f 5 8 6
f 8 5 2
f 5 9 3
f 9 5 4
f 9 7 3
f 7 9 4
f 10 4 6
f 10 7 4
f 10 11 7
f 8 11 6
f 11 10 6
f 11 12 7
f 12 11 8
f 7 12 1
f 12 8 1
