v 0.002871484 -0.002814099 2.652596e-06
v 0.001858264 -0.003281817 -0.00388661
v 7.4476e-05 0.005409822 -0.00392428
v -0.002871394 0.005652919 0.005980283
v -0.002871484 0.00564976 -0.005980283
v -0.002871424 -0.005651101 0.00399974
v 7.429719e-05 0.005412593 0.0039258
v -0.002869606 -0.005652919 -0.003994912
v 0.001197785 0.00531961 1.132677e-06
v -0.0008057952 -0.004506186 0.005938023
v -0.0008054078 -0.004508331 -0.005932689
v 0.001857132 -0.003280148 0.003891707
f 1 2 3
f 4 5 6
f 2 5 3
f 7 5 4
f 5 8 6
f 8 1 6
f 8 2 1
f 9 1 3
f 9 7 1
f 5 9 3
f 7 9 5
f 10 4 6
f 11 5 2
f 8 11 2
f 11 8 5
f 7 12 1
f 1 12 6
f 12 10 6
f 12 7 4
f 10 12 4
