v -0.003101707 -0.006416738 -0.01025049
v -0.004593909 0.004168034 -0.01179925
v 0.00570333 0.004372388 -0.009502113
v 0.00570415 -0.004759848 -0.007045522
v 0.0007779449 0.006418169 -0.01042776
v -0.00559327 0.0008357763 0.01083121
v -0.005704135 -0.001231074 -0.0112918
v 0.0004837215 -0.006418169 0.0005537868
v -0.003440589 -0.00488165 0.0001366884
v -0.003250748 -0.002467543 0.01179925
v 0.0005254447 -0.004220754 0.01177767
v 0.001868233 -0.006275952 -0.007114813
v -0.005691662 0.001707971 -0.0006107539
v -0.005678177 -0.001324952 -0.0004007071
v 0.003462642 -0.005858243 0.000806123
f 1 2 3
f 4 1 3
f 2 5 3
f 5 6 3
f 6 5 2
f 1 7 2
f 8 9 1
f 6 9 10
f 11 4 3
f 9 11 10
f 11 9 8
f 6 11 3
f 11 6 10
f 4 12 1
f 12 8 1
f 13 6 2
f 7 13 2
f 14 9 6
f 13 14 6
f 14 13 7
f 14 7 1
f 9 14 1
f 15 12 4
f 12 15 8
f 11 15 4
f 15 11 8
