v 0.01674497 0.09191088 0.04441312
v 0.01714431 -0.08748927 0.04359582
v 0.03159986 0.001223383 -0.01380442
v -0.0170436 -0.09374285 0.00210264
v -0.01750032 -0.09612566 0.0316476
v -0.03158743 -0.000204606 -0.01886573
v -0.02597091 0.07755161 -0.02510097
v -0.03162584 0.00120317 -0.01404559
v 0.01704323 -0.09502033 0.01030349
v 0.03162586 -7.896125e-05 -0.01883894
v 0.01759516 -0.0956251 0.03196609
v 0.01856592 0.0963839 0.03659854
v -0.0167941 -0.09012423 -0.01372308
v -0.01680217 -0.085751 -0.02122502
v 0.01624017 -0.09775557 0.03156554
v -3.101558e-05 -0.1022078 -0.01432767
v -7.201177e-06 -0.1019608 -0.02921785
v -0.003606698 -0.09937593 -0.03262888
v -0.003419484 -0.100816 -0.02898285
v -0.02526028 0.08384701 -0.0148217
v -0.02800079 0.04356619 -0.02641511
v -0.0001025077 0.09459046 0.04594341
v -0.01255665 0.09549445 0.04514972
v -0.0144119 0.09305841 0.04567099
v -0.01724461 -0.08891836 0.04306344
v -0.01546165 -0.08892437 0.04517153
v -0.01675718 0.09203416 0.04431346
v 0.0169656 -0.08982102 -0.01445573
v 0.01761722 -0.09206562 0.03842993
v 0.01251574 -0.09840556 0.0368756
v 0.01556099 0.1019817 0.03465384
v 0.01927889 0.1002755 0.02492299
v 0.01622845 0.1020672 0.02585101
v 0.001927514 -0.04373807 -0.04567805
v 0.02802515 0.04382424 -0.0263683
v 0.003820414 -0.08118432 -0.0444679
v 0.02068094 0.09547378 0.02328955
v 0.02545802 0.0829624 -0.01651813
v -0.003626739 -0.08180404 -0.04462483
v -0.01652262 -0.08045438 -0.02513668
v -0.01400706 -0.09830917 0.0360084
v -0.01600307 -0.09784669 0.02928288
v -0.003205016 -0.08598412 -0.04390296
v -0.01297787 -0.09071378 0.04569338
v -0.0004955838 -0.09116334 0.04593454
v 0.01354964 0.09445409 0.04566913
v 0.01343487 -0.09014504 0.04571274
v -0.01921916 0.09904251 0.03056967
v 0.01656829 -0.08335028 -0.0238913
v 0.003504841 -0.1009338 -0.02804789
v 0.02387923 0.0921833 -0.01565051
v 0.02271787 0.09551746 -0.005678723
v 0.02604438 0.07707947 -0.02504957
v 0.02482683 0.07615944 -0.02717443
v -0.001490071 -0.04408798 -0.04594341
v -0.0008236935 0.08204185 -0.02734045
v 0.02296918 0.07968326 -0.02741777
v -0.02275105 0.08195626 -0.02692828
v 4.188377e-05 -0.09766955 -0.03717976
v -0.01662209 -0.09677203 0.03471538
v 0.003612199 -0.0994128 -0.03264619
v -0.001606667 0.09925301 0.04228858
v 0.01572843 -0.08999762 0.04489397
v -0.01843862 0.09379748 0.03837441
v -0.0006169179 -0.08619288 -0.04498017
v 0.003086078 -0.08619103 -0.04399729
v 0.01981212 0.09879297 0.0008952226
v 0.009951611 0.1018167 0.03832204
v 0.01713952 0.1008492 0.03428641
v -0.0003040571 0.09639726 -0.01244409
v -5.877075e-06 0.100278 0.007063037
v -0.0003272461 0.08834352 -0.02418203
v 0.02232436 0.09003187 -0.02195194
v 0.02238706 0.08513709 -0.02554485
v -0.02131488 0.0927088 -0.01903895
v -0.0227227 0.08721637 -0.02413908
v -0.02448518 0.08767425 -0.02185148
v 0.001852866 -0.08222044 -0.04554347
v -0.02464017 0.0784499 -0.02695087
v 0.01314879 -0.09228093 0.04466462
v -0.009313812 -0.09820069 0.03847065
v -0.01905672 0.09947906 0.004608721
v -0.004484325 0.1022078 0.03810033
v -0.01461303 0.1019502 0.03571616
v 0.01581496 -0.09763431 0.03495172
v 0.02135266 0.09611504 -0.01107674
v -0.0001633301 0.09277693 -0.01944197
v 0.02149298 0.09357658 -0.01733462
v 0.02452524 0.08348449 -0.02507016
v 0.02473946 0.087522 -0.02125043
v -0.02064757 0.09644982 -0.01048077
v 0.001200646 -0.09851953 0.03860458
v 0.0004796578 -0.09487393 0.04305981
v 0.01540696 0.09468754 0.04453753
v -0.0008577529 -0.0807666 -0.04588877
v -0.02354571 0.09294821 -0.01541083
v -0.01460697 -0.09165974 0.04448148
v -0.02301602 0.09467877 -0.01014189
v -0.02181207 0.09722362 0.001737608
v -0.01818257 0.1012999 0.0237954
v -0.01603546 0.09499121 0.04359813
v -0.01698478 0.1011448 0.03409602
f 1 2 3
f 4 5 6
f 7 6 8
f 9 10 11
f 10 3 11
f 12 1 3
f 13 6 14
f 8 6 5
f 4 6 13
f 15 16 17
f 18 19 13
f 20 7 8
f 21 6 7
f 22 23 24
f 25 26 27
f 28 10 9
f 2 29 3
f 29 11 3
f 30 16 15
f 31 32 33
f 34 35 36
f 37 3 38
f 6 39 40
f 25 8 5
f 41 42 16
f 18 14 43
f 22 24 44
f 44 45 22
f 46 22 45
f 45 47 46
f 20 8 48
f 9 11 15
f 36 10 49
f 50 28 9
f 10 36 35
f 12 37 32
f 37 12 3
f 37 38 51
f 37 52 32
f 52 37 51
f 10 35 53
f 10 53 38
f 10 38 3
f 54 35 34
f 55 56 57
f 56 55 58
f 57 54 34
f 39 6 21
f 59 18 43
f 40 39 43
f 14 40 43
f 14 6 40
f 60 25 5
f 59 61 17
f 42 60 5
f 16 42 17
f 62 22 46
f 22 62 23
f 1 46 63
f 47 63 46
f 25 64 8
f 64 25 27
f 64 48 8
f 65 59 43
f 66 36 49
f 63 2 1
f 33 32 67
f 68 62 46
f 32 69 12
f 70 71 67
f 53 35 54
f 72 73 74
f 75 76 77
f 78 55 34
f 55 79 58
f 4 42 5
f 50 15 17
f 59 17 18
f 7 20 77
f 24 26 44
f 27 26 24
f 45 80 47
f 41 16 81
f 82 71 70
f 62 83 23
f 33 84 83
f 49 28 61
f 61 28 50
f 61 50 17
f 63 85 29
f 85 30 15
f 80 85 63
f 85 80 30
f 9 15 50
f 85 15 11
f 11 29 85
f 83 62 68
f 34 36 78
f 70 67 86
f 71 33 67
f 58 76 72
f 73 87 88
f 72 74 56
f 56 74 57
f 34 55 57
f 21 79 55
f 21 7 79
f 89 73 90
f 39 21 55
f 91 82 70
f 84 23 83
f 28 49 10
f 92 80 93
f 31 33 68
f 68 33 83
f 51 86 52
f 69 32 31
f 46 94 68
f 94 31 68
f 94 12 69
f 76 75 72
f 90 53 89
f 86 51 88
f 75 70 87
f 87 70 88
f 95 55 78
f 39 55 95
f 14 18 13
f 42 41 60
f 19 17 42
f 19 4 13
f 45 93 80
f 92 93 81
f 16 30 92
f 92 81 16
f 96 77 20
f 66 59 65
f 65 78 66
f 59 66 61
f 49 61 66
f 2 63 29
f 80 63 47
f 80 92 30
f 78 36 66
f 94 69 31
f 94 46 1
f 12 94 1
f 70 86 88
f 67 52 86
f 52 67 32
f 57 89 54
f 53 90 38
f 90 51 38
f 75 87 72
f 72 87 73
f 56 58 72
f 42 4 19
f 19 18 17
f 97 81 44
f 81 93 44
f 41 97 60
f 26 97 44
f 98 99 91
f 100 33 71
f 84 33 100
f 96 75 77
f 95 78 65
f 73 89 74
f 53 54 89
f 73 88 51
f 90 73 51
f 41 81 97
f 44 93 45
f 25 97 26
f 101 48 64
f 64 27 101
f 102 48 101
f 96 98 91
f 48 99 20
f 99 98 20
f 98 96 20
f 96 91 75
f 84 101 23
f 27 24 101
f 89 57 74
f 77 76 79
f 79 76 58
f 79 7 77
f 102 84 100
f 91 99 82
f 48 100 99
f 100 48 102
f 75 91 70
f 84 102 101
f 24 23 101
f 43 95 65
f 25 60 97
f 82 100 71
f 43 39 95
f 100 82 99
