v -0.0055843 0.02307048 0.08262128
v 0.01531485 -0.03362932 0.02959883
v 0.02072166 0.02953807 0.02436894
v 0.02080868 -0.02206966 0.01665807
v 0.01902075 -0.02398252 -0.07379723
v 0.007661916 0.03362931 0.02049822
v 0.0001462847 -0.0327101 -0.08088958
v 0.01725322 0.01655887 -0.0751943
v -0.004044369 0.02733041 -0.08262104
v -0.01943146 -0.003460266 0.06111538
v -0.01604626 -0.02264446 0.04028988
v 0.009685874 -0.03251927 -0.06874174
v -0.00557711 -0.02994079 0.01323891
v 0.02082279 0.0110852 0.01580167
v 0.005291015 0.029149 -0.07356763
v -0.01679098 0.02406057 0.05254161
v -0.01557729 0.01724131 -0.08054572
v -0.01991444 0.0166555 0.006951928
v 0.0192246 0.0001945342 -0.06888187
v -0.007586204 -0.02945358 -0.08224535
v -0.01300847 -0.02329709 -0.08065772
v -0.01765233 0.005501188 -0.07827204
v -0.01660573 -0.01223474 -0.07789087
v -0.02082285 -0.003527973 0.002723813
v 0.01314124 0.0244804 -0.07440263
v -0.02079871 0.009989861 0.04813141
v -0.01016583 0.02792466 0.005463004
v -0.01771735 -0.01902977 0.01574808
v -0.0180174 0.01822041 0.05988026
v -0.01199079 0.02263108 -0.07471395
f 1 2 3
f 2 4 3
f 5 4 2
f 6 1 3
f 7 8 5
f 8 7 9
f 10 2 1
f 10 11 2
f 12 5 2
f 7 12 2
f 12 7 5
f 11 13 2
f 13 7 2
f 4 14 3
f 15 6 3
f 6 15 9
f 6 16 1
f 16 17 18
f 19 8 3
f 8 19 5
f 14 19 3
f 19 4 5
f 19 14 4
f 13 20 7
f 7 20 9
f 21 20 11
f 20 13 11
f 20 17 9
f 17 20 21
f 22 21 23
f 22 17 21
f 24 22 23
f 17 22 18
f 22 24 18
f 25 8 9
f 15 25 9
f 8 25 3
f 25 15 3
f 26 16 18
f 24 26 18
f 26 24 10
f 27 6 9
f 27 16 6
f 10 28 11
f 24 28 10
f 28 24 23
f 21 28 23
f 28 21 11
f 29 26 10
f 26 29 16
f 29 10 1
f 16 29 1
f 16 30 17
f 27 30 16
f 17 30 9
f 30 27 9
