v 0.02738585 0.0221303 -0.004428059
v 0.02738518 -0.02305238 -0.003911555
v 0.02740423 0.0002111048 -0.01438704
v -0.02734283 -0.03043898 0.04886355
v 0.01726051 -0.02918973 0.04986209
v 0.005199969 -0.003868237 0.07079059
v 0.02740695 0.02940459 0.00831379
v 0.02738649 0.03055856 0.01831406
v 0.01102884 -0.03080744 -0.066559
v 0.01507822 -0.03110527 -0.06370507
v 0.01726472 -0.0438824 0.01366031
v 0.002910227 -0.03119769 -0.06605072
v -0.02729024 -0.0437602 0.01176907
v -0.02736191 -0.04387996 0.02162871
v -0.02741343 -0.03341112 -0.01148756
v -0.02741137 -0.02154645 -0.02160272
v -0.002766788 -0.02991205 -0.06526117
v 0.01497281 -0.009019792 -0.06840517
v 0.01335585 0.0087597 -0.06963445
v 0.01548968 0.01398594 -0.0675838
v 0.0273906 0.01907958 0.04141371
v 0.02738805 0.02822221 0.02909656
v 0.01657721 -0.02964495 -0.06313764
v 0.02742341 -0.0304607 0.01285602
v 0.02738664 -0.02977508 0.02418216
v 0.01735368 -0.04358381 0.02228795
v 0.01528938 -0.02873628 -0.06590581
v 0.01469395 -0.03021707 -0.06562221
v 0.01640995 -0.00453978 -0.06654803
v 0.01664321 0.02989392 -0.06272621
v -0.02741371 0.03305832 -0.01187684
v -0.002746597 0.03000797 -0.06523123
v -0.02741127 0.02000614 -0.02237964
v 0.005299911 0.003651276 0.07091156
v -0.02737485 -0.001597904 0.06097764
v 0.009664997 -0.002204694 0.07070607
v 0.01031239 -9.8221e-05 0.07067561
v 0.01756376 -0.02201939 0.05483902
v -0.02735911 -0.02168328 0.05533063
v 0.01739044 -0.03243908 0.04657677
v -0.02730857 -0.0366372 0.04157738
v -0.02731276 -0.04130835 0.0324682
v 0.01742691 -0.03976469 0.03557086
v 0.02738959 -0.01774694 0.04219408
v 0.02738665 -0.02604103 0.03328829
v 0.01727515 -0.0423082 0.02884735
v 0.01309983 -0.02918363 -0.06744847
v 0.009142205 -0.01605228 -0.07025152
v 0.01373237 -0.01692582 -0.06875759
v 0.006407514 -0.02939942 -0.06857064
v -0.02737376 -0.04090113 0.0004959106
v -0.02740897 0.03898206 -0.003197864
v -0.02732784 0.04288376 0.006941214
v 0.01734093 0.04361156 0.01228377
v -0.02730416 0.04388235 0.01379752
v 0.01441562 0.03130684 -0.06402873
v 0.01340801 0.02991232 -0.06687795
v 0.009855136 0.03070536 -0.06677204
v -0.02742331 3.884733e-05 -0.02708136
v -0.002107516 -0.01832126 -0.06786343
v 0.01740631 0.03674691 0.04101117
v 0.009418592 0.002368078 0.0707161
v -0.02734283 0.009254918 0.06008145
v -0.02735023 0.02280013 0.05461869
v -0.02740969 -0.01198393 0.05932678
v 0.02738844 0.003185004 0.04759984
v 0.0273867 -0.007479943 0.04668309
v 0.01815476 0.01430625 0.0578489
v 0.01775335 -0.01331395 0.05852988
v 0.002758637 -0.02253862 -0.06947541
v 0.0005650818 -0.0295291 -0.0678295
v 0.0002499074 -0.01861577 -0.06930295
v -0.001109496 -0.004513994 -0.06947328
v 0.01118754 0.02034058 -0.06935038
v 0.01427779 0.02876136 -0.06684807
v -0.001051635 0.02994324 -0.06686936
v 0.002213955 0.02929994 -0.06835328
v -0.001010284 0.02077692 -0.06846261
v -0.002771139 0.01423182 -0.06745785
v -0.002971679 -0.005654134 -0.0675717
v 0.01561475 0.02973417 -0.06494065
v 0.01729366 0.04386129 0.0182284
v -0.02731657 0.03659885 0.04159223
v 0.01723528 0.03272708 0.04636328
v -0.02734007 0.02996634 0.04930761
v 0.01719399 -0.03645121 0.04160425
v -0.001267716 -0.03090481 -0.06524676
v -0.0003158748 0.00930839 -0.06973298
v 0.002174646 -0.004262589 -0.07083917
v 0.002999142 0.01024353 -0.07071421
v 0.01211478 -0.00763543 -0.0701606
v 0.008934349 0.004946075 -0.07091144
v 0.009958357 0.02951931 -0.06814742
v -2.6986e-05 0.0314718 -0.06443216
v -0.02730565 0.04382524 0.02193651
v 0.01714446 0.04313912 0.02558744
v -0.02731904 0.04135526 0.03227337
v 0.01740837 0.02593753 0.05237712
v 0.006353483 0.02913789 -0.06865753
v 0.01748969 0.0408655 0.03282996
v 0.003153786 0.03060899 -0.06710544
v -0.001657248 -0.02913512 -0.06675579
f 1 2 3
f 4 5 6
f 7 8 1
f 9 10 11
f 9 11 12
f 11 13 12
f 14 13 11
f 15 16 17
f 18 19 20
f 1 8 21
f 21 8 22
f 23 24 11
f 24 25 26
f 23 11 10
f 27 23 28
f 3 29 30
f 31 32 33
f 6 34 35
f 6 36 37
f 36 6 38
f 5 38 6
f 39 4 6
f 40 4 41
f 41 42 43
f 40 5 4
f 38 5 44
f 45 43 25
f 43 46 25
f 42 46 43
f 47 48 49
f 9 12 50
f 1 3 30
f 2 23 3
f 25 46 26
f 2 24 23
f 51 15 17
f 32 31 52
f 32 52 53
f 54 53 55
f 56 57 58
f 17 16 59
f 59 60 17
f 22 61 21
f 37 62 6
f 63 34 64
f 39 6 65
f 21 66 67
f 66 68 37
f 66 21 68
f 38 69 36
f 9 47 28
f 30 7 1
f 70 71 72
f 73 72 60
f 19 74 75
f 75 20 19
f 28 23 10
f 23 29 3
f 76 77 78
f 33 32 59
f 32 79 59
f 80 60 59
f 81 57 56
f 20 75 81
f 20 81 30
f 30 81 56
f 54 30 56
f 55 82 54
f 61 83 84
f 61 84 21
f 62 34 6
f 85 84 83
f 34 63 35
f 85 64 34
f 35 65 6
f 44 69 38
f 67 69 44
f 68 62 37
f 41 43 86
f 41 86 40
f 40 44 5
f 47 50 48
f 49 18 27
f 50 71 70
f 23 27 29
f 51 87 13
f 71 12 87
f 50 12 71
f 17 87 51
f 88 89 73
f 88 90 89
f 19 91 92
f 11 24 26
f 49 27 47
f 57 93 58
f 54 94 53
f 56 94 54
f 56 58 94
f 30 54 7
f 95 82 55
f 95 96 82
f 97 96 95
f 98 62 68
f 66 37 67
f 69 37 36
f 37 69 67
f 45 40 86
f 24 45 25
f 44 45 67
f 2 45 24
f 67 45 21
f 45 44 40
f 14 46 42
f 26 46 14
f 9 50 47
f 9 28 10
f 29 18 20
f 87 12 13
f 89 72 73
f 72 89 70
f 91 49 48
f 20 30 29
f 80 79 73
f 73 79 88
f 88 79 78
f 88 78 90
f 77 90 78
f 19 92 74
f 99 74 92
f 99 92 90
f 90 77 99
f 61 22 100
f 27 28 47
f 53 94 32
f 94 76 32
f 76 101 77
f 101 94 58
f 59 79 80
f 96 97 100
f 98 34 62
f 98 68 21
f 84 98 21
f 49 91 18
f 19 18 91
f 27 18 29
f 90 92 89
f 70 48 50
f 48 92 91
f 89 48 70
f 32 76 78
f 74 99 93
f 82 96 8
f 100 22 96
f 8 96 22
f 101 58 93
f 79 32 78
f 87 17 71
f 17 102 71
f 60 102 17
f 81 75 57
f 74 57 75
f 93 57 74
f 54 8 7
f 43 45 86
f 93 99 101
f 101 99 77
f 76 94 101
f 60 80 73
f 82 8 54
f 100 97 61
f 83 61 97
f 89 92 48
f 11 26 14
f 60 72 102
f 71 102 72
f 98 84 85
f 34 98 85
f 31 33 65
f 13 14 65
f 59 16 65
f 15 65 16
f 42 41 65
f 63 64 65
f 55 53 65
f 95 55 65
f 85 65 64
f 4 65 41
f 14 42 65
f 31 65 52
f 59 65 33
f 83 65 85
f 39 65 4
f 51 65 15
f 52 65 53
f 97 95 65
f 63 65 35
f 51 13 65
f 83 97 65
f 1 45 2
f 21 45 1
