v -0.01237369 0.03265809 -0.05469792
v -0.005086839 0.03029871 -0.05689774
v -0.01494259 0.03033484 -0.05409469
v -0.01360732 0.03272216 -0.05173393
v -0.01387227 0.0340175 -0.03241539
v -0.01493394 0.03220598 -0.02996269
v 0.002568424 0.03280447 -0.02660666
v -0.0106324 0.03258803 -0.02774931
v 0.002422392 0.03258628 -0.05386971
v 0.004080713 0.03034671 -0.05192427
v -0.0007285476 0.03030358 -0.05635761
v -0.0005675554 0.03254977 -0.05573678
v 0.00120163 0.03502979 -0.02709681
v -0.01387227 0.03401786 -0.03241557
v -0.00639534 0.03498246 -0.02736422
v -0.01382565 0.03414112 -0.03160353
v 0.007992923 0.03365315 -0.03661573
v 0.0080145 0.03216133 -0.03024304
v 0.009828568 0.03128609 -0.03681974
v 0.005428314 0.03480456 -0.0282474
v 0.007583261 0.03343852 -0.03842482
v -0.01363933 0.03417902 -0.03243616
v -0.0132944 0.0341989 -0.03249159
v -0.01370025 0.03416674 -0.03243062
v 0.001376569 0.03200622 -0.03562354
v 0.007468998 0.03347541 -0.03839202
v -0.008542776 0.03217243 -0.03637913
v -0.01387227 0.0340175 -0.03241539
v -0.01387227 0.0340175 -0.03241539
f 1 2 3
f 1 3 4
f 4 3 5
f 5 3 6
f 6 7 8
f 9 10 11
f 12 11 2
f 2 1 12
f 8 7 13
f 5 14 4
f 15 8 13
f 6 8 16
f 16 5 6
f 17 18 19
f 13 7 20
f 17 19 21
f 20 7 18
f 17 20 18
f 11 12 9
f 22 4 14
f 4 22 1
f 11 3 2
f 23 16 15
f 24 16 23
f 20 15 13
f 25 23 20
f 6 19 18
f 15 20 23
f 20 26 25
f 17 26 20
f 9 26 21
f 27 1 22
f 27 22 23
f 25 27 23
f 25 26 9
f 6 18 7
f 10 3 11
f 12 25 9
f 19 3 10
f 1 25 12
f 27 25 1
f 8 15 16
f 16 24 14
f 16 14 28
f 28 14 29
f 28 29 5
f 24 22 14
f 21 10 9
f 19 10 21
