v 0.001676589 0.01758674 0.03277534
v 0.001643419 0.02087465 0.01518553
v -0.0041278 0.01118064 -0.01003903
v 0.005121619 -0.002129763 -0.03899735
v 0.003622979 -0.002736628 -0.04241627
v -0.001302779 -0.0004681051 -0.04114407
v 0.003522605 -0.02086827 0.03674185
v 0.005100518 -0.01781806 0.04140061
v -0.002320021 0.006734639 0.03611577
v -0.001448542 -0.01708344 0.04241627
v 0.004330158 -0.003659278 -0.04132533
v 0.0003083944 -0.01942506 0.0006139874
v -0.002956599 0.005000144 -0.02690041
v -0.001212031 -0.02087465 0.009078324
v 0.00449127 -0.0194526 0.04195702
v -0.001854628 -0.0208281 0.03097767
v -0.004721135 0.009192586 -0.00746423
v -0.005113184 0.006756753 -2.264977e-06
v -0.00475052 -0.014074 -0.01560885
v 0.0008512437 -0.01478645 -0.01707733
v -0.0005493164 -0.007082909 -0.03563523
v -0.003377676 -0.01522264 -0.01747972
v 0.002470434 0.01736888 0.03041118
v 0.004400462 0.001233965 0.03635991
v 0.004991502 -0.01026174 0.03936917
v -0.002850235 -0.003389835 -0.03332043
v -0.003828853 0.006510228 -0.02039719
v -0.00234279 -0.00385192 -0.03714329
v -0.004287869 -0.02019462 0.009086847
v -0.001513481 -0.01862195 -0.004365146
v -0.004272074 -0.01971546 0.01955825
v -0.005011559 -0.01892969 0.00598675
v -0.000176698 -0.02033576 0.03728408
v -0.004818201 0.004575819 0.01500046
v -0.004296571 0.004593164 0.02164203
v -0.005121619 0.002927065 0.006827891
v -0.00345102 0.005082697 0.03002983
v -0.000382781 -0.003024668 -0.0415923
v -0.004342318 -0.0119909 -0.02106714
v -0.005121469 -0.01685408 -0.006107867
v -0.002255827 -0.01826268 0.03807157
v -0.004348963 -0.01750615 0.01993483
v -0.00299716 -0.01664814 0.03295469
f 1 2 3
f 2 4 5
f 6 2 5
f 7 4 8
f 9 10 1
f 4 11 5
f 11 7 12
f 7 11 4
f 2 13 3
f 6 13 2
f 7 14 12
f 15 7 8
f 1 15 8
f 10 15 1
f 16 14 7
f 17 1 3
f 17 18 1
f 17 19 18
f 20 11 12
f 21 20 22
f 20 21 11
f 23 4 2
f 23 24 4
f 23 2 1
f 24 23 1
f 4 25 8
f 24 25 4
f 25 1 8
f 25 24 1
f 26 27 28
f 27 6 28
f 27 13 6
f 13 27 3
f 27 17 3
f 16 29 14
f 14 30 12
f 30 20 12
f 20 30 22
f 29 30 14
f 29 31 32
f 31 29 16
f 33 16 7
f 33 15 10
f 15 33 7
f 18 34 1
f 34 35 1
f 34 18 36
f 34 36 32
f 37 9 1
f 35 37 1
f 9 37 10
f 6 38 28
f 38 21 28
f 38 6 5
f 11 38 5
f 21 38 11
f 17 39 19
f 27 39 17
f 39 27 26
f 39 26 28
f 19 39 22
f 21 39 28
f 39 21 22
f 40 29 32
f 40 19 22
f 30 40 22
f 40 30 29
f 19 40 18
f 36 40 32
f 18 40 36
f 41 33 10
f 33 41 16
f 41 31 16
f 37 41 10
f 42 37 35
f 34 42 35
f 31 42 32
f 42 34 32
f 43 41 37
f 42 43 37
f 41 43 31
f 43 42 31
