v -0.002071887 0.003313996 -0.002777874
v -0.002072036 -0.003313996 -0.005562246
v -0.002071947 -0.003289841 0.005562246
v -0.00083673 0.002781078 0.002085149
v 0.002072036 -0.0001655072 -0.0009683967
v -0.0002306104 -0.002766147 0.004766047
v -0.001478881 -0.003242835 -0.004003584
v 0.001097411 -0.001297213 -0.000919044
v 0.001036555 -0.001594141 0.003422916
v -0.0003771782 -0.00235837 -0.003229976
f 1 2 3
f 4 1 3
f 1 5 2
f 1 4 5
f 6 4 3
f 2 7 3
f 7 6 3
f 7 8 6
f 9 8 5
f 8 9 6
f 4 9 5
f 6 9 4
f 8 10 5
f 10 8 7
f 5 10 2
f 10 7 2
