v -0.005584314 0.02307049 0.08262134
v 0.01531482 -0.03362932 0.02959871
v 0.02072167 0.02953805 0.02436888
v 0.02080867 -0.02206965 0.01665801
v 0.01902077 -0.02398252 -0.07379729
v 0.007661924 0.03362932 0.02049816
v 0.0001462922 -0.0327101 -0.08088964
v 0.01725321 0.01655887 -0.07519424
v -0.004044361 0.02733039 -0.0826211
v -0.01943146 -0.003460279 0.06111526
v -0.01604629 -0.02264445 0.04028982
v 0.009685881 -0.03251928 -0.0687418
v -0.005577117 -0.0299408 0.01323885
v 0.02082279 0.01108521 0.01580161
v 0.00529103 0.02914898 -0.07356769
v -0.01679097 0.02406058 0.05254155
v -0.01557728 0.0172413 -0.08054578
v -0.01991443 0.0166555 0.006951988
v 0.0192246 0.0001945291 -0.06888193
v -0.007586211 -0.02945358 -0.08224529
v -0.01300848 -0.02329711 -0.08065778
v -0.0176523 0.005501172 -0.0782721
v -0.01660571 -0.01223474 -0.07789093
v -0.02082286 -0.003527967 0.002723753
v 0.01314123 0.02448039 -0.07440263
v -0.02079872 0.009989874 0.04813141
v -0.01016583 0.02792465 0.005462885
v -0.01771737 -0.01902974 0.01574802
v -0.01801738 0.01822042 0.05988014
v -0.01199079 0.02263109 -0.074714
f 1 2 3
f 2 4 3
f 5 4 2
f 6 1 3
f 7 8 5
f 8 7 9
f 10 2 1
f 10 11 2
f 12 5 2
f 7 12 2
f 12 7 5
f 11 13 2
f 13 7 2
f 4 14 3
f 15 6 3
f 6 15 9
f 6 16 1
f 16 17 18
f 19 8 3
f 8 19 5
f 14 19 3
f 19 4 5
f 19 14 4
f 13 20 7
f 7 20 9
f 21 20 11
f 20 13 11
f 20 17 9
f 17 20 21
f 22 21 23
f 22 17 21
f 24 22 23
f 17 22 18
f 22 24 18
f 25 8 9
f 15 25 9
f 8 25 3
f 25 15 3
f 26 16 18
f 24 26 18
f 26 24 10
f 27 6 9
f 27 16 6
f 10 28 11
f 24 28 10
f 28 24 23
f 21 28 23
f 28 21 11
f 29 26 10
f 26 29 16
f 29 10 1
f 16 29 1
f 16 30 17
f 27 30 16
f 17 30 9
f 30 27 9
