v 0.002581924 0.00469923 -0.02848595
v 0.004747689 0.01149964 -0.03041303
v 0.00418359 -0.02084965 0.03321767
v 0.0006369054 -0.01352894 0.004598916
v -0.002011478 -0.01663232 0.03417319
v -0.001570076 -0.01997405 0.03245878
v 0.0009312034 0.02085274 0.02317929
v -0.001742721 0.01347905 -0.03202903
v 0.0008162558 -0.02085268 0.02546823
v 0.0006869733 0.01037031 -0.03417319
v -0.003165901 0.006960154 -0.02652985
v -0.000500232 -0.009523749 -0.005203307
v -0.002272397 -0.0162648 0.009800732
v -0.003382742 -0.006337166 -0.01137954
v 0.004769921 -0.01913577 0.03296152
v 0.004094362 -0.004383564 0.03194839
v 0.003455788 0.005371153 0.03038013
v 0.002080202 0.01761538 0.03064597
v 0.002667397 0.01078546 -0.03304046
v -0.002164274 0.003834784 -0.02556276
v -0.004090369 0.01891315 -0.001011431
v 0.00176999 0.02048725 0.02297801
v -0.003019422 -0.01626486 0.02777642
v -0.003440589 0.005698681 0.02990249
v -0.003919214 -0.01648837 0.01766929
v -0.002915502 0.00302422 0.03282464
v 0.00127086 0.01809573 0.03104609
v -0.004383296 0.01805264 -0.0008841157
v -0.003881156 0.01634598 -0.01116675
v -0.004769951 -0.008588195 -0.003406882
v -0.004696101 0.01057446 0.007268429
v -0.001934946 -0.01763749 0.01452601
v -0.004092306 -0.01270282 0.003331125
v 0.002189189 0.01840162 0.02962422
v 0.001333505 0.003368735 -0.02718508
v -0.004248559 -0.0009222627 -0.01631021
v -0.004490018 -0.01158762 0.009896874
v -0.003963262 0.007002115 0.02428406
v 0.001375556 0.0188731 0.02999252
f 1 2 3
f 4 1 3
f 5 6 3
f 7 2 8
f 9 4 3
f 6 9 3
f 10 11 8
f 4 12 1
f 9 13 4
f 13 12 4
f 12 13 14
f 2 15 3
f 16 15 2
f 16 17 18
f 17 16 2
f 19 2 1
f 10 19 1
f 2 19 8
f 19 10 8
f 20 11 10
f 21 7 8
f 7 22 2
f 23 24 25
f 6 23 25
f 23 6 5
f 26 23 5
f 23 26 24
f 26 27 24
f 27 16 18
f 27 21 28
f 15 27 3
f 27 15 16
f 27 5 3
f 27 26 5
f 11 29 8
f 29 21 8
f 21 29 28
f 30 31 28
f 13 32 25
f 32 13 9
f 32 6 25
f 32 9 6
f 33 30 14
f 13 33 14
f 30 33 25
f 33 13 25
f 17 34 18
f 34 17 2
f 22 34 2
f 34 27 18
f 35 10 1
f 35 20 10
f 20 35 14
f 12 35 1
f 35 12 14
f 36 29 11
f 30 36 14
f 36 30 28
f 29 36 28
f 36 20 14
f 20 36 11
f 37 30 25
f 37 31 30
f 31 38 28
f 38 27 28
f 27 38 24
f 37 38 31
f 24 38 25
f 38 37 25
f 34 39 27
f 21 39 7
f 27 39 21
f 39 22 7
f 39 34 22
