v -0.002615929 -0.01838565 -0.01197433
v -0.003203958 0.01712227 -0.01917022
v -0.002176225 0.02072191 -0.0213576
v -0.003893554 -0.02016395 0.01910329
v -0.00361383 -0.01874024 -0.004664183
v 0.002710432 -0.02072185 0.01836485
v 0.003446341 0.01192939 -0.004508078
v 0.003085226 -0.01868612 -0.0004232526
v -0.003293514 0.01691782 0.01455241
v 0.003148824 0.01624805 0.01585817
v -0.003944516 0.01748472 -0.008921742
v 0.003944516 0.0003794432 0.01795411
v 0.003001541 -0.01959848 -0.0004786849
v -0.002859414 -0.01988333 0.02109361
v -0.001532942 0.002291322 0.02004027
v -0.000798285 -0.009024441 0.0213576
v 0.003287435 -0.008911788 0.02027816
v -3.650784e-05 0.01540428 0.01713896
v 0.002925813 0.0176456 -0.006708562
v -0.003553361 0.01619679 0.01160973
v -0.003859758 0.01668549 -0.01101166
v 0.003925651 0.007829189 0.01670307
v 0.003625661 -0.01070553 0.01897544
v -0.001769632 -0.01844102 -0.01232064
v 0.0003089309 0.001274467 0.02025592
v 0.003472477 0.01646775 0.01178372
v 0.003412783 0.0115236 0.01727164
f 1 2 3
f 4 5 6
f 5 1 6
f 5 2 1
f 7 8 3
f 9 10 3
f 11 5 4
f 11 9 3
f 2 11 3
f 12 8 7
f 1 13 6
f 13 8 6
f 8 13 3
f 14 9 4
f 14 15 9
f 14 16 15
f 14 4 6
f 17 14 6
f 16 14 17
f 15 18 9
f 18 10 9
f 19 7 3
f 9 20 4
f 20 11 4
f 11 20 9
f 5 21 2
f 21 11 2
f 11 21 5
f 22 12 7
f 8 23 6
f 12 23 8
f 23 17 6
f 23 12 17
f 24 1 3
f 13 24 3
f 24 13 1
f 25 16 17
f 16 25 15
f 25 18 15
f 19 26 7
f 26 22 7
f 22 26 10
f 10 26 3
f 26 19 3
f 27 22 10
f 27 25 17
f 12 27 17
f 22 27 12
f 18 27 10
f 25 27 18
