v -0.002261981 -0.01919347 0.02786088
v -0.003910616 -0.008124173 0.03291368
v -0.005207226 0.003957689 -0.04071915
v -0.00522171 0.01150393 0.04225343
v -0.0003914386 0.01977646 0.02867329
v -0.002104208 0.01982898 0.02204406
v -0.004164413 0.01643801 0.04075044
v -0.002737805 0.007452667 -0.04258847
v -0.004450962 0.005537093 -0.04393327
v -0.0004094094 0.01673847 -0.01395398
v -1.303852e-05 0.004224658 -0.04459274
v -6.012619e-05 -0.02017272 -0.005069077
v -0.002118364 -0.0128563 -0.01383513
v -0.00520958 0.01410186 0.04353279
v 0.0004603118 0.01354557 0.04459274
v -0.00149776 -0.02017277 0.02853423
v 0.00260894 -0.009019077 0.03400958
v 0.0005554706 0.01586699 0.04053879
v 0.001214877 0.01929784 -0.0006665587
v 0.003929213 -0.01065606 -0.01967424
v 0.004709557 -0.008118212 -0.01303202
v 0.00522171 -0.005381882 0.003030121
v 0.005191281 0.01541001 -0.0097
v 0.002111182 0.01047802 -0.03371626
v 0.00159131 0.003499985 -0.04247963
v 0.001566425 0.008758008 0.04249924
v 0.002430156 0.01297772 0.03850937
v 0.003558233 0.0150317 0.03040498
v 0.003095016 0.01648021 0.03204978
v 0.00412707 0.01817852 0.02269787
v 0.003271237 0.02017283 0.01407355
v 0.002066389 0.01658571 -0.01924402
v 0.002889886 0.01301372 -0.02706844
v 0.00327082 -0.007953048 -0.02581227
v 0.004772499 0.008797407 -0.01722598
v 0.004402712 0.01224977 -0.02291858
v 0.00355871 -0.00719887 -0.02537453
v 0.005220369 0.01472306 0.008735478
v 0.003524616 0.009354651 -0.030792
v 0.004821345 0.01690042 -0.01009637
v 0.004947498 0.01460934 0.01486766
v 0.004955634 0.01884943 0.007567346
v 0.004213378 -0.006124973 0.02224427
f 1 2 3
f 2 4 3
f 5 6 7
f 8 9 10
f 6 9 3
f 9 6 10
f 9 8 11
f 9 11 12
f 3 9 12
f 13 3 12
f 1 13 12
f 13 1 3
f 4 14 3
f 6 14 7
f 14 6 3
f 14 15 7
f 14 16 15
f 16 14 4
f 17 16 12
f 16 1 12
f 1 16 2
f 16 4 2
f 15 18 7
f 18 5 7
f 6 19 10
f 20 21 12
f 22 21 23
f 21 22 12
f 24 25 11
f 8 24 11
f 26 27 15
f 27 26 17
f 16 26 15
f 26 16 17
f 28 27 17
f 29 28 30
f 28 29 27
f 29 30 5
f 18 29 5
f 27 29 15
f 29 18 15
f 30 31 5
f 31 6 5
f 31 19 6
f 19 32 10
f 32 8 10
f 32 24 8
f 24 32 33
f 25 34 11
f 11 34 12
f 34 20 12
f 21 35 23
f 35 36 23
f 36 35 21
f 20 37 21
f 37 36 21
f 34 37 20
f 37 34 25
f 38 22 23
f 36 39 33
f 39 24 33
f 24 39 25
f 39 37 25
f 37 39 36
f 40 32 19
f 32 40 33
f 36 40 23
f 40 36 33
f 28 41 30
f 38 41 22
f 41 42 30
f 42 41 38
f 42 31 30
f 42 38 23
f 40 42 23
f 31 42 19
f 42 40 19
f 41 43 22
f 43 17 12
f 22 43 12
f 43 28 17
f 43 41 28
