v -0.0555324 -0.05593999 0.07177902
v -0.05435494 0.002866775 0.08250612
v -0.055345 -0.002032775 -0.1237647
v -0.05346006 0.003232583 0.09061795
v -0.03255725 -0.0611717 -0.07077967
v -0.04840526 -0.06194177 0.09012012
v -0.04959092 -0.0003296174 0.1033727
v -0.02283505 -0.06632129 -0.0728618
v -0.04127932 -0.05419336 -0.0670047
v -0.04948515 -0.04346999 -0.06245282
v 0.05113736 -0.01726087 -0.1281625
v 0.04898763 -0.04303385 -0.06044243
v 0.04567203 -0.02768745 -0.1313676
v 0.04312184 -0.06555907 0.09473994
v 0.03676471 -0.006655529 0.1214901
v 0.03123462 -0.06869817 0.1059906
v 0.01738843 0.06897441 0.08305837
v 0.02458876 0.04848271 -0.1081029
v 0.01151219 0.05302301 -0.1067451
v 0.02752876 0.06496661 0.08289702
v -0.02869251 0.06339548 0.08239019
v -0.0209735 0.05044867 -0.1076126
v -0.03630707 0.04161479 -0.1103542
v -0.01550004 -0.009045858 0.1322552
v -0.02945328 -0.06799515 0.1084356
v -0.01443657 -0.07014444 0.114267
v -0.02809486 -0.006477356 0.1270072
v -0.005242527 -0.07091053 -0.07316939
v -0.01315415 -0.06952268 -0.07333761
v 0.0121733 -0.0695867 -0.07359307
v -0.03990769 -0.06527586 0.1003679
v 0.04568851 0.05101691 0.08327375
v 0.04793748 0.04762087 0.09075686
v 0.04901767 0.02521556 -0.1151648
v 0.05405009 -0.05784222 0.06902578
v 0.05264309 -0.0345109 -0.05407513
v 0.05494729 0.005128365 -0.1213099
v 0.05400869 -0.007562481 -0.1251868
v 0.03438893 -0.05926592 -0.06971406
v 0.05036688 -0.06198561 0.08252999
v 0.001698166 -0.07101009 -0.07336967
v 0.01703405 -0.07046542 0.1128649
v 0.02201509 -0.008951217 0.1304334
v 0.00836125 -0.009753443 0.1339184
v 0.001579106 -0.0710321 0.1158918
v 0.05184689 -0.002423819 0.1005717
v -0.05418581 -0.03225196 -0.05427346
v 0.00147289 0.07029069 0.09364571
v 0.005683959 0.07103211 0.0841422
v -0.004075199 0.07101063 0.08253314
v -0.004642397 0.05411065 -0.1064517
v -0.03602049 0.05849925 0.08229078
v -0.04455236 0.04939025 0.09175403
v -0.04744437 0.02884865 -0.1142891
v -0.05341259 0.01572631 -0.1183212
v -0.04284903 0.05226846 0.08350638
v 0.01224381 0.0678587 0.09952611
v 0.009062201 0.06522948 0.1079694
v 0.01715735 0.06203719 0.110836
v 0.03855738 0.05790661 0.08179566
v -0.04395139 -0.002541263 0.1127202
v -0.05066162 0.02339111 0.0886233
v -0.04842025 0.0162899 0.1029117
v -0.02968183 -0.04302599 -0.1362472
v -0.04681796 -0.0267003 -0.131292
v -0.03855702 -0.0364399 -0.1342532
v 0.05287927 0.02100018 0.08875257
v 0.05553254 0.0004828274 0.08501033
v 0.0380469 0.03952496 -0.110812
v 0.02610809 -0.06453642 -0.07180283
v 0.04582444 -0.004854631 0.111398
v 0.04065606 0.01353567 0.1189991
v 0.009613007 0.0104906 0.1363512
v 0.02086687 0.01173317 0.1331669
v 0.01461518 0.03365108 0.1370768
v 0.0262934 0.01202175 0.1305471
v 0.03238404 0.01230009 0.1265551
v -0.002787113 -0.009708352 0.1344312
v -0.0524936 -0.01557633 -0.1279008
v -0.01691827 0.06858874 0.08281858
v 0.01630673 0.06876337 0.09095193
v -0.02777395 0.06352811 0.0902003
v -0.02195752 0.06547162 0.09559643
v -0.001757175 0.06843745 0.1013695
v 0.02301303 0.06465252 0.09924579
v 0.01143053 -0.05002145 -0.1382879
v -0.001533657 -0.05116963 -0.1386714
v -0.03582928 -0.003864203 0.1216306
v 0.0417861 -0.05282727 -0.0656843
v -0.006871879 0.06314728 0.1124603
v -0.0004286468 0.06546444 0.1088825
v -0.009659082 0.06957812 0.09246585
v -0.01171184 0.05793829 0.1189786
v -0.01546755 0.06509044 0.1042145
v -0.02398548 0.0597971 0.108274
v -0.04422429 0.04671855 0.1011222
v -0.03739974 0.05689741 0.09100685
v -0.03444648 0.05668171 0.100577
v 0.02760452 0.05964176 0.1065209
v 0.02564147 0.05297703 0.1186735
v 0.03420073 0.05177392 0.1123475
v 0.006463647 0.06090193 0.1164306
v 0.0164687 0.05737907 0.1183303
v -0.04723617 0.03205591 0.1001962
v 0.04791662 0.04366813 0.1006792
v 0.04453853 0.04859193 0.1005068
v 0.02532163 -0.04526882 -0.1367998
v -0.0175401 -0.04868706 -0.1379506
v 0.05233756 0.01112677 0.0972973
v 0.04759356 0.01549652 0.108846
v 0.03910804 0.03840465 0.1205409
v 0.04419264 0.04133043 0.1117531
v 0.02841255 0.04200365 0.1267815
v 0.03278008 0.03656188 0.1271271
v -0.0008570552 0.01264455 0.1372977
v 0.04571891 0.04160485 0.1088801
v 0.001744211 0.05715894 0.12198
v -0.0311873 0.05395544 0.1106714
v 0.03229421 0.05930815 0.1004749
v 0.03810135 0.05339232 0.1039679
v 0.03336349 0.06133876 0.0893681
v 0.03688625 -0.03739531 -0.1343611
v -0.04254457 0.02649846 0.1129466
v -0.03885105 0.01642447 0.118877
v 0.01949406 0.03505566 0.1352203
v 0.007510364 0.03806791 0.1365846
v 0.01132694 0.04372497 0.1326412
v 0.01900747 0.04680506 0.1280994
v 0.02606621 0.03533433 0.1320703
v 0.04053134 0.04627172 0.1115317
v 0.03385445 0.04477651 0.1205647
v -0.01506805 0.05093744 0.1254961
v -0.001203805 0.04993532 0.1292257
v 0.004363298 0.03377168 0.1386714
v -0.01035494 0.01219457 0.135946
v -0.04078609 0.04310355 0.1125904
v -0.03492722 0.03997725 0.1218405
v -0.03234586 0.04743367 0.1178263
v 0.03936327 0.05601339 0.09384794
v -0.001181424 0.04172625 0.1350037
v 0.01374173 0.05167731 0.1257471
v -0.01027846 0.04160493 0.133853
v -0.01870543 0.04129007 0.1313964
v -0.007140249 0.03412518 0.1380785
v -0.02589199 0.04912671 0.1213049
v -0.02226421 0.05532322 0.1167554
v -0.037608 0.04807604 0.1108672
v -0.01883999 0.01571003 0.1335306
v -0.0244267 0.03621192 0.1313758
v -0.01804939 0.03540593 0.1347044
v -0.02310419 0.04543459 0.1265393
v -0.03009728 0.03788163 0.1269929
f 1 2 3
f 1 4 2
f 5 6 1
f 6 7 1
f 5 8 6
f 9 1 10
f 11 12 13
f 14 15 16
f 17 18 19
f 20 18 17
f 21 22 23
f 24 25 26
f 25 24 27
f 28 25 29
f 28 26 25
f 16 30 14
f 8 31 6
f 29 31 8
f 29 25 31
f 7 4 1
f 5 1 9
f 32 33 34
f 35 12 36
f 37 35 38
f 39 35 40
f 16 41 30
f 42 41 16
f 16 43 42
f 44 42 43
f 44 45 42
f 46 40 35
f 3 47 1
f 48 49 50
f 49 51 50
f 49 19 51
f 52 21 23
f 53 54 55
f 53 56 54
f 52 23 56
f 57 58 59
f 18 20 60
f 28 45 26
f 7 6 61
f 2 4 62
f 4 7 63
f 8 5 64
f 9 65 66
f 10 65 9
f 66 5 9
f 33 67 37
f 67 68 37
f 36 11 38
f 32 69 60
f 36 12 11
f 38 35 36
f 68 35 37
f 70 39 40
f 15 71 72
f 41 42 45
f 41 45 28
f 73 43 74
f 73 74 75
f 76 43 15
f 15 77 76
f 43 16 15
f 78 26 45
f 78 24 26
f 79 47 3
f 1 47 10
f 80 51 22
f 80 50 51
f 81 49 48
f 82 83 80
f 21 80 22
f 56 23 54
f 55 3 2
f 2 62 55
f 84 57 48
f 57 81 48
f 33 37 34
f 85 57 59
f 69 18 60
f 86 41 87
f 53 55 62
f 31 61 6
f 61 31 88
f 31 25 88
f 32 34 69
f 35 39 89
f 14 71 15
f 44 78 45
f 79 10 47
f 90 91 84
f 49 17 19
f 92 48 50
f 49 81 17
f 93 94 95
f 80 21 82
f 96 97 53
f 96 98 97
f 99 100 101
f 81 57 85
f 102 103 59
f 90 94 93
f 85 59 99
f 41 28 87
f 62 96 53
f 62 104 96
f 5 66 64
f 65 10 79
f 105 33 106
f 67 33 105
f 30 70 14
f 70 40 14
f 79 107 86
f 66 65 79
f 79 19 18
f 23 22 79
f 79 108 64
f 79 55 54
f 79 22 51
f 79 51 19
f 79 54 23
f 79 86 87
f 79 64 66
f 87 108 79
f 79 3 55
f 109 110 46
f 71 40 46
f 40 71 14
f 110 72 71
f 111 110 112
f 110 71 46
f 107 70 30
f 76 74 43
f 111 113 114
f 43 73 44
f 115 44 73
f 116 109 105
f 68 109 46
f 68 46 35
f 102 91 117
f 48 92 84
f 94 90 84
f 94 83 95
f 95 98 118
f 80 83 92
f 97 52 56
f 84 58 57
f 84 91 58
f 119 99 101
f 120 119 101
f 58 102 59
f 117 90 93
f 91 90 117
f 117 103 102
f 85 121 81
f 28 108 87
f 108 28 29
f 41 86 30
f 89 12 35
f 39 122 89
f 7 123 63
f 88 124 61
f 4 63 104
f 104 62 4
f 64 108 8
f 108 29 8
f 116 105 106
f 105 109 67
f 38 122 107
f 79 38 107
f 38 13 122
f 38 11 13
f 38 34 37
f 38 69 34
f 18 69 38
f 38 79 18
f 122 39 107
f 110 109 116
f 75 74 125
f 126 75 125
f 127 126 125
f 113 128 125
f 113 125 129
f 111 112 130
f 131 111 130
f 100 128 113
f 113 131 100
f 113 111 131
f 111 72 110
f 44 115 78
f 68 67 109
f 125 128 127
f 132 133 93
f 126 134 75
f 135 78 115
f 135 24 78
f 134 115 73
f 136 137 138
f 95 83 98
f 92 50 80
f 21 52 97
f 97 82 21
f 101 131 130
f 103 100 59
f 106 33 139
f 120 101 130
f 58 91 102
f 126 127 140
f 140 127 133
f 141 117 133
f 117 141 103
f 121 60 20
f 89 122 13
f 89 13 12
f 27 88 25
f 121 139 60
f 39 70 107
f 77 129 76
f 74 76 129
f 74 129 125
f 114 129 77
f 77 15 72
f 127 128 141
f 94 92 83
f 94 84 92
f 142 132 143
f 142 133 132
f 144 140 142
f 135 115 144
f 145 146 118
f 118 138 145
f 95 118 146
f 93 95 146
f 136 138 147
f 53 97 56
f 97 98 82
f 82 98 83
f 112 110 116
f 106 139 120
f 99 59 100
f 100 141 128
f 141 133 127
f 20 81 121
f 20 17 81
f 148 149 27
f 124 123 61
f 7 61 123
f 60 139 32
f 139 33 32
f 107 30 86
f 129 114 113
f 72 114 77
f 72 111 114
f 140 134 126
f 134 73 75
f 150 144 142
f 150 142 143
f 150 149 148
f 136 123 137
f 151 143 132
f 124 137 123
f 151 138 137
f 106 112 116
f 141 100 103
f 120 139 119
f 121 119 139
f 119 121 85
f 99 119 85
f 117 93 133
f 63 136 104
f 123 136 63
f 134 140 144
f 115 134 144
f 136 96 104
f 145 138 151
f 132 93 146
f 152 137 124
f 96 136 147
f 147 138 118
f 106 130 112
f 130 106 120
f 101 100 131
f 142 140 133
f 88 149 152
f 88 27 149
f 24 148 27
f 152 151 137
f 150 143 149
f 148 24 135
f 144 150 148
f 132 145 151
f 132 146 145
f 152 124 88
f 98 96 147
f 98 147 118
f 143 151 149
f 151 152 149
f 148 135 144
