v 0.002768978 0.004613191 -0.01481432
v 0.002768949 0.008271337 0.01481432
v 0.002768949 -0.007307574 -0.01481432
v -0.002729639 -0.004565746 -0.01480883
v 0.001806214 0.008136541 0.01272225
v -0.002768978 0.002626956 0.01452762
v -1.594424e-05 -0.002863884 0.01450717
v 0.002732664 -0.003776923 0.0145061
v -0.002731606 -0.001818776 -0.01479673
v -0.002760902 -0.001932293 0.01084262
v -0.002766773 0.002635896 0.01269233
v 0.001842111 0.004594177 -0.01476276
v -0.001824945 -0.005529508 -0.00382185
v -0.00181286 -0.00548467 -0.01389647
v 0.00183259 -0.007390767 0.003495753
v 0.002757341 -0.008271307 -0.004746616
v 0.001850367 -0.008240029 -0.01207423
f 1 2 3
f 4 1 3
f 2 5 6
f 1 5 2
f 7 2 6
f 7 8 2
f 9 4 6
f 4 9 1
f 4 10 6
f 10 7 6
f 5 11 6
f 11 9 6
f 12 5 1
f 9 12 1
f 12 11 5
f 11 12 9
f 13 10 4
f 14 13 4
f 10 15 7
f 13 15 10
f 7 15 8
f 15 16 8
f 2 16 3
f 8 16 2
f 16 17 3
f 17 4 3
f 17 14 4
f 14 17 13
f 17 15 13
f 17 16 15
