v -0.002763808 -0.009869561 -0.01288217
v 0.002763525 -0.0005643666 -0.01282299
v -0.00180836 -0.009726301 -0.01269567
v -0.002735272 0.003090233 -0.01288182
v -0.002763823 -0.002040237 0.01288223
v -0.002763823 0.009869561 0.01266497
v -0.001808479 -0.009713396 -0.01177955
v -0.001837581 -0.002032518 0.01283765
v -0.00275676 0.009778842 0.006252289
v -0.001832649 0.007815465 -0.002871513
v 0.002737775 0.003449231 0.01184553
v 0.002735749 0.00709933 0.01087761
v -0.001820892 0.004020512 -0.01197648
v 0.00183703 0.004115224 -0.00556308
v -0.001842126 0.009778515 0.006253064
v 0.002735615 0.00437896 0.01274949
v 0.002763823 -0.003284141 -0.01095122
f 1 2 3
f 2 1 4
f 1 5 6
f 7 1 3
f 5 7 8
f 7 5 1
f 9 10 4
f 9 1 6
f 1 9 4
f 11 2 12
f 7 11 8
f 10 13 4
f 13 2 4
f 14 10 12
f 2 14 12
f 14 13 10
f 13 14 2
f 10 15 12
f 9 15 10
f 12 15 6
f 15 9 6
f 16 12 6
f 16 11 12
f 11 16 8
f 5 16 6
f 16 5 8
f 11 17 2
f 17 11 7
f 2 17 3
f 17 7 3
