v 0.003890276 0.01428276 0.04180476
v 0.001901627 0.01484305 -0.02705406
v 0.001494586 0.01824409 0.02590963
v -0.002595842 0.007926881 -0.03639388
v -0.001587927 0.00489229 -0.04164022
v -0.003997684 -0.01012403 -0.02047211
v -0.004403174 -0.005789518 0.02106519
v -9.584427e-05 -0.02018958 -0.007360846
v 0.0009999275 -0.02020717 0.02594975
v -0.004992187 0.01380569 -0.008600265
v -0.005092561 0.0172866 -8.025765e-05
v -0.004472911 0.01753932 -0.008750916
v -0.0009548664 0.01254785 0.04373685
v -0.002852678 -0.008966565 0.0318263
v 9.018183e-05 0.01938772 0.00244607
v -0.002567172 0.01364535 -0.0277009
v 0.001620591 0.009454668 -0.03982252
v 0.005250216 0.005123138 -0.03998686
v 0.002374709 -0.0111137 -0.01724179
v 0.0006397963 -0.01855755 -0.007041067
v -0.005250156 -0.005436122 -0.002313882
v -0.003731906 -0.01085395 -0.02096114
v -0.001271307 0.01555663 0.03905874
v -0.0008025765 0.01922137 -0.002225906
v -0.003956258 0.01237589 -0.02483578
v -0.003323972 0.01635045 -0.01837729
v 0.001719117 -0.01883024 0.02499279
v 0.003661335 -0.008119583 0.03067215
v 0.005236745 0.01160938 0.04163566
v -1.907349e-06 0.005712271 -0.04373685
v -0.005156815 -0.004795551 0.008845255
v -0.004303396 0.01682127 0.02000186
v -0.0006341934 0.02020717 0.02210248
v -0.002874136 0.01860994 0.02499297
v -0.004464865 0.01886064 0.008227244
v -0.002058268 0.01254672 0.03969331
v -0.004613459 -0.005582988 -0.01554073
v 0.005179942 0.009091318 0.04019976
v -0.004677355 0.01731497 0.01389022
v -0.003857136 0.01604766 0.0248512
v -0.004834473 0.002859294 -0.01278466
f 1 2 3
f 4 5 6
f 7 8 9
f 10 11 12
f 13 14 9
f 14 7 9
f 2 15 3
f 16 2 17
f 2 18 17
f 8 18 19
f 20 8 19
f 8 21 6
f 10 21 11
f 5 22 6
f 22 8 6
f 1 23 13
f 24 15 2
f 25 16 4
f 25 10 12
f 25 4 6
f 16 26 2
f 24 26 12
f 26 24 2
f 26 25 12
f 25 26 16
f 27 28 9
f 27 20 19
f 18 27 19
f 27 18 28
f 8 27 9
f 20 27 8
f 1 29 2
f 29 18 2
f 29 1 13
f 29 13 9
f 30 18 8
f 30 22 5
f 22 30 8
f 18 30 17
f 30 5 4
f 30 16 17
f 16 30 4
f 31 8 7
f 31 21 8
f 21 31 11
f 32 31 7
f 23 33 34
f 15 33 3
f 33 1 3
f 33 23 1
f 24 33 15
f 33 35 34
f 11 35 12
f 35 24 12
f 35 33 24
f 36 14 13
f 14 36 7
f 23 36 13
f 21 37 6
f 37 25 6
f 18 38 28
f 29 38 18
f 28 38 9
f 38 29 9
f 39 32 34
f 35 39 34
f 39 35 11
f 31 39 11
f 39 31 32
f 40 32 7
f 36 40 7
f 40 36 23
f 40 23 34
f 32 40 34
f 25 41 10
f 37 41 25
f 41 21 10
f 41 37 21
