v -0.03462994 0.0968771 -0.1459495
v -0.04828343 0.09698737 -0.1459486
v -0.0483081 0.09695804 0.1459597
v -0.03465486 0.0968473 0.145963
v -0.02112734 0.09480059 -0.1459485
v -0.02115214 0.09477174 0.145964
v -0.00818032 0.09079421 -0.1459476
v -0.008205354 0.090765 0.1459647
v 0.003947675 0.08494008 -0.145947
v 0.00392288 0.08491075 0.1459656
v 0.01500994 0.07735634 -0.1459467
v 0.01498526 0.07732749 0.145966
v 0.02478135 0.06819832 -0.1459466
v 0.02475667 0.06816912 0.1459661
v 0.03306228 0.057652 -0.1459465
v 0.03303766 0.05762303 0.1459662
v 0.03968507 0.04593277 -0.1459469
v 0.03966027 0.04590344 0.1459658
v 0.04451436 0.03327739 -0.1459475
v 0.04448938 0.03324854 0.1459657
v 0.04745191 0.01994562 -0.1459478
v 0.04742694 0.0199163 0.1459648
v 0.04843771 0.006207943 -0.1459486
v 0.04841268 0.006178856 0.145964
v 0.04745191 -0.007656455 -0.1459496
v 0.047427 -0.007685304 0.145963
v 0.04451478 -0.02136445 -0.1459508
v 0.04449004 -0.0213933 0.1459616
v 0.03968602 -0.03463757 -0.1459521
v 0.03966129 -0.03466678 0.1459605
v 0.03306377 -0.04720521 -0.1459538
v 0.03303862 -0.0472343 0.1459591
v 0.02478272 -0.05881214 -0.1459554
v 0.02475828 -0.05884147 0.1459578
v 0.01501191 -0.0692215 -0.1459569
v 0.01498717 -0.06925082 0.1459561
v 0.003949821 -0.07822132 -0.1459583
v 0.003925085 -0.07825041 0.1459544
v -0.008178532 -0.08562922 -0.1459598
v -0.00820297 -0.08565855 0.145953
v -0.02112532 -0.0912931 -0.1459613
v -0.02114981 -0.0913223 0.1459512
v -0.03462797 -0.09509897 -0.1459626
v -0.03465259 -0.09512806 0.1459502
v -0.0482811 -0.0969578 -0.145962
v -0.04830593 -0.09698749 0.1459467
v -0.04843768 0.04755449 0.1465987
v -0.04167503 0.04750335 0.1465992
v -0.03505081 0.04648423 0.1465994
v -0.02869862 0.04451895 0.1465999
v -0.02274841 0.0416472 0.1466003
v -0.01732129 0.0379262 0.1466005
v -0.01252741 0.03343308 0.1466007
v -0.008464634 0.0282588 0.1466006
v -0.005215228 0.02250898 0.1466005
v -0.002846122 0.01630104 0.1466002
v -0.001404941 0.009760022 0.1465998
v -0.0009209514 0.003019571 0.1465992
v -0.001404583 -0.003782511 0.1465988
v -0.002845764 -0.0105077 0.1465985
v -0.005214691 -0.01701927 0.1465977
v -0.008463979 -0.02318537 0.1465969
v -0.01252669 -0.02887964 0.1465963
v -0.01732033 -0.03398705 0.1465955
v -0.0227474 -0.0384022 0.1465948
v -0.02869761 -0.04203677 0.1465941
v -0.03504956 -0.04481542 0.1465931
v -0.04167408 -0.04668283 0.1465926
v -0.04843634 -0.04759991 0.146592
v -0.048437 -2.31266e-05 0.146595
v -0.04165044 0.0475322 -0.1465935
v -0.04841241 0.04758346 -0.1465941
v -0.03502584 0.04651392 -0.1465926
v -0.02867389 0.04454803 -0.1465926
v -0.02272362 0.04167604 -0.1465923
v -0.01729602 0.03795481 -0.146592
v -0.01250249 0.03346276 -0.1465919
v -0.0084396 0.02828801 -0.1465919
v -0.005190492 0.02253807 -0.1465921
v -0.002821326 0.01633 -0.1465922
v -0.001380265 0.009789109 -0.1465924
v -0.0008965135 0.003049135 -0.1465929
v -0.001379907 -0.003752947 -0.1465934
v -0.002820849 -0.01047838 -0.1465943
v -0.005190074 -0.01699018 -0.1465949
v -0.008438945 -0.02315617 -0.1465953
v -0.01250136 -0.02885067 -0.1465961
v -0.01729566 -0.03395748 -0.146597
v -0.02272284 -0.03837287 -0.1465979
v -0.02867281 -0.04200757 -0.1465984
v -0.03502476 -0.04478669 -0.1465991
v -0.04164919 -0.04665363 -0.1466
v -0.04841149 -0.04757118 -0.1466005
v -0.04841241 6.67572e-06 -0.1465972
v -0.0484378 0.09513211 0.144528
v -0.04841322 0.0951612 -0.1445172
v -0.0348888 0.09505785 -0.1445161
v -0.03491342 0.09502912 0.1445291
v -0.02163947 0.09302092 -0.1445149
v -0.02166402 0.09299207 0.1445303
v -0.00893563 0.08908951 -0.1445144
v -0.008960128 0.0890609 0.1445311
v 0.002964795 0.08334506 -0.1445135
v 0.002940178 0.08331609 0.1445316
v 0.01381946 0.07590461 -0.1445131
v 0.01379496 0.07587481 0.1445321
v 0.0234071 0.06691802 -0.144513
v 0.02338272 0.06688929 0.1445323
v 0.03153288 0.05656981 -0.1445129
v 0.03150833 0.05654049 0.1445322
v 0.0380308 0.04507005 -0.1445134
v 0.03800619 0.04504049 0.1445321
v 0.04276955 0.0326525 -0.1445138
v 0.04274487 0.03262377 0.1445315
v 0.04565173 0.01957119 -0.1445143
v 0.0456273 0.01954222 0.144531
v 0.0466193 0.006091356 -0.1445153
v 0.04659474 0.006062508 0.1445302
v 0.04565209 -0.00751245 -0.1445164
v 0.04562747 -0.00754118 0.1445289
v 0.04277033 -0.02096272 -0.1445171
v 0.04274571 -0.02099216 0.144528
v 0.03803194 -0.03398728 -0.1445188
v 0.03800756 -0.03401637 0.1445267
v 0.03153378 -0.04631925 -0.1445201
v 0.03150952 -0.04634809 0.1445253
v 0.02340847 -0.05770826 -0.1445214
v 0.02338415 -0.05773675 0.1445235
v 0.01382095 -0.06792188 -0.1445228
v 0.01379633 -0.06795049 0.1445222
v 0.002966523 -0.07675302 -0.1445244
v 0.002942383 -0.07678175 0.1445208
v -0.008933902 -0.08402109 -0.1445258
v -0.00895822 -0.08405077 0.1445193
v -0.02163762 -0.08957922 -0.1445273
v -0.02166218 -0.08960807 0.144518
v -0.03488684 -0.09331357 -0.1445286
v -0.03491127 -0.0933423 0.1445164
v -0.04841119 -0.0951488 -0.1445299
v -0.04843563 -0.09517694 0.144515
v -0.04167527 0.04750323 0.1445254
v -0.04843739 0.04755497 0.1445248
v -0.03505051 0.04648483 0.144526
v -0.02869856 0.04451931 0.1445263
v -0.02274811 0.04164684 0.1445266
v -0.01732069 0.0379262 0.1445268
v -0.01252681 0.03343308 0.1445269
v -0.008464217 0.02825856 0.1445269
v -0.005215108 0.0225091 0.1445267
v -0.002845824 0.01630044 0.1445267
v -0.001405001 0.00976038 0.1445263
v -0.0009209514 0.003019571 0.1445259
v -0.001404643 -0.003781915 0.1445253
v -0.002845466 -0.01050735 0.1445247
v -0.005214691 -0.01701939 0.1445243
v -0.008463979 -0.02318501 0.1445236
v -0.01252609 -0.02887917 0.1445226
v -0.01732004 -0.03398681 0.144522
v -0.02274728 -0.0384022 0.1445213
v -0.02869755 -0.04203653 0.1445207
v -0.03504914 -0.04481554 0.1445199
v -0.04167393 -0.0466826 0.1445192
v -0.04843611 -0.04760003 0.1445184
v -0.04843703 -2.229214e-05 0.1445216
v -0.0484128 0.04758358 -0.1445205
v -0.04165077 0.04753232 -0.14452
v -0.03502607 0.04651403 -0.1445193
v -0.02867395 0.04454827 -0.1445193
v -0.02272379 0.04167581 -0.1445186
v -0.01729661 0.03795493 -0.1445184
v -0.01250285 0.03346241 -0.1445184
v -0.008439839 0.02828777 -0.1445184
v -0.005190611 0.02253807 -0.1445184
v -0.002821505 0.01632929 -0.1445185
v -0.001380265 0.009788752 -0.1445193
v -0.0008963346 0.003048658 -0.1445193
v -0.001380146 -0.003753781 -0.1445198
v -0.002821147 -0.01047862 -0.1445204
v -0.005190194 -0.0169903 -0.1445211
v -0.008439183 -0.02315652 -0.144522
v -0.01250172 -0.02885079 -0.1445224
v -0.01729554 -0.03395772 -0.1445234
v -0.02272272 -0.03837359 -0.1445242
v -0.02867317 -0.04200733 -0.1445248
v -0.03502494 -0.04478669 -0.1445255
v -0.0416494 -0.04665387 -0.1445263
v -0.04841173 -0.04757106 -0.1445267
v -0.04841241 6.437302e-06 -0.1445237
f 1 2 3
f 1 3 4
f 5 1 4
f 5 4 6
f 7 5 6
f 7 6 8
f 9 7 8
f 9 8 10
f 11 9 10
f 11 10 12
f 13 11 12
f 13 12 14
f 15 13 14
f 15 14 16
f 17 15 16
f 17 16 18
f 19 17 18
f 19 18 20
f 21 19 20
f 21 20 22
f 23 21 22
f 23 22 24
f 25 23 24
f 25 24 26
f 27 25 26
f 27 26 28
f 29 27 28
f 29 28 30
f 31 29 30
f 31 30 32
f 33 31 32
f 33 32 34
f 35 33 34
f 35 34 36
f 37 35 36
f 37 36 38
f 39 37 38
f 39 38 40
f 41 39 40
f 41 40 42
f 43 41 42
f 43 42 44
f 45 43 44
f 45 44 46
f 47 48 4
f 47 4 3
f 48 49 6
f 48 6 4
f 49 50 8
f 49 8 6
f 50 51 10
f 50 10 8
f 51 52 12
f 51 12 10
f 52 53 14
f 52 14 12
f 53 54 16
f 53 16 14
f 54 55 18
f 54 18 16
f 55 56 20
f 55 20 18
f 56 57 22
f 56 22 20
f 57 58 24
f 57 24 22
f 58 59 26
f 58 26 24
f 59 60 28
f 59 28 26
f 60 61 30
f 60 30 28
f 61 62 32
f 61 32 30
f 62 63 34
f 62 34 32
f 63 64 36
f 63 36 34
f 64 65 38
f 64 38 36
f 65 66 40
f 65 40 38
f 66 67 42
f 66 42 40
f 67 68 44
f 67 44 42
f 68 69 46
f 68 46 44
f 48 47 70
f 48 70 49
f 50 49 70
f 50 70 51
f 52 51 70
f 52 70 53
f 54 53 70
f 54 70 55
f 56 55 70
f 56 70 57
f 58 57 70
f 58 70 59
f 60 59 70
f 60 70 61
f 62 61 70
f 62 70 63
f 64 63 70
f 64 70 65
f 66 65 70
f 66 70 67
f 68 67 70
f 68 70 69
f 71 72 2
f 71 2 1
f 73 71 1
f 73 1 5
f 74 73 5
f 74 5 7
f 75 74 7
f 75 7 9
f 76 75 9
f 76 9 11
f 77 76 11
f 77 11 13
f 78 77 13
f 78 13 15
f 79 78 15
f 79 15 17
f 80 79 17
f 80 17 19
f 81 80 19
f 81 19 21
f 82 81 21
f 82 21 23
f 83 82 23
f 83 23 25
f 84 83 25
f 84 25 27
f 85 84 27
f 85 27 29
f 86 85 29
f 86 29 31
f 87 86 31
f 87 31 33
f 88 87 33
f 88 33 35
f 89 88 35
f 89 35 37
f 90 89 37
f 90 37 39
f 91 90 39
f 91 39 41
f 92 91 41
f 92 41 43
f 93 92 43
f 93 43 45
f 94 72 71
f 94 71 73
f 94 73 74
f 94 74 75
f 94 75 76
f 94 76 77
f 94 77 78
f 94 78 79
f 94 79 80
f 94 80 81
f 94 81 82
f 94 82 83
f 94 83 84
f 94 84 85
f 94 85 86
f 94 86 87
f 94 87 88
f 94 88 89
f 94 89 90
f 94 90 91
f 94 91 92
f 94 92 93
f 95 96 97
f 95 97 98
f 98 97 99
f 98 99 100
f 100 99 101
f 100 101 102
f 102 101 103
f 102 103 104
f 104 103 105
f 104 105 106
f 106 105 107
f 106 107 108
f 108 107 109
f 108 109 110
f 110 109 111
f 110 111 112
f 112 111 113
f 112 113 114
f 114 113 115
f 114 115 116
f 116 115 117
f 116 117 118
f 118 117 119
f 118 119 120
f 120 119 121
f 120 121 122
f 122 121 123
f 122 123 124
f 124 123 125
f 124 125 126
f 126 125 127
f 126 127 128
f 128 127 129
f 128 129 130
f 130 129 131
f 130 131 132
f 132 131 133
f 132 133 134
f 134 133 135
f 134 135 136
f 136 135 137
f 136 137 138
f 138 137 139
f 138 139 140
f 98 141 142
f 98 142 95
f 100 143 141
f 100 141 98
f 102 144 143
f 102 143 100
f 104 145 144
f 104 144 102
f 106 146 145
f 106 145 104
f 108 147 146
f 108 146 106
f 110 148 147
f 110 147 108
f 112 149 148
f 112 148 110
f 114 150 149
f 114 149 112
f 116 151 150
f 116 150 114
f 118 152 151
f 118 151 116
f 120 153 152
f 120 152 118
f 122 154 153
f 122 153 120
f 124 155 154
f 124 154 122
f 126 156 155
f 126 155 124
f 128 157 156
f 128 156 126
f 130 158 157
f 130 157 128
f 132 159 158
f 132 158 130
f 134 160 159
f 134 159 132
f 136 161 160
f 136 160 134
f 138 162 161
f 138 161 136
f 140 163 162
f 140 162 138
f 164 142 141
f 164 141 143
f 164 143 144
f 164 144 145
f 164 145 146
f 164 146 147
f 164 147 148
f 164 148 149
f 164 149 150
f 164 150 151
f 164 151 152
f 164 152 153
f 164 153 154
f 164 154 155
f 164 155 156
f 164 156 157
f 164 157 158
f 164 158 159
f 164 159 160
f 164 160 161
f 164 161 162
f 164 162 163
f 96 165 166
f 96 166 97
f 97 166 167
f 97 167 99
f 99 167 168
f 99 168 101
f 101 168 169
f 101 169 103
f 103 169 170
f 103 170 105
f 105 170 171
f 105 171 107
f 107 171 172
f 107 172 109
f 109 172 173
f 109 173 111
f 111 173 174
f 111 174 113
f 113 174 175
f 113 175 115
f 115 175 176
f 115 176 117
f 117 176 177
f 117 177 119
f 119 177 178
f 119 178 121
f 121 178 179
f 121 179 123
f 123 179 180
f 123 180 125
f 125 180 181
f 125 181 127
f 127 181 182
f 127 182 129
f 129 182 183
f 129 183 131
f 131 183 184
f 131 184 133
f 133 184 185
f 133 185 135
f 135 185 186
f 135 186 137
f 137 186 187
f 137 187 139
f 166 165 188
f 166 188 167
f 168 167 188
f 168 188 169
f 170 169 188
f 170 188 171
f 172 171 188
f 172 188 173
f 174 173 188
f 174 188 175
f 176 175 188
f 176 188 177
f 178 177 188
f 178 188 179
f 180 179 188
f 180 188 181
f 182 181 188
f 182 188 183
f 184 183 188
f 184 188 185
f 186 185 188
f 186 188 187
f 96 95 3
f 96 3 2
f 140 139 45
f 140 45 46
f 95 142 47
f 95 47 3
f 163 140 46
f 163 46 69
f 142 164 70
f 142 70 47
f 164 163 69
f 164 69 70
f 165 96 2
f 165 2 72
f 139 187 93
f 139 93 45
f 188 165 72
f 188 72 94
f 187 188 94
f 187 94 93
