v 0.002322137 -0.01144126 0.02062505
v 0.002213806 -0.002279133 0.02062434
v -0.002289176 -0.008744657 0.02059424
v -0.0003753304 -0.01055849 0.01144034
v 0.002321988 0.0004332066 -0.01948047
v 0.002321929 0.01145312 -0.02059621
v 0.002310157 0.01145223 -0.01875651
v 0.00212571 -0.008380502 0.0004105568
v 0.00154537 -0.001376569 -0.01876074
v -0.0002994239 -0.003232718 -0.01327729
v -0.002159327 0.003155142 -0.020625
v -0.002214611 0.006817579 -0.01878566
v 0.001392692 0.0114423 -0.01876116
v 0.001465708 -0.01145315 0.01145238
v -0.002149463 0.001319289 -0.01878428
v -0.002322137 -0.005999088 0.02059311
v -0.001725763 -0.006209582 0.002527118
v 0.001297534 -0.002289206 0.02061695
f 1 2 3
f 4 1 3
f 1 5 6
f 7 1 6
f 7 2 1
f 8 5 1
f 5 8 9
f 8 10 9
f 11 5 9
f 11 12 6
f 5 11 6
f 7 13 2
f 12 13 6
f 13 7 6
f 4 14 1
f 14 8 1
f 10 14 4
f 14 10 8
f 10 15 9
f 15 11 9
f 16 13 12
f 2 16 3
f 16 15 3
f 11 16 12
f 15 16 11
f 17 10 4
f 17 15 10
f 17 4 3
f 15 17 3
f 13 18 2
f 18 16 2
f 16 18 13
