v -0.07001768 0.09355551 0.05505091
v -0.06864525 -0.01953307 0.1103745
v -0.06863578 -0.01000822 0.1123728
v -0.0699916 -0.0935165 0.02618791
v -0.06865182 0.000295043 0.1130885
v -0.06246532 0.08607945 -0.08169952
v -0.06998486 0.08633676 -0.08284704
v -0.06998571 0.08842421 -0.07777867
v -0.06893726 0.03779748 0.1024864
v -0.06880401 0.02577323 0.1082892
v -0.06870898 0.01361671 0.1118485
v 0.07001472 0.007843167 0.09604527
v 0.07001483 -0.01307309 0.09496818
v 0.07001492 0.005081683 -0.01334687
v 0.07001506 -0.04446921 0.07405466
v -0.06152327 0.08865044 0.06339195
v 0.07001765 0.03172907 0.0865745
v 0.07001562 0.05056599 0.0197935
v 0.07001464 0.05426267 0.05043316
v -0.06868743 -0.03136826 0.1060101
v -0.0687753 -0.04260841 0.09913874
v -0.06896764 -0.05647331 0.08580074
v -0.06886251 -0.04997486 0.09291475
v 0.07001472 -0.02857953 0.08856045
v 0.07001455 -0.04673842 0.01198412
v 0.07001482 -0.03959423 0.003138315
v 0.07001491 -0.04954019 0.06577566
v 0.07001434 -0.05513111 0.03769942
v 0.07001686 -0.05239549 0.02423843
v 0.07001498 0.04268262 0.07627295
v 0.07001504 0.01386383 -0.01175501
v 0.07001449 0.02356485 -0.008315463
v -0.008836452 0.01349542 -0.08050512
v -0.009028174 0.02514616 -0.07876068
v 0.07001407 0.05026224 0.06399569
v -0.01246483 0.08579847 -0.01749928
v -0.01093004 0.06417933 -0.06096928
v -0.06243247 0.08310759 -0.08489548
v -0.06257015 -0.04531735 -0.1010265
v -0.06998435 -0.04437503 -0.1030356
v -0.0624188 -0.04262561 -0.1032274
v -0.06998444 -0.04753482 -0.09926485
v -0.06135375 -0.09278813 0.03003775
v -0.06981446 -0.09355539 0.03084268
v 0.07001486 0.02007917 0.09274029
v 0.07001476 -0.03697598 0.08247428
v 0.07001466 -0.004149944 0.09640153
v -0.06254032 -0.04775634 -0.09681644
v 0.07001473 -0.01989561 -0.009943351
v 0.07001476 -0.007350266 -0.01318083
v 0.07001407 -0.05403051 0.05322435
v 0.01109485 -0.0737192 0.03641162
v -0.06974229 0.08931771 0.06399338
v 0.0700146 0.03670084 0.0002884902
v -0.06998535 -0.03819329 -0.1063234
v -0.06975089 -0.09242955 0.03467352
v -0.06149337 -0.09232202 0.0252812
v -0.06166743 -0.0915601 0.03445616
v -0.06998526 0.0646916 -0.09892781
v -0.06216806 0.05995098 -0.1001193
v -0.06998502 0.04825521 -0.1053445
v 0.008469708 -0.0743168 0.03893683
v -0.008567393 0.03347087 -0.07639322
v 0.01099049 0.0714812 0.0596683
v -0.06231713 0.08766797 -0.07721592
v 0.07001458 0.05398569 0.03088358
v 0.07001454 0.05496088 0.0409929
v -0.0110059 0.08581206 -0.01164882
v 0.07001477 0.04544395 0.01052118
v -0.06998522 0.07650822 -0.09165709
v -0.06230272 0.07062876 -0.09459162
v -0.008475281 0.0419566 -0.07366149
v -0.008645128 0.0491055 -0.07081877
v -0.00980676 0.0592868 -0.06531318
v -0.06998554 0.02945015 -0.1098371
v -0.06179373 0.03739491 -0.1072106
v -0.0616344 0.02584457 -0.1094827
v -0.0623568 -0.03275701 -0.1075636
v 0.07001473 -0.02111438 0.09238015
v -0.0111056 -0.0309253 -0.07474085
v -0.06150953 0.09144291 0.05967389
v -0.06980744 0.09242469 0.05965317
v 0.008611053 0.07129872 0.06195199
v -0.009148791 0.05437404 -0.06836092
v -0.06193744 0.04811591 -0.1043633
v -0.0699852 -0.001794696 -0.1130885
v -0.06998518 0.01349342 -0.11212
v -0.06187565 0.002141863 -0.1120714
v -0.008414913 0.0009180307 -0.0810096
v 0.07001472 -0.03119728 -0.004017342
v -0.01030037 -0.02656859 -0.07734692
v -0.06180696 0.09263307 0.05526968
v -0.06236815 0.07733777 -0.08987634
v -0.06211639 -0.01186264 -0.1118704
v -0.06998488 -0.01652738 -0.1122593
v -0.06176534 0.01385465 -0.1111595
v -0.0699853 -0.02765056 -0.1100563
v -0.009274039 -0.0211249 -0.07898869
v -0.001016885 0.07856101 0.03052352
v -0.0090282 -0.0172191 -0.07991341
v -0.06228081 -0.02343765 -0.1101954
v -0.008845482 -0.009874851 -0.08095972
f 1 2 3
f 4 2 1
f 3 5 1
f 6 7 8
f 9 1 10
f 1 11 10
f 12 13 14
f 13 15 14
f 2 13 3
f 16 9 17
f 14 18 19
f 20 2 4
f 21 20 4
f 22 23 4
f 23 21 4
f 1 5 11
f 13 24 15
f 20 21 24
f 25 26 14
f 15 27 14
f 14 28 25
f 29 25 28
f 30 17 14
f 31 32 14
f 33 34 14
f 14 34 31
f 35 30 14
f 19 35 14
f 36 18 37
f 7 6 38
f 39 40 41
f 42 40 39
f 4 43 44
f 17 45 14
f 9 45 17
f 10 45 9
f 14 45 12
f 11 45 10
f 12 45 11
f 21 23 46
f 13 47 3
f 12 47 13
f 25 29 48
f 14 49 50
f 51 28 14
f 27 51 14
f 52 29 28
f 9 53 1
f 32 54 14
f 55 41 40
f 56 44 43
f 4 44 56
f 57 43 4
f 52 43 57
f 56 22 4
f 56 58 22
f 58 15 22
f 59 60 61
f 24 46 15
f 24 21 46
f 47 5 3
f 5 12 11
f 48 4 42
f 4 48 57
f 29 52 57
f 39 26 25
f 51 27 62
f 9 16 53
f 34 63 31
f 35 19 64
f 37 6 36
f 8 65 6
f 6 65 36
f 18 66 19
f 67 19 66
f 66 68 67
f 37 69 54
f 70 71 59
f 72 73 32
f 54 74 37
f 56 43 58
f 75 76 77
f 61 76 75
f 78 41 55
f 79 24 13
f 24 79 20
f 2 79 13
f 20 79 2
f 15 46 22
f 22 46 23
f 47 12 5
f 25 48 39
f 57 48 29
f 39 80 26
f 58 43 62
f 58 62 27
f 81 53 16
f 81 82 53
f 53 82 1
f 16 83 81
f 30 83 16
f 36 66 18
f 68 66 36
f 8 36 65
f 1 36 8
f 68 36 1
f 37 18 69
f 69 18 14
f 54 69 14
f 71 74 84
f 7 38 70
f 59 71 60
f 58 27 15
f 61 60 85
f 85 76 61
f 86 87 88
f 50 89 14
f 39 48 42
f 14 26 90
f 39 41 80
f 41 91 80
f 52 62 43
f 51 52 28
f 62 52 51
f 30 16 17
f 64 83 35
f 30 35 83
f 68 1 92
f 82 92 1
f 74 71 93
f 93 71 70
f 6 37 74
f 38 93 70
f 84 54 32
f 73 84 32
f 86 94 95
f 33 96 77
f 75 96 87
f 77 96 75
f 87 96 88
f 97 78 55
f 90 49 14
f 49 91 98
f 90 91 49
f 26 80 90
f 91 90 80
f 72 63 85
f 64 81 83
f 92 64 99
f 93 38 74
f 71 84 60
f 60 84 73
f 60 73 72
f 33 77 34
f 34 76 63
f 98 91 78
f 78 100 98
f 97 101 78
f 95 101 97
f 63 72 31
f 72 32 31
f 68 92 99
f 19 68 99
f 67 68 19
f 92 81 64
f 92 82 81
f 99 64 19
f 84 74 54
f 38 6 74
f 63 76 85
f 76 34 77
f 85 60 72
f 86 88 94
f 78 101 100
f 102 89 50
f 33 14 89
f 91 41 78
f 95 94 101
f 49 98 50
f 100 50 98
f 102 50 100
f 88 96 33
f 33 89 88
f 101 102 100
f 94 88 102
f 89 102 88
f 101 94 102
f 4 1 86
f 4 86 42
f 1 8 86
f 59 86 70
f 75 86 61
f 55 86 97
f 55 40 86
f 42 86 40
f 8 7 86
f 61 86 59
f 97 86 95
f 70 86 7
f 87 86 75
