v -0.002219126 0.002935171 -0.02445337
v -0.002374545 -0.006601751 -0.02071837
v -0.002275422 -0.0003278255 0.02601504
v -0.002375975 -0.006590366 0.01588133
v 0.002240941 -0.004257619 0.01977804
v 0.002268419 -0.002784312 -0.02312243
v 0.002319202 0.0003350973 -0.02505171
v -0.002233848 0.001967788 -0.02601504
v -0.0003932863 0.002690315 0.01874405
v 0.002344415 0.002092242 0.01262707
v -0.0003436357 0.005657494 0.006139845
v -0.001460835 -0.006605506 0.01588067
v -0.001457617 -0.006614745 -0.0207186
v -0.00223954 0.001827359 0.02252203
v -0.001243487 0.006614804 -0.006276369
v 0.002293184 -0.001067162 0.02319083
v -0.000385955 0.002904475 -0.02445364
v 0.002375975 0.00385195 -0.008910924
v -0.002187207 0.004928231 -0.01600003
v 0.002366737 0.003291965 -0.01503429
f 1 2 3
f 4 5 3
f 2 4 3
f 6 2 7
f 2 8 7
f 1 8 2
f 9 10 11
f 4 12 5
f 12 4 2
f 13 6 5
f 6 13 2
f 12 13 5
f 13 12 2
f 14 9 11
f 15 14 11
f 6 16 5
f 16 10 9
f 5 16 3
f 16 14 3
f 14 16 9
f 8 17 7
f 17 8 1
f 10 18 11
f 18 15 11
f 16 18 10
f 18 6 7
f 18 16 6
f 19 17 1
f 17 19 15
f 19 14 15
f 19 1 3
f 14 19 3
f 20 17 15
f 18 20 15
f 17 20 7
f 20 18 7
