v -0.002062187 0.01948208 -0.01930493
v -0.003648639 0.01930735 0.01840991
v 0.00313352 0.01947445 0.01563299
v 0.00317359 -0.01902807 0.01343054
v -0.002914816 -0.01915944 0.01790339
v -0.002522796 -0.01948208 -0.01985252
v -0.002209693 -0.007203281 0.02033776
v 0.003003612 0.01856464 0.01768214
v 0.003699332 -0.006143034 0.01790017
v 0.003343314 -0.01279402 -0.007540822
v 0.003558025 -0.01348501 0.01711833
v 0.002483293 -0.01925409 -0.0100283
v -0.00196071 -0.009411991 -0.02033776
v 0.002787843 0.01926363 -0.006979525
v -0.002911761 0.01900133 -0.0184955
v -0.003683239 0.0190694 -0.008285999
v -0.003841147 0.01927578 0.01551998
v -0.00384897 -0.01758358 -0.008461058
v -0.002852052 0.01567537 0.02013564
v 0.001691639 -0.01679856 0.01658958
v 0.002804369 -0.01831931 -0.009186149
v 0.003290281 0.01378179 -0.006079376
v -0.002806783 -0.009410411 -0.0199421
v -0.003798112 -0.01941681 -0.008443475
v -0.003826171 -0.01830679 0.0133068
v 0.003848955 -0.0006805658 0.01376957
v -0.003685534 -0.01644701 0.01618046
f 1 2 3
f 4 5 6
f 2 5 7
f 2 8 3
f 8 9 3
f 10 11 4
f 11 9 7
f 5 11 7
f 12 4 6
f 13 12 6
f 12 13 1
f 14 1 3
f 15 16 1
f 17 2 1
f 16 17 1
f 15 18 16
f 18 17 16
f 9 19 7
f 8 19 9
f 19 2 7
f 19 8 2
f 20 5 4
f 11 20 4
f 20 11 5
f 21 10 4
f 12 21 4
f 10 21 1
f 21 12 1
f 22 10 1
f 14 22 1
f 22 14 3
f 13 23 1
f 23 15 1
f 23 13 6
f 23 18 15
f 5 24 6
f 24 23 6
f 23 24 18
f 18 25 17
f 25 24 5
f 24 25 18
f 22 26 10
f 11 26 9
f 26 11 10
f 9 26 3
f 26 22 3
f 17 27 2
f 25 27 17
f 27 5 2
f 27 25 5
