v -0.002071887 0.003313981 -0.002777874
v -0.002072036 -0.003313988 -0.005562246
v -0.002072006 -0.003289826 0.005562186
v -0.00083673 0.002781101 0.00208509
v 0.002072066 -0.0001654699 -0.0009684563
v -0.0002306402 -0.002766117 0.004766047
v -0.001478851 -0.00324285 -0.004003584
v 0.001097381 -0.001297206 -0.000919044
v 0.001036555 -0.001594134 0.003422856
v -0.0003771782 -0.002358332 -0.003229976
f 1 2 3
f 4 1 3
f 1 5 2
f 1 4 5
f 6 4 3
f 2 7 3
f 7 6 3
f 7 8 6
f 9 8 5
f 8 9 6
f 4 9 5
f 6 9 4
f 8 10 5
f 10 8 7
f 5 10 2
f 10 7 2
