v -0.00271447 -0.03467691 0.04599747
v 0.002732635 -0.03473151 -0.04599749
v 0.002732575 -0.03406382 0.04518431
v 0.002732515 0.03350747 0.04498482
v 0.00264284 0.02526623 -0.007987678
v -0.001726404 0.03077984 0.04365581
v -0.002598628 -0.03339636 -0.04079479
v 0.00262773 -0.003737807 -0.03655836
v 0.002674639 0.03452021 0.01930538
v -0.001807496 0.03306293 0.0401704
v -0.002564937 0.02949214 0.04303929
v -0.002725005 0.03299803 0.027347
v 0.002600759 0.01099968 -0.02591553
v 0.001843929 0.01166046 -0.02749947
v 0.002668619 -0.01976037 -0.04324889
v -0.002511635 0.02609801 0.003238678
v 0.00264737 0.03237522 0.009479284
v 0.002688497 0.03473157 0.0353764
v -0.002493814 0.01070786 -0.02012864
v -0.002488166 0.01908898 -0.0101164
v -0.002732635 -0.002084434 -0.03291848
v -0.00258559 -0.02107692 -0.03890464
f 1 2 3
f 2 4 3
f 4 2 5
f 4 1 3
f 4 6 1
f 1 7 2
f 2 8 5
f 9 4 5
f 4 10 6
f 6 11 1
f 11 12 1
f 10 11 6
f 11 10 12
f 13 14 5
f 8 13 5
f 13 8 14
f 15 8 2
f 16 17 5
f 17 9 5
f 12 17 16
f 9 17 12
f 18 9 12
f 10 18 12
f 9 18 4
f 18 10 4
f 19 20 14
f 20 16 5
f 14 20 5
f 15 21 8
f 8 21 14
f 21 19 14
f 12 21 1
f 21 7 1
f 21 20 19
f 21 12 16
f 20 21 16
f 21 22 7
f 22 21 15
f 7 22 2
f 22 15 2
