v -0.009526052 -0.0008720253 -0.01737988
v -0.002008501 -0.001747255 -0.01769415
v -0.009358665 -0.00153728 -0.01972643
v -0.001878606 -0.001303985 -0.01948753
v -0.001842443 0.0001494335 -0.02004072
v -0.009322735 0.0008494798 -0.02024281
v -0.002093629 -0.0001625046 -0.01651779
v -0.001905032 -0.002093354 -0.01854399
v -0.0004424127 -0.00215914 -0.01859167
v -0.001815948 -0.001471769 -0.01982391
v -0.0003349865 -0.001076233 -0.02014858
v -0.002066506 0.0007148702 -0.01627094
v -0.0006160876 -0.0007292749 -0.01605481
v -0.002065679 -0.0007044394 -0.01629755
v -0.001775665 -1.82325e-05 -0.02038798
v -0.001997633 -0.001826102 -0.01715738
v -0.0005349964 -0.001973076 -0.01725143
v -0.001991104 -0.002893392 -0.01727289
v -0.001867853 -0.002982144 -0.01897666
v -0.0004443433 -0.003015344 -0.01844978
v -0.0005857423 -0.002461059 -0.01644462
v -0.001740322 -0.001798767 -0.02082056
v -0.0002495479 0.0003535645 -0.02113244
v -0.0002807835 -0.001877034 -0.02057612
v -0.001706895 0.0005138945 -0.02129874
v -0.002099507 -0.001791376 -0.0157786
v -0.0006762007 -0.0009759068 -0.01534751
v -0.002136437 8.184463e-06 -0.01522604
v -0.0006689718 0.001019813 -0.01532924
v -0.01125653 0.002250008 -0.02121061
v -0.01073221 0.004829643 -0.02764431
v -0.0107479 0.002255484 -0.02767438
v -0.0108029 0.007061666 -0.02669919
v -0.01096648 0.008661693 -0.02425402
v -0.01120611 0.008743968 -0.02121666
v -0.01194895 0.00875037 -0.0102357
v -0.0115285 0.008746194 -0.01668423
v -0.01157025 0.002235489 -0.01671085
v -0.0119912 0.002257966 -0.01022124
v -0.0112537 -0.002275353 -0.02121007
v -0.01074505 -0.00228174 -0.02767378
v -0.01070564 -0.005705392 -0.02752808
v -0.01087496 -0.007831521 -0.02584976
v -0.01098586 -0.008722572 -0.02387413
v -0.01119432 -0.008770735 -0.02121463
v -0.01199074 -0.002285995 -0.01022169
v -0.01156545 -0.002256734 -0.01671389
v -0.01151949 -0.008771489 -0.01667833
v -0.0119214 -0.00878417 -0.01023105
v -0.009777484 0.008797469 -0.01883703
v -0.001617139 0.008778645 -0.02384025
v -0.002682338 0.008925017 -0.009398609
v -0.009772148 -0.008815884 -0.01883543
v -0.001659917 -0.008900343 -0.02316874
v -0.002670367 -0.008937004 -0.009396464
v -0.009151032 -1.211464e-05 -0.02761826
v -0.009847764 -1.154095e-05 -0.01884148
v -0.01040201 -1.087599e-05 -0.01005507
v -0.001374464 0.004722499 -0.02715969
v -0.001370071 -0.005347341 -0.02707809
v -0.002188898 -0.002713809 -0.01522607
v -0.002006668 -0.003951414 -0.01753357
v -0.002019471 0.007485878 -0.01753214
v -0.001912666 0.007490536 -0.01903147
v -0.001726728 0.002178504 -0.02164614
v -0.001793524 0.002539252 -0.02007002
v -0.001559148 -0.007265774 -0.02395317
v -0.001484246 -0.007868208 -0.02545393
v -0.002500594 0.007492015 -0.01080561
v -0.002495483 0.0007477654 -0.01080045
v -0.001431179 -0.004979581 -0.02569738
v -0.002495255 -0.0007621301 -0.01079935
v -0.002491561 -0.007498849 -0.01079872
v -0.002010521 -0.007503377 -0.01752663
v -0.001825465 0.003438225 -0.02033132
v -0.00143176 0.006861168 -0.02636486
v -0.001588225 0.007358018 -0.02359304
v -0.001450393 0.005337028 -0.02561709
v -0.001903579 -0.007498774 -0.01902539
v -0.001427636 -0.0007609762 -0.02575693
v -0.001916737 0.003916582 -0.01901126
v -0.002243071 -0.000737098 -0.01436895
v -0.001949523 0.003031559 -0.01793006
v -0.001428568 0.0007423842 -0.02575219
v -0.002020734 0.003916508 -0.01754799
v -0.002246186 0.0007273797 -0.01436591
v -0.002088944 0.002070935 -0.01595759
v -0.002216188 0.002050419 -0.01484329
v -0.002123255 0.003368904 -0.01609969
v -0.001686387 -0.0007402236 -0.02219209
v -0.001911411 -0.003929595 -0.01901022
v -0.001723214 -0.002063503 -0.02171534
v -0.001807939 -0.003381925 -0.02045843
v -0.001687714 0.0007268284 -0.02219248
v -0.01042019 0.007321797 -0.01153705
v -0.009964667 0.007319199 -0.01792842
v -0.009973468 0.004103592 -0.01788944
v -0.01018644 0.0009019654 -0.01477996
v -0.01014394 0.002663644 -0.01556796
v -0.01041589 0.0009049736 -0.01153606
v -0.01041017 -0.00734428 -0.01153436
v -0.01041502 -0.0009275191 -0.01153609
v -0.01018354 -0.0009211451 -0.01478174
v -0.0101312 -0.003056935 -0.01581037
v -0.009956357 -0.004085071 -0.01793662
v -0.009954439 -0.007343833 -0.0179261
v -0.009513234 -0.007152842 -0.02427328
v -0.009386261 -0.005102864 -0.02605516
v -0.009822699 -0.007344203 -0.01976135
v -0.009831974 -0.004126817 -0.01980159
v -0.009605508 -0.0009253249 -0.02291003
v -0.009674083 -0.002687472 -0.0221242
v -0.009371074 -0.000928795 -0.02615434
v -0.009488618 0.006595859 -0.02500108
v -0.009579232 0.00729771 -0.02341595
v -0.009385055 0.004912386 -0.02609086
v -0.009371778 0.000903111 -0.02615321
v -0.009610459 0.0009471588 -0.02295026
v -0.009833695 0.00406388 -0.01975656
v -0.009721326 0.003275182 -0.02151519
v -0.009832531 0.007320322 -0.01976344
v -0.0006103236 0.0009789616 -0.0162439
v -0.0005296348 0.001993735 -0.01726049
v -0.0006045727 0.002339917 -0.01635668
v -0.0004902016 0.002993325 -0.01781791
v -0.0003255447 0.0008208547 -0.02018645
v -0.0004331637 0.002045274 -0.01899639
v -0.0003375104 0.002332679 -0.02012333
v -0.001970442 0.002148033 -0.01784271
v -0.001816636 0.001441469 -0.01984021
v -0.001927212 0.001734172 -0.01886427
v -0.009491254 0.001514725 -0.01789626
v -0.002052712 0.001290901 -0.01707059
f 1 2 3
f 2 4 3
f 4 5 3
f 3 5 6
f 7 2 1
f 8 9 10
f 9 11 10
f 12 13 14
f 10 11 15
f 14 13 16
f 13 17 16
f 16 17 8
f 17 9 8
f 18 19 20
f 18 20 21
f 22 23 24
f 22 25 23
f 26 18 21
f 26 21 27
f 28 26 27
f 28 27 29
f 19 22 24
f 19 24 20
f 30 31 32
f 30 33 31
f 34 33 30
f 35 34 30
f 36 37 38
f 36 38 39
f 40 41 42
f 40 42 43
f 40 43 44
f 40 44 45
f 46 47 48
f 46 48 49
f 50 34 35
f 50 51 34
f 52 51 50
f 37 52 50
f 36 52 37
f 53 45 44
f 54 53 44
f 55 48 53
f 55 49 48
f 55 53 54
f 30 32 56
f 57 30 56
f 58 39 38
f 58 38 57
f 40 57 56
f 40 56 41
f 58 57 47
f 46 58 47
f 55 46 49
f 58 46 55
f 52 39 58
f 52 36 39
f 52 58 55
f 56 59 60
f 56 60 42
f 56 42 41
f 31 56 32
f 31 59 56
f 18 61 62
f 18 26 61
f 51 63 64
f 65 66 25
f 60 67 68
f 69 52 70
f 60 71 67
f 63 52 69
f 51 52 63
f 52 55 70
f 70 55 72
f 73 55 74
f 74 55 54
f 68 67 54
f 65 75 66
f 76 77 78
f 67 79 54
f 60 80 71
f 76 51 77
f 28 61 26
f 75 81 66
f 28 82 61
f 66 81 83
f 60 84 80
f 79 74 54
f 81 85 83
f 28 86 82
f 87 88 28
f 28 88 86
f 85 89 83
f 60 59 84
f 84 90 80
f 79 91 74
f 83 89 87
f 92 22 93
f 87 89 88
f 73 72 55
f 81 64 85
f 22 19 93
f 51 64 77
f 90 22 92
f 93 19 91
f 59 78 84
f 90 25 22
f 86 70 82
f 84 94 90
f 82 70 72
f 91 62 74
f 91 19 62
f 94 25 90
f 64 63 85
f 19 18 62
f 76 78 59
f 65 25 94
f 51 76 33
f 51 33 34
f 76 31 33
f 76 59 31
f 68 43 42
f 60 68 42
f 54 44 43
f 68 54 43
f 63 95 96
f 69 95 63
f 85 96 97
f 63 96 85
f 98 86 88
f 99 98 88
f 99 88 89
f 97 99 89
f 97 89 85
f 100 86 98
f 100 70 86
f 95 69 100
f 100 69 70
f 99 100 98
f 95 100 99
f 96 99 97
f 96 95 99
f 101 72 73
f 102 72 101
f 82 102 103
f 72 102 82
f 104 62 61
f 104 105 62
f 103 61 82
f 103 104 61
f 62 106 74
f 62 105 106
f 101 74 106
f 101 73 74
f 104 102 101
f 104 101 106
f 103 102 104
f 105 104 106
f 107 67 108
f 67 71 108
f 109 67 107
f 109 79 67
f 109 91 79
f 110 91 109
f 111 90 92
f 112 111 92
f 112 92 93
f 110 112 93
f 110 93 91
f 90 113 80
f 90 111 113
f 71 113 108
f 80 113 71
f 110 109 107
f 112 110 107
f 108 112 107
f 108 111 112
f 113 111 108
f 114 77 115
f 116 78 114
f 78 77 114
f 78 117 84
f 78 116 117
f 117 94 84
f 118 94 117
f 119 81 75
f 120 119 75
f 120 75 65
f 118 120 65
f 118 65 94
f 121 81 119
f 121 64 81
f 77 121 115
f 64 121 77
f 116 120 118
f 116 118 117
f 115 119 120
f 115 121 119
f 114 115 120
f 114 120 116
f 13 21 17
f 17 21 20
f 13 27 21
f 9 17 20
f 13 29 27
f 122 29 13
f 9 20 24
f 123 29 122
f 124 29 123
f 11 9 24
f 125 124 123
f 23 126 11
f 23 11 24
f 125 123 127
f 128 125 127
f 23 127 126
f 128 127 23
f 66 83 125
f 66 125 128
f 87 28 29
f 25 66 128
f 87 29 124
f 25 128 23
f 87 124 125
f 83 87 125
f 129 123 12
f 11 126 15
f 123 122 12
f 15 126 130
f 122 13 12
f 126 127 130
f 130 127 129
f 127 123 129
f 6 131 132
f 131 133 132
f 133 7 132
f 132 7 1
f 5 131 6
f 2 16 8
f 133 129 12
f 7 12 14
f 15 4 10
f 130 131 5
f 4 2 10
f 10 2 8
f 15 5 4
f 2 14 16
f 2 7 14
f 130 129 131
f 15 130 5
f 131 129 133
f 133 12 7
f 6 132 1
f 6 1 3
f 47 57 53
f 47 53 48
f 40 45 53
f 57 40 53
f 50 35 30
f 50 30 57
f 50 57 38
f 37 50 38
