v 0.002771616 -0.00528276 0.01474604
v 0.002771556 0.004705787 -0.01457396
v 0.002728462 0.005882621 0.01110682
v -0.002771616 -0.0006195903 0.01459613
v -0.001806349 -0.001701057 -0.01474604
v 0.001854777 -0.006303132 -0.01393616
v -0.001808286 0.002851367 -0.01370823
v 0.00272195 0.00487119 0.01474553
v 0.001806378 -0.00519675 0.01448706
v 0.002771616 -0.006302655 -0.01393464
v 0.001839325 0.006303132 -0.00537014
v -0.002739519 0.0007855892 -0.004606128
v -0.002749801 0.003367245 0.001868665
v -0.002771214 0.002149463 0.01374546
v 8.836389e-06 0.005387247 -0.005394936
v -2.585351e-05 0.003955781 0.01471701
v -1.776218e-05 0.004989803 0.01015738
f 1 2 3
f 4 5 6
f 2 5 7
f 8 1 3
f 9 4 6
f 1 9 6
f 9 1 4
f 10 1 6
f 10 2 1
f 5 10 6
f 10 5 2
f 11 2 7
f 2 11 3
f 12 5 4
f 12 13 7
f 5 12 7
f 14 12 4
f 12 14 13
f 13 15 7
f 15 11 7
f 16 14 4
f 1 16 4
f 8 16 1
f 16 8 3
f 11 17 3
f 15 17 11
f 17 15 13
f 17 16 3
f 14 17 13
f 16 17 14
