v -0.001582354 -0.01936966 -0.02251051
v 0.002913833 -0.01730388 0.01602991
v -0.003731191 -0.01758218 0.01650901
v 0.003145576 -0.01729763 0.01399477
v -0.003335238 -0.01667774 -0.008985892
v -0.001479805 0.0172962 -0.01607268
v -0.0003681779 0.01933837 -0.01567106
v -0.003089637 0.01908654 0.001064375
v 0.002956152 0.01936072 0.02029295
v -0.002411604 0.003552914 0.02251051
v 0.0035294 0.005632162 0.02030776
v 0.003436625 -0.007199228 0.01860146
v -0.0009492338 -0.01228392 -0.02113043
v 0.003309846 -0.01640141 -0.009469584
v 0.003783584 -0.01271135 -0.007754609
v -0.003783584 -0.01667982 0.005793586
v -0.00124073 0.01914489 -0.01521088
v -0.002408862 -0.01664722 -0.01712395
v 0.003783584 0.01936966 -0.001450166
v 0.003683209 0.007466316 0.01827236
v 0.003667355 -0.00719136 0.01656838
v -0.002863824 -0.01571143 0.01909281
v 0.003280252 -0.01730824 -0.001644984
v -0.0007367432 -0.017497 -0.0206532
v -0.003771663 0.01907581 0.01787369
v -0.003688782 0.0190835 0.02077357
v -0.003061742 0.0191105 0.02249305
v 0.003701359 0.01936299 -0.004348621
v 0.003783286 -0.004440069 0.01453064
v -0.00245893 -0.002859831 0.02165414
f 1 2 3
f 4 2 1
f 5 1 3
f 1 6 7
f 6 5 8
f 9 10 11
f 12 2 4
f 10 12 11
f 13 1 7
f 14 13 15
f 16 5 3
f 17 8 7
f 6 17 7
f 17 6 8
f 5 18 1
f 18 6 1
f 6 18 5
f 9 19 7
f 20 9 11
f 20 19 9
f 15 21 4
f 21 12 4
f 12 21 11
f 21 20 11
f 12 22 2
f 2 22 3
f 22 10 3
f 23 15 4
f 23 14 15
f 23 4 1
f 14 23 1
f 13 24 1
f 24 14 1
f 14 24 13
f 8 25 7
f 25 26 7
f 5 25 8
f 16 25 5
f 25 16 3
f 26 25 3
f 27 9 7
f 26 27 7
f 9 27 10
f 10 27 3
f 27 26 3
f 19 28 7
f 28 19 15
f 28 13 7
f 13 28 15
f 29 21 15
f 21 29 20
f 19 29 15
f 20 29 19
f 30 12 10
f 22 30 10
f 30 22 12
