v -0.0001260042 -0.04126675 -0.05318679
v 8.583069e-05 -0.03944191 -0.05398546
v -0.001085192 -0.0405586 -0.05398594
v 0.001735836 -0.03880533 -0.05318557
v -0.002104163 -0.04133515 -0.05318643
v -0.003734857 -0.0377597 -0.0531363
v -0.004488915 -0.04140025 -0.05307849
v -0.004327834 -0.03751821 -0.08654152
v 0.001451224 -0.0367108 -0.08708818
v -0.005162537 -0.03993547 -0.08663617
v 0.001918077 -0.03701934 -0.05306359
v -0.001118749 -0.03623407 -0.05306496
v -0.0004450381 -0.03786423 -0.04906096
v 0.002649575 -0.04281471 -0.05314137
v 0.0007303357 -0.04136046 -0.05318697
v -0.0004680157 -0.04438559 -0.05307449
v 0.003538936 -0.04033543 -0.05309363
v -0.0004045069 -0.03563131 -0.08664031
v 0.003501952 -0.04321783 -0.05032374
v -0.0001713336 -0.04523488 -0.05038787
v 0.002165914 -0.0369484 -0.05043454
v -0.003307194 -0.04455321 -0.04387449
v -0.000203222 -0.04530522 -0.04388537
v -0.002470464 -0.04381969 -0.08710523
v -0.002048075 -0.04435465 -0.05043747
v 0.002020001 -0.03517712 -0.05038245
v -0.002213329 -0.03561552 -0.05039294
v -0.001769394 -0.03606678 -0.0461988
v 0.0006923079 -0.03546318 -0.04688741
v 0.001682311 -0.03499979 -0.04572253
v -0.004801959 -0.04412255 -0.05038084
v -0.005518228 -0.04030244 -0.05035867
v -0.003418088 -0.03626286 -0.05039699
v -0.003379703 -0.03567076 -0.07416929
v -0.0006639063 -0.03472887 -0.08204891
v -0.004654974 -0.03626027 -0.08001114
v 0.002136737 -0.04518546 -0.05032982
v 0.003911972 -0.03722329 -0.07417797
v 0.005178094 -0.03985179 -0.07969438
v 0.004180998 -0.03706659 -0.08024682
v 0.004059732 -0.04060915 -0.08663769
v 0.004896522 -0.04206729 -0.05038126
v -0.001502961 -0.03465118 -0.04575606
v -0.002259135 -0.0355771 -0.0438682
v -0.003208607 -0.03511013 -0.04383262
v 0.002524018 -0.03545025 -0.04545881
v 0.003324181 -0.03705263 -0.04385127
v -0.004653454 -0.04431017 -0.04512705
v -0.005555004 -0.03959655 -0.04387824
v -0.006213278 -0.04081432 -0.04581167
v -0.004956961 -0.04395031 -0.04576083
v 0.004787356 -0.04243071 -0.04572679
v 0.002921253 -0.04487175 -0.04573132
v 0.004850239 -0.04040156 -0.07416399
v 0.004877359 -0.04158805 -0.04557224
v 0.004485458 -0.04084995 -0.04387893
v 0.001754463 -0.04474407 -0.04529439
v -0.006276429 -0.04010481 -0.045384
v 0.001893133 -0.04553388 -0.0438395
v 0.004334629 -0.03718556 -0.043835
v 0.004631907 -0.03847015 -0.06093754
v 0.003439456 -0.03666322 -0.06173398
v 0.00517416 -0.03940816 -0.04383649
v -0.002158195 -0.04585591 -0.04383917
v -0.006240964 -0.03922942 -0.04383458
v -0.005312175 -0.03702381 -0.04383354
v 0.002173483 -0.0354447 -0.08204176
v 0.004151911 -0.0427093 -0.08394001
v -0.005658418 -0.04229412 -0.06093045
v -0.004217207 -0.03622065 -0.06093408
v -0.00194177 -0.0349905 -0.06093855
v 0.0008688867 -0.03498188 -0.06093092
v -0.004156291 -0.04442554 -0.06093855
v 0.001890242 -0.03546101 -0.07416125
v -0.001757145 -0.04554372 -0.06173624
v -0.005445778 -0.04187979 -0.06363221
v -0.004903316 -0.03774136 -0.06443746
v 0.004596978 -0.04191441 -0.06174554
v 0.002004206 -0.04516298 -0.06092991
v 0.001769692 -0.04488582 -0.06364162
v -0.002686709 -0.04496332 -0.06363739
v -0.002290875 -0.03545127 -0.0636328
v -0.005341649 -0.04078531 -0.06715025
v -0.004445314 -0.04321853 -0.06633826
v 0.001384735 -0.03559459 -0.06443824
v 0.0006136596 -0.03561731 -0.06715129
v -0.002503663 -0.03583471 -0.06713988
v -0.001502573 -0.04504766 -0.06633587
v 0.004028678 -0.04314018 -0.07416005
v -0.004121214 -0.03714853 -0.06902035
v -0.005125642 -0.038986 -0.06984706
v 0.003814399 -0.03837581 -0.06984718
v -0.001351565 -0.03554589 -0.06983043
v -0.004344702 -0.04317496 -0.06903769
v -0.00496462 -0.03718092 -0.07415204
v -0.005949885 -0.04037268 -0.07415994
v -0.00524205 -0.04295467 -0.07416381
v -0.00614354 -0.03919949 -0.08078547
v 0.004610777 -0.04037679 -0.06363149
v 0.004214048 -0.03936903 -0.06715564
v 0.002353251 -0.04411008 -0.06714819
v 0.004066169 -0.04146966 -0.06902464
v -0.001943529 -0.04484479 -0.06902801
v 0.001070142 -0.04474341 -0.06985123
v 0.002052695 -0.04502676 -0.07419486
v -0.0001583695 -0.04567005 -0.07416011
v 0.0008608997 -0.04473291 -0.08653326
v -0.003322005 -0.04508135 -0.08206154
v -0.005338728 -0.04306771 -0.08215557
v 0.002508909 -0.04499077 -0.08157952
v 0.0005541444 -0.04587793 -0.08062463
f 1 2 3
f 2 1 4
f 1 3 5
f 3 2 6
f 3 7 5
f 8 9 10
f 11 12 13
f 1 14 15
f 12 2 13
f 2 11 13
f 2 12 6
f 16 14 5
f 7 3 6
f 4 17 11
f 15 17 4
f 14 17 15
f 4 11 2
f 15 4 1
f 18 9 8
f 16 5 7
f 14 1 5
f 19 14 20
f 17 14 19
f 21 17 19
f 11 17 21
f 14 16 20
f 22 23 16
f 10 9 24
f 25 22 16
f 21 26 27
f 28 29 30
f 31 25 32
f 32 27 33
f 32 6 27
f 34 35 36
f 7 6 32
f 27 11 21
f 12 11 27
f 16 7 32
f 25 16 32
f 6 12 27
f 37 19 20
f 38 39 40
f 40 39 41
f 8 36 18
f 19 42 21
f 30 43 28
f 29 27 26
f 44 45 33
f 27 44 33
f 23 20 16
f 43 46 47
f 43 47 44
f 29 28 27
f 30 29 26
f 48 49 22
f 49 33 45
f 32 33 49
f 25 31 22
f 50 51 31
f 36 35 18
f 32 50 31
f 19 52 42
f 53 52 19
f 38 54 39
f 37 53 19
f 55 23 56
f 37 20 23
f 57 37 23
f 56 42 55
f 21 42 56
f 47 21 56
f 55 57 23
f 21 46 26
f 21 47 46
f 43 44 27
f 27 28 43
f 49 58 32
f 49 48 58
f 48 22 31
f 58 50 32
f 57 59 37
f 60 61 62
f 59 56 23
f 59 63 56
f 64 22 65
f 22 49 65
f 56 63 47
f 63 60 47
f 49 66 65
f 49 45 66
f 47 60 45
f 35 67 18
f 47 45 44
f 59 23 64
f 64 23 22
f 39 68 41
f 55 59 57
f 50 58 69
f 65 66 58
f 66 45 70
f 54 68 39
f 45 71 70
f 45 43 71
f 51 50 69
f 48 64 65
f 58 48 65
f 43 30 72
f 46 43 60
f 64 48 31
f 64 31 73
f 34 74 35
f 43 72 71
f 45 60 43
f 30 26 72
f 51 73 31
f 51 69 73
f 69 66 70
f 58 66 69
f 73 69 75
f 72 62 71
f 76 69 77
f 78 79 80
f 67 9 18
f 75 69 76
f 70 77 69
f 75 76 81
f 70 82 77
f 76 83 84
f 85 86 82
f 82 86 87
f 76 84 81
f 81 84 88
f 82 87 77
f 35 74 67
f 77 87 83
f 77 83 76
f 54 89 68
f 83 90 91
f 92 93 86
f 83 91 94
f 86 93 87
f 83 94 84
f 87 93 90
f 87 90 83
f 95 91 90
f 95 96 91
f 74 34 93
f 96 94 91
f 34 95 93
f 96 97 94
f 95 90 93
f 40 67 74
f 95 8 98
f 36 8 95
f 63 61 60
f 63 55 42
f 63 42 61
f 63 59 55
f 53 79 42
f 53 37 79
f 37 59 79
f 59 64 79
f 64 75 79
f 52 53 42
f 60 26 46
f 64 73 75
f 61 42 78
f 26 60 62
f 72 26 62
f 78 42 79
f 61 78 62
f 78 99 62
f 70 71 82
f 85 62 99
f 82 62 85
f 62 82 71
f 78 80 99
f 75 81 80
f 75 80 79
f 81 88 80
f 99 100 85
f 80 88 101
f 85 100 86
f 80 101 100
f 80 100 99
f 100 102 92
f 88 103 104
f 67 40 9
f 88 104 101
f 100 92 86
f 101 104 102
f 101 102 100
f 94 103 84
f 84 103 88
f 105 102 104
f 105 54 102
f 38 40 74
f 97 103 94
f 97 106 103
f 95 34 36
f 106 104 103
f 54 92 102
f 54 38 92
f 38 74 92
f 74 93 92
f 106 105 104
f 89 54 105
f 41 24 9
f 107 24 41
f 108 97 109
f 89 105 110
f 108 109 24
f 97 108 106
f 41 110 107
f 89 110 68
f 96 95 98
f 68 110 41
f 98 8 10
f 107 108 24
f 106 108 111
f 111 108 107
f 105 106 111
f 9 40 41
f 109 98 10
f 97 96 98
f 105 111 110
f 97 98 109
f 110 111 107
f 24 109 10
