v 0.7700009 0.4800003 0.2450001
v 0.7300009 0.4800003 -0.3750004
v 0.7700008 0.4800003 -0.3750003
v 0.740001 0.4800003 0.2450002
v 0.740001 -0.4800006 0.2450002
v 0.7700009 -0.4800006 0.2450001
v 0.770001 0.5200003 0.3450003
v 0.770001 -0.5200006 0.3450003
v -0.7700006 -0.5200006 0.3450003
v -0.7300006 -0.5200006 0.2450001
v -0.7700006 -0.5200006 -0.3750004
v -0.7300006 -0.5200006 -0.3750004
v -0.7300006 -0.4800006 -0.3750004
v -0.7700006 -0.4800006 -0.3750004
v -0.7700006 -0.4800006 0.2450001
v -0.7700006 0.5200003 0.3450003
v -0.7700006 0.4800003 0.2450001
v -0.7700006 0.4800003 -0.3750004
v -0.7700006 0.5200003 -0.3750004
v -0.7300006 0.5200003 -0.3750004
v -0.7300006 0.5200003 0.2450001
v 0.730001 0.5200003 0.2450001
v 0.7700008 0.5200003 -0.3750003
v 0.7300009 0.5200003 -0.3750004
v 0.730001 0.4900004 0.2450001
v 0.730001 0.4900004 0.3450002
v 0.730001 0.4800003 0.3450002
v 0.7400008 0.4800003 0.3450002
v 0.7400008 -0.4800006 0.3450002
v 0.730001 -0.4800006 0.3450002
v 0.7700008 -0.4800006 -0.3750003
v 0.7300009 -0.4800006 -0.3750004
v 0.7300009 -0.5200006 -0.3750004
v 0.7700008 -0.5200006 -0.3750003
v 0.730001 -0.5200006 0.2450001
v 0.730001 -0.4900005 0.2450001
v -0.7300006 -0.4900005 0.2450001
v -0.7300006 -0.4900005 0.3450002
v -0.7300006 -0.4800006 0.3450002
v -0.7400005 -0.4800006 0.2450001
v -0.7400005 0.4800003 0.2450001
v -0.7300006 0.4800003 0.3450002
v -0.7300006 0.4800003 -0.3750004
v -0.7300006 0.4900004 0.2450001
v -0.7300006 0.4900004 0.3450002
v 0.730001 -0.4900005 0.3450002
v -0.7400005 -0.4800006 0.3450003
v -0.7400005 0.4800003 0.3450003
f 1 2 3
f 2 1 4
f 1 5 4
f 5 1 6
f 7 6 1
f 6 7 8
f 9 10 8
f 11 10 9
f 10 11 12
f 11 13 12
f 13 11 14
f 14 11 15
f 9 15 11
f 15 9 16
f 15 16 17
f 17 16 18
f 18 16 19
f 16 20 19
f 20 16 21
f 21 16 22
f 7 22 16
f 23 22 7
f 22 23 24
f 23 2 24
f 2 23 3
f 23 1 3
f 7 1 23
f 2 25 24
f 2 26 25
f 26 2 27
f 2 4 27
f 27 4 28
f 5 28 4
f 28 5 29
f 5 30 29
f 31 30 5
f 30 31 32
f 31 33 32
f 33 31 34
f 31 8 34
f 8 31 6
f 6 31 5
f 8 33 34
f 33 8 35
f 35 8 10
f 10 36 35
f 36 10 37
f 10 13 37
f 13 10 12
f 37 13 38
f 38 13 39
f 13 40 39
f 13 15 40
f 15 13 14
f 15 41 40
f 41 15 17
f 17 18 41
f 18 42 41
f 42 18 43
f 18 20 43
f 20 18 19
f 20 42 43
f 42 20 44
f 44 20 21
f 22 44 21
f 44 22 25
f 24 25 22
f 26 44 25
f 44 26 45
f 30 36 46
f 32 36 30
f 33 36 32
f 36 33 35
f 36 38 46
f 38 36 37
f 47 41 48
f 41 47 40
f 39 40 47
f 41 42 48
f 45 42 44
