v -0.0001040791 -0.02315856 -0.04499429
v 0.004895893 -0.02317995 -0.04499343
v 0.004799637 -0.02317967 -0.044018
v 0.005119787 0.02915663 -0.04498676
v 0.0001198148 0.02917802 -0.04498762
v 0.005023561 0.02915692 -0.04401133
v 0.004514946 -0.02317857 -0.04308008
v 0.004738869 0.02915802 -0.04307341
v 0.004052788 -0.0231767 -0.04221573
v 0.004276712 0.02915988 -0.04220906
v 0.003430811 -0.02317414 -0.04145815
v 0.003654705 0.02916245 -0.04145148
v 0.002672978 -0.02317097 -0.04083647
v 0.002896871 0.02916561 -0.0408298
v 0.001808555 -0.02316733 -0.04037457
v 0.002032479 0.02916925 -0.0403679
v 0.0008705367 -0.02316336 -0.0400902
v 0.00109443 0.02917323 -0.04008353
v -0.0001049568 -0.02315919 -0.03999429
v 0.0001189967 0.02917739 -0.03998762
v -0.001080344 -0.02315501 -0.04009053
v -0.0008564504 0.02918158 -0.04008386
v -0.002018254 -0.02315096 -0.04037523
v -0.00179439 0.02918563 -0.04036855
v -0.002882627 -0.0231472 -0.04083742
v -0.002658733 0.02918938 -0.04083075
v -0.003640174 -0.02314388 -0.04145936
v -0.003416281 0.0291927 -0.04145269
v -0.004261872 -0.02314113 -0.04221715
v -0.004037978 0.02919546 -0.04221049
v -0.004723791 -0.02313904 -0.04308167
v -0.004499897 0.02919755 -0.043075
v -0.005008142 -0.02313771 -0.04401968
v -0.004784249 0.02919888 -0.04401301
v -0.005104051 -0.02313717 -0.04499515
v -0.004880158 0.02919942 -0.04498848
v -0.005007796 -0.02313746 -0.04597059
v -0.004783902 0.02919913 -0.04596392
v -0.004723164 -0.02313855 -0.0469085
v -0.00449927 0.02919803 -0.04690183
v -0.004260947 -0.02314042 -0.04777286
v -0.004037053 0.02919617 -0.04776619
v -0.003639 -0.02314299 -0.04853043
v -0.003415105 0.0291936 -0.04852376
v -0.002881166 -0.02314615 -0.04915212
v -0.002657212 0.02919044 -0.04914545
v -0.002016713 -0.02314979 -0.04961402
v -0.001792849 0.0291868 -0.04960735
v -0.001078695 -0.02315377 -0.04989839
v -0.0008547414 0.02918282 -0.04989171
v -0.0001032015 -0.02315793 -0.04999429
v 0.0001206626 0.02917866 -0.04998762
v 0.0008721859 -0.02316211 -0.04989805
v 0.00109611 0.02917447 -0.04989138
v 0.001810096 -0.02316616 -0.04961336
v 0.00203399 0.02917042 -0.04960669
v 0.002674469 -0.02316992 -0.04915116
v 0.002898362 0.02916667 -0.04914449
v 0.003432016 -0.02317324 -0.04852922
v 0.00365594 0.02916335 -0.04852255
v 0.004053684 -0.02317599 -0.04777143
v 0.004277578 0.02916059 -0.04776476
v 0.004515604 -0.02317808 -0.04690692
v 0.004739527 0.0291585 -0.04690025
v 0.004799955 -0.02317942 -0.0459689
v 0.005023848 0.02915717 -0.04596223
f 1 2 3
f 4 5 6
f 2 4 3
f 4 6 3
f 1 3 7
f 6 5 8
f 3 6 7
f 6 8 7
f 1 7 9
f 8 5 10
f 7 8 9
f 8 10 9
f 1 9 11
f 10 5 12
f 9 10 11
f 10 12 11
f 1 11 13
f 12 5 14
f 11 12 13
f 12 14 13
f 1 13 15
f 14 5 16
f 13 14 15
f 14 16 15
f 1 15 17
f 16 5 18
f 15 16 17
f 16 18 17
f 1 17 19
f 18 5 20
f 17 18 19
f 18 20 19
f 1 19 21
f 20 5 22
f 19 20 21
f 20 22 21
f 1 21 23
f 22 5 24
f 21 22 23
f 22 24 23
f 1 23 25
f 24 5 26
f 23 24 25
f 24 26 25
f 1 25 27
f 26 5 28
f 25 26 27
f 26 28 27
f 1 27 29
f 28 5 30
f 27 28 29
f 28 30 29
f 1 29 31
f 30 5 32
f 29 30 31
f 30 32 31
f 1 31 33
f 32 5 34
f 31 32 33
f 32 34 33
f 1 33 35
f 34 5 36
f 33 34 35
f 34 36 35
f 1 35 37
f 36 5 38
f 35 36 37
f 36 38 37
f 1 37 39
f 38 5 40
f 37 38 39
f 38 40 39
f 1 39 41
f 40 5 42
f 39 40 41
f 40 42 41
f 1 41 43
f 42 5 44
f 41 42 43
f 42 44 43
f 1 43 45
f 44 5 46
f 43 44 45
f 44 46 45
f 1 45 47
f 46 5 48
f 45 46 47
f 46 48 47
f 1 47 49
f 48 5 50
f 47 48 49
f 48 50 49
f 1 49 51
f 50 5 52
f 49 50 51
f 50 52 51
f 1 51 53
f 52 5 54
f 51 52 53
f 52 54 53
f 1 53 55
f 54 5 56
f 53 54 55
f 54 56 55
f 1 55 57
f 56 5 58
f 55 56 57
f 56 58 57
f 1 57 59
f 58 5 60
f 57 58 59
f 58 60 59
f 1 59 61
f 60 5 62
f 59 60 61
f 60 62 61
f 1 61 63
f 62 5 64
f 61 62 63
f 62 64 63
f 1 63 65
f 64 5 66
f 63 64 65
f 64 66 65
f 1 65 2
f 66 5 4
f 65 66 2
f 66 4 2
