v -0.01522541 -0.008862216 0.06798503
v -0.01495183 0.006513989 0.0701434
v -0.01497108 0.006590655 -0.06677523
v 0.01555431 0.005970826 0.07013875
v 0.01527971 -0.009405363 0.06798037
v 0.01553458 0.0060475 -0.06677988
v -0.01495519 0.006307228 0.07100588
v -0.0150277 0.002207614 0.07364655
v -0.01497668 0.006289367 -0.0679399
v -0.01499116 0.005478006 -0.06910231
v -0.01501063 0.004389247 -0.06990331
v -0.01503834 0.002845008 -0.0702876
v -0.01505804 0.001741298 -0.07017124
v -0.01512849 -0.002226364 -0.06907093
v -0.01520702 -0.006638389 -0.06762679
v -0.0152438 -0.008775297 -0.06470704
v -0.01522613 -0.007735314 -0.06679271
v -0.01523715 -0.008357285 -0.06590807
v -0.01521736 -0.008461045 0.06922711
v -0.01520392 -0.007679904 0.07030195
v -0.01518279 -0.006536189 0.07106484
v -0.01500818 0.003304861 0.07357731
v -0.01498944 0.00436227 0.07323796
v -0.01497295 0.005295463 0.07256329
v -0.01496238 0.005899042 0.07184672
v -0.0150966 -0.001719853 0.07261648
v 0.01526847 -0.008900446 -0.06591272
v 0.01527932 -0.008278472 -0.06679738
v 0.01529911 -0.007181554 -0.06763144
v 0.01537734 -0.002769519 -0.06907558
v 0.01526067 -0.009318434 -0.0647117
v 0.01544777 0.001198137 -0.0701759
v 0.01546744 0.002301849 -0.07029225
v 0.01551428 0.004934853 -0.06910697
v 0.01549464 0.003846094 -0.06990798
v 0.01552901 0.005746204 -0.06794456
v 0.01555061 0.005764067 0.07100123
v 0.01549745 0.002761697 0.07357267
v 0.01554346 0.005355882 0.07184207
v 0.01553288 0.004752297 0.07255864
v 0.01551622 0.003819119 0.07323331
v 0.01547793 0.001664456 0.07364189
v 0.01532084 -0.007079311 0.0710602
v 0.01530105 -0.008223047 0.0702973
v 0.01528642 -0.009004176 0.06922247
v 0.01540667 -0.002262969 0.07261182
f 1 2 3
f 4 5 6
f 7 2 8
f 3 9 10
f 10 11 12
f 12 13 10
f 14 15 16
f 17 18 15
f 16 1 3
f 19 20 21
f 21 1 19
f 8 22 7
f 23 24 22
f 25 7 24
f 3 10 13
f 13 14 3
f 18 16 15
f 21 26 1
f 22 24 7
f 2 1 26
f 14 16 3
f 26 8 2
f 27 28 29
f 29 30 31
f 32 33 34
f 35 34 33
f 36 6 34
f 4 37 38
f 39 40 37
f 41 38 40
f 42 4 38
f 43 44 45
f 45 5 43
f 31 27 29
f 30 32 6
f 34 6 32
f 37 40 38
f 42 46 4
f 43 5 46
f 31 30 6
f 6 5 31
f 46 5 4
