v -0.04536063 -0.00442715 -0.0584895
v -0.05014047 -0.01459584 -0.1235014
v -0.04932868 -0.01157165 -0.0584162
v -0.02781827 -0.08470909 -0.1235011
v -0.0180971 -0.08918746 -0.05879061
v -0.02802905 -0.08457392 -0.0583369
v -0.04726293 -0.009126894 -0.1235014
v -0.03243127 -0.08169224 -0.1235011
v -0.03429344 -0.08025128 -0.05775644
v -0.008180316 0.01717609 -0.1066624
v -2.684817e-05 0.01798214 -0.09682645
v -0.004499869 0.01759436 -0.1235012
v -0.01625641 0.0876363 0.05238864
v -0.02261925 0.08740061 0.06230423
v -0.01408058 0.09020705 0.06272784
v -0.01334038 -0.09061918 -0.123501
v -0.01139561 -0.09105416 -0.05890581
v -0.004378987 0.08976821 0.05223748
v -0.01179236 0.08767372 0.04897264
v -0.04053524 -8.927286e-05 -0.1235014
v -0.003596544 -0.09214734 -0.1235009
v -0.003248529 -0.09215066 -0.05897546
v -0.04139432 0.001030728 -0.05761044
v -0.0182939 -0.08913461 -0.123501
v 0.005341804 0.01751454 -0.1235011
v -0.008147409 0.01823693 -0.07962492
v 0.001133896 0.01890422 -0.07856052
v -0.01444324 0.01676004 -0.08186887
v -0.0159061 0.01767423 -0.06468594
v -0.03521989 0.00516266 -0.1012842
v -0.03997137 0.0009000525 -0.09403031
v -0.03131603 0.00914973 -0.07623646
v -0.01553698 0.07897605 0.03433356
v -0.01211811 0.08398686 0.04077345
v -0.006725233 0.08032297 0.03334701
v -0.05475432 -0.03197698 -0.1235011
v -0.05500091 -0.03624478 -0.1185033
v -0.05491477 -0.03379019 -0.06288199
v -0.03453112 0.007924668 -0.0583594
v -0.02467097 0.01473354 -0.05711232
v -0.05231818 -0.02028232 -0.1235014
v -0.05387553 -0.0261685 -0.1235013
v -0.05249928 -0.01930827 -0.05215921
v -0.05479286 -0.04213833 -0.04564033
v -0.05419402 -0.02671438 -0.04920542
v -0.005826144 0.09028725 0.08225849
v 0.003094576 0.08830089 0.08948997
v 0.002880577 0.09071175 0.08137104
v -0.0106925 0.01674201 -0.1235012
v -0.01929683 0.01433032 -0.1050269
v -0.0524868 -0.05376837 -0.1235013
v -0.05345591 -0.05024205 -0.04934178
v -0.01925209 0.08267848 0.09453905
v -0.02071317 0.07746731 0.1019399
v -0.01116385 0.0787403 0.1046375
v -0.02358146 0.01244595 -0.1235013
v -0.02755681 0.01093582 -0.08852798
v -0.03778636 0.004893173 -0.05878392
v -0.004179278 0.08774478 0.09074458
v -0.03066184 0.008697532 -0.09688932
v -0.05043631 -0.05923796 -0.05276349
v -0.02841911 0.009841397 -0.1235013
v -0.05056713 -0.05894665 -0.1235012
v -0.01954937 0.01481996 -0.0870682
v -0.05468489 -0.04323135 -0.1235007
v -0.04800855 -0.06412385 -0.1235012
v -0.04723404 -0.06539799 -0.05395913
v -0.006107191 0.07022342 0.02254626
v -0.005236663 0.07611576 0.02800831
v -0.0006257668 0.07027961 0.02219197
v -0.04496577 -0.06895308 -0.1235013
v -0.03708644 0.003345266 -0.1235013
v -0.04344478 -0.07096899 -0.05541576
v -0.002011968 0.02088153 -0.05712695
v -0.03991927 -0.07510113 -0.1235012
v -0.009682147 0.01989865 -0.0581205
v -0.03740611 0.0778152 0.05770844
v -0.03035584 0.08356202 0.06234339
v -0.0278347 0.08340189 0.05432346
v -0.03647211 -0.07843957 -0.1235012
v 9.498931e-05 0.05779948 0.01263532
v -0.009825558 0.05801903 0.01413354
v -0.01751556 0.04330743 0.0020006
v -0.01774733 0.03446021 -0.01022053
v -0.0258913 0.03218578 -0.007264704
v -0.02096011 0.06997286 0.02698764
v -0.01100547 0.07029733 0.02352491
v -0.02427693 0.05835334 0.02090394
v -0.01176201 0.02415058 -0.03601246
v -0.003907011 0.02381564 -0.04145198
v -0.01487288 0.01927608 -0.05288467
v -0.04135351 0.07465561 0.05932015
v -0.03682386 0.07948662 0.06619364
v -0.02874326 0.08483683 0.06941918
v -0.02035051 0.08861763 0.06933391
v -0.0111615 0.08505229 0.09453946
v -0.04788611 0.03164168 0.03096846
v -0.05116184 0.02817728 0.03963518
v -0.04975906 0.04340226 0.05189726
v -0.007032958 0.03186781 -0.0197957
v -4.997477e-06 0.03463025 -0.01590656
v 7.236004e-05 0.02971351 -0.02560757
v -0.04459779 0.01113764 -0.0131267
v -0.04861978 -0.0044876 -0.03416318
v -0.04873839 0.009878151 -0.00285551
v -0.03089168 0.01278849 -0.04543178
v -0.04392413 0.04462512 0.0344404
v -0.04285176 0.03388033 0.02022126
v -0.046223 0.02776191 0.02025399
v -0.02946255 0.02502575 -0.01560132
v -0.02016091 0.02378844 -0.02936003
v -0.02987457 0.01914888 -0.02758838
v -0.05320802 0.002969749 0.001672834
v -0.05274626 -0.005751781 -0.01635037
v -0.05491449 -0.00268561 0.001082718
v -0.02670354 0.07582122 0.09980029
v -0.02438712 0.07272062 0.1053782
v -0.03587839 0.06967495 0.03879717
v -0.02540812 0.06985185 0.0294885
v -0.03332053 0.05889505 0.02910826
v -0.04357218 0.07340225 0.068845
v -0.03675421 0.009536352 -0.03932777
v -0.04298051 0.0008212402 -0.04649685
v -0.04745311 -0.006249707 -0.04749246
v -0.04015492 0.05313411 0.03414539
v -0.01614032 0.05822889 0.01638868
v -0.01027884 0.03864047 -0.007406533
v -0.03939874 0.06961501 0.04366162
v -0.04540853 0.0694534 0.0581055
v -0.04935244 0.05569198 0.06503531
v -0.04652089 0.06966104 0.0688225
v -0.03122437 0.04187838 0.01140296
v -0.02583259 0.04510776 0.009765148
v -0.03205701 0.03519621 0.004011571
v -0.05017168 0.01985364 0.02074656
v -0.05484295 0.007123861 0.01867518
v -0.04771873 0.04724836 0.04729393
v -0.02163251 0.01914771 -0.04134564
v -0.04090048 0.02372264 0.001078367
v -0.04576058 0.02151221 0.009042889
v -0.03737085 0.07508898 0.08749333
v -0.03135128 0.07713399 0.09289241
v -0.02593503 0.08088519 0.09204939
v -0.03034773 0.01653812 -0.03364387
v -0.0226214 0.08685647 0.0783996
v -0.01022193 0.09060607 0.07751018
v -0.01608563 0.02972741 -0.01966636
v -0.05274922 0.03764489 0.06802204
v -0.05498116 0.01681738 0.04782617
v -0.05500247 0.0218946 0.06974113
v -0.04316013 0.06966669 0.0510945
v -0.005870516 0.09142322 0.06101748
v 0.004477248 0.08984021 0.05254066
v -0.0371713 0.04047052 0.01762339
v -0.02856317 0.08027 0.04681709
v -0.02318242 0.08057167 0.04165959
v -0.006890696 0.04915126 0.004940271
v -0.05284216 -0.01784007 -0.04109451
v -0.03579487 0.01458024 -0.027366
v -3.717095e-05 0.0444945 -0.001344472
v -0.05490835 -0.01556824 -0.01890908
v -0.03563957 0.02942311 0.0006581247
v -0.03496899 0.02154214 -0.01389825
v -0.05377979 0.01998457 0.04149228
v -0.03263467 0.05170006 0.02274215
v -0.02012813 0.05032005 0.01120201
v -0.05419447 -0.02129176 -0.03475793
v -0.02655619 0.0695591 0.1067232
v -1.569279e-05 0.02655476 -0.03352144
v -0.0149511 0.08653189 0.08902952
v -0.004787616 0.08532616 0.041078
v 0.003731541 0.08423658 0.03891775
v -0.01321702 0.09068755 0.06981695
v -0.0007502511 0.09215065 0.0698581
v -0.03420639 0.07062271 0.09928319
v -0.04215221 0.009157009 -0.02433679
v -0.05491755 -0.02938559 -0.03593707
v -0.04358122 0.07038908 0.0838668
v -0.0304767 0.08191767 0.08248603
v -0.01932692 0.07490175 0.03108275
v -0.05034775 0.04625594 0.07905993
v -0.04593978 0.06953476 0.07613096
v -0.04994509 0.05210464 0.07438865
v -0.001068546 0.04136619 0.1210904
v -0.00592514 0.02722695 0.1231652
v 0.00104703 0.02666286 0.1235013
v -0.02997194 0.05347496 0.1086494
v -0.02631383 0.04275799 0.1136382
v -0.0489391 0.03883662 0.08840495
v -0.05218993 0.0243503 0.08594328
v -0.03954896 0.04643409 0.1014588
v -0.03602986 0.04201046 0.10647
v -0.03467392 0.06960769 0.09952116
v -0.04387227 0.04592942 0.09561089
v -0.04803768 0.02593556 0.09527171
v -0.01001645 0.04367093 0.1196911
v -0.0190691 0.04328892 0.1170766
v -0.01375177 0.02724494 0.1217384
v -0.03788029 0.02689384 0.1083595
v -0.04127327 0.0260933 0.1048927
v -0.02472849 0.02660307 0.1176553
v -0.04656463 0.0539527 0.08667144
v -0.0458705 0.02567171 0.0988785
v -0.03929342 0.06940159 0.09353155
v -0.05390497 0.02405851 0.07939303
v -0.05458102 0.02344345 0.07520455
v -0.005357066 0.06926614 0.1148236
v -0.001016188 0.05193675 0.1190323
v 0.006101649 0.06941893 0.1146877
v -0.01839216 0.06946394 0.111294
v -0.03111641 0.02651668 0.1138704
v -0.02553931 0.08442806 0.08318827
v -0.03913213 0.07733792 0.07374924
v -0.02465387 -0.02691994 0.01225963
v -0.01206632 -0.02968941 0.01252773
v -0.02170947 -0.0291765 0.01550218
v -0.05500019 -0.03174303 0.06750226
v -0.05461469 -0.03674137 0.06189033
v -0.05463408 -0.03674135 0.07509658
v -0.05263493 -0.02425493 0.05087635
v -0.05115955 -0.03674136 0.04827338
v -0.05306992 -0.03674119 0.05401677
v -0.04976757 -0.0252932 0.04291114
v -0.04473219 -0.03155248 0.03594071
v -0.04234587 -0.03674132 0.03337905
v -0.04603162 -0.02543437 0.03536782
v -0.03407113 -0.03673987 0.02531382
v -0.04152751 -0.02728271 0.02995139
v -0.004860405 -0.02843546 0.009012431
v -0.03770644 -0.02420922 0.01948175
v -0.007641397 -0.03674116 0.01402044
v -0.002671196 -0.03374932 0.01326641
v 0.005005386 -0.03674141 0.01371685
v 0.000745967 -0.03124594 0.0120565
v -0.03439401 -0.03077925 0.02458629
v -0.03529105 -0.02642157 0.02189016
v -0.003818966 0.07070635 0.1142904
v 0.003814196 0.07073683 0.114268
v -0.0001770221 0.07495476 0.1105484
v -0.03798743 0.075549 0.05194333
v -0.02254241 -0.03367748 0.01805186
v -0.02205468 -0.0367414 0.01810539
v -0.03099753 -0.02688134 0.001550138
v -0.01548898 -0.02882744 -0.0004072189
v -0.02124664 -0.02737743 0.005021185
v -0.04521984 -0.02000183 0.0276387
v -0.05005483 -0.01333319 0.03530115
v -0.05395276 0.000139568 0.04853141
v -0.05262599 -0.004050888 0.04020062
v -0.01836222 -0.03511009 -0.01113352
v -0.01940128 -0.03074069 -0.005339801
v -0.03322725 -0.02884938 -0.005327404
v -0.04163767 -0.02825966 -0.009514302
v -0.04476175 -0.0252963 -0.007402986
v -0.03670061 -0.03292963 -0.01343453
v -0.05016863 -0.0131452 0.007223934
v -0.04894256 -0.01151844 0.01856166
v -0.05176905 -0.004695494 0.01893547
v -0.05425353 0.007937461 0.04183766
v -0.05323428 0.002368271 0.02957076
v -0.05061072 -0.007804463 0.02978724
v -0.04608671 -0.01645264 0.01713008
v -0.04713815 -0.015709 0.02623498
v -0.01135681 0.07071704 0.1130196
v -0.03306817 -0.02538708 0.009292692
v -0.05249989 -0.03035433 -0.02769201
v -0.05118635 -0.02194885 -0.01342568
v -0.05210132 -0.00636778 0.01234436
v -0.03974652 -0.022562 0.01578006
v -0.03999446 -0.02299159 0.008107841
v -0.04206222 -0.03571782 -0.01974924
v -0.04815594 -0.03454702 -0.02439991
v -0.03973737 -0.04525733 -0.02644296
v -0.03447565 -0.03748034 -0.01766531
v -0.04757017 -0.02121832 -0.003627807
v -0.0534506 -0.01536748 -0.01040146
v -0.05486412 0.002275303 0.06136248
v -0.03146697 0.07417478 0.03943461
v 0.002193894 -0.03434423 -0.008859962
v 0.002192879 -0.03031416 -0.003098309
v -0.05075687 -0.03827066 -0.03144468
v -0.006495848 -0.03905353 -0.01307583
v -0.002319716 0.07997521 0.1046764
v -0.05300219 -0.04581032 -0.04078662
v -0.003914643 -0.0278632 0.004880637
v 0.01196479 -0.02832717 0.001694769
v -0.004031762 -0.07610758 -0.03279501
v -0.0113669 -0.07559969 -0.03353362
v 0.0003435835 -0.08124307 -0.03679581
v -0.01111054 -0.08913386 -0.05120607
v -0.03305404 -0.04143786 -0.02060592
v -0.0349781 -0.04769939 -0.02560617
v -0.007642635 -0.08151589 -0.03782623
v -0.01934284 -0.08490679 -0.047886
v -0.02372232 -0.08617491 -0.05553822
v -0.001980837 -0.08505687 -0.04118636
v -0.02947567 -0.07880698 -0.04568176
v -0.0160168 -0.07862523 -0.03748968
v -0.02246903 -0.06899329 -0.03196958
v -0.03592247 -0.07158575 -0.04140374
v -0.04090292 -0.0717842 -0.0488025
v -0.0248387 -0.06029422 -0.02789725
v -0.03477322 -0.06170848 -0.03287803
v -0.01036098 -0.08533476 -0.04333384
v -0.02301699 -0.07677142 -0.0387634
v -0.03318801 -0.06833819 -0.03630935
v -0.03536806 -0.07754385 -0.05067806
v -0.001788918 -0.09013522 -0.05036543
v -0.002242547 -0.08842288 -0.04657611
v -0.05102516 -0.05159887 -0.04145078
v -0.04229004 -0.0643395 -0.04059695
v -0.03994665 -0.05996808 -0.03508922
v -0.04753928 -0.05432805 -0.03822944
v -0.04591508 -0.06629652 -0.05040298
v 0.002123702 -0.04123566 -0.01424786
v -0.006581391 -0.04355321 -0.01578791
v -0.02056751 -0.03867725 -0.01476143
v -0.00515479 -0.0552693 -0.02107741
v 0.0006383564 -0.05787033 -0.02214287
v -0.01278708 -0.04638515 -0.01805855
v -0.0138303 -0.06147498 -0.02546665
v 0.005314097 0.08744659 0.04576004
v -0.009052604 -0.06906696 -0.02885734
v 0.000941379 -0.06733604 -0.02726912
v -0.02734094 0.07257705 0.033591
v 0.003883803 -0.09135766 -0.05467445
v 0.04485891 -0.03674147 0.03666517
v 0.03072549 -0.03674133 0.02286521
v 0.03966151 -0.03674145 0.03038314
v -0.03549258 -0.03674128 0.1105527
v -0.03136753 -0.03674126 0.1136967
v -0.02420376 -0.03674126 0.1179174
v -0.01883288 -0.03674127 0.1202021
v -0.04835402 -0.03674131 0.09477749
v -0.04307643 -0.0367413 0.1027645
v -0.03923467 -0.03674129 0.1070684
v -0.05263879 -0.03674133 0.0845935
v -0.05064318 -0.03674132 0.09000501
v 0.05124503 -0.03674136 0.0485248
v 0.05372365 -0.03674104 0.05673036
v 0.05499588 -0.03674139 0.06890556
v -0.01042536 -0.03674125 0.122528
v 0.002974171 0.08146483 0.1025695
v 0.002022596 -0.03674126 0.1234748
v 0.007322695 -0.03674126 0.1230353
v 0.01250243 -0.03674125 0.1220708
v 0.02421891 -0.03674127 0.117902
v 0.02879667 -0.03674128 0.1153704
v 0.03317635 -0.03674127 0.1123911
v 0.03767949 -0.03674129 0.1085906
v 0.04168176 -0.0367413 0.104409
v 0.04867202 -0.03674132 0.0941295
v 0.05167278 -0.03674133 0.08735651
v 0.0532584 -0.03674135 0.08230662
v 0.05477477 -0.03674137 0.07364544
v 0.0546468 -0.03674135 0.06229767
v 0.01793641 -0.03674142 0.01650232
v 0.01989197 0.01402599 -0.123501
v 0.0284936 0.009773396 -0.123501
v 0.05479142 -0.03234135 -0.1235007
v 0.0511 -0.01687997 -0.1235008
v 0.03580216 0.004482515 -0.1235009
v 0.04464176 -0.0051465 -0.1235008
v 0.04803488 -0.0104519 -0.1235008
v 0.05494131 -0.03990756 -0.1235006
v 0.05447563 -0.04489898 -0.1235007
v 0.05289556 -0.05234115 -0.1235007
v 0.04955504 -0.0610984 -0.1235006
v 0.04551312 -0.06812 -0.1235007
v 0.03893943 -0.07610964 -0.1235007
v 0.03532248 -0.07940959 -0.1235007
v 0.03146072 -0.08237664 -0.1235007
v 0.02597551 -0.08576056 -0.1235007
v 0.01962719 -0.08865719 -0.1235008
v 0.009633975 -0.09139638 -0.1235008
v 0.005213277 -0.09201674 -0.1235009
v 0.05389629 -0.02604208 -0.08958101
v 0.01644889 -0.08973421 -0.05883802
v 0.04108437 -0.0005351864 -0.1027183
v 0.01959653 0.01424061 -0.1029485
v 0.02755678 0.01047724 -0.1024252
v 0.008341188 0.01717526 -0.1041637
v 0.05104669 -0.05771727 -0.05223507
v 0.02025298 0.06945472 0.1104392
v 0.02785356 0.06944072 0.105819
v 0.02318163 0.07300071 0.105839
v 0.03101055 0.06951102 0.1032081
v 0.02998483 0.073792 0.09958926
v 0.03723571 0.0695262 0.09642291
v 0.04031748 0.07516915 0.07962361
v 0.04534052 0.06953865 0.07907557
v 0.0459266 0.07052114 0.07243499
v 0.04141881 0.06962918 0.08968833
v 0.04383285 0.06961477 0.08411342
v 0.01396534 0.07071804 0.1122614
v 0.01479402 -0.04198514 -0.0159537
v 0.01094409 -0.05786533 -0.0231217
v 0.01343619 -0.0893395 -0.05355209
v 0.01314924 -0.09064914 -0.05888231
v 0.02948464 -0.07288727 -0.03818932
v 0.02038647 -0.07048704 -0.03229113
v 0.01462854 -0.08270047 -0.0415161
v 0.05180355 -0.03906688 -0.03385581
v 0.04489198 -0.03592682 -0.02227764
v 0.04784209 -0.05031565 -0.03574109
v 0.02970917 -0.06878689 -0.03479743
v 0.03730361 -0.06007453 -0.03340629
v 0.02714401 -0.06366903 -0.03047605
v 0.004683785 -0.08432768 -0.04052334
v 0.009226937 -0.0857222 -0.0435262
v 0.02372309 -0.0843106 -0.05061252
v 0.0162313 -0.03334001 -0.008809596
v 0.02314989 -0.04071401 -0.01693358
v 0.02324255 -0.04752223 -0.02118023
v 0.003117271 -0.08902436 -0.04792203
v 0.05500246 -0.03730028 -0.04322284
v 0.05384462 -0.0433539 -0.04139841
v 0.05430886 -0.04598857 -0.04750532
v 0.03084015 -0.0768489 -0.04385188
v 0.03299481 -0.03558986 -0.01520862
v 0.007855142 -0.06802655 -0.02810033
v 0.04425554 -0.06838113 -0.05000947
v 0.04718914 -0.0613715 -0.04490958
v 0.03951707 -0.06788783 -0.04107213
v 0.01731382 -0.08447671 -0.04567711
v 0.05002353 -0.05140219 -0.03937581
v 0.02033164 -0.0599994 -0.02634591
v 0.03921427 -0.07302409 -0.0478919
v 0.03998245 -0.03868765 -0.02143429
v 0.04966119 -0.06088776 -0.05326368
v 0.0241075 -0.08667512 -0.05856971
v 0.007998137 -0.07385905 -0.03171778
v 0.03348371 -0.04906338 -0.02571937
v 0.01609074 -0.06863739 -0.02990301
v 0.03233025 -0.07893067 -0.04902343
v 0.03497637 -0.0787598 -0.05327463
v 0.05123873 -0.0310492 -0.02567448
v 0.0381384 -0.0768732 -0.05716127
v 0.04673019 -0.06623984 -0.05483976
v 0.006318292 -0.07958851 -0.03577155
v 0.02836671 -0.08436623 -0.05830705
v 0.04306576 -0.06244984 -0.03975141
v 0.006453384 -0.09186914 -0.05893677
v 0.04348145 -0.07089779 -0.05537316
v 0.04313353 -0.04499437 -0.02842599
v 0.0295739 -0.02661533 0.004100204
v 0.02736219 -0.02885879 -0.003082842
v 0.03567248 -0.03127775 -0.01070291
v 0.02333078 -0.03178117 -0.007785171
v 0.04201244 -0.02239067 0.005327612
v 0.04658479 -0.01963163 0.002868623
v 0.04424911 -0.01937955 0.01175162
v 0.05215598 -0.007775111 0.009189665
v 0.0527905 -0.01956664 -0.01459673
v 0.05490084 -0.01226662 -0.01425323
v 0.05150753 -0.004696991 0.02170032
v 0.04797657 -0.01412813 0.01449046
v 0.03755975 -0.02615364 -0.001390964
v 0.04589871 -0.02411333 -0.006738454
v 0.04302716 -0.02783057 -0.01005223
v 0.05100586 -0.02101116 -0.01142463
v 0.048894 -0.01559789 0.006276637
v 0.05499478 0.02182671 0.06953254
v 0.0541844 -0.004443184 0.05353698
v 0.05497877 0.01839172 0.05358812
v 0.05349947 -0.02810223 0.0552901
v 0.05245451 -0.006514532 0.04149467
v 0.05227198 -0.002611566 0.03431904
v 0.05435895 0.006557625 0.04876012
v 0.05200844 -0.0242193 0.04872358
v 0.05490702 0.0105233 0.0290398
v 0.04877882 -0.02631395 0.04121411
v 0.04591212 -0.02187884 0.03179097
v 0.05040325 -0.01386021 0.03732687
v 0.0493418 -0.01101484 0.02795625
v 0.04594649 -0.01652321 0.01859424
v 0.04085237 -0.02544834 0.02736425
v 0.04041336 -0.02271328 0.0209341
v 0.01324067 0.08534259 0.09294644
v 0.0207188 0.07990878 0.09835148
v 0.02088794 0.08244649 0.09371635
v 0.03664748 -0.02417384 0.01164231
v 0.03484593 -0.0257957 0.002722263
v 0.03016439 -0.02624159 0.01542279
v 0.03288426 0.08227623 0.06580403
v 0.03525437 0.07958264 0.07888895
v 0.03959806 0.07675533 0.07503653
v 0.03986148 0.07653981 0.0620937
v 0.02165136 -0.02710485 0.009493321
v 0.02718328 0.08544572 0.063811
v 0.03481073 0.07946759 0.05624187
v 0.01767605 0.08219718 0.04049876
v 0.02887077 0.08153509 0.05036363
v 0.02619862 0.07651467 0.03775197
v 0.05488771 0.00144751 0.008843869
v 0.009672638 0.09056286 0.07831097
v 0.01260836 0.08853225 0.08473411
v 0.0161436 0.08888754 0.07959613
v 0.006174773 0.09155635 0.06254205
v 0.01788916 0.07604471 0.1052966
v 0.02189373 -0.02803288 0.01400092
v 0.01718195 -0.03133253 0.01519564
v 0.04329643 -0.03058827 0.03375137
v 0.03710072 -0.02875425 0.02598715
v 0.02793519 -0.03064009 0.02003199
v 0.03494996 0.07215676 0.04060856
v 0.02960582 0.07054096 0.03318876
v 0.01177468 0.08918481 0.0539569
v 0.03190725 0.07745088 0.09151566
v 0.008077603 0.02724519 0.1228884
v 0.01619761 0.02719793 0.1210483
v 0.02348465 0.02663007 0.1182544
v 0.02828095 0.02661468 0.1156869
v 0.03168149 0.0270452 0.1134345
v 0.03936119 0.02620517 0.1069376
v 0.0190093 0.08648828 0.05151474
v 0.01493653 0.08601668 0.0466547
v 0.03254142 0.07906687 0.08696255
v 0.03797229 0.07432785 0.08795071
v 0.04258626 0.02648798 0.1032832
v 0.04662693 0.02557743 0.09767991
v 0.05043047 0.02544094 0.09040621
v 0.009044915 0.08467678 0.09609538
v 0.009671992 0.07800242 0.105968
v 0.01334313 0.0807557 0.1010641
v 0.05218447 0.02434807 0.08591428
v 0.0538985 0.02403943 0.07936206
v 0.05454953 0.02349637 0.0753082
v 0.05482301 0.003345549 0.01067844
v 0.03425671 0.006697997 -0.08042829
v 0.03521724 0.007287417 -0.05873258
v 0.02817652 0.01077347 -0.08391906
v 0.03095944 0.01050625 -0.06065232
v 0.0233491 0.01540148 -0.05717844
v 0.05473423 -0.03133351 -0.0477791
v 0.05229588 -0.01986519 -0.08690093
v 0.05305391 -0.02193597 -0.0575307
v 0.05135347 -0.01645818 -0.05800384
v 0.04095012 0.002307773 -0.051717
v 0.04389939 -0.003589548 -0.0877175
v 0.05283684 -0.05252245 -0.06238027
v 0.04811219 -0.009138308 -0.05848522
v 0.02823255 0.08479235 0.07428861
v 0.01336543 0.01675859 -0.08692369
v 0.01846149 0.01555077 -0.08093439
v 0.009595063 0.0192522 -0.06445694
v 0.01900748 0.08873842 0.06223175
v 0.02120993 0.08824284 0.07074028
v 0.01264675 0.01989883 -0.05281663
v 0.03390641 0.0772297 0.04803035
v 0.03619726 0.04502855 0.1055034
v 0.04473189 0.05295654 0.09123117
v 0.04189283 0.05314906 0.09604299
v 0.05165632 0.04067551 0.07729766
v 0.04905276 0.05670062 0.07395178
v 0.04947385 0.04140347 0.08562532
v 0.009671006 0.09133513 0.07086617
v 0.04651482 0.06946123 0.06647754
v 0.05169514 0.04299714 0.06537902
v 0.02252742 0.042833 0.1156426
v 0.0246354 0.05358525 0.1121233
v 0.04204436 0.0705405 0.0496749
v 0.007381517 0.05926218 0.1168966
v 0.01353186 0.05360945 0.1167907
v 0.02190855 0.08574479 0.08429298
v 0.02288287 0.07057463 0.02852169
v 0.006877221 0.02514657 -0.03584877
v 0.01331236 0.02375099 -0.03601058
v 0.03820454 0.06972746 0.04194391
v 0.04376767 0.04768594 0.03682894
v 0.0367883 0.01575738 -0.02237791
v 0.03682701 0.02850115 0.001181096
v 0.04033963 0.02056215 -0.005492896
v 0.02985154 0.01324309 -0.04648995
v 0.01970238 0.02260493 -0.03300488
v 0.02342856 0.02578354 -0.02134323
v 0.03772823 0.009373464 -0.03669769
v 0.04188368 0.003491063 -0.04118666
v 0.03649345 0.04005595 0.0161683
v 0.03100124 0.03257059 -0.001004845
v 0.03220233 0.04443319 0.01532632
v 0.04703813 -0.002242722 -0.03582798
v 0.04331125 0.008211907 -0.02310002
v 0.04893633 -0.0004195496 -0.02278177
v 0.05376465 0.02560985 0.05484411
v 0.04489388 0.06939449 0.05605593
v 0.05166301 0.01867519 0.02523899
v 0.02509757 0.05966949 0.02248561
v 0.03022915 0.05625676 0.02404487
v 0.02678466 0.0509436 0.01646522
v 0.04024923 0.03164363 0.01187029
v 0.04271208 0.04317921 0.03045368
v 0.04461927 0.03574786 0.02676469
v 0.02102402 0.03048882 -0.0145236
v 0.02185586 0.03897919 -0.0007816255
v 0.0520284 0.03123066 0.04974976
v 0.02184101 0.01827814 -0.04438691
v 0.05365315 -0.01326706 -0.02464457
v 0.05146925 -0.006266125 -0.02359594
v 0.003932592 0.02205563 -0.04892899
v 0.03574345 0.008278906 -0.04821242
v 0.04730763 0.03590745 0.03453931
v 0.04709151 0.04361571 0.04200214
v 0.03585261 0.05575787 0.02984908
v 0.03285652 0.01305582 -0.03864998
v 0.01061562 0.07988785 0.03372496
v 0.01257388 0.0491974 0.006535888
v 0.0159033 0.05787048 0.01600435
v 0.02447952 0.04308535 0.006375581
v 0.02939233 0.0250597 -0.01561926
v 0.05086128 -0.01248502 -0.04320186
v 0.04751004 0.01935722 0.01053837
v 0.04896402 0.02375112 0.02291378
v 0.01452777 0.03272142 -0.01501527
v 0.01695812 0.07545815 0.03060138
v 0.05319636 -0.01886521 -0.0398965
v 0.005859878 0.03744349 -0.01042524
v 0.009852979 0.0447614 0.0006360114
v 0.01141893 0.03102518 -0.01976341
v 0.01496653 0.03810965 -0.006198376
v 0.006157605 0.07027834 0.02260798
v 0.007115211 0.06262818 0.01731631
v 0.01117466 0.07290524 0.02590415
v 0.01818006 0.06990954 0.02565658
v 0.04468627 0.01708334 -0.001521438
v 0.04283502 0.07220978 0.05583215
v 0.008196663 0.07785814 0.03049263
f 1 2 3
f 4 5 6
f 2 1 7
f 8 6 9
f 10 11 12
f 13 14 15
f 5 16 17
f 13 18 19
f 20 7 1
f 16 21 17
f 21 22 17
f 4 6 8
f 20 1 23
f 5 24 16
f 12 11 25
f 11 26 27
f 26 28 29
f 30 31 32
f 33 34 35
f 36 37 38
f 39 40 32
f 41 42 43
f 37 44 38
f 42 45 43
f 46 47 48
f 10 49 50
f 42 36 45
f 36 38 45
f 44 51 52
f 53 54 55
f 56 57 50
f 20 23 58
f 39 32 31
f 10 50 28
f 59 47 46
f 57 56 60
f 51 61 52
f 10 28 26
f 30 60 62
f 26 11 10
f 39 31 58
f 51 63 61
f 28 50 64
f 44 37 65
f 50 57 64
f 43 3 2
f 63 66 61
f 66 67 61
f 68 69 70
f 66 71 67
f 72 20 31
f 71 73 67
f 74 27 26
f 71 75 73
f 28 64 29
f 30 32 60
f 74 26 76
f 77 78 79
f 75 9 73
f 75 80 9
f 20 58 31
f 60 32 57
f 30 72 31
f 26 29 76
f 41 43 2
f 57 40 64
f 57 32 40
f 64 40 29
f 68 81 82
f 83 84 85
f 86 87 88
f 89 90 91
f 92 93 77
f 14 94 95
f 53 55 96
f 97 98 99
f 100 101 102
f 103 104 105
f 106 39 58
f 107 108 109
f 33 35 69
f 106 58 23
f 110 111 112
f 113 114 115
f 116 117 54
f 118 119 120
f 121 93 92
f 122 123 124
f 90 74 76
f 118 120 125
f 87 68 126
f 127 100 84
f 107 109 97
f 86 88 119
f 118 125 128
f 68 82 126
f 129 130 131
f 132 133 134
f 87 126 88
f 135 113 136
f 129 137 99
f 89 91 138
f 139 103 140
f 141 142 143
f 111 138 144
f 90 76 91
f 95 145 146
f 133 85 134
f 100 147 84
f 148 149 150
f 119 88 120
f 111 144 112
f 128 107 151
f 151 137 129
f 152 153 18
f 132 134 154
f 155 79 156
f 102 89 100
f 81 157 82
f 122 23 123
f 105 104 158
f 105 158 114
f 112 159 110
f 81 160 157
f 114 161 115
f 154 134 162
f 23 1 123
f 128 125 107
f 110 159 163
f 126 82 157
f 104 43 158
f 148 99 164
f 76 29 91
f 91 40 138
f 163 159 139
f 88 165 120
f 126 157 166
f 140 105 109
f 114 167 161
f 124 3 104
f 154 162 108
f 116 168 117
f 102 169 89
f 99 98 164
f 170 53 96
f 87 69 68
f 35 171 172
f 151 107 137
f 114 158 167
f 104 3 43
f 109 135 97
f 109 105 135
f 124 1 3
f 120 165 125
f 126 166 133
f 158 45 167
f 138 106 144
f 91 29 40
f 87 33 69
f 173 174 152
f 147 111 84
f 100 89 147
f 126 133 88
f 169 90 89
f 138 40 106
f 85 110 134
f 141 175 142
f 148 164 149
f 43 45 158
f 139 159 176
f 167 177 161
f 140 103 105
f 134 110 162
f 129 99 130
f 160 127 157
f 162 139 108
f 139 176 103
f 170 59 46
f 147 89 111
f 88 132 165
f 45 38 167
f 167 44 177
f 166 157 83
f 88 133 132
f 108 140 109
f 97 135 136
f 144 122 112
f 167 38 44
f 83 133 166
f 116 54 53
f 85 84 110
f 112 122 159
f 34 19 171
f 97 136 98
f 125 165 108
f 170 96 59
f 135 114 113
f 141 178 175
f 160 101 127
f 105 114 135
f 141 143 179
f 165 154 108
f 98 136 164
f 157 127 83
f 165 132 154
f 116 175 168
f 130 99 148
f 106 40 39
f 84 111 110
f 162 110 163
f 108 139 140
f 106 23 144
f 164 136 149
f 107 97 137
f 113 115 136
f 133 83 85
f 125 108 107
f 89 138 111
f 159 124 176
f 159 122 124
f 127 101 100
f 127 84 83
f 176 104 103
f 180 156 33
f 176 124 104
f 144 23 122
f 123 1 124
f 137 97 99
f 162 163 139
f 68 70 81
f 181 182 183
f 184 185 186
f 168 187 188
f 189 181 190
f 191 192 193
f 131 130 183
f 194 189 195
f 196 197 198
f 199 191 200
f 193 192 187
f 196 198 185
f 197 188 201
f 202 181 189
f 191 194 200
f 194 195 203
f 202 194 204
f 174 46 48
f 197 201 198
f 204 178 202
f 204 191 193
f 194 191 204
f 188 187 199
f 183 130 148
f 194 203 200
f 195 189 190
f 190 181 205
f 205 183 206
f 207 208 209
f 187 192 199
f 183 148 206
f 146 170 46
f 207 210 196
f 206 148 150
f 208 207 196
f 131 121 92
f 210 197 196
f 188 211 201
f 178 182 181
f 208 196 184
f 192 191 199
f 178 181 202
f 188 199 211
f 179 143 212
f 210 168 197
f 194 202 189
f 184 196 185
f 168 193 187
f 182 131 183
f 178 141 213
f 181 183 205
f 93 213 94
f 168 188 197
f 214 215 216
f 217 218 219
f 220 221 222
f 223 221 220
f 221 223 224
f 78 94 14
f 221 224 225
f 223 226 224
f 227 224 228
f 229 215 214
f 230 214 216
f 34 13 19
f 231 232 233
f 215 234 232
f 227 228 235
f 180 33 87
f 34 171 35
f 215 229 234
f 216 235 236
f 218 220 222
f 224 227 225
f 224 226 228
f 237 238 239
f 235 228 236
f 240 77 79
f 241 227 235
f 236 228 230
f 242 227 241
f 241 235 216
f 231 242 241
f 230 216 236
f 241 216 215
f 231 241 215
f 232 231 215
f 243 244 245
f 246 223 247
f 248 249 247
f 250 251 252
f 253 252 254
f 255 252 253
f 256 257 258
f 95 146 173
f 259 248 149
f 249 259 260
f 247 249 261
f 261 249 260
f 262 230 246
f 263 262 246
f 262 263 257
f 264 237 239
f 265 245 214
f 266 254 267
f 256 258 268
f 265 269 270
f 265 243 245
f 251 244 243
f 261 257 263
f 243 252 251
f 260 136 268
f 271 272 273
f 250 252 255
f 274 250 255
f 275 256 267
f 267 276 266
f 92 129 131
f 267 256 268
f 218 248 220
f 276 268 115
f 115 268 136
f 220 247 223
f 247 220 248
f 248 277 149
f 256 262 257
f 15 173 152
f 266 276 161
f 223 246 226
f 249 248 259
f 278 155 156
f 226 246 228
f 250 279 280
f 262 256 275
f 230 228 246
f 263 247 261
f 79 14 13
f 272 266 281
f 161 276 115
f 260 259 149
f 136 260 149
f 272 253 254
f 250 282 279
f 230 269 265
f 230 265 214
f 271 253 272
f 177 266 161
f 55 239 283
f 55 264 239
f 266 272 254
f 214 245 229
f 281 266 284
f 229 245 285
f 254 270 275
f 280 286 244
f 257 261 258
f 284 266 177
f 280 244 251
f 271 274 255
f 86 180 87
f 265 270 243
f 275 269 262
f 255 253 271
f 270 269 275
f 251 250 280
f 150 277 217
f 252 243 270
f 252 270 254
f 149 277 150
f 240 79 155
f 263 246 247
f 276 267 268
f 258 261 260
f 248 218 217
f 254 275 267
f 286 285 244
f 278 156 180
f 258 260 268
f 217 277 248
f 230 262 269
f 94 212 145
f 285 245 244
f 287 288 289
f 92 77 240
f 290 17 22
f 291 273 292
f 289 288 293
f 294 295 290
f 289 293 296
f 294 297 295
f 290 5 17
f 288 298 293
f 288 299 298
f 300 301 297
f 302 292 303
f 290 295 5
f 290 304 294
f 296 293 304
f 305 299 306
f 298 294 304
f 297 301 307
f 308 309 290
f 281 284 310
f 311 300 312
f 273 272 313
f 35 172 69
f 311 313 310
f 300 311 301
f 311 314 301
f 314 311 310
f 94 145 95
f 310 61 314
f 295 6 5
f 299 305 298
f 302 306 299
f 292 273 303
f 279 282 315
f 293 298 304
f 282 316 315
f 296 304 309
f 273 312 303
f 310 284 61
f 282 250 317
f 316 318 315
f 284 44 52
f 302 303 306
f 94 179 212
f 284 52 61
f 318 319 315
f 295 297 307
f 298 305 294
f 273 313 312
f 317 320 282
f 316 282 320
f 313 272 281
f 143 116 53
f 316 320 318
f 250 274 317
f 295 307 6
f 143 53 170
f 317 291 320
f 318 320 321
f 317 274 291
f 171 18 322
f 319 323 324
f 307 301 9
f 278 240 155
f 319 318 323
f 325 278 180
f 307 9 6
f 303 312 306
f 78 14 79
f 320 302 321
f 304 290 309
f 294 305 297
f 301 314 73
f 320 291 302
f 318 321 323
f 306 300 305
f 301 73 9
f 314 61 67
f 314 67 73
f 308 22 326
f 305 300 297
f 324 323 287
f 291 292 302
f 306 312 300
f 323 321 299
f 323 288 287
f 182 178 213
f 284 177 44
f 308 290 22
f 281 310 313
f 312 313 311
f 142 175 116
f 274 273 291
f 93 94 78
f 323 299 288
f 321 302 299
f 271 273 274
f 128 278 118
f 325 119 278
f 118 278 119
f 237 264 207
f 210 264 168
f 86 325 180
f 168 175 193
f 204 193 175
f 18 15 152
f 175 178 204
f 264 210 207
f 207 209 237
f 9 80 8
f 24 5 4
f 37 36 65
f 49 10 12
f 56 50 49
f 60 56 62
f 30 62 72
f 65 51 44
f 327 328 329
f 54 168 264
f 233 227 242
f 233 242 231
f 218 221 233
f 222 221 218
f 330 218 331
f 331 218 332
f 332 218 333
f 333 218 233
f 334 218 335
f 335 218 336
f 336 218 330
f 146 46 174
f 219 218 337
f 337 218 338
f 338 218 334
f 339 233 327
f 340 233 339
f 341 233 340
f 143 142 116
f 333 233 342
f 59 283 343
f 342 233 344
f 54 264 55
f 344 233 345
f 345 233 346
f 346 233 347
f 325 86 119
f 347 233 348
f 348 233 349
f 349 233 350
f 350 233 351
f 351 233 352
f 352 233 353
f 353 233 354
f 354 233 355
f 355 233 341
f 327 233 328
f 341 340 356
f 328 233 357
f 225 227 221
f 221 227 233
f 42 41 65
f 8 65 4
f 80 65 8
f 151 129 92
f 75 65 80
f 51 65 63
f 117 168 54
f 36 42 65
f 65 49 12
f 65 12 25
f 71 65 75
f 66 65 71
f 358 65 25
f 359 65 358
f 63 65 66
f 360 65 361
f 121 213 93
f 362 65 359
f 363 65 362
f 59 55 283
f 364 65 363
f 151 92 240
f 361 65 364
f 365 65 360
f 366 65 365
f 367 65 366
f 368 65 367
f 369 65 368
f 370 65 369
f 371 65 370
f 372 65 371
f 95 173 15
f 373 65 372
f 65 20 72
f 7 20 65
f 374 65 373
f 375 65 374
f 376 65 375
f 21 65 376
f 65 72 62
f 16 65 21
f 24 65 16
f 19 18 171
f 4 65 24
f 65 62 56
f 2 7 65
f 41 2 65
f 145 170 146
f 65 56 49
f 361 377 360
f 374 378 375
f 362 379 363
f 380 381 359
f 358 380 359
f 382 380 358
f 151 240 128
f 25 382 358
f 11 382 25
f 383 368 367
f 384 385 386
f 386 385 387
f 386 387 388
f 388 387 389
f 237 209 238
f 390 391 392
f 393 394 391
f 393 391 390
f 238 209 395
f 212 143 170
f 396 315 397
f 378 398 399
f 128 240 278
f 400 401 402
f 403 404 405
f 406 401 400
f 407 408 406
f 402 409 410
f 121 131 182
f 411 398 378
f 412 396 413
f 414 396 397
f 410 409 415
f 308 415 309
f 416 417 418
f 397 315 319
f 419 400 402
f 96 55 59
f 420 412 413
f 397 319 421
f 413 396 414
f 422 423 424
f 425 402 410
f 156 13 34
f 415 308 326
f 319 324 421
f 417 426 383
f 427 397 421
f 410 415 398
f 422 424 428
f 420 413 429
f 414 397 427
f 383 426 430
f 431 411 378
f 418 417 383
f 407 406 424
f 421 324 432
f 413 414 433
f 419 402 425
f 79 13 156
f 427 421 434
f 424 406 400
f 182 213 121
f 430 423 422
f 432 324 287
f 425 410 398
f 428 435 436
f 77 93 78
f 433 429 413
f 434 421 432
f 289 432 287
f 437 403 417
f 433 414 427
f 438 428 436
f 173 146 174
f 398 415 326
f 430 422 439
f 403 405 426
f 432 289 440
f 438 436 441
f 426 405 442
f 422 428 438
f 424 400 419
f 427 434 401
f 443 326 22
f 417 403 426
f 439 422 444
f 444 422 438
f 440 289 409
f 409 289 296
f 442 407 424
f 433 427 408
f 434 432 401
f 445 429 433
f 404 429 445
f 401 432 440
f 213 179 94
f 398 326 399
f 408 427 401
f 445 433 407
f 419 425 411
f 428 424 419
f 399 326 443
f 401 440 402
f 145 212 170
f 14 95 15
f 402 440 409
f 433 408 407
f 406 408 401
f 445 407 405
f 405 407 442
f 426 442 423
f 442 424 423
f 411 435 419
f 426 423 430
f 436 435 411
f 431 436 411
f 441 436 431
f 409 296 309
f 428 419 435
f 404 445 405
f 396 279 315
f 409 309 415
f 411 425 398
f 446 286 447
f 280 279 412
f 448 449 420
f 447 412 449
f 450 451 452
f 453 454 455
f 453 456 457
f 450 458 459
f 450 459 451
f 460 461 459
f 429 404 460
f 460 404 461
f 461 404 437
f 461 437 454
f 462 451 454
f 459 458 460
f 453 462 454
f 463 464 465
f 460 448 429
f 448 420 429
f 404 403 437
f 417 416 437
f 341 356 463
f 213 141 179
f 464 463 356
f 356 466 464
f 437 455 454
f 464 467 468
f 464 468 469
f 464 469 465
f 470 467 466
f 13 15 18
f 437 416 455
f 465 469 471
f 472 473 474
f 474 473 475
f 412 447 280
f 468 471 469
f 476 477 478
f 33 156 34
f 479 480 481
f 450 482 483
f 468 475 456
f 449 412 420
f 478 484 482
f 468 456 471
f 485 486 487
f 485 487 488
f 478 452 476
f 478 482 452
f 286 489 285
f 490 485 491
f 286 280 447
f 489 446 484
f 450 483 458
f 476 456 475
f 447 449 448
f 492 493 494
f 448 458 447
f 462 453 457
f 458 448 460
f 476 457 456
f 453 455 495
f 466 467 464
f 474 470 472
f 474 467 470
f 456 495 471
f 468 467 474
f 475 468 474
f 473 477 475
f 47 59 343
f 477 476 475
f 451 459 461
f 456 453 495
f 496 497 498
f 152 174 499
f 446 447 483
f 451 461 454
f 457 452 451
f 451 462 457
f 482 484 446
f 458 483 447
f 286 446 489
f 395 384 500
f 476 452 457
f 482 450 452
f 412 279 396
f 482 446 483
f 501 502 234
f 480 386 388
f 234 229 285
f 356 340 466
f 340 339 466
f 466 339 470
f 339 472 470
f 339 503 472
f 339 327 503
f 327 329 503
f 502 233 234
f 478 477 504
f 503 329 504
f 328 505 329
f 473 504 477
f 504 329 505
f 494 506 507
f 489 501 285
f 285 501 234
f 472 503 473
f 473 503 504
f 153 499 508
f 504 505 501
f 328 502 505
f 328 357 502
f 505 502 501
f 478 504 501
f 357 233 502
f 509 480 388
f 501 484 478
f 234 233 232
f 501 489 484
f 335 336 200
f 336 199 200
f 48 47 497
f 336 330 199
f 330 211 199
f 330 331 211
f 331 201 211
f 331 332 201
f 332 333 201
f 333 198 201
f 333 342 198
f 342 185 198
f 342 344 185
f 344 186 185
f 344 510 186
f 344 345 510
f 345 346 510
f 346 511 510
f 346 512 511
f 346 347 512
f 347 513 512
f 347 348 513
f 487 390 392
f 348 514 513
f 500 386 480
f 153 152 499
f 348 349 514
f 349 515 514
f 349 350 515
f 508 516 517
f 350 351 515
f 518 509 519
f 351 520 515
f 351 352 520
f 352 521 520
f 217 219 150
f 219 206 150
f 352 522 521
f 352 353 522
f 219 205 206
f 523 524 525
f 219 337 205
f 353 526 522
f 353 354 526
f 337 190 205
f 337 338 190
f 354 527 526
f 354 355 527
f 355 528 527
f 338 334 195
f 338 195 190
f 334 203 195
f 355 341 463
f 355 463 528
f 334 335 203
f 335 200 203
f 471 495 529
f 529 495 455
f 530 381 531
f 531 532 533
f 532 531 381
f 48 497 496
f 533 532 534
f 374 373 431
f 430 439 369
f 439 444 369
f 523 525 479
f 360 377 535
f 377 536 537
f 360 535 416
f 365 360 416
f 366 365 416
f 441 372 371
f 418 366 416
f 361 538 536
f 361 536 377
f 539 379 531
f 531 379 530
f 540 379 539
f 530 362 359
f 481 480 509
f 444 370 369
f 322 508 517
f 438 370 444
f 438 371 370
f 537 535 377
f 441 371 438
f 343 524 523
f 541 367 418
f 375 378 399
f 431 378 374
f 361 364 542
f 538 361 542
f 443 375 399
f 376 375 443
f 542 540 539
f 22 376 443
f 21 376 22
f 383 367 541
f 364 363 542
f 543 486 485
f 518 519 390
f 367 366 418
f 544 545 380
f 430 368 383
f 441 431 373
f 343 239 524
f 382 11 27
f 542 363 540
f 382 27 544
f 382 544 380
f 538 537 536
f 430 369 368
f 27 546 544
f 380 545 381
f 372 441 373
f 547 498 548
f 379 362 530
f 381 545 532
f 363 379 540
f 546 549 544
f 546 27 74
f 493 491 550
f 545 544 549
f 545 534 532
f 530 359 381
f 534 545 549
f 418 383 541
f 520 551 515
f 552 553 521
f 153 508 322
f 552 521 522
f 554 555 556
f 557 496 498
f 551 385 514
f 393 389 553
f 558 555 559
f 512 560 511
f 561 560 513
f 552 393 553
f 385 561 514
f 559 555 554
f 394 393 552
f 514 561 513
f 550 491 562
f 559 528 463
f 554 528 559
f 554 556 527
f 555 558 392
f 515 551 514
f 493 490 491
f 526 556 522
f 513 560 512
f 528 554 527
f 389 551 520
f 563 209 208
f 527 556 526
f 564 209 563
f 395 209 564
f 553 389 520
f 391 394 556
f 384 395 564
f 521 553 520
f 556 394 552
f 510 208 184
f 555 391 556
f 563 208 510
f 385 384 561
f 497 481 565
f 564 563 510
f 392 391 555
f 560 564 511
f 384 564 560
f 557 498 547
f 566 494 507
f 510 184 186
f 564 510 511
f 556 552 522
f 387 385 551
f 561 384 560
f 389 387 551
f 549 567 568
f 569 562 570
f 283 239 343
f 571 572 573
f 574 575 576
f 539 577 578
f 579 580 581
f 582 583 584
f 465 559 463
f 585 586 558
f 585 559 465
f 529 587 471
f 588 589 590
f 172 322 517
f 591 592 593
f 594 595 580
f 596 586 585
f 572 580 579
f 549 568 597
f 569 550 562
f 486 390 487
f 598 599 529
f 546 600 549
f 531 601 539
f 497 479 481
f 539 578 582
f 597 568 575
f 602 603 596
f 604 569 570
f 542 539 582
f 574 576 605
f 606 517 492
f 607 608 609
f 608 588 590
f 172 517 606
f 605 576 577
f 585 558 559
f 581 590 589
f 322 18 153
f 572 579 591
f 577 610 571
f 592 604 570
f 603 586 596
f 542 582 538
f 581 589 604
f 609 608 590
f 602 596 587
f 535 598 529
f 611 582 584
f 584 612 613
f 613 593 602
f 611 584 599
f 518 390 486
f 538 582 611
f 547 548 490
f 547 490 493
f 549 597 534
f 614 594 576
f 615 492 494
f 567 169 102
f 597 575 574
f 610 594 580
f 616 599 598
f 617 160 618
f 102 619 568
f 613 602 587
f 617 618 607
f 576 594 610
f 611 599 616
f 612 593 613
f 455 535 529
f 587 596 471
f 581 604 592
f 101 160 617
f 615 494 566
f 571 573 583
f 599 613 587
f 90 169 567
f 595 607 609
f 609 590 581
f 533 597 574
f 616 598 535
f 534 597 533
f 537 611 616
f 591 593 612
f 567 102 568
f 537 538 611
f 524 395 500
f 620 617 607
f 471 596 585
f 535 537 616
f 548 565 543
f 518 481 509
f 577 571 583
f 416 535 455
f 571 610 580
f 575 619 614
f 491 485 488
f 471 585 465
f 573 572 591
f 575 568 619
f 621 622 70
f 488 487 392
f 620 607 595
f 602 570 603
f 599 584 613
f 579 581 592
f 90 567 600
f 621 623 624
f 573 625 584
f 615 606 492
f 571 580 572
f 592 570 602
f 622 621 624
f 609 581 580
f 584 625 612
f 574 605 601
f 81 70 622
f 614 617 620
f 622 624 608
f 625 591 612
f 573 591 625
f 624 615 566
f 74 90 600
f 507 569 604
f 588 624 566
f 601 605 577
f 570 562 603
f 603 562 586
f 600 567 549
f 531 574 601
f 608 624 588
f 172 171 322
f 533 574 531
f 101 617 619
f 566 507 589
f 565 481 518
f 593 592 602
f 578 577 583
f 619 617 614
f 614 620 594
f 594 620 595
f 589 507 604
f 575 614 576
f 74 600 546
f 160 81 618
f 583 573 584
f 525 500 480
f 588 566 589
f 595 609 580
f 618 81 622
f 599 587 529
f 577 576 610
f 539 601 577
f 102 101 619
f 591 579 592
f 622 608 607
f 618 622 607
f 578 583 582
f 562 626 586
f 569 507 506
f 626 558 586
f 543 565 518
f 494 550 506
f 500 384 386
f 47 343 523
f 174 557 499
f 517 516 492
f 548 543 490
f 47 523 479
f 479 525 480
f 623 615 624
f 239 238 524
f 488 558 626
f 47 479 497
f 557 48 496
f 492 516 493
f 509 388 389
f 508 547 516
f 174 48 557
f 491 626 562
f 498 497 565
f 519 393 390
f 499 547 508
f 499 557 547
f 498 565 548
f 623 606 615
f 494 493 550
f 509 389 519
f 490 543 485
f 543 518 486
f 488 392 558
f 389 393 519
f 70 69 627
f 70 627 621
f 491 488 626
f 621 627 623
f 627 69 172
f 627 172 606
f 525 524 500
f 516 547 493
f 506 550 569
f 627 606 623
f 524 238 395
