v 0.005271837 7.386506e-05 0.00623706
v 0.005407378 0.005185172 0.004109919
v -0.005407467 0.001277193 0.003544599
v 0.004041985 -0.006146535 -0.004743636
v 0.005407438 -0.005611256 0.004658222
v -0.00442864 -0.004588783 -0.00491026
v 0.005407467 0.003093764 -0.00623703
v 0.003213719 -0.002354443 -0.006147563
v -0.005002037 -0.0008520931 -0.003365159
v -0.005393341 0.001498416 -4.947186e-05
v 0.005001083 0.006146535 -0.001785338
v -0.005271897 -0.001700357 0.004143775
f 1 2 3
f 4 5 6
f 5 4 7
f 2 5 7
f 5 2 1
f 8 6 7
f 4 8 7
f 8 4 6
f 6 9 7
f 9 10 7
f 11 2 7
f 10 11 7
f 2 11 3
f 11 10 3
f 5 12 6
f 10 12 3
f 12 1 3
f 12 5 1
f 12 9 6
f 9 12 10
