v 0.006882802 -0.01362082 0.04003817
v 0.004169196 -0.01511836 -0.02380762
v 0.006887831 0.007720947 -0.04164714
v 0.0068838 0.0139937 0.04343641
v 0.001670741 -0.004811987 0.04034066
v -0.006887041 0.01502796 -0.03683299
v -0.006887756 0.004841283 -0.03808644
v 0.003364421 -0.01130524 -0.04360497
v -0.002592169 -0.003798589 -0.04195961
v -0.002279945 -0.003623471 -0.04204336
v 0.00167197 0.005374685 0.04159436
v 0.004825227 0.0151044 0.04244772
v 0.00599625 0.01443222 0.04360515
v 0.004823819 -0.01445892 0.03880972
v 0.002262652 -0.01296782 -0.04127699
v -0.006441332 0.01511829 -0.03835449
v -0.001990452 0.01466407 -0.03982463
v 0.005996168 -0.01408651 0.04009479
v 0.002954952 0.005046308 0.04278189
v 0.005118243 0.01491804 0.04301226
v -0.003734984 -0.004805401 -0.03961837
v 0.002536476 -0.01235345 -0.04271516
v -0.005246997 0.005454913 -0.04060221
v -0.005246028 0.01504163 -0.03942227
v -0.005594097 0.005385891 -0.04050091
v -0.005872361 0.01510443 -0.03906941
v 0.002924874 -0.01181307 -0.04334277
v 0.005115911 -0.01441438 0.03940183
v 0.001988627 -0.004843056 0.04092079
v 0.001988709 0.005264193 0.04216465
v 0.005500741 0.01470219 0.04333007
v -0.003348291 -0.004343629 -0.0410876
v -0.00559324 0.01508483 -0.03930733
v 0.003118344 -0.01157042 -0.04353875
v 0.002954692 -0.00478147 0.04157203
v 0.002409168 0.005163103 0.0424929
v -0.002841316 -0.00396508 -0.04174775
v 0.005499899 -0.01428232 0.03976241
v 0.002409346 -0.004824594 0.04126424
v -0.006442137 0.005122021 -0.03958499
v -0.005872793 0.005309075 -0.04027489
f 1 2 3
f 4 1 3
f 5 6 7
f 2 8 3
f 8 9 10
f 6 11 12
f 5 11 6
f 4 13 1
f 2 14 15
f 16 6 12
f 17 8 10
f 8 17 3
f 17 4 3
f 4 17 12
f 13 18 1
f 18 2 1
f 19 18 13
f 20 4 12
f 20 13 4
f 14 21 15
f 21 22 15
f 21 5 7
f 21 14 5
f 23 17 10
f 17 23 24
f 9 23 10
f 25 23 9
f 26 16 12
f 22 27 15
f 27 2 15
f 27 8 2
f 14 28 5
f 28 14 2
f 28 29 5
f 11 30 12
f 30 20 12
f 30 11 5
f 29 30 5
f 31 19 13
f 20 31 13
f 21 32 22
f 32 27 22
f 33 26 12
f 17 33 12
f 33 17 24
f 26 33 25
f 23 33 24
f 33 23 25
f 8 34 9
f 34 27 9
f 27 34 8
f 19 35 18
f 30 36 20
f 36 31 20
f 31 36 19
f 27 37 9
f 32 37 27
f 35 38 18
f 18 38 2
f 38 28 2
f 39 38 35
f 39 30 29
f 39 36 30
f 39 35 19
f 36 39 19
f 39 29 28
f 38 39 28
f 40 37 32
f 40 21 7
f 40 32 21
f 6 40 7
f 16 40 6
f 26 40 16
f 40 41 37
f 41 25 9
f 37 41 9
f 41 26 25
f 41 40 26
