v -0.0005353987 0.004793614 -0.02309591
v -0.0005353689 -0.004793614 -0.02309319
v -0.0005353987 -0.004609749 0.02309588
v -0.000535354 0.00462763 0.02309397
v 0.0005353987 0.004619107 -0.02165362
v 0.0005347729 -0.004618496 -0.02165216
v 0.0003266931 -0.004654497 -0.02250522
v 0.0004352629 0.00463663 -0.02222982
v 0.0004341751 -0.004635975 -0.02222699
v 0.0003280491 0.004655227 -0.02250651
f 1 2 3
f 4 1 3
f 5 4 3
f 2 6 3
f 6 5 3
f 7 2 1
f 7 6 2
f 6 8 5
f 7 9 6
f 9 8 6
f 8 9 7
f 10 7 1
f 10 8 7
f 8 10 5
f 4 10 1
f 5 10 4
