v -0.0005418509 -0.004583374 -0.03741178
v -0.0005418435 -0.004793487 0.03861523
v -0.0005418658 0.00479348 0.03861967
v -6.227195e-05 0.004575372 -0.03861591
v -6.252527e-05 -0.004504301 -0.03861967
v 0.0005418733 -0.004618376 0.03718543
v -0.0005417913 0.004653648 -0.03740779
v 0.0003264695 0.004654959 0.03803936
v 0.0003267154 -0.004654907 0.03803533
v 0.000541836 0.004619002 0.03718954
v 0.0004364327 0.004636809 0.03776306
v 0.0004357845 -0.004636392 0.03775859
f 1 2 3
f 1 4 5
f 4 6 5
f 7 1 3
f 1 7 4
f 8 7 3
f 4 7 8
f 2 9 3
f 9 8 3
f 6 9 5
f 9 1 5
f 1 9 2
f 10 4 8
f 10 6 4
f 9 11 8
f 11 10 8
f 10 11 6
f 12 9 6
f 11 12 6
f 12 11 9
