v -0.0005421615 0.004793718 -0.03861639
v 0.0003272123 -0.004654869 -0.03803846
v -0.0005421527 -0.004793704 -0.03861803
v -0.0005405443 0.004604131 0.03741089
v -6.024819e-05 -0.004554138 0.03861678
v 0.0005411943 0.004618287 -0.03718561
v -6.167265e-05 0.004525453 0.03861803
v -0.0005403641 -0.004633188 0.03740895
v 0.0003262092 0.004655182 -0.03803614
v 0.0005421615 -0.004618466 -0.03718686
v 0.0004361649 0.004636496 -0.03775951
v 0.0004363274 -0.004636496 -0.03776234
f 1 2 3
f 4 1 3
f 5 6 7
f 8 4 3
f 2 8 3
f 5 8 2
f 8 5 7
f 4 8 7
f 9 2 1
f 6 9 7
f 9 4 7
f 4 9 1
f 10 5 2
f 10 6 5
f 9 11 2
f 11 9 6
f 10 11 6
f 12 10 2
f 11 12 2
f 12 11 10
