v 0.001375601 0.0002140328 0.01286831
v -0.001639977 0.009934895 0.003410757
v 0.0008305907 -0.01002992 0.02825809
v -0.001391619 0.009915844 -0.01975495
v -0.0003317446 -7.927418e-05 -0.02825072
v -0.001219571 -0.0001850501 -0.02769312
v -0.001336977 -0.0001992434 -0.02741942
v -0.001457229 -0.000212118 -0.02684763
v -0.00180009 -0.009443037 -0.02684346
v 0.00180009 0.0001806095 -0.02689657
v 0.0006297231 0.004928701 -0.01443335
v 0.0006640255 4.0479e-05 -0.02825809
v 0.001173019 0.0001025051 -0.02789477
v -0.001681015 -0.009466439 -0.0274145
v 0.001419634 -0.01007661 -0.02689275
v 0.001174942 -0.01002754 -0.02750462
v 0.001552358 0.000149183 -0.02750948
v -0.001082182 0.01007661 -0.01675436
v 0.0004692078 0.005161114 -0.004371077
v -0.0006873459 -0.0096604 -0.028247
v 0.0002970248 -0.009853922 -0.02825329
v -0.001564786 -0.009488456 -0.02768835
v 0.0008003116 -0.009953246 -0.02789053
f 1 2 3
f 4 5 6
f 7 4 6
f 4 7 8
f 2 9 3
f 7 9 8
f 4 9 2
f 9 4 8
f 10 11 1
f 12 4 13
f 12 5 4
f 9 14 3
f 14 7 6
f 14 9 7
f 14 15 3
f 15 14 16
f 15 1 3
f 15 10 1
f 4 17 13
f 10 17 4
f 17 15 16
f 15 17 10
f 18 4 2
f 18 10 4
f 18 11 10
f 1 19 2
f 11 19 1
f 19 18 2
f 18 19 11
f 12 20 5
f 5 20 6
f 14 21 16
f 20 21 14
f 21 20 12
f 22 14 6
f 20 22 6
f 22 20 14
f 23 12 13
f 23 21 12
f 21 23 16
f 17 23 13
f 23 17 16
