v -0.0005415678 -0.004793055 -0.03861842
v 0.0005415529 -0.004618317 -0.03718817
v -5.76973e-05 -0.004552925 0.03861651
v -0.0005415678 0.004793055 -0.03861564
v -0.0005415529 0.004605655 0.03741035
v 0.0003219247 0.004655581 -0.03803632
v -6.222725e-05 0.004527029 0.03861842
v 0.000326544 -0.004653925 -0.03803825
v 0.0004315376 0.004636899 -0.03776011
v 0.0005377531 0.004618611 -0.03718591
v -0.0005372465 -0.004631173 0.03740862
v 0.0004362911 -0.004635945 -0.03776127
f 1 2 3
f 4 5 6
f 5 7 6
f 5 4 1
f 8 2 1
f 8 4 6
f 4 8 1
f 9 8 6
f 10 7 3
f 2 10 3
f 7 10 6
f 10 9 6
f 11 1 3
f 11 5 1
f 7 11 3
f 5 11 7
f 8 12 2
f 9 12 8
f 12 10 2
f 10 12 9
