v 0.001375616 0.0002140477 0.01286823
v -0.001639992 0.00993491 0.003410667
v 0.0008306056 -0.0100299 0.02825809
v -0.001391619 0.009915859 -0.01975501
v -0.0003317446 -7.926673e-05 -0.02825072
v -0.001219586 -0.0001850352 -0.02769333
v -0.001336947 -0.000199236 -0.02741945
v -0.001457214 -0.0002121106 -0.02684778
v -0.001800075 -0.00944303 -0.02684361
v 0.00180012 0.0001806244 -0.0268966
v 0.000629738 0.004928716 -0.01443347
v 0.0006640255 4.049391e-05 -0.02825814
v 0.001173019 0.0001025125 -0.02789494
v -0.001681 -0.009466432 -0.02741471
v 0.001419619 -0.0100766 -0.02689281
v 0.001174957 -0.01002754 -0.02750468
v 0.001552343 0.0001491904 -0.02750954
v -0.001082182 0.01007662 -0.01675451
v 0.0004692078 0.005161129 -0.004371226
v -0.0006873459 -0.009660393 -0.02824706
v 0.0002970248 -0.009853907 -0.02825344
v -0.001564771 -0.009488441 -0.0276885
v 0.0008002818 -0.009953238 -0.02789068
f 1 2 3
f 4 5 6
f 7 4 6
f 4 7 8
f 2 9 3
f 7 9 8
f 4 9 2
f 9 4 8
f 10 11 1
f 12 4 13
f 12 5 4
f 9 14 3
f 14 7 6
f 14 9 7
f 14 15 3
f 15 14 16
f 15 1 3
f 15 10 1
f 4 17 13
f 10 17 4
f 17 15 16
f 15 17 10
f 18 4 2
f 18 10 4
f 18 11 10
f 1 19 2
f 11 19 1
f 19 18 2
f 18 19 11
f 12 20 5
f 5 20 6
f 14 21 16
f 20 21 14
f 21 20 12
f 22 14 6
f 20 22 6
f 22 20 14
f 23 12 13
f 23 21 12
f 21 23 16
f 17 23 13
f 23 17 16
