v 0.00137563 0.0002140477 0.01286823
v -0.001639947 0.00993491 0.003410757
v 0.0008306205 -0.01002991 0.02825809
v -0.001391605 0.009915851 -0.01975501
v -0.0003317446 -7.926673e-05 -0.02825072
v -0.001219571 -0.0001850426 -0.02769324
v -0.001336962 -0.000199236 -0.02741942
v -0.001457199 -0.0002121106 -0.02684766
v -0.00180006 -0.009443037 -0.02684352
v 0.001800105 0.0001806244 -0.02689657
v 0.0006297529 0.004928701 -0.01443335
v 0.0006640404 4.049391e-05 -0.02825814
v 0.001173034 0.0001025125 -0.02789485
v -0.001680985 -0.009466432 -0.02741456
v 0.001419634 -0.0100766 -0.02689272
v 0.001174971 -0.01002754 -0.02750468
v 0.001552358 0.0001491904 -0.02750945
v -0.001082182 0.01007662 -0.01675448
v 0.0004692227 0.005161129 -0.004371166
v -0.0006873161 -0.0096604 -0.02824706
v 0.0002970546 -0.009853907 -0.02825338
v -0.001564771 -0.009488441 -0.02768841
v 0.0008003116 -0.009953238 -0.02789065
f 1 2 3
f 4 5 6
f 7 4 6
f 4 7 8
f 2 9 3
f 7 9 8
f 4 9 2
f 9 4 8
f 10 11 1
f 12 4 13
f 12 5 4
f 9 14 3
f 14 7 6
f 14 9 7
f 14 15 3
f 15 14 16
f 15 1 3
f 15 10 1
f 4 17 13
f 10 17 4
f 17 15 16
f 15 17 10
f 18 4 2
f 18 10 4
f 18 11 10
f 1 19 2
f 11 19 1
f 19 18 2
f 18 19 11
f 12 20 5
f 5 20 6
f 14 21 16
f 20 21 14
f 21 20 12
f 22 14 6
f 20 22 6
f 22 20 14
f 23 12 13
f 23 21 12
f 21 23 16
f 17 23 13
f 23 17 16
