v 0.0005419627 -0.004618496 0.03718546
v -6.09234e-05 -0.004523382 -0.03861853
v -6.116554e-05 0.004555911 -0.03861675
v -0.0005419664 0.004793704 0.03861856
v -0.0005410872 0.004634768 -0.03740913
v -0.000541836 -0.004793718 0.03861666
v 0.000326369 -0.004655018 0.03803608
v 0.0005410798 0.004618913 0.03718743
v -0.0005406141 -0.004602671 -0.03741127
v 0.0004362203 0.004636869 0.03776121
v 0.0004369318 -0.004636526 0.03775933
v 0.0003259443 0.004654735 0.03803763
f 1 2 3
f 4 5 6
f 2 5 3
f 7 4 6
f 7 2 1
f 8 1 3
f 5 9 6
f 9 5 2
f 9 7 6
f 7 9 2
f 8 10 1
f 10 5 4
f 5 10 3
f 10 8 3
f 11 7 1
f 10 11 1
f 7 12 4
f 12 10 4
f 11 12 7
f 12 11 10
