v 0.01794964 -0.002329588 0.05023515
v 0.01941937 -0.02012017 0.03788505
v 0.02326366 0.005273849 0.04581138
v 0.01776835 -0.01142557 -0.05120778
v -0.005984813 0.03051743 0.01582235
v 0.009362727 -0.01730061 -0.05162534
v 0.009744912 -0.01775575 -0.05191594
v 0.0221678 0.006070808 0.04663935
v -0.02300861 -0.01947521 0.03827511
v 0.002666712 -0.0248934 -0.04993528
v -0.0158841 -0.02872181 0.02496454
v -0.006951958 -0.01240917 -0.03196546
v 0.0122945 -0.01087336 0.05119519
v 0.01137871 -0.009779781 0.05189326
v 0.003889412 -0.01674837 0.05077761
v 0.001721889 -0.02957803 0.03498216
v 0.01101369 -0.02599514 0.03746659
v -0.005402744 -0.02033082 0.04829368
v 0.01129341 -0.01933078 -0.05019799
v -0.01421624 0.03008842 0.008549571
v 0.02135408 0.006437257 0.04681283
v 0.004794419 -0.02624524 -0.04962918
v -0.007546216 -0.03051743 0.03067465
v -0.01467064 -0.02127013 0.04398523
v 0.00521937 -0.02621764 -0.04866529
v 0.004062504 -0.02594942 -0.05024856
v 0.01052237 -0.01862545 -0.0518789
v -0.01508191 -0.01998201 0.044819
v -0.02316809 -0.01736715 0.03952745
v -0.02326366 -0.01822087 0.03921548
v 0.01077422 -0.00909622 0.05194934
v 0.002692401 -0.01474532 0.05154854
v 0.01104954 -0.01915264 -0.05120733
v -0.02262166 0.02421288 0.008131683
v -0.01463604 0.0304146 0.01004538
v 0.02100706 0.006557614 0.04681776
v 0.02066451 0.006611168 0.04669367
v 0.01690561 -0.001598194 0.05029109
v 0.01721269 -0.001797408 0.05032474
v 0.01661065 -0.001452342 0.05012619
v -0.006346017 -0.01749772 0.04898532
v -0.02255177 0.02442306 0.01118931
v -0.02291471 -0.01669261 0.03955735
v -0.01464087 0.02995208 0.01158178
v -0.02308363 -0.01701704 0.03959963
v -0.02271494 0.02457865 0.01089844
v -0.006320447 -0.01783243 0.04913732
v 0.002526522 -0.0144209 0.05150269
v -0.006241202 -0.01818943 0.04915959
v -0.01514491 -0.0187268 0.04503545
v 0.003100336 -0.02528957 -0.05023918
v -0.005987316 -0.01906037 0.04904531
v 0.003130615 -0.01554489 0.05148309
v -0.01471499 0.03028534 0.01094677
v -0.02279621 0.02463782 0.0105457
v -0.02288404 0.02464958 0.009636179
v 0.01030838 -0.008596927 0.05171634
v -0.01506865 -0.0183825 0.04493093
v -0.01515204 -0.01909345 0.04501724
v 0.003538877 -0.02560592 -0.05029261
v -0.0147123 0.03017239 0.01129597
v 0.0023987 -0.01412615 0.05132297
v 0.01052994 -0.008826822 0.05190058
v 0.01010394 -0.01816228 -0.05194932
f 1 2 3
f 4 5 3
f 2 4 3
f 6 4 7
f 5 8 3
f 8 1 3
f 9 10 11
f 10 9 12
f 6 10 12
f 13 1 14
f 13 2 1
f 15 16 17
f 16 15 18
f 2 15 17
f 13 15 2
f 15 13 14
f 19 4 2
f 20 4 6
f 4 20 5
f 21 8 5
f 8 21 1
f 22 23 11
f 16 23 22
f 23 9 11
f 23 24 9
f 23 16 18
f 24 23 18
f 16 25 17
f 25 16 22
f 25 2 17
f 19 25 22
f 25 19 2
f 26 22 11
f 26 27 22
f 28 24 18
f 28 29 30
f 24 28 9
f 28 30 9
f 1 31 14
f 31 32 14
f 33 27 4
f 19 33 4
f 27 33 22
f 33 19 22
f 34 20 6
f 34 6 12
f 9 34 12
f 20 35 5
f 36 5 37
f 36 21 5
f 38 36 37
f 21 39 1
f 39 31 1
f 39 36 38
f 36 39 21
f 5 40 37
f 40 38 37
f 41 42 43
f 44 42 5
f 42 40 5
f 45 42 46
f 43 42 45
f 41 47 48
f 47 32 48
f 32 47 49
f 50 47 41
f 47 50 49
f 10 51 11
f 51 6 7
f 51 10 6
f 52 32 49
f 52 28 18
f 28 52 49
f 53 15 14
f 32 53 14
f 52 53 32
f 15 53 18
f 53 52 18
f 35 54 5
f 55 54 35
f 29 55 30
f 55 45 46
f 55 29 45
f 34 56 20
f 56 35 20
f 56 55 35
f 55 56 30
f 30 56 9
f 56 34 9
f 57 42 41
f 42 57 40
f 58 41 43
f 58 50 41
f 58 43 45
f 50 58 45
f 59 28 49
f 50 59 49
f 28 59 29
f 29 59 45
f 59 50 45
f 60 26 11
f 51 60 11
f 26 60 27
f 42 61 46
f 61 42 44
f 61 55 46
f 55 61 54
f 61 44 5
f 54 61 5
f 62 41 48
f 57 62 48
f 62 57 41
f 63 57 48
f 32 63 48
f 63 32 31
f 63 39 38
f 39 63 31
f 40 63 38
f 57 63 40
f 60 64 27
f 4 64 7
f 27 64 4
f 64 51 7
f 64 60 51
