v -0.1172017 0.1946821 -0.2725477
v -0.1172001 -0.1946778 -0.2725488
v -0.1172052 0.1946824 0.2725523
v -0.1172048 -0.1946782 0.272552
v -0.115643 0.1946812 -0.2725467
v -0.1156448 -0.1946769 -0.2725466
v -0.1156482 0.1946824 0.2725532
v -0.1156482 -0.194678 0.2725532
vt 0.856122 -0.248432
vt 0.143886 -0.248435
vt 0.856123 1.24845
vt 0.856123 1.24845
vt 0.143886 -0.248435
vt 0.143886 1.24845
vt 0.285608 -0.0345974
vt 0.285605 1.03461
vt 0.288456 1.03461
vt 0.285608 -0.0345974
vt 0.288456 1.03461
vt 0.288453 -0.0345947
vt 0.285606 1.03461
vt 0.285607 -0.0345982
vt 0.288454 1.03461
vt 0.288454 1.03461
vt 0.285607 -0.0345982
vt 0.288454 -0.0345975
vt 0.856123 1.24845
vt 0.143886 1.24845
vt 0.856121 -0.24843
vt 0.856121 -0.24843
vt 0.143886 1.24845
vt 0.143888 -0.248429
vt 0.998567 0.178153
vt 0.00144178 0.178155
vt 0.998569 0.182428
vt 0.998569 0.182428
vt 0.00144178 0.178155
vt 0.00144559 0.182425
vt 0.00144386 0.17815
vt 0.998567 0.178152
vt 0.998569 0.182428
vt 0.00144386 0.17815
vt 0.998569 0.182428
vt 0.00144526 0.18243
f 1/1 2/2 3/3
f 3/4 2/5 4/6
f 2/7 1/8 5/9
f 2/10 5/11 6/12
f 3/13 4/14 7/15
f 7/16 4/17 8/18
f 7/19 8/20 5/21
f 5/22 8/23 6/24
f 4/25 2/26 8/27
f 8/28 2/29 6/30
f 1/31 3/32 7/33
f 1/34 7/35 5/36
