v -0.0008937418 -0.01374578 0.04066479
v 0.005014747 -0.01370907 0.03896534
v 0.001073956 0.0195536 0.02009892
v 0.00033167 0.0198127 -0.007011294
v -0.001562744 -0.00518015 -0.04015017
v -0.003410995 0.01072627 -0.01958346
v -0.002835661 -0.008686334 -0.03424817
v -0.0008446276 -0.008228183 -0.04066473
v -0.003257304 -0.01253137 -0.02837455
v 0.003506571 -0.008607984 -0.03912264
v 0.003157288 -0.00927031 -0.03804284
v -0.004887462 0.006082594 -0.004030108
v -0.004912108 0.005635291 0.001819968
v 0.004984051 -0.0112561 0.03743309
v 0.003370553 0.007328093 0.02621549
v 0.002510726 -0.01630256 -0.01429814
v -0.00395909 0.00931859 -0.01854438
v -0.001465261 -0.01269388 0.04016829
v -0.003108948 0.008348465 0.02741414
v 0.00189358 0.0187673 0.0183357
v 0.002746046 0.01101744 -0.01595056
v 0.005011678 -0.006181896 -0.03804827
v -0.001386821 -0.01253706 -0.03223944
v -0.003215939 -0.01627415 0.02956021
v -0.001793563 -0.01766318 0.03003025
v -0.002778947 -0.0130831 0.03410798
v -0.00278163 -0.01936132 0.01914543
v 0.004039198 -0.01606536 0.03849804
v 0.001204759 -0.01908904 0.0162639
v -0.004622757 0.005682647 0.01171613
v -0.003323585 0.007874936 0.0266605
v -0.004448712 -0.003900647 0.0165745
v 0.001135767 0.01980203 0.0188123
v 0.001044035 -0.01488289 -0.02390724
v -3.570318e-05 -0.01799428 -0.01136345
v -0.005005419 -0.01673305 0.006998658
v -0.004193485 -0.01572198 0.02171004
v -0.001018196 -0.01981273 0.008534014
v -0.004697502 -0.01447856 -0.01562309
v -0.004608691 -0.01847136 0.01131564
v 0.0007395446 -0.01935631 0.002848506
v -0.004808933 -0.01783293 -0.00569582
v -0.005014747 -0.01606447 -0.003409386
v -0.002854824 -0.01716426 -0.01667631
f 1 2 3
f 4 5 6
f 7 8 9
f 8 7 5
f 8 10 11
f 12 13 4
f 2 14 3
f 14 15 3
f 10 16 11
f 5 17 6
f 7 17 5
f 17 4 6
f 17 12 4
f 18 1 3
f 19 18 3
f 15 20 3
f 20 21 4
f 14 22 15
f 22 20 15
f 20 22 21
f 22 14 2
f 16 22 2
f 22 16 10
f 22 8 5
f 22 10 8
f 22 5 4
f 21 22 4
f 23 8 11
f 8 23 9
f 24 25 1
f 18 24 1
f 24 18 26
f 24 27 25
f 28 16 2
f 28 2 1
f 25 28 1
f 28 27 29
f 27 28 25
f 13 30 4
f 31 18 19
f 18 31 26
f 31 30 32
f 30 31 4
f 4 31 3
f 31 19 3
f 33 4 3
f 20 33 3
f 33 20 4
f 34 16 35
f 16 34 11
f 34 23 11
f 36 30 13
f 30 36 32
f 37 24 26
f 31 37 26
f 37 31 32
f 36 37 32
f 27 38 29
f 17 39 12
f 39 7 9
f 39 17 7
f 40 37 36
f 40 38 27
f 40 27 24
f 37 40 24
f 38 41 29
f 41 38 35
f 16 41 35
f 41 28 29
f 28 41 16
f 42 40 36
f 42 39 9
f 40 42 38
f 43 42 36
f 42 43 39
f 39 43 12
f 12 43 13
f 43 36 13
f 38 44 35
f 42 44 38
f 44 34 35
f 34 44 23
f 23 44 9
f 44 42 9
