v -0.001643598 0.0005044937 0.02332902
v -0.002559543 0.0005040467 0.02331597
v -0.002559632 -0.01057303 -0.008277118
v 0.002018541 0.005080253 0.02338266
v 0.002216637 0.006912142 0.009641469
v 0.0006101727 0.003249168 -0.005944312
v -0.00139153 0.008744478 0.00592792
v -0.001884758 -0.008652747 -0.02338266
v 0.001737684 -0.008653015 -0.02058285
v -0.001911223 -0.005903989 -0.02154815
v -0.002307832 0.008745581 0.005914569
v -0.001617312 0.01057306 0.02149123
v 0.002559602 -0.008654118 -0.01415581
v 0.001103073 0.008743614 0.0233683
v 0.0007689595 -0.003156573 -0.01692873
v -0.002559572 0.01057233 0.02331597
v -0.001989931 -0.00132525 -0.01605511
v 0.002520651 -0.001326889 -0.01140738
v 0.000253588 0.009658396 0.01877069
v -0.001166821 0.002333283 -0.009631276
f 1 2 3
f 2 1 4
f 5 6 7
f 8 9 3
f 10 8 3
f 8 10 9
f 11 12 7
f 9 13 3
f 13 1 3
f 1 13 4
f 5 14 4
f 10 15 9
f 2 16 3
f 16 11 3
f 11 16 12
f 16 14 12
f 16 2 4
f 14 16 4
f 17 10 3
f 11 17 3
f 17 15 10
f 18 5 4
f 13 18 4
f 18 13 9
f 15 18 9
f 18 6 5
f 18 15 6
f 19 14 5
f 14 19 12
f 19 5 7
f 12 19 7
f 15 20 6
f 17 20 15
f 6 20 7
f 20 11 7
f 20 17 11
