v 0.001238137 -0.005443811 -0.01355691
v 0.002182692 -0.005460739 0.01176738
v 0.001265645 -0.00544405 0.01176879
v 0.001402408 0.002598524 0.01355735
v -0.002336234 -0.001810551 0.01256717
v -0.002345353 -0.0007123947 -0.01345483
v -0.002275735 0.002858639 -0.004214801
v 0.002154112 -0.005460143 -0.01355735
v 0.002321005 0.004371643 -0.01137138
v 0.002102464 0.002227366 0.0122774
v -0.000438571 0.003723383 -0.01246459
v 0.0005094111 0.004897714 -0.0009401515
v -0.00230515 -2.360344e-05 0.01296315
v -0.002347827 -0.002505362 0.01147482
v 0.002347827 0.00546068 -0.003624417
f 1 2 3
f 2 4 3
f 4 5 3
f 6 5 7
f 2 8 9
f 8 2 1
f 6 8 1
f 2 10 4
f 11 6 7
f 12 11 7
f 8 11 9
f 11 8 6
f 5 13 7
f 13 5 4
f 13 12 7
f 12 13 4
f 14 6 1
f 14 5 6
f 14 1 3
f 5 14 3
f 15 12 4
f 10 15 4
f 11 15 9
f 15 11 12
f 15 2 9
f 15 10 2
