v -0.003018737 -0.01210606 -0.02437577
v 0.003376901 -0.01846528 -0.02438352
v -0.002936244 -0.01703447 -0.02344128
v 0.001870692 0.02181911 -0.02508441
v 0.001756072 0.02070278 0.02507737
v 0.002613068 0.02026534 0.02494642
v 0.002729416 0.02097362 -0.02450243
v 0.003621519 0.007890165 -0.0244644
v 0.004029095 -0.01675308 -0.02439108
v 0.002438009 -0.02100241 -0.01521382
v 0.002167583 -0.02181911 -0.002387464
v 0.002222002 -0.02178013 0.01042536
v 0.003263712 -0.01916778 0.02506438
v -0.003021896 0.008463502 -0.02443781
v -0.003767431 0.003877044 -0.01800683
v 0.00391537 -0.01745778 0.02505705
v -0.003476858 0.00689137 0.02135012
v 0.004036546 -0.01456416 0.02504686
v -0.002809167 0.008614659 0.02500579
v -0.002931178 -0.01484752 0.0250777
v -0.003751934 -0.01667917 -0.01427999
v -0.004036546 -0.01750445 -0.004204005
v -0.002727866 -0.01688582 0.02508441
v -0.003733516 0.001101077 0.01770371
v -0.003838539 -0.01954633 -0.006032914
v 0.003710389 0.005149364 0.02498832
v -0.003138542 0.007755816 0.02408907
v 0.0006018281 -0.02013314 0.01605049
v -0.003776073 -0.01950258 0.00860858
f 1 2 3
f 1 4 2
f 4 5 6
f 7 4 6
f 7 8 4
f 4 9 2
f 8 9 4
f 2 10 3
f 11 10 2
f 12 11 13
f 1 14 4
f 14 1 15
f 9 16 2
f 16 11 2
f 11 16 13
f 16 5 13
f 17 14 15
f 14 17 4
f 18 9 8
f 18 16 9
f 16 18 5
f 19 20 5
f 19 5 4
f 21 1 3
f 1 21 15
f 21 22 15
f 5 23 13
f 20 23 5
f 17 24 20
f 24 17 15
f 22 24 15
f 10 25 3
f 25 10 11
f 25 21 3
f 21 25 22
f 26 18 8
f 26 7 6
f 7 26 8
f 5 26 6
f 18 26 5
f 27 17 20
f 19 27 20
f 17 27 4
f 27 19 4
f 28 12 13
f 23 28 13
f 25 29 22
f 29 23 20
f 29 28 23
f 24 29 20
f 29 24 22
f 28 29 12
f 12 29 11
f 29 25 11
