v 0.007475883 0.033867 -0.09379178
v -0.01247573 0.01013482 -0.06668213
v -0.01247579 0.02913022 -0.06091243
v 0.01089755 -0.03839302 0.09355432
v 0.01247513 -0.051211 0.08587968
v 0.012476 -0.03351653 0.09425876
v 0.007475972 0.005120873 -0.09952152
v -0.01247585 -0.003115296 -0.06733954
v -0.01247519 0.03778911 -0.05600026
v 0.00747478 0.05570161 -0.08278605
v -0.01247495 0.05032444 -0.04517761
v 0.01247483 0.01487696 -0.09855753
v 0.01089814 0.02487326 -0.09767479
v 0.01247513 0.03386748 -0.09378999
v 0.007475913 0.09707177 -0.02399158
v 0.007475138 0.09048307 -0.04243016
v -0.0124754 0.06492567 -0.01937672
v -0.01247519 0.05644608 -0.0373261
v -0.01247418 0.06750941 -0.006366074
v -0.01247466 0.06267011 0.02615049
v 0.007475674 0.09420288 0.03392541
v -0.01247534 0.06652617 0.0134621
v -0.01247713 0.03773761 0.05650228
v -0.01247495 0.01334691 0.06659415
v -0.01247522 0.02603972 0.06275189
v -0.01247618 -0.05418158 0.0405131
v 0.00747636 0.0148741 -0.09855682
v 0.009151965 0.0479275 -0.08873945
v 0.007475644 0.04291821 -0.09003437
v 0.01247573 0.04729712 -0.08782935
v 0.01247686 -0.09211731 0.03841445
v 0.01247704 0.0831964 0.05575934
v 0.007475793 -0.07705939 0.06356329
v -0.01247543 -0.04768121 0.04805362
v -0.01247531 -0.03463185 0.05824921
v -0.01247567 -0.006485224 0.06756079
v -0.01247501 -0.0162909 0.06585425
v -0.01247415 -0.05605984 -0.0373767
v -0.01247567 -0.06455326 -0.01943225
v -0.01247492 -0.04271924 -0.052082
v 0.0124754 -0.08001959 -0.05929744
v 0.01247516 -0.07379937 -0.0668717
v 0.01247549 -0.06315041 -0.07699996
v 0.01089796 -0.07777286 -0.06395391
v 0.01089916 -0.06375408 -0.07792926
v 0.01089761 -0.08634937 -0.05182153
v 0.01247567 -0.09958482 0.005093813
v 0.01247534 -0.09862745 0.01484615
v 0.01089892 -0.1003315 0.009965241
v 0.01247647 -0.09384978 -0.03345573
v 0.01089796 -0.09773457 -0.02446279
v 0.0108982 -0.0931437 -0.03833443
v 0.01247531 -0.09921968 -0.009599298
v 0.01089799 0.07169688 -0.07104698
v 0.009152889 0.07152116 -0.07122409
v 0.01089838 0.08123565 -0.0599798
v 0.009153128 0.06026518 -0.08091739
v 0.01247412 0.07741332 -0.06309319
v 0.01247481 -0.05527627 -0.0828349
v 0.01247501 -0.03800642 -0.09205759
v 0.01089808 -0.05578637 -0.08381715
v 0.01089817 -0.04306686 -0.09101093
v -0.01247475 -0.02568543 -0.0622814
v 0.007475734 -0.004680872 -0.09952611
v 0.01089847 -0.02921128 -0.09637016
v 0.01247483 -0.02404976 -0.09666166
v 0.009153128 0.03897333 -0.09299031
v 0.009151518 0.01979697 -0.09881729
v 0.01089859 0.0981065 -0.02437609
v 0.00915277 0.1006601 -0.009739727
v 0.01089814 0.1006798 -0.009496689
v 0.01089796 0.09142554 -0.04300877
v 0.01247615 0.09423268 -0.03337032
v 0.007476121 0.08042634 -0.05922556
v -0.01247558 0.06774819 0.003584355
v 0.007475168 0.1000545 0.000279367
v 0.007475168 0.09956896 0.01006857
v 0.007476538 0.09705031 0.02454746
v -0.01247561 0.04799461 0.04809433
v -0.01247472 0.05641162 0.03784701
v 0.007476628 0.06350267 0.07746953
v 0.007475764 0.08037317 0.05976737
v 0.007476062 0.03378296 0.09428951
v 0.007475764 0.04283881 0.09054238
v 0.007476687 0.05148506 0.08592787
v 0.009153873 0.03426766 0.09528244
v 0.009152204 0.02454913 0.09822601
v 0.0108985 0.0003443956 -0.1007408
v 0.01089856 0.01515901 -0.09962541
v 0.01247513 -0.004680157 -0.0995248
v 0.007475287 0.02448952 -0.09663922
v 0.01089841 0.05641568 -0.08362979
v 0.01247543 0.05970919 -0.07996139
v 0.01089862 -0.09781265 0.02460688
v 0.01089901 -0.05606365 0.08409849
v 0.007475048 -0.03351259 0.09425953
v 0.01089752 -0.02906227 0.09688619
v 0.009152979 -0.03839266 0.09355563
v 0.007475793 0.005032539 0.09999472
v 0.009152114 -0.07110512 -0.07128519
v 0.009152442 -0.06003976 -0.08082259
v 0.007475495 -0.03800678 -0.09205872
v 0.007474899 -0.02404988 -0.09666216
v 0.007475406 -0.08546984 -0.05114987
v 0.007474422 -0.09009242 -0.04250807
v 0.009152979 -0.08097661 -0.05985311
v 0.01247641 -0.09009302 -0.04250765
v 0.01247472 -0.09777319 -0.01929247
v 0.01247638 0.09993196 0.005178034
v 0.01247451 0.09957922 -0.009511054
v 0.01247525 0.08586824 -0.05107439
v 0.01247647 0.07083178 -0.07035971
v -0.01247495 -0.01299238 -0.06612369
v 0.009152651 -0.009799838 -0.1002485
v 0.01089755 0.03897548 -0.09299052
v 0.007475108 0.09957898 -0.00951007
v 0.009152442 0.09810793 -0.02437672
v 0.007476866 0.08586788 -0.05107474
v 0.007475227 0.06728196 -0.07374188
v 0.01247385 0.07415164 0.06734267
v 0.01247585 0.06350374 0.0774684
v 0.007476002 0.07415009 0.06734174
v 0.009153098 0.08132851 0.06032166
v 0.007476002 0.08824122 0.04735541
v 0.009153426 0.09138668 0.04355997
v 0.009152055 0.06410432 0.07839733
v 0.009153605 0.005051136 -0.1006235
v 0.01247543 -0.09541416 0.02918494
v 0.007475734 -0.0901314 0.04289824
v -0.01247522 -0.0595032 0.03210142
v -0.01247439 -0.06353283 0.02300119
v 0.007475972 -0.08551514 0.05154327
v 0.007476211 -0.09541333 0.02918738
v 0.01089704 -0.09495389 0.03409517
v 0.007476062 -0.05935633 0.08042967
v 0.01089802 0.01015162 0.1007168
v 0.01089752 0.02478707 0.09816629
v 0.009151816 -0.01944685 0.09928668
v 0.007476628 0.01961994 0.09820247
v 0.0091528 0.009908319 0.1007411
v 0.009153247 -0.009642243 0.100734
v 0.007476807 -0.004767179 0.0999915
v 0.007474393 -0.059286 -0.08001345
v 0.007475346 -0.06686461 -0.0738011
v 0.009153903 -0.03853858 -0.09302464
v 0.009152979 -0.09492266 -0.03370824
v 0.007475972 -0.09538877 -0.02880025
v 0.00747481 -0.09777498 -0.01929274
v -0.01247504 -0.06739509 -0.003114432
v 0.007476151 -0.0992161 -0.009599447
v 0.00747624 -0.09958494 0.005093366
v -0.01247412 -0.06674826 0.01013243
v 0.009152442 -0.09968221 -0.01474759
v 0.009152293 -0.08891404 -0.04729569
v 0.01247597 0.09707272 -0.0239926
v 0.01089877 -0.009800911 -0.1002482
v 0.009153694 0.09343553 -0.03847891
v 0.007476956 0.07421148 -0.0668065
v 0.009153306 0.1006752 0.0100536
v 0.01089802 0.08669984 0.05229181
v 0.01089832 0.09340155 0.03903091
v 0.01247472 0.09243298 0.03849638
v 0.01089829 0.07504952 0.06798869
v 0.01089826 0.05613601 0.08428603
v 0.009152859 -0.1003048 0.01021025
v 0.009152114 -0.09308398 0.03894866
v 0.007475436 -0.05121076 0.08588034
v 0.007476658 -0.07047915 0.07082844
v 0.01247519 0.01961625 0.09820157
v 0.01247486 0.02912688 0.09582406
v 0.01247457 0.005032063 0.0999954
v 0.01247442 -0.01452184 0.09902734
v 0.007476479 -0.01452267 0.09902492
v 0.00747484 -0.07379878 -0.06687123
v 0.009153128 -0.02443445 -0.09769723
v 0.009153634 -0.04749274 -0.08878136
v 0.009152651 -0.1006799 -0.004641384
v 0.009152472 0.08687389 -0.05153227
v 0.009152323 0.09808528 0.02493152
v 0.01089734 0.09922719 0.01985797
v 0.01089817 0.1006755 0.0100553
v 0.01247481 0.09705043 0.02454627
v 0.009153426 0.07163417 0.07157952
v 0.009152293 0.04784572 0.08925211
v 0.009152174 -0.064013 0.0781855
v 0.01089752 -0.06757593 0.07510704
v 0.01247618 -0.06693006 0.07421106
v 0.01247454 -0.07705843 0.06356189
v 0.009151369 -0.08088076 0.06045181
v 0.01089823 -0.08373868 0.05639943
v 0.01247591 -0.08551669 0.05154338
v 0.007476479 -0.09779215 0.01967615
v 0.009153366 -0.09650052 0.02938849
v 0.0108979 -0.08895659 0.04768547
v 0.007476538 -0.04256666 0.09050366
v 0.009152919 -0.04757237 0.08920792
v 0.01089755 -0.009643435 0.1007336
v 0.00747624 -0.0241344 0.09710804
v 0.007475913 -0.08002162 -0.05929813
v 0.007475257 -0.04686558 -0.087872
v 0.0108982 -0.1003222 -0.009584785
v 0.01089814 0.04319715 0.09158927
v 0.009152353 -0.07134295 0.07151693
v 0.009151608 -0.08639133 0.05221599
v 0.01247504 0.04722023 0.08834088
f 1 2 3
f 4 5 6
f 7 8 2
f 9 10 3
f 11 9 3
f 12 13 14
f 15 16 17
f 16 18 17
f 17 18 3
f 18 11 3
f 19 15 17
f 20 21 22
f 23 20 22
f 23 24 25
f 23 17 3
f 2 23 3
f 8 23 2
f 26 23 8
f 27 7 2
f 28 29 10
f 10 29 3
f 29 1 3
f 30 12 14
f 31 32 6
f 26 33 34
f 35 26 34
f 23 36 24
f 36 35 37
f 36 23 26
f 35 36 26
f 38 39 40
f 39 8 40
f 39 26 8
f 41 42 43
f 42 41 44
f 43 42 45
f 42 44 45
f 41 46 44
f 47 48 49
f 47 31 48
f 50 51 52
f 50 47 53
f 47 50 31
f 54 55 56
f 54 57 55
f 57 28 10
f 58 54 56
f 59 60 43
f 59 43 45
f 61 59 45
f 59 61 62
f 60 59 62
f 8 63 40
f 7 64 8
f 60 65 66
f 65 60 62
f 29 67 1
f 67 29 28
f 1 67 68
f 67 13 68
f 69 70 71
f 72 69 73
f 55 74 56
f 18 74 11
f 19 75 76
f 75 77 76
f 77 75 22
f 75 19 17
f 23 75 17
f 75 23 22
f 21 78 22
f 78 77 22
f 20 79 80
f 23 79 20
f 79 23 81
f 79 82 80
f 24 83 25
f 83 84 25
f 85 23 25
f 84 85 25
f 23 85 81
f 86 83 87
f 83 86 84
f 88 89 12
f 13 89 68
f 89 13 12
f 90 88 12
f 90 60 66
f 30 90 12
f 60 90 43
f 90 30 43
f 1 91 2
f 91 27 2
f 91 1 68
f 27 91 68
f 30 92 93
f 57 92 28
f 92 54 93
f 92 57 54
f 48 94 49
f 4 95 5
f 35 96 37
f 97 4 6
f 97 98 4
f 36 99 24
f 44 100 45
f 101 61 45
f 100 101 45
f 102 63 103
f 104 105 38
f 105 39 38
f 46 106 44
f 106 100 44
f 46 107 52
f 107 50 52
f 107 46 41
f 107 41 43
f 30 107 43
f 108 50 53
f 50 108 51
f 109 110 71
f 110 69 71
f 111 72 73
f 111 58 56
f 72 111 56
f 54 112 93
f 58 112 54
f 111 112 58
f 112 111 73
f 112 30 93
f 112 109 32
f 109 112 73
f 112 107 30
f 107 112 50
f 31 112 32
f 50 112 31
f 113 63 8
f 63 113 103
f 64 113 8
f 113 64 103
f 64 114 103
f 13 115 14
f 67 115 13
f 115 30 14
f 115 67 28
f 92 115 28
f 115 92 30
f 70 116 76
f 116 70 15
f 116 19 76
f 19 116 15
f 70 117 15
f 69 117 70
f 118 18 16
f 118 74 18
f 9 119 10
f 119 9 11
f 119 57 10
f 57 119 55
f 120 121 32
f 122 79 81
f 79 122 82
f 122 123 82
f 124 125 21
f 82 124 80
f 123 124 82
f 124 123 125
f 124 20 80
f 20 124 21
f 85 126 81
f 127 89 88
f 114 127 88
f 89 127 68
f 127 64 7
f 127 114 64
f 127 27 68
f 27 127 7
f 31 128 48
f 128 94 48
f 129 130 131
f 132 33 26
f 130 132 26
f 132 130 129
f 133 129 131
f 134 128 31
f 128 134 94
f 135 35 34
f 136 137 87
f 137 86 87
f 97 138 98
f 139 83 24
f 99 139 24
f 83 139 87
f 140 99 141
f 140 139 99
f 140 136 87
f 139 140 87
f 142 99 36
f 99 142 141
f 143 144 40
f 101 144 143
f 144 101 100
f 145 65 62
f 51 146 52
f 39 147 148
f 105 147 39
f 146 147 105
f 149 39 148
f 150 149 148
f 149 151 152
f 149 150 151
f 131 149 152
f 130 149 131
f 39 149 26
f 149 130 26
f 153 150 148
f 153 146 51
f 147 153 148
f 153 147 146
f 106 154 104
f 154 106 46
f 154 105 104
f 154 46 52
f 146 154 52
f 154 146 105
f 155 109 73
f 155 110 109
f 69 155 73
f 110 155 69
f 65 156 66
f 156 90 66
f 90 156 88
f 156 114 88
f 15 157 16
f 117 157 15
f 157 69 72
f 157 117 69
f 74 158 11
f 158 119 11
f 158 74 55
f 119 158 55
f 78 159 77
f 77 159 76
f 159 70 76
f 70 159 71
f 123 160 125
f 160 161 125
f 162 160 32
f 161 160 162
f 120 163 121
f 163 126 121
f 163 120 32
f 160 163 32
f 163 160 123
f 126 164 121
f 94 165 49
f 133 166 129
f 135 167 35
f 33 168 34
f 168 135 34
f 137 169 170
f 169 137 136
f 171 169 136
f 169 171 6
f 32 169 6
f 121 169 32
f 172 97 6
f 171 172 6
f 173 138 141
f 142 173 141
f 173 36 37
f 173 142 36
f 106 174 100
f 174 144 100
f 174 38 40
f 144 174 40
f 175 102 103
f 175 145 102
f 145 175 65
f 114 175 103
f 175 156 65
f 156 175 114
f 61 176 62
f 176 145 62
f 101 176 61
f 176 101 143
f 150 177 151
f 153 177 150
f 177 165 151
f 165 177 49
f 178 157 72
f 178 72 56
f 178 118 16
f 157 178 16
f 74 178 56
f 118 178 74
f 179 159 78
f 159 179 180
f 179 78 21
f 179 161 180
f 125 179 21
f 161 179 125
f 181 180 109
f 181 159 180
f 181 109 71
f 159 181 71
f 180 182 109
f 109 182 32
f 182 162 32
f 161 182 180
f 182 161 162
f 163 183 126
f 183 122 81
f 126 183 81
f 183 123 122
f 183 163 123
f 184 126 85
f 184 164 126
f 184 85 84
f 86 184 84
f 185 186 95
f 168 185 135
f 187 186 188
f 95 187 5
f 186 187 95
f 5 187 6
f 187 31 6
f 132 189 33
f 189 190 188
f 190 191 188
f 187 191 31
f 191 187 188
f 165 192 151
f 151 192 152
f 192 131 152
f 192 133 131
f 193 166 133
f 192 193 133
f 134 193 94
f 166 193 134
f 193 165 94
f 193 192 165
f 194 166 134
f 194 191 190
f 194 134 31
f 191 194 31
f 195 96 35
f 167 195 35
f 96 195 98
f 98 196 4
f 196 95 4
f 195 196 98
f 196 195 167
f 196 185 95
f 196 167 135
f 185 196 135
f 197 172 171
f 197 171 136
f 138 197 141
f 197 140 141
f 140 197 136
f 197 138 97
f 172 197 97
f 173 198 138
f 198 96 98
f 138 198 98
f 96 198 37
f 198 173 37
f 199 106 104
f 199 174 106
f 199 104 38
f 174 199 38
f 145 200 102
f 176 200 145
f 200 176 143
f 102 200 63
f 200 143 40
f 63 200 40
f 201 47 49
f 177 201 49
f 47 201 53
f 201 177 153
f 201 153 51
f 201 108 53
f 108 201 51
f 202 184 86
f 202 137 170
f 137 202 86
f 184 202 164
f 185 203 186
f 203 185 168
f 186 203 188
f 203 189 188
f 203 168 33
f 189 203 33
f 189 204 190
f 204 194 190
f 204 189 132
f 194 204 166
f 204 132 129
f 166 204 129
f 164 205 121
f 202 205 164
f 205 202 170
f 169 205 170
f 205 169 121
