v -0.009239972 -0.001677684 0.06960423
v -0.008913338 -0.003170922 0.06980726
v -0.004854441 -0.002920315 0.06960145
v -0.01066637 -3.343076e-05 0.06939286
v -0.002178133 0.0002237931 0.06920417
v -0.005868554 -0.004037067 0.06897146
v -0.007120967 -0.00323844 0.0691666
v -0.003773391 0.001992129 0.06916431
v -0.02739936 0.0003360063 -0.004615694
v -0.02739948 0.003044441 -0.009014845
v -0.02693141 0.001324639 -0.005422249
v -0.009358108 0.00147783 0.06916742
v -0.003927052 0.003333353 0.06970875
v -0.006177902 0.00425604 0.06938823
v -0.009441972 0.002674438 0.0689687
v -0.00650841 0.003306597 0.06959119
v -0.009434104 0.002353899 0.07083385
v -0.007394314 0.003251247 0.07002842
v -0.009145617 -0.002018109 0.0700331
v -0.003638744 -0.00301189 0.07005788
v -0.006833553 -0.003822707 0.07083565
v -0.003654003 0.002008863 0.07003212
v -0.009437501 -0.00236132 0.07083435
v -0.002900004 0.0003856048 0.07075278
v -0.005977154 -0.000179112 0.06993343
v -0.006385565 -0.002167888 0.06993486
v -0.005553007 -0.001881212 0.06993359
v -0.004019022 0.001188457 0.06993391
v -0.004151404 0.0005909353 0.0699328
v -0.006833553 0.003813855 0.07083371
v -0.005999923 0.00257054 0.06993207
v -0.007399857 0.00118196 0.07083105
v -0.006234467 0.001830399 0.06993246
v -0.0273993 0.0003482625 0.04538418
v -0.02739954 0.003059633 0.04098976
v -0.02693135 0.002434358 0.04348011
v -0.008194983 0.0001889467 0.06993285
v -0.004865587 0.0009445772 0.06993265
v -0.007345796 0.001902089 0.06993246
v -0.008158863 0.001938313 0.06993231
v -0.006802797 0.0002082288 0.06993328
v -0.004052758 -0.0006910935 0.06993315
v -0.004871964 -0.0009597912 0.06993319
v -0.0273993 -0.0246577 0.02039054
v -0.0273993 -0.02194612 0.01599613
v -0.02693129 -0.02257173 0.01848622
v -0.007466733 -0.001405872 0.06993328
v -0.007358789 -0.001931049 0.0699337
v -0.007999718 -0.002124883 0.06993437
v -0.008989096 0.000218384 0.06993277
v -0.008418977 -0.0004266277 0.0699344
v -0.005947292 -0.002596788 0.06993347
v -0.004151344 -0.00131923 0.06993328
v -0.0273999 0.01585738 -0.008938491
v -0.02739996 0.00847172 -0.008819059
v -0.02690029 0.009255908 -0.008635029
v -0.02689898 0.01315108 -0.008772239
v -0.00660032 -0.0004172623 0.06993386
v -0.0273999 0.005384021 -0.00471963
v -0.02689713 0.006288514 -0.005833387
v -0.007632375 0.001273215 0.06993359
v -0.005638003 0.001752421 0.06993291
v -0.02689731 0.01610584 0.009197697
v -0.02689993 0.01294786 0.004750893
v -0.02690005 0.01033314 0.002500221
v -0.0268954 -0.02578671 0.03062049
v -0.02740002 -0.02353925 0.03658633
v -0.02689993 -0.02059572 0.03772084
v -0.02689934 -0.02620513 0.02862146
v -0.01789975 0.00749436 -0.007527038
v -0.01789975 0.01144614 -0.009061828
v -0.007883549 -0.003064416 0.06873371
v -0.00679636 0.003376998 0.06873216
v -0.009634495 0.002395965 0.06870955
v -0.00981617 -0.003485374 0.0681126
v -0.006735325 0.004868992 0.06809238
v -0.003082037 -0.0007657781 0.06873311
v -0.001647592 -0.001104772 0.06810899
v -0.01789975 0.007765546 0.0009092987
v -0.01789975 0.005767047 -0.003908798
v -0.0273999 0.006853327 0.0006954223
v -0.00572145 -0.004833743 0.06810735
v -0.003430724 -0.0038772 0.06810459
v -0.01789975 0.01346431 -0.008640692
v -0.009536624 -0.00256896 0.06163363
v -0.009892821 -0.002075545 0.06395401
v -0.009820461 -0.00349953 0.06480289
v -0.01789981 -0.006693736 0.03459346
v -0.0273999 -0.006182142 0.03449079
v -0.01789981 -0.0126949 0.02981658
v -0.001637995 -0.001106068 0.06480816
v -0.001598597 -0.00110665 0.06165335
v -0.02690005 -0.01441591 0.02783127
v -0.002502561 0.001093335 0.06163284
v -0.01789975 -0.02365736 0.03413929
v -0.01789987 -0.02577051 0.03068893
v -0.01083165 -0.002024628 0.0681168
v -0.01085621 -0.002024688 0.06481427
v -0.016734 -0.02408669 -0.01968335
v -0.01787531 -0.02021798 -0.02123554
v -0.01664472 -0.01686598 -0.0235052
v -0.009892881 0.002063267 0.06395285
v -0.01161683 0.002468377 0.06163236
v -0.009536684 0.002555817 0.06163231
v -0.00765115 0.005630016 0.06163163
v -0.005518615 0.005714528 0.06163159
v -0.01172984 -0.002265751 0.06163351
v -0.0094136 -0.004931696 0.0616342
v -0.0009697676 0.001921006 0.06163256
v -0.002017975 -0.003815986 0.06163399
v -0.005518615 -0.005727604 0.06163447
v -0.006940484 -0.005669288 0.05913416
v -0.01185656 -0.001562215 0.05913308
v -0.003144562 -0.004692867 0.05913396
v -0.0007846355 -0.0009443238 0.05913305
v -0.01773316 -0.009443283 -0.02535841
v -0.01666415 -0.005697846 -0.02649011
v -0.01671624 -0.01205418 -0.02517705
v -0.004398286 0.003489308 0.05913195
v -0.00314486 0.004678451 0.05913174
v -0.002939582 0.002103887 0.05913226
v -0.005767226 0.005663052 0.0591314
v -0.00840199 0.003488839 0.05913192
v -0.003181577 -0.002420194 0.05913338
v -0.01838243 -0.01422235 -0.02274038
v -0.01838839 -0.001344196 -0.02508727
v -0.01117241 0.003040105 0.05913217
v -0.01029205 0.001011036 0.05913255
v -0.004398286 -0.003503144 0.05913369
v -0.00840199 -0.00350333 0.05913375
v -0.007434845 -0.003413051 0.05413175
v -0.003746033 -0.002372369 0.05413418
v -0.002503514 -0.001011103 0.0545796
v -0.003746331 0.002355479 0.05413286
v -0.007193923 0.003454424 0.05413073
v -0.009428144 0.001851857 0.054133
v -0.01036936 -0.0006382763 0.05457701
v -0.001639903 0.001094162 0.06479953
v -0.00250268 0.001093976 0.06395653
v -0.003331304 0.003804512 0.06311378
v -0.006514311 0.004067764 0.06395084
v -0.004809856 0.004621163 0.0648025
v -0.009817719 0.003504336 0.06481192
v -0.001649916 0.001095101 0.06811306
v -0.0179072 0.01946031 -0.0215911
v -0.01837885 0.02718856 -0.01532787
v -0.01789999 0.0279424 -0.01597278
v -0.01819783 0.009151638 -0.02479492
v -0.01686001 0.005036011 -0.02654527
v -0.0167343 0.01982383 -0.02212332
v -0.01664436 0.02674772 -0.01778027
v -0.005663395 -0.004845209 0.06310214
v -0.003820539 -0.004174195 0.06481123
v -0.006929696 -0.00487145 0.06481153
v -0.01659238 -0.03253957 0.04676551
v -0.01837927 -0.03206154 0.04484177
v -0.01674771 -0.03722355 0.04058348
v -0.01661348 0.01245525 -0.02505891
v -0.01789981 0.000967361 -0.01048896
v -0.01789981 -0.002499104 -0.009201109
v -0.01789981 -0.002833694 -0.007670134
v -0.01789987 9.521842e-06 -0.00505048
v -0.01789987 0.002732702 -0.007422686
v -0.01789969 -0.0222005 0.0171708
v -0.01789981 -0.02562098 0.01986487
v -0.01789969 -0.02327578 0.01934038
v -0.01789981 -0.02358706 0.01474118
v -0.01789981 -0.02665268 0.0148761
v -0.01789975 -0.02773637 0.01782028
v -0.01789987 0.0009796843 0.03951079
v -0.01789975 -0.001238137 0.0396128
v -0.01789999 -0.002753377 0.04265778
v -0.01789975 2.983958e-05 0.0449242
v -0.01789975 0.002742857 0.04265328
v -0.01789981 0.02420485 0.01441902
v -0.01789975 0.02220008 0.01671977
v -0.01789981 0.02714649 0.01536259
v -0.01789987 0.02319735 0.01930547
v -0.01789981 0.02550409 0.01988034
v -0.01836407 -0.04236582 0.0196352
v -0.01806605 -0.0402094 0.001524821
v -0.01663077 -0.04325516 0.009018943
v -0.01789999 0.02727234 0.01872903
v -0.02740002 -0.0008462518 -0.01338038
v -0.02693141 -0.002469398 -0.009214699
v -0.02739942 -0.0003834516 -0.01111875
v -0.0273993 -0.003094964 -0.006724194
v -0.0268954 0.02608805 0.0047957
v -0.02739996 0.02350412 -0.002320915
v -0.02689999 0.02283732 -0.0009152293
v -0.02689999 0.01858535 -0.005272403
v -0.0273999 0.02805074 0.00513716
v -0.02689993 0.02604394 0.006857708
v -0.02739978 0.02277935 0.0114671
v -0.02690005 0.01916722 0.0111905
v -0.02739996 -0.02474304 0.02404895
v -0.02689952 -0.02584016 0.02657433
v -0.02689946 -0.02353422 0.02375348
v -0.02739996 -0.01737263 0.023306
v -0.0268997 -0.01998296 0.0229381
v -0.02740002 -0.01083593 0.03082201
v -0.0273999 -0.01589245 0.04320414
v -0.02689534 -0.01349248 0.04290839
v -0.02689564 -0.005918115 0.03890091
v -0.02689981 -0.005812898 0.03710118
v -0.0268994 -0.01149313 0.04332608
v -0.0273999 -0.008487381 0.04307421
v -0.01789987 0.01709997 0.01019387
v -0.01789981 0.01265982 0.004448965
v -0.0167526 -0.04227006 0.02935831
v -0.01686007 -0.04136794 0.03208067
v -0.01807582 -0.03701787 0.03924616
v -0.02689838 0.02307665 0.01076716
v -0.01789987 0.02450529 0.009716302
v -0.01819777 -0.04091246 0.03015569
v -0.01789981 0.02609659 0.004781842
v -0.01789981 0.01904323 0.01117329
v -0.01789981 0.02515164 0.002448231
v -0.01789981 0.0180193 -0.005730882
v -0.01789981 -0.005909324 0.03889824
v -0.01789975 -0.01356088 0.04289253
v -0.01789981 -0.01047854 0.0432243
v -0.01789987 -0.005847231 0.03674683
v -0.01789975 -0.008773699 0.04266913
v -0.01789981 -0.01607782 0.02515587
v -0.01789981 -0.02437771 0.02437507
v -0.01789981 -0.02125602 0.0229498
v -0.01789981 -0.01851681 0.023295
v -0.01789975 -0.02610376 0.02760684
v -0.01789981 -0.01862055 0.03953817
v -0.01673377 -0.04371105 0.0221967
v -0.01838255 0.0141869 0.05700576
v -0.01773304 0.009408303 0.059624
v -0.01664472 0.01683074 0.05777076
v -0.01671624 0.01201937 0.05944242
v -0.01838607 0.02708919 0.04965922
v -0.01787543 0.02018289 0.05550107
v -0.01669478 0.04397061 0.01790072
v -0.01836395 0.04233065 0.0146303
v -0.01664507 0.04359953 0.02286644
v -0.01661313 0.0302796 0.04903559
v -0.01673412 0.02405159 0.05394889
v -0.01819777 0.03515772 0.04171164
v -0.01838613 0.0391224 0.03304645
v -0.01659238 0.03250441 -0.01249997
v -0.01685995 0.03527498 0.04335779
v -0.01658833 0.03293372 0.04631384
v -0.01676142 0.0004189387 0.06110863
v -0.01666427 0.00566262 0.06075594
v -0.01666403 0.0389218 0.03760093
v -0.01817989 0.04215553 0.02511662
v -0.01683915 0.04262411 0.02787854
v -0.01679003 0.04093288 0.03315434
v -0.01686037 0.0392373 -0.002674699
v -0.01674759 0.03718866 -0.006317943
v -0.01838636 0.03330199 -0.008856371
v -0.01673377 0.04367612 0.01206894
v -0.01664448 -0.02678278 0.05204596
v -0.01669443 -0.02266552 0.05485003
v -0.01838571 -0.01858655 0.05519287
v -0.01819789 0.04087756 0.004109874
v -0.01675266 0.04223478 0.004907161
v -0.01669461 -0.04400541 0.01636492
v -0.01673412 -0.01745585 0.05751432
v -0.01819807 -0.009186551 0.05906053
v -0.0166136 -0.01249028 0.05932443
v -0.01685995 0.0413328 0.002184808
v -0.01838839 0.001309231 0.0593528
v -0.01686001 -0.005071059 0.06081091
v -0.01678997 -0.04096783 0.001111314
v -0.02729547 -0.0199624 0.001458213
v -0.01940054 -0.0205896 0.0002787113
v -0.02736849 -0.01958849 -0.002931923
v -0.01939797 -0.02045482 -0.001736239
v -0.01939881 -0.01736163 -0.003533468
v -0.02729905 -0.01494171 -0.001812413
v -0.01939988 -0.01468105 -0.000393495
v -0.02739984 -0.01722615 -0.003628075
v -0.01940089 -0.01897634 0.002187029
v -0.01666415 -0.03895694 -0.003335312
v -0.01815736 -0.01769952 -0.0005404502
v -0.01941782 0.01100077 0.006313011
v -0.01979429 0.008451767 0.003858298
v -0.0197674 0.004543714 0.00206697
v -0.01977158 0.0007179007 0.001408175
v -0.01978862 -0.01521906 0.02123629
v -0.01940173 -0.009900041 0.02887692
v -0.01970363 -0.01568477 0.01574177
v -0.01838326 -0.03472572 -0.007123783
v -0.01970363 -0.008177258 0.003685921
v -0.01941121 -0.01247112 0.008077905
v -0.0194115 -0.004119232 0.002291828
v -0.01975822 -0.01309685 0.00837262
v -0.01971877 -0.01298672 0.02602856
v -0.01979411 -0.008486949 0.03040726
v -0.02638996 0.02228179 -0.005177826
v -0.02640092 0.02789512 0.002482101
v -0.02640116 0.03087613 0.01086004
v -0.0273999 0.030066 0.02230197
v -0.02640104 0.03139875 0.01973706
v -0.02640092 0.02942177 0.02840675
v -0.0274002 0.02455868 0.0352907
v -0.02640045 0.02510244 0.03617844
v -0.01685995 -0.03530999 -0.009092271
v -0.0273999 0.02078722 0.03947356
v -0.02639645 0.02056468 0.0410101
v -0.02640104 0.01512441 0.04478179
v -0.02740002 0.009415455 0.04616278
v -0.02640122 0.01107358 0.04664148
v -0.0264011 0.002391167 0.04856454
v -0.02739996 0.0008112416 0.04764605
v -0.02640098 -0.006482117 0.04798676
v -0.0167613 -0.0004539862 -0.0268431
v -0.02640069 -0.01484072 0.04495411
v -0.02639651 -0.0226149 0.03911285
v -0.02640545 0.007835187 0.003452361
v -0.02640301 0.01196276 0.006871998
v -0.02639878 0.003041305 0.001670018
v -0.02640986 -0.001697801 0.001433983
v -0.02739978 -0.007033952 0.001903236
v -0.01658821 -0.03296885 -0.01204835
v -0.02639914 -0.009304583 0.004382357
v -0.02739984 -0.0118885 0.00526765
v -0.02640814 -0.01393548 0.009709254
v -0.0273999 -0.01616383 0.01262836
v -0.02639836 -0.01573111 0.01837167
v -0.02739984 -0.01654823 0.0199717
v -0.0264045 -0.01375765 0.02488203
v -0.02640295 -0.01199799 0.02739371
v -0.01839978 -0.02811091 0.03352147
v -0.01840007 -0.02495238 0.03805737
v -0.01839995 -0.004483379 -0.01508407
v -0.01839995 -0.02092314 -0.007783279
v -0.01839995 -0.02926995 0.002914339
v -0.01839978 -0.01335564 0.04679666
v -0.01839995 0.004448108 0.04934952
v -0.01839995 0.03202578 0.02270812
v -0.01839995 0.02923482 0.03135131
v -0.01839989 0.009048365 -0.01410279
v -0.01838583 -0.02712433 -0.01539356
v -0.01839989 0.02807599 0.0007439554
v -0.01840001 0.03231801 0.01363045
v -0.01839983 0.01318269 0.04685847
v -0.01839989 0.01733092 -0.01037838
v -0.01839978 -0.03206088 0.01155758
v -0.01839995 -0.03154746 0.0251154
v -0.01840007 0.0241624 0.03888595
v -0.01661313 -0.03031453 -0.01477011
v -0.01940048 0.02480978 -0.002293274
v -0.01940054 0.01939607 -0.007704169
v -0.01940066 0.02923598 0.005385607
v -0.01940048 0.03147975 0.01843369
v -0.01940054 0.0298726 0.02714971
v -0.01940054 0.02312349 0.03853977
v -0.01940036 0.01946395 0.04193524
v -0.01940024 0.0112607 0.04657012
v -0.01940012 0.002620317 0.0485462
v -0.01940006 -0.00622873 0.04803886
v -0.01939988 -0.01458673 0.04508786
v -0.0193997 -0.02306873 0.03862378
v -0.02739942 0.02534217 0.02037831
v -0.02739984 0.0152154 0.02414159
v -0.0273999 -0.02082255 -0.005207881
v -0.02739954 -0.003082551 0.04327554
v -0.02739948 0.02191106 0.01826951
v -0.0273999 0.01651303 0.01429375
v -0.0273999 -0.01834865 0.00250344
v -0.02739984 0.009661928 0.03081676
v -0.0273993 0.001130074 0.03906076
v -0.02740002 -0.03010118 0.01196361
v -0.0273999 -0.03033349 0.02069135
v -0.0273993 -0.0280887 0.01828183
v -0.02693146 -0.02746302 0.01579185
v -0.02737117 -0.01576706 0.0018242
v -0.02739942 -0.02387619 0.01406717
v -0.02693135 0.02253674 0.01577958
v -0.0273999 -0.009450495 -0.01189737
v -0.02740002 -0.0245938 -0.001025096
v -0.02739948 0.0261236 0.01405479
v -0.02692944 0.02773658 0.01758289
v -0.01939726 -0.01565369 0.001685008
v -0.02693921 -0.001590878 0.03980085
v -0.01940691 0.01507819 0.02016988
v -0.01941019 0.001024649 0.03249077
v -0.01970381 0.009446338 0.02969618
v -0.01975811 0.01306146 0.02589297
v -0.01971245 0.01422928 0.01048528
v 0.0212003 0.03481582 -0.009786978
v 0.02119988 0.03198378 -0.01307885
v 0.02120024 0.03773037 -0.005520567
v -0.0197674 -0.004578888 0.03219859
v 0.02120048 0.04012464 -0.0009414256
v 0.02120024 0.0419665 0.003887877
v 0.02120006 0.04322948 0.008899331
v 0.02119517 0.04394842 0.01461525
v 0.02120018 0.04388504 0.02040632
v 0.02159917 0.04317563 0.02564429
v 0.02159905 0.04185901 0.03071401
v 0.02159894 0.03994967 0.03559159
v 0.02159899 0.03747405 0.04020798
v 0.02159894 0.03446856 0.0444973
v 0.02120042 0.03091977 0.04845397
v 0.02159899 0.02704152 0.05185857
v 0.02120036 0.02374198 0.05419499
v 0.02120048 0.01915336 0.05676356
v 0.02120054 0.01429112 0.05876677
v 0.02120066 0.009224966 0.06017575
v 0.0212003 0.004027143 0.06097047
v 0.02120042 -0.001228102 0.06114021
v 0.02120012 -0.009052798 0.06021976
v 0.02119929 -0.0140979 0.05884448
v 0.02120328 -0.01957905 0.05658849
v 0.0212003 -0.02470192 0.05358544
v 0.02120006 -0.02887186 0.05038244
v 0.02119994 -0.03201903 0.04734458
v -0.01975697 0.003796197 0.03240474
v 0.0212003 -0.03485143 0.0440522
v 0.02120036 -0.03776556 0.0397858
v 0.02120036 -0.04015987 0.03520659
v 0.02720106 -0.03776562 0.03978461
v 0.02740002 -0.04237886 0.0283605
v 0.02720082 -0.02741022 0.05159517
v 0.02740002 -0.02329818 0.05430548
v 0.02120006 -0.04200148 0.03037737
v 0.0212 -0.04326458 0.02536604
v 0.0272007 -0.04397327 0.01972906
v -0.0197717 -0.0007530823 0.0328574
v 0.02740002 -0.03572182 0.04254475
v 0.02119511 -0.04398337 0.01965024
v -0.01978815 0.01562366 0.01532753
v 0.02724749 -0.01045692 0.05987042
v 0.02539992 -0.01665413 0.05732562
v 0.02240002 -0.01757824 0.05694294
v 0.02740002 -0.03711531 -0.006198362
v 0.02740002 -0.04296978 0.008433804
v 0.02720046 -0.04194381 0.003705814
v 0.02720106 0.009639613 0.06008439
v 0.02739984 0.003425598 0.06082174
v 0.02740002 0.01862633 0.05679372
v 0.02720082 0.03541519 0.0432598
v 0.02740002 0.03779086 0.03929405
v 0.02720076 0.02825388 0.05087921
v 0.02740014 -0.0173614 -0.0231138
v 0.02720082 -0.02364069 -0.02001669
v 0.02719641 -0.03186755 -0.01326562
v 0.02740002 0.04318011 0.02451797
v 0.02740002 -0.00200773 -0.02664652
v 0.02720094 -0.009066954 -0.02595125
v 0.0272004 0.0423132 0.02922419
v 0.02740002 0.04196795 0.004570991
v -0.0264011 0.01461931 -0.01078728
v 0.02739984 0.01851095 -0.02258243
v 0.02720112 0.03514846 -0.009352744
v 0.02720088 0.03806149 -0.004960209
v -0.02640092 0.006239921 -0.0137641
v 0.02720076 0.01557132 -0.02403873
v -0.02640092 -0.002637483 -0.01428215
v -0.02640092 -0.01130611 -0.0123006
v -0.02640069 -0.01907562 -0.00797765
v 0.02720058 0.02905466 -0.01592617
v -0.02639651 -0.02390488 -0.00343743
v -0.02640092 -0.02767415 0.002004325
v 0.02720094 -0.0007634163 0.06115052
v -0.02640092 -0.02953161 0.006056339
v -0.02640104 -0.03145058 0.01473939
v 0.02719545 0.04400557 0.01828761
v 0.02720082 0.04339898 0.009843439
v -0.02640092 -0.03086818 0.02361265
v 0.02720082 0.001415074 -0.02686778
v 0.0212003 -0.04395277 0.01451661
v -0.02640092 -0.02783146 0.03196976
v 0.02120048 -0.04228338 0.004814252
v 0.02120018 -0.04051287 -0.000137493
v 0.02120042 -0.03816439 -0.004843161
v -0.02640444 0.01372232 0.009383425
v 0.0212003 -0.0352718 -0.009235039
v -0.02639836 0.01569595 0.01589385
v 0.02120036 -0.0318762 -0.01325066
v 0.02120066 -0.02802633 -0.01683246
v 0.02120054 -0.02377643 -0.01992963
v -0.02640814 0.01390048 0.02455622
v 0.02120054 -0.01918782 -0.02249821
v 0.02120054 -0.009259686 -0.02591041
v 0.02120066 -0.004061818 -0.02670509
v -0.02639937 0.009269603 0.0298831
v 0.02120066 0.001194008 -0.02687477
v -0.02640998 0.001662575 0.03283158
v 0.02120054 0.006432578 -0.02641618
v 0.02120066 0.01157862 -0.02533659
v -0.02639884 -0.003076501 0.03259559
v 0.02120036 0.01655937 -0.02365103
v 0.02120024 0.02130394 -0.02138336
v -0.02640557 -0.007870153 0.03081304
v 0.0212003 0.02574409 -0.01856647
v 0.02120012 0.02930626 -0.01568809
v -0.01940048 0.007485442 -0.01348548
v -0.01940054 -0.001334041 -0.01436383
v -0.01940036 -0.01004946 -0.01275246
v -0.01940054 -0.02143604 -0.005997449
v -0.01940036 -0.02482986 -0.002336234
v -0.01940036 -0.02946047 0.005869031
v -0.01940018 -0.03143231 0.01451023
v -0.0194 -0.03092052 0.0233593
v -0.01939988 -0.02796526 0.03171568
v 0.02120078 -0.01432576 -0.02450119
v 0.02120042 -0.0434505 0.00994195
f 1 2 3
f 4 2 1
f 5 3 6
f 6 3 2
f 7 6 4
f 6 2 4
f 8 5 7
f 5 6 7
f 9 10 11
f 7 4 12
f 5 8 13
f 12 14 8
f 8 14 13
f 4 15 12
f 12 15 14
f 14 15 16
f 14 16 13
f 5 16 3
f 4 1 15
f 13 16 5
f 15 1 16
f 17 18 19
f 19 20 21
f 22 20 19
f 19 23 17
f 21 23 19
f 22 24 20
f 25 26 27
f 24 28 29
f 24 29 25
f 30 31 32
f 26 32 23
f 24 30 32
f 33 30 17
f 28 24 32
f 34 35 36
f 27 21 20
f 32 25 29
f 24 27 20
f 32 17 37
f 37 17 23
f 31 30 33
f 32 38 28
f 33 17 39
f 17 40 39
f 25 32 41
f 32 26 41
f 24 25 42
f 25 43 42
f 44 45 46
f 25 27 43
f 21 47 48
f 21 26 47
f 26 23 47
f 23 49 47
f 37 23 50
f 23 51 50
f 23 32 51
f 32 37 51
f 49 21 48
f 21 49 23
f 21 52 26
f 21 27 52
f 27 53 43
f 54 55 56
f 27 24 53
f 54 56 57
f 24 42 53
f 26 58 41
f 26 25 58
f 17 32 40
f 59 60 55
f 32 61 40
f 32 39 61
f 32 33 39
f 32 62 33
f 63 64 65
f 32 31 62
f 38 32 29
f 22 30 24
f 17 30 18
f 66 67 68
f 18 30 22
f 69 67 66
f 56 70 71
f 56 55 70
f 72 73 74
f 72 74 75
f 76 73 77
f 78 77 72
f 59 79 80
f 59 81 79
f 72 82 83
f 57 56 71
f 60 59 80
f 57 71 84
f 78 72 83
f 85 75 86
f 60 80 70
f 55 60 70
f 87 75 85
f 88 89 90
f 77 78 91
f 92 77 91
f 89 93 90
f 72 75 82
f 94 77 92
f 66 68 95
f 66 95 96
f 74 97 75
f 75 97 98
f 86 75 98
f 99 100 101
f 86 98 102
f 102 103 86
f 103 102 104
f 105 103 104
f 106 105 104
f 85 107 108
f 109 106 94
f 109 94 110
f 110 94 92
f 110 108 111
f 111 108 112
f 107 103 113
f 110 111 114
f 115 110 114
f 116 117 118
f 108 107 113
f 112 108 113
f 109 110 115
f 112 114 111
f 119 120 121
f 122 120 119
f 121 120 115
f 123 122 119
f 121 115 124
f 125 126 116
f 127 122 123
f 124 115 114
f 127 123 128
f 129 124 114
f 112 129 114
f 130 129 112
f 127 128 113
f 113 128 130
f 113 130 112
f 129 130 131
f 129 131 132
f 133 124 132
f 121 124 133
f 134 121 133
f 119 121 134
f 124 129 132
f 133 132 134
f 123 119 135
f 119 134 135
f 128 123 135
f 136 128 135
f 137 128 136
f 138 139 140
f 138 140 141
f 141 142 138
f 143 142 141
f 138 144 139
f 142 144 138
f 145 146 147
f 76 144 142
f 143 76 142
f 116 148 149
f 74 76 143
f 150 147 151
f 106 140 94
f 141 140 106
f 126 148 116
f 143 141 106
f 104 143 106
f 140 139 94
f 85 86 107
f 87 85 108
f 110 152 108
f 91 152 92
f 92 152 110
f 152 91 153
f 152 153 108
f 87 108 153
f 153 154 87
f 154 82 87
f 153 82 154
f 83 82 153
f 155 156 157
f 91 83 153
f 78 83 91
f 82 75 87
f 97 74 102
f 98 97 102
f 107 86 103
f 137 136 131
f 130 128 137
f 131 130 137
f 127 113 103
f 122 127 105
f 120 109 115
f 127 103 105
f 106 109 120
f 122 106 120
f 105 106 122
f 74 73 76
f 144 77 139
f 139 77 94
f 76 77 144
f 74 143 104
f 102 74 104
f 148 158 149
f 159 160 161
f 159 161 162
f 159 162 163
f 164 165 166
f 167 168 169
f 167 169 165
f 167 165 164
f 170 171 172
f 170 172 173
f 170 173 174
f 175 176 177
f 177 176 178
f 177 178 179
f 180 181 182
f 177 179 183
f 184 185 186
f 184 187 185
f 188 189 190
f 190 189 191
f 189 54 191
f 191 54 57
f 192 193 194
f 192 188 193
f 63 194 195
f 196 197 198
f 196 69 197
f 148 145 158
f 199 196 200
f 196 198 200
f 93 89 201
f 199 93 201
f 67 202 68
f 202 203 68
f 126 145 148
f 204 89 205
f 202 206 203
f 202 207 206
f 146 145 126
f 64 63 208
f 209 64 208
f 65 64 209
f 79 65 209
f 157 210 211
f 81 65 79
f 158 145 150
f 212 210 157
f 213 194 214
f 194 193 214
f 212 215 210
f 193 216 214
f 63 195 208
f 195 217 208
f 156 215 212
f 193 188 216
f 195 194 217
f 188 218 216
f 194 213 217
f 213 214 217
f 188 190 218
f 190 219 218
f 190 191 219
f 191 57 219
f 57 84 219
f 71 79 84
f 71 80 79
f 71 70 80
f 84 79 219
f 219 79 209
f 219 209 218
f 218 209 208
f 218 214 216
f 180 215 156
f 100 125 101
f 218 208 217
f 218 217 214
f 207 204 220
f 204 205 220
f 203 206 221
f 206 222 221
f 205 223 220
f 205 88 223
f 206 224 222
f 205 89 88
f 206 207 224
f 207 220 224
f 93 199 225
f 90 93 225
f 198 226 227
f 198 197 226
f 199 200 225
f 200 228 225
f 197 229 226
f 197 69 229
f 200 227 228
f 200 198 227
f 69 66 96
f 69 96 229
f 68 230 95
f 68 203 230
f 203 221 230
f 227 96 228
f 228 96 225
f 227 226 96
f 226 229 96
f 225 96 95
f 210 215 231
f 225 95 90
f 90 95 230
f 90 230 221
f 90 221 88
f 88 221 223
f 223 222 220
f 223 221 222
f 220 222 224
f 215 180 231
f 150 145 147
f 232 233 234
f 234 233 235
f 236 232 237
f 238 239 240
f 241 237 242
f 236 237 241
f 243 236 241
f 236 243 244
f 147 245 151
f 246 243 241
f 246 241 247
f 248 249 233
f 246 250 244
f 239 244 251
f 251 244 252
f 252 244 253
f 250 253 244
f 251 252 240
f 254 255 256
f 257 239 238
f 258 156 155
f 259 260 258
f 261 239 257
f 262 261 257
f 237 232 234
f 231 180 263
f 239 261 256
f 264 260 259
f 265 260 264
f 243 246 244
f 261 262 254
f 266 265 264
f 254 262 267
f 260 265 268
f 239 251 240
f 265 266 269
f 261 254 256
f 248 265 269
f 245 256 255
f 147 256 245
f 146 256 147
f 268 265 233
f 233 265 248
f 181 270 182
f 260 156 258
f 232 268 233
f 233 249 235
f 242 237 234
f 271 272 273
f 273 274 275
f 273 272 274
f 276 275 277
f 276 278 275
f 271 279 272
f 280 270 181
f 278 273 275
f 277 275 281
f 279 281 272
f 275 274 281
f 274 272 281
f 282 283 284
f 285 282 284
f 286 287 288
f 180 289 181
f 290 291 292
f 289 280 181
f 293 291 290
f 293 288 291
f 286 294 287
f 294 295 287
f 189 296 54
f 297 296 189
f 192 297 189
f 298 297 192
f 299 298 192
f 300 298 299
f 301 300 299
f 302 301 299
f 303 301 302
f 280 289 304
f 305 303 302
f 306 303 305
f 307 306 305
f 308 307 305
f 309 307 308
f 310 309 308
f 311 310 308
f 312 310 311
f 313 117 116
f 314 312 311
f 202 314 311
f 315 314 202
f 149 313 116
f 67 315 202
f 81 316 317
f 316 81 318
f 318 81 319
f 81 320 319
f 289 321 304
f 320 322 319
f 320 323 322
f 323 324 322
f 324 323 325
f 325 326 324
f 326 325 327
f 326 327 328
f 328 327 201
f 328 201 329
f 330 156 331
f 126 125 332
f 333 289 334
f 335 268 336
f 337 338 244
f 126 332 339
f 340 289 333
f 239 337 244
f 256 341 342
f 232 336 268
f 343 336 232
f 256 342 239
f 126 339 146
f 146 339 344
f 345 180 346
f 342 337 239
f 236 343 232
f 331 156 335
f 212 157 156
f 335 156 260
f 347 343 236
f 125 340 333
f 346 180 156
f 289 340 321
f 321 340 348
f 289 180 345
f 346 156 330
f 146 344 341
f 334 289 345
f 244 347 236
f 146 341 256
f 338 347 244
f 332 125 333
f 335 260 268
f 349 341 350
f 351 341 349
f 342 341 351
f 352 342 351
f 337 342 352
f 353 337 352
f 338 337 353
f 354 338 353
f 347 338 354
f 355 347 354
f 343 347 355
f 356 343 355
f 336 343 356
f 357 336 356
f 335 336 357
f 358 335 357
f 348 100 99
f 340 100 348
f 359 335 358
f 331 335 359
f 360 331 359
f 349 350 296
f 297 349 296
f 351 349 297
f 298 351 297
f 352 351 298
f 300 352 298
f 301 352 300
f 353 352 301
f 303 353 301
f 354 353 303
f 355 354 306
f 306 354 303
f 307 355 306
f 356 355 307
f 309 356 307
f 310 356 309
f 357 356 310
f 312 357 310
f 340 125 100
f 358 357 312
f 314 358 312
f 180 182 263
f 359 358 314
f 315 359 314
f 360 359 315
f 361 362 302
f 278 363 273
f 364 311 34
f 187 320 9
f 365 362 361
f 63 366 194
f 9 320 81
f 194 366 365
f 366 362 365
f 323 367 325
f 368 89 369
f 59 9 81
f 370 371 372
f 373 370 372
f 184 186 10
f 372 371 44
f 374 367 323
f 44 371 196
f 375 370 373
f 368 369 35
f 376 194 365
f 377 363 278
f 196 371 69
f 377 278 276
f 10 9 59
f 35 34 311
f 378 370 375
f 184 10 59
f 368 35 308
f 327 199 201
f 101 116 118
f 367 378 375
f 308 35 311
f 125 116 101
f 320 374 323
f 276 374 320
f 187 276 320
f 377 276 187
f 69 371 67
f 379 194 376
f 299 361 302
f 55 184 59
f 271 378 367
f 192 194 379
f 305 368 308
f 207 202 311
f 189 188 192
f 54 184 55
f 192 379 299
f 367 375 325
f 184 377 187
f 364 207 311
f 271 367 279
f 299 379 380
f 302 368 305
f 363 378 273
f 273 378 271
f 374 276 277
f 374 277 381
f 204 207 364
f 362 368 302
f 325 375 45
f 367 374 381
f 367 381 279
f 380 361 299
f 199 44 196
f 281 279 381
f 382 204 364
f 45 44 327
f 327 44 199
f 325 45 327
f 369 89 204
f 369 204 382
f 281 381 277
f 65 366 63
f 294 328 329
f 294 286 328
f 286 326 328
f 286 288 326
f 288 324 326
f 288 293 324
f 293 290 324
f 290 322 324
f 290 292 319
f 290 319 322
f 292 285 319
f 285 318 319
f 285 284 318
f 284 283 316
f 284 316 318
f 283 317 316
f 283 282 317
f 291 288 287
f 291 287 292
f 292 287 282
f 282 287 383
f 383 287 384
f 383 384 385
f 285 292 282
f 383 385 386
f 387 282 383
f 388 389 245
f 255 388 245
f 390 388 255
f 254 390 255
f 384 287 391
f 392 390 254
f 267 392 254
f 393 392 267
f 262 393 267
f 394 393 262
f 257 394 262
f 395 394 257
f 238 395 257
f 396 395 238
f 240 396 238
f 397 396 240
f 252 397 240
f 398 397 252
f 253 398 252
f 399 398 253
f 250 399 253
f 400 399 250
f 246 400 250
f 401 400 246
f 247 401 246
f 402 401 247
f 241 402 247
f 403 402 241
f 242 403 241
f 404 403 242
f 405 404 242
f 234 405 242
f 406 405 234
f 235 406 234
f 407 406 235
f 249 407 235
f 408 407 249
f 248 408 249
f 409 408 248
f 269 409 248
f 410 409 269
f 266 410 269
f 411 410 266
f 412 411 264
f 264 411 266
f 259 412 264
f 413 412 259
f 258 413 259
f 414 413 258
f 155 414 258
f 415 414 155
f 186 160 159
f 186 185 160
f 185 161 160
f 185 187 161
f 187 162 161
f 379 376 175
f 376 176 175
f 376 365 176
f 365 178 176
f 391 287 295
f 379 175 177
f 369 382 170
f 382 171 170
f 382 172 171
f 382 364 172
f 364 173 172
f 375 373 168
f 373 169 168
f 373 372 169
f 375 168 167
f 416 385 384
f 415 417 418
f 413 414 415
f 404 405 403
f 412 410 411
f 413 410 412
f 419 420 418
f 421 420 419
f 422 423 413
f 424 421 419
f 425 421 424
f 415 422 413
f 426 421 425
f 427 416 384
f 428 422 415
f 429 426 425
f 383 430 387
f 418 428 415
f 420 428 418
f 423 431 432
f 433 431 410
f 432 431 433
f 433 410 413
f 423 432 433
f 427 384 391
f 423 433 413
f 434 435 436
f 437 438 439
f 440 439 441
f 442 439 440
f 441 439 434
f 443 434 444
f 441 434 443
f 444 434 445
f 441 443 446
f 447 443 448
f 446 443 447
f 449 441 446
f 446 447 450
f 296 451 54
f 450 447 452
f 453 450 452
f 454 450 453
f 451 455 54
f 54 455 184
f 452 447 456
f 423 422 428
f 455 457 184
f 423 428 421
f 438 423 439
f 434 423 435
f 457 458 184
f 184 458 377
f 439 423 434
f 435 423 421
f 458 459 377
f 377 459 363
f 431 423 438
f 421 428 420
f 453 452 460
f 459 461 363
f 363 461 378
f 461 462 378
f 463 431 438
f 435 421 426
f 462 464 378
f 378 464 370
f 464 465 370
f 466 446 450
f 467 466 450
f 370 465 371
f 465 468 371
f 469 456 447
f 470 426 429
f 435 426 470
f 468 471 371
f 472 435 470
f 436 435 472
f 371 471 67
f 471 315 67
f 473 436 472
f 474 436 473
f 434 436 474
f 317 65 81
f 475 65 317
f 475 366 65
f 476 434 474
f 445 434 476
f 477 366 475
f 478 445 476
f 479 445 478
f 444 445 479
f 480 444 479
f 477 362 366
f 362 477 481
f 482 444 480
f 443 444 482
f 448 443 482
f 483 448 482
f 484 448 483
f 368 362 481
f 368 481 485
f 447 448 484
f 486 447 484
f 469 447 486
f 368 485 487
f 488 469 486
f 489 469 488
f 456 469 489
f 89 368 487
f 490 89 487
f 491 456 489
f 492 456 491
f 201 490 493
f 201 89 490
f 452 456 492
f 494 452 492
f 460 452 494
f 201 493 329
f 495 460 494
f 389 460 495
f 341 344 350
f 453 460 389
f 388 453 389
f 454 453 388
f 390 454 388
f 350 344 496
f 344 339 496
f 393 454 390
f 450 454 393
f 394 450 393
f 339 332 496
f 496 332 497
f 467 450 394
f 395 467 394
f 466 467 395
f 497 332 498
f 332 333 498
f 396 466 395
f 446 466 396
f 498 333 499
f 397 446 396
f 449 446 397
f 398 449 397
f 499 333 500
f 333 334 500
f 399 449 398
f 441 449 399
f 500 334 501
f 334 345 501
f 400 441 399
f 440 441 400
f 501 345 502
f 401 440 400
f 402 440 401
f 345 346 502
f 502 346 503
f 442 440 402
f 403 442 402
f 346 330 503
f 503 330 504
f 405 442 403
f 439 442 405
f 330 331 504
f 504 331 360
f 406 439 405
f 296 350 451
f 437 439 406
f 407 437 406
f 350 496 451
f 451 496 455
f 408 437 407
f 438 437 408
f 463 438 408
f 455 496 457
f 496 497 457
f 409 463 408
f 410 463 409
f 457 497 458
f 497 498 458
f 431 463 410
f 392 393 390
f 458 498 459
f 498 499 459
f 505 483 482
f 470 506 472
f 44 166 165
f 459 499 461
f 499 500 461
f 461 500 462
f 44 46 166
f 46 164 166
f 462 501 464
f 500 501 462
f 46 45 164
f 464 501 465
f 501 502 465
f 372 165 169
f 372 44 165
f 465 502 468
f 502 503 468
f 45 167 164
f 468 503 471
f 45 375 167
f 34 174 173
f 503 504 471
f 34 36 174
f 471 504 315
f 504 360 315
f 36 35 174
f 364 34 173
f 295 294 329
f 35 170 174
f 295 329 493
f 35 369 170
f 361 183 179
f 361 380 183
f 391 295 493
f 365 361 178
f 391 493 490
f 380 177 183
f 427 391 490
f 361 179 178
f 380 379 177
f 427 490 487
f 11 163 162
f 416 427 487
f 11 10 163
f 187 9 162
f 10 159 163
f 416 487 485
f 10 186 159
f 9 11 162
f 385 416 485
f 417 415 155
f 157 417 155
f 385 485 481
f 386 385 481
f 418 417 157
f 419 418 157
f 211 419 157
f 424 419 211
f 210 424 211
f 425 424 210
f 383 386 481
f 383 481 477
f 231 425 210
f 430 383 477
f 429 425 231
f 263 429 231
f 470 429 263
f 506 470 263
f 387 430 477
f 387 477 475
f 182 506 263
f 472 506 182
f 270 472 182
f 473 472 270
f 474 473 280
f 280 473 270
f 282 387 475
f 282 475 317
f 304 474 280
f 389 495 245
f 245 495 151
f 476 474 304
f 495 494 151
f 321 476 304
f 151 494 150
f 494 492 150
f 478 476 321
f 348 478 321
f 492 491 150
f 150 491 158
f 479 478 348
f 491 489 158
f 99 479 348
f 158 488 149
f 489 488 158
f 480 479 99
f 488 486 149
f 482 480 99
f 149 486 313
f 313 484 117
f 486 484 313
f 101 482 99
f 505 482 101
f 484 483 117
f 117 483 118
f 118 505 101
f 483 505 118
