v 0.014746 0.007608622 -0.04434383
v -0.01227534 0.01963799 -0.03496408
v 0.001496136 0.02134995 -0.03947103
v -0.005620748 0.01932147 -0.009028256
v 0.01474595 0.01655371 0.04277557
v 0.014746 -0.02134995 -0.01696807
v 0.006746769 -0.01888774 -0.04261398
v 0.009624109 -0.01959877 -0.01687539
v 0.01183233 -0.002761975 0.04255244
v 0.005877927 -0.01713596 -0.01411217
v 0.006269649 -0.01915562 -0.02635121
v 0.01339263 0.007367298 0.04319468
v 0.008058682 0.01705839 -0.04179662
v 0.01172943 0.01749891 0.04329321
v 0.01025641 0.007342145 0.04342681
v -0.01217845 0.0005704015 -0.03566104
v 0.006663159 -0.02016182 -0.04165313
v 0.006962299 -0.02076159 -0.04021314
v 0.006664649 -0.01923589 -0.04252297
v 0.01025549 -0.02122568 -0.03017011
v 0.01117866 0.007319704 0.04416692
v 0.01069209 0.007326171 0.04392642
v 0.01472779 0.0165796 0.04307273
v -0.001774967 -0.01633187 -0.0371916
v -0.001453519 -0.01467231 -0.03974789
v -0.00797154 -0.007958949 -0.03735283
v -0.01366086 0.01007932 -0.03483787
v -0.014746 0.009969041 -0.03197348
v 0.006641611 -0.01953207 -0.04230908
v 0.01215252 0.01740363 0.04379225
v 0.01410376 0.01682074 0.04388657
v -0.001895621 -0.01578104 -0.03867584
v -0.00870049 -0.009197578 -0.0346452
v -0.01462403 0.01002771 -0.033555
v 0.01272844 0.007333502 0.04401129
v 0.01320218 0.01711364 0.04421386
v -0.001737446 -0.01522778 -0.03938586
v -0.001047716 -0.01000176 -0.01156679
v -0.0130776 0.0001127571 -0.03441405
v -0.01420824 0.01005961 -0.03436908
v 0.01178169 0.007316306 0.04434386
v 0.01262252 0.01727781 0.04403535
v -0.001631036 -0.01497094 -0.03962526
v -0.01269437 0.0003443956 -0.03521043
v -0.01317009 -0.0001350343 -0.0328477
v -0.01248115 0.0004508048 -0.03548929
v -0.0139818 0.01007156 -0.03465718
f 1 2 3
f 2 4 3
f 1 5 6
f 7 1 6
f 8 6 9
f 10 8 9
f 8 10 11
f 6 12 9
f 13 1 3
f 13 5 1
f 4 14 3
f 15 14 4
f 1 16 2
f 7 16 1
f 17 7 6
f 18 17 6
f 7 17 19
f 8 20 6
f 20 18 6
f 20 8 11
f 18 20 11
f 21 22 9
f 22 15 9
f 22 14 15
f 5 23 6
f 23 12 6
f 23 13 3
f 13 23 5
f 24 18 11
f 10 24 11
f 24 17 18
f 25 26 7
f 26 16 7
f 16 27 2
f 28 15 4
f 28 4 2
f 17 29 19
f 22 30 14
f 14 30 3
f 23 31 12
f 31 23 3
f 24 32 17
f 32 29 17
f 33 32 24
f 32 33 26
f 34 28 2
f 31 35 12
f 12 35 9
f 36 31 3
f 32 37 29
f 29 37 19
f 37 32 26
f 38 10 9
f 38 24 10
f 38 33 24
f 33 39 26
f 34 39 28
f 40 34 2
f 41 21 9
f 35 41 9
f 41 35 31
f 36 41 31
f 42 22 21
f 42 30 22
f 41 42 21
f 42 41 36
f 30 42 3
f 42 36 3
f 37 43 19
f 43 7 19
f 43 25 7
f 43 26 25
f 43 37 26
f 39 44 26
f 44 39 34
f 40 44 34
f 45 39 33
f 45 38 9
f 38 45 33
f 39 45 28
f 15 45 9
f 28 45 15
f 26 46 16
f 44 46 26
f 47 44 40
f 47 46 44
f 27 47 2
f 47 40 2
f 47 27 16
f 46 47 16
