v -0.004281357 0.0008225143 0.007014066
v -0.005001679 0.003360391 -7.212162e-05
v -0.005270973 -0.004150391 0.0007600188
v 0.003214285 0.006139249 0.001435548
v 0.004042372 0.004727751 0.005224764
v 0.005407438 0.006240398 -0.0040133
v -0.003937021 0.003842711 0.007074654
v -0.005407467 -0.00354442 -0.002216488
v 0.005272076 -0.006240398 -0.001018763
v 0.005407467 -0.004102707 -0.006125689
v -0.00442867 0.004897714 0.003667742
v 0.005407408 -0.004673243 0.004668653
v -0.005393013 4.87566e-05 -0.002429456
v 0.005001411 0.001794666 -0.007074684
f 1 2 3
f 4 5 6
f 5 4 7
f 8 9 3
f 8 10 9
f 11 1 7
f 1 11 2
f 4 11 7
f 2 11 6
f 11 4 6
f 5 12 6
f 9 12 3
f 12 1 3
f 12 5 7
f 1 12 7
f 12 10 6
f 10 12 9
f 2 13 3
f 13 8 3
f 13 2 6
f 8 14 10
f 13 14 8
f 10 14 6
f 14 13 6
