v 0.01474598 0.007608578 -0.0443438
v -0.01227538 0.01963793 -0.03496405
v 0.001496106 0.02134995 -0.03947097
v -0.005620793 0.0193214 -0.009028226
v 0.01474591 0.01655366 0.04277554
v 0.01474595 -0.02134995 -0.01696804
v 0.006746724 -0.0188878 -0.04261395
v 0.009624064 -0.01959881 -0.01687536
v 0.0118323 -0.00276199 0.0425525
v 0.005877897 -0.01713602 -0.01411211
v 0.006269604 -0.01915564 -0.02635115
v 0.01339263 0.007367253 0.04319471
v 0.008058637 0.01705837 -0.04179657
v 0.01172942 0.01749887 0.0432933
v 0.01025636 0.0073421 0.04342687
v -0.01217847 0.0005703568 -0.03566098
v 0.006663114 -0.02016188 -0.04165304
v 0.00696224 -0.02076159 -0.04021308
v 0.006664634 -0.01923594 -0.04252291
v 0.01025543 -0.02122571 -0.03017008
v 0.01117863 0.007319659 0.04416701
v 0.01069203 0.007326126 0.04392645
v 0.01472774 0.01657955 0.04307276
v -0.001775041 -0.01633193 -0.03719163
v -0.001453564 -0.01467232 -0.03974786
v -0.00797154 -0.007958993 -0.0373528
v -0.01366089 0.01007928 -0.03483784
v -0.01474598 0.009969011 -0.03197339
v 0.006641597 -0.01953213 -0.04230908
v 0.01215251 0.01740359 0.04379231
v 0.01410376 0.0168207 0.0438866
v -0.001895651 -0.01578112 -0.03867579
v -0.00870052 -0.009197548 -0.03464517
v -0.01462404 0.01002766 -0.03355497
v 0.01272844 0.007333457 0.04401132
v 0.01320215 0.0171136 0.04421392
v -0.001737475 -0.01522781 -0.03938583
v -0.001047745 -0.01000179 -0.01156673
v -0.01307763 0.0001126975 -0.03441402
v -0.01420827 0.01005954 -0.03436899
v 0.01178166 0.007316262 0.04434383
v 0.01262251 0.01727778 0.04403538
v -0.001631066 -0.01497097 -0.03962523
v -0.0126944 0.0003443807 -0.03521034
v -0.01317014 -0.0001350492 -0.03284767
v -0.01248123 0.0004507452 -0.03548923
v -0.01398183 0.01007149 -0.03465712
f 1 2 3
f 2 4 3
f 1 5 6
f 7 1 6
f 8 6 9
f 10 8 9
f 8 10 11
f 6 12 9
f 13 1 3
f 13 5 1
f 4 14 3
f 15 14 4
f 1 16 2
f 7 16 1
f 17 7 6
f 18 17 6
f 7 17 19
f 8 20 6
f 20 18 6
f 20 8 11
f 18 20 11
f 21 22 9
f 22 15 9
f 22 14 15
f 5 23 6
f 23 12 6
f 23 13 3
f 13 23 5
f 24 18 11
f 10 24 11
f 24 17 18
f 25 26 7
f 26 16 7
f 16 27 2
f 28 15 4
f 28 4 2
f 17 29 19
f 22 30 14
f 14 30 3
f 23 31 12
f 31 23 3
f 24 32 17
f 32 29 17
f 33 32 24
f 32 33 26
f 34 28 2
f 31 35 12
f 12 35 9
f 36 31 3
f 32 37 29
f 29 37 19
f 37 32 26
f 38 10 9
f 38 24 10
f 38 33 24
f 33 39 26
f 34 39 28
f 40 34 2
f 41 21 9
f 35 41 9
f 41 35 31
f 36 41 31
f 42 22 21
f 42 30 22
f 41 42 21
f 42 41 36
f 30 42 3
f 42 36 3
f 37 43 19
f 43 7 19
f 43 25 7
f 43 26 25
f 43 37 26
f 39 44 26
f 44 39 34
f 40 44 34
f 45 39 33
f 45 38 9
f 38 45 33
f 39 45 28
f 15 45 9
f 28 45 15
f 26 46 16
f 44 46 26
f 47 44 40
f 47 46 44
f 27 47 2
f 47 40 2
f 47 27 16
f 46 47 16
