v -0.000542155 0.004793704 -0.03861657
v 0.0003272193 -0.004654884 -0.03803864
v -0.0005421611 -0.004793704 -0.03861806
v -0.0005405354 0.004604131 0.03741071
v -6.022397e-05 -0.004554123 0.03861663
v 0.0005411934 0.004618272 -0.0371857
v -6.166426e-05 0.004525453 0.03861806
v -0.0005403259 -0.004633173 0.03740877
v 0.0003262013 0.004655182 -0.03803626
v 0.0005421611 -0.004618466 -0.03718707
v 0.0004361644 0.004636496 -0.03775957
v 0.0004363344 -0.004636496 -0.03776246
f 1 2 3
f 4 1 3
f 5 6 7
f 8 4 3
f 2 8 3
f 5 8 2
f 8 5 7
f 4 8 7
f 9 2 1
f 6 9 7
f 9 4 7
f 4 9 1
f 10 5 2
f 10 6 5
f 9 11 2
f 11 9 6
f 10 11 6
f 12 10 2
f 11 12 2
f 12 11 10
