v 0.01060417 -0.02844402 -0.1110383
v 0.01130087 -0.003879353 0.1208016
v -0.008378074 -0.02817135 0.1149766
v 0.00427074 0.01147893 -0.1175869
v 0.0003047362 0.02844401 -0.08897936
v -0.0006895289 0.004397139 0.08496338
v -0.009569161 0.02010064 -0.07201523
v -0.01130087 -0.01412074 0.09630471
v 0.001272939 0.01937294 -0.1116198
v -0.002554864 -0.004960984 -0.1165413
v 0.003974758 0.003424644 0.1030865
v 0.004847459 -0.00237605 -0.1208016
v 0.0001243874 -0.02600311 -0.1030173
v -0.01086451 -0.01612264 0.09203333
v -0.009208083 -0.01862265 0.04212642
v -0.0006165802 0.02650535 -0.09760958
v -0.006880321 0.01776607 -0.1037663
v -0.00570295 -0.01816414 -0.08850724
v -0.01002892 0.002239913 -0.06982106
v -0.007923789 -0.006571382 -0.0850876
v -0.008561946 0.001364455 -0.09469765
f 1 2 3
f 2 1 4
f 5 2 4
f 6 5 7
f 8 6 7
f 9 5 4
f 10 9 4
f 5 11 2
f 11 5 6
f 8 11 6
f 2 11 3
f 11 8 3
f 1 12 4
f 12 10 4
f 10 12 1
f 13 10 1
f 13 1 3
f 14 15 3
f 8 14 3
f 5 16 7
f 9 16 5
f 17 9 10
f 16 17 7
f 17 16 9
f 13 18 10
f 15 18 3
f 18 13 3
f 19 8 7
f 14 19 15
f 19 14 8
f 19 18 15
f 18 19 20
f 21 17 10
f 18 21 10
f 21 18 20
f 19 21 20
f 17 21 7
f 21 19 7
