v 0.008799195 -0.02958672 0.04005969
v 0.0004802048 -0.02278712 -0.03935924
v 0.008799553 -0.02879692 -0.03941828
v 0.0004800484 -0.0235762 0.04011893
v -0.008799233 0.005515844 -0.03907785
v -0.008772299 -0.004746974 -0.03917959
v -0.008772835 -0.005536854 0.04029801
v 0.008681275 0.02958564 -0.03881073
v 0.008799404 0.02928063 -0.03123164
v 0.0007925332 0.02318527 -0.04036614
v -0.00686492 -0.00441651 -0.04155636
v -0.006890416 0.005242616 -0.0414601
v 0.008753218 0.0290527 0.0008727312
v -0.005653694 0.01466706 0.02321944
v 0.0003569871 0.02320966 0.0008147061
v 0.00879927 0.02905093 -0.008064568
v -0.005105376 0.01502176 -0.04044789
v -0.00816565 -0.004634947 -0.04064322
v 0.002630703 -0.02142145 0.04090518
v -0.005574957 -0.0152885 0.04020116
v -0.00879956 0.004898414 0.02312329
v 0.004089773 0.02657239 -0.025962
v 0.008627295 0.02958672 -0.02823138
v 0.004268721 0.02661741 -0.01589873
v -0.008192621 0.005436271 -0.0405429
v -0.005653575 0.01528554 -0.03898031
v -0.00752385 -0.004524946 -0.04128388
v -0.004543543 -0.01477373 0.04155633
v -0.003650934 -0.01431604 0.04154354
v -0.002861582 -0.01390493 0.04097971
v 0.0006600991 -0.02340047 0.04073116
v -0.005574584 -0.01467539 -0.02157298
v -0.007550098 0.005342767 -0.04118577
v 0.0003569499 0.02360448 -0.03889805
v -0.00722155 -0.004473969 -0.04148558
v 0.002004832 -0.02205665 0.04146573
v 0.001297504 -0.02276824 0.04147559
v 0.0009323806 -0.02313089 0.04111597
v -0.005347013 -0.01517843 0.04081303
v -0.007247373 0.00529775 -0.04138887
v -0.005003586 -0.01500568 0.04119581
f 1 2 3
f 4 2 1
f 5 6 7
f 8 9 3
f 9 1 3
f 10 8 3
f 2 11 3
f 11 10 3
f 10 11 12
f 13 14 7
f 15 14 13
f 16 13 1
f 9 16 1
f 16 9 13
f 17 10 12
f 6 18 2
f 13 19 1
f 4 20 2
f 21 5 7
f 14 21 7
f 22 23 8
f 23 9 8
f 9 23 13
f 24 15 13
f 24 22 15
f 23 24 13
f 24 23 22
f 25 6 5
f 25 18 6
f 21 26 5
f 26 21 14
f 26 25 5
f 25 26 17
f 26 14 15
f 18 27 2
f 25 27 18
f 28 29 7
f 30 13 7
f 30 19 13
f 29 30 7
f 30 29 19
f 31 4 1
f 32 6 2
f 20 32 2
f 6 32 7
f 32 20 7
f 33 25 17
f 33 27 25
f 34 26 15
f 22 34 15
f 17 34 10
f 26 34 17
f 10 34 8
f 34 22 8
f 35 11 2
f 27 35 2
f 29 36 19
f 19 36 1
f 36 37 1
f 37 36 28
f 36 29 28
f 38 37 28
f 37 38 1
f 38 31 1
f 20 39 7
f 38 39 31
f 39 20 4
f 31 39 4
f 40 17 12
f 40 33 17
f 11 40 12
f 35 40 11
f 33 40 27
f 40 35 27
f 41 28 7
f 39 41 7
f 41 38 28
f 41 39 38
