v 0.01447371 0.005736679 0.04160535
v 0.01345713 -0.004923746 0.03922558
v 0.01345763 -0.004923165 -0.0402565
v -0.01447369 -0.01527011 0.03922564
v -0.004217759 -0.01485342 -0.0402562
v -0.004219271 -0.01485352 0.03922474
v 0.005406618 -0.01128872 -0.04025513
v -0.01429814 0.01527011 0.04160491
v -0.009137064 0.01459803 0.04160506
v -0.01424974 -0.01335136 0.04160455
v -0.01447364 0.006654665 0.0416044
v -0.01429195 -0.01370966 0.04153377
v -0.01440348 -0.0146599 0.04069006
v -0.01447371 -0.01526976 -0.01635444
v -0.004839383 -0.01175021 -0.0407449
v 0.005405173 -0.01128801 0.03922558
v -0.004339479 -0.01425114 0.04069
v -0.004527226 -0.01331328 0.04153436
v -0.004029892 0.01340802 0.04160517
v 0.0006545186 0.01187627 0.04160535
v -0.004598297 -0.01295918 0.04160529
v 0.004459083 -0.009603992 0.04160535
v 0.004838988 -0.01027822 -0.04160494
v 0.004347861 -0.009403385 -0.04158777
v 0.005281314 -0.01106539 -0.04086614
v 0.01300569 -0.004507497 0.04068995
v 0.01203674 -0.003613815 0.04160532
v 0.01230207 -0.003858626 0.04153416
v -0.004467748 -0.01361348 0.04133242
v 0.003912427 -0.008629858 -0.04102054
v -0.004643112 -0.01273364 -0.04158843
v 0.005091749 -0.01072825 -0.0412482
v -0.004817054 -0.01186271 -0.04102048
v 0.01252796 -0.004066154 0.04133222
v 0.006573297 0.009317324 0.04160559
v -0.01432762 -0.01401445 0.04133177
v 0.003856502 -0.008529276 -0.04074505
v -0.00426805 -0.01460272 -0.04086664
v 0.005104423 -0.01075296 0.04069027
v -0.00434424 -0.01422365 -0.04124761
v 0.004636183 -0.009918854 0.04153425
v 0.004786223 -0.01018645 0.04133296
v -0.004445493 -0.01371769 -0.04160559
f 1 2 3
f 4 5 6
f 2 7 3
f 5 7 6
f 8 9 3
f 10 11 12
f 11 10 8
f 13 11 4
f 4 14 5
f 11 14 4
f 15 14 8
f 14 11 8
f 7 16 6
f 16 7 2
f 17 4 6
f 17 13 4
f 18 10 12
f 19 20 3
f 9 19 3
f 19 9 20
f 18 21 10
f 21 18 22
f 10 21 8
f 21 9 8
f 23 24 3
f 7 25 3
f 26 2 1
f 27 28 1
f 17 29 13
f 24 30 3
f 31 30 24
f 32 23 3
f 25 32 3
f 33 14 15
f 33 31 14
f 33 30 31
f 28 34 1
f 34 26 1
f 35 21 22
f 27 35 22
f 9 35 20
f 21 35 9
f 35 27 1
f 35 1 3
f 20 35 3
f 29 36 13
f 11 36 12
f 13 36 11
f 36 18 12
f 36 29 18
f 37 8 3
f 30 37 3
f 37 15 8
f 37 33 15
f 33 37 30
f 38 32 25
f 38 7 5
f 38 25 7
f 14 38 5
f 39 16 2
f 26 39 2
f 16 39 6
f 39 17 6
f 38 40 32
f 40 38 14
f 41 27 22
f 27 41 28
f 18 41 22
f 34 42 26
f 42 39 26
f 42 34 28
f 41 42 28
f 42 29 17
f 39 42 17
f 29 42 18
f 42 41 18
f 32 43 23
f 40 43 32
f 43 24 23
f 43 31 24
f 31 43 14
f 43 40 14
