v 0.0002900362 -0.004566193 -0.005930796
v -0.002491772 -0.003639966 -0.003885463
v 0.001227736 0.005756944 -0.005980238
v 0.002468884 -0.005476534 -0.003992692
v -0.001673996 0.005195677 -0.003924623
v 0.003550768 0.005909622 -0.004025772
v 0.003550708 -0.00591287 4.48514e-06
v 0.003550768 0.00591287 0.004025564
v 0.001226962 0.005761921 0.005980238
v 0.0002905428 -0.00456211 0.005938932
v -0.00249207 -0.003636688 0.003892556
v -0.001674622 0.0051983 0.003924653
v -0.003550738 -0.003286034 3.293047e-06
v 0.00246805 -0.005473852 0.004001901
v -0.002781808 0.004982293 5.512338e-07
f 1 2 3
f 2 1 4
f 2 5 3
f 6 1 3
f 1 6 4
f 6 7 4
f 7 6 8
f 8 9 10
f 9 11 10
f 11 9 12
f 5 9 3
f 9 6 3
f 6 9 8
f 13 11 12
f 13 5 2
f 13 2 4
f 7 13 4
f 14 8 10
f 14 7 8
f 11 14 10
f 13 14 11
f 14 13 7
f 15 13 12
f 13 15 5
f 9 15 12
f 15 9 5
