v -0.001339197 0.06054342 0.05959579
v -0.0003380179 0.06056106 0.0589494
v -0.001665533 0.06117785 0.05880526
v 0.00988102 0.0620023 0.04996105
v 0.0127176 0.06231225 0.05079319
v 0.01024491 0.06263995 0.04978085
v -0.002294719 0.06058681 0.0585988
v 0.01288992 0.06314337 0.04975007
v -0.00134784 0.06074703 0.05546169
v -0.001261234 0.06122696 0.05599616
v 0.01033217 0.06284225 0.04909789
v -0.0005111098 0.06126487 0.05586448
v 0.0002095103 0.06071174 0.05603039
v 0.01317221 0.06265891 0.04886367
v 0.01335764 0.06300938 0.04941615
v 0.01373893 0.06256771 0.0501636
v -0.01106584 0.06295383 0.04410362
v -0.01023489 0.06338835 0.04425962
v -0.01026189 0.06295085 0.04368106
v -0.01052499 0.06257713 0.04562586
v -0.01048386 0.0632894 0.04511874
v -0.007691383 0.06306446 0.04509061
v -0.007968664 0.06223643 0.04612757
v -0.007195413 0.06248331 0.0445011
v 0.004610956 0.06502998 0.03590335
v 0.003264368 0.06514847 0.03592255
v 0.003839314 0.06436908 0.03848789
v 0.004825115 0.06468654 0.03588362
v 0.00367403 0.06493247 0.034911
v 0.0105409 0.06234944 0.04823612
v 0.00287497 0.06468666 0.0355262
v 0.002488971 0.0642091 0.03823132
v 0.009580433 0.06212366 0.04892204
v 0.004163682 0.06383204 0.03859266
v 0.002494931 0.06374776 0.03862017
f 1 2 3
f 4 5 6
f 1 3 7
f 8 6 5
f 9 7 10
f 7 3 10
f 11 6 8
f 10 12 9
f 9 12 13
f 3 12 10
f 12 3 2
f 14 15 16
f 12 2 13
f 17 18 19
f 20 21 18
f 18 17 20
f 22 21 23
f 23 21 20
f 18 21 22
f 23 24 22
f 18 22 24
f 16 15 5
f 18 24 19
f 5 15 8
f 25 26 27
f 28 29 25
f 25 29 26
f 11 15 30
f 30 15 14
f 31 26 29
f 11 8 15
f 32 27 26
f 31 32 26
f 30 33 11
f 34 27 35
f 35 27 32
f 35 32 31
f 25 27 28
f 28 27 34
f 6 11 33
f 4 6 33
