v 0.7700006 0.5200003 0.3450003
v 0.8000007 0.5500003 0.3450004
v 0.7700006 -0.5200004 0.3450003
v -0.7700006 0.5200003 0.3450002
v -0.8000006 0.5500003 0.3450002
v -0.8000006 -0.5500004 0.3450002
v -0.7700006 -0.5200004 0.3450002
v 0.8000007 -0.5500004 0.3450004
v 0.7300008 0.4900002 0.3450003
v -0.7300006 0.4800003 0.3450001
v -0.7300006 0.4900002 0.3450001
v -0.7300006 -0.4800003 0.3450001
v -0.7300006 -0.4900003 0.3450001
v 0.7300008 -0.4900003 0.3450003
v 0.7400005 0.4800003 0.3450002
v 0.7300008 -0.4800003 0.3450003
v 0.7300008 0.4800003 0.3450003
v 0.7400005 -0.4800003 0.3450002
v -0.7400007 -0.4800003 0.3450002
v -0.7400007 0.4800003 0.3450002
v 0.8000007 -0.5500004 0.3750004
v 0.8000007 0.5500003 0.3750004
v -0.8000007 0.5500003 0.3750001
v -0.8000007 -0.5500004 0.3750001
vt 0.885 0.933334
vt 0.9 0.958334
vt 0.885 0.0666664
vt 0.115 0.933334
vt 0.9 0.958334
vt 0.885 0.933334
vt 0.115 0.933334
vt 0.0999997 0.958334
vt 0.9 0.958334
vt 0.0999997 0.958334
vt 0.115 0.933334
vt 0.0999997 0.0416664
vt 0.115 0.0666664
vt 0.0999997 0.0416664
vt 0.115 0.933334
vt 0.0999997 0.0416664
vt 0.115 0.0666664
vt 0.9 0.0416664
vt 0.9 0.0416664
vt 0.115 0.0666664
vt 0.885 0.0666664
vt 0.865 0.908334
vt 0.135 0.9
vt 0.135 0.908334
vt 0.135 0.9
vt 0.865 0.908334
vt 0.135 0.0999997
vt 0.135 0.0999997
vt 0.865 0.908334
vt 0.135 0.0916665
vt 0.135 0.0916665
vt 0.865 0.908334
vt 0.865 0.0916665
vt 0.87 0.9
vt 0.865 0.0999997
vt 0.865 0.9
vt 0.865 0.0999997
vt 0.87 0.9
vt 0.87 0.0999997
vt 0.13 0.0999997
vt 0.135 0.9
vt 0.135 0.0999997
vt 0.135 0.9
vt 0.13 0.0999997
vt 0.13 0.9
vt 0.9 0.0416664
vt 0.885 0.0666664
vt 0.9 0.958334
vt 0.9 0.958334
vt 0.9 0.0416664
vt 0.9 0.0416664
vt 0.9 0.0416664
vt 0.9 0.958334
vt 0.9 0.958334
vt 0.9 0.958334
vt 0.0999996 0.958334
vt 0.9 0.958334
vt 0.0999996 0.958334
vt 0.9 0.958334
vt 0.0999997 0.958334
vt 0.0999997 0.0416664
vt 0.0999996 0.958334
vt 0.0999997 0.958334
vt 0.0999996 0.958334
vt 0.0999997 0.0416664
vt 0.0999996 0.0416664
vt 0.0999997 0.0416664
vt 0.9 0.0416664
vt 0.0999996 0.0416664
vt 0.9 0.0416664
vt 0.0999997 0.0416664
vt 0.9 0.0416664
vt 0.9 0.0416664
vt 0.0999996 0.958334
vt 0.0999996 0.0416664
vt 0.0999996 0.958334
vt 0.9 0.0416664
vt 0.9 0.958334
f 1/1 2/2 3/3
f 4/4 2/5 1/6
f 4/7 5/8 2/9
f 5/10 4/11 6/12
f 7/13 6/14 4/15
f 6/16 7/17 8/18
f 8/19 7/20 3/21
f 9/22 10/23 11/24
f 10/25 9/26 12/27
f 12/28 9/29 13/30
f 13/31 9/32 14/33
f 15/34 16/35 17/36
f 16/37 15/38 18/39
f 19/40 10/41 12/42
f 10/43 19/44 20/45
f 8/46 3/47 2/48
f 2/49 21/50 8/51
f 21/52 2/53 22/54
f 2/55 23/56 22/57
f 23/58 2/59 5/60
f 6/61 23/62 5/63
f 23/64 6/65 24/66
f 6/67 21/68 24/69
f 21/70 6/71 8/72
f 21/73 23/74 24/75
f 23/76 21/77 22/78
