v 0.03892665 0.05816281 -0.06952841
v 0.01969635 0.06564779 -0.05736151
v 0.04887196 0.06585597 0.05705637
v -0.03574885 0.05958402 0.09035615
v -0.04711388 0.05141857 0.08791045
v -0.03318854 0.0526592 0.1042139
v -0.0539704 0.01236095 -0.08039897
v -0.05937274 0.03437953 0.0532718
v -0.05012633 0.0327286 -0.06425124
v -0.05388194 0.04797521 0.06826779
v -0.008724123 0.06158151 0.09150221
v -0.02758013 0.05621362 0.1007028
v -0.005057752 0.05495234 0.1022462
v 0.06225731 0.0043917 0.1035541
v 0.06119078 -0.00602749 0.101438
v 0.06207027 -0.02647127 -0.03712256
v 0.05887017 -0.03733507 -0.04050926
v 0.0574153 -0.02406859 0.09221465
v 0.05943705 -0.01611669 0.09749154
v -0.0417063 0.06033663 0.07321541
v 0.04791147 -0.04196203 0.0668306
v 0.02636948 -0.06397867 -0.04180447
v 0.03606168 -0.06039369 -0.04234654
v 0.04175365 -0.0570706 -0.04598859
v 0.04719088 -0.05296499 -0.04353828
v -0.03481571 -0.01418653 -0.1087269
v -0.02056385 -0.03523968 -0.08912347
v -0.03127761 -0.02515319 -0.09299203
v -0.04198705 -0.01488206 -0.08828122
v -0.04748195 -0.003870428 -0.09617129
v 0.05641888 0.05692641 0.08006436
v 0.05312681 0.06256723 0.0695442
v -0.002555467 -0.00714992 0.1183773
v -0.0005832091 0.00230889 0.1209934
v -0.02164832 0.003570557 0.1236047
v -0.000720948 0.01367661 0.1222306
v -0.03298397 0.05214363 -0.05293089
v -0.06268557 0.01758097 0.07105523
v -0.06093545 0.02751837 0.07000519
v -0.0114165 0.0628898 -0.05031405
v 0.05622722 0.01083411 -0.089214
v 0.05001143 0.01586878 -0.1088035
v 0.05316512 0.02583183 -0.1012954
v -0.01060969 0.06451043 0.08308392
v 0.06274896 0.01517911 0.1036209
v 0.06256914 0.02534892 0.101799
v 0.06173649 0.03459106 0.09857302
v -0.0002534613 0.02799407 0.1200102
v -0.002351835 0.04359507 0.1128489
v 0.05976646 0.04668001 0.09109792
v -0.02877854 0.01890241 0.1237562
v -0.0292828 0.0319524 0.1205634
v -0.03828798 0.01588391 0.1183646
v -0.01426233 0.06585588 0.07346664
v 0.003653117 0.06585594 -0.05234298
v -0.03281337 0.06277101 0.07879942
v 0.06081496 0.001543775 -0.0631493
v -0.04337245 -0.03219795 0.07229453
v -0.01021945 -0.05959995 -0.04181684
v -0.0003516078 -0.06377998 -0.03816157
v -0.05563482 -0.01939054 0.07008287
v -0.01625616 -0.05503666 -0.04050947
v -0.02981941 -0.008556023 0.1190078
v -0.02894582 0.006302454 0.1236831
v -0.02059899 0.01812249 0.1241894
v -0.02461237 0.04786786 0.1109572
v -0.05819119 0.03273876 0.07965903
v 0.04934759 0.04731059 -0.08189519
v 0.05317144 0.03610586 -0.09257724
v 0.05382498 0.001019761 -0.0927553
v 0.0473462 -0.001324728 -0.1049766
v 0.04042839 0.001691893 -0.1179605
v 0.0596766 -0.01987913 -0.06005868
v 0.06216892 -0.01610661 -0.04704916
v 0.05758902 -0.006274313 -0.07756529
v 0.05982471 -0.001539499 -0.06981789
v -0.03845522 -0.03211261 0.08889662
v -0.05160761 -0.02232219 0.08258434
v -0.06274895 0.008215174 0.06475881
v -0.05890342 -0.01255541 0.05952733
v -0.008300275 -0.05231874 -0.06677432
v -0.001538336 -0.04815169 -0.08015315
v 0.004478365 -0.0623658 -0.05467839
v -0.0415448 0.04292307 0.1053319
v -0.05486198 0.03134657 0.09120468
v -0.05060972 0.02544477 0.101589
v -0.03911921 0.03185441 0.113832
v -0.02151212 0.03105246 0.1214417
v -0.02933928 0.04058273 0.1162859
v -0.05999514 0.01633277 0.08557182
v -0.06024192 0.02570046 0.07964561
v -0.0532303 0.01369835 0.1004095
v -0.05639239 0.02233363 0.09292608
v -0.05806797 0.004012272 0.08940517
v -0.03318544 -0.01960236 0.1104322
v -0.04506099 -0.01711945 0.1019703
v -0.004414558 -0.01758151 0.1129683
v -0.02588747 -0.02013975 0.1116007
v 0.05477081 -0.03175463 0.08518337
v 0.0527804 -0.04710902 -0.04193211
v 0.05105148 -0.03863691 0.07496303
v 0.008095495 -0.02930467 -0.1094217
v 0.006491639 -0.01731917 -0.1238693
v 0.01721755 -0.01395139 -0.1241894
v 0.05457257 -0.01600227 -0.0789168
v 0.01649202 -0.06341377 -0.05496943
v 0.01154001 -0.05747995 -0.06648775
v 0.02153849 -0.05380704 -0.07121412
v 0.02749582 -0.06186217 -0.05472011
v 0.06021565 -0.0318812 -0.04480862
v 0.04196921 -0.01516762 -0.1018892
v 0.04941316 -0.01783824 -0.088067
v 0.04577156 -0.02903311 -0.08277543
v 0.05485358 -0.02977245 -0.06495656
v -0.03477637 -0.02759191 0.100899
v -0.06103114 -5.181134e-05 0.07506012
v -0.02280083 -0.04239456 -0.0684279
v -0.03490586 -0.02830018 -0.07447512
v -0.007992461 -0.02899113 0.1022006
v -0.0157674 -0.03745377 0.08523843
v 0.009831898 -0.06549703 -0.03856973
v -0.01243439 -0.03841859 -0.09085765
v -0.02101544 -0.01864447 -0.1166522
v -0.009649873 -0.03219068 -0.1029
v -0.04021234 -0.002365038 0.1145145
v 0.057403 0.01968405 -0.08112869
v 0.024036 -0.03072748 -0.1020357
v 0.01847867 -0.04030953 -0.09227581
v 0.02947488 -0.007470295 -0.1223566
v 0.035845 -0.0281366 -0.09580571
v -0.005369999 -0.01925023 -0.121923
v -0.002319105 -0.03330426 -0.103628
v 0.03014786 -0.05006801 -0.07259373
v -0.003496781 -0.06203036 -0.04720904
v 0.008245125 -0.06524707 -0.04746036
v 0.05283903 -0.04211624 -0.05473409
v 0.05630016 -0.04096432 -0.04677672
v -0.01382487 -0.05119532 -0.06191676
v -0.02738474 -0.04100804 -0.05629875
v 0.01571985 -0.06585604 -0.04282746
v 0.04801664 -0.05053894 -0.05150724
v -0.06124825 0.007226139 0.08043932
v -0.05286411 0.006275617 0.1000979
v -0.05443311 -0.001011178 0.09494813
v -0.01175173 -0.0343684 0.09361774
v 0.009241581 -0.04455465 -0.0880703
v 0.03409574 -0.04024684 -0.08286197
v 0.04493768 -0.04093742 -0.07001878
v 0.03967324 -0.05513301 -0.05663031
v -0.05766398 -0.004617497 0.08454202
v 0.03319532 -0.0611182 -0.05018065
v 0.02178256 -0.06491254 -0.04692626
f 1 2 3
f 4 5 6
f 7 8 9
f 9 8 10
f 11 12 13
f 14 15 16
f 17 16 18
f 16 19 18
f 20 5 4
f 21 22 23
f 23 24 21
f 25 21 24
f 26 27 28
f 26 29 30
f 11 31 32
f 33 34 35
f 36 34 14
f 12 4 6
f 37 9 20
f 38 39 8
f 37 20 40
f 41 42 43
f 11 44 4
f 19 16 15
f 14 16 45
f 46 47 48
f 13 49 50
f 51 52 53
f 54 3 55
f 55 3 2
f 44 56 4
f 56 20 4
f 47 46 57
f 58 59 60
f 58 61 62
f 35 63 33
f 51 53 64
f 64 35 65
f 64 65 51
f 66 13 12
f 66 49 13
f 10 67 5
f 1 3 68
f 31 69 68
f 31 68 32
f 11 32 44
f 12 11 4
f 14 34 15
f 45 48 36
f 16 46 45
f 40 20 56
f 56 55 40
f 54 55 56
f 10 5 20
f 41 70 42
f 71 72 42
f 73 57 74
f 50 47 57
f 75 76 73
f 77 58 60
f 61 58 78
f 79 7 80
f 7 30 80
f 81 82 83
f 33 15 34
f 84 6 5
f 85 86 84
f 53 52 87
f 48 65 36
f 65 88 51
f 12 6 66
f 89 66 6
f 6 84 89
f 89 49 66
f 38 90 91
f 8 39 10
f 39 67 10
f 20 9 10
f 54 56 44
f 3 54 44
f 74 46 16
f 13 31 11
f 90 92 93
f 93 92 86
f 86 85 93
f 90 94 92
f 95 63 96
f 63 97 33
f 63 95 98
f 99 17 18
f 100 17 101
f 101 17 99
f 102 103 104
f 70 105 71
f 106 107 108
f 108 109 106
f 70 71 42
f 110 16 17
f 74 110 73
f 16 110 74
f 76 57 73
f 111 112 113
f 105 73 114
f 77 78 58
f 96 77 115
f 96 78 77
f 95 96 115
f 116 80 61
f 7 79 38
f 8 7 38
f 28 29 26
f 28 117 118
f 97 98 119
f 97 119 99
f 97 99 18
f 120 121 21
f 122 123 124
f 123 122 27
f 63 35 64
f 64 125 63
f 36 35 34
f 36 65 35
f 52 89 87
f 89 84 87
f 84 86 87
f 88 89 52
f 51 88 52
f 91 39 38
f 43 126 41
f 3 32 68
f 44 32 3
f 50 126 69
f 33 97 19
f 19 15 33
f 45 36 14
f 45 46 48
f 49 48 47
f 50 31 13
f 86 92 53
f 53 87 86
f 60 120 77
f 127 128 102
f 129 72 111
f 105 70 75
f 111 72 71
f 130 111 113
f 129 127 104
f 131 124 123
f 131 103 102
f 132 82 124
f 133 109 108
f 134 135 60
f 134 60 59
f 113 114 136
f 113 112 114
f 136 114 137
f 114 73 110
f 137 114 110
f 105 75 73
f 80 116 79
f 81 122 82
f 81 27 122
f 134 138 81
f 59 117 138
f 59 138 134
f 58 62 59
f 117 27 138
f 27 81 138
f 26 123 27
f 61 118 139
f 29 28 118
f 27 117 28
f 117 139 118
f 139 117 62
f 140 121 135
f 60 135 121
f 121 120 60
f 110 17 137
f 136 137 141
f 63 98 97
f 89 88 49
f 93 85 91
f 93 91 90
f 79 142 38
f 91 85 67
f 5 67 85
f 85 84 5
f 126 43 69
f 69 31 50
f 49 47 50
f 53 143 125
f 53 92 143
f 53 125 64
f 125 143 96
f 96 63 125
f 96 143 144
f 115 145 119
f 115 119 98
f 145 101 119
f 95 115 98
f 101 21 25
f 104 127 102
f 112 111 71
f 112 105 114
f 130 129 111
f 132 146 82
f 102 132 131
f 122 124 82
f 127 147 133
f 127 133 128
f 108 107 146
f 133 108 128
f 75 70 41
f 41 76 75
f 113 136 148
f 30 29 80
f 118 61 80
f 117 59 62
f 97 18 19
f 137 17 100
f 141 100 25
f 137 100 141
f 149 148 141
f 88 48 49
f 142 90 38
f 91 67 39
f 150 116 61
f 150 61 78
f 94 90 142
f 143 94 144
f 116 150 142
f 142 150 94
f 145 21 101
f 21 145 120
f 115 77 120
f 120 145 115
f 99 119 101
f 71 105 112
f 148 147 130
f 148 130 113
f 83 82 107
f 108 146 128
f 149 151 109
f 22 21 140
f 135 152 140
f 135 106 152
f 135 83 106
f 83 135 134
f 62 61 139
f 80 29 118
f 121 140 21
f 151 149 24
f 151 24 23
f 147 148 149
f 46 74 57
f 79 116 142
f 92 94 143
f 130 127 129
f 130 147 127
f 132 102 146
f 124 131 132
f 146 102 128
f 106 83 107
f 146 107 82
f 149 109 133
f 140 152 22
f 152 109 151
f 22 151 23
f 134 81 83
f 57 126 50
f 126 76 41
f 141 148 136
f 96 150 78
f 150 96 144
f 141 25 24
f 133 147 149
f 126 57 76
f 149 141 24
f 152 106 109
f 151 22 152
f 144 94 150
f 65 48 88
f 25 100 101
f 7 2 1
f 7 40 55
f 7 55 2
f 7 37 40
f 7 1 68
f 7 69 43
f 7 9 37
f 7 123 26
f 129 104 7
f 42 72 7
f 104 103 7
f 7 26 30
f 7 43 42
f 7 68 69
f 103 131 7
f 131 123 7
f 72 129 7
