v 0.029201 -0.008563757 0.1244037
v 0.02880022 -0.02473104 0.1237659
v 0.03830895 -0.02238488 0.1182056
v 0.03042339 -0.04073924 0.1171298
v -0.006121561 -0.06663895 -0.05539018
v 0.04981128 -0.0334951 -0.06599911
v 0.0367815 -0.04963332 -0.05662937
v -0.04780488 -0.06663898 0.05474518
v -0.04002494 -0.05774194 -0.07271288
v -0.02180341 -0.06560102 -0.0608813
v -0.05121826 -0.01826721 -0.1083363
v -0.05328462 -0.02765903 -0.101289
v 0.05173972 -0.05121282 0.07384863
v -0.0513453 -0.04315978 -0.08802877
v -0.0005376488 -0.02142483 0.122073
v 0.01936142 -0.01345697 0.1251162
v 0.0004225522 -0.006665409 0.1225004
v -0.06265199 -0.01135302 0.1048788
v 0.01899868 -0.0268546 0.1235411
v 0.05235033 -0.00426811 -0.08920611
v 0.05403879 -0.01788497 -0.07754302
v 0.03962705 -0.03651807 0.1123174
v 0.05157772 -0.02417096 0.1014546
v 0.02249517 -0.03674796 0.1198928
v -0.06158 0.001871824 0.1033863
v -0.06271608 0.02580836 -0.0362573
v -0.06262784 -0.02528468 0.1029654
v 0.05776164 -0.04044941 0.0565653
v 0.01361932 -0.06320661 -0.05235918
v 0.01505291 -0.06663895 0.07242942
v -0.05505446 -0.06063899 0.07592177
v 0.01013552 -0.06505412 0.08549264
v 0.004359677 -0.05678773 0.1016681
v 0.02258715 -0.002222478 0.1236288
v 0.0001196861 -0.0333325 0.1190541
v -0.06180844 0.005252451 -0.05847558
v -0.05972937 -0.009973705 -0.0706073
v -0.06159884 -0.03700903 0.09869298
v 0.03788847 0.02391717 -0.07882154
v 0.05504417 0.01930961 0.07273111
v 0.05877589 0.01180935 0.06035307
v 0.0627161 -0.009604126 0.07062668
v 0.0611117 -0.0007579625 0.05187699
v 0.04708979 0.004793495 -0.09814273
v 0.03904521 0.01204455 -0.1064714
v 0.03315502 -0.05390829 0.1042111
v 0.04255255 -0.04661947 0.1023035
v 0.02708341 -0.05479524 0.1048329
v 0.05273992 -0.03188559 0.09593701
v 0.05020864 -0.01667631 0.104851
v 0.05684385 -0.01457539 0.09443358
v 0.05763879 -0.02443978 0.09008004
v 0.03932574 -0.004902393 0.1174828
v 0.01781678 0.05411294 -0.04055331
v 0.0439931 0.0306862 0.07192534
v 0.05125315 0.02123228 0.08460252
v 0.05835946 0.0006756186 0.08611199
v 0.06210832 -0.02258965 0.06900993
v 0.01576556 0.01978096 -0.1197358
v 0.01571572 0.03084433 -0.1030561
v 0.02926468 0.01687977 -0.1133407
v -0.05629285 -0.02606824 -0.08216873
v -0.05706985 -0.01781097 -0.08630045
v -0.04337502 -0.004768372 -0.1171132
v -0.0360818 0.002868414 -0.1211991
v -0.05991051 -0.04702103 0.09201954
v -0.05823402 -0.05310807 0.08630042
v -0.05135258 -0.06529388 0.06389357
v -0.05825384 0.009857655 -0.07463492
v -0.05774888 -0.002073556 -0.08236061
v 0.002634436 0.01084071 0.117249
v -0.03044356 0.06416088 -0.04374262
v -0.03667979 0.06154412 -0.04297463
v -0.04796343 0.04123399 0.06823409
v 0.06161997 -0.004124343 0.07617514
v 0.03624438 -0.05986297 0.09176834
v 0.02932851 -0.06165174 0.09117532
v 0.0026775 -0.04479495 0.1133353
v 0.02317125 -0.04634559 0.1138138
v 0.05898534 -0.03254485 0.07760979
v 0.06118728 -0.01439786 0.0822546
v 0.05580534 -0.03406048 0.08742386
v 0.03936113 0.03155795 0.08704461
v 0.01090633 0.05985025 -0.03929368
v 0.0113363 0.03279552 0.09592152
v -0.0510965 0.03779471 0.07645632
v -0.05498983 0.03038317 0.08710916
v 0.02389416 0.01029265 0.1187987
v -0.01132337 0.01656437 -0.1251162
v 0.001600467 0.01945662 -0.1236619
v -0.02294825 0.01166403 -0.1245426
v -0.06046847 0.00954473 0.1010385
v -0.05842936 0.01932719 0.09629411
v -0.0606714 0.03459135 -0.0398633
v 0.04160678 -0.06107482 0.07373357
v -0.04557782 0.05581748 -0.04301293
v -0.05532895 0.04560676 -0.03852248
v 0.01548946 0.03660563 0.08600709
v -0.009892747 0.06663913 -0.03662046
v 0.01965206 0.03940287 -0.083299
v 0.009244226 0.0562304 -0.05659927
v 0.01988221 0.04714236 -0.06292356
v 0.03037427 0.02970865 -0.08630511
v 0.03016291 0.03688273 -0.06386551
v -0.02874912 0.06034723 -0.05754567
v -0.01814511 0.06545225 -0.05100483
v -0.01545807 0.05384463 -0.07357319
v -0.0270558 0.06368712 -0.05143349
v -0.02169502 0.06637055 -0.04124151
v 0.03349724 -0.06345394 0.07870325
v 0.06055969 -0.02569547 0.07895942
v 0.04652499 -0.05170774 0.08967608
v 0.05475073 -0.001871049 0.0960075
v 0.04615201 0.01768583 0.09957078
v 0.04202598 0.008180916 0.1108017
v 0.03217256 0.01856354 0.1118861
v 0.007726982 0.02376175 0.108225
v -0.05169035 -0.001116395 -0.09924087
v 0.00342837 0.03488067 -0.1025952
v -0.01246227 0.06452721 -0.05314109
v -0.006253421 0.05899557 -0.06317548
v -0.06166297 0.0190908 -0.05272178
v -0.04275519 0.05526659 -0.05297694
v -0.05020946 0.05060858 -0.04708993
v -0.05334328 0.0145385 -0.08448608
v -0.05026627 0.02749687 -0.07838602
v -0.0465304 0.009722263 -0.1011817
v -0.05678284 0.04181799 -0.04568502
v 0.004735991 0.06259903 -0.04408338
v 0.002020806 0.06418139 -0.03717007
v 0.009160943 0.04239511 -0.08749527
v 0.00464379 0.05294058 -0.06984537
v -0.0255367 0.04925033 -0.07752326
v 0.03077859 0.007083535 0.1195553
v 0.05141142 -0.007326901 0.1027188
v 0.03461966 0.02557319 0.1032638
v 0.03725278 0.02949971 0.09487291
v -0.01662435 0.03890276 -0.09604086
v -0.01928263 0.02584502 -0.1115031
v -0.05089541 0.04675025 -0.05324084
v -0.003040716 0.06458634 -0.04829102
v -0.007581711 0.06644738 -0.04286649
v -0.03693146 0.05950877 -0.05219941
v -0.004856713 0.03524941 -0.103113
v -0.003203571 0.04815146 -0.08273548
v -0.03687416 0.05023602 -0.0674755
v -0.03042047 0.03650978 -0.09202699
v -0.0315949 0.02257153 -0.1072066
v -0.04137084 0.02582642 -0.09353299
v -0.04444528 0.04154843 -0.0708558
v -0.009990841 0.02766082 -0.1124365
v -0.05779403 0.03117013 -0.05676445
f 1 2 3
f 3 2 4
f 5 6 7
f 8 9 10
f 11 5 12
f 7 6 13
f 5 8 10
f 14 10 9
f 15 16 17
f 15 17 18
f 15 19 16
f 20 21 5
f 22 3 4
f 23 3 22
f 2 24 4
f 14 12 5
f 14 5 10
f 25 26 18
f 27 18 26
f 6 28 13
f 29 30 5
f 31 32 33
f 16 34 17
f 15 18 27
f 15 35 19
f 35 15 27
f 1 16 2
f 16 19 2
f 27 26 36
f 36 37 38
f 39 40 41
f 42 21 20
f 20 43 42
f 39 44 45
f 20 41 43
f 41 42 43
f 19 24 2
f 4 46 47
f 46 4 48
f 49 22 47
f 22 49 23
f 22 4 47
f 3 23 50
f 51 23 52
f 53 1 3
f 40 54 55
f 56 57 40
f 6 5 21
f 6 21 28
f 28 21 58
f 59 60 61
f 12 14 62
f 63 62 37
f 64 65 5
f 5 11 64
f 11 12 63
f 37 62 66
f 7 29 5
f 14 31 67
f 68 31 14
f 32 8 30
f 66 38 37
f 69 70 36
f 18 17 25
f 17 34 71
f 1 34 16
f 35 27 38
f 20 44 41
f 20 5 44
f 44 39 41
f 72 73 74
f 75 40 57
f 48 76 46
f 48 77 76
f 24 35 78
f 24 19 35
f 79 24 78
f 79 48 4
f 79 78 33
f 42 58 21
f 80 13 28
f 57 51 81
f 52 49 82
f 56 40 55
f 83 56 55
f 84 83 55
f 85 86 87
f 88 71 34
f 5 61 45
f 5 45 44
f 59 61 5
f 12 62 63
f 89 90 5
f 89 5 91
f 26 92 93
f 93 94 26
f 26 25 92
f 7 13 95
f 30 8 5
f 68 9 8
f 68 14 9
f 67 33 66
f 31 68 32
f 77 48 32
f 32 48 33
f 93 87 94
f 96 97 86
f 73 96 74
f 96 86 74
f 97 94 87
f 70 11 63
f 78 38 66
f 71 25 17
f 36 38 27
f 98 83 99
f 100 101 102
f 103 104 39
f 105 106 107
f 108 106 105
f 74 99 109
f 109 72 74
f 99 74 98
f 40 75 41
f 110 32 30
f 79 4 24
f 81 42 75
f 52 80 111
f 52 82 80
f 49 47 112
f 82 49 112
f 13 80 82
f 57 113 51
f 23 49 52
f 114 115 113
f 114 116 115
f 114 57 56
f 114 113 57
f 117 85 87
f 62 14 67
f 118 64 11
f 119 60 59
f 120 121 107
f 91 5 65
f 36 122 69
f 93 92 71
f 95 29 7
f 29 95 110
f 110 30 29
f 80 28 58
f 68 8 32
f 67 31 33
f 93 71 117
f 123 124 96
f 125 126 127
f 97 87 86
f 128 97 124
f 35 38 78
f 78 66 33
f 84 129 130
f 130 83 84
f 100 131 132
f 54 102 84
f 103 102 104
f 39 104 40
f 103 100 102
f 45 103 39
f 132 101 100
f 100 60 131
f 133 105 107
f 75 57 81
f 41 75 42
f 32 110 77
f 48 79 33
f 81 111 58
f 58 42 81
f 112 13 82
f 95 13 112
f 134 1 53
f 134 34 1
f 88 34 134
f 50 53 3
f 53 50 135
f 115 116 134
f 115 134 53
f 117 136 85
f 85 98 74
f 74 86 85
f 117 88 116
f 114 137 136
f 137 56 83
f 137 114 56
f 63 36 70
f 60 100 61
f 133 107 138
f 139 89 91
f 63 37 36
f 122 36 26
f 76 47 46
f 112 47 76
f 117 71 88
f 87 93 117
f 124 123 140
f 97 96 124
f 127 65 64
f 25 71 92
f 141 106 142
f 120 106 141
f 130 99 83
f 60 119 131
f 141 129 101
f 55 54 84
f 54 104 102
f 105 143 108
f 95 112 76
f 76 110 95
f 77 110 76
f 51 52 81
f 81 52 111
f 135 50 51
f 51 113 135
f 135 115 53
f 98 137 83
f 137 85 136
f 137 98 85
f 116 136 117
f 116 114 136
f 61 103 45
f 90 59 5
f 90 119 59
f 144 119 90
f 145 131 119
f 107 121 145
f 120 107 106
f 143 146 123
f 146 143 105
f 146 105 133
f 147 133 138
f 148 91 65
f 139 91 148
f 147 139 148
f 125 64 118
f 127 64 125
f 126 149 127
f 150 140 123
f 147 148 149
f 141 121 120
f 142 99 130
f 121 141 132
f 132 141 101
f 101 84 102
f 101 129 84
f 54 40 104
f 103 61 100
f 108 109 106
f 109 108 72
f 58 111 80
f 23 51 50
f 115 135 113
f 116 88 134
f 62 67 66
f 89 151 90
f 146 150 123
f 138 139 147
f 124 140 128
f 128 140 152
f 152 140 126
f 147 150 146
f 147 149 150
f 147 146 133
f 132 145 121
f 109 142 106
f 89 139 151
f 97 128 94
f 128 152 94
f 150 149 126
f 65 149 148
f 65 127 149
f 131 145 132
f 107 144 138
f 142 109 99
f 11 70 69
f 69 118 11
f 72 143 73
f 143 72 108
f 126 140 150
f 152 125 69
f 130 141 142
f 130 129 141
f 151 144 90
f 107 145 144
f 138 144 151
f 139 138 151
f 126 125 152
f 69 125 118
f 144 145 119
f 94 152 122
f 94 122 26
f 96 143 123
f 143 96 73
f 152 69 122
