v -0.001172438 0.004532814 0.0386394
v -0.00161688 0.004612394 0.03741783
v -0.001616687 -0.004625224 0.03741705
v -0.001616746 -0.005132012 -0.0373407
v -0.001616746 0.005132012 -0.03734002
v 0.001616865 -0.004618026 -0.03711715
v 0.001616329 0.004618928 -0.03711665
v -0.001172021 -0.004546858 0.03863806
v 0.00152804 -0.00463634 -0.03769365
v 0.0005746037 -0.004793026 -0.03857812
v -0.0004142225 -0.004949935 -0.0386394
v 0.0005747378 0.004794247 -0.03857762
v -0.000415206 0.004950814 -0.03863829
v -0.001337931 0.005092464 -0.03793803
v 0.00152728 0.004637823 -0.03769317
v 0.001425818 0.004654914 -0.03797323
v 0.001426145 -0.004654311 -0.0379737
v -0.001337394 -0.00509163 -0.03793943
v -0.0009402931 0.005032219 -0.03830314
v -0.000939399 -0.005030341 -0.03830469
f 1 2 3
f 2 4 3
f 4 2 5
f 6 7 1
f 4 8 3
f 8 1 3
f 8 6 1
f 9 4 10
f 8 9 6
f 9 8 4
f 9 7 6
f 11 12 10
f 12 11 13
f 14 4 5
f 2 14 5
f 15 2 1
f 7 15 1
f 12 15 16
f 15 9 16
f 9 15 7
f 9 17 16
f 17 9 10
f 17 12 16
f 12 17 10
f 14 18 4
f 4 18 10
f 18 11 10
f 19 15 12
f 19 12 13
f 19 14 2
f 15 19 2
f 19 18 14
f 18 20 11
f 19 20 18
f 11 20 13
f 20 19 13
