v 0.002676189 0.02050118 0.02322644
v 0.003261626 0.01725726 -0.02320719
v -0.0009870529 0.0188968 -0.02296764
v -0.003215224 0.006545857 0.02204883
v -0.002895087 -0.01799752 0.02225709
v -0.002894491 0.01379798 -0.02188462
v -0.00346455 -0.01934507 0.004027724
v -0.002370447 -0.01917619 0.0222345
v 0.004034787 -0.01774146 0.02183664
v 0.002660662 -0.02050117 0.02120835
v -0.003879458 -0.01814835 0.005865455
v 0.003386706 0.005947322 0.0216592
v 0.0005735755 -0.02049746 0.005231082
v 0.001519263 -0.01923239 -0.002510071
v -0.0002785325 -0.01882754 -0.005864799
v 0.003646523 -0.01219973 -0.02295911
v -0.004035771 0.008821622 -0.008067727
v -0.003085554 -0.01528376 -0.01704454
v 0.004035771 0.01405467 -0.0223031
v 0.002560973 -0.01403836 -0.02166992
v -0.002704978 -0.01362577 -0.02164352
v -0.003771424 -0.01492899 -0.01425791
v 0.003777981 -0.009318143 -0.02299309
v 0.003783256 0.01607624 -0.02322644
v -0.004020214 -0.01450915 -0.004202843
v -0.003152162 -0.009573683 -0.02257419
f 1 2 3
f 4 1 3
f 1 4 5
f 6 4 3
f 7 8 5
f 9 8 10
f 8 1 5
f 8 9 1
f 4 11 5
f 11 7 5
f 9 12 1
f 13 14 10
f 8 13 10
f 13 8 7
f 15 13 7
f 13 15 14
f 16 9 10
f 14 16 10
f 2 16 3
f 6 17 4
f 17 11 4
f 18 15 7
f 19 12 9
f 12 19 1
f 15 20 14
f 20 16 14
f 16 20 21
f 20 18 21
f 18 20 15
f 11 22 7
f 22 18 7
f 18 22 21
f 16 23 9
f 23 19 9
f 24 2 1
f 19 24 1
f 23 24 19
f 24 16 2
f 24 23 16
f 17 25 11
f 25 22 11
f 22 25 17
f 26 17 6
f 26 22 17
f 22 26 21
f 26 6 3
f 16 26 3
f 26 16 21
