v -0.00280568 0.006921768 0.01494104
v -0.001846224 -0.002708614 0.02124235
v 0.00280568 0.002167165 0.01722857
v -0.001669466 0.006506145 0.01378354
v -0.002384961 -0.005218804 -0.009295911
v -0.002568901 0.006322324 -0.02124232
v -0.00189966 -0.006452024 -0.01091346
v 0.002734065 -0.001678169 0.0168238
v 0.00270012 -0.004069388 -0.003522694
v -0.001917273 -0.006921828 0.00589174
v 0.002738148 -0.002285659 -0.01435411
v -0.002803594 -0.005286694 0.01513302
v 0.002801389 0.0009906888 -0.01465654
v -0.002789289 -0.00441128 0.0191173
v -0.001645714 0.006879151 -0.02053195
f 1 2 3
f 4 1 3
f 5 6 7
f 2 8 3
f 9 10 7
f 8 10 9
f 6 11 7
f 11 9 7
f 12 5 7
f 10 12 7
f 12 1 6
f 5 12 6
f 11 13 9
f 8 13 3
f 13 8 9
f 1 14 2
f 12 14 1
f 14 8 2
f 14 10 8
f 14 12 10
f 15 11 6
f 15 13 11
f 13 15 3
f 15 4 3
f 1 15 6
f 4 15 1
