v -0.04701191 0.001243427 -0.006096959
v -0.04509813 0.008355975 -0.004939675
v -0.01223874 0.02313673 -0.006824732
v -0.01192829 0.02425668 -0.005665779
v 0.03329191 0.004566163 0.0005414486
v 0.037523 0.001750678 0.003350735
v 0.03869915 0.001822487 -0.00270927
v -0.04992759 -0.01259935 0.006960273
v -0.04469287 -0.02064249 0.005584836
v -0.04131252 -0.01891081 0.008008003
v -0.04739419 -0.01216309 0.007697821
v -0.03593555 0.001471311 0.008575916
v -0.03857911 0.008485496 0.007903814
v -0.04520333 0.007160887 0.007654071
v -0.04660624 -0.02120511 -0.004492879
v -0.03245139 -0.02460802 -0.003150105
v -0.0472452 -0.0218064 -0.002834678
v -0.05081281 -0.01282494 -0.003664255
v -0.03945804 -0.002720281 -0.006813407
v 0.0006442368 0.01826517 -0.007504821
v 0.01936144 0.005734131 -0.008576035
v -0.01567027 0.02285172 -0.004617572
v -0.017075 0.02291609 -0.001318932
v -0.01114509 0.02460802 -0.003241897
v -0.01554358 0.02251956 0.003602147
v -0.01008707 0.02415387 0.001300573
v -0.006965965 0.0241296 -0.002446771
v 0.04822731 -0.01615642 0.003269792
v 0.05177537 -0.01170272 -0.003261328
v 0.05007255 -0.01210478 0.004138589
v -0.006227016 0.02328312 0.002835035
v -0.007267028 0.022071 0.006165862
v -0.04732955 -0.01727392 0.005481482
v -0.03546938 -0.02190182 0.00709331
v -0.04318702 -0.002206445 0.008054733
v 0.0008726716 0.01974031 0.005680084
v -0.009880513 0.01908934 0.007502675
v 0.03410316 0.001648679 0.006096721
v 0.04678443 -0.008375108 0.004360676
v 0.04761419 -0.008140832 0.0004827976
v -0.01162222 0.01056735 0.008431196
v -0.00237146 0.01006033 0.00825417
v -0.01328862 0.0002107769 0.00852561
v 0.005578429 0.01084496 0.007550716
v 0.03608978 -0.003766283 0.006588697
v 0.02196279 -0.005616739 0.00747788
v -0.02235994 -0.003295541 0.008488536
v -0.005753994 0.001179188 0.008328199
v -0.008012176 0.02377035 -0.006266952
v -0.003422379 0.02266318 -0.002977014
v -0.00366652 0.02206028 -0.006023288
v 0.04033166 0.001188874 -0.006806254
v 0.04949799 -0.01091507 -0.006163955
v -0.03242135 -0.02326399 -0.005803466
v -0.003926218 -0.01252873 -0.007774591
v -0.03358403 -0.01692678 -0.007405639
v 0.03789797 -0.01574582 -0.007674098
v 0.03653562 -0.01976131 -0.007311821
v -0.0360631 0.01214512 0.007183075
v -0.04735959 0.008388311 0.006075263
v 0.04868174 -0.01549032 -0.005428791
v -0.01714474 0.01932818 0.007322192
v -0.03866842 -0.02223504 0.005693078
v -0.02482086 -0.02335976 0.006052017
v -0.04869309 0.0006989241 0.007446647
v -0.05048794 0.0006110519 0.004662514
v 0.02924135 -0.0227783 0.002344489
v 0.03551674 -0.02143076 0.003560185
v 0.01056874 -0.02365473 0.004817843
v 0.03816116 -0.02190454 -0.003899097
v 0.02189991 -0.02400219 -0.002313375
v 0.04308939 -0.01912445 0.00316906
v -0.001732588 -0.02368163 0.005131721
v -0.002126396 -0.02451375 0.0026896
v 0.009363651 -0.0243523 -0.003641486
v -0.002658844 -0.02446312 -0.003155589
v 0.008567482 -0.02427024 0.002663136
v 0.04166719 -0.01874931 0.004982352
v 0.03716737 -0.0183841 0.005653858
v -0.0003762543 0.02143866 0.002659321
v 0.04330668 -0.008760244 0.006281495
v 0.02684313 0.004688084 -0.008402228
v -0.02465394 -0.02072977 -0.006833076
v -0.001337618 -0.02193993 -0.006712556
v -0.04557252 -0.02059047 -0.005939007
v -0.03616393 -0.01153104 -0.007186055
v -0.04934764 -0.01235744 -0.006655097
v -0.05033702 -0.009222806 -0.006162405
v 0.02791813 -0.02125023 -0.00667882
v -0.05152214 -0.006703392 0.004318714
v -0.05093721 -0.01316397 0.0005888939
v -0.05063769 0.001067817 -0.001666427
v -0.04832268 0.005690366 -0.003018498
v -0.01285401 0.02202594 0.006219506
v -0.03195667 -0.02353704 0.003649116
v -0.05058706 -0.007541388 0.006563425
v 0.03704491 -0.01599658 0.006066561
v -0.02121067 -0.02003902 0.007523775
v -0.02653375 -0.02194899 0.007128239
v -0.03420821 -0.02092592 -0.006682158
v -0.04688442 0.008616805 -0.0005230904
v -0.04691392 -0.005663887 -0.006488919
v 0.02028969 -0.02355598 -0.004299879
v 0.03891644 -0.02035105 -0.006937385
v 0.04373962 -0.01919134 -0.004867435
v -0.0517754 -0.009374112 -0.002274036
v -0.0491209 0.0004437268 -0.005180001
v 0.04890648 -0.01598881 -0.00135684
v -0.03189465 -0.02408621 0.000857234
v 0.01807651 -0.007533818 0.007483363
v 0.04764661 -0.01105183 0.005683422
v 0.004789472 -0.02080558 0.006368518
v 0.04487813 -0.01506732 -0.007208347
v 0.04521728 -0.01171787 -0.007530332
v 0.03229976 0.002032772 -0.008304477
v -0.03779641 -0.0178909 -0.007199168
v 0.01137161 -0.02344306 -0.005452871
v 0.04382977 -0.01928079 -0.001146436
v 0.04646412 -0.01573394 0.004786968
v 0.02012628 -0.02086461 0.005566955
v 0.04413715 -0.01005696 -0.007576108
f 1 2 3
f 2 4 3
f 5 6 7
f 8 9 10
f 11 8 10
f 12 11 10
f 12 13 14
f 15 16 17
f 18 15 17
f 19 1 3
f 20 19 3
f 19 20 21
f 4 22 23
f 22 4 2
f 24 4 23
f 25 24 23
f 24 25 26
f 24 26 27
f 28 29 30
f 26 31 27
f 32 31 26
f 33 8 17
f 9 33 17
f 33 9 8
f 9 34 10
f 35 12 14
f 35 11 12
f 36 32 37
f 38 36 37
f 36 38 6
f 36 31 32
f 38 39 6
f 39 40 6
f 29 39 30
f 40 39 29
f 41 13 12
f 41 42 37
f 43 41 12
f 41 43 42
f 44 38 37
f 42 44 37
f 45 42 46
f 44 45 38
f 45 44 42
f 47 12 10
f 43 47 10
f 47 43 12
f 42 48 46
f 48 43 46
f 43 48 42
f 49 20 3
f 4 49 3
f 50 49 27
f 51 49 50
f 49 24 27
f 24 49 4
f 52 29 53
f 52 51 50
f 52 49 51
f 49 52 20
f 52 40 29
f 52 5 7
f 6 52 7
f 40 52 6
f 15 54 16
f 21 55 56
f 55 57 56
f 57 55 21
f 57 58 56
f 59 60 14
f 60 25 23
f 29 61 53
f 62 41 37
f 41 62 13
f 13 62 14
f 62 59 14
f 63 34 9
f 16 63 17
f 63 9 17
f 34 63 64
f 65 35 14
f 35 65 11
f 11 65 8
f 60 65 14
f 65 60 66
f 67 68 69
f 70 67 71
f 68 67 70
f 72 68 70
f 73 69 64
f 74 73 64
f 73 74 69
f 75 76 16
f 76 74 16
f 74 76 75
f 74 77 69
f 67 77 71
f 77 67 69
f 77 75 71
f 77 74 75
f 68 78 69
f 78 79 69
f 72 78 68
f 78 72 28
f 5 80 6
f 80 36 6
f 80 52 50
f 52 80 5
f 36 80 31
f 80 50 27
f 31 80 27
f 81 45 46
f 45 81 38
f 20 82 21
f 52 82 20
f 58 83 56
f 83 58 84
f 85 54 15
f 86 21 56
f 86 19 21
f 87 88 1
f 86 87 19
f 87 86 56
f 87 85 15
f 87 15 18
f 88 87 18
f 58 89 84
f 90 91 8
f 8 91 17
f 91 18 17
f 92 90 66
f 60 92 66
f 93 92 60
f 32 94 37
f 94 62 37
f 25 94 26
f 94 32 26
f 62 94 59
f 60 94 25
f 94 60 59
f 63 95 64
f 90 96 66
f 96 65 66
f 96 90 8
f 65 96 8
f 97 98 79
f 97 81 46
f 34 99 10
f 99 98 10
f 69 99 64
f 99 34 64
f 85 100 54
f 54 100 84
f 100 83 84
f 93 101 2
f 101 93 60
f 101 60 23
f 22 101 23
f 101 22 2
f 19 102 1
f 102 87 1
f 87 102 19
f 103 70 71
f 75 103 71
f 104 89 58
f 104 105 70
f 103 104 70
f 105 104 61
f 91 106 18
f 106 91 90
f 92 106 90
f 106 88 18
f 106 92 88
f 92 107 88
f 107 92 93
f 88 107 1
f 1 107 2
f 107 93 2
f 108 105 61
f 28 108 29
f 108 61 29
f 109 63 16
f 109 95 63
f 95 109 64
f 109 74 64
f 74 109 16
f 110 97 46
f 97 110 98
f 98 110 10
f 110 43 10
f 43 110 46
f 97 111 81
f 78 111 79
f 111 97 79
f 39 111 30
f 111 39 38
f 81 111 38
f 98 112 79
f 99 112 98
f 112 99 69
f 113 58 57
f 114 113 57
f 113 104 58
f 104 113 61
f 61 113 53
f 113 114 53
f 115 82 52
f 115 114 57
f 115 57 21
f 82 115 21
f 116 100 85
f 116 87 56
f 87 116 85
f 83 116 56
f 100 116 83
f 89 117 84
f 117 103 75
f 104 117 89
f 117 104 103
f 117 54 84
f 117 75 16
f 54 117 16
f 118 108 28
f 108 118 105
f 72 118 28
f 118 72 70
f 105 118 70
f 119 78 28
f 119 111 78
f 119 28 30
f 111 119 30
f 79 120 69
f 120 112 69
f 112 120 79
f 121 115 52
f 115 121 114
f 121 52 53
f 114 121 53
