v 0.0007219017 0.01045775 -0.01148376
v 0.001289934 -0.00933665 0.01153964
v 0.003671318 -0.00382477 -0.01112542
v -6.824732e-06 0.01085305 -0.0122306
v -0.003647 0.01011801 0.01090753
v 0.003012151 -0.009555459 -0.01126614
v -0.003162652 -0.01085305 -0.01223108
v -0.002541512 -0.0004764199 -0.01206347
v -0.002780467 0.009430528 0.01008523
v 0.003660828 -0.009233057 -0.003777415
v -0.0002723634 -0.0104776 0.01223105
v -0.001217872 -0.009887874 0.01022339
v -0.002977699 -0.009649694 -0.002963662
v -0.003671318 -0.009075284 -0.01137313
v -0.0009970367 0.009184241 -0.0108352
f 1 2 3
f 4 1 3
f 1 4 5
f 6 4 3
f 4 6 7
f 8 4 7
f 2 9 5
f 9 1 5
f 1 9 2
f 2 10 3
f 10 6 3
f 11 2 5
f 12 11 5
f 11 10 2
f 10 11 6
f 6 11 7
f 11 12 7
f 13 12 5
f 12 13 7
f 8 14 5
f 14 8 7
f 14 13 5
f 13 14 7
f 4 15 5
f 15 8 5
f 8 15 4
