v 0.002735376 -0.004555583 0.02370918
v -0.002735347 -0.01003227 0.02370876
v -0.001821697 -0.01003301 0.02370775
v -0.001823053 0.01003304 -0.01823074
v 0.001822785 0.008206427 -0.01275867
v 0.002734989 0.006383389 -0.02187997
v -0.001823455 0.009119183 -0.02370721
v -0.002735361 0.00455451 0.02097023
v -0.002735347 -0.001820594 -0.02370954
v -0.001823261 0.002734631 0.02370888
v -0.001822114 -0.01003271 0.02188444
v 0.002735287 0.003645957 -0.02370811
v -0.002515003 0.008386016 -0.0218004
v -0.001821369 -0.001822174 -0.02370852
v 0.002735138 0.003644556 0.01367366
v 0.002734557 0.007292181 -0.01458216
v 0.002734363 0.0054712 0.007292211
v -0.001823127 0.005469829 0.01823735
v -0.002314568 0.008489788 0.001541078
v 0.002735108 -0.001824111 0.02370948
f 1 2 3
f 4 5 6
f 7 4 6
f 2 8 9
f 8 2 10
f 11 1 3
f 11 2 9
f 2 11 3
f 7 12 9
f 12 7 6
f 11 12 1
f 13 7 9
f 7 13 4
f 8 13 9
f 14 11 9
f 12 14 9
f 14 12 11
f 15 12 6
f 12 15 1
f 5 16 6
f 17 16 5
f 16 15 6
f 15 16 17
f 18 15 17
f 18 8 10
f 15 18 10
f 13 19 4
f 19 13 8
f 18 19 8
f 19 18 17
f 19 5 4
f 19 17 5
f 20 15 10
f 15 20 1
f 2 20 10
f 1 20 2
