v 0.002152026 -0.004954517 -0.01930587
v -0.002284735 0.001963615 -0.01676548
v 0.0004940927 0.004479527 -0.01581635
v 0.002340227 0.005519688 -0.01347351
v -0.00145483 -0.002644062 -0.01749253
v -0.002241284 0.003917634 -0.006307629
v 0.00233674 0.003705978 0.01502925
v 0.001230478 -0.005573511 -0.01759364
v -0.002332866 -0.002614975 0.01654829
v -0.002241254 0.003218234 0.00606606
v 0.001263797 -0.005559325 0.01645289
v 0.0005237162 0.005577087 -0.005676979
v 0.002176136 -0.005577028 0.01645111
v -0.002340198 -0.001235485 -0.01600438
v -0.00230667 -0.001222908 0.01804131
v 0.001445621 0.005400777 0.007869716
v 0.001399487 0.002135575 0.01930587
v 0.001424074 0.003722191 0.01502954
f 1 2 3
f 4 1 3
f 1 5 2
f 2 6 3
f 4 7 1
f 8 5 1
f 6 9 10
f 9 8 11
f 8 9 5
f 12 4 3
f 6 12 3
f 7 13 1
f 8 13 11
f 13 8 1
f 5 14 2
f 9 14 5
f 14 6 2
f 14 9 6
f 9 15 10
f 15 9 11
f 13 15 11
f 16 6 10
f 16 12 6
f 16 7 4
f 12 16 4
f 15 17 10
f 17 13 7
f 17 15 13
f 16 18 7
f 18 17 7
f 18 16 10
f 17 18 10
