v 0.002368331 -0.005790949 0.01116627
v 0.002368361 0.005982339 -0.02330506
v 0.002368301 0.005980909 0.02074724
v -0.002163172 0.0007641912 0.02247137
v 0.001497835 -0.001821816 0.02330512
v 0.002239734 -0.00506264 -0.01592714
v 0.00131084 -0.004186988 -0.01909304
v -0.002172858 0.002496719 0.02190351
v -0.002223849 -0.00375855 0.00571996
v -0.002363354 0.002433121 -0.01932377
v 0.001455098 0.005977869 0.02075112
v 0.002242446 -0.001571774 0.02173018
v -0.002331883 -0.002483368 -0.01675576
v 0.0004612803 -0.005982399 -0.006986678
v 0.001261204 0.005629361 -0.0213415
v -0.002368376 0.001865387 -0.02106148
v 0.001456052 -0.005794108 0.01117074
v -0.001405716 -0.00364387 -0.0144611
f 1 2 3
f 4 5 3
f 2 6 7
f 1 6 2
f 8 9 4
f 9 8 10
f 2 11 3
f 8 11 10
f 11 4 3
f 11 8 4
f 12 1 3
f 5 12 3
f 12 5 1
f 13 9 10
f 14 6 1
f 6 14 7
f 15 11 2
f 11 15 10
f 13 16 7
f 16 13 10
f 16 2 7
f 16 15 2
f 15 16 10
f 17 14 1
f 14 17 9
f 5 17 1
f 17 5 4
f 9 17 4
f 13 18 9
f 18 14 9
f 18 13 7
f 14 18 7
