v -0.0009283125 -0.0111329 0.01776382
v 0.0009282529 -0.01113498 -0.01751798
v 0.0009283125 -0.01074439 0.01713458
v 0.0009282529 0.01074451 -0.01776379
v 1.603365e-05 0.01074547 -0.0177637
v 1.749396e-05 -0.01113397 -0.01751739
v -0.000895232 -0.00709796 0.01709339
v 1.615286e-05 0.01113349 0.01688823
v 0.0009280741 0.01113504 0.01688865
v -0.0008951426 -0.0108369 0.008925557
f 1 2 3
f 2 4 3
f 4 2 5
f 2 6 5
f 1 6 2
f 7 8 5
f 8 7 1
f 8 9 5
f 9 4 5
f 4 9 3
f 9 1 3
f 9 8 1
f 6 10 5
f 10 6 1
f 10 7 5
f 7 10 1
