v -0.002757102 -0.004432559 -0.01728006
v -0.00278464 0.007256508 -0.01718999
v -0.001655638 0.006416619 -0.01857014
v -0.002784908 -0.004768074 0.01857014
v -0.002642721 0.007150412 0.01757704
v 0.002807468 0.000903666 -0.01792316
v 0.002794296 0.001475871 0.01781903
v -0.001668185 0.006986916 0.01717161
v -0.001902163 -0.007256567 -0.002254263
v -3.936887e-05 -0.004339397 0.01483552
v 0.002747655 -0.0012393 0.01814087
v 0.002725542 -0.003452301 -0.008223668
v -0.002807468 -0.006978929 -0.007797465
v 0.002759159 -0.001810312 -0.01760022
v -0.001652092 0.006737649 -0.01585768
v 0.0008719862 -0.005123019 -0.007104382
v -0.001858681 -0.005247355 -0.01627035
f 1 2 3
f 2 4 5
f 6 1 3
f 7 8 5
f 8 2 5
f 9 10 4
f 4 11 5
f 11 7 5
f 10 11 4
f 11 10 12
f 6 11 12
f 11 6 7
f 13 2 1
f 2 13 4
f 13 9 4
f 14 6 12
f 6 14 1
f 15 8 7
f 15 6 3
f 6 15 7
f 2 15 3
f 8 15 2
f 13 16 9
f 10 16 12
f 16 10 9
f 16 14 12
f 17 16 13
f 16 17 14
f 17 13 1
f 14 17 1
