v 0.01060415 -0.02844407 -0.1110381
v 0.01130086 -0.003879368 0.1208018
v -0.008378074 -0.02817136 0.1149766
v 0.004270718 0.0114789 -0.1175867
v 0.0003047362 0.02844399 -0.08897924
v -0.0006895289 0.004397139 0.08496356
v -0.009569168 0.02010059 -0.07201505
v -0.01130088 -0.0141208 0.09630477
v 0.001272939 0.01937293 -0.1116197
v -0.002554856 -0.004961014 -0.1165411
v 0.003974758 0.00342463 0.1030867
v 0.004847437 -0.00237608 -0.1208014
v 0.0001243427 -0.02600318 -0.1030172
v -0.01086451 -0.0161227 0.09203362
v -0.009208091 -0.01862267 0.04212666
v -0.0006166026 0.02650532 -0.0976094
v -0.006880343 0.01776604 -0.1037661
v -0.005702965 -0.01816419 -0.08850706
v -0.01002894 0.002239883 -0.069821
v -0.007923797 -0.006571397 -0.08508742
v -0.008561946 0.001364425 -0.0946973
f 1 2 3
f 2 1 4
f 5 2 4
f 6 5 7
f 8 6 7
f 9 5 4
f 10 9 4
f 5 11 2
f 11 5 6
f 8 11 6
f 2 11 3
f 11 8 3
f 1 12 4
f 12 10 4
f 10 12 1
f 13 10 1
f 13 1 3
f 14 15 3
f 8 14 3
f 5 16 7
f 9 16 5
f 17 9 10
f 16 17 7
f 17 16 9
f 13 18 10
f 15 18 3
f 18 13 3
f 19 8 7
f 14 19 15
f 19 14 8
f 19 18 15
f 18 19 20
f 21 17 10
f 18 21 10
f 21 18 20
f 19 21 20
f 17 21 7
f 21 19 7
