v -0.005584285 0.02307049 0.08262116
v 0.01531488 -0.03362931 0.02959871
v 0.0207217 0.02953806 0.02436876
v 0.02080871 -0.02206963 0.01665789
v 0.01902081 -0.02398249 -0.07379735
v 0.007661931 0.03362931 0.0204981
v 0.000146322 -0.03271008 -0.0808897
v 0.01725322 0.01655889 -0.0751943
v -0.004044339 0.0273304 -0.08262116
v -0.01943143 -0.003460279 0.06111521
v -0.01604623 -0.02264445 0.04028976
v 0.009685926 -0.03251924 -0.06874192
v -0.005577073 -0.02994079 0.01323879
v 0.02082282 0.01108523 0.01580155
v 0.00529103 0.029149 -0.07356769
v -0.01679095 0.02406058 0.05254149
v -0.01557724 0.01724132 -0.08054578
v -0.0199144 0.01665551 0.006951869
v 0.01922464 0.0001945589 -0.06888193
v -0.007586174 -0.02945356 -0.08224541
v -0.01300845 -0.02329706 -0.08065778
v -0.01765227 0.005501224 -0.07827216
v -0.01660568 -0.01223471 -0.07789099
v -0.02082282 -0.003527971 0.002723694
v 0.01314126 0.02448043 -0.07440269
v -0.02079868 0.009989863 0.04813135
v -0.0101658 0.02792466 0.005462885
v -0.01771735 -0.01902975 0.01574796
v -0.01801737 0.01822043 0.0598802
v -0.01199074 0.02263112 -0.07471412
f 1 2 3
f 2 4 3
f 5 4 2
f 6 1 3
f 7 8 5
f 8 7 9
f 10 2 1
f 10 11 2
f 12 5 2
f 7 12 2
f 12 7 5
f 11 13 2
f 13 7 2
f 4 14 3
f 15 6 3
f 6 15 9
f 6 16 1
f 16 17 18
f 19 8 3
f 8 19 5
f 14 19 3
f 19 4 5
f 19 14 4
f 13 20 7
f 7 20 9
f 21 20 11
f 20 13 11
f 20 17 9
f 17 20 21
f 22 21 23
f 22 17 21
f 24 22 23
f 17 22 18
f 22 24 18
f 25 8 9
f 15 25 9
f 8 25 3
f 25 15 3
f 26 16 18
f 24 26 18
f 26 24 10
f 27 6 9
f 27 16 6
f 10 28 11
f 24 28 10
f 28 24 23
f 21 28 23
f 28 21 11
f 29 26 10
f 26 29 16
f 29 10 1
f 16 29 1
f 16 30 17
f 27 30 16
f 17 30 9
f 30 27 9
