v -0.0001963526 0.01198888 0.01240954
v -0.002776161 0.01047635 -0.01220405
v -0.00366275 0.0103026 -0.01207682
v -0.0002269298 -0.01177192 -0.01242724
v 0.002898797 -0.01069617 0.01154011
v -0.003655091 -0.01012391 0.01242724
v 0.003676787 -0.01054811 0.004058152
v -0.002935395 -0.004407048 0.01217005
v 0.0004597753 0.01112318 0.01127544
v 0.001437828 -0.01099432 -0.01219404
v -0.003676787 -0.01198894 0.009715885
v -0.003075436 -0.01094431 0.002237469
v -0.001273498 -0.0105986 -0.01091042
v 0.003670022 -0.005900085 0.01038167
f 1 2 3
f 2 4 3
f 5 1 6
f 5 4 7
f 6 8 3
f 8 1 3
f 1 8 6
f 9 2 1
f 4 10 7
f 2 10 4
f 10 9 7
f 9 10 2
f 11 6 3
f 12 11 3
f 11 5 6
f 5 11 4
f 4 13 3
f 13 12 3
f 11 13 4
f 13 11 12
f 5 14 1
f 14 9 1
f 14 5 7
f 9 14 7
