v 0.002371937 0.00673759 -0.006947428
v -0.002371937 0.007400215 -0.007609606
v -0.002291784 0.00674504 0.006724596
v -0.001564592 -0.007400274 -0.007608175
v -0.001387537 0.005784273 0.007609636
v -0.0005416572 -0.00599587 -0.006133676
v -0.001559749 -0.006981611 0.007529885
v -0.002371907 -0.006685853 0.007225126
v 0.002353817 0.005817473 -0.006040812
v -0.002371952 -0.006879508 -0.007064223
f 1 2 3
f 2 1 4
f 5 1 3
f 1 6 4
f 6 7 4
f 7 8 4
f 2 8 3
f 8 5 3
f 5 8 7
f 9 6 1
f 6 9 7
f 5 9 1
f 9 5 7
f 10 2 4
f 8 10 4
f 10 8 2
