v 0.006605282 -0.002945036 -0.07808924
v 0.006478988 0.006764339 -0.08165479
v 0.00664068 -0.0167568 0.08165479
v -0.004936934 0.0167568 0.04108274
v -0.005113076 -0.01254182 0.07215762
v 0.004189447 -0.01673332 -0.0658226
v -0.004369605 -0.009192459 -0.05875123
v -0.006111979 -0.01257801 -0.02519369
v -0.00664068 0.00295563 0.02420866
v -0.006353475 0.003263958 -0.04663104
v -0.006032381 0.0008643717 0.05620754
v -0.00501937 0.0162656 -0.00224185
v -0.006583039 0.002724595 0.001657844
v -0.005646855 0.01380301 0.02277035
v -0.005683001 0.01332988 0.03955215
v -0.006288625 0.01095831 0.02528214
f 1 2 3
f 4 5 3
f 2 4 3
f 6 1 3
f 5 6 3
f 7 2 1
f 6 7 1
f 8 6 5
f 8 7 6
f 9 8 5
f 7 10 2
f 8 10 7
f 4 11 5
f 11 9 5
f 12 4 2
f 10 12 2
f 13 8 9
f 13 10 8
f 12 14 4
f 15 11 4
f 16 12 10
f 16 14 12
f 13 16 10
f 16 13 9
f 11 16 9
f 15 16 11
f 14 16 4
f 16 15 4
