v -0.04477747 -0.04284382 0.050809
v -0.05584888 0.05490857 0.08625871
v -0.03587227 0.05865294 0.02556637
v -0.0493581 -0.0415625 0.06476468
v -0.05206618 -0.03883278 0.07305491
v -0.02834857 0.03032529 0.002167702
v -0.03040323 0.04775447 0.008736372
v -0.02741039 0.04623473 -0.0003956258
v -0.038495 -0.03803158 0.03178808
v -0.03576482 -0.03914917 -0.02910239
v -0.02089491 -0.04111022 -0.02180013
v -0.02101663 -0.04141957 -0.02143562
v -0.06133589 -0.008499384 0.1017964
v -0.06211813 -2.115965e-05 0.1043296
v -0.05519962 -0.03338814 0.08268046
v -0.05849978 0.04657739 0.09417355
v -0.05584972 0.05490667 0.0862608
v -0.06244244 0.01466686 0.1055825
v -0.02984821 -0.0408709 -0.0246655
v -0.03394016 -0.02884829 0.01810229
v -0.05796695 -0.02574331 0.09123653
v -0.02394456 0.05070966 -0.01085627
v -0.04144008 0.06591856 0.042633
v -0.0255481 0.04792488 -0.006029963
v -0.02285774 -0.03575176 -0.01573217
v -0.02319846 -0.0288955 -0.01457146
v -0.01937401 -0.047831 -0.02651441
v -0.059607 -0.01914084 0.09634829
v -0.02752857 0.01075476 -0.0006812811
v -0.05297887 0.06088501 0.07763767
v -0.04763001 0.06645682 0.06146997
v -0.06222557 0.02054942 0.1050295
v -0.02801067 -0.0003476739 0.0005834997
v -0.02581638 -0.02860719 -0.00660345
v -0.06121397 0.03192037 0.1021594
v -0.03124077 -0.0251509 0.009958148
v -0.05960718 0.04176158 0.09745428
v -0.02870685 -0.02506524 0.002252519
v -0.0494599 0.06522942 0.06701362
v -0.03760432 0.06170791 0.03089303
v -0.02794245 -0.001493692 0.000356108
v -0.04680145 -0.01046246 -0.002917022
v -0.03003057 -0.0172134 0.006420434
v -0.0444935 0.06707942 0.05194163
v -0.04832956 -0.01991153 0.002078593
v 0.04580632 0.01675421 0.1106629
v 0.04088101 0.02371824 0.1139317
v 0.04003647 0.01031935 0.1161475
v -0.04594819 -0.002968788 -0.005271256
v 0.0522745 -0.009255648 0.09568399
v 0.05552018 -0.004818618 0.09238225
v 0.04648854 -0.007736325 0.1052945
v 0.04493737 -0.01436156 0.1028628
v 0.0549314 -0.01228738 0.08638507
v -0.03133047 -0.02422512 0.01024783
v 0.0528218 0.02164608 0.1007342
v 0.05604668 0.02382392 0.09396428
v 0.04997861 0.03071332 0.1009845
v 0.05318861 0.008470297 0.101495
v 0.04990953 0.003109753 0.1052229
v 0.04832633 -0.01939088 0.09258699
v 0.05088261 0.0136171 0.1049507
v 0.05637483 0.01271904 0.09606987
v 0.04355475 0.03561974 0.1061484
v 0.04702306 0.02600181 0.1070981
v 0.03943664 -0.004202247 0.1137838
v 0.0390915 -0.01429802 0.1087787
v 0.0438485 0.001423895 0.1116357
v -0.04526778 0.005582511 -0.006636798
v 0.05475084 -0.01774472 0.06577432
v 0.05864552 -0.008973062 0.07569626
v 0.05422461 -0.01877916 0.07291889
v 0.03911269 0.02986515 0.113192
v 0.05038986 -0.02281231 0.080311
v 0.05954328 0.00696367 0.08790296
v -0.03836507 -0.03634071 -0.02905354
v -0.03865284 -0.03754109 -0.02802742
v -0.04149682 -0.03018087 -0.01928455
v -0.04829273 -0.02111977 0.001462102
v 0.06013623 0.001258671 0.08311546
v -0.02285761 0.06171715 0.08224428
v -0.0359315 0.06410828 0.07408947
v -0.01841179 0.05702662 0.09175983
v -0.008371189 0.06046495 0.08584052
v 0.009056315 0.05126566 0.101767
v 0.02573363 0.05049521 0.1021588
v 0.003333464 0.05441087 0.09728175
v 0.01762232 0.06075269 0.07574379
v 0.01932757 0.0606257 0.07055461
v 4.388392e-05 0.06359389 0.06028596
v 0.03507259 0.05704421 0.07398772
v -0.02089472 0.06564564 0.05245942
v -0.03974854 -0.02697521 -0.009648502
v -0.03217795 -0.03351206 -0.01678437
v -0.03217902 -0.0295673 -0.01019156
v -0.009581491 0.06505007 0.06506824
v -0.02802837 -0.02555686 0.0001792014
v -0.02568722 -0.02884191 -0.007001102
v -0.01271753 0.0641017 0.07457602
v -0.03238384 0.06645659 0.06333631
v 0.03207746 0.05721635 0.08298802
v 0.001535475 0.06251839 0.07773322
v 0.02083628 0.05714124 0.08999923
v -0.03271335 0.05779403 0.08825648
v -0.0001049489 0.05032021 0.1025359
v 0.01452412 0.06116363 0.06363198
v -0.004425332 0.06324416 0.0528563
v 0.02826422 0.05386025 0.09583724
v -0.02312478 -0.03497815 -0.01490644
v -0.02403784 0.0642162 0.04338747
v 0.0239328 0.04504985 0.108884
v -0.02649492 0.05284816 0.09622282
v -0.05570333 0.05490583 0.08630896
v -0.03898083 -0.02487797 -0.0004854202
v -0.02936958 -0.0248003 0.00426814
v 0.04812294 0.04971248 0.07106987
v 0.04288094 0.05353767 0.07098186
v 0.04638873 0.05109578 0.07637995
v 0.05313818 0.04410952 0.06997609
v 0.05085583 0.04660046 0.07676858
v 0.03323787 0.05398524 0.0930028
v 0.03977887 0.05337304 0.08710194
v 0.03725964 0.04914564 0.09869021
v 0.04543257 0.04640579 0.09287953
v 0.04152976 0.05441236 0.07561979
v 0.02980565 0.04774648 0.1048078
v 0.04115216 0.04476053 0.1007144
v 0.0551745 0.04044247 0.07483011
v 0.04647598 0.04177362 0.09727377
v 0.04773279 0.04712063 0.08687675
v 0.0368107 0.03926253 0.1093615
v 0.03083538 0.04136807 0.1107132
v 0.05232674 0.04105753 0.08609346
v -0.04007256 -0.0244211 0.005830795
v 0.04640362 0.04822761 0.05771849
v 0.03811428 0.05485189 0.06512287
v 0.0564454 0.0384751 0.06700388
v -0.02824619 0.01547545 -0.00134474
v -0.02866253 0.024459 -0.000176549
v -0.02918027 0.03035849 0.001368642
v -0.02793229 0.03878409 -0.002756447
v -0.02690908 0.04386461 -0.006107092
v -0.04570477 -0.0200935 -0.112262
v -0.01129483 -0.06708133 -0.04003835
v -0.05454465 -0.03412688 -0.09682852
v -0.04009926 -0.01506668 -0.1170074
v -0.01670851 -0.002779424 -0.1254968
v -0.02609974 -0.00654 -0.1236153
v -0.0009497702 0.0009932518 -0.1253502
v 0.01604374 0.001782537 -0.120923
v -0.0335143 -0.01051682 -0.1208175
v 0.02895325 -0.0002666116 -0.1141111
v 0.03969377 -0.004653811 -0.104951
v 0.04473537 -0.008272886 -0.09862059
v 0.04800209 -0.01175314 -0.09304065
v 0.0513851 -0.0181061 -0.0836834
v 0.05232397 -0.02332729 -0.07658392
v 0.0513982 -0.03063852 -0.06736183
v 0.04748009 -0.03889972 -0.05786353
v 0.04324687 -0.04427099 -0.05222914
v 0.03976867 -0.04769295 -0.04889035
v -0.04836638 -0.05665356 -0.06551522
v -0.05234987 -0.05197299 -0.0728882
v -0.04294644 -0.06059527 -0.05864316
v -0.03682896 -0.0634836 -0.05291873
v -0.05404393 -0.04879171 -0.07757393
v -0.05544643 -0.0436818 -0.08467725
v -0.02979828 -0.06557065 -0.04794481
v 0.03142476 -0.05397534 -0.04338866
v 0.02350658 -0.05837208 -0.04020643
v 0.002451971 -0.06539851 -0.03781658
v 0.01203009 -0.06291109 -0.03798026
v -0.02469298 -0.06648964 -0.04510978
v -0.02822337 0.007982135 -0.001285136
v -0.0228658 -0.03277254 -0.01764095
v -0.01416937 -0.02541268 0.01721379
v 0.006645963 -0.02528679 0.02901995
v -0.01542996 -0.02745456 0.02239305
v 0.00554648 -0.02121234 0.01413003
v 0.01019517 -0.02018964 -0.0007980466
v 0.01477346 -0.01450628 0.01143086
v -0.009582758 -0.02443898 0.009936631
v 0.01684383 -0.01389909 -0.001051128
v -0.005779862 -0.05019325 -0.02636254
v -0.008710802 -0.04216814 -0.01983404
v 0.007042259 -0.02494496 -0.006445885
v 0.005061001 -0.0230456 -0.0004031956
v -0.00455533 -0.02616042 -0.0006285906
v 0.008466199 -0.02175742 0.02202249
v 0.00253284 -0.02352464 0.02032548
v 0.02322048 -0.005537808 -0.008096129
v 0.02114621 -0.0049209 0.0004960299
v 0.002073258 -0.04401278 -0.02260786
v 0.03794406 0.006758332 -0.03598294
v 0.03180042 0.02155054 -0.0265094
v 0.02688538 0.01491499 -0.01275289
v 0.01261146 -0.02216798 -0.008288264
v 0.01794384 -0.0219633 -0.01419345
v 0.02093695 -0.01424652 -0.01123095
v 0.003930077 -0.02169955 0.00815016
v 0.01281901 -0.01695287 0.0157932
v -0.01581502 -0.03541231 -0.01364416
v 0.01856838 -0.009045303 0.01134831
v 0.02506682 -0.0004521608 -0.00977248
v -0.01789242 -0.02614343 0.0009969473
v 0.01062453 -0.02698082 0.03508115
v -0.01709564 -0.03276843 0.0299111
v -0.009309202 -0.03638297 -0.01439232
v 0.03131977 -0.01101118 -0.02528131
v 0.03392108 0.0008656979 -0.02739686
v 0.02624628 0.01069611 -0.009976923
v 0.02548271 -0.02097237 -0.02192378
v 0.00854744 -0.03807503 -0.02034703
v 0.01378219 -0.0358575 -0.02141881
v 0.01255152 -0.03120321 -0.01724458
v 0.0003691018 -0.03003472 -0.009353489
v -0.01713181 -0.03006476 -0.006896913
v 0.02141845 -0.003222466 0.01281506
v 0.0201208 -0.03360689 -0.02413517
v 0.02298038 0.004115999 0.002812117
v 0.01788899 -0.01663566 0.02652174
v 0.01700687 -0.0216133 0.03229541
v -0.04939397 0.02086383 -0.007704228
v -0.04368139 0.02692205 -0.004489064
v -0.05024621 0.01559418 -0.008568376
v -0.0355275 0.0006834865 -0.002613544
v -0.04537561 0.006110311 -0.006732702
v -0.03861757 0.02898085 -0.002194703
v 0.02142633 0.05171442 -0.04650629
v 0.01763844 0.05517977 -0.04958296
v 0.01919895 0.05496532 -0.04105431
v -0.02678826 0.0638569 -0.05819246
v -0.03026105 0.06418109 -0.05087698
v -0.02032226 0.066461 -0.05177477
v -0.03534644 0.05548698 -0.06700209
v -0.03870428 0.05800706 -0.05991393
v -0.03045096 0.06126696 -0.06173098
v -0.03475786 0.06146497 -0.05638146
v 0.02048521 0.05132365 -0.02916861
v 0.01089028 0.05903423 -0.03087404
v 0.01014322 0.05626619 -0.023994
v -0.04182809 0.05229998 -0.06506839
v 0.01212314 0.06051195 -0.0438244
v 0.01368582 0.05885309 -0.03589052
v -0.04277787 0.05763096 -0.05294251
v -0.04683857 0.04972726 -0.06206486
v -0.04611652 0.05262673 -0.05897564
v 0.01314515 0.05705947 -0.0552156
v 0.00882031 0.0616495 -0.03673539
v -0.0374279 0.0612424 -0.04710716
v 0.003074646 0.06447059 -0.04939032
v 0.004903197 0.06206805 -0.03285369
v -0.03993817 0.04634136 -0.01520878
v -0.03702802 0.04794621 -0.01276961
v -0.02487183 0.04888397 -0.008069843
v 0.009212136 0.05932558 -0.05669266
v -0.05320838 0.044559 -0.05738699
v 0.002267763 0.06472856 -0.04108128
v -0.04383848 0.05746448 -0.04582167
v -0.04862625 0.0533635 -0.05030447
v 0.001943544 0.063833 -0.05449584
v 0.001162767 0.0601626 -0.06314063
v -0.05376444 0.04790378 -0.04855019
v -0.05655175 0.04216039 -0.05192304
v -0.001660883 0.06596315 -0.04826897
v -0.003905326 0.06506762 -0.03669375
v -0.05581932 0.04533988 -0.04060835
v -0.01027712 0.06611526 -0.05582979
v -0.04094777 0.04644465 0.00352785
v -0.04744174 0.04431498 0.0002509654
v -0.04775503 0.04320866 0.001390606
v -0.0057199 0.06123507 -0.065153
v -0.01205939 0.06270984 -0.06440333
v 0.03165939 0.02788091 -0.02975065
v 0.02699962 0.03919601 -0.02575624
v 0.02344531 0.02614397 -0.009461045
v 0.02334943 0.0372327 -0.01631832
v -0.01005551 0.05729192 -0.07136667
v 0.02023105 0.04850233 -0.02325842
v 0.01695669 0.03804815 -0.008269727
v -0.01361275 0.06708148 -0.05035168
v -0.05950415 0.03861457 -0.0394901
v -0.05943403 0.03621876 -0.04985839
v 0.0180214 0.0443328 -0.01529104
v -0.05288561 0.0486232 -0.03843755
v 0.009936035 0.04268414 -0.00656867
v -0.01628213 0.06058717 -0.06773055
v -0.04338067 0.05663455 -0.0388518
v -0.0168791 0.06517482 -0.0591957
v -0.01544273 0.06667721 -0.04332507
v -0.02171487 0.06353372 -0.06194356
v 0.02771798 0.04079098 -0.03133893
v 0.0254502 0.0464443 -0.03484392
v -0.05504482 0.04390472 -0.03246558
v -0.03060304 0.04591644 0.009304553
v -0.03023404 0.04747599 0.008210957
v 0.01525599 0.05051231 -0.01958549
v -0.02621637 0.05776447 -0.06919014
v 0.02173679 0.05176735 -0.03533
v 0.007824004 0.05092752 -0.01472676
v -0.007579684 0.06282991 -0.02866912
v 0.003293321 0.05813545 -0.02283767
v -0.01283577 0.06532192 -0.03582323
v -0.01855966 0.06533092 -0.03748754
v -0.02556777 0.05571866 -0.0185689
v -0.01999688 0.06088644 -0.02546424
v -0.03119116 0.05649757 -0.02295539
v -0.02381355 0.06532812 -0.04197967
v -0.01583113 0.05483782 -0.01475632
v -0.01078497 0.05779111 -0.01867574
v -0.0001027584 0.05376524 -0.01489812
v -0.006852984 0.06012642 -0.02300504
v -0.03801759 0.05979031 -0.03911856
v -0.02984952 0.06232202 -0.0356766
v -0.04836085 0.04983956 -0.03031421
v -0.009026065 0.05442137 -0.01403284
v -0.001599491 0.04833066 -0.008169919
v -0.03914206 0.0548054 -0.02704719
v -0.03740874 0.05080062 -0.01890653
v -0.02655521 0.046781 -0.002988636
v -0.04088207 0.04498422 -0.00349164
v -0.02828807 0.04612356 0.002270728
v 0.01701182 0.04376888 -0.0727393
v -0.03701188 0.04597378 -0.07551235
v -0.03009532 0.03852117 -0.08701527
v 0.03247541 0.008267105 -0.1007845
v 0.02381864 0.03054589 -0.08345729
v 0.03307106 0.01731092 -0.08778593
v -0.02757668 0.01083815 -0.1111065
v -0.01776341 0.01170641 -0.1146904
v -0.0224928 0.01889801 -0.1073829
v 0.0427078 0.004770398 -0.04995486
v 0.04262175 -0.004120648 -0.0450542
v -0.04290957 0.04556113 -0.01360017
v -0.0353155 0.04622072 -0.005579174
v -0.04487744 0.04366845 -0.007779211
v -0.03482614 0.03385335 -0.08826473
v -0.02890947 0.02793294 -0.09698021
v 0.02733475 0.01225251 -0.1024503
v 0.03814003 0.01634276 -0.04204297
v -0.03818097 0.02352321 -0.09421211
v 0.01371568 0.04274106 -0.07788572
v 0.0492892 -0.01607949 -0.06369019
v 0.04624178 -0.01553828 -0.05284113
v -0.03541479 0.00664705 -0.1087244
v 0.01740193 0.02249461 -0.09984821
v -0.04429983 0.04283285 -0.07183826
v 0.008451968 0.04123616 -0.08398271
v 0.02174935 0.01148194 -0.1083621
v 0.04250896 0.009012341 -0.05492419
v -0.04176584 0.01523012 -0.09707111
v 0.03832111 0.01922697 -0.04736048
v -0.04522215 0.03086448 -0.08134401
v -0.03693231 -0.0005953312 -0.1120908
v 0.04930997 -0.01118696 -0.06983119
v 0.01323299 0.0231021 -0.1018742
v -0.003023446 0.04937172 -0.07938379
v 0.004499674 0.03923929 -0.08847499
v 0.04473594 0.004408836 -0.06687045
v -0.05144913 0.03683591 -0.06780308
v -0.02892163 0.03648335 0.004022539
v 0.03076139 0.03700531 -0.04445744
v -0.04641275 0.0336085 -0.003290176
v 0.04805729 -0.00594908 -0.07607272
v -0.04974592 0.02439386 -0.08065617
v 0.004908666 0.0234288 -0.1050749
v -0.04568591 0.0261429 -0.005444884
v -0.04544936 0.009604275 -0.09680334
v 0.04005009 0.01679885 -0.05981517
v -0.04254919 0.04392767 -0.01481652
v -0.0005649328 0.03948432 -0.09001204
v -0.04887356 0.003328264 -0.0960983
v 0.03435414 0.02877516 -0.05909586
v -0.05403946 0.01748991 -0.0785394
v 0.0059008 0.009906471 -0.1172783
v 0.0285521 0.04088902 -0.04766321
v 0.04157458 0.01265639 -0.06613576
v 0.04454413 0.001542211 -0.08178943
v -0.0471225 -0.008213699 -0.1048776
v -0.05582037 0.03228152 -0.06353649
v -0.01124008 0.04859155 -0.08164266
v -0.008862764 0.03350693 -0.09727433
v -0.003985107 0.02284503 -0.1071753
v -0.05479386 0.00339812 -0.08569303
v -0.05021189 -0.01902646 -0.1045643
v 0.03693411 0.02019089 -0.07206759
v -0.01682076 0.05239326 -0.07724327
v 0.02991551 0.03486484 -0.06267798
v -0.05843658 0.02702385 -0.06134033
v -0.006102204 0.01706326 -0.1123214
v -0.01372048 0.02831352 -0.1017797
v 0.04004167 0.008173168 -0.08593541
v -0.05898589 0.00717777 -0.07295877
v -0.05364256 -0.0199967 -0.09778726
v 0.05994664 -0.004448473 0.06120497
v 0.0617055 0.01037282 0.05817899
v 0.06243545 0.005721152 0.06973982
v -0.02011818 0.03923738 -0.09028122
v -0.05783007 -0.004896402 -0.0819051
v 0.03020248 0.03130084 -0.07004172
v 0.05323322 0.03420442 0.09262753
v -0.06024632 0.01730913 -0.06259191
v -0.009701744 0.01083612 -0.1171634
v 0.05634911 0.03040701 0.08869994
v 0.02175762 0.04615813 -0.06035015
v 0.05964801 0.02926344 0.07674837
v 0.06004974 0.0220325 0.0836851
v -0.05647866 -0.02283591 -0.09033316
v 0.0604593 0.005272448 0.05416805
v -0.05708771 -0.03031832 -0.08683318
v -0.0380002 -0.03060609 -0.02459896
v -0.0470506 -0.0191083 -0.02515081
v -0.04071148 -0.04642308 -0.04048362
v -0.05899602 -0.02569091 -0.07569918
v -0.06130663 -0.0005372167 -0.0659225
v -0.06020399 -0.00644803 -0.07326913
v -0.0609941 -0.01310641 -0.06368011
v 0.06227297 0.01587945 0.07551757
v 0.06203896 0.004190147 0.07427627
v -0.0356522 -0.05073786 -0.03914008
v -0.06221603 0.0004788637 -0.05465347
v -0.03934789 -0.004445612 -0.007985115
v -0.04312735 -0.0117057 -0.01567107
v -0.06235637 0.007616758 -0.04403478
v -0.06236895 0.02293253 -0.03433383
v -0.03204194 -0.03051174 -0.02030325
v -0.06127097 0.007718265 -0.03595233
v -0.05769616 -0.03246897 -0.06671947
v -0.03203325 -0.01495743 -0.009972274
v -0.06007005 -0.01251763 -0.04952028
v -0.02548409 -0.04909378 -0.03063881
v -0.0599387 0.01640511 -0.02488822
v -0.05566894 -0.03372115 -0.05690095
v -0.05883858 -0.01178038 -0.04294688
v -0.01708032 -0.06324077 -0.0385344
v -0.05833514 0.003254235 -0.02868575
v -0.05531629 0.0136289 -0.01572368
v 0.06089035 0.01450932 0.08368921
v -0.0538218 -0.02848297 -0.04495248
v -0.05458266 -0.01418555 -0.03339165
v 0.06244256 0.01586431 0.06469592
v 0.02737701 -0.04283422 -0.03409868
v -0.05489208 -0.0001636744 -0.02332947
v 0.03102669 -0.03821868 -0.03501672
v 0.05922726 0.03177708 0.07252321
v -0.05202981 -0.04046422 -0.0538463
v 0.06124881 0.02488047 0.06685725
v 0.03473893 -0.03435767 -0.03718162
v -0.05150276 -0.002622187 -0.01937431
v 0.04011944 -0.03047305 -0.04268283
v 0.03838153 -0.01989287 -0.03731048
v -0.05247197 0.009776652 -0.0129897
v -0.05143132 -0.02776283 -0.0390785
v 0.03849743 -0.01081347 -0.03601855
v 0.04564294 -0.02248281 -0.05106956
v -0.04635806 -0.02993613 -0.03291959
v -0.04533795 -0.04504651 -0.04539847
v -0.06213645 0.01932251 -0.05134493
v -0.06185979 0.03110999 -0.04064816
v -0.05608071 0.0388757 -0.02671921
v -0.04955738 0.04524863 -0.02442169
v 0.05769728 -0.01125705 0.06228042
v -0.05896705 0.03366762 -0.02752441
v -0.05552933 0.02349764 -0.01549774
v -0.06161994 0.03074861 -0.03490135
v -0.0608551 0.02490294 -0.02706742
v -0.05119938 0.02923352 -0.01205409
v -0.05396198 0.03299892 -0.0176329
v -0.0473005 0.03554398 -0.01212868
v -0.05067291 0.0406462 -0.02025449
v -0.03306383 0.04896945 -0.01370937
v -0.03781493 0.03804111 -0.006822109
v -0.04152967 0.04469031 -0.01505795
v 0.06140402 0.02091885 0.0604485
v 0.04634827 0.02482051 0.03076422
v 0.02863631 0.02771461 0.01356944
v 0.03935027 0.0318287 0.02527192
v 0.05140452 0.03986424 0.04952306
v 0.04568399 0.04332429 0.04408693
v 0.05056386 0.0449791 0.05917373
v 0.02426803 0.00644058 0.01033691
v 0.02441905 0.0116201 0.007303894
v 0.02505626 0.02152997 0.007474273
v 0.0320545 0.04203695 0.02603379
v 0.02271478 0.04583079 0.02463579
v 0.0307298 0.04709244 0.03247601
v 0.02534637 0.001815617 0.01650459
v 0.02717808 0.008750618 0.01462042
v 0.001064748 0.04450804 0.01293641
v -0.02226415 0.04960066 0.01528156
v 0.01767908 0.03991872 0.01219994
v 0.0126926 0.03948992 0.00581181
v 0.003008664 0.04302043 0.009915799
v 0.01361482 0.0522154 0.03094736
v -0.01447466 0.06058791 0.03719181
v 0.006960809 0.05524832 0.03414071
v 0.04397509 0.04700261 0.04913497
v 0.02625908 0.03365988 0.01346338
v 0.02024114 0.03370517 0.005917549
v 0.05808011 0.03027678 0.05531025
v 0.0592944 0.01949376 0.05036306
v 0.05487031 0.03275937 0.04828364
v 0.0557017 0.03662986 0.0564307
v 0.03036097 0.05309451 0.04757902
v 0.02247788 0.05306309 0.03907531
v 0.01897167 0.05848023 0.05525449
v 0.02229558 0.02882606 0.004777908
v 0.03932559 0.05066502 0.05194855
v 0.05091843 0.01617938 0.03549707
v 0.04607338 0.01235318 0.03128651
v 0.03233157 0.0235036 0.01706028
v 0.02526666 0.03702885 0.01508808
v 0.02786684 -0.005126417 0.02506328
v 0.01957768 -0.01202416 0.02241534
v 0.04491945 0.03378004 0.03235269
v 0.04097891 0.03841203 0.03117484
v 0.02609128 -0.01521742 0.03205752
v 0.05229557 0.001801848 0.04052222
v 0.03541037 0.006919146 0.02433789
v 0.037938 0.04425257 0.03485045
v 0.02934861 0.04978311 0.03677166
v 0.04807997 -0.01479524 0.04653493
v 0.04546446 -0.01161134 0.04180214
v 0.04886371 -0.002892494 0.0393278
v 0.0333724 0.01258761 0.0201627
v 0.008245081 0.05836779 0.0442251
v -0.005993769 0.06074849 0.04217482
v 0.04700916 0.03912657 0.03999782
v -0.008202314 0.05378157 0.02540576
v 0.05312629 -0.01090437 0.049178
v 0.05236642 0.03221804 0.04236674
v 0.05191073 -0.01827317 0.0564135
v 0.03518587 -0.00478673 0.03059456
v 0.05572951 0.01750302 0.04203176
v -0.01908764 0.04829323 -0.005619049
v 0.02371269 0.01395065 -0.001530945
v 0.0579662 0.01010376 0.04627123
v 0.01386279 0.04891646 0.02509984
v 0.05713916 -0.006981194 0.05321056
v 0.01952866 0.03419006 -0.007868409
v 0.04630709 -0.02145833 0.05248505
v 0.01972869 0.03182095 -0.004338801
v -0.002518505 0.04487127 -0.002387702
v -0.01916423 0.04554826 0.003297031
v 0.02294314 0.02157056 -0.002561986
v 0.01100117 0.04051578 -0.003369272
v 0.02289255 0.02443838 0.002919555
v 0.00884223 0.04068482 0.003876328
v 0.0189898 0.02148634 0.1216046
v 0.02287973 0.00971067 0.1225999
v 0.02799037 0.02341157 0.120464
v 0.03871378 -0.02026987 0.1040436
v 0.04150751 -0.02581787 0.09387875
v 0.04390103 -0.0220837 0.09635314
v 0.02868012 -0.03228384 0.09135556
v 0.0379402 -0.0312258 0.08587235
v 0.02892774 0.01217753 0.1216727
v 0.03485477 0.02506065 0.117538
v 0.0361248 0.01392806 0.1187173
v 0.03088394 -0.03374022 0.08478385
v 0.03337221 -0.0341031 0.07702184
v 0.03810003 -0.03247744 0.07823551
v 0.0435743 -0.02771181 0.08621892
v 0.02966268 0.003395677 0.1207316
v 0.01902445 0.0008091331 0.1213537
v 0.03534518 -0.03339034 0.0711416
v 0.04347703 -0.02982557 0.07441416
v 0.02545793 -0.008403122 0.1179489
v 0.02006544 -0.007804573 0.1184685
v 0.03724796 0.003307223 0.1173384
v 0.03110544 -0.009617984 0.1159607
v 0.0445694 -0.02858216 0.06729513
v 0.03803745 -0.03102964 0.0633837
v 0.02105209 -0.01448876 0.114794
v 0.0481642 -0.02621955 0.0722768
v 0.02647185 -0.0184992 0.1114278
v 0.04422584 -0.02713478 0.06086177
v 0.04064241 -0.02663887 0.05520153
v 0.02760853 0.03597546 0.1153884
v 0.02127381 0.03747928 0.1150635
v 0.03272001 -0.01652843 0.1110273
v 0.02328031 -0.02190942 0.1086549
v 0.03242561 0.03537679 0.1142184
v 0.02026398 0.03216761 0.118018
v 0.02653199 0.03007418 0.1185552
v 0.03018621 -0.02341944 0.04275626
v 0.00988175 -0.02995425 0.03911263
v 0.02949166 -0.02391762 0.1053734
v 0.01430619 -0.02681512 0.1030235
v 0.02995604 -0.02735835 0.1006659
v -0.05144744 0.003946543 0.1084678
v -0.05041347 0.01018846 0.1093551
v -0.01701318 -0.0001264811 0.1160752
v 0.008971557 0.007125318 0.1213559
v -0.01921189 0.004288077 0.1164945
v -0.03602441 0.007855237 0.1131206
v -0.03593066 0.0009796023 0.1121478
v 0.01198797 -0.03758276 0.0788343
v 0.01471134 -0.03340739 0.09192532
v -0.00628373 -0.03850597 0.08070624
v -0.02088091 -0.03953195 0.07767788
v -0.01234883 -0.03700924 0.08500773
v -0.03889121 -0.04022843 0.07290369
v 0.006088227 -0.005441904 0.1180934
v -0.02358298 -0.004315555 0.1135691
v 0.0008107126 0.04203659 0.1103287
v -0.008537278 -0.04024845 0.07372403
v -0.03403211 -0.03748667 0.08116442
v -0.04641053 0.04898971 0.09564558
v -0.02092825 0.04797012 0.1023362
v -0.0351596 -0.04260403 0.06143302
v -0.04950112 -0.01099002 0.1043806
v -0.02350804 -0.01110667 0.1108222
v -0.004240587 -0.01259536 0.1134478
v -0.02619225 0.04136932 0.1065602
v 0.007077307 -0.03915811 0.06760192
v -0.03418398 -0.01461202 0.1065553
v -0.05428654 -0.02166098 0.09612447
v -0.01939772 -0.04207343 0.0616605
v 0.01754424 -0.03740531 0.070355
v -0.01314585 -0.01995695 0.1072483
v -0.03763735 0.03801477 0.1060303
v -0.04443346 -0.01856232 0.1013913
v -0.01011214 0.03833979 0.111371
v 0.002250671 -0.01726043 0.1113452
v -0.01979859 -0.04121161 0.05031782
v 0.002743453 0.03158706 0.1166321
v -0.03190093 -0.04240161 0.0509398
v -0.04322341 0.01390171 0.1113828
v -0.01489164 0.03126627 0.1141005
v -0.03295368 -0.02074945 0.102711
v -0.00575693 -0.03988487 0.05405015
v -0.003823772 -0.02286536 0.1061034
v 0.01059063 -0.03710425 0.05630261
v -0.04895698 0.03458077 0.1047709
v 0.002286777 0.026263 0.11854
v -0.03499892 0.02987593 0.110397
v -0.02790359 -0.02646989 0.09868512
v -0.0005116761 0.01222724 0.1202949
v -0.04588863 -0.02740127 0.09328049
v -0.009770587 -0.03795815 0.04403937
v -0.007647067 -0.02719814 0.1012071
v 0.01648879 -0.03365785 0.05054116
v -0.006491676 -0.03299719 0.09331325
v -0.00772287 0.01866001 0.1186995
v -0.05138816 0.02766871 0.1067404
v -0.02768955 -0.03911883 0.0384267
v -0.02218702 -0.03197455 0.09304559
v 0.004502267 -0.02972722 0.09890562
v -0.03542979 0.02069563 0.1127008
v 0.02437878 -0.03081304 0.05021077
v -0.01102763 -0.03435296 0.03532338
v -0.03250186 0.0155043 0.1140195
v 0.01674184 -0.03063554 0.0972352
v -0.03641859 -0.03341913 0.08805397
f 1 2 3
f 4 5 2
f 6 7 8
f 1 3 9
f 10 11 12
f 13 14 2
f 5 15 2
f 16 17 2
f 14 18 2
f 19 10 12
f 9 3 20
f 15 21 2
f 6 8 22
f 2 23 3
f 22 8 24
f 25 26 27
f 21 28 2
f 20 3 29
f 2 30 31
f 2 31 23
f 18 32 2
f 20 29 33
f 25 34 26
f 32 35 2
f 29 3 6
f 20 33 36
f 35 37 2
f 34 38 26
f 28 13 2
f 30 39 31
f 6 3 7
f 3 23 40
f 41 42 43
f 36 33 38
f 23 31 44
f 37 16 2
f 38 33 26
f 4 2 1
f 42 45 43
f 46 47 48
f 49 42 41
f 50 51 52
f 50 52 53
f 54 51 50
f 45 55 43
f 56 57 58
f 51 59 60
f 54 50 61
f 56 62 63
f 58 64 65
f 60 62 48
f 51 60 52
f 52 66 67
f 60 48 68
f 60 68 52
f 63 62 59
f 69 49 41
f 52 68 66
f 70 71 72
f 62 65 46
f 64 73 65
f 71 54 72
f 62 46 48
f 62 60 59
f 72 54 74
f 75 59 51
f 65 47 46
f 56 58 65
f 49 69 76
f 77 78 76
f 75 63 59
f 56 65 62
f 50 53 61
f 54 61 74
f 42 49 76
f 65 73 47
f 71 51 54
f 57 56 63
f 79 42 76
f 80 51 71
f 80 75 51
f 78 79 76
f 53 52 67
f 30 81 82
f 83 84 81
f 85 86 87
f 83 81 30
f 88 89 90
f 77 10 19
f 91 89 88
f 44 92 23
f 93 94 95
f 96 90 92
f 97 95 98
f 82 99 100
f 83 87 84
f 96 92 44
f 96 88 90
f 82 100 31
f 91 88 101
f 81 102 99
f 84 103 102
f 39 82 31
f 104 83 30
f 81 99 82
f 105 87 83
f 102 88 96
f 85 87 105
f 84 102 81
f 106 107 90
f 2 104 30
f 108 103 84
f 95 94 109
f 95 109 98
f 100 96 44
f 92 107 110
f 86 85 111
f 31 100 44
f 92 110 23
f 99 102 96
f 89 91 106
f 90 107 92
f 112 105 83
f 87 108 84
f 101 88 103
f 112 83 104
f 89 106 90
f 30 82 39
f 113 104 2
f 99 96 100
f 114 93 115
f 86 108 87
f 103 88 102
f 116 117 118
f 78 94 93
f 119 116 120
f 108 86 121
f 116 118 120
f 122 123 124
f 117 125 118
f 121 86 126
f 124 123 127
f 91 101 125
f 121 126 123
f 86 111 126
f 119 120 128
f 101 122 125
f 124 129 130
f 127 129 124
f 101 121 122
f 125 130 118
f 123 131 127
f 93 95 97
f 118 130 120
f 126 111 132
f 101 103 121
f 126 132 123
f 123 132 131
f 120 130 133
f 94 19 109
f 125 122 130
f 127 64 129
f 103 108 121
f 127 131 64
f 134 114 115
f 135 136 117
f 135 117 116
f 136 91 117
f 130 122 124
f 114 79 78
f 117 91 125
f 119 128 137
f 122 121 123
f 138 33 29
f 139 138 29
f 6 139 29
f 93 97 115
f 140 139 6
f 141 140 6
f 142 141 6
f 22 142 6
f 143 144 145
f 146 144 143
f 147 144 148
f 149 144 147
f 150 144 149
f 151 144 146
f 148 144 151
f 152 144 150
f 153 144 152
f 154 144 153
f 155 144 154
f 156 144 155
f 157 144 156
f 158 144 157
f 78 77 19
f 159 144 158
f 160 144 159
f 161 144 160
f 114 134 79
f 144 162 163
f 164 162 144
f 165 164 144
f 144 163 166
f 144 166 167
f 168 165 144
f 169 144 161
f 170 144 169
f 171 144 172
f 173 168 144
f 144 167 145
f 172 144 170
f 138 174 33
f 33 175 26
f 26 175 27
f 176 177 178
f 179 180 181
f 38 182 36
f 180 183 181
f 184 185 27
f 186 187 188
f 179 189 190
f 191 192 183
f 176 190 177
f 186 180 187
f 78 19 94
f 184 193 185
f 78 93 114
f 194 195 196
f 197 198 199
f 188 187 200
f 179 181 201
f 27 185 202
f 183 203 181
f 202 25 27
f 186 197 180
f 191 204 192
f 179 201 189
f 205 188 182
f 190 189 177
f 178 206 207
f 193 208 185
f 209 210 211
f 178 177 206
f 202 185 208
f 188 200 182
f 77 76 10
f 183 192 203
f 199 212 191
f 36 176 178
f 182 176 36
f 213 214 215
f 36 178 20
f 197 199 180
f 213 215 193
f 212 209 191
f 181 203 201
f 193 216 208
f 193 215 216
f 134 45 79
f 34 25 217
f 187 180 200
f 208 216 202
f 180 199 183
f 203 192 218
f 214 198 215
f 55 45 134
f 214 219 198
f 204 211 192
f 25 202 217
f 182 190 176
f 215 197 216
f 192 211 220
f 192 220 218
f 201 221 189
f 189 222 177
f 209 211 204
f 209 204 191
f 177 222 206
f 201 203 221
f 38 34 205
f 134 115 55
f 215 198 197
f 189 221 222
f 210 196 211
f 219 212 198
f 217 205 34
f 200 180 179
f 216 197 186
f 199 191 183
f 182 200 179
f 217 202 188
f 202 216 188
f 198 212 199
f 217 188 205
f 210 194 196
f 182 179 190
f 216 186 188
f 38 205 182
f 223 139 224
f 225 139 223
f 138 139 225
f 42 79 45
f 226 174 227
f 174 138 225
f 33 174 226
f 224 140 228
f 139 140 224
f 227 174 225
f 229 230 231
f 232 233 234
f 235 236 237
f 237 238 232
f 237 236 238
f 239 240 241
f 235 242 236
f 231 243 244
f 239 244 240
f 232 238 233
f 236 245 238
f 230 243 231
f 242 246 247
f 230 248 243
f 242 247 236
f 236 247 245
f 244 249 240
f 243 249 244
f 233 238 250
f 19 12 109
f 248 251 243
f 240 249 252
f 245 250 238
f 10 109 11
f 253 254 255
f 248 256 251
f 246 257 247
f 243 251 249
f 249 258 252
f 245 259 250
f 247 257 260
f 249 251 258
f 247 260 245
f 256 261 251
f 256 262 261
f 257 263 260
f 245 260 259
f 257 264 263
f 251 261 265
f 252 258 266
f 260 263 267
f 251 265 258
f 262 268 261
f 258 265 266
f 260 267 259
f 269 270 271
f 272 273 262
f 274 275 276
f 261 268 265
f 276 275 277
f 278 273 272
f 262 273 268
f 277 279 280
f 265 281 266
f 264 282 263
f 264 283 282
f 280 279 284
f 268 281 265
f 275 279 277
f 263 282 267
f 267 285 259
f 284 286 280
f 278 287 273
f 259 285 288
f 273 289 268
f 281 290 266
f 287 291 273
f 292 293 239
f 292 239 275
f 285 267 294
f 295 296 269
f 269 271 295
f 275 239 279
f 267 282 294
f 273 291 289
f 284 297 286
f 284 279 297
f 287 298 291
f 291 298 237
f 268 289 281
f 281 289 234
f 239 293 299
f 286 297 300
f 291 232 289
f 279 239 297
f 291 237 232
f 293 229 299
f 298 235 237
f 289 232 234
f 229 231 299
f 297 241 300
f 299 244 239
f 299 231 244
f 239 241 297
f 301 302 266
f 302 300 241
f 303 266 290
f 302 252 266
f 304 303 290
f 305 306 307
f 290 281 234
f 308 234 233
f 22 309 305
f 310 301 306
f 301 266 303
f 311 302 312
f 313 314 250
f 315 285 294
f 316 317 311
f 307 306 314
f 285 315 288
f 300 317 286
f 241 240 302
f 310 316 312
f 311 300 302
f 302 240 252
f 315 318 288
f 314 308 250
f 306 301 303
f 310 312 301
f 312 302 301
f 319 307 318
f 309 310 305
f 306 303 304
f 316 311 312
f 305 310 306
f 250 308 233
f 314 304 308
f 314 306 304
f 254 320 255
f 307 319 305
f 288 313 259
f 318 313 288
f 318 307 314
f 308 290 234
f 311 317 300
f 318 314 313
f 309 316 310
f 308 304 290
f 313 250 259
f 270 269 321
f 321 296 322
f 256 248 323
f 324 235 325
f 326 327 328
f 321 269 296
f 329 330 147
f 329 331 330
f 332 194 333
f 254 334 335
f 335 322 320
f 274 276 195
f 336 321 335
f 337 325 338
f 338 331 329
f 327 326 339
f 332 195 194
f 340 195 332
f 337 324 325
f 242 235 324
f 148 329 147
f 341 338 329
f 152 326 153
f 341 337 338
f 342 323 327
f 339 326 152
f 336 335 334
f 274 195 340
f 262 256 342
f 342 256 323
f 343 333 344
f 148 341 329
f 343 344 158
f 345 341 148
f 346 327 339
f 332 333 343
f 275 274 340
f 346 342 327
f 347 324 337
f 335 321 322
f 242 324 347
f 347 337 341
f 348 262 342
f 157 343 158
f 336 270 321
f 349 339 152
f 348 342 346
f 350 340 332
f 151 345 148
f 346 339 349
f 351 341 345
f 352 275 340
f 254 335 320
f 353 347 341
f 354 345 151
f 242 347 246
f 292 275 352
f 355 332 343
f 352 340 350
f 354 351 345
f 353 341 351
f 355 343 157
f 356 346 349
f 357 262 348
f 358 348 346
f 359 350 332
f 360 246 347
f 359 332 355
f 150 349 152
f 360 347 353
f 295 271 361
f 358 346 356
f 362 292 352
f 271 363 361
f 357 272 262
f 150 356 349
f 293 292 362
f 358 357 348
f 359 355 364
f 365 353 351
f 360 353 365
f 366 356 150
f 363 367 361
f 146 354 151
f 368 365 351
f 369 352 350
f 156 355 157
f 369 350 359
f 368 351 354
f 368 354 146
f 363 270 370
f 257 246 360
f 363 370 367
f 364 355 156
f 270 336 370
f 366 358 356
f 369 362 352
f 370 336 334
f 271 270 363
f 371 357 358
f 372 365 368
f 373 362 369
f 253 370 334
f 371 358 366
f 278 272 357
f 374 360 365
f 375 366 150
f 372 368 146
f 293 362 376
f 377 369 359
f 378 359 364
f 378 377 359
f 379 372 146
f 264 257 380
f 334 254 253
f 380 257 360
f 381 357 371
f 380 360 374
f 381 278 357
f 149 375 150
f 374 365 372
f 373 376 362
f 143 379 146
f 377 373 369
f 382 381 371
f 229 293 376
f 371 366 383
f 155 364 156
f 287 278 381
f 384 372 379
f 383 366 375
f 374 372 384
f 382 371 383
f 385 379 143
f 386 373 377
f 387 287 381
f 384 379 385
f 376 373 388
f 155 378 364
f 389 380 374
f 389 264 380
f 386 377 378
f 390 383 375
f 388 373 386
f 391 381 382
f 392 386 378
f 264 389 283
f 390 375 149
f 393 374 384
f 393 389 374
f 394 384 385
f 229 376 388
f 387 381 391
f 395 396 397
f 392 378 155
f 391 383 390
f 391 382 383
f 392 155 154
f 398 387 391
f 394 385 143
f 399 393 384
f 287 387 298
f 399 384 394
f 400 388 386
f 230 229 388
f 398 298 387
f 401 130 129
f 283 389 402
f 403 390 149
f 402 389 393
f 128 133 404
f 145 394 143
f 391 390 403
f 405 230 388
f 328 386 392
f 328 400 386
f 128 120 133
f 330 391 403
f 328 392 154
f 398 391 330
f 406 404 407
f 153 328 154
f 405 388 400
f 408 394 145
f 401 58 57
f 248 230 405
f 399 394 408
f 325 298 398
f 327 400 328
f 405 400 327
f 147 403 149
f 331 398 330
f 409 396 395
f 235 298 325
f 330 403 147
f 325 398 338
f 338 398 331
f 323 248 405
f 323 405 327
f 326 328 153
f 167 410 145
f 411 412 413
f 414 415 416
f 414 416 410
f 417 415 414
f 397 418 419
f 420 413 165
f 417 421 415
f 422 227 423
f 133 130 401
f 411 423 412
f 414 410 167
f 411 413 420
f 420 165 168
f 424 425 421
f 226 227 422
f 426 423 411
f 422 423 426
f 427 425 424
f 426 411 420
f 428 417 414
f 429 226 422
f 430 424 421
f 173 420 168
f 430 421 417
f 427 424 430
f 431 426 420
f 429 422 426
f 428 414 167
f 431 420 173
f 166 428 167
f 430 417 428
f 432 425 427
f 33 226 429
f 175 429 426
f 433 430 428
f 128 404 406
f 163 428 166
f 33 429 175
f 144 431 173
f 434 430 433
f 404 401 57
f 434 427 430
f 431 175 426
f 435 431 144
f 436 427 434
f 432 427 436
f 27 175 431
f 27 431 435
f 433 428 163
f 27 435 144
f 27 144 184
f 437 432 436
f 171 184 144
f 193 184 171
f 172 193 171
f 419 438 75
f 439 434 433
f 213 193 172
f 440 436 434
f 441 418 397
f 214 213 172
f 170 214 172
f 440 434 439
f 442 214 170
f 419 75 80
f 443 437 436
f 219 214 442
f 169 442 170
f 162 433 163
f 443 436 440
f 418 407 438
f 219 442 444
f 445 128 406
f 219 444 212
f 439 433 446
f 169 444 442
f 161 444 169
f 447 137 445
f 446 433 162
f 448 212 444
f 161 448 444
f 449 437 443
f 209 212 448
f 450 209 448
f 160 448 161
f 451 209 450
f 450 448 160
f 397 419 71
f 452 437 449
f 407 57 63
f 449 443 440
f 209 451 210
f 418 438 419
f 453 440 439
f 210 451 454
f 159 450 160
f 441 447 418
f 455 451 450
f 453 439 446
f 455 454 451
f 455 450 159
f 456 440 453
f 164 446 162
f 333 210 454
f 457 453 446
f 194 210 333
f 412 440 456
f 404 133 401
f 412 449 440
f 458 459 283
f 457 456 453
f 458 283 402
f 457 446 164
f 333 454 455
f 416 393 399
f 415 402 393
f 452 449 412
f 458 402 415
f 415 393 416
f 333 455 344
f 227 452 412
f 158 455 159
f 344 455 158
f 416 399 408
f 413 456 457
f 165 457 164
f 421 458 415
f 416 408 410
f 459 458 421
f 410 408 145
f 412 456 413
f 423 227 412
f 165 413 457
f 425 459 421
f 294 460 461
f 462 71 70
f 294 463 460
f 437 225 464
f 465 466 463
f 464 467 468
f 407 404 57
f 464 225 223
f 425 432 466
f 452 225 437
f 464 223 467
f 452 227 225
f 468 467 469
f 283 459 282
f 438 407 63
f 463 468 460
f 459 465 282
f 459 425 465
f 223 224 467
f 466 464 463
f 466 432 464
f 395 71 462
f 282 465 294
f 463 464 468
f 418 406 407
f 468 470 460
f 425 466 465
f 465 463 294
f 432 437 464
f 142 22 471
f 224 469 467
f 395 397 71
f 137 128 445
f 468 469 470
f 472 142 473
f 471 305 319
f 441 474 447
f 224 228 472
f 224 472 469
f 471 22 305
f 438 63 75
f 141 142 472
f 469 473 470
f 460 470 461
f 401 64 58
f 461 473 319
f 142 471 473
f 469 472 473
f 461 319 318
f 461 318 315
f 461 315 294
f 470 473 461
f 228 141 472
f 228 140 141
f 473 471 319
f 475 476 477
f 478 479 480
f 481 482 483
f 484 485 486
f 487 481 488
f 489 7 490
f 491 492 493
f 494 495 496
f 486 485 494
f 480 479 497
f 498 499 492
f 500 501 502
f 490 7 3
f 401 129 64
f 503 502 478
f 504 505 506
f 110 40 23
f 476 483 507
f 488 481 483
f 135 497 508
f 396 501 474
f 509 510 511
f 498 492 512
f 447 406 418
f 513 514 487
f 221 514 513
f 476 507 499
f 110 495 40
f 475 477 515
f 515 477 516
f 500 502 503
f 517 221 513
f 509 511 475
f 518 519 510
f 516 484 520
f 494 496 505
f 512 492 491
f 521 486 494
f 522 523 524
f 508 504 136
f 488 483 525
f 474 501 500
f 524 519 518
f 476 499 498
f 222 221 517
f 396 441 397
f 503 478 480
f 485 493 489
f 419 80 71
f 506 526 106
f 441 396 474
f 496 495 527
f 520 484 486
f 525 483 511
f 521 494 505
f 518 510 509
f 135 480 497
f 106 526 107
f 511 483 476
f 505 496 526
f 515 516 528
f 445 406 447
f 485 491 493
f 489 490 529
f 513 487 488
f 530 524 518
f 529 490 3
f 526 496 527
f 504 506 136
f 475 515 531
f 447 474 500
f 513 488 519
f 519 488 525
f 527 495 110
f 522 530 532
f 135 508 136
f 528 516 520
f 517 513 533
f 520 486 521
f 534 509 475
f 196 195 276
f 309 22 535
f 534 475 531
f 316 309 535
f 535 22 24
f 220 196 536
f 447 500 503
f 536 196 276
f 211 196 220
f 537 518 509
f 528 520 479
f 538 489 529
f 317 316 535
f 539 395 462
f 540 277 280
f 484 491 485
f 484 512 491
f 537 509 534
f 477 476 498
f 541 522 532
f 276 277 540
f 91 506 106
f 276 540 542
f 543 317 535
f 119 503 480
f 24 8 544
f 477 498 512
f 545 536 276
f 137 503 119
f 539 518 537
f 546 280 286
f 533 513 519
f 136 506 91
f 544 535 24
f 510 519 525
f 447 503 137
f 485 489 538
f 545 276 542
f 510 525 511
f 119 480 116
f 531 515 528
f 116 480 135
f 521 505 504
f 482 545 547
f 7 544 8
f 479 520 497
f 482 536 545
f 538 529 494
f 532 539 462
f 286 317 543
f 544 543 535
f 475 511 476
f 280 546 540
f 531 528 478
f 501 537 534
f 220 536 482
f 501 534 531
f 548 286 543
f 522 524 530
f 107 527 110
f 546 286 548
f 539 537 409
f 508 520 521
f 40 529 3
f 545 542 507
f 548 543 544
f 542 540 492
f 482 547 483
f 218 220 481
f 547 545 507
f 493 544 7
f 541 517 522
f 505 526 506
f 481 220 482
f 478 528 479
f 497 520 508
f 493 7 489
f 507 542 499
f 508 521 504
f 540 546 548
f 495 529 40
f 523 517 533
f 516 512 484
f 477 512 516
f 409 537 396
f 540 548 492
f 203 218 487
f 502 531 478
f 548 544 493
f 396 537 501
f 499 542 492
f 485 538 494
f 492 548 493
f 514 203 487
f 526 527 107
f 494 529 495
f 524 533 519
f 523 533 524
f 203 514 221
f 501 531 502
f 539 409 395
f 530 539 532
f 483 547 507
f 218 481 487
f 549 550 551
f 552 553 554
f 555 556 553
f 551 550 557
f 551 557 558
f 552 554 53
f 557 559 558
f 555 560 556
f 554 61 53
f 558 559 47
f 561 562 560
f 556 563 553
f 560 562 556
f 557 550 564
f 553 563 554
f 47 559 48
f 554 563 61
f 550 565 564
f 561 566 562
f 557 564 559
f 562 567 556
f 556 567 563
f 565 568 564
f 565 569 568
f 564 570 559
f 559 570 48
f 530 518 539
f 563 567 74
f 563 74 61
f 568 571 564
f 566 572 562
f 562 572 567
f 70 532 462
f 564 571 570
f 566 573 572
f 569 574 568
f 567 575 74
f 48 570 68
f 572 575 567
f 574 576 568
f 573 577 572
f 576 571 568
f 571 66 570
f 573 578 577
f 570 66 68
f 111 579 132
f 111 580 579
f 572 577 575
f 571 576 581
f 74 575 72
f 574 582 576
f 132 579 583
f 132 583 131
f 577 532 575
f 578 541 577
f 580 584 585
f 206 586 587
f 580 585 579
f 571 581 66
f 577 541 532
f 575 532 70
f 576 582 588
f 586 541 578
f 522 517 523
f 582 589 588
f 575 70 72
f 66 581 67
f 576 588 581
f 579 585 583
f 589 590 588
f 517 586 222
f 131 73 64
f 131 583 73
f 517 541 586
f 584 549 585
f 585 551 583
f 581 552 67
f 585 549 551
f 581 588 552
f 583 558 73
f 586 206 222
f 583 551 558
f 588 590 552
f 67 552 53
f 552 590 553
f 591 592 18
f 590 555 553
f 593 594 595
f 558 47 73
f 591 596 592
f 597 596 591
f 598 599 600
f 598 555 599
f 593 595 597
f 565 594 593
f 601 600 602
f 597 595 596
f 14 591 18
f 111 85 105
f 4 603 5
f 604 565 593
f 113 112 104
f 560 555 598
f 605 593 597
f 597 591 14
f 604 593 605
f 606 111 105
f 607 600 601
f 607 598 600
f 569 565 604
f 601 608 603
f 609 112 113
f 610 105 112
f 16 113 17
f 603 608 5
f 601 602 608
f 610 606 105
f 580 111 606
f 610 112 609
f 611 603 4
f 611 607 601
f 611 601 603
f 609 113 16
f 612 597 14
f 561 560 598
f 613 604 605
f 13 612 14
f 614 569 604
f 606 610 615
f 612 605 597
f 614 604 613
f 615 610 609
f 616 598 607
f 617 613 605
f 618 28 21
f 617 605 612
f 619 607 611
f 620 598 616
f 620 561 598
f 616 607 619
f 16 615 609
f 574 569 614
f 1 611 4
f 621 614 613
f 622 615 16
f 600 599 602
f 623 612 13
f 624 580 606
f 625 574 614
f 623 617 612
f 561 620 566
f 550 594 565
f 621 613 617
f 624 606 615
f 621 625 614
f 626 616 619
f 627 580 624
f 584 580 627
f 628 611 1
f 628 619 611
f 596 629 592
f 28 623 13
f 622 16 37
f 630 624 615
f 626 619 628
f 630 627 624
f 631 621 617
f 630 615 622
f 631 617 623
f 632 616 626
f 633 574 625
f 590 599 555
f 634 620 616
f 37 635 622
f 178 207 20
f 632 634 616
f 636 584 627
f 573 566 620
f 633 625 621
f 637 630 622
f 618 623 28
f 573 620 634
f 638 621 631
f 582 574 633
f 631 623 618
f 594 639 595
f 637 622 635
f 584 636 549
f 635 37 35
f 633 621 638
f 626 628 1
f 636 627 630
f 640 631 618
f 641 632 626
f 9 626 1
f 642 633 638
f 643 573 634
f 602 644 608
f 640 618 21
f 640 638 631
f 641 634 632
f 645 630 637
f 646 635 35
f 646 637 635
f 589 582 633
f 645 636 630
f 647 641 626
f 647 626 9
f 648 642 638
f 649 633 642
f 602 599 644
f 645 549 636
f 643 634 641
f 589 633 649
f 650 645 637
f 648 638 640
f 15 640 21
f 573 643 578
f 650 637 646
f 648 649 642
f 32 646 35
f 651 578 643
f 9 641 647
f 652 643 641
f 652 641 9
f 595 653 596
f 654 589 649
f 650 646 629
f 655 648 640
f 596 653 629
f 651 643 587
f 639 549 645
f 207 652 9
f 654 649 644
f 644 649 648
f 629 646 32
f 590 589 654
f 655 640 15
f 590 654 599
f 653 645 650
f 595 639 653
f 587 643 652
f 206 652 207
f 18 629 32
f 629 653 650
f 20 207 9
f 639 645 653
f 549 639 550
f 586 578 651
f 550 639 594
f 608 648 655
f 587 586 651
f 644 648 608
f 5 655 15
f 592 629 18
f 599 654 644
f 5 608 655
f 206 587 652
