v 0.00114172 -0.009998679 0.02825734
v 0.001595557 -0.01002389 -0.02689359
v 0.001316212 0.0002577752 0.01286757
v 0.001643203 0.0002394021 -0.02689826
v 0.001347765 -0.009982944 -0.0275062
v -0.001625113 0.01002389 -0.00965181
v -0.001643203 -0.009495705 -0.02683777
v -0.001482993 0.01001586 -0.02692872
v 0.001394689 0.0002004653 -0.02751049
v 0.0005081743 6.319582e-05 -0.02825731
v 0.000462532 -0.009837866 -0.02825263
v -0.0005277619 -0.009676531 -0.02824375
v 0.0009694919 -0.009921238 -0.02789146
v -0.001408771 -0.009533495 -0.02768299
v -0.001365066 -0.0002238154 -0.02768719
v -0.00148163 -0.0002413094 -0.0274134
v -0.0004832968 -8.98242e-05 -0.02824754
v -0.001599632 -0.0002589822 -0.02684152
v 0.001016423 0.0001411736 -0.02789566
v -0.001524597 -0.009514019 -0.02740926
f 1 2 3
f 2 4 3
f 2 5 4
f 6 7 1
f 6 1 3
f 4 6 3
f 6 4 8
f 4 9 8
f 5 9 4
f 10 11 12
f 2 13 5
f 11 13 12
f 13 2 1
f 14 15 12
f 13 14 12
f 7 14 1
f 14 13 1
f 15 16 8
f 14 16 15
f 10 17 8
f 17 15 8
f 17 10 12
f 15 17 12
f 18 6 8
f 6 18 7
f 16 18 8
f 18 16 7
f 19 10 8
f 9 19 8
f 19 11 10
f 19 13 11
f 19 9 5
f 13 19 5
f 20 14 7
f 16 20 7
f 20 16 14
