v 0.0527603 -0.06078184 -0.003947733
v 0.03133762 -0.06084102 0.02557385
v 0.05481756 -0.06083286 -0.0306288
v 0.0485518 0.01276445 0.05096284
v -0.05360717 -0.06084096 -0.006454794
v 0.000820756 -0.06083769 0.03467041
v -0.02728248 -0.06083637 0.02798176
v 0.0539366 0.06012797 0.0526742
v 0.02893001 0.06084102 0.07468688
v 0.02608883 0.05683565 0.02891702
v -0.004703164 0.05633461 0.04122582
v -0.0462988 -0.06081092 0.009521844
v -0.02229291 -0.0608409 -0.0720818
v -0.02643061 0.02171189 -0.02216744
v -0.03778774 0.01534563 -0.007156907
v -0.05481756 -0.03233778 -0.02466318
v -0.05359024 -0.03624153 -0.01080265
v -0.04581976 -0.003461123 -0.03866079
v -0.03295863 0.002687514 -0.04882625
v -0.04971188 -0.0263781 -0.04382709
v -0.03858727 -0.02560574 -0.05901167
v -0.04419261 -0.06082326 -0.05389854
v -0.02588952 -0.04118568 -0.06908214
v 0.05420756 0.02292752 0.03642702
v 0.02324605 0.004103839 0.06202999
v 0.01226336 0.04894382 0.07516474
v 0.02441144 0.01931232 -0.03943402
v 0.008283019 0.0225538 -0.03834867
v 0.01018625 0.00848645 -0.0567525
v 0.02604461 -0.002444506 -0.06160611
v 0.0516212 -0.01748997 -0.02958798
v 0.04709053 -0.03945571 -0.04895049
v 0.04322737 0.002496839 -0.04178086
v 0.04031146 -0.06070679 -0.05880445
v -0.002054751 0.05410373 0.06875524
v -0.04680258 -0.02519947 0.006387116
v -0.0153445 0.02058923 -0.03562981
v -0.05341822 -0.06083697 -0.03571209
v -0.04726338 0.002406597 -0.01069817
v 0.02331245 -0.03046858 -0.07041579
v 0.02567554 -0.06083214 -0.06925261
v 0.0106318 -0.06083179 -0.07516474
v -0.0007243752 -0.01275432 -0.07196775
v 0.006238937 0.004580677 0.06348541
v 0.04245555 0.04826027 0.02040342
v 0.0513649 0.04920214 0.03145167
v 0.03419936 -0.02356815 -0.06221288
v -0.009021759 0.01254576 0.05775535
v -0.01457012 0.04263622 0.04802871
v 0.01021725 -0.02804559 -0.0742195
v -0.01174206 0.001388729 -0.06237906
v -0.02442837 -0.01447201 -0.06600046
v 0.03943294 0.0130676 -0.03466243
v 0.006101549 0.02536732 0.07023045
v -0.005282223 -0.03403974 -0.07493806
f 1 2 3
f 2 1 4
f 5 6 7
f 6 5 2
f 8 9 4
f 9 10 11
f 9 8 10
f 12 5 7
f 5 13 2
f 2 13 3
f 14 15 11
f 16 5 17
f 18 14 19
f 14 18 15
f 16 18 20
f 21 18 19
f 18 21 20
f 20 21 22
f 21 13 22
f 13 21 23
f 24 8 4
f 1 24 4
f 8 24 3
f 24 1 3
f 25 2 4
f 25 6 2
f 9 25 4
f 25 9 26
f 27 28 10
f 29 27 30
f 27 29 28
f 31 8 3
f 31 32 33
f 34 32 3
f 32 31 3
f 35 9 11
f 9 35 26
f 5 36 17
f 12 36 5
f 35 36 12
f 14 37 19
f 37 14 11
f 10 37 11
f 28 37 10
f 16 38 5
f 13 38 22
f 38 13 5
f 38 20 22
f 38 16 20
f 18 39 15
f 39 18 16
f 39 16 17
f 36 39 17
f 40 41 42
f 41 40 34
f 41 34 3
f 13 41 3
f 41 13 42
f 43 29 30
f 25 44 6
f 6 44 7
f 8 45 10
f 45 27 10
f 31 46 8
f 46 31 33
f 46 45 8
f 40 47 34
f 47 32 34
f 47 40 30
f 33 47 30
f 32 47 33
f 48 12 7
f 48 35 12
f 49 36 35
f 49 39 36
f 49 35 11
f 15 49 11
f 39 49 15
f 50 40 42
f 40 50 30
f 50 43 30
f 43 51 29
f 37 51 19
f 29 51 28
f 51 37 28
f 21 52 23
f 52 51 43
f 52 21 19
f 51 52 19
f 45 53 27
f 46 53 45
f 53 46 33
f 53 33 30
f 27 53 30
f 44 54 7
f 54 48 7
f 54 25 26
f 54 44 25
f 35 54 26
f 48 54 35
f 13 55 42
f 55 50 42
f 50 55 43
f 55 13 23
f 52 55 23
f 55 52 43
