v -0.003878385 0.0130313 -0.01800153
v -0.002360851 0.01146233 -0.01925015
v -0.003701434 0.001384646 -0.01929071
v -0.003876835 0.01305437 0.01801769
v 0.000577867 -0.01305437 2.264231e-05
v -0.002327815 0.01149425 0.01929071
v -0.002834424 -0.01121381 -0.01478098
v -0.00307177 0.01293597 -0.01859132
v -0.002448872 0.01212698 0.01913936
v -0.003070131 0.01295993 0.01860788
v 0.001383185 0.01232171 -0.009771474
v 0.002288207 0.01083326 -0.01012849
v 0.002132609 0.01147059 -0.01004968
v 0.00387837 0.0106172 8.769333e-06
v -0.00135015 -0.001262516 -0.01457684
v -0.001011699 -0.01283935 -0.01011492
v 0.001820177 0.01190028 -0.009930737
v -0.002465487 0.01210037 -0.01911087
v -0.002705723 0.01254824 0.01891161
v 0.0018197 0.01191249 0.009946756
v 0.002287537 0.01084504 0.01014561
v 0.001382038 0.01233423 0.009786315
v -0.002713621 0.01252678 -0.01888946
v 0.002131015 0.01148319 0.01006625
v 0.002916753 0.01211429 7.69645e-06
v 0.003378749 0.01168886 8.054078e-06
v 0.003709733 0.01125735 8.08388e-06
f 1 2 3
f 4 5 6
f 4 7 5
f 7 4 3
f 4 1 3
f 8 2 1
f 9 10 6
f 10 4 6
f 8 10 11
f 4 10 1
f 10 8 1
f 12 13 14
f 12 15 2
f 15 7 3
f 2 15 3
f 7 16 5
f 16 14 5
f 16 12 14
f 15 16 7
f 16 15 12
f 17 8 11
f 8 18 2
f 18 12 2
f 18 13 12
f 19 10 9
f 20 19 9
f 19 20 10
f 5 21 6
f 14 21 5
f 10 22 11
f 20 22 10
f 17 23 8
f 23 18 8
f 23 17 13
f 18 23 13
f 24 20 9
f 24 9 6
f 21 24 6
f 22 25 11
f 25 17 11
f 25 26 17
f 26 25 20
f 25 22 20
f 27 26 20
f 24 27 20
f 13 27 14
f 27 21 14
f 27 24 21
f 17 27 13
f 26 27 17
