v -0.003636755 -0.003748424 0.01354069
v -0.004670404 -0.002042122 0.01364933
v -0.004758455 -0.002042077 0.008475646
v -0.003729396 -0.003748514 0.008093759
v -0.005019329 -7.450581e-09 0.01371606
v -0.005104132 -2.235174e-08 0.008724496
v -0.00534185 -3.72529e-08 0.0036138
v -0.005021073 -0.0021502 0.003183261
v -0.004003204 -0.003906913 0.00247696
v 0.003859125 0.003748558 0.01341318
v 0.004896067 0.002042003 0.01348658
v 0.004808061 0.002042003 0.00831297
v 0.003766529 0.003748484 0.007966235
v 0.005247004 -7.450581e-09 0.01354137
v 0.005162068 -7.450581e-09 0.008549839
v 0.005230509 2.235174e-08 0.003433928
v 0.004893683 0.002150066 0.003014579
v 0.00385005 0.003906943 0.002343342
v -0.003636725 0.003748484 0.01354076
v -0.001930945 0.004783891 0.0134813
v -0.002025165 0.004783951 0.007943287
v -0.003729381 0.003748454 0.008093745
v 0.0001107231 0.00513386 0.01344654
v 1.653284e-05 0.005133845 0.007908553
v -8.500367e-05 0.005165346 0.001941398
v -0.002233066 0.004876949 0.0020805
v -0.004003234 0.003906839 0.00247696
v 0.003859229 -0.003748499 0.01341322
v 0.00215245 -0.004783951 0.01341181
v 0.002058215 -0.004783966 0.007873893
v 0.003766589 -0.003748514 0.00796625
v 0.000110738 -0.005133934 0.01344652
v 1.653284e-05 -0.00513386 0.007908583
v -8.501858e-05 -0.005165331 0.001941368
v 0.00206656 -0.004877008 0.002007231
v 0.003849901 -0.003906988 0.002343342
v -0.005577303 -0.002474554 0.0009190291
v -0.004580908 -0.004382126 -3.173947e-05
v -0.005831517 3.72529e-08 0.001409203
v -0.006428264 -6.705523e-08 0.0005659014
v -0.006259255 -0.002714179 7.709861e-05
v -0.005599476 -0.005234443 -0.001201183
v 0.005382054 0.002474509 0.000732556
v 0.004344337 0.004382186 -0.0001835227
v 0.005659245 -2.235174e-08 0.001213729
v 0.006310485 -7.450581e-09 0.0003613234
v 0.006116964 0.002714224 -0.0001214147
v 0.005372368 0.005234398 -0.001380175
v -0.002608605 0.005156152 -0.0009235442
v -0.004580848 0.004382141 -3.176928e-05
v -0.0001413748 0.005259655 -0.001375735
v -0.0001710579 0.005455963 -0.003114492
v -0.003010057 0.00558164 -0.002416283
v -0.005599432 0.005234413 -0.001201272
v 0.002339758 -0.005156167 -0.001007766
v 0.004344322 -0.004382171 -0.0001835674
v -0.0001414642 -0.00525976 -0.001375735
v -0.0001710728 -0.005455963 -0.003114477
v 0.002690248 -0.005581714 -0.002513245
v 0.005372323 -0.005234383 -0.001380146
v -0.007312469 -0.003949039 -0.002669975
v -0.007439278 -0.002376206 -0.002057731
v -0.007822432 -0.002477236 -0.003149986
v -0.007607915 -0.004560165 -0.003775433
v -0.007472984 7.450581e-09 -0.001553535
v -0.007850952 -3.72529e-08 -0.002594203
v -0.008030705 5.215406e-08 -0.004069805
v -0.00803531 -0.002669789 -0.004592374
v -0.007891543 -0.004940115 -0.005247816
v 0.007445268 0.003948979 -0.002910495
v 0.007621564 0.002376102 -0.002374202
v 0.007921271 0.002477117 -0.003899679
v 0.007744335 0.00456024 -0.004096955
v 0.007643126 -3.72529e-08 -0.00194332
v 0.007876955 -2.235174e-08 -0.003632635
v 0.007905819 -3.72529e-08 -0.005528986
v 0.008017905 0.002669759 -0.005625531
v 0.007960938 0.00494013 -0.005647331
v -0.003295921 0.006113686 -0.003745243
v -0.005788811 0.006369837 -0.003091261
v -0.000191994 0.005792908 -0.004346579
v -0.0002142116 0.00604149 -0.00565201
v -0.003528915 0.006522305 -0.005285576
v -0.006161861 0.006975479 -0.004906893
v 0.002930678 -0.006113715 -0.003851309
v 0.005523078 -0.006369852 -0.003271729
v -0.0001919344 -0.005792834 -0.004346609
v -0.000214152 -0.006041519 -0.005652055
v 0.003111176 -0.00652235 -0.005398557
v 0.00583417 -0.006975465 -0.005098924
v -0.008182161 -0.004925825 -0.00919193
v -0.00794486 -0.002657376 -0.009135887
v -0.007710837 -0.002318509 -0.0112514
v -0.007806577 -0.004294015 -0.01109323
v -0.007703476 3.72529e-08 -0.00914818
v -0.007554583 6.705523e-08 -0.01147443
v -0.007302038 -7.450581e-09 -0.01341769
v -0.007326804 -0.002064534 -0.01305063
v -0.007364117 -0.003557228 -0.01249345
v 0.008182161 0.004925735 -0.009406075
v 0.008032613 0.002657391 -0.009391338
v 0.007752158 0.002318464 -0.01137516
v 0.007748507 0.004293986 -0.01126288
v 0.00779561 -3.72529e-08 -0.00943549
v 0.007605769 5.215406e-08 -0.01157159
v 0.007169567 -5.215406e-08 -0.01356354
v 0.007202454 0.002064489 -0.01320298
v 0.007192664 0.003557213 -0.01266149
v -0.006660722 0.006916456 -0.009644091
v -0.003856845 0.006215386 -0.009752557
v -0.003615566 0.005371772 -0.01193421
v -0.006228648 0.006004147 -0.01196961
v -0.0002848282 0.005564384 -0.009805515
v -0.0003191605 0.004792549 -0.01182094
v -0.0003448501 0.003597565 -0.0133322
v -0.003314666 0.004022755 -0.01364511
v -0.005703978 0.004486464 -0.01389153
v 0.006171666 -0.006916486 -0.009850338
v 0.003286965 -0.006215386 -0.009874016
v 0.002971612 -0.005371876 -0.01204614
v 0.005660765 -0.006004177 -0.01215985
v -0.0002848133 -0.005564399 -0.009805545
v -0.0003191158 -0.004792623 -0.01182091
v -0.0003448501 -0.00359758 -0.01333222
v 0.002612688 -0.004022785 -0.01374596
v 0.005070932 -0.004486538 -0.01406285
v -0.003220402 0.002143793 -0.0145735
v -0.005541779 0.00238847 -0.0151345
v -0.0003563985 0.001919575 -0.01401496
v -0.0003587082 2.235174e-08 -0.01414923
v -0.003224961 7.450581e-09 -0.01484206
v -0.005551271 -3.72529e-08 -0.01558603
v -0.004670419 0.002041973 0.01364934
v -0.004758425 0.002041988 0.008475617
v -0.005021058 0.002150171 0.003183156
v 0.004896097 -0.002042063 0.01348659
v 0.004808016 -0.002042077 0.008312911
v 0.004893623 -0.002150171 0.003014535
v -0.005577333 0.002474509 0.0009189993
v -0.006259255 0.002714179 7.721782e-05
v 0.005382098 -0.002474524 0.0007326007
v 0.006117024 -0.002714224 -0.00012137
v -0.007439248 0.002376132 -0.002057627
v -0.007822461 0.002477132 -0.003149956
v -0.007312439 0.003949009 -0.002670005
v -0.00760787 0.004560195 -0.003775328
v -0.007891499 0.004940055 -0.005247846
v -0.00803528 0.002669699 -0.004592389
v 0.007621519 -0.002376117 -0.002374277
v 0.007921301 -0.002477221 -0.003899679
v 0.007445253 -0.003949009 -0.00291042
v 0.007744305 -0.00456021 -0.004096955
v 0.007960878 -0.00494016 -0.005647331
v 0.008017875 -0.002669759 -0.005625546
v -0.00794483 0.002657406 -0.009135857
v -0.007710852 0.002318524 -0.01125136
v -0.008182131 0.00492572 -0.009191915
v -0.007806562 0.004293971 -0.01109318
v -0.007364072 0.003557242 -0.01249352
v -0.007326879 0.002064534 -0.01305076
v 0.008032627 -0.002657495 -0.009391353
v 0.007752113 -0.002318509 -0.01137519
v 0.008182161 -0.00492578 -0.00940609
v 0.007748477 -0.004294001 -0.011263
v 0.007192604 -0.003557272 -0.01266146
v 0.007202439 -0.002064504 -0.01320286
v 0.004860736 -7.450581e-09 -0.01575117
v 0.004866607 -0.002388395 -0.0152995
v 0.002486967 -0.002143823 -0.01467057
v 0.002482332 -5.215406e-08 -0.01493914
v -0.0003564581 -0.001919545 -0.01401499
v 0.0001107231 0.00513386 0.01344654
v 0.002152495 0.004783861 0.01341191
v 0.002058245 0.004783921 0.007873848
v 1.653284e-05 0.005133845 0.007908553
v 0.00206662 0.004876979 0.00200735
v -8.500367e-05 0.005165346 0.001941398
v -0.00193096 -0.004783951 0.01348121
v -0.002025254 -0.004783966 0.007943332
v -0.002233036 -0.004876979 0.002080455
v 0.002339743 0.005156137 -0.001007721
v -0.0001413748 0.005259655 -0.001375735
v 0.002690248 0.005581684 -0.0025132
v -0.0001710579 0.005455963 -0.003114492
v -0.00260859 -0.005156197 -0.000923574
v -0.003010027 -0.005581714 -0.002416298
v 0.002930708 0.006113671 -0.00385116
v -0.000191994 0.005792908 -0.004346579
v 0.005523153 0.006369866 -0.003271714
v 0.005834214 0.00697542 -0.005098939
v 0.003111191 0.00652232 -0.005398557
v -0.0002142116 0.00604149 -0.00565201
v -0.003295921 -0.006113686 -0.003745362
v -0.005788796 -0.006369837 -0.003091246
v -0.006161906 -0.00697539 -0.004906908
v -0.003528945 -0.00652232 -0.005285636
v -0.0002848282 0.005564384 -0.009805515
v 0.003286935 0.006215356 -0.009874105
v 0.002971627 0.005371861 -0.0120462
v -0.0003191605 0.004792549 -0.01182094
v 0.006171651 0.006916456 -0.009850308
v 0.005660735 0.006004132 -0.01215981
v 0.005070932 0.004486538 -0.0140629
v 0.002612673 0.00402274 -0.0137459
v -0.0003448501 0.003597565 -0.0133322
v -0.003856756 -0.006215371 -0.009752572
v -0.003615521 -0.005371861 -0.0119341
v -0.006660752 -0.00691653 -0.009644091
v -0.006228633 -0.006004103 -0.01196955
v -0.005704023 -0.004486553 -0.01389158
v -0.003314637 -0.004022695 -0.01364514
v 0.002486937 0.002143778 -0.0146706
v -0.0003563985 0.001919575 -0.01401496
v 0.004866518 0.002388395 -0.01529941
v -0.003220417 -0.002143808 -0.01457351
v -0.005541734 -0.00238844 -0.0151345
v -0.007921807 -7.450581e-09 -0.006467193
v -0.008064605 -0.002752177 -0.006751925
v -0.008146666 -0.005101599 -0.007148325
v 0.007887118 -2.235174e-08 -0.0074424
v 0.008088045 0.002752163 -0.007465482
v 0.008179985 0.005101569 -0.007475659
v -0.0002475008 0.005973049 -0.0076105
v -0.003771894 0.006577484 -0.00741221
v -0.006545506 0.007198982 -0.007190526
v -0.0002474859 -0.005973093 -0.007610485
v 0.003281616 -0.006577574 -0.007532209
v 0.006139927 -0.007198922 -0.007394269
v -0.008146711 0.005101584 -0.007148355
v -0.00806459 0.002752177 -0.006751969
v 0.008179955 -0.005101584 -0.007475644
v 0.008088119 -0.002752192 -0.007465512
v 0.006139912 0.007198922 -0.007394284
v 0.00328166 0.006577455 -0.007532194
v -0.0002475008 0.005973049 -0.0076105
v -0.006545477 -0.007198982 -0.007190466
v -0.003771909 -0.006577514 -0.007412195
v -0.006899066 0.002568223 -0.0009485781
v -0.006987117 -3.72529e-08 -0.0004609227
v -0.006855793 0.004674025 -0.002056122
v -0.007078029 0.005854852 -0.003428519
v -0.007441558 0.006411709 -0.005123466
v -0.007822074 0.006645374 -0.007198483
v -0.007928304 0.006416045 -0.009409279
v -0.00746908 0.005583681 -0.01151097
v -0.006920122 0.004177041 -0.01327845
v -0.006757133 0.002224885 -0.01448596
v -0.006772287 -2.235174e-08 -0.01494977
v -0.006757163 -0.002224945 -0.01448593
v -0.006920107 -0.004177012 -0.01327842
v -0.00746911 -0.005583726 -0.011511
v -0.007928319 -0.006416 -0.009409219
v -0.007822104 -0.006645434 -0.007198527
v -0.007441543 -0.006411739 -0.005123466
v -0.00707797 -0.005854897 -0.003428534
v -0.006855838 -0.00467401 -0.002056167
v -0.006899066 -0.002568327 -0.0009485632
v 0.006941803 -0.002568342 -0.001135916
v 0.00704629 -7.450581e-09 -0.0006515682
v 0.00686086 -0.004674025 -0.002241418
v 0.007036291 -0.005854823 -0.003620565
v 0.007341929 -0.006411709 -0.005326763
v 0.00765159 -0.006645374 -0.00741373
v 0.007682614 -0.00641603 -0.009626776
v 0.007152118 -0.005583711 -0.01171158
v 0.006543376 -0.004177131 -0.01345937
v 0.006339498 -0.002224915 -0.0146606
v 0.006338857 7.450581e-09 -0.01512468
v 0.006339483 0.002224885 -0.01466063
v 0.006543346 0.004176997 -0.01345941
v 0.007152177 0.005583636 -0.01171158
v 0.007682614 0.00641609 -0.009626746
v 0.007651605 0.006645419 -0.0074137
v 0.007341854 0.006411694 -0.005326807
v 0.007036276 0.005854867 -0.00362055
v 0.00686086 0.00467407 -0.002241343
v 0.006941758 0.002568223 -0.001135916
v -0.004638009 -0.002042077 0.01555733
v -0.004987754 -6.705523e-08 0.01556332
v -0.003602736 -0.003748484 0.01553972
v -0.00303448 -0.00318297 0.01568292
v -0.003438704 -0.001531519 0.01574336
v -0.0042594 3.72529e-08 0.01570377
v 0.004928507 0.002041988 0.01539457
v 0.005278371 7.450581e-09 0.01538859
v 0.003893189 0.003748499 0.01541218
v 0.003330313 0.003182806 0.01557466
v 0.00373622 0.001531459 0.0156213
v 0.004555203 7.450581e-09 0.01555388
v -0.001896404 0.004783891 0.01551072
v 0.0001452491 0.005133875 0.01547597
v -0.003602691 0.003748514 0.01553971
v -0.00303451 0.003182806 0.01568297
v -0.001382567 0.003587924 0.0157084
v 0.0001478419 0.00440786 0.01562884
v 0.002187066 -0.004783951 0.01544124
v 0.0001452938 -0.005133919 0.015476
v 0.003893234 -0.003748499 0.0154122
v 0.003330268 -0.003182881 0.01557469
v 0.001680113 -0.003587984 0.01565626
v 0.000147827 -0.00440795 0.01562881
v -0.004637979 0.002041988 0.0155573
v -0.003438689 0.001531519 0.01574336
v 0.004928492 -0.002042092 0.01539455
v 0.003736146 -0.001531459 0.01562123
v 0.002187021 0.004783891 0.01544118
v 0.0001452491 0.005133875 0.01547597
v 0.0001478419 0.00440786 0.01562884
v 0.001680173 0.003587954 0.01565628
v -0.001896359 -0.004783936 0.01551069
v -0.001382522 -0.003587939 0.01570831
v -0.00303448 -0.00318297 0.01568292
v -0.001382522 -0.003587939 0.01570831
v 0.0001499727 -2.235174e-08 0.01575117
v -0.003438704 -0.001531519 0.01574336
v 0.000147827 -0.00440795 0.01562881
v 0.001680113 -0.003587984 0.01565626
v 0.003330268 -0.003182881 0.01557469
v 0.003736146 -0.001531459 0.01562123
v 0.004555203 7.450581e-09 0.01555388
v 0.00373622 0.001531459 0.0156213
v 0.003330313 0.003182806 0.01557466
v 0.001680173 0.003587954 0.01565628
v 0.0001478419 0.00440786 0.01562884
v -0.001382567 0.003587924 0.0157084
v -0.00303451 0.003182806 0.01568297
v -0.003438689 0.001531519 0.01574336
v -0.0042594 3.72529e-08 0.01570377
f 1 2 3
f 1 3 4
f 5 6 3
f 5 3 2
f 7 8 3
f 7 3 6
f 9 4 3
f 9 3 8
f 10 11 12
f 10 12 13
f 14 15 12
f 14 12 11
f 16 17 12
f 16 12 15
f 18 13 12
f 18 12 17
f 19 20 21
f 19 21 22
f 23 24 21
f 23 21 20
f 25 26 21
f 25 21 24
f 27 22 21
f 27 21 26
f 28 29 30
f 28 30 31
f 32 33 30
f 32 30 29
f 34 35 30
f 34 30 33
f 36 31 30
f 36 30 35
f 9 8 37
f 9 37 38
f 7 39 37
f 7 37 8
f 40 41 37
f 40 37 39
f 42 38 37
f 42 37 41
f 18 17 43
f 18 43 44
f 16 45 43
f 16 43 17
f 46 47 43
f 46 43 45
f 48 44 43
f 48 43 47
f 27 26 49
f 27 49 50
f 25 51 49
f 25 49 26
f 52 53 49
f 52 49 51
f 54 50 49
f 54 49 53
f 36 35 55
f 36 55 56
f 34 57 55
f 34 55 35
f 58 59 55
f 58 55 57
f 60 56 55
f 60 55 59
f 61 62 63
f 61 63 64
f 65 66 63
f 65 63 62
f 67 68 63
f 67 63 66
f 69 64 63
f 69 63 68
f 70 71 72
f 70 72 73
f 74 75 72
f 74 72 71
f 76 77 72
f 76 72 75
f 78 73 72
f 78 72 77
f 54 53 79
f 54 79 80
f 52 81 79
f 52 79 53
f 82 83 79
f 82 79 81
f 84 80 79
f 84 79 83
f 60 59 85
f 60 85 86
f 58 87 85
f 58 85 59
f 88 89 85
f 88 85 87
f 90 86 85
f 90 85 89
f 91 92 93
f 91 93 94
f 95 96 93
f 95 93 92
f 97 98 93
f 97 93 96
f 99 94 93
f 99 93 98
f 100 101 102
f 100 102 103
f 104 105 102
f 104 102 101
f 106 107 102
f 106 102 105
f 108 103 102
f 108 102 107
f 109 110 111
f 109 111 112
f 113 114 111
f 113 111 110
f 115 116 111
f 115 111 114
f 117 112 111
f 117 111 116
f 118 119 120
f 118 120 121
f 122 123 120
f 122 120 119
f 124 125 120
f 124 120 123
f 126 121 120
f 126 120 125
f 117 116 127
f 117 127 128
f 115 129 127
f 115 127 116
f 130 131 127
f 130 127 129
f 132 128 127
f 132 127 131
f 5 133 134
f 5 134 6
f 19 22 134
f 19 134 133
f 27 135 134
f 27 134 22
f 7 6 134
f 7 134 135
f 14 136 137
f 14 137 15
f 28 31 137
f 28 137 136
f 36 138 137
f 36 137 31
f 16 15 137
f 16 137 138
f 7 135 139
f 7 139 39
f 27 50 139
f 27 139 135
f 54 140 139
f 54 139 50
f 40 39 139
f 40 139 140
f 16 138 141
f 16 141 45
f 36 56 141
f 36 141 138
f 60 142 141
f 60 141 56
f 46 45 141
f 46 141 142
f 65 143 144
f 65 144 66
f 145 146 144
f 145 144 143
f 147 148 144
f 147 144 146
f 67 66 144
f 67 144 148
f 74 149 150
f 74 150 75
f 151 152 150
f 151 150 149
f 153 154 150
f 153 150 152
f 76 75 150
f 76 150 154
f 95 155 156
f 95 156 96
f 157 158 156
f 157 156 155
f 159 160 156
f 159 156 158
f 97 96 156
f 97 156 160
f 104 161 162
f 104 162 105
f 163 164 162
f 163 162 161
f 165 166 162
f 165 162 164
f 106 105 162
f 106 162 166
f 167 168 169
f 167 169 170
f 126 125 169
f 126 169 168
f 124 171 169
f 124 169 125
f 130 170 169
f 130 169 171
f 172 173 174
f 172 174 175
f 10 13 174
f 10 174 173
f 18 176 174
f 18 174 13
f 177 175 174
f 177 174 176
f 32 178 179
f 32 179 33
f 1 4 179
f 1 179 178
f 9 180 179
f 9 179 4
f 34 33 179
f 34 179 180
f 177 176 181
f 177 181 182
f 18 44 181
f 18 181 176
f 48 183 181
f 48 181 44
f 184 182 181
f 184 181 183
f 34 180 185
f 34 185 57
f 9 38 185
f 9 185 180
f 42 186 185
f 42 185 38
f 58 57 185
f 58 185 186
f 184 183 187
f 184 187 188
f 48 189 187
f 48 187 183
f 190 191 187
f 190 187 189
f 192 188 187
f 192 187 191
f 58 186 193
f 58 193 87
f 42 194 193
f 42 193 186
f 195 196 193
f 195 193 194
f 88 87 193
f 88 193 196
f 197 198 199
f 197 199 200
f 201 202 199
f 201 199 198
f 203 204 199
f 203 199 202
f 205 200 199
f 205 199 204
f 122 206 207
f 122 207 123
f 208 209 207
f 208 207 206
f 210 211 207
f 210 207 209
f 124 123 207
f 124 207 211
f 205 204 212
f 205 212 213
f 203 214 212
f 203 212 204
f 167 170 212
f 167 212 214
f 130 213 212
f 130 212 170
f 124 211 215
f 124 215 171
f 210 216 215
f 210 215 211
f 132 131 215
f 132 215 216
f 130 171 215
f 130 215 131
f 67 217 218
f 67 218 68
f 95 92 218
f 95 218 217
f 91 219 218
f 91 218 92
f 69 68 218
f 69 218 219
f 76 220 221
f 76 221 77
f 104 101 221
f 104 221 220
f 100 222 221
f 100 221 101
f 78 77 221
f 78 221 222
f 82 223 224
f 82 224 83
f 113 110 224
f 113 224 223
f 109 225 224
f 109 224 110
f 84 83 224
f 84 224 225
f 88 226 227
f 88 227 89
f 122 119 227
f 122 227 226
f 118 228 227
f 118 227 119
f 90 89 227
f 90 227 228
f 147 229 230
f 147 230 148
f 157 155 230
f 157 230 229
f 95 217 230
f 95 230 155
f 67 148 230
f 67 230 217
f 153 231 232
f 153 232 154
f 163 161 232
f 163 232 231
f 104 220 232
f 104 232 161
f 76 154 232
f 76 232 220
f 190 233 234
f 190 234 191
f 201 198 234
f 201 234 233
f 197 235 234
f 197 234 198
f 192 191 234
f 192 234 235
f 195 236 237
f 195 237 196
f 208 206 237
f 208 237 236
f 122 226 237
f 122 237 206
f 88 196 237
f 88 237 226
f 40 140 238
f 40 238 239
f 54 240 238
f 54 238 140
f 145 143 238
f 145 238 240
f 65 239 238
f 65 238 143
f 54 80 241
f 54 241 240
f 84 242 241
f 84 241 80
f 147 146 241
f 147 241 242
f 145 240 241
f 145 241 146
f 84 225 243
f 84 243 242
f 109 244 243
f 109 243 225
f 157 229 243
f 157 243 244
f 147 242 243
f 147 243 229
f 109 112 245
f 109 245 244
f 117 246 245
f 117 245 112
f 159 158 245
f 159 245 246
f 157 244 245
f 157 245 158
f 117 128 247
f 117 247 246
f 132 248 247
f 132 247 128
f 97 160 247
f 97 247 248
f 159 246 247
f 159 247 160
f 132 216 249
f 132 249 248
f 210 250 249
f 210 249 216
f 99 98 249
f 99 249 250
f 97 248 249
f 97 249 98
f 210 209 251
f 210 251 250
f 208 252 251
f 208 251 209
f 91 94 251
f 91 251 252
f 99 250 251
f 99 251 94
f 208 236 253
f 208 253 252
f 195 254 253
f 195 253 236
f 69 219 253
f 69 253 254
f 91 252 253
f 91 253 219
f 195 194 255
f 195 255 254
f 42 256 255
f 42 255 194
f 61 64 255
f 61 255 256
f 69 254 255
f 69 255 64
f 42 41 257
f 42 257 256
f 40 239 257
f 40 257 41
f 65 62 257
f 65 257 239
f 61 256 257
f 61 257 62
f 46 142 258
f 46 258 259
f 60 260 258
f 60 258 142
f 151 149 258
f 151 258 260
f 74 259 258
f 74 258 149
f 60 86 261
f 60 261 260
f 90 262 261
f 90 261 86
f 153 152 261
f 153 261 262
f 151 260 261
f 151 261 152
f 90 228 263
f 90 263 262
f 118 264 263
f 118 263 228
f 163 231 263
f 163 263 264
f 153 262 263
f 153 263 231
f 118 121 265
f 118 265 264
f 126 266 265
f 126 265 121
f 165 164 265
f 165 265 266
f 163 264 265
f 163 265 164
f 126 168 267
f 126 267 266
f 167 268 267
f 167 267 168
f 106 166 267
f 106 267 268
f 165 266 267
f 165 267 166
f 167 214 269
f 167 269 268
f 203 270 269
f 203 269 214
f 108 107 269
f 108 269 270
f 106 268 269
f 106 269 107
f 203 202 271
f 203 271 270
f 201 272 271
f 201 271 202
f 100 103 271
f 100 271 272
f 108 270 271
f 108 271 103
f 201 233 273
f 201 273 272
f 190 274 273
f 190 273 233
f 78 222 273
f 78 273 274
f 100 272 273
f 100 273 222
f 190 189 275
f 190 275 274
f 48 276 275
f 48 275 189
f 70 73 275
f 70 275 276
f 78 274 275
f 78 275 73
f 48 47 277
f 48 277 276
f 46 259 277
f 46 277 47
f 74 71 277
f 74 277 259
f 70 276 277
f 70 277 71
f 5 2 278
f 5 278 279
f 1 280 278
f 1 278 2
f 281 282 278
f 281 278 280
f 283 279 278
f 283 278 282
f 14 11 284
f 14 284 285
f 10 286 284
f 10 284 11
f 287 288 284
f 287 284 286
f 289 285 284
f 289 284 288
f 23 20 290
f 23 290 291
f 19 292 290
f 19 290 20
f 293 294 290
f 293 290 292
f 295 291 290
f 295 290 294
f 32 29 296
f 32 296 297
f 28 298 296
f 28 296 29
f 299 300 296
f 299 296 298
f 301 297 296
f 301 296 300
f 19 133 302
f 19 302 292
f 5 279 302
f 5 302 133
f 283 303 302
f 283 302 279
f 293 292 302
f 293 302 303
f 28 136 304
f 28 304 298
f 14 285 304
f 14 304 136
f 289 305 304
f 289 304 285
f 299 298 304
f 299 304 305
f 10 173 306
f 10 306 286
f 172 307 306
f 172 306 173
f 308 309 306
f 308 306 307
f 287 286 306
f 287 306 309
f 1 178 310
f 1 310 280
f 32 297 310
f 32 310 178
f 301 311 310
f 301 310 297
f 281 280 310
f 281 310 311
f 312 313 314
f 312 314 315
f 316 317 314
f 316 314 313
f 318 319 314
f 318 314 317
f 320 321 314
f 320 314 319
f 322 323 314
f 322 314 321
f 324 325 314
f 324 314 323
f 326 327 314
f 326 314 325
f 328 315 314
f 328 314 327
