v -0.00332433 0.02005221 0.001925826
v -0.003747046 -0.02186765 0.00932008
v -0.0002741814 0.02210866 0.01370567
v 0.001188993 -0.02388358 0.02496988
v -0.003881156 0.001326025 0.001499712
v 0.002028286 -0.02398105 0.02369821
v 0.002088904 -0.02306667 0.02375019
v 0.003181994 -0.02219652 0.006953895
v 0.003905714 -0.0218493 -0.0165264
v 0.000625968 0.02176614 0.01321596
v 0.002318203 0.02233608 0.001056314
v -0.003537953 -0.02252446 0.004345536
v -0.003306448 -0.02161494 -0.0121361
v -0.003904402 0.01358412 -0.01595432
v 0.003965616 0.02355658 -0.02267677
v 0.003381371 0.02369319 -0.02440524
v -0.002682745 0.02398105 -0.02233636
v 0.003966391 -0.02093515 -0.01647514
v 0.003976047 0.02339415 -0.01978111
v -0.003353298 0.01393646 -0.02289909
v -0.003548801 0.006565869 -0.02244508
v -0.003975987 -0.004611477 -0.01929736
v -0.003425717 -0.01384993 -0.01924103
v -0.003598511 -0.01674874 -0.01650435
v 0.002382994 -0.0001695305 -0.02400738
v -0.0004507303 -0.005262569 -0.02232862
v -0.002975941 -0.02044193 -0.01700485
v -0.002965868 0.02388684 -0.02031171
v 0.002712667 0.01364809 -0.02496982
v -0.00393939 -0.0196473 0.002769649
v 0.002918661 -0.01883699 -0.0198375
v 0.001062751 -0.02035497 -0.01840013
f 1 2 3
f 2 4 3
f 5 2 1
f 6 7 4
f 8 6 9
f 6 8 7
f 10 11 3
f 10 7 11
f 4 10 3
f 7 10 4
f 2 12 4
f 12 6 4
f 12 13 9
f 6 12 9
f 14 5 1
f 15 16 3
f 16 17 3
f 15 18 9
f 18 8 9
f 8 19 7
f 7 19 11
f 19 18 15
f 18 19 8
f 19 15 3
f 11 19 3
f 14 20 21
f 22 14 21
f 23 22 21
f 22 23 24
f 14 22 5
f 25 26 21
f 26 23 21
f 23 27 24
f 13 27 9
f 24 27 13
f 20 28 17
f 28 20 14
f 28 14 1
f 28 1 3
f 17 28 3
f 16 29 17
f 29 20 17
f 29 16 15
f 29 25 21
f 20 29 21
f 29 15 9
f 30 22 24
f 30 24 13
f 5 30 2
f 22 30 5
f 30 12 2
f 12 30 13
f 26 31 23
f 31 27 23
f 31 26 25
f 31 29 9
f 29 31 25
f 27 32 9
f 32 31 9
f 31 32 27
