v -0.003878415 0.01303124 -0.01800147
v -0.00236088 0.0114623 -0.0192501
v -0.003701448 0.001384586 -0.01929066
v -0.003876865 0.01305428 0.01801772
v 0.0005778819 -0.01305446 2.269447e-05
v -0.0023278 0.01149416 0.01929073
v -0.002834514 -0.01121387 -0.01478094
v -0.00307183 0.01293591 -0.01859128
v -0.002448916 0.01212695 0.01913941
v -0.003070101 0.01295987 0.01860788
v 0.001383156 0.01232168 -0.009771422
v 0.002288193 0.01083323 -0.01012844
v 0.00213255 0.01147053 -0.01004966
v 0.00387831 0.01061714 8.821487e-06
v -0.001350194 -0.001262605 -0.01457679
v -0.001011789 -0.01283947 -0.01011486
v 0.001820177 0.01190019 -0.0099307
v -0.002465457 0.01210028 -0.01911083
v -0.002705738 0.01254815 0.01891162
v 0.00181964 0.01191247 0.009946808
v 0.002287358 0.01084498 0.01014565
v 0.001381963 0.01233417 0.009786353
v -0.002713591 0.01252669 -0.01888942
v 0.002130985 0.01148313 0.0100663
v 0.002916694 0.01211417 7.748604e-06
v 0.003378779 0.01168883 8.061528e-06
v 0.003709719 0.01125726 8.091331e-06
f 1 2 3
f 4 5 6
f 4 7 5
f 7 4 3
f 4 1 3
f 8 2 1
f 9 10 6
f 10 4 6
f 8 10 11
f 4 10 1
f 10 8 1
f 12 13 14
f 12 15 2
f 15 7 3
f 2 15 3
f 7 16 5
f 16 14 5
f 16 12 14
f 15 16 7
f 16 15 12
f 17 8 11
f 8 18 2
f 18 12 2
f 18 13 12
f 19 10 9
f 20 19 9
f 19 20 10
f 5 21 6
f 14 21 5
f 10 22 11
f 20 22 10
f 17 23 8
f 23 18 8
f 23 17 13
f 18 23 13
f 24 20 9
f 24 9 6
f 21 24 6
f 22 25 11
f 25 17 11
f 25 26 17
f 26 25 20
f 25 22 20
f 27 26 20
f 24 27 20
f 13 27 14
f 27 21 14
f 27 24 21
f 17 27 13
f 26 27 17
