v 0.002871513 -0.002814084 2.696936e-06
v 0.001858354 -0.003281802 -0.003886655
v 7.453561e-05 0.005409807 -0.003924266
v -0.002871335 0.005652875 0.005980298
v -0.002871513 0.005649745 -0.005980298
v -0.002871394 -0.005651146 0.003999785
v 7.423759e-05 0.005412579 0.003925815
v -0.002869606 -0.005652875 -0.003994897
v 0.001197815 0.005319566 1.147215e-06
v -0.0008057952 -0.004506201 0.005938068
v -0.0008054078 -0.004508317 -0.005932614
v 0.001857191 -0.003280163 0.003891751
f 1 2 3
f 4 5 6
f 2 5 3
f 7 5 4
f 5 8 6
f 8 1 6
f 8 2 1
f 9 1 3
f 9 7 1
f 5 9 3
f 7 9 5
f 10 4 6
f 11 5 2
f 8 11 2
f 11 8 5
f 7 12 1
f 1 12 6
f 12 10 6
f 12 7 4
f 10 12 4
