v 0.01060421 -0.02844401 -0.1110383
v 0.01130088 -0.003879309 0.1208017
v -0.008378059 -0.02817133 0.1149768
v 0.00427077 0.01147893 -0.1175869
v 0.0003047734 0.02844402 -0.0889793
v -0.0006895065 0.004397184 0.08496344
v -0.009569123 0.02010062 -0.07201505
v -0.01130088 -0.01412073 0.09630477
v 0.001272976 0.01937295 -0.1116197
v -0.002554804 -0.004960999 -0.1165412
v 0.00397478 0.003424674 0.1030866
v 0.004847482 -0.002376035 -0.1208016
v 0.0001243949 -0.02600315 -0.1030173
v -0.01086451 -0.01612264 0.09203351
v -0.009208076 -0.01862264 0.04212648
v -0.0006165579 0.02650535 -0.09760952
v -0.006880306 0.01776607 -0.1037662
v -0.00570292 -0.01816414 -0.08850718
v -0.01002889 0.002239913 -0.06982106
v -0.007923767 -0.006571382 -0.08508754
v -0.008561917 0.00136447 -0.09469759
f 1 2 3
f 2 1 4
f 5 2 4
f 6 5 7
f 8 6 7
f 9 5 4
f 10 9 4
f 5 11 2
f 11 5 6
f 8 11 6
f 2 11 3
f 11 8 3
f 1 12 4
f 12 10 4
f 10 12 1
f 13 10 1
f 13 1 3
f 14 15 3
f 8 14 3
f 5 16 7
f 9 16 5
f 17 9 10
f 16 17 7
f 17 16 9
f 13 18 10
f 15 18 3
f 18 13 3
f 19 8 7
f 14 19 15
f 19 14 8
f 19 18 15
f 18 19 20
f 21 17 10
f 18 21 10
f 21 18 20
f 19 21 20
f 17 21 7
f 21 19 7
