v 0.005253524 0.01265332 0.05370301
v 0.003176838 0.0119147 -0.04980916
v -0.002024144 0.01284072 -0.05359167
v -0.004917562 0.0128403 0.04450244
v -0.005253524 -0.0128136 0.02709305
v -0.002062827 -0.01284072 -0.05370307
v 0.004902244 -0.01244241 0.04033792
v -0.002034098 0.01247931 0.04858196
v -0.004682302 0.01051322 0.04514414
v 0.0006613433 0.00458625 0.04990965
v -0.004948616 -0.01221412 0.03109372
v 0.005164355 -0.006412417 0.04615855
v 0.005128294 -0.009160161 0.04432881
v 0.003070474 -0.01167771 -0.0488624
v -0.004766524 0.002645522 0.04177701
v 0.0005514324 -0.005488455 0.04440725
f 1 2 3
f 4 1 3
f 5 4 3
f 5 6 7
f 6 5 3
f 2 6 3
f 4 8 1
f 8 4 9
f 8 10 1
f 10 8 9
f 11 5 7
f 12 2 1
f 12 13 2
f 10 12 1
f 6 14 7
f 14 6 2
f 14 13 7
f 13 14 2
f 15 10 9
f 4 15 9
f 15 4 5
f 11 15 5
f 15 16 10
f 16 15 11
f 16 12 10
f 12 16 13
f 13 16 7
f 16 11 7
