v -0.002808943 -0.006695896 0.01685077
v -0.001835957 -0.006594777 0.0165894
v 0.002808958 -0.001024395 0.01670277
v -0.001877055 -0.006823808 -0.01592755
v -0.002808914 -0.00680396 -0.01685083
v -0.002808928 0.004337579 -0.01661026
v 0.00280264 0.00278753 0.01214027
v 0.002808735 0.001759171 0.01676255
v -0.002764836 0.005472004 0.01685029
v -0.001859769 0.006822795 -0.002625346
v -0.002790093 0.006823838 -0.002623737
v 6.303191e-06 0.005713373 0.005703032
v 0.002764955 -0.001231462 -0.0167371
v 0.002764672 0.001532435 -0.0157513
v -0.001877218 0.005247205 -0.01566631
v 0.001848534 0.004117608 -0.006403446
f 1 2 3
f 2 4 3
f 4 2 1
f 5 1 6
f 5 4 1
f 7 8 3
f 8 7 9
f 8 1 3
f 8 9 1
f 10 11 9
f 1 11 6
f 9 11 1
f 7 12 9
f 12 10 9
f 13 5 6
f 14 13 6
f 5 13 4
f 4 13 3
f 13 7 3
f 13 14 7
f 15 14 6
f 11 15 6
f 15 11 10
f 16 15 10
f 15 16 14
f 12 16 10
f 14 16 7
f 16 12 7
