v -0.003101721 -0.006416708 -0.01025051
v -0.004593879 0.004168063 -0.01179926
v 0.00570333 0.004372388 -0.009502098
v 0.005704165 -0.004759818 -0.007045537
v 0.00077793 0.006418139 -0.01042777
v -0.005593285 0.0008358657 0.01083115
v -0.005704165 -0.001231015 -0.01129179
v 0.0004837215 -0.006418139 0.0005537421
v -0.003440604 -0.004881591 0.0001366735
v -0.003250748 -0.002467543 0.01179925
v 0.0005254447 -0.004220665 0.0117777
v 0.001868218 -0.006275922 -0.007114828
v -0.005691707 0.001708001 -0.0006107688
v -0.005678192 -0.001324952 -0.0004007369
v 0.003462598 -0.005858213 0.0008060783
f 1 2 3
f 4 1 3
f 2 5 3
f 5 6 3
f 6 5 2
f 1 7 2
f 8 9 1
f 6 9 10
f 11 4 3
f 9 11 10
f 11 9 8
f 6 11 3
f 11 6 10
f 4 12 1
f 12 8 1
f 13 6 2
f 7 13 2
f 14 9 6
f 13 14 6
f 14 13 7
f 14 7 1
f 9 14 1
f 15 12 4
f 12 15 8
f 11 15 4
f 15 11 8
