v -0.003878355 0.0130313 -0.01800153
v -0.002360836 0.01146233 -0.01925015
v -0.003701434 0.001384616 -0.01929069
v -0.003876835 0.01305437 0.01801769
v 0.000577867 -0.01305437 2.265722e-05
v -0.002327755 0.01149425 0.01929069
v -0.002834395 -0.01121378 -0.01478099
v -0.0030718 0.01293597 -0.01859133
v -0.002448842 0.01212698 0.01913934
v -0.003070101 0.01295993 0.01860785
v 0.001383185 0.01232171 -0.009771474
v 0.002288252 0.01083326 -0.01012851
v 0.002132654 0.01147056 -0.01004969
v 0.003878355 0.0106172 8.784235e-06
v -0.001350135 -0.001262516 -0.01457684
v -0.001011699 -0.01283938 -0.0101149
v 0.001820207 0.01190028 -0.009930752
v -0.002465427 0.01210034 -0.01911088
v -0.002705649 0.01254824 0.01891156
v 0.001819745 0.01191249 0.009946741
v 0.002287507 0.01084504 0.0101456
v 0.001382098 0.01233423 0.0097863
v -0.002713576 0.01252678 -0.01888946
v 0.002131075 0.01148322 0.01006626
v 0.002916753 0.01211429 7.711351e-06
v 0.003378764 0.01168886 8.024275e-06
v 0.003709778 0.01125735 8.068979e-06
f 1 2 3
f 4 5 6
f 4 7 5
f 7 4 3
f 4 1 3
f 8 2 1
f 9 10 6
f 10 4 6
f 8 10 11
f 4 10 1
f 10 8 1
f 12 13 14
f 12 15 2
f 15 7 3
f 2 15 3
f 7 16 5
f 16 14 5
f 16 12 14
f 15 16 7
f 16 15 12
f 17 8 11
f 8 18 2
f 18 12 2
f 18 13 12
f 19 10 9
f 20 19 9
f 19 20 10
f 5 21 6
f 14 21 5
f 10 22 11
f 20 22 10
f 17 23 8
f 23 18 8
f 23 17 13
f 18 23 13
f 24 20 9
f 24 9 6
f 21 24 6
f 22 25 11
f 25 17 11
f 25 26 17
f 26 25 20
f 25 22 20
f 27 26 20
f 24 27 20
f 13 27 14
f 27 21 14
f 27 24 21
f 17 27 13
f 26 27 17
