v 0.002603903 0.0184263 -0.02166992
v -0.002362117 -0.02071971 -0.02171594
v -0.003308192 0.02071977 -0.02091467
v 0.002695099 -0.0182206 0.02090991
v 0.002670959 0.007174194 0.02071226
v -0.003538623 -0.01678455 0.02171594
v 0.003149286 -0.008143187 -0.0215303
v 0.002994224 -0.01979607 0.01260689
v -0.004173651 -0.01560825 0.02086675
v 0.002368912 -0.01907748 0.02095902
v -0.0008469373 0.01970792 -0.017335
v -0.003477708 -0.002643108 -0.02070501
v -0.004160538 0.01817644 -0.01985931
v -0.002719328 0.008287787 0.02140895
v 0.003124163 0.01717788 -0.006092906
v -0.003605142 0.006569088 0.01969543
v -0.002428576 0.009966969 0.01859495
v 2.808869e-05 0.01707661 -0.00355041
v 0.003612176 -0.01726049 0.009745061
v 0.004040852 -0.009753644 -0.009675384
v 0.004173651 -0.01019579 0.0004222691
v 0.003623053 -0.008114576 -0.01791173
v 0.003670111 0.002773285 0.01877451
v 0.004172519 0.01149362 0.003926873
v -0.0004811138 0.01886314 -0.01214334
v 0.003975168 0.01352459 0.003934562
v 0.003810897 0.01479721 -0.008922487
v 0.003395602 0.006838143 0.01969606
f 1 2 3
f 4 5 6
f 2 7 8
f 1 7 2
f 6 9 2
f 4 10 8
f 10 4 6
f 10 2 8
f 10 6 2
f 11 1 3
f 9 12 2
f 12 9 13
f 2 12 3
f 12 13 3
f 5 14 6
f 14 9 6
f 11 15 1
f 9 16 13
f 14 16 9
f 13 17 3
f 17 18 3
f 16 17 13
f 17 16 14
f 17 14 5
f 19 20 21
f 19 4 8
f 7 19 8
f 20 19 7
f 22 7 1
f 22 20 7
f 23 19 21
f 19 23 4
f 20 24 21
f 24 23 21
f 25 11 3
f 25 15 11
f 18 25 3
f 15 25 18
f 26 17 5
f 26 15 18
f 17 26 18
f 22 27 20
f 27 24 20
f 27 22 1
f 27 26 24
f 15 27 1
f 26 27 15
f 24 28 23
f 26 28 24
f 28 26 5
f 4 28 5
f 23 28 4
