v 0.001013458 -0.01342192 -0.02631731
v 0.001013845 -0.02632219 -0.01341236
v 0.0009831488 -0.02089363 -0.02088651
v 0.00101316 0.02052012 0.02051261
v -0.0001770854 -0.02585566 -0.01316632
v 0.0008965433 0.004541457 0.02865919
v 0.0007620752 -0.004537553 0.02866161
v 0.0002494752 -0.004339933 0.02746846
v 0.0005914271 -0.0131723 0.02585903
v 0.0004028678 -0.02051696 0.02052429
v -9.387732e-05 -0.01965073 0.01967189
v 4.521012e-05 0.004537493 -0.02866162
v -8.98242e-05 -0.004541487 -0.02865935
v -0.0004371703 0.004354328 -0.02745339
v -0.0007016063 -0.01847559 0.009441212
v -0.0002745986 -0.02476424 0.01263672
v -0.0002354383 0.003284633 0.02021049
v -0.0001835227 0.009273559 0.01818104
v -0.0009993315 -0.009244055 -0.01815179
v -0.0001766682 -0.01317555 -0.02585106
v 0.0005920529 0.02585372 -0.013181
v 0.000403583 0.02051699 -0.02052437
v 0.000761658 0.02866045 -0.004547089
v 0.0008965135 0.02866077 0.004531384
v -0.0001549423 0.01443392 0.01452574
v -0.0004321933 0.0185045 -0.009412065
v 8.669496e-05 0.0247789 -0.01262146
v -9.381771e-05 0.01966533 -0.0196574
v 0.0009827614 0.01317549 0.02585153
v 8.708239e-05 -0.01261255 0.02478343
v -9.036064e-05 -0.0286606 -0.004530787
v 4.473329e-05 -0.02866077 0.004547328
v -0.0005665421 -0.02745295 -0.004333168
v 0.0002146959 -0.02585384 0.01318172
v 0.0002150536 0.01317164 -0.02585893
v -0.001013845 -0.01440501 -0.01449645
v -0.0006785691 -0.01965323 -0.01964623
v -0.0004371405 -0.02745277 0.004364565
v -0.0008921623 -0.021263 -0.003289491
v -0.0006502271 -0.02476549 -0.01260731
v -0.0005662441 -0.004343688 -0.02745122
v -0.0002069473 -0.02051994 -0.02051194
v -0.0009329617 -0.003254712 -0.0201807
v -0.0002741814 0.01262775 -0.02476843
v -0.000665009 0.00984028 -0.01914717
v 0.0004900098 0.01966801 0.01966058
v 0.0004612803 0.01263022 0.02477562
v -0.0003886223 -0.009812921 0.01917514
v -0.0008088946 -0.02059439 0.003471509
v -0.0006491542 -0.01261631 -0.02476059
v -0.0005502701 0.01491889 -0.01463458
v 0.0003783405 0.02746713 0.00434868
v 0.0009834766 0.02585602 0.01316641
v 0.0003786981 0.004358143 0.02746621
v -0.0005576015 -0.0148907 0.01466317
v -0.0009753108 -0.01832438 -0.009595215
v -0.0008196831 0.003013283 -0.02047372
v 0.000249505 0.02746704 -0.004349709
v 0.0004615784 0.02478036 0.01262206
v -0.0001445413 0.01835284 0.009623811
v -0.0002997816 -0.002984405 0.02050272
v -0.0001609325 0.02129 0.00331755
v -0.0002995729 0.02062276 -0.003443092
f 1 2 3
f 2 1 4
f 2 5 3
f 2 6 7
f 6 8 7
f 9 2 7
f 2 9 10
f 8 9 7
f 10 9 11
f 12 1 13
f 14 12 13
f 15 16 11
f 16 10 11
f 17 18 19
f 15 17 19
f 1 20 13
f 20 1 3
f 21 1 22
f 21 23 1
f 23 24 1
f 18 25 19
f 26 27 28
f 21 27 23
f 28 27 22
f 27 21 22
f 29 2 4
f 29 6 2
f 9 30 11
f 30 9 8
f 31 32 33
f 32 31 2
f 31 5 2
f 34 2 10
f 34 32 2
f 16 34 10
f 34 16 32
f 35 12 14
f 35 28 22
f 1 35 22
f 12 35 1
f 36 15 19
f 37 36 19
f 38 16 15
f 38 39 33
f 32 38 33
f 16 38 32
f 40 37 5
f 40 31 33
f 31 40 5
f 39 40 33
f 40 36 37
f 41 14 13
f 20 41 13
f 5 42 3
f 37 42 5
f 42 20 3
f 42 37 20
f 25 43 19
f 43 25 26
f 43 41 19
f 41 43 14
f 44 45 28
f 45 44 14
f 35 44 28
f 44 35 14
f 46 25 18
f 46 29 4
f 46 47 29
f 47 46 18
f 30 48 11
f 48 30 8
f 36 49 15
f 49 38 15
f 38 49 39
f 50 37 19
f 41 50 19
f 37 50 20
f 50 41 20
f 51 43 26
f 51 26 28
f 45 51 28
f 52 24 23
f 1 53 4
f 24 53 1
f 29 54 6
f 47 54 29
f 6 54 8
f 54 17 8
f 17 54 18
f 54 47 18
f 55 17 15
f 55 15 11
f 48 55 11
f 49 56 39
f 56 49 36
f 56 40 39
f 40 56 36
f 57 51 45
f 51 57 43
f 57 45 14
f 43 57 14
f 27 58 23
f 58 52 23
f 58 27 26
f 59 60 25
f 46 59 25
f 59 46 4
f 53 59 4
f 52 59 24
f 59 53 24
f 55 61 17
f 61 55 48
f 17 61 8
f 61 48 8
f 58 62 52
f 59 62 60
f 62 59 52
f 63 58 26
f 63 62 58
f 62 63 60
f 25 63 26
f 60 63 25
