v 0.002868354 -0.01306567 -0.0004913211
v -0.002818823 -0.01373899 0.02452499
v 0.0004672408 -0.01312801 -0.01150256
v -0.003328919 0.01283514 0.0158307
v 0.002539933 0.01366697 -0.02689141
v -0.003061533 0.01279157 -0.01011705
v -0.002628207 -0.01198566 0.001130342
v -0.00352639 -0.01202396 0.01471835
v 0.003541529 0.013739 0.01531559
v 0.001302183 0.01254156 0.01807547
v 0.003516138 0.01268589 -0.02620077
v 0.003752589 -0.01286995 0.02488291
v 0.003779173 0.01193026 0.01532167
v 0.002663195 0.0130109 -0.02747178
v 0.001425922 -0.01236615 -0.01060444
v -0.003296554 -0.01012066 0.0245164
v 0.002867043 -0.01297922 0.02747178
v -0.002918541 -0.006393299 0.02480125
v 0.003779233 0.01184338 -0.01264209
v -0.003779471 0.0008197576 0.01613021
v 0.003779471 -0.01287559 0.0220055
v 0.001081049 0.005705178 0.02145058
v -0.003614843 0.008205667 0.01842415
v 0.000320673 -0.00566563 0.02556157
f 1 2 3
f 4 5 6
f 7 6 3
f 2 7 3
f 8 7 2
f 7 8 6
f 9 4 10
f 4 9 5
f 9 11 5
f 9 12 13
f 14 11 3
f 11 14 5
f 6 14 3
f 5 14 6
f 15 1 3
f 11 15 3
f 15 11 1
f 16 8 2
f 1 17 2
f 17 16 2
f 16 17 18
f 17 12 9
f 19 9 13
f 9 19 11
f 16 20 8
f 8 20 6
f 21 17 1
f 17 21 12
f 11 21 1
f 19 21 11
f 12 21 13
f 21 19 13
f 22 9 10
f 22 17 9
f 23 20 16
f 23 16 18
f 23 4 6
f 20 23 6
f 22 23 18
f 4 23 10
f 23 22 10
f 17 24 18
f 24 22 18
f 22 24 17
