v 0.009802449 -0.0494426 0.006704569
v -0.008585442 -0.05026558 -0.01016974
v 0.01882107 -0.04828468 -0.01842988
v 0.03320293 -0.03576302 0.03205162
v 0.00676398 -0.03480504 0.05583757
v 0.03302656 0.03694243 0.02702916
v 0.007623971 0.02720047 0.0562526
v 0.0147116 0.02198439 0.05366695
v -0.003289383 0.0269587 0.04895794
v -0.006803151 0.05026558 0.005612373
v 0.01927233 -0.003112257 0.05625504
v 0.03141072 -0.01602945 -0.04937446
v -0.001187459 -0.0285345 -0.04728866
v 0.0005240627 -0.003048718 -0.0562551
v 0.02703641 -0.03369174 -0.03953135
v -0.01920266 0.01320718 -0.04038227
v -0.02774291 0.003861263 -0.03366947
v -0.01666405 -0.02272581 0.04895806
v -0.01343707 -0.0329726 0.04921836
v -0.02564229 0.02932724 -0.01871192
v -0.0007694177 0.03682456 -0.03991282
v 0.02958384 0.004501045 0.04589051
v 0.01165782 0.04628369 0.01361108
v 0.01870455 0.04882367 -0.005656362
v 0.02514953 0.04330087 -0.0245707
v 0.03101369 0.02777953 -0.04276633
v 0.03320435 0.004247822 -0.05162668
v 0.02336182 -0.04054395 -0.02939641
v 0.02863794 -0.0277655 -0.04206276
v -0.01514194 -0.0148776 -0.0435065
v 0.0009867474 0.02147209 -0.05095947
v -0.01787461 0.02321474 0.03106809
v -0.03167884 0.00817249 0.007306814
v -0.02374264 0.03542359 -0.0003906488
v -0.02981487 -0.009719864 0.01558208
v -0.004617725 -0.04509594 -0.02962208
v -0.03046742 0.01297668 -0.02080333
v 0.02990567 -0.01616369 0.04372633
v 0.02951846 0.02328912 0.03959644
v 0.02930244 0.0325809 -0.03637445
v -0.002505552 0.04772723 -0.0225203
v 0.03242127 0.01637207 -0.04676628
v 0.03218512 -0.009582497 -0.04933286
v -0.02225554 -0.03674306 -0.001363635
v -0.01097999 -0.04880172 0.008355379
v -0.03320435 -0.005765304 -0.0132432
v -0.01705852 -0.02746506 0.04428226
v -0.02747191 -0.02597219 0.007778406
v -0.02917236 -0.02395234 -0.01441586
v -0.02737274 -0.02339058 -0.02489972
v 0.03276803 -0.002713248 -0.05003965
v -0.02521632 -0.03155889 -0.0002752542
v -0.02316665 -0.0153632 -0.03512812
v -0.02043757 -0.02823511 -0.02825987
f 1 2 3
f 4 1 3
f 1 4 5
f 6 7 8
f 9 7 10
f 7 11 8
f 11 7 5
f 12 13 14
f 15 13 12
f 16 14 17
f 18 7 9
f 5 18 19
f 7 18 5
f 20 16 17
f 16 20 21
f 6 22 4
f 11 22 8
f 23 24 10
f 24 23 6
f 7 23 10
f 23 7 6
f 25 24 6
f 21 25 26
f 27 12 14
f 27 6 4
f 28 4 3
f 15 28 3
f 28 15 4
f 29 12 4
f 15 29 4
f 29 15 12
f 14 30 17
f 13 30 14
f 16 31 14
f 31 16 21
f 31 21 26
f 27 31 26
f 31 27 14
f 32 18 9
f 18 32 33
f 32 34 33
f 32 9 10
f 34 32 10
f 35 18 33
f 2 36 3
f 36 15 3
f 36 13 15
f 37 20 17
f 34 37 33
f 37 34 20
f 22 38 4
f 38 22 11
f 4 38 5
f 38 11 5
f 39 6 8
f 22 39 8
f 39 22 6
f 40 6 26
f 25 40 26
f 40 25 6
f 41 25 21
f 25 41 24
f 24 41 10
f 20 41 21
f 41 34 10
f 34 41 20
f 6 42 26
f 42 27 26
f 27 42 6
f 12 43 4
f 27 43 12
f 44 45 19
f 45 44 2
f 1 45 2
f 45 5 19
f 45 1 5
f 46 35 33
f 37 46 33
f 46 37 17
f 18 47 19
f 35 47 18
f 48 46 49
f 46 48 35
f 48 47 35
f 48 44 19
f 47 48 19
f 50 36 2
f 50 46 17
f 46 50 49
f 44 50 2
f 50 44 49
f 51 27 4
f 43 51 4
f 51 43 27
f 44 52 49
f 52 48 49
f 48 52 44
f 30 53 17
f 53 50 17
f 53 30 13
f 54 53 13
f 53 54 50
f 36 54 13
f 50 54 36
