v -0.04722154 -0.01622629 -0.01066357
v -0.04800022 -4.446507e-05 0.05634701
v -0.04689163 0.02819848 -0.03904933
v -0.01211166 -0.04077494 -0.04541028
v -0.03130776 -0.04141265 -0.02597457
v -0.00563091 -0.05353475 0.0563485
v 0.02959812 -0.04299814 0.05634904
v -0.04197007 -0.02924573 0.05634898
v 0.01678288 -0.05045396 0.05634809
v -0.04121602 0.0207845 0.05634695
v 0.004097462 0.04287231 0.05634862
v -0.003756523 0.05353475 -0.02701068
v -0.02036238 0.038652 0.05634308
v 0.03537273 0.02721423 0.05634266
v 0.04514879 0.01108992 0.05634391
v 0.04800022 -0.009477437 0.05634469
v 0.04594117 0.007974625 -0.01965266
v 0.04777861 -0.01128918 -0.01703918
v 0.0409019 -0.03078747 0.0563457
v -0.04049772 -0.03138793 -0.01885933
v -0.04737377 -0.01453924 0.05634767
v -0.008238196 -0.04916012 -0.03300977
v -0.02911723 -0.04410303 0.05634815
v 0.04172242 0.002182603 -0.03686827
v 0.04261714 -0.01523918 -0.03478295
v -0.01392627 0.05192727 -0.03854889
v -0.0249663 0.04749244 -0.04095036
v -0.03963983 0.03747058 -0.04115319
v 0.02308464 0.03671956 0.05634367
v 0.03193951 0.03044981 -0.02026302
v -0.0177812 -0.05021805 -0.01983744
v 0.04053682 0.01962554 -0.02254498
v 0.04206622 -0.02763951 -0.02345055
v 0.002334893 -0.03999507 -0.04872441
v 0.01578856 -0.05048484 -0.02147979
v 0.02645278 -0.04204839 -0.0319466
v 0.03081989 -0.004417777 -0.05106282
v 0.02652919 0.01855153 -0.0472396
v 0.001154661 -0.05342746 -0.01909751
v 0.03454375 0.02229339 -0.03492773
v 0.03138995 -0.04196358 -0.01505077
v 0.0003644228 0.008639276 -0.05634904
v 0.01667869 0.01440519 -0.05343056
v 0.01896787 -0.01300955 -0.05626351
v -0.01914257 0.006494403 -0.05371583
v 0.0322156 -0.02338201 -0.04508442
f 1 2 3
f 4 5 3
f 6 7 8
f 7 6 9
f 2 10 3
f 10 2 8
f 11 12 13
f 10 11 13
f 14 11 15
f 7 11 8
f 11 10 8
f 16 17 15
f 17 16 18
f 11 16 15
f 16 11 7
f 16 19 18
f 19 16 7
f 1 20 8
f 5 20 3
f 20 1 3
f 2 21 8
f 21 1 8
f 1 21 2
f 4 22 5
f 23 6 8
f 20 23 8
f 23 20 5
f 24 17 18
f 25 24 18
f 12 26 13
f 26 27 13
f 28 10 13
f 27 28 13
f 10 28 3
f 29 11 14
f 11 29 12
f 30 29 14
f 29 30 12
f 22 31 5
f 31 23 5
f 23 31 6
f 32 30 14
f 32 14 15
f 17 32 15
f 24 32 17
f 19 33 18
f 33 25 18
f 34 22 4
f 22 34 35
f 34 36 35
f 37 24 25
f 24 37 38
f 39 22 35
f 39 31 22
f 31 39 6
f 9 39 35
f 6 39 9
f 40 24 38
f 40 32 24
f 32 40 30
f 30 40 12
f 26 40 38
f 40 26 12
f 41 19 7
f 41 33 19
f 33 41 36
f 36 41 35
f 41 9 35
f 41 7 9
f 42 43 44
f 37 43 38
f 43 37 44
f 43 26 38
f 26 43 27
f 43 42 27
f 45 28 27
f 42 45 27
f 28 45 3
f 45 4 3
f 45 34 4
f 45 42 44
f 34 45 44
f 46 37 25
f 37 46 44
f 33 46 25
f 46 33 36
f 34 46 36
f 46 34 44
