v -0.0005034357 0.004621524 0.008186996
v -0.0005036145 -0.00479361 -0.00818646
v -0.0005023181 -0.004615791 0.008188158
v -0.0005036294 0.00479361 -0.008188188
v 0.0003325194 0.004655227 -0.007563293
v 0.0003326982 -0.00465453 -0.007559896
v 0.0005030036 0.004619362 -0.006701678
v 0.0005036294 -0.004618093 -0.006700158
v 0.0004283488 -0.004636768 -0.007279187
v 0.0004277229 0.004636865 -0.007281035
f 1 2 3
f 2 1 4
f 5 2 4
f 5 6 2
f 7 1 3
f 8 7 3
f 1 7 4
f 7 5 4
f 9 6 5
f 9 8 3
f 2 9 3
f 6 9 2
f 7 10 5
f 10 9 5
f 10 7 8
f 9 10 8
