v -0.002699405 0.006135464 -0.0165377
v -0.002813607 -0.005753815 -0.01061046
v -0.002831817 0.006943405 0.01318023
v -0.001919329 -0.006943345 -0.002048522
v 0.002743036 -0.002606988 -0.01006302
v 0.00277856 -0.001199424 0.01540878
v -0.002765208 -0.003599763 0.0165377
v -0.001880199 -0.005120575 0.01319122
v -0.002835006 -0.006926179 -0.00204742
v 0.002792448 -1.686811e-05 -0.01323885
v 0.001917899 0.002044737 -0.01315293
v 0.002835006 0.001766324 0.01307112
v -0.001657277 0.00666821 -0.01419002
v -0.001656353 0.006406069 0.01203352
v 0.00180307 -0.004014432 0.004627645
v 0.002825171 0.001307189 0.01428229
v -0.002693623 0.006942451 -0.014853
f 1 2 3
f 4 2 5
f 6 7 8
f 7 6 3
f 4 9 2
f 2 9 3
f 9 7 3
f 7 9 8
f 9 4 8
f 10 11 12
f 10 6 5
f 6 10 12
f 2 10 5
f 10 2 1
f 11 10 1
f 13 11 1
f 14 13 3
f 13 14 12
f 11 13 12
f 4 15 8
f 15 6 8
f 15 4 5
f 6 15 5
f 6 16 3
f 16 6 12
f 16 14 3
f 14 16 12
f 17 1 3
f 13 17 3
f 17 13 1
