v 0.0005419627 -0.004618481 0.0371854
v -6.09383e-05 -0.004523382 -0.03861848
v -6.117299e-05 0.004555896 -0.03861684
v -0.0005419627 0.004793704 0.03861845
v -0.0005411021 0.004634753 -0.03740919
v -0.0005418323 -0.004793704 0.03861669
v 0.000326369 -0.004655004 0.03803602
v 0.0005410686 0.004618898 0.0371874
v -0.0005406216 -0.004602686 -0.03741136
v 0.0004362203 0.004636884 0.03776115
v 0.0004369356 -0.004636526 0.0377593
v 0.0003259517 0.004654735 0.03803769
f 1 2 3
f 4 5 6
f 2 5 3
f 7 4 6
f 7 2 1
f 8 1 3
f 5 9 6
f 9 5 2
f 9 7 6
f 7 9 2
f 8 10 1
f 10 5 4
f 5 10 3
f 10 8 3
f 11 7 1
f 10 11 1
f 7 12 4
f 12 10 4
f 11 12 7
f 12 11 10
