v 0.001627266 -0.02134499 0.03069907
v -0.003495157 -0.002575099 0.02486348
v -0.0006478429 -0.01836327 -0.02005559
v -0.003426939 -0.006932229 -0.02087206
v -0.002878368 0.01367891 -0.03120971
v 0.001505017 -0.02009463 0.03139746
v 0.004046172 0.01324058 -0.03048515
v 0.002374202 -0.007326156 -0.02354175
v -0.00338459 0.01954958 0.01530945
v -0.002970725 0.01851574 0.01764423
v 0.002837479 0.02134502 0.01715302
v -0.004031986 -0.002621114 -0.003656387
v 0.0002292693 -0.01803339 -0.02003205
v 0.004027605 0.01777542 0.01750624
v 0.003127635 -0.01071176 0.02723986
v 0.003208727 0.01569104 -0.0313974
v -0.0005118549 0.0211741 0.009127915
v 0.001439542 -0.01308912 -0.02163506
v 0.002520382 -0.0203377 0.02953553
v 0.003055245 -0.01041311 0.02810693
v 0.002133846 0.02015248 -0.01844245
v 0.001986325 0.02111268 -0.01296115
v -0.004037797 0.01917824 -0.009869754
v -1.436472e-05 0.02129784 -0.004630029
v -0.003911674 0.01510674 -0.01817584
v -0.003674001 0.0006859601 0.02275139
v 0.003956109 0.01807356 0.01837111
v -0.001325786 0.01834881 -0.01951867
v -0.003987491 0.01999605 0.0005326271
v -0.004046142 0.01954979 -0.006130397
f 1 2 3
f 4 5 3
f 2 4 3
f 6 2 1
f 7 8 3
f 9 10 11
f 10 6 11
f 6 10 2
f 12 4 2
f 13 1 3
f 14 15 7
f 5 16 3
f 16 7 3
f 17 9 11
f 8 18 3
f 18 13 3
f 19 8 7
f 15 19 7
f 19 18 8
f 19 6 1
f 13 19 1
f 18 19 13
f 19 20 6
f 20 19 15
f 21 16 5
f 16 21 22
f 21 23 22
f 23 24 22
f 22 24 11
f 24 17 11
f 4 25 5
f 25 23 5
f 12 25 4
f 23 25 12
f 26 12 2
f 10 26 2
f 26 10 9
f 27 15 14
f 27 20 15
f 27 22 11
f 6 27 11
f 20 27 6
f 27 14 7
f 16 27 7
f 27 16 22
f 23 28 5
f 28 21 5
f 21 28 23
f 26 29 12
f 29 26 9
f 17 29 9
f 24 29 17
f 30 23 12
f 29 30 12
f 30 24 23
f 30 29 24
