v 0.0009294748 0.01022556 0.01461142
v -0.0009302199 -0.0102244 0.0154804
v 0.0009302199 -0.009830832 0.01487392
v 0.0009301901 0.009830624 -0.01547921
v 1.746416e-05 0.01022571 0.01460981
v 1.817942e-05 0.009830505 -0.01548034
v 1.880527e-05 -0.01022506 -0.01521754
v -0.0008936226 -0.009878427 0.01122421
v 0.0009301603 -0.01022574 -0.01521677
v -0.0008940101 -0.000713557 0.01475388
f 1 2 3
f 4 1 3
f 5 2 1
f 5 4 6
f 4 5 1
f 7 8 6
f 8 7 2
f 9 7 6
f 4 9 6
f 9 4 3
f 2 9 3
f 7 9 2
f 10 5 6
f 5 10 2
f 8 10 6
f 10 8 2
