v 0.002814531 0.01482086 -0.02874368
v -0.003309429 0.01376453 0.01641619
v 0.003544569 0.01471969 0.01582122
v 0.001089811 0.01359685 0.01957303
v 0.003797531 0.01395774 -0.02829731
v 0.0007826686 -0.01482084 -0.01117259
v 0.003796995 0.0129119 0.0158155
v 0.00294733 -0.01209784 0.02874362
v -0.002776086 -0.01288632 0.02587545
v 0.002566576 -0.01207066 0.0007618666
v 0.003787041 -0.0119653 0.02325326
v 0.003797054 -0.0119718 0.02614242
v -0.002035618 0.01288992 0.01810074
v -0.00362289 0.003575683 0.02158737
v 0.001936495 0.00758937 0.02211446
v -0.002829552 -0.008292407 0.02704251
v -0.00229907 0.01156908 -0.007710338
v -0.00274837 0.006228462 -0.004195094
v -0.003797531 0.002645284 0.01668912
v 0.0001336336 -0.01293224 -0.01001048
v 0.001095653 -0.002022743 0.02597791
v 0.0001208782 0.004795223 0.02347994
v -0.002873182 -0.01109397 0.002257824
v -0.00306654 -0.01291953 0.02385664
v -0.003026783 -0.003658116 0.0007537603
v -0.003630817 -0.01113446 0.0160777
f 1 2 3
f 2 4 3
f 1 5 6
f 5 1 3
f 7 5 3
f 8 9 6
f 8 7 3
f 10 11 6
f 5 10 6
f 10 5 11
f 11 12 6
f 12 8 6
f 8 12 7
f 5 12 11
f 12 5 7
f 2 13 4
f 14 13 2
f 4 15 3
f 15 8 3
f 8 16 9
f 17 2 1
f 17 18 2
f 19 14 2
f 18 19 2
f 17 20 18
f 20 1 6
f 20 17 1
f 15 21 8
f 21 16 8
f 16 22 14
f 13 22 4
f 22 13 14
f 21 22 16
f 22 15 4
f 22 21 15
f 20 23 18
f 23 20 6
f 9 24 6
f 24 23 6
f 16 24 9
f 24 16 14
f 25 19 18
f 23 25 18
f 25 26 19
f 26 25 23
f 24 26 23
f 19 26 14
f 26 24 14
