v -0.00278303 -0.002472639 0.02423579
v -0.002478123 -0.0009016544 -0.02437675
v -0.002808273 -0.003604561 -0.02177864
v -0.001957119 0.003733173 -0.009565055
v 0.002287805 0.001577556 0.02716994
v 0.001381487 -0.006079346 0.02229792
v 0.002617359 0.00419952 0.02127844
v 0.0007829964 0.003447562 -0.01816177
v 0.002808273 0.005121559 -0.01263332
v 0.001413107 0.0008795708 -0.02619708
v 0.002137661 -0.0007608831 -0.02716988
v 0.001478463 -0.006080255 -0.0186879
v 0.001946896 0.00608024 0.01161999
v -0.00197491 0.004013628 0.01217568
v 0.0001037121 0.005934104 0.007067204
v 0.000572592 -0.005971149 -0.01868951
v 0.0004749596 -0.005970478 0.0222953
v 0.0009993911 0.005422786 -0.00935185
v -0.002331316 0.001271561 0.02337992
v 0.0004765689 0.001794308 0.02716541
f 1 2 3
f 2 1 4
f 5 6 7
f 8 9 10
f 2 8 10
f 8 2 4
f 9 11 10
f 11 12 3
f 11 9 7
f 2 11 3
f 11 2 10
f 6 11 7
f 11 6 12
f 9 13 7
f 14 15 4
f 14 13 15
f 12 16 3
f 17 1 3
f 17 6 1
f 16 17 3
f 6 17 12
f 17 16 12
f 18 8 4
f 8 18 9
f 15 18 4
f 18 13 9
f 13 18 15
f 1 19 4
f 19 14 4
f 20 19 1
f 20 6 5
f 6 20 1
f 20 5 7
f 13 20 7
f 14 20 13
f 19 20 14
