v 0.004692525 0.01882088 -0.0336498
v -0.0007730126 0.01873773 -0.03367412
v 0.005198479 0.01883298 0.03418446
v 0.0002012849 0.01850319 0.03374898
v 0.0004847944 -0.0003818274 -0.03418446
v -0.00519821 0.01133728 -0.03296119
v -0.004753619 -0.01215547 0.02751932
v -0.004817128 -0.008581281 0.03035727
v 0.001724273 -0.01778495 0.00364694
v 0.0006794631 -0.01084059 -0.01805127
v 0.004952699 -0.01444829 -0.01108363
v 0.004738837 -0.002875268 -0.03198302
v -0.005198479 0.0113616 -0.03386682
v -0.0007231832 0.01708651 0.0282934
v 0.004988968 -0.01721537 -0.0001609027
v 0.005118191 -0.01883298 0.01535666
v 0.0007842183 -0.01577419 0.03016174
v 0.005198509 -0.01695383 0.0290446
v 0.0005379319 -0.003212869 -0.030615
v -0.004470646 0.0001480579 -0.0250808
v -0.004193574 -0.01102328 0.001525372
v -0.004660875 0.005325317 -0.03126296
v -0.004767329 -0.01131761 0.0302847
v 0.001737356 -0.01819861 0.01914263
v 0.005198389 -0.008718193 -0.02620709
v -0.004183531 -0.009112954 -0.0064165
v 0.005071431 -0.01804364 0.02294031
f 1 2 3
f 2 4 3
f 1 5 2
f 6 4 2
f 6 7 8
f 9 10 11
f 12 5 1
f 5 13 2
f 13 6 2
f 13 7 6
f 4 14 8
f 14 6 8
f 6 14 4
f 15 9 11
f 15 16 9
f 17 18 3
f 5 19 20
f 19 10 20
f 7 21 9
f 22 5 20
f 13 22 20
f 22 13 5
f 7 23 8
f 17 23 7
f 23 4 8
f 4 23 3
f 23 17 3
f 17 24 18
f 16 24 9
f 24 7 9
f 24 17 7
f 19 25 10
f 10 25 11
f 12 25 5
f 25 19 5
f 25 12 1
f 25 1 3
f 18 25 3
f 16 25 18
f 25 15 11
f 15 25 16
f 26 10 9
f 21 26 9
f 10 26 20
f 26 21 7
f 26 13 20
f 13 26 7
f 27 16 18
f 24 27 18
f 27 24 16
