v -0.002908468 -0.01667458 0.007313251
v -0.003213167 -0.013928 0.006484568
v -0.003201962 -0.01466668 -0.0160355
v 0.001730561 -0.01569903 0.02018481
v 0.002581179 0.0169251 0.01827896
v 0.001723051 0.01721522 0.01895076
v 0.001721382 -0.01724786 0.01973349
v 0.003577113 0.01720166 -0.01929498
v 0.0001165271 0.01376021 -0.01984853
v -0.003052056 0.01543531 -0.01868278
v -0.002701759 -0.01649067 -0.01723039
v 0.0007659197 -0.004305452 -0.01998985
v 0.002380311 -0.01546898 -0.01809084
v -0.003239691 -0.00370416 -0.01882958
v 0.002583265 -0.01681685 0.01887339
v 0.003702879 -0.01673394 0.00669235
v 0.003720701 -0.01490816 0.006706536
v 0.003368556 0.01701662 0.005247593
v 0.003192544 0.01173881 -0.02018476
v 0.003720999 -0.01656345 -0.01582152
v -0.003720999 -6.186962e-05 -0.01762229
v 0.003720522 0.01717809 -0.01641327
v -0.003241003 0.01707616 0.005873322
v -0.003220022 0.01724783 -0.01664126
v -0.00341171 0.01436323 0.002971351
f 1 2 3
f 4 5 6
f 4 1 7
f 4 2 1
f 8 9 10
f 11 12 13
f 11 1 3
f 1 11 7
f 9 14 10
f 12 14 9
f 11 14 12
f 14 11 3
f 4 15 5
f 15 16 17
f 5 15 17
f 16 15 7
f 15 4 7
f 5 18 6
f 18 5 17
f 19 12 9
f 8 19 9
f 12 19 13
f 16 20 17
f 20 11 13
f 19 20 13
f 20 19 8
f 20 16 7
f 11 20 7
f 14 21 10
f 2 21 3
f 21 14 3
f 22 8 6
f 18 22 6
f 22 18 17
f 20 22 17
f 22 20 8
f 23 4 6
f 4 23 2
f 21 24 10
f 24 8 10
f 8 24 6
f 24 23 6
f 25 21 2
f 23 25 2
f 25 24 21
f 24 25 23
