v -0.0472216 -0.01622623 -0.01066348
v -0.04800028 -4.440546e-05 0.05634692
v -0.04689163 0.02819848 -0.03904936
v -0.01211172 -0.04077494 -0.04541031
v -0.03130788 -0.04141259 -0.02597454
v -0.00563091 -0.05353475 0.05634847
v 0.02959824 -0.04299808 0.05634907
v -0.04197007 -0.02924562 0.05634901
v 0.01678294 -0.05045384 0.05634806
v -0.04121608 0.02078462 0.05634686
v 0.004097402 0.04287231 0.05634865
v -0.003756464 0.05353475 -0.02701077
v -0.02036232 0.03865206 0.05634299
v 0.03537267 0.02721435 0.05634269
v 0.04514885 0.01109004 0.05634394
v 0.04800028 -0.009477437 0.05634472
v 0.04594117 0.007974625 -0.01965269
v 0.04777867 -0.01128918 -0.01703927
v 0.04090208 -0.03078735 0.05634573
v -0.04049778 -0.03138787 -0.01885936
v -0.04737383 -0.01453912 0.05634764
v -0.008238137 -0.04916006 -0.0330098
v -0.02911729 -0.04410291 0.05634806
v 0.04172248 0.002182722 -0.0368683
v 0.04261714 -0.01523906 -0.03478298
v -0.01392621 0.05192721 -0.03854898
v -0.02496618 0.04749238 -0.04095045
v -0.03963989 0.0374707 -0.04115322
v 0.02308458 0.03671968 0.05634364
v 0.03193957 0.03044987 -0.02026305
v -0.01778126 -0.05021793 -0.01983741
v 0.04053682 0.01962566 -0.02254501
v 0.04206634 -0.02763951 -0.02345064
v 0.002334893 -0.03999519 -0.0487245
v 0.01578861 -0.0504849 -0.0214797
v 0.02645284 -0.04204834 -0.03194663
v 0.03081989 -0.004417777 -0.05106285
v 0.02652913 0.01855147 -0.04723963
v 0.001154721 -0.0534274 -0.01909748
v 0.03454381 0.02229351 -0.03492782
v 0.03139001 -0.04196358 -0.0150508
v 0.000364542 0.008639216 -0.05634907
v 0.01667869 0.01440513 -0.05343071
v 0.01896793 -0.01300961 -0.0562636
v -0.01914245 0.006494522 -0.05371591
v 0.03221565 -0.02338219 -0.04508451
f 1 2 3
f 4 5 3
f 6 7 8
f 7 6 9
f 2 10 3
f 10 2 8
f 11 12 13
f 10 11 13
f 14 11 15
f 7 11 8
f 11 10 8
f 16 17 15
f 17 16 18
f 11 16 15
f 16 11 7
f 16 19 18
f 19 16 7
f 1 20 8
f 5 20 3
f 20 1 3
f 2 21 8
f 21 1 8
f 1 21 2
f 4 22 5
f 23 6 8
f 20 23 8
f 23 20 5
f 24 17 18
f 25 24 18
f 12 26 13
f 26 27 13
f 28 10 13
f 27 28 13
f 10 28 3
f 29 11 14
f 11 29 12
f 30 29 14
f 29 30 12
f 22 31 5
f 31 23 5
f 23 31 6
f 32 30 14
f 32 14 15
f 17 32 15
f 24 32 17
f 19 33 18
f 33 25 18
f 34 22 4
f 22 34 35
f 34 36 35
f 37 24 25
f 24 37 38
f 39 22 35
f 39 31 22
f 31 39 6
f 9 39 35
f 6 39 9
f 40 24 38
f 40 32 24
f 32 40 30
f 30 40 12
f 26 40 38
f 40 26 12
f 41 19 7
f 41 33 19
f 33 41 36
f 36 41 35
f 41 9 35
f 41 7 9
f 42 43 44
f 37 43 38
f 43 37 44
f 43 26 38
f 26 43 27
f 43 42 27
f 45 28 27
f 42 45 27
f 28 45 3
f 45 4 3
f 45 34 4
f 45 42 44
f 34 45 44
f 46 37 25
f 37 46 44
f 33 46 25
f 46 33 36
f 34 46 36
f 46 34 44
