v 0.0007938743 0.02062213 0.02651945
v -0.00263837 -0.01387864 0.03079912
v 0.004020125 -0.01429081 0.03067264
v 0.004043639 -0.01696855 -0.02624932
v 0.004110426 -0.01398349 -0.02570149
v 0.001759768 -0.02138305 -0.008359522
v 0.002791792 -0.01941097 -0.02456307
v 0.003252745 0.01102507 0.02756456
v 0.001661718 0.02026415 0.0264644
v 0.001772195 0.02138847 -0.03001347
v 0.004107952 -0.00853765 0.02995938
v 0.003605992 0.009321213 -0.0285669
v 0.003088444 -0.01697135 0.03010389
v 0.0006466508 -0.02135515 0.002143055
v 0.0002036095 -0.01958126 0.01787952
v -0.00318855 0.006543875 0.02828905
v -0.00387311 0.007143259 0.02361426
v -0.004110396 -0.01964021 -0.001690805
v -0.003651142 0.002710581 -0.02386424
v -0.003586948 -0.01886404 -0.01658174
v 0.001245439 -0.0206784 -0.01883173
v 0.00264582 0.02038479 -0.02898431
v 0.00259763 0.02016014 -0.03079912
v 0.003582746 0.009210169 -0.02947265
v -0.002871513 -0.01453936 -0.02636689
v -0.002894104 -0.01730591 -0.02510473
v -0.003095746 0.006859183 -0.02808604
v -0.003495216 0.008342266 0.02622542
v -0.003582448 -0.01717126 0.01829925
v -0.0009768307 -0.02138847 -0.007493615
f 1 2 3
f 4 5 3
f 4 6 7
f 8 9 1
f 9 10 1
f 5 11 3
f 11 1 3
f 11 8 1
f 12 11 5
f 11 12 8
f 13 4 3
f 13 6 4
f 6 13 14
f 13 15 14
f 2 13 3
f 15 13 2
f 1 16 2
f 16 17 2
f 15 18 14
f 18 17 19
f 20 18 19
f 6 21 7
f 12 22 8
f 22 9 8
f 10 22 23
f 9 22 10
f 4 24 5
f 24 12 5
f 24 25 23
f 25 24 4
f 22 24 23
f 24 22 12
f 26 4 7
f 26 25 4
f 21 26 7
f 26 21 20
f 26 20 19
f 25 26 19
f 27 10 23
f 25 27 23
f 27 25 19
f 17 27 19
f 27 17 10
f 28 16 1
f 16 28 17
f 10 28 1
f 17 28 10
f 29 15 2
f 29 18 15
f 17 29 2
f 18 29 17
f 30 6 14
f 18 30 14
f 30 21 6
f 30 18 20
f 21 30 20
