v 0.0005419664 -0.004618511 0.03718552
v -6.09234e-05 -0.004523396 -0.03861845
v -6.115809e-05 0.004555896 -0.03861669
v -0.0005419664 0.004793689 0.03861856
v -0.0005411096 0.004634768 -0.03740907
v -0.0005418397 -0.004793733 0.03861669
v 0.0003263727 -0.004655018 0.03803614
v 0.0005410686 0.004618913 0.03718755
v -0.000540629 -0.004602686 -0.03741121
v 0.000436224 0.004636854 0.03776127
v 0.0004369356 -0.004636526 0.03775939
v 0.0003259517 0.004654735 0.03803769
f 1 2 3
f 4 5 6
f 2 5 3
f 7 4 6
f 7 2 1
f 8 1 3
f 5 9 6
f 9 5 2
f 9 7 6
f 7 9 2
f 8 10 1
f 10 5 4
f 5 10 3
f 10 8 3
f 11 7 1
f 10 11 1
f 7 12 4
f 12 10 4
f 11 12 7
f 12 11 10
