v -0.003153443 -0.02066207 0.02029896
v -0.0003941655 -0.01815152 -0.0142405
v 0.00347878 -0.02047133 0.02346843
v 0.0037404 0.01764148 0.01537624
v 0.003138512 0.01835155 -0.008843184
v 0.0009903759 0.02066201 -0.02354127
v -0.003173321 0.01737338 0.01306891
v 0.00292024 -0.01138616 0.02409124
v 0.002573669 0.01637471 0.01783794
v 0.003754511 -0.02019775 0.01972795
v 0.001940817 0.01922441 -0.0226602
v 0.0008905828 0.003865004 0.02149248
v -0.003111079 0.01627016 0.01588038
v -0.00375396 0.003174543 0.01932752
v -0.003488064 0.01788741 0.005297929
v -0.003245622 -0.009801626 0.02219611
v 0.003774837 0.01712704 0.009564072
v 0.001026571 0.0201273 -0.02409124
v 0.001947373 -0.01869154 -0.003861189
v 0.0003954619 0.01179481 0.01942986
v -0.003410861 -0.0163753 -0.001722097
v -0.001784652 -0.01970851 0.02149272
v 0.0004739761 -0.01809061 -0.01393014
v -0.003769234 0.01788765 -0.008275628
v -0.003774852 -0.01047403 0.01810563
v -0.003685266 -0.004561901 -0.001575291
f 1 2 3
f 4 5 6
f 7 4 6
f 4 8 3
f 8 4 9
f 2 10 3
f 10 4 3
f 5 11 6
f 12 8 9
f 13 7 14
f 4 13 9
f 13 4 7
f 15 7 6
f 7 15 14
f 16 12 14
f 12 16 8
f 8 16 3
f 4 17 5
f 17 10 5
f 10 17 4
f 11 18 6
f 19 10 2
f 10 19 5
f 19 11 5
f 12 20 14
f 20 13 14
f 20 12 9
f 13 20 9
f 1 21 2
f 22 1 3
f 16 22 3
f 22 16 1
f 18 23 2
f 23 18 11
f 23 19 2
f 19 23 11
f 15 24 14
f 24 15 6
f 18 24 6
f 24 18 2
f 21 24 2
f 24 25 14
f 25 21 1
f 25 16 14
f 16 25 1
f 26 24 21
f 25 26 21
f 26 25 24
