v 0.001117736 -0.01829794 0.03168994
v 0.004628569 0.0156188 0.03139442
v -0.002048254 0.01473492 0.03197247
v -0.001458287 -0.01233175 0.03191346
v 0.004256576 -0.01389083 0.03141868
v -0.00275749 -0.0106225 0.02549869
v 0.003663987 -0.01719221 0.03146851
v -0.00171876 -0.01717567 -0.03052723
v 0.004141435 -0.01459107 -0.03197247
v 0.004782975 -0.01336563 -0.03015488
v 0.003579676 0.005405426 -0.03191829
v 0.0002730787 0.01606318 -0.008535385
v -0.002740383 0.01559088 0.0282976
v -0.003705204 0.006443948 0.01812637
v -0.004668638 0.01559776 0.006092072
v -0.004443392 -0.01061809 0.006064951
v -0.004655242 0.01511425 -0.007891953
v -0.004883945 0.01097107 -0.007872105
v -0.004556984 -0.01146811 0.0004844069
v -0.003214329 0.002451181 -0.03132927
v -0.002505928 0.007822752 -0.03138894
v 0.004822999 -0.003525347 0.03137225
v 0.00481461 -0.01129332 -0.03109401
v 0.001555771 0.009017915 -0.02941531
v -0.002056062 -0.0142431 -0.03143418
v -0.00400728 0.007931799 -0.02473086
v 0.003741831 0.005403161 -0.03005981
v 0.004883945 0.01269045 0.03137106
v 0.000124976 0.01111385 -0.02514154
v -0.001859784 0.01803812 0.02729213
v 0.001311392 0.01829794 0.02438784
v -0.00420928 -0.01487613 -0.01259321
v -0.004427373 0.01681754 0.003272474
v -0.003589526 -0.01742798 -0.01823926
v 0.0004812181 0.01761547 0.001765788
v -0.003219873 -0.01828584 -0.01827121
v -0.0004187822 0.01819637 0.004457355
v -0.002078891 0.01760995 0.003751159
f 1 2 3
f 4 1 3
f 5 2 1
f 6 4 3
f 7 5 1
f 7 8 9
f 10 7 9
f 7 10 5
f 11 12 2
f 13 6 3
f 14 15 16
f 6 14 16
f 14 13 15
f 13 14 6
f 17 18 15
f 15 19 16
f 18 19 15
f 20 11 9
f 11 20 21
f 5 22 2
f 10 22 5
f 23 22 10
f 11 23 9
f 23 10 9
f 24 11 21
f 24 12 11
f 8 25 9
f 25 20 9
f 26 17 21
f 20 26 21
f 17 26 18
f 27 11 2
f 27 23 11
f 22 28 2
f 23 28 22
f 28 27 2
f 27 28 23
f 29 24 21
f 24 29 12
f 17 29 21
f 29 17 12
f 13 30 15
f 30 13 3
f 2 30 3
f 31 30 2
f 32 26 20
f 32 19 18
f 26 32 18
f 19 32 16
f 33 17 15
f 30 33 15
f 25 34 20
f 34 32 20
f 34 25 8
f 12 35 2
f 35 31 2
f 36 34 8
f 36 7 1
f 7 36 8
f 4 36 1
f 6 36 4
f 36 6 16
f 32 36 16
f 34 36 32
f 37 33 30
f 37 30 31
f 35 37 31
f 37 35 12
f 17 37 12
f 33 38 17
f 38 37 17
f 37 38 33
