v 0.002387047 -0.01491307 0.01670074
v 0.002387047 0.01405723 -0.04095605
v 0.002387047 0.01464916 0.0409264
v 0.0007092655 0.01491307 -0.03853774
v -0.0004533231 -0.004810579 -0.04095888
v 0.001737043 -0.01481152 -0.01410422
v -0.0008079708 -0.004870176 -0.04088053
v 0.001888648 -0.01481797 -0.007876575
v -0.002307788 -0.005135894 -0.03853977
v -0.001135305 -0.005320005 0.01702675
v -0.002387032 0.005127102 -0.03850433
v 0.001986682 -0.01489443 0.001060337
v -0.0007095337 0.004863851 0.04095888
v -0.0005274564 0.004847974 -0.04092488
v 0.002275452 -0.01487875 0.01047269
v -0.001105621 -0.004921623 -0.04067242
v -0.00181067 0.005040817 -0.03998178
v -0.001180887 0.004946552 -0.04063788
v 0.001227453 0.01464332 -0.04001439
v -0.001733214 -0.005030446 -0.04001698
v 0.0002059639 -0.01023949 0.0183439
v -0.0008826703 0.004901595 -0.04084641
v 0.002065033 0.01421877 -0.0408777
v 0.001795039 0.01435464 -0.04066911
f 1 2 3
f 2 4 3
f 5 6 7
f 6 5 2
f 8 6 2
f 9 10 11
f 12 6 1
f 10 13 11
f 4 13 3
f 13 4 11
f 13 1 3
f 5 14 2
f 6 15 1
f 8 15 6
f 1 15 2
f 15 8 2
f 16 17 18
f 6 16 7
f 4 19 11
f 19 17 11
f 17 20 11
f 20 9 11
f 16 20 17
f 9 20 6
f 20 16 6
f 9 21 10
f 21 12 1
f 21 9 6
f 12 21 6
f 13 21 1
f 21 13 10
f 14 22 2
f 16 22 7
f 22 16 18
f 22 5 7
f 22 14 5
f 22 23 2
f 23 4 2
f 23 19 4
f 17 24 18
f 19 24 17
f 23 24 19
f 24 22 18
f 24 23 22
