v -0.004725292 -0.003287047 0.03824419
v 0.004273549 -0.01906909 0.02873164
v 0.00182429 0.01906912 0.0390622
v 0.004908159 0.01575373 -0.02132022
v 0.0009941012 0.0104553 -0.03906202
v -0.004908085 0.005261183 -0.01974702
v 0.004009053 0.01487722 0.005137563
v 0.004885152 -0.01532704 0.02038914
v 0.001559108 -0.004124269 -0.008967221
v 0.003438547 -0.007744536 0.0006796718
f 1 2 3
f 4 5 3
f 5 6 3
f 6 1 3
f 1 6 2
f 7 4 3
f 7 8 4
f 2 8 3
f 8 7 3
f 9 6 5
f 6 9 2
f 4 10 5
f 8 10 4
f 10 9 5
f 10 8 2
f 9 10 2
