v 0.005049884 -0.007541865 0.04151243
v 0.005049765 0.01226571 -0.04517108
v 0.005049884 0.0131222 0.04517108
v 0.005000919 -0.0131222 0.0207724
v 0.0005764067 -0.005968153 0.04255998
v -0.004997492 -0.0006074905 0.0425474
v 0.001471609 0.01239887 -0.04403943
v -0.004936665 0.01226631 -0.03676766
v -0.004889965 0.009526014 -0.03494251
v 0.004948169 -0.01276949 0.0003908277
v 0.004923373 -0.01105371 -0.007800937
v -0.005049914 0.002126426 0.04255128
v -0.0006850362 0.01224732 0.04258126
v 0.00171411 -0.004033387 -0.02490938
v 0.00490427 -0.006146044 -0.02102143
v 0.004902154 0.001325727 -0.03318077
v 0.00158754 0.005094379 -0.03766847
v 0.001645982 -0.01140279 0.02886957
v 0.0007871389 -0.01231769 0.01975602
v -0.004770517 -0.007868111 0.01973987
v -0.004950702 0.01226211 -0.03311157
v -0.004800498 0.003132612 -0.0267424
v -0.003868908 -0.005902112 -0.002812982
v 0.0006257296 -0.007787675 0.03889674
v 0.001778781 -0.01227203 -0.001219928
v -0.004872262 -0.005146414 0.03249681
f 1 2 3
f 4 2 1
f 5 1 3
f 6 5 3
f 2 7 3
f 7 8 3
f 8 7 9
f 10 11 2
f 4 10 2
f 12 6 3
f 13 12 3
f 14 15 11
f 16 15 14
f 11 15 2
f 15 16 2
f 17 16 14
f 7 17 9
f 17 7 2
f 16 17 2
f 18 4 1
f 18 19 4
f 19 18 20
f 12 21 8
f 21 12 13
f 8 21 3
f 21 13 3
f 22 23 20
f 22 8 9
f 17 22 9
f 22 17 14
f 5 24 1
f 24 18 1
f 24 5 6
f 25 10 4
f 19 25 4
f 10 25 11
f 23 25 20
f 25 19 20
f 25 14 11
f 25 22 14
f 22 25 23
f 18 26 20
f 24 26 18
f 26 24 6
f 12 26 6
f 26 12 8
f 22 26 8
f 26 22 20
