v 0.003301471 0.007029653 -0.009625673
v -0.003301412 -0.007093489 -0.008601606
v -0.003300458 0.005667359 -0.008962572
v -0.003301442 0.006604582 -0.008077979
v -0.00330022 0.007093459 0.009240031
v -0.0005626678 0.007066965 0.008325219
v -0.002388239 -0.006578714 0.009625614
v -0.001476616 -0.006179124 -0.008628845
v -0.003301412 -0.00657919 0.009624898
v 0.003082126 0.005769849 -0.005315959
v 0.003082871 0.003868133 -0.008000076
f 1 2 3
f 4 1 3
f 4 5 1
f 2 4 3
f 6 5 7
f 5 6 1
f 2 8 7
f 8 2 1
f 5 9 7
f 9 2 7
f 4 9 5
f 9 4 2
f 10 6 7
f 6 10 1
f 11 8 1
f 10 11 1
f 8 11 7
f 11 10 7
