v 0.002387047 -0.01491307 0.01670077
v 0.002387032 0.01405723 -0.04095608
v 0.002387062 0.01464918 0.04092637
v 0.0007092506 0.01491307 -0.03853774
v -0.000453338 -0.004810579 -0.04095882
v 0.001737028 -0.01481152 -0.01410428
v -0.0008080006 -0.004870176 -0.04088053
v 0.001888663 -0.01481796 -0.007876605
v -0.002307817 -0.005135886 -0.03853983
v -0.001135334 -0.005319998 0.01702675
v -0.002387062 0.00512711 -0.03850436
v 0.001986668 -0.01489441 0.001060307
v -0.0007095337 0.004863866 0.04095885
v -0.0005274713 0.004847974 -0.04092485
v 0.002275452 -0.01487873 0.01047274
v -0.001105636 -0.004921615 -0.04067245
v -0.001810685 0.005040824 -0.03998181
v -0.001180917 0.004946552 -0.04063791
v 0.001227453 0.01464333 -0.04001433
v -0.001733243 -0.005030446 -0.04001692
v 0.0002059639 -0.01023949 0.0183439
v -0.0008827001 0.004901595 -0.04084644
v 0.002065003 0.01421878 -0.0408777
v 0.001795009 0.01435464 -0.04066911
f 1 2 3
f 2 4 3
f 5 6 7
f 6 5 2
f 8 6 2
f 9 10 11
f 12 6 1
f 10 13 11
f 4 13 3
f 13 4 11
f 13 1 3
f 5 14 2
f 6 15 1
f 8 15 6
f 1 15 2
f 15 8 2
f 16 17 18
f 6 16 7
f 4 19 11
f 19 17 11
f 17 20 11
f 20 9 11
f 16 20 17
f 9 20 6
f 20 16 6
f 9 21 10
f 21 12 1
f 21 9 6
f 12 21 6
f 13 21 1
f 21 13 10
f 14 22 2
f 16 22 7
f 22 16 18
f 22 5 7
f 22 14 5
f 22 23 2
f 23 4 2
f 23 19 4
f 17 24 18
f 19 24 17
f 23 24 19
f 24 22 18
f 24 23 22
