v -0.002667457 -0.02733165 0.01749319
v -0.002458334 0.03113115 -0.03188699
v -0.002841741 -0.03111166 -0.03660515
v 0.002841294 -0.028965 -0.03387961
v 0.002836645 -0.03113115 0.03447434
v -0.001718521 -0.03111553 0.03623855
v 0.002841741 0.02686244 -0.03011772
v -0.002584666 -0.03064424 0.03660515
v -0.002413303 -0.01115412 0.03053716
v -0.002486497 -0.02277941 0.03497502
v -0.002323031 0.0141834 0.01071259
v -0.002320826 0.02426517 -0.005182683
v 0.002841622 -0.02930641 0.03453195
v 0.0001672506 -0.006550014 0.02640998
v -0.002376676 0.001060545 0.02319744
v -0.0005947053 0.01190287 0.011944
v -0.002362669 0.02971447 -0.02185696
v 0.002066404 0.02109778 -0.00126484
v 0.002557278 -0.007060349 0.02391952
v 0.002542973 0.001860857 0.01757845
v 0.001823187 0.002758563 0.01820505
v 0.002667159 0.01797324 -0.001671851
v 0.002088845 0.02916706 -0.0256415
v -0.002332777 0.0283345 -0.01724747
f 1 2 3
f 4 5 3
f 5 6 3
f 2 7 3
f 7 4 3
f 1 8 2
f 9 8 10
f 8 6 5
f 8 1 3
f 6 8 3
f 11 12 2
f 4 13 5
f 7 13 4
f 9 13 14
f 13 9 10
f 8 13 10
f 13 8 5
f 15 11 2
f 8 15 2
f 15 8 9
f 15 9 14
f 11 15 16
f 12 17 2
f 18 11 16
f 18 12 11
f 13 19 14
f 19 13 20
f 21 15 14
f 19 21 14
f 21 19 20
f 15 21 16
f 21 18 16
f 18 21 20
f 18 22 7
f 22 18 20
f 22 13 7
f 13 22 20
f 23 18 7
f 23 7 2
f 17 23 2
f 18 24 12
f 23 24 18
f 24 17 12
f 24 23 17
