v -0.0005672872 -0.0123843 0.03514498
v 0.004575551 -0.01179314 0.03243685
v 0.0006887019 0.01915114 0.004190624
v 0.004591674 -0.01196505 -0.03147817
v 0.003121197 -0.01569109 -0.03384459
v 0.002843946 0.00855878 0.01209432
v -0.003866971 0.006474718 0.01425517
v -0.003369421 0.007738099 0.01547772
v -0.004291594 0.005322292 -0.008927882
v 0.0006808937 0.01897471 -0.008774459
v -0.0002923906 -0.01441002 -0.03514498
v 0.001421809 -0.01748832 -0.02855474
v -0.002751112 -0.01809318 -0.01940721
v 0.002823442 0.008415908 -0.01502687
v -0.003728539 0.001752123 -0.01908141
v -0.003952742 -0.01616201 -0.01819319
v -0.004591703 -0.01772258 -0.001321435
v -0.003206104 -0.01915114 0.007756054
v -0.004405469 -0.01721676 0.008974016
v -0.004333705 0.002789557 0.007342637
v -0.002090186 -0.01150495 -0.0333128
v -0.002968788 -0.01371279 -0.0293045
v -0.00309521 -0.006590307 -0.02707654
v 0.00138849 0.01721849 -0.004451573
v -0.003425926 -0.01468918 0.0236811
v -0.002311677 -0.01184173 0.0325653
v -0.002554297 -0.005036861 0.02835649
v 0.0004730225 -0.01915011 -0.007597268
v -0.00350827 0.007272765 -0.01808304
v -0.002497405 -0.01731464 0.02056539
v -0.002082437 -0.01887342 -0.01615268
v -0.001064569 -0.01364771 0.03392321
v 0.001190513 -0.01789917 0.02375525
v 0.003401637 -0.01475562 0.03324932
f 1 2 3
f 4 2 5
f 2 6 3
f 4 6 2
f 7 8 3
f 9 7 3
f 10 9 3
f 11 4 5
f 12 11 5
f 11 12 13
f 11 10 4
f 14 6 4
f 10 14 4
f 9 15 16
f 17 9 16
f 17 18 19
f 13 17 16
f 20 19 7
f 9 20 7
f 20 17 19
f 17 20 9
f 11 21 10
f 22 13 16
f 22 11 13
f 22 21 11
f 21 22 23
f 15 22 16
f 22 15 23
f 6 24 3
f 14 24 6
f 24 10 3
f 24 14 10
f 19 25 7
f 25 26 7
f 27 8 7
f 26 27 7
f 27 26 1
f 27 1 3
f 8 27 3
f 28 12 5
f 29 9 10
f 29 15 9
f 21 29 10
f 15 29 23
f 29 21 23
f 18 30 19
f 30 25 19
f 31 28 18
f 31 17 13
f 17 31 18
f 12 31 13
f 28 31 12
f 25 32 26
f 30 32 25
f 26 32 1
f 28 33 18
f 33 30 18
f 33 32 30
f 33 34 32
f 34 2 1
f 32 34 1
f 2 34 5
f 34 28 5
f 34 33 28
