v 0.002322361 0.006501436 -0.01578796
v -0.002322987 0.006500691 -0.008356273
v 0.002322972 0.006501436 -0.004640162
v 0.002323002 -0.005571902 0.01578796
v 0.002322957 1.788139e-07 -0.01114124
v 0.001392335 0.006500393 -0.004641175
v 0.002322748 0.002785951 -0.01392943
v 0.001393497 -0.006501436 -0.001851976
v 0.001392812 -0.006500602 0.01578677
v -0.001391798 -0.005571723 0.01114333
v -0.001391724 -0.006500691 0.001852989
v -0.002322212 -0.003714085 -0.001852453
v 0.001394436 -0.005572528 0.0157879
v -0.002322733 0.006498575 -0.01299959
v -0.0004625618 2.384186e-07 -0.009282708
f 1 2 3
f 4 5 3
f 2 6 3
f 7 1 3
f 5 7 3
f 8 5 4
f 9 10 11
f 8 9 11
f 9 8 4
f 10 12 11
f 12 10 2
f 12 8 11
f 10 13 2
f 13 6 2
f 13 9 4
f 9 13 10
f 13 4 3
f 6 13 3
f 14 2 1
f 7 14 1
f 14 12 2
f 15 7 5
f 15 14 7
f 14 15 12
f 8 15 5
f 12 15 8
