v 0.002289757 -0.004497647 -0.02187377
v 0.002289742 0.006602347 -0.02628702
v 0.002289727 0.00659734 0.02367043
v 0.001372978 -0.006602526 -0.0137018
v -0.002288505 -0.001206636 -0.02348548
v 0.001372889 0.006598234 0.02367067
v -0.002289101 0.002087355 -0.02509862
v 0.002204552 -0.0006750822 0.02628696
v 0.002289042 -0.00443089 0.0198949
v -0.000456214 0.004953027 -0.0254783
v -0.002288967 0.003726006 0.02405429
v -0.002288267 -0.003942728 0.0104804
v -0.002289459 -0.00462532 -0.005493462
v 0.002000481 -0.006255984 0.0009144545
v 0.001372799 -0.004430115 0.01989484
v 0.001373649 0.006602466 -0.02628648
v -0.002288848 -0.003742576 -0.01408428
v -0.002289757 0.001661539 0.02608776
f 1 2 3
f 1 4 5
f 2 6 3
f 7 1 5
f 1 7 2
f 8 9 3
f 9 1 3
f 10 7 11
f 12 13 4
f 13 7 5
f 1 14 4
f 9 14 1
f 14 12 4
f 15 9 8
f 14 15 12
f 15 14 9
f 6 16 11
f 16 10 11
f 16 6 2
f 7 16 2
f 10 16 7
f 4 17 5
f 17 13 5
f 13 17 4
f 7 18 11
f 13 18 7
f 18 13 12
f 15 18 12
f 18 15 8
f 18 6 11
f 18 8 3
f 6 18 3
