v -0.000246942 0.004654594 0.03832784
v -0.0002469867 0.004631579 -0.03712425
v -0.000246942 -0.004654601 0.03832674
v -2.127886e-05 -0.004617974 0.03747845
v 0.0002470016 -0.004526526 -0.03832784
v 0.0002465099 0.004552439 -0.03832626
v -0.000246793 -0.004605785 -0.03712553
v -0.0001339465 0.004636906 0.03805321
v -0.0001336038 -0.004637301 0.03805158
v -2.202392e-05 0.004619159 0.03747988
f 1 2 3
f 4 5 6
f 5 7 6
f 7 2 6
f 2 7 3
f 8 2 1
f 4 9 5
f 7 9 3
f 9 7 5
f 8 9 4
f 9 1 3
f 9 8 1
f 10 4 6
f 10 8 4
f 2 10 6
f 8 10 2
