v -0.03244992 0.07761753 -0.0307455
v -0.0326652 0.0776151 -0.03007472
v -0.03187598 0.07891847 -0.03096326
v -0.03208095 0.0789749 -0.03084347
v -0.03292365 0.0776005 -0.02618892
v -0.03304912 0.07759587 -0.02496752
v -0.02999841 0.0789028 -0.0263299
v -0.03552789 0.07891165 -0.02917514
v -0.03514017 0.07760944 -0.02858126
v -0.03507049 0.07760584 -0.02764903
v -0.03552765 0.07895846 -0.02897361
v -0.03607856 0.07760835 -0.02825387
v -0.0358042 0.07861318 -0.02524273
v -0.03359403 0.07759804 -0.0255372
v -0.03379625 0.07781278 -0.02946895
v -0.0333687 0.07761519 -0.03011132
v -0.03408754 0.07780996 -0.02875307
v -0.03360285 0.0776069 -0.0278858
v -0.03243469 0.07760838 -0.02827429
v -0.03276813 0.07760537 -0.02751264
v -0.03398609 0.07889842 -0.02562607
v -0.03181225 0.07891907 -0.0311599
v -0.0355297 0.07891384 -0.02978733
v -0.03427221 0.07781121 -0.02905616
v -0.03423791 0.0788994 -0.02575108
v -0.03368956 0.07008737 -0.02270395
v -0.03358215 0.07009234 -0.0240855
v -0.03681283 0.07009307 -0.02421018
v -0.03052461 0.07890099 -0.02632661
v -0.03071268 0.0776096 -0.02862051
v -0.03011815 0.07731853 -0.03097507
v -0.02886881 0.07145341 -0.02829764
v -0.03342092 0.07142919 -0.02400048
v -0.0343213 0.0788963 -0.02503188
v -0.03301315 0.07009213 -0.02395905
v -0.03328099 0.07009186 -0.02386681
v -0.03320957 0.07146813 -0.03221649
v -0.03181506 0.0700892 -0.02406557
v -0.03713131 0.07145181 -0.02786836
v -0.02854557 0.07009497 -0.02499382
v -0.02759749 0.07010993 -0.02870982
v -0.03001035 0.07760845 -0.02837176
v -0.03039546 0.07890134 -0.02642781
v -0.03064479 0.07760531 -0.02747292
v -0.00501515 -0.06193038 -0.004208699
v -0.005020134 -0.06177245 -0.004265957
v -0.004952088 -0.0617512 -0.004201226
v -0.004030228 -0.0620815 -0.005206369
v -0.004026197 -0.06224955 -0.005146932
v -0.003962174 -0.06206016 -0.005141757
v -0.00105679 -0.06408411 -0.01366705
v -0.01270353 -0.0641097 -0.01406943
v -0.004015937 -0.06291075 -0.01596451
v -0.01275582 -0.06245143 -0.01453816
v -0.008243449 -0.0534882 -0.0053217
v -0.009415768 -0.05617438 -0.01349878
v -0.009365037 -0.05570382 -0.004055683
v -0.005341709 -0.05628804 -0.01384467
v -0.006851569 -0.05903327 -0.01419104
v -0.002720833 -0.05841476 -0.01230796
v -0.002310768 -0.05482389 -0.009170443
v -0.01288784 -0.05719944 -0.008608755
v -0.006851569 -0.05553488 -0.003541686
v -0.001447812 -0.057041 -0.008126538
v 0.0005390048 -0.0522421 -0.007573832
v -0.002587259 -0.0525208 -0.003380258
v 0.0001566261 -0.05408378 -0.01365166
v -0.0008449703 -0.0679637 -0.00869485
v 0.00188601 -0.06240171 -0.008851841
v -0.004355088 -0.07005535 -0.0115365
v -0.008388344 -0.07271006 -0.01042244
v -0.01082345 -0.06388549 -0.01294054
v -0.004592359 -0.06410443 -0.01360749
v -0.01269544 -0.06930253 -0.009245042
v -0.01384412 -0.06750669 -0.003778417
v -0.003697932 -0.05394112 -0.01471039
v -0.002602771 -0.05777892 -0.015758
v 0.0007605404 -0.05651148 -0.0113597
v -0.007262543 -0.06583031 0.001324981
v -0.00172507 -0.06657223 -0.0009335391
v -0.005438924 -0.05989969 -0.0008077696
v -0.01160718 -0.06036352 -0.002219774
v -0.01172918 -0.06639254 -0.0003869198
v -0.03258329 0.07142916 -0.02401217
v -0.03290141 0.07012941 -0.02359353
v 0.0001009703 -0.05828853 -0.01245952
v -0.002587393 -0.05394565 -0.002912167
v 0.0004302114 -0.05637767 -0.00599049
v -0.003471687 -0.06032174 -0.01491479
v -0.003472984 -0.05614308 -0.002194021
v -0.0009355694 -0.05954136 -0.002921253
v -0.01039921 -0.05614297 -0.002189256
v -0.01352375 -0.06121699 -0.008021992
v -0.01111026 -0.05949056 -0.002766699
v -0.0007903725 -0.0617223 -0.009560019
v -0.01282502 -0.05916058 -0.0113741
v -0.01318337 -0.0561803 -0.003864907
v -0.01151218 -0.05283903 -0.003265932
v -0.01501758 -0.05529627 -0.01013225
v -0.01285471 -0.05976758 -0.0008376613
v -0.003928244 -0.05925873 0.0007157102
v -0.001208901 -0.05810089 -0.001313359
v -0.01018542 -0.05761813 0.0001747273
v 0.001883268 -0.05975843 -0.006362371
v -0.003030494 -0.06318872 -0.01402383
v -0.01595128 -0.06067933 -0.009144995
v -0.01123048 -0.06264711 -0.01237498
v -0.01143348 -0.05884272 -0.01540317
v -0.01143408 -0.05741823 -0.01587152
v -0.01140542 -0.05145725 -0.003726799
v -0.01394322 -0.0517494 -0.006430861
v -0.009492408 -0.0509727 -0.005674638
v -0.01289748 -0.05246796 -0.01022651
v -0.003145769 -0.05126316 -0.006558627
v -0.001685984 -0.05305892 -0.01202501
v -0.01029538 -0.05394248 -0.01471518
v -0.01090306 -0.05482006 -0.01671759
v -0.01152282 -0.07217894 -0.008839875
v -0.01235371 -0.06984718 -0.00322241
v -0.001646481 -0.07074656 -0.005960878
v -0.006139234 -0.07201792 -0.009804375
v -0.002149001 -0.05992327 -0.005045
v -0.005149715 -0.06113108 -0.002313271
v -0.001712143 -0.06250827 -0.006505545
v -0.02889478 0.07144725 -0.02784134
v -0.007489398 -0.06873748 0.001675643
v -0.002025433 -0.06955075 -0.002308585
v -0.0100667 -0.06887353 -0.0002226047
v -0.003421322 -0.06896345 -0.0005553216
v -0.01097894 -0.06355968 -0.006413266
v -0.008926816 -0.06114586 -0.002358373
v -0.01080615 -0.06153145 -0.003532186
v -0.004891232 -0.06254984 -0.003868647
v -0.01214058 -0.06316774 -0.008512944
v -0.005282834 -0.06428252 -0.01190619
v -0.009385664 -0.06466439 -0.009827729
v -0.00381504 -0.06222657 -0.01205657
v -0.01018513 -0.06222655 -0.01205657
v -0.03710819 0.07144576 -0.02784087
v -0.004880384 -0.06261958 -0.003636103
v -0.01041557 -0.06298908 -0.004728436
v -0.006728724 -0.06963291 -0.00159879
v -0.009788159 -0.06998187 -0.001693565
v -0.03815813 0.07011375 -0.02972779
v -0.01109834 -0.06387464 -0.00742393
v -0.009418253 -0.07114848 -0.00623095
v -0.005955569 -0.06969962 -0.001821525
v -0.004605599 -0.07029489 -0.003613327
v -0.003846347 -0.07036413 -0.003827408
v -0.003120199 -0.06407352 -0.008029636
v -0.009103723 -0.06475569 -0.01010611
v -0.005596034 -0.06488497 -0.0104998
v -0.007278502 -0.07147579 -0.007227425
v -0.006453156 -0.07154154 -0.007420525
v -0.004329681 -0.07113572 -0.006191809
v -0.006621778 -0.07067004 -0.00474593
v -0.006371252 -0.0713817 -0.006934859
v -0.008957345 -0.07001029 -0.002746757
v -0.007000148 -0.07045206 -0.004051313
v -0.004607201 -0.07051736 -0.004291594
v -0.007441819 -0.07056257 -0.004390288
v -0.008947492 -0.0710599 -0.00590165
v -0.008646369 -0.07130411 -0.00668617
v -0.01004894 -0.07041372 -0.003975891
v -0.009277061 -0.07048069 -0.004198123
v -0.00944645 -0.07063644 -0.004653387
v -0.008356515 -0.0697873 -0.002068542
v -0.008198079 -0.06993889 -0.002533369
v -0.006204471 -0.06988372 -0.002324697
v -0.004804552 -0.07097609 -0.005632542
v -0.03581798 0.07860094 -0.03385291
v -0.03436901 0.07012716 -0.03334584
v -0.02956409 0.07859907 -0.03350924
v -0.03069692 0.07012597 -0.03301442
v -0.02760082 0.078603 -0.02682023
v -0.02858918 0.07859495 -0.02470591
v -0.00524535 -0.07107814 -0.005965136
v -0.02267688 -0.04228608 0.04095438
v -0.0269543 -0.04833234 0.04177365
v -0.01831104 -0.0481723 0.04226075
v -0.03007473 -0.04331343 0.03782746
v -0.03275233 -0.05023735 0.03586802
v -0.03446406 0.0785876 -0.02271422
v -0.03279382 -0.04462857 0.03382352
v -0.03146231 -0.04583477 0.02438442
v -0.03172883 -0.05353826 0.0259266
v -0.03282773 -0.05251966 0.02806578
v -0.03007478 -0.04844527 0.02220518
v -0.02410192 -0.05512041 0.02111033
v -0.02488739 -0.04937156 0.01938563
v -0.02343972 -0.04952689 0.04326461
v -0.03090339 -0.05080911 0.03936087
v -0.02710063 -0.05147112 0.04279275
v -0.03296988 -0.05456311 0.03658442
v -0.03325027 -0.05229985 0.034823
v -0.03320457 -0.05652475 0.03061318
v -0.02986712 -0.05575037 0.02431886
v -0.03128432 -0.05683929 0.02645149
v -0.02595102 -0.05903555 0.02297036
v -0.01799171 -0.05903354 0.02297638
v -0.02155983 -0.05670368 0.02141729
v -0.01367448 -0.05642176 0.03268914
v -0.01364272 -0.05595045 0.03412382
v -0.01366915 -0.04202908 0.02795883
v -0.01306342 -0.05539661 0.02539603
v -0.01073395 -0.05547104 0.03061657
v -0.01094036 -0.0520316 0.0356396
v -0.01112355 -0.05351284 0.03657792
v -0.01702196 -0.05145993 0.04282678
v -0.01752281 -0.04978085 0.04249131
v -0.02880311 -0.05465567 0.03806489
v -0.03040391 -0.05624907 0.03321454
v -0.0296293 -0.04069253 0.03202758
v -0.02987481 -0.04269603 0.02592859
v -0.02759147 -0.05814638 0.02743923
v -0.02604218 -0.04409436 0.02167192
v -0.02544081 -0.03939313 0.03598279
v -0.02445602 -0.05368888 0.04100826
v -0.01889623 -0.05861451 0.02601451
v -0.02031249 -0.04436776 0.0208391
v -0.02181446 -0.03917152 0.03665771
v -0.01511002 -0.04327883 0.02415428
v -0.01516574 -0.05770475 0.02878357
v -0.03836244 0.07860249 -0.02672868
v -0.03821015 0.07779214 -0.02372944
v -0.01913332 -0.05371492 0.04092909
v -0.01365335 -0.04155623 0.02939828
v -0.01627976 -0.05427298 0.03922997
v -0.0163831 -0.03983426 0.03463994
v -0.01251745 -0.05706127 0.032825
v -0.01608885 -0.0544742 0.04070018
v -0.02686298 -0.0593605 0.02582569
v -0.03127848 -0.05749523 0.03150395
v -0.02442091 -0.05392364 0.04237604
v -0.01720368 -0.05937823 0.02577177
v -0.03089315 -0.05571323 0.03692865
v -0.03072358 0.07778419 -0.02167872
v -0.02796251 -0.0628318 0.0434549
v -0.03273778 -0.06493715 0.03704647
v -0.03018386 -0.06671357 0.03163849
v -0.03147177 -0.06478428 0.03751209
v -0.02433544 -0.06226633 0.04517622
v -0.0245232 -0.06804883 0.0275743
v -0.01830684 -0.06242054 0.04470773
v -0.01353078 -0.05811055 0.02578644
v -0.02617812 -0.06018727 0.04605845
v -0.01746213 -0.06209706 0.04569176
v -0.03320457 -0.06269031 0.03843899
v -0.03070891 -0.06592073 0.02860491
v -0.02600113 -0.06691991 0.02556375
v -0.0176528 -0.0669028 0.02561554
v -0.01825736 -0.06833635 0.02669899
v -0.0119844 -0.06177863 0.04121428
v -0.01044934 -0.06379317 0.03508183
v -0.01132375 -0.0649038 0.03170076
v -0.0180491 -0.06017958 0.04608186
v -0.03352076 -0.06383178 0.03496426
v -0.01334441 -0.06392524 0.04012722
v -0.01246345 -0.06491505 0.03711337
v -0.01133538 -0.06468789 0.03780527
v -0.01710081 -0.06771431 0.02859228
v -0.01155311 -0.05309771 0.02726745
v -0.01110011 -0.0509798 0.03207637
v -0.01382805 -0.04904385 0.03960812
v -0.01481972 -0.05439273 0.02332572
v -0.02059603 -0.04752346 0.0192439
v -0.01326048 -0.04617637 0.02334493
v -0.01852734 -0.04930841 0.01957764
v -0.01183121 -0.04299831 0.03301853
v -0.01126265 -0.04717816 0.02606235
v -0.01729562 -0.0425963 0.04001014
v -0.01313109 -0.04358319 0.0370062
v -0.02092833 -0.04080757 0.03968741
v -0.02959441 -0.04175564 0.03680165
v -0.04270006 0.06655648 0.01225036
v -0.02476118 0.06658965 0.001494013
v -0.02752732 0.06630722 -0.001751456
v -0.02476317 0.06653333 0.01630811
v -0.02363311 0.06624617 0.01633088
v -0.03591311 0.06623096 0.0204692
v -0.04477995 0.06627768 0.007343635
v -0.02480005 0.0665415 0.01627402
v -0.03119672 0.06659234 0.002739541
v -0.0292917 0.0665459 0.01505856
v -0.04117888 0.06656091 0.01112153
v -0.04120011 0.06659674 0.001524016
v -0.02480006 0.06659665 0.001524031
v -0.05995537 -0.07543936 -0.04178472
v 0.01104534 -0.07202136 -0.03337927
v -0.05678004 -0.07068164 -0.03992225
v 0.01143611 -0.06823812 -0.03259113
v 0.0114326 -0.07300364 -0.03435573
v 0.0127689 -0.07284198 -0.03599777
v 0.002505839 -0.07465847 -0.03957596
v -0.05529206 -0.07673077 -0.04762136
v 0.007226348 -0.07161964 -0.04288977
v 0.01260094 -0.0707581 -0.04026915
v -0.05990035 -0.07713268 -0.04696772
v -0.05682363 -0.07424472 -0.05065496
v 0.06999999 -0.02842699 -0.08849426
v 0.06999977 -0.01349019 -0.0946817
v 0.06999999 0.01916784 0.01020508
v 0.07000002 0.04828732 -0.01510905
v 0.07000002 0.04326084 -0.00743416
v 0.06999999 -0.0550686 -0.04227267
v 0.06999902 -0.05416241 -0.03146814
v 0.07000001 0.03387052 0.001954727
v 0.07000002 -0.002280761 -0.09630897
v 0.0699999 -0.04923574 -0.01668405
v 0.06999987 0.003410199 -0.09624556
v 0.06999992 0.01132435 -0.09516463
v 0.0699999 0.02193172 -0.09176236
v 0.06999993 -0.03886163 -0.002344795
v 0.06999992 0.0273093 -0.08905768
v 0.06999989 -0.03215491 0.003333107
v 0.07000002 0.03323476 -0.08516426
v 0.07000002 -0.01958049 0.01007189
v 0.07000001 0.04147887 -0.07742336
v 0.06999998 -0.01218594 0.01230572
v 0.06999986 0.04844698 -0.06728589
v 0.07000002 0.05160522 -0.06025686
v 0.07000002 0.005263147 0.0133962
v 0.07000001 -0.04509267 -0.0729378
v 0.07000004 -0.0403922 -0.07875454
v 0.07000002 -0.05148293 -0.06085021
v 0.06999999 -0.03296217 -0.08543266
v 0.06999971 0.05444795 -0.04873495
v 0.06999989 0.05483949 -0.03777854
v 0.01186822 0.06699012 -0.06418764
v 0.006301343 0.06694806 -0.06625637
v 0.005040646 0.06753565 -0.06545184
v -0.05856635 0.06767858 -0.07403319
v 0.0155986 0.06691797 -0.06010596
v 0.0172305 0.06705403 -0.05196203
v -0.06146444 0.09005303 -0.06166393
v -0.05978526 0.07060517 -0.07186879
v -0.06116366 0.07946824 -0.06906188
v -0.06039497 0.09132117 -0.05579935
v -0.06156917 0.09222625 -0.05719529
v -0.05837424 0.06843671 -0.07285146
v -0.05954997 -0.07610077 -0.04910997
v -0.06121795 -0.08252919 -0.04484346
v -0.05610097 -0.07421351 -0.05079582
v -0.05809355 -0.07474026 -0.05035895
v 0.01640137 -0.06759472 -0.0306709
v 0.01014425 -0.07135455 -0.04210819
v 0.01555407 -0.06956895 -0.03860021
v -0.01745997 -0.07257108 -0.04740588
v 0.007011421 -0.07149108 -0.04416085
v -0.06153452 -0.09244587 -0.03150038
v -0.06025223 -0.08962149 -0.03501965
v -0.05979663 -0.03175833 0.08174221
v -0.0610904 -0.03343196 0.08453181
v -0.05753393 -0.0309352 0.08096679
v -0.06972361 -0.09070936 -0.03723688
v -0.06989988 -0.09346928 -0.02658514
v -0.06961112 -0.08384366 -0.04484405
v -0.06984002 -0.09359054 -0.03004219
v -0.06913914 -0.06318252 -0.07549654
v -0.0694961 -0.07468847 -0.05300556
v -0.0691697 0.05105557 -0.09178884
v -0.06939418 0.06149213 -0.08042233
v -0.06879614 -0.04307323 -0.09857807
v -0.06876607 0.01949067 -0.1102122
v -0.06871312 -0.03269989 -0.1050258
v -0.06949539 0.06734007 -0.0754657
v -0.06989999 0.09334807 -0.05611985
v -0.039415 0.07546929 -0.03092863
v -0.06867845 0.003807826 -0.1127804
v -0.03189422 0.07542761 -0.02111695
v -0.06865115 -0.0109027 -0.1120681
v -0.06867588 -0.02505742 -0.1083976
v -0.06967455 0.08397386 -0.06770861
v -0.06899442 -0.05699129 -0.08487857
v -0.06901078 0.04178499 -0.09954202
v -0.0688877 -0.0506092 -0.09207132
v -0.06977464 0.09019656 -0.06289179
v -0.06886053 0.02993629 -0.106386
v 0.0357379 0.04922633 -0.06731371
v 0.03754778 0.05236642 -0.05987611
v 0.0384251 0.05424611 -0.0531004
v 0.06500101 -0.007654418 -0.09583598
v 0.01918219 0.03488509 -0.08582975
v 0.00297147 0.02331938 -0.09416533
v -0.01381547 0.02471348 -0.09556583
v 0.03667783 0.05612304 -0.04144034
v 0.0301026 0.04057809 -0.07973747
v 0.03986119 0.0338099 -0.08532681
v 0.0228807 0.01887784 -0.09433855
v 0.02302653 0.0253989 -0.09152529
v 0.04302032 0.02914499 -0.0884194
v 0.001765773 0.01594755 -0.09695563
v 0.02573115 0.007569134 -0.09694684
v 0.0349659 0.04609225 -0.07249951
v 0.00342828 0.006344273 -0.09870929
v -0.01909244 -0.007921961 -0.1011467
v 0.02302371 -0.003854283 -0.0974827
v 0.04015271 -0.009619849 -0.09600247
v -0.02931973 0.0754806 -0.03405029
v -0.03425343 0.07473693 -0.03498184
v -0.02800733 0.07544015 -0.02312744
v -0.02609009 0.07545403 -0.02680827
v -0.03277989 0.02194458 -0.0998414
v -0.02574926 0.03320474 -0.09308602
v -0.01378866 0.01102618 -0.09990501
v -0.02329822 0.008212905 -0.1016973
v -0.01378973 0.001981496 -0.1009094
v -0.05191763 -6.364612e-05 -0.1079357
v -0.04033596 -0.01066435 -0.1043992
v -0.06015505 0.07509738 -0.049428
v -0.009465981 -0.05653389 0.003029626
v -0.0109427 -0.05386311 0.01115955
v -0.03304708 -0.0560985 0.004354507
v -0.02595883 -0.04251057 0.04571759
v -0.02594922 -0.0402986 0.05245095
v -0.01940674 -0.03986581 0.05376867
v -0.01110446 -0.03376419 0.07128403
v -0.02637821 -0.03160358 0.07887603
v -0.003031552 -0.05391362 0.01100598
v 0.006611772 -0.05359949 0.01174968
v -0.03303158 -0.05391362 0.01100598
v -0.01802844 -0.04248314 0.04580148
v 0.0161618 -0.06760406 -0.03066885
v 0.01619984 -0.06760339 -0.0306688
v -0.0394435 -0.05343307 0.01246891
v -0.0362161 0.06938412 -0.02184623
v -0.04098225 -0.05601835 0.004599482
v -0.06045061 -0.08562916 -0.01598761
v -0.06045246 -0.07968044 -0.009790137
v -0.06103015 -0.05492385 0.05782047
v -0.06016601 -0.06907796 -0.01999353
v -0.06016421 -0.07502661 -0.02619091
v -0.06115528 -0.02544772 0.09704283
v -0.06147748 -0.04475461 0.09986812
v -0.06091551 -0.05102419 0.0533898
v -0.06031859 -0.07176857 -0.01154276
v -0.06122109 -0.01775679 0.1097124
v -0.06096764 -0.0544415 0.0537271
v -0.06029803 -0.08293863 -0.0244383
v -0.06042367 -0.09026109 -0.0230389
v -0.06114715 -0.04631109 0.07518387
v -0.06119852 -0.04586349 0.07940719
v -0.06040556 -0.0179076 0.09269834
v -0.06126736 -0.02556361 0.1051501
v -0.06115761 -0.04414839 0.07815859
v -0.06097621 -0.05053175 0.05834106
v -0.06097782 -0.009547632 0.1002334
v -0.06081884 -0.01267643 0.09456681
v -0.06065113 0.02438299 0.1086117
v -0.03212862 0.06943382 -0.03509291
v -0.06045388 0.02081017 0.09431182
v -0.02867377 0.06938674 -0.02253867
v -0.02597876 0.06940823 -0.02827873
v 0.02978876 0.05359064 -0.06232038
v 0.03034529 0.05683933 -0.05041873
v 0.02347158 0.05739923 -0.0621189
v 0.01740336 0.06683722 -0.05192807
v -0.04996373 0.02943601 -0.1005061
v -0.03601117 0.04091102 -0.09047262
v -0.05186536 0.05277507 -0.08535056
v -0.05344161 0.04397977 -0.09262872
v -0.02960773 0.05221867 -0.0817214
v 0.02214678 0.04989751 -0.07306246
v -0.003773332 0.04967406 -0.07968699
v 0.01541913 0.05386942 -0.07264791
v -0.04188615 0.06928 -0.02967446
v -0.03997112 0.06940424 -0.0272301
v 0.02623594 0.05886465 -0.05068079
v -0.04551233 0.01265179 -0.1051463
v -0.05692289 0.02280867 -0.1053001
v -0.05840476 0.01102785 -0.1087553
v -0.05584401 -0.01123944 -0.1080132
v 0.01835412 -0.04975659 -0.06934936
v 0.02041434 -0.05686463 -0.05811954
v -0.05917846 -0.06823538 -0.06158847
v -0.001483262 -0.06061871 -0.06022921
v -0.04341477 -0.06294423 -0.06586945
v -0.05480003 -0.05775883 -0.0771042
v -0.05661412 -0.04808158 -0.08922917
v 0.02619923 -0.04845874 -0.06967933
v -0.03261228 -0.05682747 -0.07127206
v -0.0415728 -0.0422408 -0.08974227
v -0.01865983 -0.04521096 -0.08134754
v 0.02701883 -0.05921278 -0.04052658
v 0.03813093 -0.05562476 -0.04128744
v 0.03831401 -0.05501801 -0.03324002
v 0.02774566 -0.05815822 -0.03216106
v 0.02288283 -0.05983936 -0.04967719
v 0.002879187 -0.04313558 -0.07984397
v 0.03364789 -0.05254912 -0.06007463
v 0.03653543 -0.05487613 -0.05074976
v 0.02306788 -0.06103653 -0.03158492
v 0.01648255 -0.06580519 -0.02603485
v 0.003425717 -0.03855009 -0.08435338
v -0.0615443 -0.09160517 -0.02304694
v -0.05732525 0.06705908 0.06526241
v -0.02905738 0.0673325 -0.008004919
v -0.03393197 0.06731401 -0.003085978
v -0.02586998 0.06730521 -0.0007658303
v -0.02099026 0.06726835 0.009158783
v -0.02455069 0.06723724 0.01745626
v 0.003467962 0.06719401 0.004780777
v -0.0369589 0.06735897 -0.01512992
v -0.044225 0.06728514 0.004623644
v -0.03555566 0.06682739 -0.006650861
v -0.02902462 0.06720889 0.02499279
v -0.0430623 0.06724463 0.01548386
v -0.03694269 0.06718286 0.03199479
v -0.02903159 0.06718351 0.03183321
v -0.03697553 0.06720892 0.0249928
v -0.03596247 0.06722572 0.02055492
v -0.02904124 0.06735899 -0.01512992
v -0.02416135 0.06927314 -0.02639971
v -0.03595174 0.06924786 -0.01959081
v 0.01138749 0.06737931 -0.02693262
v -0.0123138 0.06708843 0.05505961
v -0.03625292 0.06929959 -0.03654291
v -0.0271179 0.06929915 -0.03490283
v 0.02887546 -0.05391851 -0.01878396
v 0.01803206 -0.05492443 -0.007647738
v 0.05437933 -0.04884705 -0.01390342
v 0.03288721 -0.04929385 -0.007128075
v 0.03835572 -0.0536068 -0.02541302
v 0.0134263 -0.05860936 -0.007997368
v 0.03937045 -0.04248891 0.002704598
v 0.05984251 -0.0412983 -0.003171965
v 0.05021612 -0.04359189 -0.003342077
v -0.02415984 0.06754796 -0.02978589
v -0.02539903 0.06840657 -0.02782455
v -0.02992829 0.06757297 -0.03658488
v 0.01073945 -0.04450962 0.02673399
v 0.00357233 -0.04989473 0.02292326
v 0.00346756 -0.04978312 0.02327328
v 0.03886471 -0.04636923 -0.003486425
v 0.03011091 -0.04150977 0.009944811
v 0.02782231 -0.04647302 0.003411748
v 0.01764102 -0.04582658 0.01564385
v 0.04986323 -0.03490904 0.006025806
v -0.06999998 -0.09270417 -0.023413
v -0.07000001 0.05697378 0.09075336
v -0.07000001 0.04067222 0.08157687
v -0.07000002 0.03442051 0.1089511
v -0.06999998 -0.05086304 0.05348456
v -0.06999999 -0.06351653 -0.01649157
v -0.06999999 -0.05501932 0.05438258
v -0.07000002 0.07824523 0.03765447
v -0.07 0.07753729 0.03317969
v -0.07000001 0.06417394 0.06660835
v -0.02713651 0.06751551 -0.02125863
v -0.07000001 0.05710162 0.08642849
v -0.07000001 0.0772654 -0.0459455
v -0.06999999 0.08336937 -0.04662091
v -0.07000001 -0.01449361 0.08737347
v -0.06999998 -0.02386682 0.08512688
v -0.06999998 -0.01972833 0.09701855
v -0.06999998 -0.04816199 0.0777649
v -0.06999999 -0.05535465 0.0570001
v -0.06999999 -0.0504569 0.0921106
v -0.06999999 -0.04557509 0.07523409
v -0.06999998 -0.05015548 0.05795939
v -0.06999999 0.08914565 0.0681244
v -0.06999999 0.05454788 0.07606579
v -0.07 0.09359045 -0.05210026
v -0.07000002 0.0824013 0.03675646
v -0.06999999 0.08273669 0.03413892
v -0.07 -0.02211144 0.09929669
v -0.07000001 -0.0291489 0.1097241
v -0.06999999 -0.02221688 0.1028639
v -0.06999999 -0.02772336 0.08142397
v -0.07000001 0.06135416 0.08419715
v -0.06999998 -0.01397286 0.09915847
v -0.06999998 -0.04401267 0.07682602
v -0.07000001 0.06432379 0.0856289
v -0.07000002 0.08516026 -0.04368857
v -0.06999893 0.08668613 0.08235003
v -0.07000001 -0.0465998 0.07935697
v -0.07000002 0.08314877 -0.03918716
v -0.06999999 0.07875374 0.08998187
v -0.07000001 0.06797121 -0.03756013
v -0.0359546 0.06750397 -0.01959738
v -0.03219325 0.0683793 -0.02052779
v -0.06999999 -0.05786489 -0.02610452
v -0.06999999 0.05964527 -0.04468254
v -0.06999999 -0.07501768 -0.02186528
v -0.06999998 -0.08103205 -0.02062446
v -0.06999933 -0.04664003 0.1005799
v -0.06999999 -0.0811815 -0.01557897
v -0.07 0.0595575 0.1013091
v -0.07000001 -0.01668587 0.10553
v -0.07000001 0.06272922 0.09289329
v -0.06999998 -0.01217002 0.1127805
v -0.07000001 0.01451354 0.11214
v -0.06999999 -0.07525146 -0.01398411
v -0.07000001 0.06511212 0.09061505
v -0.07000001 -0.07309096 -0.01647438
v -0.06999999 0.01343193 0.08708794
v -0.07 0.07709613 -0.04022315
v -0.06157327 0.09267137 -0.05192765
v -0.02860725 0.06638946 -0.02327935
v -0.06027773 0.08300938 -0.05118101
v -0.06250009 0.06648523 0.08217701
v -0.06108658 0.07061458 0.0673807
v -0.06123417 0.06926447 0.08660866
v -0.0614664 0.0857903 0.07963303
v -0.06047376 0.08857661 -0.03976896
v -0.06102599 0.08182383 0.03741185
v -0.06097443 0.08133115 0.03246061
v -0.06095506 0.05279408 0.08642231
v -0.0610112 0.05345447 0.09265539
v -0.06123805 0.06459802 0.09643772
v -0.06043513 0.08895846 -0.04498342
v -0.06091947 0.07685162 0.03511949
v -0.0602503 0.0744536 -0.03716199
v -0.06038184 0.08065348 -0.03445622
v -0.06250005 0.06918173 0.09112994
v -0.0601815 0.07240723 -0.04097754
v -0.06019773 0.0685089 0.06611587
v -0.04186309 0.06754848 -0.02973274
v -0.04184037 0.06753525 -0.02640932
v 0.01736668 0.06690098 -0.05193755
v 0.003565669 0.06718712 0.004432529
v 0.01938009 0.06128224 -0.01209361
v 0.01764858 0.06107961 -0.001341969
v 0.03442851 0.05431072 -0.008461356
v 0.03210852 0.0569418 -0.01651456
v 0.0394354 0.05600208 -0.02283884
v 0.04631141 0.05559829 -0.02921528
v 0.00754153 0.06723156 -0.01046567
v 0.003475487 0.06718849 0.004748695
v 0.02448855 0.05967545 -0.02606339
v 0.05784392 0.04912958 -0.01283836
v 0.06220138 0.052988 -0.02498325
v 0.0406372 0.04080767 0.006783783
v 0.03093958 0.04762252 0.009377286
v 0.03298119 0.04293315 0.01283118
v 0.04403241 0.02759125 0.01330324
v 0.05294883 0.02022159 0.01215105
v 0.05244221 0.007848344 0.01509921
v 0.04227821 0.02256201 0.01660404
v -0.03824472 0.06642219 -0.03200484
v -0.03955436 0.06839312 -0.02423574
v -0.03800721 0.06639166 -0.02387152
v 0.03425771 0.03431857 0.01910362
v 0.0367578 0.0155473 0.02421493
v 0.05795622 0.03867612 0.0003674999
v 0.052453 0.03715955 0.003434353
v 0.02750194 0.05381921 0.00249574
v 0.01193476 0.06224199 0.01134419
v 0.05917951 0.00781865 0.01372832
v 0.05323091 0.03074856 0.007493265
v -0.03473867 0.06643119 -0.03442858
v -0.03380698 0.06843586 -0.03566089
v 0.01988733 0.0542611 0.01799737
v 0.04857041 0.04557296 -0.003416911
v 0.04736291 0.006999456 0.01710229
v 0.0309082 0.02456938 0.02935047
v -0.02784688 0.06642262 -0.03212469
v 0.04204413 0.00855575 0.02016027
v 0.05053513 -0.02362606 0.01255824
v 0.04001394 -0.02309728 0.01790172
v 0.03991533 -0.03536552 0.00994806
v 0.0357385 0.006867441 0.02694795
v 0.06122713 -0.02598524 0.008626692
v 0.04400592 -0.005960479 0.01949321
v 0.0427243 -0.01359727 0.01925741
v 0.04927411 -0.005653252 0.01695029
v 0.05618939 -0.01373972 0.0139481
v 0.034559 -0.02529628 0.02116339
v 0.02872276 -0.03563265 0.01821963
v 0.0586807 -0.003593664 0.01456676
v 0.03497933 -0.01516221 0.02555325
v 0.03719231 -0.006550748 0.02509865
v 0.0297442 -0.03076273 0.02206507
v -0.0444413 0.06255987 0.07395764
v -0.05767508 0.06414202 0.07369784
v -0.05761516 0.06144435 0.07648629
v -0.03106624 0.06484299 0.06932387
v -0.05746567 0.06615769 0.06990561
v -0.01547594 0.06632939 0.06141528
v -0.009695593 0.06558946 0.05629896
v -0.03775515 0.06631059 -0.002133287
v -0.0218375 0.06625271 0.01333602
v -0.02657783 0.06623129 0.01904957
v 0.003475562 -0.04979136 0.02324628
v -0.04608616 -0.02016816 0.08911172
v -0.05758941 -0.01900234 0.09059864
v -0.05792284 -0.02410676 0.0888849
v -0.05752592 -0.02884256 0.08475374
v -0.0403772 -0.02909358 0.08366269
v -0.03044075 -0.0277667 0.0837667
v -0.01427358 -0.03192731 0.07587965
v -0.01707781 -0.02785195 0.08024356
v -0.06250004 -0.08552585 -0.02041172
v -0.06250004 -0.0831098 -0.02428147
v -0.06250004 -0.07486396 -0.0261431
v -0.06250005 -0.06970623 -0.02175618
v -0.06250007 -0.0691812 -0.01556932
v -0.06250004 -0.02579586 0.09773846
v -0.06250006 -0.0164938 0.09282508
v -0.06250007 -0.02436414 0.1068839
v -0.06250005 -0.0120639 0.09509191
v -0.06250004 -0.009836365 0.1036249
v -0.05773259 -0.01043502 0.0919407
v -0.05708702 0.01456824 0.09155037
v -0.05938298 0.02145795 0.09186046
v -0.06235118 -0.0188394 0.111144
v -0.06172913 0.01925943 0.1106086
v -0.06195817 0.008828979 0.1117824
v -0.06253861 -0.03501794 0.1067892
v -0.06260811 -0.04507765 0.1013375
v -0.06255781 -0.05008563 0.09079367
v -0.06239241 0.06599537 0.09734184
v -0.06208263 0.04190484 0.1062892
v -0.06247335 0.07437919 0.09225836
v -0.06184519 0.08739728 0.0759635
v -0.06259502 0.08816495 0.07199982
v -0.06258649 0.08496829 0.08322416
v -0.06250006 0.08012906 -0.03862228
v -0.06250008 0.07647972 -0.0416891
v 0.01467294 0.0675236 -0.05910805
v 0.01153266 0.07150227 -0.05715152
v 0.01108736 0.07075117 -0.0558984
v -0.06250007 0.08326703 -0.03942763
v -0.06250007 0.08506029 -0.04278953
v -0.06250006 0.06521573 0.08990717
v -0.06250006 0.05761892 0.09150179
v -0.06250007 0.06045542 0.09306666
v 0.01133983 0.0675048 -0.05402902
v -0.05682369 0.06764716 -0.07309203
v 0.006094903 0.06754586 -0.06510468
v -0.0567801 0.06756954 -0.0617836
v -0.06250007 0.06486433 0.08660172
v -0.06250006 -0.02240526 0.1012717
v -0.06250007 -0.02013001 0.1050504
v -0.0599556 0.07152159 -0.06502582
v -0.06250004 -0.01429614 0.1035525
v -0.06250006 -0.01372415 0.100317
v -0.06250007 -0.08120839 -0.01588381
v -0.06250004 -0.07871532 -0.01381372
v -0.06250007 -0.07326645 -0.01637978
v -0.06250007 -0.0739627 -0.02078373
v -0.05985272 0.07094745 -0.07151061
v 0.00645411 0.07098866 -0.06295341
v -0.06625284 0.02904597 0.08439264
v -0.0663026 0.04954016 0.07826187
v -0.06638296 0.06125021 0.07174867
v -0.06629472 -0.008285566 0.0878654
v -0.06625146 0.01235742 0.08710805
v -0.06638442 -0.02362978 0.0850887
v -0.05990345 0.07152761 -0.07051627
v -0.06646436 -0.02772595 0.08109605
v -0.06824243 -0.06342544 -0.01638626
v -0.06834769 -0.06246567 -0.02264177
v -0.06839406 -0.05757159 -0.02610649
v -0.06839383 0.05971704 -0.04463772
v -0.06824285 0.0679284 -0.03717902
v -0.06646162 0.06403522 0.06674907
v -0.06250006 0.05377179 0.08420359
v -0.06029649 0.05709878 0.08113205
v -0.06250007 0.06052662 0.08019921
v -0.05746315 0.03876112 0.08656363
v -0.0574779 0.0511138 0.08212492
v -0.06250007 0.07251051 -0.04540167
v -0.06250006 0.07492632 -0.04927134
v -0.06250007 0.08317246 -0.05113304
v -0.06250007 0.08885511 -0.04055941
v -0.03336764 -0.05462459 -0.01677913
v -0.03667248 -0.05902074 -0.01415279
v -0.03314866 -0.05380553 -0.01429767
v -0.03363521 -0.0586711 -0.01308814
v 0.001887314 0.05961889 0.04374141
v 0.01063363 0.05149276 0.0398792
v 0.007550649 0.04748349 0.04906166
v -0.02486749 0.04903784 0.07798047
v -0.02907126 0.05657523 0.0752552
v -0.03705406 0.05337567 0.07850179
v -0.01315029 0.06243276 0.06503196
v -0.03155553 -0.05219785 -0.009404134
v -0.04207158 -0.05326665 -0.01265749
v -0.04204874 -0.05804518 -0.0111829
v -0.02328438 0.02665086 0.08480036
v -0.02984883 0.03530988 0.08406459
v -0.0384078 0.02634887 0.08800073
v 0.007018328 0.02041021 0.06161965
v 0.01850073 0.02139654 0.04689317
v -0.002900138 0.04003224 0.06866251
v -0.02009084 0.03847329 0.08049448
v -0.04039158 0.0397738 0.08444689
v -0.02415722 0.06070674 0.07130951
v -0.01826019 0.05349498 0.07383828
v -0.01993716 0.01885704 0.08521956
v -0.02407366 0.01208431 0.08722031
v -0.03093565 -0.05954148 -0.002921198
v -0.03130353 -0.06207637 -0.01063764
v -0.02903342 -0.05743146 -0.007722843
v -0.01527726 0.0281509 0.08160254
v -0.04476553 -0.06143003 -0.008669864
v -0.04316299 -0.05756687 -0.006522961
v -0.04320979 -0.05887217 -0.01049636
v -0.01062192 0.03824501 0.07638755
v -0.009378511 0.05691314 0.06690523
v -0.008131273 0.06298127 0.05892443
v -0.006222874 0.02201795 0.0770956
v -0.0367226 -0.0635248 -0.01504689
v -0.03262918 -0.05982294 -0.01507216
v -0.04145509 -0.05954241 -0.01515839
v -0.0103178 0.01058833 0.08179677
v -0.004800193 0.05367046 0.06397302
v 0.007843912 0.04104731 0.05311526
v -0.03093596 0.01274212 0.08874138
v -0.05080279 0.02258978 0.09007253
v -0.0458619 -0.06077555 -0.00944984
v -0.04025287 -0.05762913 0.0001431331
v 0.02416271 0.01017968 0.04177557
v -0.04269547 -0.06930273 -0.009245045
v -0.04341673 -0.07093676 -0.005033564
v -0.04387934 -0.06156984 -0.005891379
v -0.03130471 -0.06930271 -0.009245023
v -0.03681809 -0.07022135 -0.01204139
v -0.03390209 -0.06455305 -0.01539984
v -0.04227507 -0.06348184 -0.01171202
v -0.02809817 -0.06237856 -0.008788113
v -0.04500985 -0.009161043 0.09075852
v -0.04100475 0.002630851 0.09068234
v -0.02577882 -0.009277006 0.08756696
v -0.02771283 -0.01776492 0.0868016
v -0.02997584 -0.06785551 -0.004839685
v -0.03019673 -0.06257936 -0.008964658
v -0.01581837 -0.01926361 0.08306885
v -0.01430345 0.004804674 0.08422215
v -0.04169375 0.009056794 0.09064332
v -0.02225243 -0.0226151 0.08423087
v -0.002729714 -0.002064046 0.07551974
v 0.01216532 0.006078285 0.05709418
v -0.002895787 0.003524762 0.07559933
v -0.009741329 -0.000314028 0.08193655
v -0.009856239 -0.03182212 0.07268114
v 0.005037323 -0.0252157 0.05836518
v -0.007396683 -0.02772135 0.07369815
v 0.006739438 -0.03311281 0.04882541
v 0.004105955 -0.01435423 0.06488448
v -0.007748775 -0.01139449 0.08000205
v -0.005200326 -0.01970721 0.07553855
v -0.009774096 -0.02189514 0.07912003
v -0.0450235 0.06626955 0.008800715
v -0.04012997 0.06623308 0.0185656
v -0.03050008 0.06669591 0.02850097
v -0.03288537 0.06670092 0.02715462
v -0.03335518 -0.07158391 -0.008558899
v -0.041781 -0.07207462 -0.008605175
v -0.0344611 0.06718817 -0.009549394
v -0.03288539 0.06720391 -0.01372251
v -0.03063374 -0.0710436 -0.005343385
v -0.03869438 -0.05584376 0.004649922
v -0.03869838 -0.05551479 0.004529655
v -0.0389046 -0.05548198 0.004629657
v -0.03910178 -0.05543742 0.004765145
v -0.03927451 -0.05538491 0.004925422
v -0.03958255 -0.05515635 0.005620435
v -0.03939837 -0.05565799 0.005215123
v -0.03940385 -0.05533002 0.00509207
v -0.03949827 -0.05527171 0.005269259
v -0.03955949 -0.05520743 0.005465358
v -0.0368854 -0.05389887 0.009448603
v -0.00646767 -0.05527141 0.005271204
v -0.004718311 -0.0553898 0.004910156
v -0.006948233 -0.05515049 0.00563851
v -0.007550105 -0.05534104 0.005058274
v -0.007833537 -0.0552628 0.005296439
v -0.004543483 -0.05527925 0.00524655
v -0.006885357 -0.0538989 0.009448618
v -0.007335357 -0.05504435 0.005961254
v -0.00485231 -0.05543576 0.004770234
v -0.005019315 -0.05547649 0.004646808
v -0.004718311 -0.0553898 0.004910216
v -0.005236208 -0.05551418 0.00453119
v -0.00461936 -0.05533961 0.005062699
v -0.005789861 -0.05556122 0.004388951
v -0.005439937 -0.05553783 0.00445962
v -0.02188547 -0.0403226 0.05077587
v -0.06250006 -0.07993764 -0.02154339
v -0.06250006 -0.07159729 -0.01169963
v -0.06250004 -0.07984323 -0.009838067
v -0.03747756 -0.06873807 0.00167571
v -0.03973234 -0.0688088 -2.699345e-05
v -0.06250005 -0.01828279 0.09681873
v -0.03653193 -0.06098292 -0.001861874
v -0.03256829 -0.06928247 3.159046e-06
v -0.06250007 -0.01641132 0.1095798
v -0.04251396 -0.06255305 -0.006641544
v -0.03301788 -0.06150841 -0.003461435
v -0.04071237 -0.06141653 -0.003181934
v -0.03158629 -0.06304239 -0.008131288
v -0.06250008 0.07747774 -0.04598516
v -0.06250006 0.07819325 -0.03482793
v -0.06250007 0.0743276 -0.03729957
v -0.06250006 0.08348892 -0.04636071
v -0.06250007 0.05913782 0.08473378
v -0.06250006 0.05548393 0.09519914
v -0.06737335 0.0118885 0.02211239
v -0.06735446 0.01977409 0.02196353
v -0.06747252 0.01518017 0.01584283
v -0.06753977 0.02130729 0.01097243
v -0.06726808 0.02373742 0.02634151
v -0.06836034 0.06425614 -0.04341495
v -0.06660682 0.003210922 0.06794661
v -0.0671677 0.02392444 0.03213447
v -0.06711175 0.02513732 0.03519385
v -0.06700169 0.01521359 0.04314085
v -0.06684822 0.02135925 0.05107246
v -0.0670011 0.01939756 0.04251508
v -0.06730603 0.01249089 0.02592203
v -0.06685394 0.01054181 0.05245101
v -0.06718081 0.001861238 0.03486223
v -0.06700169 0.003464118 0.04499876
v -0.06635595 0.02031769 0.07979125
v -0.06711173 0.01840818 0.03625791
v -0.06751431 0.02224859 0.04130258
v -0.0666429 0.03185074 0.06132197
v -0.0678218 0.008466207 0.02564643
v -0.06773328 0.007503194 0.03093454
v -0.06718081 0.01361076 0.03300427
v -0.06741625 0.02244388 0.01789142
v -0.06674431 0.004023525 0.05983984
v -0.06828766 0.003706787 -0.02962844
v -0.06714761 0.007227696 0.0359401
v -0.06751718 -0.001148258 0.01583058
v -0.06762391 0.009645989 0.007931121
v -0.06762391 -0.002103598 0.00978905
v -0.06746286 -0.0006625745 0.01890183
v -0.0673582 0.003235204 0.02436025
v -0.06826658 0.003924349 0.0005698763
v -0.0678156 -0.003817844 -0.001052693
v -0.0678156 0.007931623 -0.002910625
v -0.0681731 0.001920689 0.006306387
v -0.06840951 0.0004736842 -0.007175002
v -0.06798928 -0.005373063 -0.01088721
v -0.06785709 -0.004189474 -0.003402069
v -0.0678571 0.007560113 -0.00526002
v -0.06805569 0.00578875 -0.01651726
v -0.06847292 -0.0003587168 -0.01072002
v -0.06814593 -0.006774251 -0.01974833
v -0.0664342 0.02975728 0.0737606
v -0.0670011 0.02612672 0.04145098
v -0.06721526 0.01748114 0.03039485
v -0.06820023 -0.007259875 -0.02281957
v -0.06755418 0.008082286 0.04123297
v -0.04144956 -0.05511189 -0.01662445
v -0.04151333 -0.05672857 -0.01609623
v -0.04496938 -0.05342705 -0.01132952
v -0.0687167 0.002160677 -0.02525868
v -0.06862552 0.002976505 -0.02009964
v -0.06803365 0.008272446 0.01339151
v -0.06794245 0.009088197 0.01855069
v -0.04443413 -0.05477283 -0.006486591
v -0.0405879 -0.05044995 -0.004069515
v -0.04149329 -0.05210435 -0.003516123
v -0.03940391 -0.05533 0.005092189
v -0.03926747 -0.05571405 0.005044714
v -0.03927458 -0.0553849 0.004925489
v -0.03926747 -0.05571406 0.005044647
v -0.03903162 -0.05579005 0.004815593
v -0.03910185 -0.05543741 0.004765198
v -0.03890466 -0.05548197 0.004629701
v -0.03869438 -0.05584376 0.004649922
v -0.04151355 -0.0581537 -0.01562803
v -0.03869844 -0.05551478 0.004529715
v -0.03955955 -0.05520742 0.005465478
v -0.03949827 -0.05527171 0.005269311
v -0.006643131 -0.05557097 0.005479977
v -0.007343516 -0.05537985 0.006061852
v -0.006948233 -0.05515061 0.00563854
v -0.007335357 -0.05504435 0.005961254
v -0.007343516 -0.05537985 0.006061852
v -0.005439997 -0.05553783 0.00445959
v -0.005236275 -0.0555143 0.004531212
v -0.005019374 -0.05547649 0.004646815
v -0.004852355 -0.05543576 0.004770249
v -0.004619397 -0.05533976 0.005062647
v -0.004543483 -0.05527925 0.00524655
v -0.007825427 -0.05559256 0.005414367
v -0.007833477 -0.0552628 0.005296439
v -0.007504113 -0.05568183 0.005143762
v -0.007825427 -0.05559256 0.005414367
v -0.06698928 0.00606838 0.07431208
v -0.06733097 0.02336375 0.05176202
v -0.0414365 -0.05492644 -0.002599698
v -0.06700261 0.02274322 0.07090281
v -0.06713463 0.02477733 0.06292672
v -0.06707901 0.01894299 0.0670751
v -0.06703299 0.009646744 0.07121262
v -0.06724954 0.01438258 0.05790585
v -0.06711519 0.01266026 0.06596616
v -0.06717277 0.006956587 0.06353291
v -0.06720234 0.009972872 0.06134306
v -0.02942873 -0.0525604 -0.01041838
v -0.03252834 -0.05186088 -0.003593456
v -0.03001755 -0.05308414 -0.01024656
v -0.02898038 -0.05376394 -0.01002458
v -0.03082001 -0.05936027 -0.01353145
v -0.03185929 -0.05966355 -0.01453585
v -0.03156763 -0.05863605 -0.01312333
v -0.03206437 -0.05970785 -0.01470013
v -0.03250611 -0.0570159 -0.01600851
v -0.03080044 -0.0580621 -0.0139753
v -0.03347301 -0.05614326 -0.002194006
v -0.03251195 -0.0532703 -0.003130492
v -0.02898615 -0.05529712 -0.009900298
v -0.0537346 -0.03877899 -0.09608318
v -0.03677189 -0.0358688 -0.09346695
v -0.04686268 -0.02986709 -0.09951557
v -0.02698698 -0.03048863 -0.09477831
v -0.05882264 -0.02722029 -0.1041779
v -0.03740133 -0.01682303 -0.1024418
v -0.02939314 -0.02235147 -0.09909353
v -0.01510891 -0.01825228 -0.09827225
v -0.009916712 -0.03058308 -0.09197132
v 0.01198263 -0.02931383 -0.0902802
v 0.02242444 -0.03648423 -0.08427168
v 0.01198184 -0.01740007 -0.09565864
v 0.03829959 -0.02404888 -0.09145359
v 0.05210551 -0.03304178 -0.0855788
v 0.0372351 -0.04497667 -0.0740969
v 0.0393181 -0.03855117 -0.08133866
v 0.03381842 -0.01886011 -0.09380401
v -0.03316528 -0.06351683 -0.007653069
v -0.03634275 -0.06203039 -0.003128357
v -0.0338282 -0.07072665 -0.00189174
v -0.03789157 -0.06872854 -0.001729958
v -0.03437739 -0.06940913 -0.003801577
v -0.03411733 -0.07025288 -0.006369896
v -0.03462923 -0.06915817 -0.003037516
v -0.03722674 -0.06993786 -0.005410977
v -0.03711146 -0.06942143 -0.003839087
v -0.03550699 -0.07050918 -0.007150754
v -0.03783906 -0.07012893 -0.005992945
v -0.03795563 -0.07071179 -0.007767428
v -0.0380329 -0.07050125 -0.007126488
v -0.03951484 -0.07242373 -0.007160112
v -0.03581882 -0.07070241 -0.007738791
v -0.03901612 -0.07125438 -0.003013745
v -0.03805548 -0.06894219 -0.002380516
v -0.03958476 -0.06908361 -0.002810657
v -0.03407914 -0.06925853 -0.003343511
v -0.03592378 -0.06902725 -0.002639078
v -0.03571964 -0.06876989 -0.001855876
v -0.03734148 -0.0688291 -0.002035875
v -0.03965461 -0.06961878 -0.004440304
v -0.03962667 -0.06982612 -0.005071208
v -0.03896303 -0.07021599 -0.006257914
v -0.03905624 -0.07039124 -0.006791249
v -0.0374391 -0.07052799 -0.007207651
v -0.0343311 -0.07005627 -0.00577157
v -0.03581626 -0.06960276 -0.004390899
v -0.03551369 -0.0697872 -0.004952569
v -0.03611737 -0.06983647 -0.005102985
v -0.03755002 -0.06955518 -0.004246391
v -0.03895127 -0.06910279 -0.00286933
v -0.03957027 -0.06927362 -0.003389113
v -0.03764546 -0.06931167 -0.003504999
v -0.03782332 -0.0699378 -0.005410984
v -0.03480901 -0.07025324 -0.006371733
v -0.03626053 -0.07056787 -0.007329389
v -0.03954225 -0.07017139 -0.006122239
v -0.04029446 -0.06968851 -0.004652299
v -0.03626973 -0.06887033 -0.002161734
v -0.04106404 -0.0631446 -0.00652004
v -0.03837801 -0.06447195 -0.01056055
v -0.04218161 -0.05661585 -0.006831989
v -0.04041534 -0.05115324 -0.006224085
v -0.03450775 -0.05572304 -0.004114136
v -0.03463519 -0.05095363 -0.005616225
v -0.04199554 -0.05976837 -0.003611345
v -0.03892298 -0.05871738 -0.0004123673
v -0.02824069 -0.06073388 -0.009633597
v -0.04266912 -0.06410361 -0.01404116
v -0.0311456 -0.06240102 -0.0143983
v -0.02806474 -0.06147207 -0.006030545
v -0.0426227 -0.05968985 -0.0006135814
v -0.03839244 -0.05987546 -0.0007337257
v -0.0338148 -0.05925396 0.0007121786
v -0.03450251 -0.06596588 0.000912033
v -0.03189636 -0.06550691 -0.001218263
v -0.03974666 -0.06599107 0.0008355901
v -0.04287531 -0.06695797 -0.002107784
v -0.03840454 -0.07196986 -0.009661257
v -0.03450877 -0.0642416 -0.01178195
v -0.04054785 -0.06403448 -0.01115099
f 1 2 3
f 4 1 3
f 5 6 7
f 8 9 10
f 11 9 8
f 12 9 11
f 13 12 11
f 10 12 13
f 7 6 14
f 15 16 1
f 2 16 15
f 17 18 19
f 17 5 18
f 5 20 18
f 7 14 21
f 5 21 14
f 3 2 15
f 4 22 1
f 23 8 24
f 8 10 24
f 24 10 13
f 13 25 5
f 26 27 28
f 5 7 29
f 29 30 20
f 30 31 20
f 22 15 31
f 32 31 7
f 33 7 34
f 26 35 36
f 26 36 27
f 33 32 7
f 32 37 31
f 37 22 31
f 37 23 22
f 26 38 35
f 37 39 23
f 23 39 13
f 39 33 13
f 33 34 13
f 40 41 38
f 17 31 15
f 20 31 17
f 15 23 24
f 29 20 5
f 5 24 13
f 17 24 5
f 40 38 26
f 20 17 19
f 42 7 30
f 7 42 43
f 30 7 31
f 22 3 15
f 29 43 30
f 5 25 21
f 43 42 44
f 43 44 30
f 15 1 23
f 13 11 23
f 34 25 13
f 1 22 23
f 7 21 34
f 45 46 47
f 48 49 50
f 51 52 53
f 52 54 53
f 55 56 57
f 56 58 59
f 58 60 59
f 58 61 60
f 56 59 62
f 61 63 64
f 61 55 63
f 55 57 63
f 61 64 60
f 57 56 62
f 65 66 67
f 68 51 69
f 28 38 36
f 70 71 72
f 68 73 51
f 68 70 73
f 74 52 72
f 74 75 52
f 70 72 73
f 76 67 77
f 67 78 77
f 66 78 67
f 71 74 72
f 79 80 81
f 75 82 52
f 75 83 82
f 80 69 81
f 84 85 38
f 83 79 82
f 85 28 36
f 79 81 82
f 80 68 69
f 78 86 77
f 78 87 88
f 77 86 89
f 86 78 88
f 87 90 88
f 66 87 78
f 91 90 92
f 93 94 92
f 91 88 90
f 91 95 88
f 93 92 96
f 94 91 92
f 97 98 99
f 99 96 97
f 52 73 72
f 100 52 82
f 52 51 73
f 100 82 101
f 82 81 101
f 81 69 101
f 101 102 103
f 103 102 91
f 104 53 105
f 105 53 54
f 69 53 104
f 69 51 53
f 101 104 102
f 101 69 104
f 104 91 102
f 106 100 103
f 100 101 103
f 52 106 54
f 106 52 100
f 104 95 91
f 54 107 105
f 107 54 93
f 93 54 106
f 91 94 103
f 93 106 94
f 94 106 103
f 105 95 104
f 96 99 108
f 109 108 99
f 28 85 84
f 110 99 98
f 111 109 99
f 111 99 110
f 95 89 88
f 107 93 96
f 95 105 89
f 105 107 89
f 112 62 113
f 57 62 112
f 63 57 112
f 114 63 112
f 64 63 114
f 115 64 114
f 60 64 115
f 76 60 115
f 59 60 76
f 116 59 76
f 62 59 116
f 113 62 116
f 108 89 107
f 108 107 96
f 97 96 92
f 89 86 88
f 76 117 116
f 76 115 67
f 67 114 65
f 67 115 114
f 65 114 66
f 116 117 113
f 66 112 110
f 66 114 112
f 113 111 112
f 112 111 110
f 97 92 98
f 92 90 98
f 98 87 66
f 98 66 110
f 98 90 87
f 113 109 111
f 113 117 109
f 89 108 77
f 77 108 109
f 77 109 117
f 77 117 76
f 74 118 119
f 70 68 120
f 71 70 121
f 122 123 124
f 38 41 125
f 119 83 75
f 126 80 79
f 127 68 80
f 74 119 75
f 71 118 74
f 68 127 120
f 79 128 126
f 79 83 128
f 80 129 127
f 84 38 125
f 83 119 128
f 80 126 129
f 130 131 132
f 131 130 133
f 123 131 124
f 134 130 132
f 131 133 124
f 135 133 136
f 124 133 135
f 136 130 134
f 124 135 137
f 120 137 121
f 138 134 118
f 71 138 118
f 124 137 120
f 121 138 71
f 127 124 120
f 138 121 137
f 128 131 126
f 122 124 127
f 132 131 128
f 129 122 127
f 119 132 128
f 123 122 129
f 126 123 129
f 134 132 119
f 131 123 126
f 28 84 139
f 118 134 119
f 138 135 134
f 138 137 135
f 136 134 135
f 121 70 120
f 140 141 142
f 141 143 142
f 139 144 28
f 141 145 143
f 145 146 143
f 140 142 147
f 147 148 140
f 148 149 140
f 150 140 149
f 151 152 153
f 152 154 153
f 152 155 154
f 152 150 155
f 145 151 146
f 151 153 146
f 150 149 155
f 156 153 157
f 156 157 154
f 158 159 160
f 159 158 161
f 156 160 159
f 156 161 158
f 162 163 153
f 153 163 146
f 143 164 165
f 165 166 162
f 164 162 166
f 162 164 143
f 143 158 167
f 143 167 168
f 142 168 169
f 147 169 148
f 148 169 168
f 155 149 170
f 170 149 160
f 156 154 170
f 146 162 143
f 156 170 160
f 162 153 156
f 158 160 168
f 162 156 158
f 162 158 165
f 160 148 168
f 171 172 173
f 172 174 173
f 175 40 176
f 41 40 175
f 165 158 143
f 143 168 142
f 177 154 155
f 154 177 170
f 178 179 180
f 178 181 179
f 174 41 173
f 40 26 176
f 181 182 179
f 176 26 183
f 181 184 182
f 173 41 175
f 185 186 187
f 185 188 186
f 188 189 186
f 188 190 189
f 191 192 193
f 192 194 193
f 192 195 194
f 195 196 194
f 195 197 196
f 197 198 196
f 197 199 198
f 197 200 199
f 197 201 200
f 202 203 204
f 201 205 200
f 206 207 208
f 207 209 208
f 207 210 209
f 210 191 209
f 211 212 213
f 214 215 216
f 217 211 213
f 218 211 217
f 212 215 214
f 213 212 214
f 216 219 220
f 215 219 216
f 221 218 217
f 222 202 204
f 223 202 222
f 183 224 225
f 219 223 222
f 220 219 222
f 223 203 202
f 215 223 219
f 211 218 226
f 204 203 227
f 228 211 226
f 229 226 221
f 228 226 229
f 227 228 229
f 203 228 227
f 226 218 221
f 203 230 231
f 203 231 228
f 232 215 233
f 233 215 212
f 234 228 231
f 211 228 234
f 233 212 211
f 223 235 230
f 223 230 203
f 233 211 236
f 237 176 183
f 232 235 223
f 236 211 234
f 215 232 223
f 238 239 236
f 233 240 232
f 234 238 236
f 241 240 233
f 242 238 234
f 236 241 233
f 240 243 232
f 244 242 234
f 239 241 236
f 206 245 200
f 246 242 247
f 246 238 242
f 246 248 238
f 248 239 238
f 248 249 239
f 250 243 249
f 250 251 243
f 251 252 243
f 200 251 199
f 199 251 250
f 200 245 251
f 208 253 254
f 245 255 251
f 208 209 253
f 245 206 255
f 209 256 253
f 206 254 255
f 206 208 254
f 205 206 200
f 193 209 191
f 246 209 193
f 256 209 246
f 193 194 246
f 196 198 257
f 198 249 257
f 194 248 246
f 198 199 249
f 199 250 249
f 194 257 248
f 194 196 257
f 249 248 257
f 125 41 174
f 231 244 234
f 258 244 231
f 259 258 230
f 230 258 231
f 251 255 252
f 255 254 252
f 254 260 252
f 254 253 260
f 253 247 260
f 253 256 247
f 256 246 247
f 235 260 230
f 261 260 235
f 243 261 235
f 232 243 235
f 260 259 230
f 260 258 259
f 243 240 249
f 260 247 258
f 258 247 244
f 240 241 249
f 241 239 249
f 174 172 139
f 244 247 242
f 252 260 261
f 252 261 243
f 206 205 207
f 189 205 201
f 189 262 205
f 262 263 205
f 263 207 205
f 263 264 207
f 264 210 207
f 264 179 210
f 179 191 210
f 179 192 191
f 179 182 192
f 182 195 192
f 182 187 195
f 187 197 195
f 187 189 197
f 189 201 197
f 189 187 186
f 264 180 179
f 265 262 189
f 266 267 268
f 267 269 270
f 269 271 272
f 269 273 271
f 273 181 271
f 273 274 181
f 274 184 181
f 274 185 184
f 185 190 188
f 185 266 190
f 266 268 190
f 190 268 189
f 268 265 189
f 268 267 265
f 267 270 265
f 270 262 265
f 270 263 262
f 269 264 263
f 269 272 264
f 272 180 264
f 272 271 180
f 271 178 180
f 271 181 178
f 184 187 182
f 185 187 184
f 270 269 263
f 275 276 277
f 278 279 277
f 278 277 276
f 278 275 280
f 280 275 281
f 275 277 281
f 278 280 279
f 282 283 284
f 284 285 286
f 285 283 286
f 287 286 283
f 286 282 284
f 282 287 283
f 288 289 290
f 290 289 291
f 291 289 292
f 293 291 292
f 294 295 296
f 293 294 296
f 297 293 296
f 298 299 295
f 296 295 299
f 299 288 290
f 299 298 288
f 292 289 288
f 295 294 298
f 294 288 298
f 292 288 294
f 293 292 294
f 290 291 296
f 290 296 299
f 296 291 297
f 297 291 293
f 300 301 302
f 302 303 304
f 305 302 306
f 302 304 307
f 301 308 302
f 306 302 309
f 308 310 302
f 310 311 302
f 311 312 302
f 309 302 313
f 312 314 302
f 313 302 315
f 314 316 302
f 315 302 317
f 316 318 302
f 317 302 319
f 318 320 302
f 320 321 302
f 319 302 322
f 323 324 302
f 323 302 325
f 324 326 302
f 139 172 144
f 321 327 302
f 326 300 302
f 302 327 328
f 302 328 303
f 325 302 305
f 329 330 331
f 331 330 332
f 333 329 334
f 335 336 337
f 338 335 339
f 332 337 340
f 336 340 337
f 336 335 338
f 341 342 343
f 344 341 343
f 345 346 347
f 348 346 343
f 346 348 349
f 125 174 139
f 28 35 38
f 27 35 28
f 350 342 351
f 342 341 351
f 352 353 341
f 224 144 171
f 344 352 341
f 26 28 183
f 144 172 171
f 354 352 344
f 343 354 344
f 355 356 357
f 355 358 356
f 183 28 224
f 359 360 361
f 360 362 361
f 363 364 365
f 357 356 360
f 360 366 362
f 28 144 224
f 360 367 366
f 368 225 224
f 360 356 367
f 365 364 369
f 370 237 183
f 365 369 371
f 365 371 372
f 366 367 373
f 374 375 376
f 373 367 377
f 368 224 171
f 225 370 183
f 374 361 375
f 374 359 361
f 376 364 363
f 376 378 364
f 376 375 378
f 379 321 320
f 380 321 379
f 381 321 380
f 327 321 381
f 310 308 382
f 383 384 385
f 327 381 386
f 383 387 388
f 389 312 311
f 390 391 314
f 392 389 393
f 394 320 318
f 314 312 389
f 392 393 395
f 379 320 394
f 390 383 391
f 318 316 388
f 395 393 396
f 396 393 397
f 389 311 393
f 316 314 391
f 397 310 382
f 394 318 387
f 397 382 398
f 383 388 391
f 399 400 173
f 384 390 389
f 387 318 388
f 401 175 176
f 401 402 175
f 401 176 237
f 397 393 310
f 384 389 392
f 388 316 391
f 390 314 389
f 370 401 237
f 383 390 384
f 402 399 173
f 393 311 310
f 382 308 301
f 403 404 385
f 385 384 392
f 403 385 405
f 406 407 408
f 408 407 396
f 395 405 392
f 408 396 409
f 403 405 406
f 385 392 405
f 407 395 396
f 406 405 395
f 406 395 407
f 410 336 338
f 411 412 413
f 414 415 354
f 416 417 418
f 419 420 412
f 412 421 413
f 416 418 415
f 412 420 422
f 415 418 354
f 412 422 421
f 346 423 424
f 346 345 423
f 421 422 425
f 426 370 225
f 346 411 343
f 346 424 411
f 425 422 414
f 343 411 413
f 400 368 171
f 420 417 422
f 343 413 427
f 424 419 411
f 343 425 354
f 343 427 425
f 424 420 419
f 425 414 354
f 417 416 422
f 428 429 430
f 341 431 432
f 353 433 434
f 431 435 436
f 434 433 437
f 436 435 438
f 351 439 440
f 441 442 440
f 353 443 433
f 437 433 444
f 440 439 428
f 429 438 430
f 430 441 440
f 441 353 445
f 442 353 440
f 442 445 353
f 440 353 434
f 430 446 441
f 429 436 438
f 447 448 449
f 447 449 437
f 440 428 430
f 431 353 435
f 341 353 431
f 450 400 399
f 448 451 449
f 351 341 439
f 452 453 402
f 435 353 446
f 452 402 401
f 341 432 439
f 446 353 441
f 454 455 380
f 456 334 457
f 379 394 380
f 404 458 459
f 453 450 399
f 332 362 366
f 453 399 402
f 452 401 370
f 460 461 361
f 361 461 375
f 459 460 462
f 460 459 461
f 394 387 463
f 380 456 454
f 462 330 464
f 404 464 383
f 463 383 465
f 426 452 370
f 464 330 383
f 463 333 456
f 387 383 463
f 454 456 455
f 456 394 463
f 394 456 380
f 361 362 460
f 460 362 332
f 466 467 368
f 460 332 462
f 466 368 400
f 455 456 468
f 467 426 225
f 462 332 330
f 450 466 400
f 375 461 378
f 458 461 459
f 458 378 461
f 380 455 381
f 464 459 462
f 404 459 464
f 383 330 329
f 465 383 329
f 465 329 333
f 334 456 333
f 383 385 404
f 468 456 457
f 463 465 333
f 403 406 469
f 470 458 403
f 378 458 470
f 470 469 471
f 378 470 364
f 472 408 409
f 470 403 469
f 471 469 406
f 364 471 369
f 458 404 403
f 364 470 471
f 471 406 408
f 369 471 408
f 371 408 472
f 369 408 371
f 339 377 367
f 366 337 332
f 337 366 373
f 337 373 335
f 335 373 377
f 335 377 339
f 349 473 474
f 475 360 359
f 348 476 349
f 475 477 348
f 478 374 479
f 473 480 474
f 348 477 481
f 467 225 368
f 481 482 483
f 484 485 486
f 484 486 487
f 474 480 488
f 474 346 349
f 481 483 489
f 488 484 347
f 484 345 347
f 478 479 482
f 476 489 473
f 481 478 482
f 488 347 346
f 346 474 488
f 488 490 484
f 490 491 484
f 484 491 485
f 488 480 490
f 345 484 492
f 345 492 493
f 360 475 348
f 360 348 343
f 492 484 487
f 376 479 374
f 475 478 481
f 475 359 478
f 359 374 478
f 348 481 476
f 477 475 481
f 481 489 476
f 349 476 473
f 494 489 483
f 350 355 342
f 358 350 356
f 356 350 495
f 357 342 355
f 360 342 357
f 360 343 342
f 358 355 350
f 496 332 340
f 497 498 499
f 500 501 502
f 503 504 505
f 501 506 502
f 504 496 507
f 505 504 498
f 507 496 508
f 506 509 502
f 507 508 510
f 508 496 509
f 507 510 511
f 512 497 499
f 513 452 514
f 513 453 452
f 512 499 515
f 499 502 515
f 509 496 516
f 505 498 497
f 450 517 466
f 499 500 502
f 509 516 502
f 332 496 504
f 332 504 503
f 332 503 512
f 332 512 331
f 511 510 506
f 331 512 515
f 331 515 334
f 511 506 501
f 450 518 517
f 426 467 466
f 331 334 329
f 487 519 520
f 521 522 523
f 453 518 450
f 514 426 466
f 520 492 487
f 420 493 524
f 519 487 486
f 520 420 524
f 315 525 526
f 527 526 525
f 514 452 426
f 513 518 453
f 313 527 521
f 524 492 520
f 315 526 313
f 313 526 527
f 528 529 530
f 313 521 309
f 522 519 523
f 531 532 420
f 531 533 532
f 527 534 521
f 523 519 486
f 527 525 534
f 534 522 521
f 492 524 493
f 525 535 534
f 535 536 534
f 535 537 536
f 521 523 309
f 523 306 309
f 536 420 520
f 536 537 420
f 536 520 522
f 306 523 486
f 525 315 538
f 534 536 522
f 537 531 420
f 522 520 519
f 493 420 424
f 493 424 345
f 440 495 350
f 440 350 351
f 356 495 539
f 540 541 542
f 543 544 545
f 546 547 548
f 528 549 529
f 550 541 540
f 367 551 552
f 553 554 555
f 556 557 558
f 559 557 556
f 560 557 559
f 561 546 548
f 562 541 550
f 367 552 563
f 564 546 561
f 561 565 564
f 566 567 568
f 569 543 560
f 570 562 550
f 571 553 555
f 569 560 572
f 572 560 559
f 573 562 570
f 548 562 573
f 563 552 574
f 561 548 575
f 556 558 576
f 565 577 547
f 575 548 578
f 578 548 573
f 579 548 547
f 569 544 543
f 549 580 581
f 367 582 583
f 367 356 582
f 584 356 585
f 582 356 584
f 569 576 558
f 569 572 576
f 585 356 539
f 569 558 586
f 569 586 567
f 529 549 581
f 585 539 587
f 587 539 545
f 545 539 557
f 557 539 558
f 588 540 542
f 367 583 551
f 563 574 577
f 563 577 565
f 561 563 565
f 582 584 544
f 589 568 567
f 590 540 588
f 591 589 567
f 553 571 592
f 593 587 545
f 592 571 591
f 578 573 594
f 544 584 595
f 591 571 589
f 554 569 567
f 551 583 579
f 566 554 567
f 594 590 588
f 544 593 545
f 596 553 592
f 555 554 566
f 551 579 597
f 578 594 588
f 595 593 544
f 542 596 592
f 541 596 542
f 577 579 547
f 597 579 577
f 367 598 339
f 598 367 563
f 529 581 599
f 598 338 339
f 410 338 600
f 601 602 603
f 602 604 603
f 605 606 607
f 451 608 449
f 609 610 449
f 600 338 611
f 612 606 602
f 606 604 602
f 613 607 612
f 528 518 513
f 613 614 607
f 608 609 449
f 338 605 611
f 549 514 580
f 603 610 615
f 603 604 610
f 614 605 607
f 605 604 606
f 338 604 605
f 602 613 612
f 602 616 613
f 602 410 616
f 617 496 340
f 602 617 336
f 336 617 340
f 618 619 466
f 410 602 336
f 514 466 619
f 515 620 334
f 515 502 621
f 328 327 386
f 622 623 624
f 622 624 625
f 625 626 627
f 623 622 628
f 625 627 386
f 618 466 517
f 621 629 515
f 622 625 630
f 386 627 328
f 630 386 381
f 630 625 386
f 622 630 455
f 622 468 628
f 455 630 381
f 455 468 622
f 515 629 628
f 518 530 517
f 457 515 468
f 303 631 304
f 515 628 468
f 631 303 632
f 328 632 303
f 632 328 627
f 625 631 632
f 624 631 625
f 625 632 626
f 515 457 620
f 632 627 626
f 633 634 635
f 635 636 633
f 637 636 638
f 639 638 636
f 640 641 619
f 640 642 641
f 636 643 639
f 644 639 643
f 307 645 646
f 647 623 648
f 302 649 322
f 642 581 641
f 640 619 618
f 650 637 302
f 302 307 650
f 623 647 624
f 649 302 637
f 651 640 618
f 623 628 648
f 633 647 634
f 651 618 652
f 634 647 653
f 633 636 650
f 638 649 637
f 646 633 650
f 628 629 648
f 645 654 646
f 643 636 635
f 654 624 647
f 514 619 580
f 655 638 639
f 650 307 646
f 653 647 648
f 643 656 644
f 599 657 529
f 655 639 658
f 646 647 633
f 654 647 646
f 304 645 307
f 654 304 631
f 645 304 654
f 657 651 652
f 634 653 635
f 657 652 530
f 624 654 631
f 637 650 636
f 659 660 661
f 658 639 662
f 663 315 317
f 657 530 529
f 660 664 665
f 662 639 644
f 642 599 581
f 666 655 664
f 663 664 659
f 663 667 664
f 538 661 525
f 517 530 652
f 661 668 669
f 670 649 666
f 671 665 672
f 317 319 667
f 317 667 663
f 581 580 641
f 660 665 671
f 660 671 668
f 663 659 538
f 661 660 668
f 538 659 661
f 580 619 641
f 665 664 672
f 322 649 670
f 659 664 660
f 661 535 525
f 618 517 652
f 655 658 664
f 664 658 672
f 670 666 667
f 649 638 666
f 663 538 315
f 319 670 667
f 669 535 661
f 535 669 537
f 669 668 673
f 670 319 322
f 531 537 669
f 672 658 662
f 664 667 666
f 666 638 655
f 674 675 676
f 675 677 678
f 516 679 680
f 679 516 496
f 677 675 674
f 679 678 677
f 679 496 678
f 499 498 681
f 682 500 499
f 501 500 682
f 683 501 682
f 511 501 683
f 420 532 684
f 685 686 687
f 688 418 689
f 690 418 691
f 549 513 514
f 354 418 688
f 691 418 417
f 689 418 690
f 688 689 687
f 685 687 690
f 687 689 690
f 690 691 692
f 443 687 686
f 353 352 688
f 443 353 687
f 687 353 688
f 688 352 354
f 559 556 441
f 572 559 441
f 528 530 518
f 441 556 442
f 513 549 528
f 439 693 428
f 694 693 439
f 431 695 432
f 696 695 431
f 697 696 431
f 695 694 432
f 432 694 439
f 443 698 433
f 699 698 443
f 698 700 444
f 433 698 444
f 447 701 448
f 702 701 447
f 448 699 443
f 701 699 448
f 703 704 443
f 443 704 451
f 443 451 448
f 704 705 451
f 686 703 443
f 706 437 449
f 449 707 708
f 708 706 449
f 706 709 437
f 710 434 709
f 434 437 709
f 711 434 710
f 711 440 434
f 400 171 173
f 495 440 711
f 543 545 438
f 435 543 438
f 545 557 430
f 438 545 430
f 495 558 539
f 495 711 558
f 607 547 612
f 565 547 607
f 547 546 612
f 606 565 607
f 710 709 567
f 710 567 586
f 710 586 711
f 586 558 711
f 591 706 708
f 567 709 706
f 591 708 592
f 592 708 707
f 567 706 591
f 712 588 713
f 713 588 542
f 714 578 712
f 712 578 588
f 402 173 175
f 713 542 707
f 707 542 592
f 575 715 716
f 717 578 714
f 716 561 575
f 717 575 578
f 715 575 717
f 563 716 598
f 563 561 716
f 597 577 718
f 719 597 718
f 720 721 722
f 718 577 723
f 723 574 724
f 577 574 723
f 590 594 725
f 726 540 727
f 728 729 730
f 720 728 730
f 728 731 729
f 727 590 725
f 594 573 732
f 725 594 732
f 540 590 727
f 733 568 734
f 722 735 731
f 728 722 731
f 566 568 733
f 734 589 736
f 736 571 737
f 589 571 736
f 568 589 734
f 728 720 722
f 738 587 739
f 739 593 740
f 740 595 741
f 587 593 739
f 729 742 743
f 593 595 740
f 744 541 745
f 745 541 562
f 745 562 746
f 744 596 541
f 746 562 548
f 747 553 748
f 748 553 596
f 743 730 729
f 743 720 730
f 748 596 744
f 747 554 553
f 749 554 747
f 569 554 749
f 750 742 735
f 751 569 749
f 742 729 731
f 742 731 735
f 751 752 569
f 722 721 735
f 569 752 544
f 582 544 753
f 754 582 753
f 753 544 752
f 582 754 755
f 582 755 583
f 756 548 579
f 756 757 548
f 746 548 757
f 338 715 604
f 743 721 720
f 338 598 715
f 598 716 715
f 608 758 609
f 750 743 742
f 759 758 608
f 760 758 759
f 601 760 759
f 615 601 603
f 678 496 675
f 617 602 496
f 496 676 675
f 496 601 676
f 602 601 496
f 604 717 714
f 715 717 604
f 713 449 712
f 449 610 712
f 449 713 707
f 610 604 714
f 714 712 610
f 761 451 705
f 759 761 762
f 759 451 761
f 750 721 743
f 451 759 608
f 601 759 676
f 676 759 762
f 735 721 750
f 761 705 704
f 410 763 616
f 764 763 410
f 611 765 600
f 765 764 600
f 766 765 611
f 767 768 769
f 768 770 769
f 600 764 410
f 653 771 635
f 772 773 635
f 648 516 680
f 774 775 776
f 643 635 773
f 680 679 777
f 769 770 778
f 779 780 767
f 648 771 653
f 781 782 783
f 780 768 767
f 784 785 786
f 787 782 781
f 782 776 788
f 788 762 761
f 789 677 775
f 777 789 790
f 677 777 679
f 774 776 782
f 789 775 790
f 791 781 792
f 793 794 795
f 761 783 788
f 796 787 781
f 797 798 799
f 800 787 796
f 796 781 791
f 777 790 801
f 777 802 680
f 775 774 790
f 803 800 796
f 794 804 805
f 797 799 806
f 802 777 801
f 804 797 806
f 788 783 782
f 803 796 807
f 804 806 805
f 648 680 771
f 794 805 795
f 773 802 808
f 790 774 787
f 808 809 773
f 771 802 772
f 810 783 811
f 629 516 648
f 774 782 787
f 786 803 784
f 810 781 783
f 802 801 808
f 800 790 787
f 797 812 813
f 771 772 635
f 785 784 814
f 808 800 786
f 801 790 800
f 773 809 643
f 771 680 802
f 785 656 786
f 656 785 644
f 676 762 776
f 786 800 803
f 644 785 814
f 674 676 776
f 808 801 800
f 677 674 775
f 775 674 776
f 777 677 789
f 772 802 773
f 643 809 656
f 815 816 817
f 818 819 820
f 815 817 821
f 818 820 822
f 809 808 786
f 502 516 629
f 762 788 776
f 783 761 811
f 811 761 704
f 809 786 656
f 686 685 703
f 703 685 823
f 824 825 792
f 685 690 826
f 827 822 828
f 827 818 822
f 819 821 820
f 829 830 825
f 831 810 811
f 703 824 831
f 703 831 704
f 703 823 824
f 685 826 823
f 690 692 832
f 690 832 826
f 684 533 420
f 533 531 417
f 825 830 792
f 833 834 835
f 533 417 420
f 830 829 836
f 835 784 803
f 837 838 839
f 831 811 704
f 417 840 837
f 417 531 669
f 823 825 824
f 672 841 671
f 691 417 837
f 829 842 836
f 841 672 833
f 840 669 673
f 843 839 838
f 832 692 844
f 832 844 829
f 692 691 844
f 837 673 838
f 837 840 673
f 819 815 821
f 826 832 825
f 838 668 671
f 668 838 673
f 691 839 844
f 834 662 814
f 825 823 826
f 834 672 662
f 662 644 814
f 792 830 791
f 843 833 842
f 792 810 824
f 691 837 839
f 842 829 844
f 832 829 825
f 842 844 843
f 836 807 830
f 810 792 781
f 824 810 831
f 842 833 835
f 807 836 803
f 803 836 835
f 417 669 840
f 838 841 843
f 791 830 807
f 843 841 833
f 784 835 834
f 671 841 838
f 844 839 843
f 784 834 814
f 833 672 834
f 807 796 791
f 836 842 835
f 682 845 683
f 683 845 846
f 683 846 511
f 682 681 845
f 682 499 681
f 845 681 504
f 509 506 847
f 847 506 848
f 848 506 510
f 849 819 818
f 848 510 508
f 850 816 815
f 847 848 508
f 509 847 508
f 851 503 505
f 497 512 852
f 819 850 815
f 512 503 852
f 497 852 851
f 853 818 827
f 851 852 503
f 505 497 851
f 413 854 855
f 427 856 857
f 819 849 850
f 857 858 427
f 854 859 860
f 858 861 427
f 861 862 427
f 862 863 427
f 863 859 427
f 859 864 427
f 427 864 425
f 427 855 856
f 864 421 425
f 854 864 859
f 413 421 864
f 818 853 849
f 413 855 427
f 865 866 867
f 868 869 411
f 870 419 871
f 867 871 872
f 869 872 411
f 411 872 412
f 870 871 867
f 411 419 873
f 411 873 874
f 419 875 873
f 411 874 876
f 871 419 412
f 419 877 875
f 419 870 877
f 871 412 872
f 411 878 868
f 411 879 878
f 411 876 879
f 414 880 415
f 880 416 415
f 422 880 414
f 422 416 880
f 693 694 881
f 740 697 882
f 693 881 738
f 739 740 882
f 883 739 882
f 884 816 885
f 693 738 883
f 741 695 696
f 738 739 883
f 741 696 697
f 694 695 881
f 881 695 741
f 741 697 740
f 737 702 736
f 698 699 886
f 698 886 733
f 884 887 888
f 736 702 889
f 698 733 700
f 700 733 734
f 816 890 885
f 887 891 888
f 890 892 885
f 734 736 889
f 888 891 853
f 886 701 737
f 891 893 853
f 892 887 885
f 885 887 884
f 699 701 886
f 700 734 889
f 737 701 702
f 724 766 723
f 763 764 894
f 763 894 719
f 895 723 766
f 718 723 895
f 763 719 896
f 896 718 895
f 896 719 718
f 894 765 897
f 897 765 766
f 897 766 724
f 764 765 894
f 758 760 898
f 725 615 610
f 758 898 726
f 727 725 610
f 899 727 610
f 758 726 899
f 726 727 899
f 760 601 732
f 898 760 732
f 732 601 615
f 732 615 725
f 900 901 902
f 755 903 756
f 901 904 757
f 901 757 756
f 755 756 905
f 749 747 906
f 904 907 908
f 904 908 757
f 909 910 911
f 900 912 901
f 909 913 910
f 914 751 915
f 916 748 744
f 917 911 918
f 919 745 757
f 920 921 922
f 920 922 912
f 903 923 756
f 751 924 915
f 751 749 906
f 751 906 924
f 755 754 925
f 909 915 913
f 922 914 926
f 927 928 929
f 920 930 931
f 900 930 920
f 929 932 933
f 934 935 928
f 912 922 904
f 936 937 938
f 939 933 934
f 939 938 933
f 940 937 941
f 940 942 937
f 916 744 943
f 911 917 909
f 944 911 910
f 917 907 945
f 908 917 918
f 907 917 908
f 945 907 904
f 901 912 904
f 902 903 928
f 923 902 901
f 918 944 908
f 753 752 754
f 754 946 925
f 754 942 946
f 754 937 942
f 754 752 937
f 926 915 947
f 948 949 950
f 919 943 745
f 752 751 914
f 752 930 927
f 752 927 929
f 752 914 930
f 752 933 938
f 752 938 937
f 752 929 933
f 908 944 757
f 951 952 925
f 925 952 940
f 925 940 755
f 943 744 745
f 922 945 904
f 940 903 755
f 940 936 939
f 940 939 903
f 939 934 903
f 926 909 922
f 926 947 909
f 934 928 903
f 915 924 913
f 930 914 931
f 944 910 919
f 944 919 757
f 928 953 902
f 923 901 756
f 953 954 900
f 950 949 955
f 953 900 902
f 956 950 957
f 745 746 757
f 922 909 917
f 922 917 945
f 950 955 957
f 906 747 748
f 906 748 916
f 860 862 958
f 860 958 861
f 860 861 959
f 959 861 960
f 959 960 961
f 961 960 858
f 961 858 962
f 962 858 963
f 962 963 857
f 962 857 964
f 962 856 965
f 962 964 856
f 949 966 955
f 965 967 854
f 965 856 967
f 854 967 855
f 860 859 968
f 860 968 863
f 860 863 969
f 860 969 862
f 970 867 971
f 970 865 972
f 970 972 867
f 867 973 971
f 971 973 974
f 974 973 872
f 866 865 970
f 975 879 976
f 975 976 876
f 975 876 866
f 866 876 977
f 866 977 874
f 866 874 978
f 866 978 873
f 866 875 979
f 866 979 877
f 866 877 980
f 866 980 870
f 981 869 982
f 981 982 868
f 981 868 983
f 983 868 975
f 975 868 878
f 869 981 984
f 906 916 985
f 986 910 913
f 919 910 986
f 854 860 962
f 962 860 961
f 413 864 854
f 866 970 975
f 975 970 983
f 866 870 867
f 970 974 983
f 983 974 984
f 974 872 984
f 869 984 872
f 944 918 911
f 951 925 946
f 942 951 946
f 940 952 942
f 937 936 941
f 939 936 938
f 940 941 936
f 932 935 934
f 966 806 955
f 932 929 935
f 928 935 929
f 934 933 932
f 957 955 987
f 953 928 927
f 930 953 927
f 900 954 930
f 921 920 931
f 912 900 920
f 921 931 914
f 914 922 921
f 909 947 915
f 915 926 914
f 943 988 916
f 943 919 988
f 919 989 988
f 988 990 991
f 988 991 985
f 988 985 916
f 919 986 989
f 989 986 992
f 989 992 990
f 990 993 991
f 993 994 991
f 993 992 995
f 991 906 985
f 991 994 906
f 995 992 924
f 995 924 994
f 992 986 913
f 992 913 924
f 994 924 906
f 902 923 903
f 996 997 998
f 942 952 951
f 930 954 953
f 990 988 989
f 995 994 993
f 992 993 990
f 613 895 614
f 896 895 613
f 614 766 605
f 895 766 614
f 616 896 613
f 763 896 616
f 605 766 611
f 609 899 610
f 999 998 997
f 758 899 609
f 579 583 905
f 756 579 905
f 905 583 755
f 595 584 741
f 585 587 738
f 741 585 881
f 584 585 741
f 881 585 738
f 737 555 886
f 571 555 737
f 1000 795 805
f 1001 1000 805
f 886 566 733
f 555 566 886
f 1002 1003 805
f 570 550 898
f 1002 1001 1003
f 1000 1001 1002
f 1002 805 1004
f 550 540 726
f 898 550 726
f 732 570 898
f 573 570 732
f 1005 1002 1004
f 552 551 894
f 574 552 897
f 724 574 897
f 551 597 719
f 894 551 719
f 897 552 894
f 1006 795 1007
f 546 564 606
f 612 546 606
f 564 565 606
f 557 560 446
f 430 557 446
f 1000 1005 1008
f 560 543 435
f 795 1000 1008
f 446 560 435
f 437 702 447
f 444 889 437
f 700 889 444
f 889 702 437
f 436 697 431
f 882 697 436
f 428 883 429
f 883 882 429
f 693 883 428
f 429 882 436
f 576 572 445
f 442 576 445
f 556 576 442
f 445 572 441
f 507 511 846
f 845 507 846
f 504 507 845
f 1008 1005 1004
f 681 498 504
f 1009 1010 479
f 479 1010 482
f 1011 1012 1009
f 472 409 1013
f 365 1011 363
f 363 1011 1009
f 1009 1012 1010
f 372 472 1013
f 1013 409 1014
f 371 472 372
f 363 1009 376
f 376 1009 479
f 1011 1015 1012
f 1011 1014 1015
f 372 1013 365
f 1013 1011 365
f 1013 1014 1011
f 1014 1016 1015
f 1010 483 482
f 1017 494 1010
f 1012 1016 1017
f 494 1017 1018
f 1014 396 1016
f 1019 494 1018
f 409 396 1014
f 1016 397 1020
f 396 397 1016
f 1010 494 483
f 1008 1007 795
f 1012 1017 1010
f 1016 1020 1018
f 1016 1018 1017
f 1015 1016 1012
f 1018 1021 1022
f 1021 300 1022
f 480 1023 490
f 1022 300 326
f 473 1023 480
f 1024 324 1023
f 486 305 306
f 1024 1022 326
f 1024 326 324
f 494 1019 489
f 1018 1022 1019
f 491 305 485
f 490 325 491
f 485 305 486
f 1023 324 323
f 1023 325 490
f 301 1021 1025
f 1019 1022 1024
f 1020 1025 1018
f 301 1025 398
f 398 1020 397
f 489 1024 1023
f 382 301 398
f 1020 398 1025
f 1019 1024 489
f 1023 323 325
f 489 1023 473
f 997 1007 999
f 1018 1025 1021
f 1021 301 300
f 491 325 305
f 1026 1027 1028
f 1027 1029 1028
f 1030 1031 1026
f 1026 1028 1030
f 1030 1032 1033
f 1033 1032 1034
f 1035 1030 1036
f 1035 1036 1037
f 999 1007 1008
f 1037 1038 1039
f 1040 1031 1035
f 1034 1032 1041
f 1042 1029 1043
f 1038 1036 1039
f 1032 1029 1041
f 1028 1044 1030
f 1032 1044 1028
f 1032 1045 1029
f 1046 1045 1032
f 1028 1046 1032
f 1029 1046 1028
f 1047 1042 1041
f 1029 1047 1041
f 1048 1049 1041
f 1043 1048 1041
f 1041 1050 1036
f 1036 1050 1039
f 1050 1051 1039
f 1038 1052 1036
f 1036 1052 1037
f 1053 1031 1030
f 1054 1030 1033
f 1030 1054 1055
f 1036 1030 1055
f 1056 1036 1055
f 1033 1034 1057
f 1058 1059 1041
f 1042 1058 1041
f 1043 1058 1042
f 1041 1059 1043
f 1041 1033 1057
f 767 1008 1004
f 999 1008 767
f 1060 1041 1057
f 1034 1041 1060
f 1054 1036 1056
f 1054 1033 1036
f 1061 1041 1036
f 1033 1041 1061
f 1035 1053 1030
f 1062 1053 1035
f 1031 1062 1035
f 1037 1063 1035
f 1040 1063 1037
f 1041 1064 1050
f 1051 1064 1039
f 1039 1064 1041
f 1065 1048 1043
f 1041 1049 1065
f 1043 1039 1065
f 1041 1065 1039
f 1066 1046 1029
f 1045 1066 1029
f 1067 1039 1043
f 1067 1068 1039
f 1027 1043 1029
f 1027 1067 1043
f 1068 1037 1039
f 1068 1040 1037
f 1068 1026 1040
f 1026 1031 1040
f 1069 780 779
f 1070 1069 779
f 778 1071 1072
f 1071 1069 1070
f 1072 1071 1070
f 767 769 778
f 767 778 996
f 999 767 996
f 778 1072 996
f 948 779 767
f 948 950 779
f 996 1072 997
f 997 1072 956
f 1004 966 949
f 779 950 1070
f 1072 1070 956
f 1070 950 956
f 987 1006 1007
f 957 997 956
f 767 949 948
f 1004 949 767
f 957 1007 997
f 987 1007 957
f 793 795 1006
f 1073 987 798
f 1073 1074 987
f 1074 1006 987
f 1004 806 966
f 1074 793 1006
f 797 1073 798
f 805 806 1004
f 1075 794 793
f 804 1076 797
f 1073 797 813
f 1073 813 1074
f 1075 804 794
f 1076 812 797
f 1075 1077 804
f 1077 1076 804
f 1075 793 1078
f 793 1074 813
f 812 1079 813
f 812 817 1079
f 817 1080 1079
f 1080 1081 1079
f 828 822 1078
f 1076 820 821
f 1080 1078 1081
f 1076 821 817
f 1076 817 812
f 1082 1083 1080
f 1083 1078 1080
f 806 798 955
f 1084 1080 817
f 1083 828 1078
f 1083 827 828
f 1084 1082 1080
f 816 1085 817
f 987 955 798
f 1085 1084 817
f 888 1083 1082
f 1085 884 1084
f 888 853 1083
f 884 1082 1084
f 853 827 1083
f 1082 884 888
f 816 884 1085
f 806 799 798
f 849 1086 850
f 849 1087 1086
f 850 890 816
f 1088 890 850
f 1086 1088 850
f 893 1087 849
f 853 893 849
f 1087 1088 1086
f 1081 1078 793
f 822 1075 1078
f 822 1077 1075
f 1077 822 820
f 820 1076 1077
f 1081 793 813
f 1079 1081 813
