v 0.01474601 0.007608563 -0.04434371
v -0.01227537 0.01963793 -0.034964
v 0.001496121 0.02134995 -0.03947085
v -0.005620778 0.01932141 -0.009028167
v 0.01474598 0.0165537 0.04277572
v 0.01474601 -0.02135 -0.01696789
v 0.006746784 -0.0188878 -0.04261389
v 0.009624094 -0.01959881 -0.0168753
v 0.01183234 -0.00276199 0.04255262
v 0.005877972 -0.01713604 -0.01411194
v 0.006269634 -0.01915568 -0.02635106
v 0.01339266 0.007367238 0.04319477
v 0.008058682 0.01705837 -0.04179648
v 0.01172943 0.01749887 0.04329342
v 0.01025642 0.00734213 0.04342699
v -0.01217844 0.0005703568 -0.03566089
v 0.006663159 -0.02016188 -0.04165298
v 0.006962299 -0.02076161 -0.04021299
v 0.006664619 -0.01923591 -0.04252276
v 0.01025549 -0.02122568 -0.0301699
v 0.01117866 0.007319689 0.04416707
v 0.01069209 0.007326126 0.04392651
v 0.01472779 0.01657958 0.04307282
v -0.001774982 -0.01633196 -0.03719151
v -0.001453534 -0.01467237 -0.0397478
v -0.007971525 -0.007959038 -0.03735271
v -0.01366086 0.01007929 -0.03483775
v -0.01474597 0.009969026 -0.03197333
v 0.006641626 -0.01953214 -0.04230896
v 0.01215254 0.0174036 0.04379243
v 0.01410379 0.01682073 0.04388666
v -0.001895577 -0.01578113 -0.0386757
v -0.008700475 -0.009197593 -0.03464508
v -0.014624 0.01002765 -0.03355488
v 0.01272845 0.007333487 0.04401144
v 0.01320219 0.0171136 0.04421404
v -0.001737446 -0.01522779 -0.03938571
v -0.00104773 -0.01000178 -0.01156661
v -0.0130776 0.0001127124 -0.03441384
v -0.01420823 0.01005957 -0.03436884
v 0.01178168 0.007316262 0.04434395
v 0.01262252 0.01727778 0.04403555
v -0.001631007 -0.01497102 -0.03962517
v -0.01269437 0.000344336 -0.03521028
v -0.01317014 -0.0001350641 -0.03284755
v -0.0124812 0.0004507899 -0.03548917
v -0.01398179 0.01007149 -0.03465703
f 1 2 3
f 2 4 3
f 1 5 6
f 7 1 6
f 8 6 9
f 10 8 9
f 8 10 11
f 6 12 9
f 13 1 3
f 13 5 1
f 4 14 3
f 15 14 4
f 1 16 2
f 7 16 1
f 17 7 6
f 18 17 6
f 7 17 19
f 8 20 6
f 20 18 6
f 20 8 11
f 18 20 11
f 21 22 9
f 22 15 9
f 22 14 15
f 5 23 6
f 23 12 6
f 23 13 3
f 13 23 5
f 24 18 11
f 10 24 11
f 24 17 18
f 25 26 7
f 26 16 7
f 16 27 2
f 28 15 4
f 28 4 2
f 17 29 19
f 22 30 14
f 14 30 3
f 23 31 12
f 31 23 3
f 24 32 17
f 32 29 17
f 33 32 24
f 32 33 26
f 34 28 2
f 31 35 12
f 12 35 9
f 36 31 3
f 32 37 29
f 29 37 19
f 37 32 26
f 38 10 9
f 38 24 10
f 38 33 24
f 33 39 26
f 34 39 28
f 40 34 2
f 41 21 9
f 35 41 9
f 41 35 31
f 36 41 31
f 42 22 21
f 42 30 22
f 41 42 21
f 42 41 36
f 30 42 3
f 42 36 3
f 37 43 19
f 43 7 19
f 43 25 7
f 43 26 25
f 43 37 26
f 39 44 26
f 44 39 34
f 40 44 34
f 45 39 33
f 45 38 9
f 38 45 33
f 39 45 28
f 15 45 9
f 28 45 15
f 26 46 16
f 44 46 26
f 47 44 40
f 47 46 44
f 27 47 2
f 47 40 2
f 47 27 16
f 46 47 16
