v -0.003101617 -0.006416678 -0.01025051
v -0.004593864 0.004168093 -0.01179926
v 0.005703375 0.004372418 -0.009502068
v 0.005704135 -0.004759699 -0.007045478
v 0.0007779598 0.006418169 -0.01042774
v -0.00559327 0.0008358359 0.01083124
v -0.005704135 -0.001230955 -0.01129182
v 0.0004837364 -0.006418198 0.0005538762
v -0.003440544 -0.00488162 0.000136748
v -0.003250733 -0.002467483 0.01179928
v 0.0005254745 -0.004220724 0.0117777
v 0.001868263 -0.006275952 -0.007114798
v -0.005691633 0.001708031 -0.0006107092
v -0.005678132 -0.001324981 -0.0004006624
v 0.003462628 -0.005858183 0.000806123
f 1 2 3
f 4 1 3
f 2 5 3
f 5 6 3
f 6 5 2
f 1 7 2
f 8 9 1
f 6 9 10
f 11 4 3
f 9 11 10
f 11 9 8
f 6 11 3
f 11 6 10
f 4 12 1
f 12 8 1
f 13 6 2
f 7 13 2
f 14 9 6
f 13 14 6
f 14 13 7
f 14 7 1
f 9 14 1
f 15 12 4
f 12 15 8
f 11 15 4
f 15 11 8
