v 0.001013488 -0.01342194 -0.02631732
v 0.001013845 -0.02632226 -0.01341234
v 0.0009831488 -0.02089374 -0.02088651
v 0.00101319 0.02052017 0.02051257
v -0.0001771748 -0.02585565 -0.01316632
v 0.0008965433 0.004541412 0.02865918
v 0.0007620454 -0.004537627 0.02866162
v 0.0002494752 -0.004339948 0.02746849
v 0.0005913675 -0.01317234 0.02585903
v 0.0004027784 -0.02051701 0.02052425
v -9.393692e-05 -0.01965071 0.01967187
v 4.515052e-05 0.004537448 -0.02866163
v -8.9854e-05 -0.004541472 -0.02865934
v -0.0004371703 0.004354313 -0.0274534
v -0.0007016361 -0.01847564 0.009441182
v -0.0002746582 -0.02476431 0.01263671
v -0.000235498 0.003284618 0.02021052
v -0.0001835525 0.009273455 0.01818101
v -0.0009993613 -0.009244129 -0.01815176
v -0.0001766682 -0.01317556 -0.02585115
v 0.0005919635 0.02585368 -0.01318103
v 0.0004035532 0.02051698 -0.02052437
v 0.000761658 0.02866046 -0.004547104
v 0.0008964837 0.02866076 0.004531369
v -0.0001549721 0.01443394 0.01452574
v -0.0004322827 0.01850446 -0.009412095
v 8.672476e-05 0.02477883 -0.01262148
v -9.387732e-05 0.01966532 -0.0196574
v 0.0009827316 0.0131755 0.02585146
v 8.699298e-05 -0.01261263 0.02478339
v -9.039044e-05 -0.02866061 -0.004530802
v 4.476309e-05 -0.02866076 0.004547313
v -0.000566572 -0.02745299 -0.004333153
v 0.0002147257 -0.02585383 0.01318164
v 0.0002150834 0.01317166 -0.02585895
v -0.001013845 -0.01440509 -0.01449643
v -0.0006786287 -0.01965325 -0.01964621
v -0.0004371107 -0.02745269 0.004364565
v -0.0008921921 -0.02126302 -0.003289476
v -0.0006502271 -0.02476551 -0.01260732
v -0.0005662739 -0.004343733 -0.02745121
v -0.0002069175 -0.02051987 -0.02051197
v -0.0009330213 -0.003254697 -0.02018075
v -0.0002742112 0.01262774 -0.0247684
v -0.0006650388 0.009840265 -0.01914716
v 0.00048998 0.019668 0.01966055
v 0.0004612505 0.0126303 0.02477564
v -0.0003887117 -0.009812996 0.01917513
v -0.000808984 -0.02059446 0.003471509
v -0.0006492436 -0.01261629 -0.02476062
v -0.0005502701 0.01491888 -0.01463452
v 0.0003782809 0.02746718 0.004348651
v 0.000983417 0.025856 0.01316638
v 0.0003786981 0.004358128 0.02746622
v -0.0005576313 -0.01489072 0.01466312
v -0.0009753406 -0.01832445 -0.00959526
v -0.0008197129 0.003013238 -0.02047376
v 0.000249505 0.02746703 -0.004349783
v 0.0004615486 0.02478038 0.01262207
v -0.0001446009 0.01835282 0.009623751
v -0.000299871 -0.002984419 0.02050272
v -0.0001609623 0.02128996 0.003317609
v -0.0002995431 0.02062272 -0.003443077
f 1 2 3
f 2 1 4
f 2 5 3
f 2 6 7
f 6 8 7
f 9 2 7
f 2 9 10
f 8 9 7
f 10 9 11
f 12 1 13
f 14 12 13
f 15 16 11
f 16 10 11
f 17 18 19
f 15 17 19
f 1 20 13
f 20 1 3
f 21 1 22
f 21 23 1
f 23 24 1
f 18 25 19
f 26 27 28
f 21 27 23
f 28 27 22
f 27 21 22
f 29 2 4
f 29 6 2
f 9 30 11
f 30 9 8
f 31 32 33
f 32 31 2
f 31 5 2
f 34 2 10
f 34 32 2
f 16 34 10
f 34 16 32
f 35 12 14
f 35 28 22
f 1 35 22
f 12 35 1
f 36 15 19
f 37 36 19
f 38 16 15
f 38 39 33
f 32 38 33
f 16 38 32
f 40 37 5
f 40 31 33
f 31 40 5
f 39 40 33
f 40 36 37
f 41 14 13
f 20 41 13
f 5 42 3
f 37 42 5
f 42 20 3
f 42 37 20
f 25 43 19
f 43 25 26
f 43 41 19
f 41 43 14
f 44 45 28
f 45 44 14
f 35 44 28
f 44 35 14
f 46 25 18
f 46 29 4
f 46 47 29
f 47 46 18
f 30 48 11
f 48 30 8
f 36 49 15
f 49 38 15
f 38 49 39
f 50 37 19
f 41 50 19
f 37 50 20
f 50 41 20
f 51 43 26
f 51 26 28
f 45 51 28
f 52 24 23
f 1 53 4
f 24 53 1
f 29 54 6
f 47 54 29
f 6 54 8
f 54 17 8
f 17 54 18
f 54 47 18
f 55 17 15
f 55 15 11
f 48 55 11
f 49 56 39
f 56 49 36
f 56 40 39
f 40 56 36
f 57 51 45
f 51 57 43
f 57 45 14
f 43 57 14
f 27 58 23
f 58 52 23
f 58 27 26
f 59 60 25
f 46 59 25
f 59 46 4
f 53 59 4
f 52 59 24
f 59 53 24
f 55 61 17
f 61 55 48
f 17 61 8
f 61 48 8
f 58 62 52
f 59 62 60
f 62 59 52
f 63 58 26
f 63 62 58
f 62 63 60
f 25 63 26
f 60 63 25
