v -0.00497593 -0.01984227 0.03002459
v -0.005418241 -0.01368535 -0.02820772
v -0.004801542 -0.01488048 -0.02999401
v 0.001277149 -0.01482302 -0.02931517
v 0.0007994026 -0.01769716 -0.02849013
v 0.001519382 -0.01861364 -0.02016145
v 0.002099499 -0.01572937 -0.02189457
v 0.003885835 0.007210374 -0.02871189
v 0.004571408 0.009604096 -0.02400854
v -0.003942519 -0.01930767 0.02877235
v -0.005302399 -0.00545156 0.02881545
v -0.005175248 -0.01768422 0.02865702
v -0.0052156 -0.01366055 -0.03002459
v -0.003008321 0.007559419 -0.02947673
v -0.004302025 0.01534569 0.02922162
v 0.002948567 0.009638906 -0.0278638
v -0.0004301071 0.01446742 -0.01498485
v 0.001323044 0.01891023 0.006527126
v -0.0004739612 0.01881421 0.005441636
v -0.003132612 0.01984233 0.02941626
v 0.003725559 0.01310092 0.01998466
v 0.002571166 0.01703787 0.03001311
v 0.001724228 -0.008592606 0.02496213
v -0.004963905 -0.008776844 -0.02900696
v -0.003928125 0.01820385 0.02930468
v 0.003179073 -0.01225162 -0.006122589
v 0.003247663 -0.009168863 0.007692456
v 0.005418256 0.01585954 -0.002714515
v 0.001195863 -0.006619275 0.02952427
v -0.003212258 0.00753504 -0.027661
v 0.002682626 -0.01334769 -0.01628804
v 0.004998803 0.01734519 0.008264303
v 0.005051345 0.01196951 -0.01749378
v 0.003975481 0.008281112 0.01444241
v 0.001635194 0.01609361 -0.00975275
v 0.0007695258 0.01629621 -0.008895099
f 1 2 3
f 4 5 3
f 1 5 6
f 5 1 3
f 5 7 6
f 7 5 4
f 7 8 9
f 8 7 4
f 10 1 6
f 11 12 1
f 12 2 1
f 2 12 11
f 2 13 3
f 13 4 3
f 8 13 14
f 13 8 4
f 15 2 11
f 15 11 1
f 8 16 9
f 16 8 14
f 17 16 14
f 18 19 20
f 19 14 20
f 19 17 14
f 21 22 23
f 1 22 20
f 13 24 14
f 24 13 2
f 15 24 2
f 25 1 20
f 25 15 1
f 7 26 6
f 26 27 23
f 26 10 6
f 10 26 23
f 26 28 27
f 29 22 1
f 22 29 23
f 10 29 1
f 29 10 23
f 24 30 14
f 30 24 15
f 25 30 15
f 14 30 20
f 30 25 20
f 31 7 9
f 31 26 7
f 28 32 27
f 32 22 21
f 32 28 18
f 32 18 20
f 22 32 20
f 33 28 26
f 33 31 9
f 31 33 26
f 16 33 9
f 34 32 21
f 32 34 27
f 34 21 23
f 27 34 23
f 33 35 28
f 28 35 18
f 35 16 17
f 35 33 16
f 36 19 18
f 35 36 18
f 19 36 17
f 36 35 17
