v 0.006605271 -0.002944998 -0.0780893
v 0.006478976 0.006764356 -0.08165473
v 0.006640676 -0.01675682 0.08165473
v -0.004936934 0.01675682 0.0410828
v -0.005113095 -0.01254184 0.07215762
v 0.004189428 -0.01673329 -0.06582254
v -0.004369617 -0.009192429 -0.05875117
v -0.006111998 -0.01257798 -0.02519363
v -0.006640676 0.00295566 0.02420878
v -0.006353494 0.00326398 -0.0466311
v -0.006032389 0.0008643791 0.05620766
v -0.005019393 0.0162656 -0.00224185
v -0.006583069 0.002724592 0.001657844
v -0.005646873 0.01380301 0.02277035
v -0.005683001 0.01332989 0.03955227
v -0.006288625 0.01095833 0.02528214
f 1 2 3
f 4 5 3
f 2 4 3
f 6 1 3
f 5 6 3
f 7 2 1
f 6 7 1
f 8 6 5
f 8 7 6
f 9 8 5
f 7 10 2
f 8 10 7
f 4 11 5
f 11 9 5
f 12 4 2
f 10 12 2
f 13 8 9
f 13 10 8
f 12 14 4
f 15 11 4
f 16 12 10
f 16 14 12
f 13 16 10
f 16 13 9
f 11 16 9
f 15 16 11
f 14 16 4
f 16 15 4
