v 0.0001705587 -0.006617486 -0.02313912
v 0.002612114 0.002765834 -0.02830076
v 0.003336906 0.005303025 -0.01915598
v -0.0007120669 -0.006384552 -0.02313381
v 0.0004427135 -0.006557882 0.0191049
v 0.00315237 0.003725648 0.01875192
v 0.002007872 -0.0008336306 0.02830076
v -0.003313243 -0.003012419 0.0229606
v -0.003336906 -0.002005458 -0.02431703
v -0.001245916 0.00556767 -0.008766949
v -0.002505809 0.001217008 -0.02756137
v 0.0008727312 0.006062388 0.007920265
v -0.001336932 0.004779696 0.01017755
v -0.0004393458 -0.006323338 0.0191099
v -0.002792895 -0.001104951 0.02602512
v -0.0003754795 0.005439162 -0.01535243
v 0.003031373 0.005690932 0.00017941
v -0.00095281 0.002427578 0.02025598
v 0.00184679 0.006617546 -0.01103926
f 1 2 3
f 4 1 5
f 6 1 3
f 5 6 7
f 1 6 5
f 4 8 9
f 10 11 9
f 11 4 9
f 11 2 1
f 4 11 1
f 12 10 13
f 14 4 5
f 8 14 5
f 14 8 4
f 15 5 7
f 15 8 5
f 10 15 13
f 15 10 9
f 8 15 9
f 16 11 10
f 2 16 3
f 11 16 2
f 17 6 3
f 17 12 6
f 6 18 7
f 18 15 7
f 15 18 13
f 18 12 13
f 12 18 6
f 12 19 10
f 19 16 10
f 16 19 3
f 19 17 3
f 17 19 12
