v 0.00183779 -0.01884741 0.01929033
v 0.002686083 -0.01884526 0.01894259
v 0.002183974 0.01884696 0.0204531
v 0.003785968 0.01876107 0.004798234
v 0.003816128 0.01884738 -0.01696336
v -0.002655566 -0.01880395 0.008264184
v -0.002814651 -0.01870629 -0.0163877
v -0.003346801 0.01325107 0.006696045
v -0.002656519 0.01874638 0.008412242
v -0.003160477 0.01792523 -0.0170902
v -0.003346503 -0.01238272 0.006594837
v -0.002815247 0.01884425 -0.01624018
v 0.002778471 0.01793528 -0.01951158
v -0.003816068 -0.00497511 -0.013946
v 0.003032625 0.0187009 0.01994312
v 0.003658652 -0.01871091 -0.0150708
v 0.00312382 -0.01777816 -0.01880491
v 0.003816068 -0.01778424 -0.01710701
v 0.003815949 -0.01880765 0.009581804
v 0.002434015 0.002367765 -0.02042019
v 0.0024333 -0.005865127 -0.02045304
v -0.003000855 -0.01788038 0.007419884
v -0.003506601 -0.007705033 -0.01803899
v -0.003125191 -0.01872188 -0.01230675
v -0.003506005 0.009687543 -0.01797086
v -0.003664255 0.009678751 -0.01593053
f 1 2 3
f 4 5 3
f 6 1 3
f 6 7 1
f 8 9 10
f 8 11 3
f 9 8 3
f 9 12 10
f 12 13 10
f 13 12 5
f 5 12 3
f 12 9 3
f 8 14 11
f 2 15 3
f 15 4 3
f 7 16 1
f 17 16 7
f 16 17 18
f 4 19 5
f 19 18 5
f 19 15 2
f 15 19 4
f 19 16 18
f 1 19 2
f 16 19 1
f 20 13 5
f 18 20 5
f 20 17 21
f 17 20 18
f 11 22 3
f 22 6 3
f 17 23 21
f 23 17 7
f 24 23 7
f 23 24 14
f 6 24 7
f 22 24 6
f 14 24 11
f 24 22 11
f 13 25 10
f 20 25 13
f 25 20 21
f 23 25 21
f 26 23 14
f 26 25 23
f 26 14 8
f 26 8 10
f 25 26 10
