v 0.01447371 0.005736679 0.04160535
v 0.01345714 -0.004923746 0.03922558
v 0.01345762 -0.004923165 -0.04025635
v -0.01447368 -0.01527011 0.03922573
v -0.004217759 -0.01485342 -0.04025614
v -0.004219271 -0.01485354 0.03922477
v 0.005406618 -0.01128872 -0.04025492
v -0.01429816 0.0152701 0.04160494
v -0.009137057 0.01459803 0.04160514
v -0.01424974 -0.01335137 0.04160464
v -0.01447365 0.006654665 0.04160452
v -0.01429195 -0.01370968 0.04153383
v -0.01440348 -0.0146599 0.04069018
v -0.01447371 -0.01526977 -0.01635435
v -0.004839398 -0.0117502 -0.0407449
v 0.005405188 -0.01128802 0.0392257
v -0.004339479 -0.01425114 0.04068998
v -0.004527219 -0.01331328 0.04153445
v -0.0040299 0.01340801 0.04160523
v 0.0006545112 0.01187626 0.04160541
v -0.004598297 -0.01295918 0.04160532
v 0.004459091 -0.009603992 0.04160544
v 0.004838988 -0.01027823 -0.04160485
v 0.004347861 -0.009403385 -0.04158774
v 0.005281322 -0.01106539 -0.04086608
v 0.0130057 -0.004507497 0.04069
v 0.01203674 -0.00361383 0.04160541
v 0.01230206 -0.003858656 0.04153419
v -0.004467733 -0.01361348 0.04133248
v 0.003912419 -0.008629858 -0.04102042
v -0.004643112 -0.01273365 -0.0415884
v 0.005091742 -0.01072825 -0.04124814
v -0.004817054 -0.01186271 -0.04102033
v 0.01252797 -0.004066169 0.04133224
v 0.006573282 0.009317309 0.04160559
v -0.01432762 -0.01401445 0.04133198
v 0.003856495 -0.008529276 -0.04074496
v -0.004268058 -0.01460272 -0.04086655
v 0.005104423 -0.01075296 0.0406903
v -0.004344232 -0.01422365 -0.04124764
v 0.004636191 -0.009918861 0.04153427
v 0.004786231 -0.01018645 0.04133299
v -0.004445493 -0.0137177 -0.04160559
f 1 2 3
f 4 5 6
f 2 7 3
f 5 7 6
f 8 9 3
f 10 11 12
f 11 10 8
f 13 11 4
f 4 14 5
f 11 14 4
f 15 14 8
f 14 11 8
f 7 16 6
f 16 7 2
f 17 4 6
f 17 13 4
f 18 10 12
f 19 20 3
f 9 19 3
f 19 9 20
f 18 21 10
f 21 18 22
f 10 21 8
f 21 9 8
f 23 24 3
f 7 25 3
f 26 2 1
f 27 28 1
f 17 29 13
f 24 30 3
f 31 30 24
f 32 23 3
f 25 32 3
f 33 14 15
f 33 31 14
f 33 30 31
f 28 34 1
f 34 26 1
f 35 21 22
f 27 35 22
f 9 35 20
f 21 35 9
f 35 27 1
f 35 1 3
f 20 35 3
f 29 36 13
f 11 36 12
f 13 36 11
f 36 18 12
f 36 29 18
f 37 8 3
f 30 37 3
f 37 15 8
f 37 33 15
f 33 37 30
f 38 32 25
f 38 7 5
f 38 25 7
f 14 38 5
f 39 16 2
f 26 39 2
f 16 39 6
f 39 17 6
f 38 40 32
f 40 38 14
f 41 27 22
f 27 41 28
f 18 41 22
f 34 42 26
f 42 39 26
f 42 34 28
f 41 42 28
f 42 29 17
f 39 42 17
f 29 42 18
f 42 41 18
f 32 43 23
f 40 43 32
f 43 24 23
f 43 31 24
f 31 43 14
f 43 40 14
