v 0.002783835 0.03892863 -0.04709911
v 0.002783686 -0.0365967 -0.0462929
v -0.002783194 0.02963597 -0.04709804
v 0.002784282 0.03847986 0.04709911
v -0.002614871 -0.03198633 -0.04490185
v -0.002732918 -0.03536937 -0.01735878
v -0.001774028 0.03713286 -0.04494733
v -0.002784267 0.03892517 -0.03407806
v 0.002753824 -0.03877284 -0.02041012
v 0.002737284 0.01877573 0.04519588
v 0.002719015 -0.002759039 0.03673941
v -0.00251247 -0.01722717 0.01823282
v -0.00274168 0.0082753 0.03927326
v -0.002759323 0.03892335 0.04391998
v -0.002783835 0.03149915 -0.04522401
v 0.002761483 -0.03892861 -0.0322367
v 0.002738446 -0.03671546 -0.008652866
v 0.002712458 -0.03105074 0.00645864
v 0.001910329 -0.002857894 0.03834486
v -0.002524704 -0.02849177 0.0002687573
v -0.00182128 0.02777305 0.04484624
v -0.00253202 -0.01130757 0.02438855
v 0.002708167 -0.02570334 0.01527458
v 0.002698451 -0.01682365 0.02579749
v 0.001910418 -0.005648434 0.03648937
f 1 2 3
f 1 4 2
f 2 5 3
f 5 6 3
f 7 1 3
f 7 8 1
f 4 9 2
f 4 10 11
f 12 13 6
f 14 4 1
f 8 14 1
f 13 14 6
f 15 7 3
f 7 15 8
f 15 14 8
f 6 15 3
f 14 15 6
f 9 16 2
f 16 9 6
f 16 5 2
f 5 16 6
f 17 18 6
f 9 17 6
f 17 4 11
f 17 9 4
f 10 19 11
f 19 10 13
f 18 20 6
f 20 12 6
f 10 21 13
f 21 14 13
f 21 10 4
f 14 21 4
f 12 22 13
f 23 24 12
f 23 20 18
f 20 23 12
f 24 23 11
f 23 17 11
f 17 23 18
f 25 19 13
f 22 25 13
f 19 25 11
f 25 24 11
f 25 22 12
f 24 25 12
