v -0.005364895 -0.03915572 -0.002972141
v -0.004814625 -0.03917506 -0.002934545
v 0.001200318 -0.03930963 -0.002895191
v -0.007909596 -0.03891743 -0.003432289
v 0.001200259 0.04003021 -0.00355649
v -0.004945517 0.03912593 -0.002959728
v -0.009369135 0.0385727 -0.004006043
v -0.01492882 0.0260111 -0.02196498
v -0.01499528 0.03554058 -0.01109552
v -0.01529574 0.02789946 -0.02226397
v -0.01479447 0.03277706 -0.03232203
v -0.0149712 0.03303793 -0.03240651
v -0.01479626 0.03279899 -0.03216726
v -0.01479954 0.03276195 -0.0324223
v -0.01497144 0.03303056 -0.03246008
v -0.01466846 0.0314154 -0.05326793
v -0.01519632 0.03185423 -0.04687652
v 0.01855469 0.03009513 -0.01643074
v 0.01811051 0.03494146 -0.01620156
v 0.01887709 0.03401776 -0.01076004
v 0.01862442 0.03635155 -0.01068924
v 0.01757318 0.03334444 -0.01915032
v 0.01759309 0.02359419 -0.02128308
v -0.01498955 0.03174265 -0.03325444
v -0.01388729 0.03236365 -0.02920313
v -0.01493055 0.03037995 -0.05236806
v -0.01482362 0.03177392 -0.03417514
v 0.01820487 0.03617098 -0.007901073
v 0.0006005168 0.03981511 -0.008331969
v -0.00579983 0.04018845 -0.007149801
v 0.0006005168 0.04052889 -0.005311057
v -0.005131066 0.04031515 -0.004257604
v -0.0141536 0.03681717 -0.01623574
v -0.004366696 0.03915432 -0.002931461
v -0.01296473 0.03813208 -0.008155733
v -0.01259166 0.03862917 -0.01048791
v -0.01566851 0.03548951 -0.01843655
v -0.01488996 0.03538332 -0.02111898
v -0.01713336 0.03078 -0.03859493
v -0.0173474 0.03097009 -0.03156538
v -0.001275778 0.02899942 -0.06803308
v 0.0009816289 0.01755668 -0.06856251
v -0.002346516 0.01980893 -0.0695495
v 0.001140296 0.02924579 -0.06690446
v -0.01497126 0.03303803 -0.03240643
v -0.0082587 0.04012778 -0.005898669
v -0.01700795 0.03204329 -0.02204661
v -0.01581407 0.03471063 -0.0142549
v 0.002008915 0.0238431 -0.06702887
v 0.01042312 -0.0015788 -0.04639107
v 0.005691051 0.02072846 -0.06018791
v 0.01091427 0.01068943 -0.04420009
v -7.307529e-05 0.008164324 -0.06979337
v 0.001949549 0.006070964 -0.06849314
v -0.01222557 0.03740738 -0.006007925
v 0.002987504 0.02880564 -0.06510079
v 0.004050314 0.01853291 -0.06467679
v 0.00567311 0.02913154 -0.05860485
v 0.01295257 0.01087946 -0.03755686
v -0.01656163 0.0316902 -0.03826651
v -0.01666898 0.03073887 -0.05775261
v -0.01739037 0.02897589 -0.05677336
v 0.0006005168 0.03704924 -0.01554857
v -0.01084197 0.03369544 -0.02722567
v 0.0006004572 0.03547913 -0.02014579
v -0.004797697 0.01397232 -0.0703319
v -0.00232935 0.007957913 -0.07047895
v 0.0005993843 0.03385997 -0.02603805
v -0.01402599 0.03158989 -0.06250355
v -0.01399606 0.03133483 -0.05489236
v -0.001749337 -0.002060123 -0.07054935
v -0.004799604 -0.005385332 -0.07079916
v 0.01600432 0.003872707 -0.02793711
v 0.01669484 0.01584503 -0.02511109
v -0.005399585 0.03158817 -0.06435555
v -0.005399406 0.03126995 -0.05746044
v -0.01490206 0.03458474 -0.0100852
v -0.01525956 0.01586752 -0.02815172
v -0.01493138 0.005394682 -0.02896479
v -0.01738393 0.003253423 -0.03703697
v -0.01729161 0.02583476 -0.03189597
v 0.0007881522 -0.001319975 -0.06949274
v -0.01551419 -0.0005016252 -0.03164662
v -0.01708704 -0.002103649 -0.03523104
v -0.01554394 0.01049165 -0.03052381
v -0.01699209 0.01597123 -0.03307249
v -0.004799485 0.02911657 -0.06840977
v 0.003395081 0.007813722 -0.06665649
v -0.01710308 0.02912159 -0.06068791
v -0.01629132 0.02890578 -0.06389409
v -0.01424617 0.0300432 -0.06590295
v -0.01330245 0.02884571 -0.06720504
v 0.01321125 -0.0008920506 -0.03679125
v -0.01136655 0.03079113 -0.06605399
v -0.005399883 0.02909985 -0.06842698
v 0.004510045 0.00104814 -0.06486247
v 0.006106496 -0.0009007677 -0.0607695
v -0.009553254 0.02888394 -0.06825136
v 0.01344508 0.008346587 -0.03607979
v -0.006923676 0.03290909 -0.02618355
v -0.009312034 0.03049204 -0.05712888
v -0.004357338 0.03031427 -0.05753271
v -0.01289827 0.00589513 -0.06973357
v -0.01137447 0.008204386 -0.0701419
v -0.01045382 -0.003824219 -0.07047246
v -0.0169223 0.01397405 -0.06383118
v -0.0129956 0.01959617 -0.06867088
v -0.01600456 0.01114512 -0.06665164
v -0.01551974 0.02119959 -0.0664711
v -0.008718908 0.01226086 -0.07032305
v -0.01720446 -0.008693524 -0.06239767
v -0.007736504 0.01921616 -0.06977065
v -0.005399644 0.01473887 -0.07027258
v -0.005399525 0.00446526 -0.07083565
v 0.00261569 -0.006022446 -0.06778342
v -0.01652849 -0.01037727 -0.06552051
v -0.0173738 -0.02925242 -0.05714218
v -0.01444864 0.007337332 -0.06877299
v 0.00197649 -0.03322145 -0.02610455
v 0.001200795 -0.03394962 -0.02603428
v -0.01203889 -0.03349583 -0.02791265
v -0.01497132 -0.03309755 -0.03238997
v -0.01476109 -0.03290796 -0.03183132
v -0.01479959 -0.03282153 -0.03240596
v -0.01479959 -0.03282162 -0.03240609
v -0.01497132 -0.03309012 -0.03244366
v -0.01482373 -0.03212376 -0.03093204
v -0.01439667 -0.03229467 -0.02985674
v -0.0148778 -0.03201686 -0.03222795
v -0.01464987 -0.03228156 -0.03103207
v -0.0149895 -0.03180268 -0.03323862
v -0.01483911 -0.03181022 -0.03406592
v -0.01539057 -0.03004742 -0.05417453
v -0.01499414 -0.03132629 -0.03729834
v -0.01492286 -0.03125034 -0.03848793
v -0.01483864 -0.03138375 -0.03800708
v -0.015185 -0.03166863 -0.05647962
v -0.01493073 -0.03045089 -0.05233558
v 0.0005992651 -0.03982544 -0.008434668
v 0.0005992651 -0.04052963 -0.005870566
v -0.007761776 -0.04025174 -0.005459815
v 0.0005999207 -0.04043334 -0.004199609
v -0.01464593 -0.03698407 -0.01482454
v -0.01430511 -0.03659472 -0.0170498
v -0.01142502 -0.03918563 -0.00928171
v -0.01265138 -0.03847665 -0.007959113
v -0.01020116 -0.03931059 -0.005345404
v -0.01259702 -0.0372062 -0.006387636
v -0.01738441 -0.03011551 -0.03677057
v -0.01631665 -0.03389619 -0.01672632
v -0.01738209 -0.02925404 -0.0311432
v -0.01615906 -0.03473317 -0.01946166
v -0.01497126 -0.03309779 -0.03239006
v -0.01647538 -0.03148595 -0.04261224
v -0.0146516 -0.03709403 -0.01253542
v -0.01491725 -0.03516106 -0.01059003
v -0.01663607 -0.03091623 -0.05572276
v 0.0006004572 -0.03552366 -0.02015828
v -0.005399466 -0.03167349 -0.06446816
v -0.005399466 -0.03131148 -0.05742727
v -0.01174337 -0.031669 -0.06387569
v -0.01399469 -0.03138486 -0.05476804
v -0.01625764 -0.02899209 -0.06395911
v -0.01501358 -0.02979805 -0.06549568
v -0.01481605 -0.03118806 -0.06340195
v -0.01032388 -0.0289877 -0.06810249
v -0.01271176 -0.02904951 -0.06742857
v -0.005399525 -0.02921438 -0.06840153
v -0.01692867 -0.02911733 -0.06170206
v 0.01483369 0.03298742 -0.02673094
v 0.009720564 0.0308467 -0.04414494
v 0.01250172 0.03374333 -0.02860199
v -0.01552594 -0.0265456 -0.02446458
v -0.01726472 -0.02699798 -0.03090572
v -0.01715595 -0.01524097 -0.03398082
v -0.0151071 -0.008738525 -0.02949293
v -0.01491785 -0.01669369 -0.0259656
v -0.0148946 -0.03468026 -0.0100133
v -0.01140445 -0.0303994 -0.05673735
v -0.01502234 -0.01616098 -0.06762655
v -0.01043737 -0.009918123 -0.07025005
v -0.01325572 -0.009934537 -0.06937498
v -0.005399466 -0.01478221 -0.07026042
v -0.01201415 -0.02273402 -0.06866677
v -0.01490468 -0.003852963 -0.06844121
v -0.005399585 -0.005361997 -0.07080507
v 0.004811704 0.03084252 -0.05915618
v 0.001452804 0.03158635 -0.06200857
v 0.008703351 0.03219666 -0.04119222
v -0.001963675 0.0303975 -0.06699926
v -0.01413178 -0.02282837 -0.06762968
v 0.002244115 0.03008728 -0.06526658
v 0.0006004572 -0.03654815 -0.01584981
v 0.01868695 -0.00774046 -0.0271851
v 0.01609808 -0.005087428 -0.02772997
v 0.01865536 0.0006085262 -0.02786566
v 0.01865435 0.02188127 -0.02217601
v 0.01867092 0.01260342 -0.02605654
v 0.01693022 -0.01843242 -0.02405934
v 0.0186764 -0.01867089 -0.02380818
v 0.01774257 -0.02510022 -0.02043745
v 0.01846981 -0.02936052 -0.01709957
v 0.01885033 0.007229231 -0.02629098
v 0.01883316 -0.03439458 -0.01034425
v 0.00929606 -0.03201256 -0.03276871
v 0.007441163 -0.0325959 -0.02799366
v 0.009335876 -0.03144459 -0.03626712
v 0.00920403 -0.03205454 -0.03187455
v 0.004498124 -0.03044961 -0.05274625
v 0.008818746 -0.0312105 -0.03854828
v 0.007454574 -0.03256778 -0.02829598
v 0.008082151 -0.03243817 -0.02911039
v 0.009002924 -0.03216746 -0.03115027
v 0.001401186 -0.03036025 -0.05715872
v 0.001101375 -0.03010093 -0.05735396
v -0.005704641 -0.03035595 -0.0584674
v -0.01194131 -0.03006055 -0.05762769
v 0.00133729 -0.03040735 -0.05613063
v -0.004799485 -0.03102182 -0.05734773
v -0.004799485 -0.03102177 -0.05736004
v -0.004799485 -0.03104702 -0.05948888
v -0.004799485 -0.02951899 -0.06830029
v -0.004799426 -0.0305376 -0.06713922
v 0.001200616 -0.04056408 -0.005416885
v 0.001200318 -0.03622862 -0.01799808
v 0.001201034 -0.04015078 -0.00748606
v 0.01256841 -0.04013035 -0.006707683
v 0.01178813 -0.03955111 -0.003482804
v 0.01563168 -0.03631466 -0.01798268
v 0.01653886 -0.03837165 -0.01035984
v 0.01509351 -0.0396129 -0.006198391
v 0.01449811 -0.03893115 -0.004099503
v 0.01763594 -0.03582761 -0.01626106
v 0.01728296 -0.03732127 -0.006205514
v 0.01767468 -0.03795618 -0.007606134
v 0.01852751 -0.0358139 -0.01320566
v 0.01784325 -0.03355977 -0.01822023
v 0.008105874 -0.03444792 -0.02413456
v 0.01250303 -0.03379928 -0.02860002
v 0.007052839 -0.03361213 -0.02798288
v 0.009013653 -0.0322744 -0.03724663
v 0.007723629 -0.03203985 -0.04438578
v 0.004079819 -0.03145977 -0.05353691
v 0.003028035 -0.03165715 -0.05935146
v -0.0007400513 -0.03121959 -0.05683474
v 0.004752576 -0.03108212 -0.05866735
v 0.01231956 -0.03172929 -0.0352499
v 0.01377469 -0.03077626 -0.03174408
v 0.005639911 -0.02927861 -0.05867232
v 0.002508879 -0.03023025 -0.06485359
v 0.004139304 -0.02924153 -0.06284641
v 0.001800418 -0.02925766 -0.06638293
v 0.0002980232 -0.03065453 -0.06597607
v 0.0001283884 -0.02902163 -0.06755207
v -0.003342867 -0.02902044 -0.06835811
v 0.009071589 -0.03148347 -0.03700085
v 0.01564991 0.03628891 -0.01791324
v 0.01744026 0.0371289 -0.01315373
v 0.009358644 -0.03192036 -0.03356709
v 0.0134517 -0.008769393 -0.03604114
v 0.01308823 -0.01060085 -0.03707141
v 0.01149166 -0.01047432 -0.03646934
v 0.01188993 -0.008330069 -0.03578098
v 0.01126158 -0.01104249 -0.04305162
v 0.009188831 -0.01096372 -0.04367962
v 0.004891515 -0.01586435 -0.06308208
v 0.00585115 -0.01568888 -0.0603521
v 0.0007320642 -0.01735799 -0.06872983
v 0.002978563 -0.01741045 -0.06660055
v -0.002682745 -0.01340956 -0.07020676
v 0.01066118 -0.01013127 -0.0450933
v -0.004799485 -0.01450624 -0.07028092
v -6.711483e-05 -0.01109546 -0.06964003
v 0.008636475 -0.008573219 -0.04563221
v 0.008441269 0.0009067655 -0.04623975
v 0.01161695 0.01039121 -0.03668025
v 0.008719385 0.008652985 -0.04555023
v 0.01188499 0.008876137 -0.03580229
v 0.009848237 0.01077434 -0.04255261
v 0.0004467964 0.03129999 -0.05662689
v 0.002425075 0.03032983 -0.05547613
v 0.004523396 0.0313227 -0.05223832
v 0.009073436 0.0320782 -0.03140421
v 0.007281899 0.03253879 -0.02816294
v 0.00921607 0.03202821 -0.03227654
v 0.01396263 0.03913258 -0.003949448
v 0.01098084 0.04033253 -0.004742399
v 0.00919354 0.03130653 -0.03702502
v -0.004799485 0.03094972 -0.05737534
v -0.004799604 0.03095087 -0.05733889
v -0.004799545 0.0309749 -0.05956747
v 0.01151896 0.0398031 -0.008161008
v 0.001200557 0.04022321 -0.007104293
v 0.004476786 0.0303761 -0.05283158
v 0.008983374 0.03219732 -0.03737603
v 0.004634321 0.03381925 -0.02659081
v 0.008447111 0.03325763 -0.02970836
v 0.001200259 0.03578392 -0.01917185
v 0.01475179 0.03956274 -0.007316783
v 0.01786542 0.03764129 -0.007732287
f 1 2 3
f 4 1 3
f 5 6 7
f 8 9 10
f 11 12 13
f 11 14 12
f 15 12 14
f 16 17 14
f 18 19 20
f 19 21 20
f 22 18 23
f 24 25 26
f 26 27 24
f 26 16 14
f 20 21 28
f 27 26 14
f 22 19 18
f 25 27 14
f 29 30 31
f 30 32 31
f 31 32 5
f 30 29 33
f 5 32 34
f 9 35 36
f 37 38 39
f 37 33 38
f 37 39 40
f 33 36 30
f 41 42 43
f 44 42 41
f 39 38 45
f 30 36 46
f 46 32 30
f 37 40 47
f 37 47 48
f 34 7 6
f 44 49 42
f 50 51 52
f 53 42 54
f 37 48 9
f 35 55 7
f 33 37 9
f 49 56 57
f 56 49 44
f 36 35 46
f 57 58 51
f 36 33 9
f 46 7 32
f 35 7 46
f 56 58 57
f 51 59 52
f 32 7 34
f 60 17 61
f 39 62 40
f 39 61 62
f 60 45 17
f 45 60 39
f 61 39 60
f 63 33 29
f 64 13 38
f 65 38 33
f 66 43 67
f 38 13 45
f 13 12 45
f 38 65 68
f 63 65 33
f 64 38 68
f 45 15 14
f 45 14 17
f 69 17 16
f 69 16 70
f 66 71 72
f 73 59 74
f 75 70 76
f 69 70 75
f 77 55 35
f 43 53 67
f 77 35 9
f 78 79 8
f 66 67 71
f 40 80 81
f 71 53 82
f 83 79 78
f 84 83 85
f 85 83 78
f 80 86 81
f 87 43 66
f 84 85 86
f 22 51 58
f 81 8 10
f 85 78 86
f 80 84 86
f 78 8 86
f 42 88 54
f 67 53 71
f 86 8 81
f 81 47 40
f 10 9 48
f 48 47 10
f 47 81 10
f 89 61 90
f 90 91 92
f 73 93 59
f 92 91 94
f 95 94 75
f 90 61 69
f 91 90 69
f 91 69 94
f 96 51 97
f 94 98 92
f 94 69 75
f 95 98 94
f 61 89 62
f 99 59 93
f 61 17 69
f 64 25 13
f 100 25 64
f 13 25 14
f 68 100 64
f 101 76 70
f 26 101 70
f 16 26 70
f 102 76 101
f 103 104 105
f 89 90 106
f 104 103 107
f 107 98 104
f 108 90 109
f 104 98 110
f 111 89 106
f 110 98 112
f 110 113 114
f 51 74 59
f 22 23 51
f 111 62 89
f 53 54 82
f 106 90 108
f 110 112 113
f 112 98 95
f 54 115 82
f 106 108 116
f 113 112 95
f 62 111 117
f 104 110 114
f 90 92 109
f 51 23 74
f 42 49 88
f 88 57 96
f 109 92 107
f 118 109 107
f 118 107 103
f 49 57 88
f 109 118 108
f 107 92 98
f 43 42 53
f 51 50 97
f 119 120 121
f 121 122 123
f 124 123 122
f 125 124 122
f 122 126 125
f 127 128 121
f 115 88 96
f 129 127 130
f 131 129 132
f 54 88 115
f 133 134 135
f 57 51 96
f 87 41 43
f 127 131 134
f 133 135 136
f 132 136 134
f 129 125 132
f 132 125 136
f 133 136 125
f 133 125 137
f 138 133 137
f 139 140 141
f 141 140 142
f 142 3 2
f 143 144 145
f 143 145 146
f 147 4 148
f 148 146 147
f 146 145 147
f 4 141 142
f 145 139 141
f 149 150 151
f 152 153 143
f 150 149 152
f 152 154 153
f 4 147 141
f 150 152 155
f 143 155 152
f 155 156 150
f 156 155 146
f 145 144 139
f 141 147 145
f 4 142 2
f 143 146 155
f 117 157 154
f 154 126 153
f 154 125 126
f 117 154 152
f 117 152 149
f 154 137 125
f 144 121 120
f 122 121 153
f 120 158 144
f 144 158 139
f 144 143 121
f 121 143 153
f 159 160 161
f 137 161 162
f 162 161 160
f 163 164 165
f 166 164 167
f 157 165 137
f 166 168 159
f 154 157 137
f 165 169 163
f 165 157 169
f 165 161 137
f 165 164 166
f 166 161 165
f 166 159 161
f 117 169 157
f 62 117 80
f 80 149 151
f 62 80 40
f 117 149 80
f 170 171 172
f 156 173 150
f 173 174 150
f 150 174 151
f 175 174 173
f 176 175 173
f 79 83 177
f 83 175 176
f 83 84 175
f 177 83 176
f 84 80 175
f 177 173 156
f 175 80 174
f 176 173 177
f 80 151 174
f 8 77 9
f 8 79 77
f 79 178 77
f 79 177 178
f 177 156 178
f 178 156 146
f 148 178 146
f 123 130 121
f 129 130 123
f 125 129 123
f 179 138 162
f 160 179 162
f 162 138 137
f 164 163 180
f 181 182 105
f 183 184 181
f 180 185 182
f 186 105 114
f 169 117 111
f 185 180 108
f 105 104 114
f 184 182 181
f 183 181 186
f 187 188 189
f 190 44 41
f 184 191 182
f 169 111 116
f 105 182 103
f 180 116 108
f 182 185 103
f 185 118 103
f 185 108 118
f 116 111 106
f 186 181 105
f 192 44 190
f 191 180 182
f 163 116 180
f 168 166 183
f 166 167 184
f 167 191 184
f 163 169 116
f 167 164 191
f 166 184 183
f 164 180 191
f 193 140 139
f 193 139 158
f 120 193 158
f 95 114 113
f 29 31 63
f 68 65 63
f 194 195 196
f 74 23 197
f 198 74 197
f 44 192 56
f 199 195 194
f 200 199 194
f 73 74 198
f 196 73 198
f 201 199 200
f 195 73 196
f 201 200 202
f 23 18 197
f 203 18 20
f 197 18 203
f 198 197 203
f 196 198 203
f 194 196 203
f 200 194 203
f 200 203 204
f 202 200 204
f 205 206 207
f 205 208 206
f 206 120 119
f 209 207 210
f 211 120 206
f 212 206 213
f 214 215 216
f 58 56 192
f 171 187 189
f 133 138 217
f 209 215 214
f 209 214 218
f 214 216 179
f 179 216 217
f 179 217 138
f 219 160 220
f 159 221 160
f 160 221 220
f 168 222 223
f 159 168 223
f 224 225 226
f 193 120 225
f 193 225 224
f 140 193 224
f 140 224 3
f 140 3 142
f 224 226 227
f 3 224 228
f 228 224 227
f 227 229 230
f 227 231 228
f 232 228 231
f 233 230 229
f 234 232 235
f 235 230 233
f 236 233 237
f 235 232 231
f 235 231 230
f 235 236 204
f 236 235 233
f 226 229 227
f 230 231 227
f 120 238 225
f 238 239 229
f 229 226 225
f 240 238 120
f 239 238 240
f 229 225 238
f 241 239 240
f 242 243 244
f 243 242 241
f 242 239 241
f 245 219 243
f 170 22 171
f 243 219 159
f 244 243 159
f 242 246 247
f 248 247 249
f 246 242 244
f 246 250 251
f 251 250 252
f 253 244 159
f 253 223 254
f 223 222 255
f 247 248 233
f 239 247 233
f 247 239 242
f 247 246 251
f 249 247 251
f 250 246 244
f 252 253 254
f 252 250 253
f 244 253 250
f 233 248 237
f 223 255 254
f 229 239 233
f 253 159 223
f 234 235 204
f 237 201 202
f 236 202 204
f 236 237 202
f 208 205 240
f 213 208 240
f 87 190 41
f 212 213 240
f 211 212 240
f 120 211 240
f 256 209 241
f 207 256 241
f 172 257 258
f 259 207 241
f 172 258 170
f 205 259 241
f 240 205 241
f 22 170 19
f 241 209 243
f 188 187 192
f 245 214 219
f 243 218 245
f 209 218 243
f 219 179 160
f 214 179 219
f 260 261 262
f 260 262 263
f 261 264 262
f 265 262 264
f 251 266 267
f 268 252 254
f 252 268 269
f 261 199 201
f 201 248 267
f 201 267 261
f 261 195 199
f 75 192 190
f 254 270 268
f 261 267 264
f 261 260 195
f 271 267 97
f 260 93 195
f 267 271 264
f 188 192 75
f 269 268 115
f 254 255 270
f 270 222 272
f 273 270 71
f 269 115 266
f 201 237 248
f 270 272 72
f 273 71 82
f 115 268 82
f 93 73 195
f 268 270 273
f 97 266 96
f 271 97 50
f 270 72 71
f 268 273 82
f 255 222 270
f 248 249 267
f 267 249 251
f 266 115 96
f 192 187 58
f 171 189 172
f 269 251 252
f 267 266 97
f 251 269 266
f 186 66 72
f 58 187 171
f 186 72 183
f 183 72 272
f 183 272 222
f 183 222 168
f 50 274 271
f 271 274 265
f 271 265 264
f 50 275 274
f 59 99 276
f 52 277 50
f 99 93 278
f 260 263 93
f 276 99 278
f 279 52 276
f 52 59 276
f 58 171 22
f 275 50 277
f 277 52 279
f 280 281 282
f 283 284 285
f 5 286 287
f 287 31 5
f 284 100 68
f 283 288 284
f 289 76 290
f 291 75 76
f 291 76 289
f 66 186 114
f 66 114 95
f 66 95 87
f 31 287 292
f 87 95 75
f 75 291 290
f 159 219 221
f 293 31 292
f 102 281 280
f 102 280 290
f 281 294 282
f 102 290 76
f 288 282 294
f 295 282 288
f 284 296 297
f 285 284 297
f 284 68 296
f 288 285 295
f 295 285 297
f 31 293 298
f 68 63 298
f 298 63 31
f 75 190 87
f 258 257 299
f 258 300 21
f 258 21 19
f 258 19 170
f 299 287 286
f 299 286 300
f 299 300 258
f 300 286 28
f 28 21 300
f 287 299 292
f 299 257 292
f 292 257 293
f 257 298 293
f 75 280 188
f 290 280 75
f 280 282 188
f 282 189 188
f 189 282 295
f 257 172 296
f 172 297 296
f 295 172 189
f 298 257 68
f 68 257 296
f 172 295 297
