v 0.005271852 7.387996e-05 0.006237
v 0.005407393 0.005185187 0.00410983
v -0.005407512 0.001277223 0.003544539
v 0.004042 -0.006146505 -0.004743725
v 0.005407363 -0.005611226 0.004658163
v -0.004428566 -0.004588783 -0.00491032
v 0.005407453 0.003093779 -0.006237119
v 0.003213704 -0.002354443 -0.006147593
v -0.005002081 -0.0008520931 -0.003365189
v -0.005393386 0.001498416 -4.956126e-05
v 0.005001098 0.006146505 -0.001785368
v -0.005271941 -0.001700357 0.004143745
f 1 2 3
f 4 5 6
f 5 4 7
f 2 5 7
f 5 2 1
f 8 6 7
f 4 8 7
f 8 4 6
f 6 9 7
f 9 10 7
f 11 2 7
f 10 11 7
f 2 11 3
f 11 10 3
f 5 12 6
f 10 12 3
f 12 1 3
f 12 5 1
f 12 9 6
f 9 12 10
