v -0.004440866 -0.01940303 0.02602237
v -0.004563361 0.01966773 -0.02567554
v -0.004560634 -0.02140914 0.02504563
v -0.0003736913 -0.02385804 0.02703428
v 0.002253056 -0.02019124 0.0276944
v -0.001090191 0.01992014 0.02716953
v -0.00278578 0.01355384 -0.02523541
v -0.002292283 -0.01703285 0.01057303
v -0.0007705241 0.02411944 0.02040929
v 0.001407273 0.02124141 -0.02794349
v 0.003876336 0.02409823 0.001809359
v -0.002828531 0.006790802 0.02644497
v -0.001894005 0.01945455 0.0266878
v -0.002728865 -0.02376677 0.02456182
v 0.000221841 -0.01475701 0.005563438
v 0.0004443079 -0.02210662 0.02160037
v 0.003529713 0.003993511 0.02803057
v 0.003532805 0.01102093 -0.01989168
v 0.001066744 0.0192347 -0.02803051
v 0.004560493 0.0118645 0.01418507
v 0.004130386 0.02322745 0.001872003
v -0.003106222 0.01617545 -0.027192
v -0.001395009 0.01119432 -0.02395153
v 0.001005061 0.004729137 -0.01771593
v -0.001612552 0.02382381 0.02016968
v -0.001220509 -0.02411944 0.02682304
v 0.002701275 0.005252808 -0.01729167
v 0.004481114 0.01082656 7.724762e-05
v 0.002470337 0.02088974 -0.02391672
v 0.004095465 -0.01118138 0.01311266
v 0.004563361 -0.005319774 8.541346e-05
v 0.004436664 -0.001210302 -0.008399189
v 0.003921978 0.006648183 -0.01604509
v 0.003751613 0.003993362 0.02714151
v 0.003070004 -0.01843937 0.0222581
v 0.002921581 -0.01957086 0.0203312
v 0.003820457 -0.007590309 -0.001980424
v 0.004446007 -0.007329732 -0.0008829236
v 0.004017383 -0.0134497 0.008390427
v 0.002420746 -0.01659486 0.01081133
f 1 2 3
f 4 5 6
f 7 8 3
f 2 9 10
f 9 11 10
f 11 9 6
f 12 13 2
f 1 12 2
f 13 12 6
f 12 1 6
f 14 8 15
f 8 14 3
f 16 14 15
f 5 17 6
f 18 19 10
f 20 21 6
f 21 11 6
f 2 22 3
f 22 7 3
f 22 2 10
f 19 22 10
f 8 23 15
f 7 23 8
f 23 24 15
f 23 22 19
f 22 23 7
f 13 25 2
f 25 9 2
f 25 13 6
f 9 25 6
f 26 16 4
f 16 26 14
f 14 26 3
f 26 1 3
f 1 26 6
f 26 4 6
f 18 27 19
f 23 27 24
f 27 23 19
f 28 21 20
f 29 18 10
f 29 21 18
f 11 29 10
f 21 29 11
f 30 31 20
f 31 28 20
f 28 31 32
f 21 33 18
f 28 33 21
f 33 28 32
f 27 33 32
f 33 27 18
f 34 35 30
f 34 30 20
f 34 17 5
f 35 34 5
f 34 20 6
f 17 34 6
f 36 35 5
f 36 5 4
f 16 36 4
f 24 37 15
f 27 37 24
f 37 27 32
f 31 38 32
f 38 37 32
f 35 39 30
f 36 39 35
f 39 31 30
f 39 38 31
f 38 39 37
f 37 40 15
f 39 40 37
f 40 16 15
f 40 36 16
f 40 39 36
