v 0.0106042 -0.02844407 -0.1110381
v 0.01130091 -0.003879368 0.1208018
v -0.008378066 -0.02817138 0.1149768
v 0.004270747 0.01147889 -0.1175867
v 0.0003047585 0.02844396 -0.08897918
v -0.0006894991 0.004397109 0.08496356
v -0.009569146 0.02010059 -0.07201505
v -0.01130086 -0.01412077 0.09630489
v 0.001272969 0.01937291 -0.1116196
v -0.002554812 -0.004961029 -0.1165411
v 0.003974795 0.003424615 0.1030867
v 0.004847474 -0.002376094 -0.1208014
v 0.00012438 -0.02600318 -0.1030172
v -0.0108645 -0.0161227 0.09203351
v -0.009208076 -0.01862268 0.0421266
v -0.0006165653 0.02650532 -0.0976094
v -0.006880306 0.01776603 -0.1037661
v -0.005702928 -0.01816419 -0.08850706
v -0.0100289 0.002239868 -0.06982088
v -0.00792376 -0.006571412 -0.08508742
v -0.008561909 0.001364425 -0.09469748
f 1 2 3
f 2 1 4
f 5 2 4
f 6 5 7
f 8 6 7
f 9 5 4
f 10 9 4
f 5 11 2
f 11 5 6
f 8 11 6
f 2 11 3
f 11 8 3
f 1 12 4
f 12 10 4
f 10 12 1
f 13 10 1
f 13 1 3
f 14 15 3
f 8 14 3
f 5 16 7
f 9 16 5
f 17 9 10
f 16 17 7
f 17 16 9
f 13 18 10
f 15 18 3
f 18 13 3
f 19 8 7
f 14 19 15
f 19 14 8
f 19 18 15
f 18 19 20
f 21 17 10
f 18 21 10
f 21 18 20
f 19 21 20
f 17 21 7
f 21 19 7
