v 0.001375601 0.0002140403 0.01286829
v -0.001639992 0.009934902 0.003410757
v 0.0008305907 -0.01002991 0.02825809
v -0.001391634 0.009915844 -0.01975495
v -0.0003317595 -7.927418e-05 -0.02825069
v -0.0012196 -0.0001850426 -0.02769315
v -0.001336977 -0.0001992434 -0.02741945
v -0.001457244 -0.000212118 -0.02684766
v -0.001800105 -0.009443037 -0.02684349
v 0.00180009 0.000180617 -0.02689654
v 0.0006297082 0.004928708 -0.01443338
v 0.0006639808 4.048645e-05 -0.02825809
v 0.001173005 0.0001025125 -0.02789479
v -0.00168103 -0.009466439 -0.02741462
v 0.001419604 -0.01007661 -0.02689278
v 0.001174942 -0.01002754 -0.02750462
v 0.001552343 0.0001491904 -0.02750951
v -0.001082197 0.01007661 -0.01675439
v 0.000469178 0.005161121 -0.004371107
v -0.0006873608 -0.0096604 -0.02824703
v 0.0002970099 -0.009853914 -0.02825332
v -0.001564786 -0.009488441 -0.02768838
v 0.0008002669 -0.009953246 -0.02789056
f 1 2 3
f 4 5 6
f 7 4 6
f 4 7 8
f 2 9 3
f 7 9 8
f 4 9 2
f 9 4 8
f 10 11 1
f 12 4 13
f 12 5 4
f 9 14 3
f 14 7 6
f 14 9 7
f 14 15 3
f 15 14 16
f 15 1 3
f 15 10 1
f 4 17 13
f 10 17 4
f 17 15 16
f 15 17 10
f 18 4 2
f 18 10 4
f 18 11 10
f 1 19 2
f 11 19 1
f 19 18 2
f 18 19 11
f 12 20 5
f 5 20 6
f 14 21 16
f 20 21 14
f 21 20 12
f 22 14 6
f 20 22 6
f 22 20 14
f 23 12 13
f 23 21 12
f 21 23 16
f 17 23 13
f 23 17 16
