v 8.109212e-05 -0.007823884 -0.01842129
v 0.003369302 -0.01780909 -0.02494013
v -0.001345843 -0.01821956 -0.02464658
v -0.003542006 -0.01016083 0.02494013
v 0.00421387 0.01518077 0.02009088
v 0.004315197 0.01805988 0.02006251
v -0.0008464754 -0.0199745 -0.02477646
v -0.00275439 -0.005096436 -0.01484793
v -0.003102422 -0.01523489 -0.0204078
v -0.004311621 -0.01229814 0.01196456
v -0.004315495 -0.0003566146 -0.00783354
v -0.004050136 -0.02217662 0.005294025
v 0.002820998 -0.008998126 0.02046096
v 0.00326547 -0.020486 -0.002287686
v 0.001228511 -0.02279541 0.02088261
v 0.004315495 -0.0186882 -0.0223617
v 0.002192706 0.01981032 0.0140174
v -0.003799409 -0.02305633 0.005229294
v 0.002008349 -0.007309377 -0.0179832
v 0.001975149 0.02305636 0.0206787
v -0.002006441 0.02088994 0.02172732
v -0.003665984 -0.009990156 -0.01648951
v -0.002352595 0.006528884 -0.003635049
v -0.003131419 0.01111081 0.02107501
v -0.003452003 0.01538596 0.0136143
v -0.00406611 -0.00904876 0.02038819
v 0.002438724 -0.02151012 0.008298814
v -0.002454042 -0.02074587 -0.0205785
v 0.0003816187 -0.02305362 0.0211066
v -0.002472073 0.01677233 0.01147366
v 0.0004986823 0.01517802 0.005981147
v -0.004229665 0.007504404 0.00156337
v 0.0004643798 0.02104238 0.01635462
f 1 2 3
f 4 5 6
f 2 7 3
f 8 1 3
f 9 8 3
f 10 11 12
f 13 14 5
f 13 4 15
f 4 13 5
f 16 7 2
f 17 16 2
f 16 17 6
f 5 16 6
f 14 16 5
f 18 4 12
f 1 19 2
f 19 17 2
f 17 20 6
f 4 20 21
f 20 4 6
f 11 22 12
f 22 9 12
f 8 22 11
f 22 8 9
f 23 8 11
f 8 23 1
f 23 19 1
f 24 4 21
f 25 24 21
f 4 26 12
f 26 10 12
f 24 26 4
f 26 24 25
f 14 27 15
f 27 13 15
f 13 27 14
f 7 28 3
f 28 9 3
f 16 28 7
f 18 28 16
f 9 28 12
f 28 18 12
f 29 16 14
f 29 18 16
f 29 14 15
f 4 29 15
f 18 29 4
f 30 25 21
f 19 31 17
f 23 31 19
f 30 31 23
f 10 32 11
f 26 32 10
f 32 26 25
f 30 32 25
f 32 23 11
f 32 30 23
f 33 31 30
f 20 33 21
f 33 30 21
f 33 20 17
f 31 33 17
