v 0.002871573 -0.002814114 2.62243e-06
v 0.001858473 -0.003281832 -0.003886581
v 7.456541e-05 0.005409777 -0.00392428
v -0.002871335 0.005652845 0.005980253
v -0.002871454 0.005649626 -0.005980343
v -0.002871364 -0.005651176 0.00399974
v 7.426739e-05 0.005412459 0.003925771
v -0.002869546 -0.005653054 -0.003994912
v 0.001197815 0.005319476 1.162116e-06
v -0.0008057952 -0.00450626 0.005938023
v -0.0008053184 -0.004508406 -0.005932689
v 0.001857281 -0.003280193 0.003891706
f 1 2 3
f 4 5 6
f 2 5 3
f 7 5 4
f 5 8 6
f 8 1 6
f 8 2 1
f 9 1 3
f 9 7 1
f 5 9 3
f 7 9 5
f 10 4 6
f 11 5 2
f 8 11 2
f 11 8 5
f 7 12 1
f 1 12 6
f 12 10 6
f 12 7 4
f 10 12 4
