v 0.0002648234 0.01446486 -0.0126344
v 0.002121419 -0.01495805 -0.02565646
v -0.002927363 -0.01439419 -0.01100159
v 0.002978712 -0.01504946 -0.0253588
v 0.003795356 -0.01419652 -0.01352042
v 0.003666461 -0.01505542 0.01444304
v 0.002541006 0.01346135 -0.001502514
v 0.003795415 0.01428783 0.0230087
v 0.0001288652 0.01490608 -0.01128042
v -0.003097266 0.01502368 0.02350622
v -0.002910614 0.01303929 0.0002290606
v -0.003224522 -0.01431912 0.01493609
v 0.001226902 0.01358378 -0.0116151
v 0.003795445 -0.01415479 0.01156014
v -0.003554076 0.01505542 0.01369351
v 0.002460271 -0.0138908 0.01669055
v 0.001173526 -0.005265892 0.02057755
v 0.0006617904 0.01402187 0.02565652
v -0.003747612 -0.002331465 0.02008772
v 0.003076255 -0.01414084 -0.02536011
v 0.002146661 0.001493007 0.02226675
v -0.003574163 0.007737219 0.02265507
v -0.003795475 0.00499934 0.0168978
v 0.0003998876 0.008715868 0.02468443
v -0.003124833 -0.01345372 -0.01014513
v -0.00096488 0.0141249 0.02496415
f 1 2 3
f 2 4 3
f 5 6 4
f 5 7 8
f 9 10 8
f 7 9 8
f 11 9 1
f 4 12 3
f 6 12 4
f 9 13 1
f 13 9 7
f 6 14 8
f 14 5 8
f 5 14 6
f 9 15 10
f 15 9 11
f 16 12 6
f 16 17 12
f 10 18 8
f 17 19 12
f 20 13 7
f 20 5 4
f 5 20 7
f 13 20 1
f 20 2 1
f 2 20 4
f 18 21 8
f 16 21 17
f 21 6 8
f 21 16 6
f 22 23 19
f 15 22 10
f 23 22 15
f 24 19 17
f 21 24 17
f 24 21 18
f 24 22 19
f 23 25 19
f 12 25 3
f 19 25 12
f 25 23 15
f 25 15 11
f 25 1 3
f 25 11 1
f 26 18 10
f 22 26 10
f 26 24 18
f 24 26 22
