v 0.002800614 0.001660466 0.0248546
v -0.003029555 -0.0006994605 0.02282453
v 0.001604736 -0.008123234 0.01818079
v 0.001328558 -0.008173138 -0.0241102
v 0.001383811 -0.007651761 -0.02485466
v 0.003225416 0.007387727 -0.01448321
v 0.0006896555 -0.008004501 0.0181495
v 0.003306001 0.00658977 0.01270378
v 0.002395302 0.006697863 0.01271039
v 3.415346e-05 0.001744121 0.02359945
v -0.003305972 -0.002954423 0.02127707
v -0.002675205 0.00265491 0.01625019
v -0.002606362 0.004720539 -0.01116991
v -0.001693696 0.00492543 -0.01651448
v -0.003157914 0.0005219877 -0.01960731
v 0.002441376 0.008173168 -0.007347286
v -0.003269941 -0.0005053878 -0.0180881
v 0.0004122257 -0.008048058 -0.02403742
v -0.002599001 0.003442943 0.01346141
f 1 2 3
f 4 5 6
f 7 4 3
f 8 9 1
f 8 1 3
f 4 8 3
f 8 4 6
f 1 10 2
f 9 10 1
f 2 11 3
f 11 7 3
f 10 12 2
f 12 10 9
f 12 11 2
f 13 14 15
f 5 14 6
f 15 14 5
f 16 8 6
f 8 16 9
f 14 16 6
f 16 14 13
f 12 17 11
f 17 13 15
f 17 12 13
f 7 18 4
f 11 18 7
f 17 18 11
f 18 17 15
f 4 18 5
f 18 15 5
f 19 12 9
f 12 19 13
f 16 19 9
f 19 16 13
