v 0.00660526 -0.002945013 -0.07808924
v 0.006478973 0.006764356 -0.08165473
v 0.00664068 -0.01675681 0.08165479
v -0.004936948 0.01675681 0.04108286
v -0.005113084 -0.01254183 0.07215762
v 0.004189432 -0.01673329 -0.06582248
v -0.004369624 -0.009192448 -0.05875117
v -0.006112002 -0.01257801 -0.02519345
v -0.006640684 0.002955645 0.02420884
v -0.006353501 0.003263965 -0.04663104
v -0.0060324 0.0008643679 0.05620772
v -0.005019389 0.0162656 -0.002241731
v -0.006583057 0.002724599 0.001657844
v -0.005646881 0.013803 0.0227704
v -0.005683016 0.01332989 0.03955227
v -0.006288633 0.01095832 0.02528214
f 1 2 3
f 4 5 3
f 2 4 3
f 6 1 3
f 5 6 3
f 7 2 1
f 6 7 1
f 8 6 5
f 8 7 6
f 9 8 5
f 7 10 2
f 8 10 7
f 4 11 5
f 11 9 5
f 12 4 2
f 10 12 2
f 13 8 9
f 13 10 8
f 12 14 4
f 15 11 4
f 16 12 10
f 16 14 12
f 13 16 10
f 16 13 9
f 11 16 9
f 15 16 11
f 14 16 4
f 16 15 4
