v -0.002747297 0.004576325 -0.01602945
v -0.001831621 0.005493999 -0.0132781
v 0.002748549 0.00091362 -0.0160293
v 0.002747208 -0.0009157658 -0.01602942
v -0.002748549 -0.006412268 -0.01602978
v 0.002747655 0.001830101 0.005033493
v 0.001831293 -0.001830876 0.01602784
v -0.001831383 0.006410897 0.004120111
v -0.002748042 0.004577518 0.01602978
v -2.682209e-07 0.004576325 0.01144674
v -0.001832694 -0.006411612 -0.01602936
v 0.001831412 0.00183022 0.01602918
v 0.002747089 0.002746701 -0.008698791
v -0.00274846 0.006412268 0.004119992
v -0.00274846 -0.006411493 0.01602852
v -0.001832694 -0.006411374 0.01602945
f 1 2 3
f 4 1 3
f 4 5 1
f 6 4 3
f 4 6 7
f 8 9 10
f 4 11 5
f 12 6 10
f 6 12 7
f 9 12 10
f 6 13 10
f 13 8 10
f 13 6 3
f 2 13 3
f 8 13 2
f 8 14 9
f 5 14 1
f 14 2 1
f 14 8 2
f 14 5 15
f 9 14 15
f 16 4 7
f 16 11 4
f 12 16 7
f 5 16 15
f 11 16 5
f 16 9 15
f 16 12 9
