v -0.003178731 0.01459914 -0.03355986
v 0.002907425 0.01258934 -0.03329808
v 0.0005005747 -0.02008526 -0.02064896
v -0.00228931 -0.02156238 0.03341746
v -0.0004607141 -0.01927976 -0.02008533
v -0.002018631 -0.009852201 -0.02376235
v -0.004016429 0.01219577 -0.03251123
v -0.003856331 0.01916468 0.01721168
v -0.004009068 0.01848012 0.01551741
v 0.003096759 0.01687098 0.01751083
v 0.003316671 0.01978152 0.01233518
v -0.00301908 0.02156238 0.01616508
v 0.003159821 0.01149975 0.01968056
v 0.00232099 -0.005029261 0.02292174
v 0.003440708 -0.002653509 0.01033711
v -1.92523e-05 0.02111515 -0.005951405
v -0.002259135 0.01871097 -0.02340227
v -0.0002864748 0.02156065 0.004242361
v 0.003960103 0.01818886 -0.01483381
v -0.003167316 -0.02065662 0.03227925
v -0.002217695 -0.02080916 0.03355992
v 0.003248274 0.008023545 -0.03148025
v 0.003473654 -0.007676944 -0.02193731
v 0.003743023 0.01989864 0.003331959
v 0.003291145 0.01430555 -0.02906162
v 0.003987491 -0.002845511 -0.003774583
v -0.002672046 -0.003403813 -0.02631509
v -0.003685206 -0.008369252 0.02636123
v 0.003555059 0.00939782 -0.02808666
v 0.004016429 0.01932894 -0.007378697
v -0.003090769 -0.02031225 0.03313184
v 0.00372842 -0.005794778 -0.01708204
f 1 2 3
f 4 5 3
f 5 6 3
f 7 1 3
f 7 8 1
f 8 7 9
f 10 11 12
f 10 13 11
f 13 14 15
f 14 4 3
f 15 14 3
f 16 17 12
f 17 8 12
f 8 17 1
f 11 18 12
f 18 16 12
f 19 17 16
f 20 5 4
f 5 20 6
f 14 21 4
f 21 14 13
f 8 21 12
f 21 10 12
f 10 21 13
f 2 22 3
f 22 23 3
f 24 18 11
f 18 24 16
f 13 24 11
f 19 25 17
f 25 2 1
f 17 25 1
f 25 22 2
f 26 15 3
f 23 26 3
f 26 13 15
f 26 24 13
f 20 27 6
f 27 20 7
f 6 27 3
f 27 7 3
f 7 28 9
f 20 28 7
f 28 8 9
f 22 29 23
f 29 25 19
f 25 29 22
f 30 19 16
f 24 30 16
f 30 26 19
f 26 30 24
f 28 31 8
f 31 28 20
f 31 21 8
f 31 20 4
f 21 31 4
f 26 32 19
f 32 29 19
f 32 26 23
f 29 32 23
