v -3.549457e-05 -0.007442832 0.02747232
v 0.0006561577 -0.006747007 -0.02244562
v 0.003212363 0.003254116 -0.02597415
v 0.002951026 0.002227187 -0.02747229
v 0.003184378 0.00610429 0.01397586
v 0.002936453 0.007442772 0.0161075
v -0.003491163 0.001431942 0.0213539
v -0.001002878 -0.006765723 0.02541697
v -0.003622144 0.0009175539 0.020603
v -0.0008589029 0.002254248 -0.02570134
v -0.002003402 0.005593598 -0.01207405
v 0.003629506 0.007171273 -0.003543854
v -0.0003406405 -0.006182611 -0.02112982
v -0.003629506 -0.0008710623 -0.02307293
v -0.002767146 0.002317667 -0.02316669
v -0.002418131 0.00524056 0.0174284
v 0.00284043 0.005643427 -0.01968825
v -0.001710624 0.007215858 0.00135386
f 1 2 3
f 2 4 3
f 5 1 3
f 5 6 1
f 6 7 1
f 7 8 1
f 8 7 9
f 4 10 3
f 7 11 9
f 12 5 3
f 5 12 6
f 13 2 1
f 8 13 1
f 10 14 15
f 13 14 2
f 2 14 4
f 14 10 4
f 11 14 9
f 14 11 15
f 14 8 9
f 14 13 8
f 16 7 6
f 17 12 3
f 10 17 3
f 17 10 15
f 11 17 15
f 18 11 7
f 16 18 7
f 18 16 6
f 12 18 6
f 18 17 11
f 17 18 12
