v 0.0006894171 0.01513499 0.02910167
v 0.005041242 -0.01513496 0.02918321
v 0.00587365 0.014285 0.0277499
v -0.005586922 -0.006521419 0.02934259
v 0.005871922 -0.004289001 -0.01350158
v 0.005024821 0.01461092 -0.02934259
v 0.004043579 0.01282308 -0.02931392
v 0.005643934 -0.01263805 0.004275739
v -0.00548622 -0.003789455 0.02932441
v 0.003782451 -0.008881569 -0.0009146333
v -0.005859166 -0.002992213 0.008347988
v -0.0003868043 0.01393083 -0.02467
v -0.005678654 0.01508358 -0.01727563
v -0.004836172 0.01413009 -0.01911682
v -0.0005173385 0.007582277 -0.01916379
v -0.005873621 0.005111396 -0.008100212
v -0.005607694 0.01510361 -0.01363331
v -0.005840003 -0.00388968 0.01109058
v 0.003931731 -0.01425005 0.01733828
v -0.003956795 -0.007547215 0.02110553
v 0.004039973 -0.01512517 0.02463692
f 1 2 3
f 1 4 2
f 5 6 3
f 6 5 7
f 6 1 3
f 2 8 3
f 8 5 3
f 9 4 1
f 10 8 11
f 8 10 5
f 6 12 13
f 12 14 13
f 12 6 7
f 5 15 7
f 15 12 7
f 12 15 14
f 14 16 13
f 16 9 13
f 15 16 14
f 16 15 5
f 16 10 11
f 10 16 5
f 17 9 1
f 9 17 13
f 6 17 1
f 17 6 13
f 8 18 11
f 19 18 8
f 20 18 19
f 18 20 4
f 9 18 4
f 18 16 11
f 16 18 9
f 4 21 2
f 21 8 2
f 21 19 8
f 20 21 4
f 21 20 19
