v -0.0005353987 0.004793629 -0.02309588
v -0.0005353838 -0.004793622 -0.02309316
v -0.0005354136 -0.004609756 0.02309588
v -0.0005353391 0.004627615 0.02309397
v 0.0005354136 0.004619107 -0.02165362
v 0.0005347729 -0.004618503 -0.02165222
v 0.0003266782 -0.004654497 -0.02250525
v 0.0004352927 0.004636645 -0.02222982
v 0.00043419 -0.00463599 -0.02222708
v 0.0003280342 0.004655212 -0.02250651
f 1 2 3
f 4 1 3
f 5 4 3
f 2 6 3
f 6 5 3
f 7 2 1
f 7 6 2
f 6 8 5
f 7 9 6
f 9 8 6
f 8 9 7
f 10 7 1
f 10 8 7
f 8 10 5
f 4 10 1
f 5 10 4
