v -0.003636815 -0.003748454 0.01354067
v -0.004670434 -0.002042092 0.01364934
v -0.004758455 -0.002042048 0.008475721
v -0.003729425 -0.003748514 0.008093774
v -0.005019359 -7.450581e-09 0.01371607
v -0.005104192 -2.235174e-08 0.008724511
v -0.005341955 -2.235174e-08 0.00361377
v -0.005021103 -0.0021502 0.003183261
v -0.004003249 -0.003906913 0.002476946
v 0.00385908 0.003748558 0.01341319
v 0.004896037 0.002042003 0.01348659
v 0.004808031 0.002042003 0.008312985
v 0.003766499 0.003748484 0.007966235
v 0.005246975 -7.450581e-09 0.01354139
v 0.005162038 -7.450581e-09 0.008549839
v 0.005230404 2.235174e-08 0.003433898
v 0.004893638 0.002150051 0.003014579
v 0.003850006 0.003906943 0.002343357
v -0.003636755 0.003748484 0.01354077
v -0.001931034 0.004783891 0.01348129
v -0.002025194 0.004783951 0.007943302
v -0.00372941 0.003748454 0.008093759
v 0.0001106933 0.00513386 0.01344654
v 1.650304e-05 0.005133845 0.007908568
v -8.504838e-05 0.005165346 0.001941413
v -0.002233095 0.004876979 0.002080515
v -0.004003279 0.003906839 0.002476975
v 0.003859185 -0.003748499 0.01341324
v 0.002152421 -0.004783951 0.01341182
v 0.002058186 -0.004783966 0.007873908
v 0.003766559 -0.003748514 0.00796625
v 0.0001106784 -0.005133905 0.01344657
v 1.648813e-05 -0.005133875 0.007908583
v -8.506328e-05 -0.005165361 0.001941338
v 0.0020665 -0.004877008 0.002007246
v 0.003849871 -0.003906973 0.002343342
v -0.005577333 -0.002474554 0.000919044
v -0.004580952 -0.004382141 -3.173947e-05
v -0.005831547 3.72529e-08 0.001409218
v -0.006428294 -6.705523e-08 0.0005659163
v -0.0062593 -0.002714209 7.712841e-05
v -0.005599521 -0.005234458 -0.001201183
v 0.005382009 0.002474509 0.0007325709
v 0.004344307 0.004382201 -0.0001835227
v 0.005659215 -2.235174e-08 0.001213744
v 0.006310411 -3.72529e-08 0.0003612936
v 0.006116919 0.002714209 -0.0001213849
v 0.005372293 0.005234428 -0.001380131
v -0.002608649 0.005156182 -0.0009235442
v -0.004580893 0.004382141 -3.175437e-05
v -0.0001414046 0.005259685 -0.001375735
v -0.0001710877 0.005455963 -0.003114477
v -0.003010087 0.00558164 -0.002416268
v -0.005599476 0.005234413 -0.001201227
v 0.002339683 -0.005156137 -0.001007721
v 0.004344292 -0.004382171 -0.0001835525
v -0.0001415089 -0.00525976 -0.00137572
v -0.0001711175 -0.005455978 -0.003114447
v 0.002690203 -0.005581714 -0.00251326
v 0.005372293 -0.005234383 -0.001380146
v -0.007312499 -0.003949039 -0.002669975
v -0.007439278 -0.002376176 -0.002057701
v -0.007822461 -0.002477206 -0.003149971
v -0.007607944 -0.004560165 -0.003775418
v -0.007473014 3.72529e-08 -0.001553521
v -0.007851057 -7.450581e-09 -0.002594218
v -0.008030735 5.215406e-08 -0.00406979
v -0.008035339 -0.002669759 -0.004592359
v -0.007891573 -0.00494013 -0.005247802
v 0.007445224 0.003948979 -0.00291048
v 0.007621534 0.002376102 -0.002374187
v 0.007921226 0.002477102 -0.003899679
v 0.007744305 0.00456024 -0.00409694
v 0.007643096 -3.72529e-08 -0.001943305
v 0.007876925 -2.235174e-08 -0.00363262
v 0.007905774 -2.235174e-08 -0.005528986
v 0.00801786 0.002669774 -0.005625516
v 0.007960908 0.00494013 -0.005647317
v -0.003295951 0.006113701 -0.003745228
v -0.00578884 0.006369866 -0.003091216
v -0.0001920238 0.005792908 -0.004346564
v -0.0002142414 0.00604149 -0.005651996
v -0.003528945 0.006522305 -0.005285591
v -0.006161891 0.006975509 -0.004906878
v 0.002930619 -0.006113686 -0.003851324
v 0.005523048 -0.006369852 -0.003271714
v -0.0001919642 -0.005792819 -0.004346594
v -0.0002141818 -0.006041519 -0.00565204
v 0.003111146 -0.00652235 -0.005398542
v 0.005834125 -0.006975494 -0.005098924
v -0.008182205 -0.00492584 -0.009191915
v -0.007944889 -0.002657376 -0.009135872
v -0.007710867 -0.002318479 -0.01125139
v -0.007806636 -0.004293986 -0.01109324
v -0.007703505 3.72529e-08 -0.009148166
v -0.007554628 3.72529e-08 -0.01147443
v -0.007302113 -7.450581e-09 -0.01341768
v -0.007326879 -0.002064548 -0.01305063
v -0.007364146 -0.003557228 -0.01249343
v 0.008182131 0.004925735 -0.009406075
v 0.008032583 0.002657391 -0.009391323
v 0.007752128 0.002318464 -0.01137517
v 0.007748432 0.004294001 -0.01126289
v 0.00779555 -7.450581e-09 -0.009435445
v 0.007605709 5.215406e-08 -0.01157157
v 0.007169507 -2.235174e-08 -0.01356356
v 0.007202424 0.002064519 -0.01320298
v 0.007192619 0.003557228 -0.01266149
v -0.006660722 0.006916486 -0.009644017
v -0.00385683 0.006215416 -0.009752527
v -0.003615595 0.005371772 -0.01193416
v -0.006228678 0.006004147 -0.0119696
v -0.0002848879 0.005564399 -0.009805471
v -0.0003191903 0.004792579 -0.01182093
v -0.0003448948 0.00359755 -0.01333216
v -0.003314726 0.004022814 -0.01364513
v -0.005704038 0.004486494 -0.01389152
v 0.006171606 -0.006916486 -0.009850308
v 0.00328692 -0.006215401 -0.009874061
v 0.002971597 -0.005371846 -0.01204617
v 0.005660735 -0.006004177 -0.01215984
v -0.0002848729 -0.005564414 -0.009805545
v -0.0003191456 -0.004792623 -0.0118209
v -0.0003448948 -0.003597595 -0.01333222
v 0.002612643 -0.004022785 -0.01374595
v 0.005070888 -0.004486538 -0.01406287
v -0.003220432 0.002143823 -0.01457348
v -0.005541809 0.00238847 -0.01513448
v -0.000356473 0.001919575 -0.01401494
v -0.000358738 2.235174e-08 -0.01414922
v -0.003224991 -7.450581e-09 -0.01484205
v -0.005551331 -7.450581e-09 -0.01558606
v -0.004670449 0.002041973 0.01364936
v -0.004758455 0.002041988 0.008475631
v -0.005021103 0.002150156 0.003183156
v 0.004896052 -0.002042063 0.01348661
v 0.004807986 -0.002042077 0.008312926
v 0.004893593 -0.002150171 0.00301455
v -0.005577378 0.002474509 0.0009189993
v -0.006259315 0.002714209 7.720292e-05
v 0.005382054 -0.002474539 0.0007326007
v 0.006116979 -0.002714194 -0.0001213849
v -0.007439278 0.002376132 -0.002057612
v -0.007822491 0.002477132 -0.003149942
v -0.007312469 0.003949009 -0.00266999
v -0.007607915 0.004560195 -0.003775313
v -0.007891528 0.004940055 -0.005247831
v -0.008035339 0.002669685 -0.004592374
v 0.007621475 -0.002376117 -0.002374262
v 0.007921256 -0.002477236 -0.003899679
v 0.007445209 -0.003948994 -0.002910405
v 0.007744245 -0.004560195 -0.004096925
v 0.007960849 -0.00494016 -0.005647317
v 0.008017845 -0.002669759 -0.005625531
v -0.00794486 0.002657406 -0.009135887
v -0.007710882 0.002318524 -0.01125135
v -0.00818219 0.004925705 -0.009191915
v -0.007806592 0.004293971 -0.01109317
v -0.007364146 0.003557272 -0.01249348
v -0.007326923 0.002064534 -0.01305075
v 0.008032598 -0.002657495 -0.009391338
v 0.007752083 -0.002318524 -0.01137517
v 0.008182146 -0.004925765 -0.00940609
v 0.007748403 -0.004293971 -0.01126295
v 0.00719256 -0.003557287 -0.01266147
v 0.007202409 -0.002064504 -0.01320285
v 0.004860647 2.235174e-08 -0.01575118
v 0.004866578 -0.002388366 -0.0152995
v 0.002486922 -0.002143823 -0.01467055
v 0.002482302 -5.215406e-08 -0.01493914
v -0.0003565326 -0.001919545 -0.01401497
v 0.0001106933 0.00513386 0.01344654
v 0.00215245 0.004783846 0.01341188
v 0.002058215 0.004783921 0.007873863
v 1.650304e-05 0.005133845 0.007908568
v 0.002066545 0.004877008 0.002007335
v -8.504838e-05 0.005165346 0.001941413
v -0.001930989 -0.004783951 0.01348126
v -0.002025284 -0.004783966 0.007943347
v -0.002233066 -0.004876979 0.0020805
v 0.002339713 0.005156137 -0.001007706
v -0.0001414046 0.005259685 -0.001375735
v 0.002690159 0.005581655 -0.0025132
v -0.0001710877 0.005455963 -0.003114477
v -0.00260862 -0.005156197 -0.0009235591
v -0.003010072 -0.005581714 -0.002416283
v 0.002930664 0.006113701 -0.003851175
v -0.0001920238 0.005792908 -0.004346564
v 0.005523123 0.006369852 -0.003271699
v 0.005834185 0.00697542 -0.005098924
v 0.003111161 0.00652232 -0.005398542
v -0.0002142414 0.00604149 -0.005651996
v -0.003295995 -0.006113671 -0.003745332
v -0.005788825 -0.006369837 -0.003091246
v -0.006161951 -0.006975405 -0.004906908
v -0.00352899 -0.006522305 -0.005285606
v -0.0002848879 0.005564399 -0.009805471
v 0.003286876 0.006215386 -0.009874061
v 0.002971582 0.005371846 -0.01204617
v -0.0003191903 0.004792579 -0.01182093
v 0.006171592 0.006916456 -0.009850293
v 0.00566069 0.006004132 -0.01215979
v 0.005070888 0.004486524 -0.0140629
v 0.002612613 0.00402274 -0.0137459
v -0.0003448948 0.00359755 -0.01333216
v -0.0038568 -0.006215371 -0.009752557
v -0.003615566 -0.005371891 -0.01193413
v -0.006660782 -0.00691653 -0.009644076
v -0.006228693 -0.006004117 -0.01196957
v -0.005704053 -0.004486553 -0.01389156
v -0.003314711 -0.004022665 -0.01364513
v 0.002486907 0.002143778 -0.01467058
v -0.000356473 0.001919575 -0.01401494
v 0.004866488 0.002388395 -0.01529944
v -0.003220461 -0.002143823 -0.01457351
v -0.005541779 -0.00238838 -0.01513442
v -0.007921837 -7.450581e-09 -0.006467178
v -0.008064665 -0.002752177 -0.00675191
v -0.008146696 -0.005101599 -0.007148311
v 0.007887028 7.450581e-09 -0.007442355
v 0.008087985 0.002752163 -0.007465497
v 0.00817994 0.005101569 -0.007475644
v -0.0002475306 0.005973049 -0.007610485
v -0.003771923 0.006577484 -0.00741221
v -0.006545506 0.007198952 -0.00719054
v -0.0002475306 -0.005973063 -0.007610485
v 0.003281586 -0.006577574 -0.007532194
v 0.006139882 -0.007198937 -0.007394269
v -0.00814677 0.005101569 -0.007148355
v -0.00806462 0.002752177 -0.006751969
v 0.008179925 -0.005101584 -0.007475629
v 0.008088045 -0.002752177 -0.007465482
v 0.006139882 0.007198922 -0.007394269
v 0.003281631 0.006577484 -0.007532179
v -0.0002475306 0.005973049 -0.007610485
v -0.006545521 -0.007198982 -0.007190466
v -0.003771938 -0.006577514 -0.007412195
v -0.006899096 0.002568223 -0.0009485632
v -0.006987147 -3.72529e-08 -0.0004609078
v -0.006855823 0.004674055 -0.002056077
v -0.007078074 0.005854838 -0.003428519
v -0.007441588 0.006411709 -0.005123451
v -0.007822104 0.006645374 -0.007198468
v -0.007928334 0.006416045 -0.009409279
v -0.007469095 0.005583696 -0.01151097
v -0.006920151 0.004177071 -0.01327842
v -0.006757163 0.002224915 -0.01448596
v -0.006772347 2.235174e-08 -0.01494977
v -0.006757192 -0.002224945 -0.01448591
v -0.006920137 -0.004176982 -0.01327841
v -0.00746914 -0.005583696 -0.01151098
v -0.007928349 -0.006416 -0.009409204
v -0.007822134 -0.006645434 -0.007198513
v -0.007441573 -0.006411724 -0.005123451
v -0.007077999 -0.005854897 -0.003428519
v -0.006855898 -0.00467401 -0.002056152
v -0.006899111 -0.002568342 -0.0009485632
v 0.006941758 -0.002568357 -0.001135886
v 0.00704626 -7.450581e-09 -0.0006515533
v 0.006860845 -0.00467401 -0.002241433
v 0.007036261 -0.005854823 -0.003620565
v 0.007341869 -0.006411679 -0.005326778
v 0.007651545 -0.006645344 -0.007413715
v 0.007682569 -0.006416015 -0.009626746
v 0.007152073 -0.005583711 -0.01171157
v 0.006543346 -0.004177101 -0.01345935
v 0.006339438 -0.002224885 -0.01466063
v 0.006338783 3.72529e-08 -0.01512466
v 0.006339453 0.002224915 -0.01466058
v 0.006543286 0.004177026 -0.01345934
v 0.007152148 0.005583636 -0.01171158
v 0.007682569 0.00641609 -0.009626731
v 0.007651575 0.006645434 -0.0074137
v 0.007341839 0.006411709 -0.005326778
v 0.007036202 0.005854882 -0.00362058
v 0.00686083 0.00467407 -0.002241328
v 0.006941728 0.002568223 -0.001135901
v -0.004638039 -0.002042077 0.01555735
v -0.004987814 -6.705523e-08 0.01556334
v -0.003602766 -0.003748484 0.01553974
v -0.00303451 -0.00318297 0.01568297
v -0.003438734 -0.001531519 0.01574333
v -0.004259445 3.72529e-08 0.01570381
v 0.004928477 0.002041988 0.01539457
v 0.005278341 7.450581e-09 0.01538862
v 0.003893144 0.003748499 0.01541218
v 0.003330283 0.003182806 0.01557468
v 0.003736146 0.001531489 0.01562129
v 0.004555114 -7.450581e-09 0.01555391
v -0.001896478 0.004783906 0.01551072
v 0.0001452193 0.005133875 0.01547597
v -0.003602751 0.003748514 0.01553972
v -0.00303454 0.003182806 0.01568298
v -0.001382597 0.003587924 0.01570842
v 0.0001477823 0.00440789 0.01562883
v 0.002187006 -0.004783921 0.01544119
v 0.0001452193 -0.005133905 0.01547597
v 0.003893204 -0.003748499 0.01541221
v 0.003330238 -0.003182881 0.01557471
v 0.001680069 -0.003587984 0.01565628
v 0.0001477972 -0.004407965 0.01562883
v -0.004638009 0.002041988 0.0155573
v -0.003438719 0.001531519 0.01574337
v 0.004928432 -0.002042063 0.0153946
v 0.003736116 -0.001531459 0.01562124
v 0.002186961 0.004783921 0.01544116
v 0.0001452193 0.005133875 0.01547597
v 0.0001477823 0.00440789 0.01562883
v 0.001680128 0.003587954 0.01565629
v -0.001896434 -0.004783951 0.01551069
v -0.001382552 -0.003587939 0.01570833
v -0.00303451 -0.00318297 0.01568297
v -0.001382552 -0.003587939 0.01570833
v 0.000149928 -3.72529e-08 0.01575117
v -0.003438734 -0.001531519 0.01574333
v 0.0001477972 -0.004407965 0.01562883
v 0.001680069 -0.003587984 0.01565628
v 0.003330238 -0.003182881 0.01557471
v 0.003736116 -0.001531459 0.01562124
v 0.004555114 -7.450581e-09 0.01555391
v 0.003736146 0.001531489 0.01562129
v 0.003330283 0.003182806 0.01557468
v 0.001680128 0.003587954 0.01565629
v 0.0001477823 0.00440789 0.01562883
v -0.001382597 0.003587924 0.01570842
v -0.00303454 0.003182806 0.01568298
v -0.003438719 0.001531519 0.01574337
v -0.004259445 3.72529e-08 0.01570381
f 1 2 3
f 1 3 4
f 5 6 3
f 5 3 2
f 7 8 3
f 7 3 6
f 9 4 3
f 9 3 8
f 10 11 12
f 10 12 13
f 14 15 12
f 14 12 11
f 16 17 12
f 16 12 15
f 18 13 12
f 18 12 17
f 19 20 21
f 19 21 22
f 23 24 21
f 23 21 20
f 25 26 21
f 25 21 24
f 27 22 21
f 27 21 26
f 28 29 30
f 28 30 31
f 32 33 30
f 32 30 29
f 34 35 30
f 34 30 33
f 36 31 30
f 36 30 35
f 9 8 37
f 9 37 38
f 7 39 37
f 7 37 8
f 40 41 37
f 40 37 39
f 42 38 37
f 42 37 41
f 18 17 43
f 18 43 44
f 16 45 43
f 16 43 17
f 46 47 43
f 46 43 45
f 48 44 43
f 48 43 47
f 27 26 49
f 27 49 50
f 25 51 49
f 25 49 26
f 52 53 49
f 52 49 51
f 54 50 49
f 54 49 53
f 36 35 55
f 36 55 56
f 34 57 55
f 34 55 35
f 58 59 55
f 58 55 57
f 60 56 55
f 60 55 59
f 61 62 63
f 61 63 64
f 65 66 63
f 65 63 62
f 67 68 63
f 67 63 66
f 69 64 63
f 69 63 68
f 70 71 72
f 70 72 73
f 74 75 72
f 74 72 71
f 76 77 72
f 76 72 75
f 78 73 72
f 78 72 77
f 54 53 79
f 54 79 80
f 52 81 79
f 52 79 53
f 82 83 79
f 82 79 81
f 84 80 79
f 84 79 83
f 60 59 85
f 60 85 86
f 58 87 85
f 58 85 59
f 88 89 85
f 88 85 87
f 90 86 85
f 90 85 89
f 91 92 93
f 91 93 94
f 95 96 93
f 95 93 92
f 97 98 93
f 97 93 96
f 99 94 93
f 99 93 98
f 100 101 102
f 100 102 103
f 104 105 102
f 104 102 101
f 106 107 102
f 106 102 105
f 108 103 102
f 108 102 107
f 109 110 111
f 109 111 112
f 113 114 111
f 113 111 110
f 115 116 111
f 115 111 114
f 117 112 111
f 117 111 116
f 118 119 120
f 118 120 121
f 122 123 120
f 122 120 119
f 124 125 120
f 124 120 123
f 126 121 120
f 126 120 125
f 117 116 127
f 117 127 128
f 115 129 127
f 115 127 116
f 130 131 127
f 130 127 129
f 132 128 127
f 132 127 131
f 5 133 134
f 5 134 6
f 19 22 134
f 19 134 133
f 27 135 134
f 27 134 22
f 7 6 134
f 7 134 135
f 14 136 137
f 14 137 15
f 28 31 137
f 28 137 136
f 36 138 137
f 36 137 31
f 16 15 137
f 16 137 138
f 7 135 139
f 7 139 39
f 27 50 139
f 27 139 135
f 54 140 139
f 54 139 50
f 40 39 139
f 40 139 140
f 16 138 141
f 16 141 45
f 36 56 141
f 36 141 138
f 60 142 141
f 60 141 56
f 46 45 141
f 46 141 142
f 65 143 144
f 65 144 66
f 145 146 144
f 145 144 143
f 147 148 144
f 147 144 146
f 67 66 144
f 67 144 148
f 74 149 150
f 74 150 75
f 151 152 150
f 151 150 149
f 153 154 150
f 153 150 152
f 76 75 150
f 76 150 154
f 95 155 156
f 95 156 96
f 157 158 156
f 157 156 155
f 159 160 156
f 159 156 158
f 97 96 156
f 97 156 160
f 104 161 162
f 104 162 105
f 163 164 162
f 163 162 161
f 165 166 162
f 165 162 164
f 106 105 162
f 106 162 166
f 167 168 169
f 167 169 170
f 126 125 169
f 126 169 168
f 124 171 169
f 124 169 125
f 130 170 169
f 130 169 171
f 172 173 174
f 172 174 175
f 10 13 174
f 10 174 173
f 18 176 174
f 18 174 13
f 177 175 174
f 177 174 176
f 32 178 179
f 32 179 33
f 1 4 179
f 1 179 178
f 9 180 179
f 9 179 4
f 34 33 179
f 34 179 180
f 177 176 181
f 177 181 182
f 18 44 181
f 18 181 176
f 48 183 181
f 48 181 44
f 184 182 181
f 184 181 183
f 34 180 185
f 34 185 57
f 9 38 185
f 9 185 180
f 42 186 185
f 42 185 38
f 58 57 185
f 58 185 186
f 184 183 187
f 184 187 188
f 48 189 187
f 48 187 183
f 190 191 187
f 190 187 189
f 192 188 187
f 192 187 191
f 58 186 193
f 58 193 87
f 42 194 193
f 42 193 186
f 195 196 193
f 195 193 194
f 88 87 193
f 88 193 196
f 197 198 199
f 197 199 200
f 201 202 199
f 201 199 198
f 203 204 199
f 203 199 202
f 205 200 199
f 205 199 204
f 122 206 207
f 122 207 123
f 208 209 207
f 208 207 206
f 210 211 207
f 210 207 209
f 124 123 207
f 124 207 211
f 205 204 212
f 205 212 213
f 203 214 212
f 203 212 204
f 167 170 212
f 167 212 214
f 130 213 212
f 130 212 170
f 124 211 215
f 124 215 171
f 210 216 215
f 210 215 211
f 132 131 215
f 132 215 216
f 130 171 215
f 130 215 131
f 67 217 218
f 67 218 68
f 95 92 218
f 95 218 217
f 91 219 218
f 91 218 92
f 69 68 218
f 69 218 219
f 76 220 221
f 76 221 77
f 104 101 221
f 104 221 220
f 100 222 221
f 100 221 101
f 78 77 221
f 78 221 222
f 82 223 224
f 82 224 83
f 113 110 224
f 113 224 223
f 109 225 224
f 109 224 110
f 84 83 224
f 84 224 225
f 88 226 227
f 88 227 89
f 122 119 227
f 122 227 226
f 118 228 227
f 118 227 119
f 90 89 227
f 90 227 228
f 147 229 230
f 147 230 148
f 157 155 230
f 157 230 229
f 95 217 230
f 95 230 155
f 67 148 230
f 67 230 217
f 153 231 232
f 153 232 154
f 163 161 232
f 163 232 231
f 104 220 232
f 104 232 161
f 76 154 232
f 76 232 220
f 190 233 234
f 190 234 191
f 201 198 234
f 201 234 233
f 197 235 234
f 197 234 198
f 192 191 234
f 192 234 235
f 195 236 237
f 195 237 196
f 208 206 237
f 208 237 236
f 122 226 237
f 122 237 206
f 88 196 237
f 88 237 226
f 40 140 238
f 40 238 239
f 54 240 238
f 54 238 140
f 145 143 238
f 145 238 240
f 65 239 238
f 65 238 143
f 54 80 241
f 54 241 240
f 84 242 241
f 84 241 80
f 147 146 241
f 147 241 242
f 145 240 241
f 145 241 146
f 84 225 243
f 84 243 242
f 109 244 243
f 109 243 225
f 157 229 243
f 157 243 244
f 147 242 243
f 147 243 229
f 109 112 245
f 109 245 244
f 117 246 245
f 117 245 112
f 159 158 245
f 159 245 246
f 157 244 245
f 157 245 158
f 117 128 247
f 117 247 246
f 132 248 247
f 132 247 128
f 97 160 247
f 97 247 248
f 159 246 247
f 159 247 160
f 132 216 249
f 132 249 248
f 210 250 249
f 210 249 216
f 99 98 249
f 99 249 250
f 97 248 249
f 97 249 98
f 210 209 251
f 210 251 250
f 208 252 251
f 208 251 209
f 91 94 251
f 91 251 252
f 99 250 251
f 99 251 94
f 208 236 253
f 208 253 252
f 195 254 253
f 195 253 236
f 69 219 253
f 69 253 254
f 91 252 253
f 91 253 219
f 195 194 255
f 195 255 254
f 42 256 255
f 42 255 194
f 61 64 255
f 61 255 256
f 69 254 255
f 69 255 64
f 42 41 257
f 42 257 256
f 40 239 257
f 40 257 41
f 65 62 257
f 65 257 239
f 61 256 257
f 61 257 62
f 46 142 258
f 46 258 259
f 60 260 258
f 60 258 142
f 151 149 258
f 151 258 260
f 74 259 258
f 74 258 149
f 60 86 261
f 60 261 260
f 90 262 261
f 90 261 86
f 153 152 261
f 153 261 262
f 151 260 261
f 151 261 152
f 90 228 263
f 90 263 262
f 118 264 263
f 118 263 228
f 163 231 263
f 163 263 264
f 153 262 263
f 153 263 231
f 118 121 265
f 118 265 264
f 126 266 265
f 126 265 121
f 165 164 265
f 165 265 266
f 163 264 265
f 163 265 164
f 126 168 267
f 126 267 266
f 167 268 267
f 167 267 168
f 106 166 267
f 106 267 268
f 165 266 267
f 165 267 166
f 167 214 269
f 167 269 268
f 203 270 269
f 203 269 214
f 108 107 269
f 108 269 270
f 106 268 269
f 106 269 107
f 203 202 271
f 203 271 270
f 201 272 271
f 201 271 202
f 100 103 271
f 100 271 272
f 108 270 271
f 108 271 103
f 201 233 273
f 201 273 272
f 190 274 273
f 190 273 233
f 78 222 273
f 78 273 274
f 100 272 273
f 100 273 222
f 190 189 275
f 190 275 274
f 48 276 275
f 48 275 189
f 70 73 275
f 70 275 276
f 78 274 275
f 78 275 73
f 48 47 277
f 48 277 276
f 46 259 277
f 46 277 47
f 74 71 277
f 74 277 259
f 70 276 277
f 70 277 71
f 5 2 278
f 5 278 279
f 1 280 278
f 1 278 2
f 281 282 278
f 281 278 280
f 283 279 278
f 283 278 282
f 14 11 284
f 14 284 285
f 10 286 284
f 10 284 11
f 287 288 284
f 287 284 286
f 289 285 284
f 289 284 288
f 23 20 290
f 23 290 291
f 19 292 290
f 19 290 20
f 293 294 290
f 293 290 292
f 295 291 290
f 295 290 294
f 32 29 296
f 32 296 297
f 28 298 296
f 28 296 29
f 299 300 296
f 299 296 298
f 301 297 296
f 301 296 300
f 19 133 302
f 19 302 292
f 5 279 302
f 5 302 133
f 283 303 302
f 283 302 279
f 293 292 302
f 293 302 303
f 28 136 304
f 28 304 298
f 14 285 304
f 14 304 136
f 289 305 304
f 289 304 285
f 299 298 304
f 299 304 305
f 10 173 306
f 10 306 286
f 172 307 306
f 172 306 173
f 308 309 306
f 308 306 307
f 287 286 306
f 287 306 309
f 1 178 310
f 1 310 280
f 32 297 310
f 32 310 178
f 301 311 310
f 301 310 297
f 281 280 310
f 281 310 311
f 312 313 314
f 312 314 315
f 316 317 314
f 316 314 313
f 318 319 314
f 318 314 317
f 320 321 314
f 320 314 319
f 322 323 314
f 322 314 321
f 324 325 314
f 324 314 323
f 326 327 314
f 326 314 325
f 328 315 314
f 328 314 327
