v 0.004540533 -0.009609103 -0.03097069
v 0.003911152 -0.01075506 -0.03186983
v 0.003836304 0.001991391 -0.03126413
v -0.001895666 -0.01316765 -0.0303176
v 0.002615213 -0.01923656 0.03186977
v -0.002056286 0.01635918 0.03117013
v -0.002573147 -0.00741601 0.03012288
v -0.003679931 0.01695526 0.018453
v 0.004529953 0.01703086 0.03036046
v 0.003370985 0.01903722 0.02961254
v 0.00449276 0.01210466 0.03013426
v 0.002194107 0.005190343 -0.02851123
v -0.002566695 0.003361493 -0.03038263
v 0.000644207 0.01424351 -0.00813061
v 0.004050091 -0.00182566 0.0295403
v -0.002636686 -0.006493211 -0.03083563
v -0.004341841 -0.008227795 0.01088917
v -0.00452435 -0.01107115 -0.001224697
v 0.001401961 -0.01762217 0.02913648
v 0.004068196 0.00190708 -0.0294469
v -0.002893478 0.008495957 -0.02362657
v -0.003394634 0.01823211 0.01663488
v -0.0001174808 0.01809946 0.006424785
v 0.0007218421 0.01754153 0.004543185
v 0.003783971 -0.006665021 0.02749562
v -0.004023939 -0.01490226 -0.01070601
v -0.003777027 -0.004872233 0.01929384
v -0.004492104 0.0129618 0.005427659
v -0.0002362132 0.013354 -0.01143903
v -0.004119694 0.01194009 -0.01313865
v 0.0005515814 0.01923195 0.01658773
v -0.004139721 0.01631767 0.002768457
v -0.003691867 -0.01575458 -0.01078808
v -0.004022449 0.00688079 -0.021707
v 0.002165645 0.01923656 0.02925062
v -0.004540533 0.01508665 0.003687918
v -0.003297895 0.002980262 -0.02938211
v -0.004489779 0.00786382 -0.01328212
f 1 2 3
f 4 2 5
f 2 1 5
f 6 7 5
f 7 6 8
f 6 9 10
f 1 9 11
f 11 9 5
f 9 6 5
f 12 3 13
f 12 14 3
f 15 11 5
f 15 1 11
f 16 2 4
f 3 16 13
f 2 16 3
f 17 18 7
f 7 19 5
f 18 19 7
f 20 1 3
f 9 20 3
f 20 9 1
f 21 12 13
f 6 22 8
f 23 24 14
f 9 24 10
f 14 24 3
f 24 9 3
f 1 25 5
f 25 15 5
f 15 25 1
f 26 16 4
f 27 7 8
f 17 27 8
f 27 17 7
f 28 17 8
f 29 21 30
f 29 23 14
f 12 29 14
f 21 29 12
f 22 31 23
f 24 31 10
f 31 24 23
f 32 22 23
f 32 29 30
f 29 32 23
f 33 4 5
f 33 26 4
f 19 33 5
f 33 19 18
f 26 33 18
f 21 34 30
f 31 35 10
f 35 31 22
f 35 6 10
f 35 22 6
f 22 36 8
f 32 36 22
f 36 28 8
f 36 32 30
f 17 36 18
f 28 36 17
f 26 37 16
f 34 37 26
f 16 37 13
f 37 21 13
f 37 34 21
f 34 38 30
f 38 36 30
f 36 38 18
f 38 26 18
f 38 34 26
