v 0.001029342 -0.01573455 -0.03202629
v 0.00102964 0.02292231 0.01298016
v 0.001029491 -0.02210289 0.03194153
v -0.0007162392 -0.02292231 -0.02866167
v -0.0003008842 0.005442142 -0.03027314
v 0.000235945 0.02167428 0.02805126
v -0.0006787479 0.02165896 0.02806467
v -0.00102964 0.0157136 -0.01157027
v 0.0005646944 0.01560599 -0.01837528
v 0.0001136363 -0.02216229 0.03202635
v 0.0001993775 -0.02290684 -0.0286746
v 0.0006259084 0.003380656 -0.03021973
v -0.0009835958 0.0003580153 -0.02723283
v 2.098083e-05 -0.02290973 0.02482551
v 0.0009389818 -0.02275398 0.02463925
v -0.001009703 0.007307053 -0.02117467
f 1 2 3
f 1 4 5
f 2 6 3
f 6 2 7
f 8 4 7
f 8 9 5
f 2 8 7
f 9 8 2
f 6 10 3
f 10 6 7
f 11 4 1
f 1 12 2
f 12 9 2
f 12 1 5
f 9 12 5
f 4 13 5
f 8 13 4
f 4 14 7
f 14 10 7
f 11 14 4
f 10 14 3
f 15 1 3
f 15 11 1
f 14 15 3
f 15 14 11
f 16 8 5
f 13 16 5
f 16 13 8
