v 0.002871394 -0.002814114 2.63728e-06
v 0.001858413 -0.003281862 -0.003886625
v 7.456541e-05 0.005409747 -0.003924325
v -0.002871364 0.005652875 0.005980298
v -0.002871424 0.005649656 -0.005980298
v -0.002871394 -0.005651206 0.003999785
v 7.420778e-05 0.005412489 0.003925815
v -0.002869576 -0.005652964 -0.003994897
v 0.001197755 0.005319506 1.147164e-06
v -0.000805825 -0.00450626 0.005938068
v -0.0008054078 -0.004508436 -0.005932674
v 0.001857191 -0.003280193 0.003891691
f 1 2 3
f 4 5 6
f 2 5 3
f 7 5 4
f 5 8 6
f 8 1 6
f 8 2 1
f 9 1 3
f 9 7 1
f 5 9 3
f 7 9 5
f 10 4 6
f 11 5 2
f 8 11 2
f 11 8 5
f 7 12 1
f 1 12 6
f 12 10 6
f 12 7 4
f 10 12 4
