v -0.004291847 0.0159927 0.0230132
v -0.004175708 0.008163214 0.0230408
v -0.00309436 0.01944733 0.02330989
v -0.004303768 -0.01419002 -0.02228197
v -0.003701702 -0.009519815 0.02315205
v 0.001934513 0.01759613 0.0245418
v 7.70241e-05 0.0185225 0.02124783
v -0.002318308 -0.004699647 -0.01613063
v -0.003868476 -0.01419014 -0.0240626
v 0.001056954 -0.01486933 -0.02473778
v 0.001997009 -0.01634908 -0.02262509
v -0.002206936 -0.0188303 0.02351508
v 0.001362428 0.009033024 0.001746267
v 0.002790555 0.01272702 0.009645343
v 0.002982333 0.003238261 -0.005392671
v 0.0008759052 -0.003035545 -0.0144012
v 0.003385857 -0.008584499 -0.01662159
v 0.00288029 -0.01610541 -0.01768869
v 0.003976241 -0.004580736 -0.008926481
v 0.004303768 0.003483951 -0.002239913
v -0.003294215 -0.01673055 0.0147498
v -0.002512351 -0.01363659 -0.024672
v -0.001052454 0.01568705 0.01342022
v 0.002552554 -0.003651977 -0.01399019
v 0.003539219 0.01383448 0.01643354
v 0.002765343 -0.009954691 0.02473778
v 0.002867565 0.01148981 0.0238167
v -0.0005293638 -0.01944739 0.02392593
v 0.0031804 -0.01944399 0.008791387
v 0.003395692 -0.01254189 0.01827812
v 0.00416176 0.006625414 0.007151484
v 0.003479615 -0.0185805 0.008865029
f 1 2 3
f 2 1 4
f 5 2 4
f 2 5 3
f 6 7 3
f 8 9 3
f 9 1 3
f 1 9 4
f 9 10 11
f 4 9 12
f 13 14 15
f 16 13 15
f 13 16 8
f 10 17 11
f 17 18 11
f 18 17 19
f 14 20 15
f 17 20 19
f 21 4 12
f 5 21 12
f 21 5 4
f 9 22 10
f 22 9 8
f 22 16 10
f 16 22 8
f 23 7 14
f 13 23 14
f 7 23 3
f 23 8 3
f 23 13 8
f 16 24 10
f 24 17 10
f 24 16 15
f 20 24 15
f 24 20 17
f 25 20 14
f 25 7 6
f 7 25 14
f 26 5 12
f 26 6 3
f 5 26 3
f 27 25 6
f 26 27 6
f 28 26 12
f 28 29 26
f 18 29 11
f 29 28 12
f 29 9 11
f 9 29 12
f 29 30 26
f 27 30 25
f 30 27 26
f 25 31 20
f 30 31 25
f 32 30 29
f 20 32 19
f 31 32 20
f 32 31 30
f 32 18 19
f 32 29 18
