v -0.003566787 -0.004010141 -0.01822072
v -0.003624007 -0.006247044 0.01204461
v -0.0001671165 0.007265568 0.02132696
v -0.0007409602 0.006983817 -0.01570904
v -0.003113702 -0.002062857 -0.02129555
v 0.0008272976 0.006846011 0.0177086
v 0.003624007 -0.0004711747 0.01567364
v 0.003618136 0.001746476 -0.01789176
v 0.003509447 -0.0009590387 0.01644379
v 0.0002807528 0.006861031 -0.01405096
v -0.001338854 -0.00252527 -0.02132696
v 0.002447382 -0.002911568 -0.01554918
v -0.0006526262 0.007255912 -0.01443201
v 0.002905294 -0.003186703 0.0149467
v 0.002463922 -0.004459441 0.008606315
v -0.003168061 -0.007081091 -0.003723383
v -0.003066435 -0.007265508 0.004921675
v 3.258884e-05 -0.005576611 -0.005567253
f 1 2 3
f 4 1 3
f 4 5 1
f 6 7 8
f 9 7 3
f 7 6 3
f 4 10 8
f 10 6 8
f 11 4 8
f 11 5 4
f 12 11 8
f 11 12 1
f 5 11 1
f 13 4 3
f 13 10 4
f 6 13 3
f 10 13 6
f 14 9 3
f 2 14 3
f 14 7 9
f 14 15 12
f 14 12 8
f 7 14 8
f 16 2 1
f 12 16 1
f 16 17 2
f 17 14 2
f 14 17 15
f 15 18 12
f 18 16 12
f 17 18 15
f 18 17 16
