v 0.0002900064 -0.004566193 -0.005930781
v -0.002491951 -0.003639996 -0.003885418
v 0.001227617 0.005756915 -0.005980253
v 0.002468824 -0.005476564 -0.003992736
v -0.001673996 0.005195647 -0.003924638
v 0.003550738 0.005909562 -0.004025817
v 0.003550678 -0.005912811 4.529953e-06
v 0.003550708 0.005912811 0.004025519
v 0.001226962 0.005761862 0.005980253
v 0.000290513 -0.004562199 0.005938888
v -0.002492249 -0.003636748 0.003892511
v -0.001674652 0.0051983 0.003924668
v -0.003550768 -0.003286034 3.308058e-06
v 0.00246802 -0.005473882 0.004001945
v -0.002781808 0.004982233 5.662441e-07
f 1 2 3
f 2 1 4
f 2 5 3
f 6 1 3
f 1 6 4
f 6 7 4
f 7 6 8
f 8 9 10
f 9 11 10
f 11 9 12
f 5 9 3
f 9 6 3
f 6 9 8
f 13 11 12
f 13 5 2
f 13 2 4
f 7 13 4
f 14 8 10
f 14 7 8
f 11 14 10
f 13 14 11
f 14 13 7
f 15 13 12
f 13 15 5
f 9 15 12
f 15 9 5
