v 0.001951516 -0.009979308 -0.04284862
v 0.001807719 -0.00997442 0.04278597
v 0.0008906126 -0.009968281 0.04278627
v 0.001899868 0.001992106 0.03754875
v -0.001915097 -0.009552062 -0.0410659
v -0.001951516 -0.008797526 -0.04201069
v 0.001034886 0.009979308 -0.03950706
v 0.001951456 0.009973466 -0.03950766
v 0.001028001 0.009406209 0.02737156
v 0.00094226 -0.002637565 0.04284865
v 0.001951396 0.009427845 0.02745238
f 1 2 3
f 4 2 1
f 5 1 3
f 6 5 3
f 5 6 1
f 1 7 8
f 6 7 1
f 9 7 6
f 10 6 3
f 10 9 6
f 9 10 4
f 2 10 3
f 10 2 4
f 7 11 8
f 9 11 7
f 11 9 4
f 11 1 8
f 11 4 1
