v 0.001836479 0.007344246 -0.01401371
v 0.0009249151 0.007250547 0.01425469
v 0.0018363 0.007250845 0.01425493
v 0.0009246767 0.007343411 -0.01401192
v -0.001836479 -0.007344306 -0.01425496
v 0.001835018 -0.007246256 -0.01406106
v 0.001836389 -0.007339954 0.01420611
v 0.0009238124 -0.007340789 0.01420507
v -0.001811653 -0.004509151 -0.0140526
v -0.001811326 -0.006341636 -0.01132146
f 1 2 3
f 2 1 4
f 4 1 5
f 1 6 5
f 6 7 5
f 7 8 5
f 7 1 3
f 1 7 6
f 2 7 3
f 7 2 8
f 9 4 5
f 9 2 4
f 10 9 5
f 9 10 2
f 8 10 5
f 2 10 8
