v -0.005584255 0.0230705 0.08262104
v 0.01531489 -0.03362931 0.02959847
v 0.02072173 0.02953809 0.02436858
v 0.02080871 -0.02206965 0.01665771
v 0.01902083 -0.0239825 -0.07379758
v 0.007661976 0.03362933 0.02049798
v 0.0001463369 -0.03271008 -0.08088988
v 0.01725329 0.01655888 -0.07519454
v -0.004044317 0.02733044 -0.08262134
v -0.01943142 -0.003460271 0.06111509
v -0.01604623 -0.02264444 0.04028964
v 0.009685941 -0.03251923 -0.06874204
v -0.005577058 -0.02994076 0.01323867
v 0.02082285 0.01108521 0.01580137
v 0.005291075 0.02914901 -0.07356787
v -0.01679091 0.02406058 0.05254126
v -0.01557723 0.01724131 -0.08054614
v -0.01991437 0.01665551 0.00695169
v 0.01922466 0.0001945442 -0.06888211
v -0.007586151 -0.02945357 -0.08224559
v -0.0130084 -0.02329708 -0.08065808
v -0.01765224 0.005501201 -0.0782724
v -0.01660567 -0.01223473 -0.07789111
v -0.0208228 -0.00352796 0.002723455
v 0.0131413 0.02448043 -0.07440299
v -0.02079865 0.009989871 0.04813111
v -0.01016578 0.02792468 0.005462766
v -0.01771732 -0.01902975 0.01574773
v -0.01801734 0.01822043 0.05987996
v -0.01199072 0.02263111 -0.0747143
f 1 2 3
f 2 4 3
f 5 4 2
f 6 1 3
f 7 8 5
f 8 7 9
f 10 2 1
f 10 11 2
f 12 5 2
f 7 12 2
f 12 7 5
f 11 13 2
f 13 7 2
f 4 14 3
f 15 6 3
f 6 15 9
f 6 16 1
f 16 17 18
f 19 8 3
f 8 19 5
f 14 19 3
f 19 4 5
f 19 14 4
f 13 20 7
f 7 20 9
f 21 20 11
f 20 13 11
f 20 17 9
f 17 20 21
f 22 21 23
f 22 17 21
f 24 22 23
f 17 22 18
f 22 24 18
f 25 8 9
f 15 25 9
f 8 25 3
f 25 15 3
f 26 16 18
f 24 26 18
f 26 24 10
f 27 6 9
f 27 16 6
f 10 28 11
f 24 28 10
f 28 24 23
f 21 28 23
f 28 21 11
f 29 26 10
f 26 29 16
f 29 10 1
f 16 29 1
f 16 30 17
f 27 30 16
f 17 30 9
f 30 27 9
