v -0.003552631 -0.005965889 -0.008983016
v 0.0001499206 0.005980134 0.02042753
v -0.0009522289 0.006445646 -0.01622689
v 0.003552631 0.0002071857 -0.01637244
v 0.003043666 -0.001614511 -0.01862013
v 0.002759591 -0.003591657 -0.01003647
v -0.002254888 -0.004133046 0.01208997
v -0.003174499 -0.003327906 -0.02042753
v 0.002745256 -0.003039181 -0.01624388
v -0.001792207 -0.004967332 0.01361763
v 0.002621576 -0.002806664 0.01546729
v -0.001413897 -0.00645715 0.005142987
v 0.000249967 0.00645715 0.01963288
v 0.001151219 0.006231785 0.0196107
v 0.0001639873 0.005639493 -0.01462954
v 0.003534034 0.0007343292 0.0166111
v 0.0004609972 -0.00551635 -0.006032765
v -0.003467575 -0.004935384 -0.01597965
f 1 2 3
f 4 5 3
f 4 6 5
f 1 7 2
f 5 8 3
f 6 9 5
f 9 8 5
f 10 11 2
f 7 10 2
f 11 10 12
f 10 1 12
f 10 7 1
f 2 13 3
f 13 14 3
f 14 13 2
f 15 4 3
f 14 15 3
f 15 14 4
f 14 16 4
f 6 16 11
f 16 6 4
f 11 16 2
f 16 14 2
f 17 9 6
f 1 17 12
f 17 11 12
f 17 6 11
f 9 18 8
f 18 1 3
f 8 18 3
f 18 17 1
f 17 18 9
