v 0.00161989 -0.004592782 -0.02309829
v -0.001620188 -0.005123105 0.01139498
v 0.001620203 0.004644636 -0.02309379
v -0.001619875 -0.005128615 0.02174586
v 0.001620084 -0.004615447 0.02166286
v 0.00162001 0.004622456 0.02166885
v -0.001284316 0.005085871 0.01456803
v -0.001345485 0.005091626 0.02235478
v -0.001578748 0.005128615 0.02173686
v 0.0005201995 0.004795969 0.02308184
v -0.0004751086 -0.004947679 0.02309555
v 0.0005155653 -0.004790928 0.02307793
v -0.001367554 -0.005088428 0.02235579
v -0.0004708916 0.004952457 0.02309826
v 0.001392379 -0.004651617 0.02250981
v -0.0009857714 -0.005028687 0.02273786
v 0.001505688 -0.004633639 0.02223524
v 0.001391977 0.004657991 0.02251536
v -0.0009723753 0.005031947 0.0227426
v 0.001505822 0.004639823 0.02223992
f 1 2 3
f 2 1 4
f 1 5 4
f 5 1 3
f 6 5 3
f 2 7 3
f 8 9 4
f 9 2 4
f 7 9 8
f 9 7 2
f 10 11 12
f 10 7 8
f 10 6 3
f 7 10 3
f 13 8 4
f 14 10 8
f 10 14 11
f 15 10 12
f 14 16 11
f 16 13 4
f 11 16 12
f 5 16 4
f 16 5 12
f 17 5 6
f 5 17 12
f 17 15 12
f 10 18 6
f 15 18 10
f 19 14 8
f 19 16 14
f 13 19 8
f 16 19 13
f 20 17 6
f 18 20 6
f 17 20 15
f 20 18 15
