v 0.0009638667 0.02906969 -0.02750432
v 0.0009639263 0.0286276 0.03156376
v 0.0009640753 -0.02422622 -0.03175837
v -0.0009640753 0.01966929 0.03438652
v -0.0007993281 -0.01654655 -0.0338431
v -0.0007680655 -0.02803057 -0.03438646
v 4.252791e-05 0.02816305 -0.03012341
v 0.0009609759 0.02823254 -0.03019232
v -0.0007371604 -0.02038574 0.004846931
v -0.0007839203 -0.004137784 0.02766734
v -0.0007604361 -0.00648725 0.02508885
v 0.0008981526 -0.0113976 0.01278126
v 4.479289e-05 0.02909353 0.02509069
v -0.0007410944 -0.02626804 -0.01219273
v 0.0009225011 -0.02099404 -0.007815778
v 4.208088e-05 0.02884606 -0.02730638
v 0.0001376271 -0.02909353 -0.02660322
v 0.0009007454 -0.0005669594 0.02541268
f 1 2 3
f 4 5 6
f 7 5 4
f 8 1 3
f 8 7 1
f 8 5 7
f 8 3 6
f 5 8 6
f 9 10 4
f 10 9 11
f 9 12 11
f 13 2 1
f 2 13 4
f 14 4 6
f 14 9 4
f 2 15 3
f 15 12 9
f 14 15 9
f 7 16 1
f 16 13 1
f 16 7 4
f 13 16 4
f 3 17 6
f 17 14 6
f 15 17 3
f 17 15 14
f 18 15 2
f 15 18 12
f 18 2 4
f 10 18 4
f 18 10 11
f 12 18 11
