v -0.003636755 -0.003748424 0.01354065
v -0.004670404 -0.002042077 0.01364935
v -0.004758425 -0.002042033 0.008475728
v -0.003729425 -0.003748469 0.008093752
v -0.005019329 7.450581e-09 0.01371608
v -0.005104162 -7.450581e-09 0.008724518
v -0.005341925 -7.450581e-09 0.003613777
v -0.005021088 -0.0021502 0.003183253
v -0.004003219 -0.003906898 0.002476953
v 0.00385911 0.003748573 0.0134132
v 0.004896067 0.002042018 0.0134866
v 0.004808046 0.002042003 0.008312978
v 0.003766514 0.003748484 0.007966228
v 0.005247004 7.450581e-09 0.01354139
v 0.005162068 7.450581e-09 0.008549847
v 0.005230434 3.72529e-08 0.003433906
v 0.004893638 0.002150066 0.003014587
v 0.003850035 0.003906958 0.002343349
v -0.003636725 0.003748499 0.01354078
v -0.001931004 0.004783906 0.0134813
v -0.002025165 0.004783951 0.00794331
v -0.003729396 0.003748454 0.008093737
v 0.0001107231 0.005133875 0.01344655
v 1.653284e-05 0.00513386 0.007908575
v -8.503348e-05 0.005165346 0.001941405
v -0.002233051 0.004877008 0.002080508
v -0.004003249 0.003906853 0.002476983
v 0.0038592 -0.003748499 0.01341323
v 0.00215245 -0.004783951 0.01341183
v 0.002058215 -0.004783921 0.007873915
v 0.003766574 -0.003748514 0.007966243
v 0.000110738 -0.005133919 0.01344655
v 1.651794e-05 -0.00513386 0.00790859
v -8.503348e-05 -0.005165346 0.001941346
v 0.00206653 -0.004876994 0.002007253
v 0.003849901 -0.003906958 0.002343349
v -0.005577303 -0.002474539 0.0009190366
v -0.004580922 -0.004382141 -3.173202e-05
v -0.005831517 5.215406e-08 0.001409225
v -0.006428264 -5.215406e-08 0.0005659238
v -0.00625927 -0.002714194 7.713586e-05
v -0.005599476 -0.005234428 -0.001201205
v 0.005382009 0.002474524 0.0007325783
v 0.004344337 0.004382215 -0.0001835153
v 0.005659245 -7.450581e-09 0.001213752
v 0.006310441 -2.235174e-08 0.000361301
v 0.006116949 0.002714224 -0.0001213774
v 0.005372323 0.005234443 -0.001380123
v -0.00260862 0.005156197 -0.0009235367
v -0.004580863 0.004382156 -3.174692e-05
v -0.0001413748 0.0052597 -0.001375727
v -0.0001710579 0.005455978 -0.003114469
v -0.003010057 0.005581655 -0.002416261
v -0.005599447 0.005234428 -0.00120122
v 0.002339743 -0.005156152 -0.001007743
v 0.004344322 -0.004382156 -0.00018356
v -0.0001414791 -0.005259745 -0.001375712
v -0.0001710877 -0.005455963 -0.00311444
v 0.002690248 -0.005581684 -0.002513267
v 0.005372338 -0.005234353 -0.001380153
v -0.007312469 -0.003949024 -0.002669968
v -0.007439248 -0.002376162 -0.002057694
v -0.007822461 -0.002477162 -0.003149934
v -0.007607915 -0.00456015 -0.00377541
v -0.007472984 5.215406e-08 -0.001553513
v -0.007851042 -7.450581e-09 -0.002594225
v -0.008030705 6.705523e-08 -0.004069783
v -0.00803531 -0.002669759 -0.004592367
v -0.007891543 -0.004940115 -0.005247794
v 0.007445253 0.003948994 -0.002910487
v 0.007621534 0.002376147 -0.002374209
v 0.007921256 0.002477117 -0.003899671
v 0.00774435 0.004560269 -0.004096948
v 0.007643126 -2.235174e-08 -0.001943313
v 0.007876955 -7.450581e-09 -0.003632627
v 0.007905804 -7.450581e-09 -0.005528979
v 0.008017845 0.002669774 -0.005625524
v 0.007960938 0.004940145 -0.005647309
v -0.003295921 0.006113715 -0.003745221
v -0.005788811 0.006369881 -0.003091209
v -0.000191994 0.005792908 -0.004346557
v -0.0002142116 0.006041504 -0.005651988
v -0.003528915 0.00652232 -0.005285598
v -0.006161891 0.006975554 -0.0049069
v 0.002930634 -0.006113686 -0.003851332
v 0.005523078 -0.006369837 -0.003271706
v -0.0001919344 -0.005792804 -0.004346587
v -0.000214152 -0.006041504 -0.005652063
v 0.003111146 -0.006522335 -0.005398549
v 0.005834155 -0.006975479 -0.005098917
v -0.008182175 -0.004925825 -0.009191908
v -0.00794486 -0.002657361 -0.009135865
v -0.007710837 -0.002318464 -0.01125138
v -0.007806607 -0.004293971 -0.01109324
v -0.007703476 5.215406e-08 -0.009148158
v -0.007554598 2.235174e-08 -0.01147445
v -0.007302098 -7.450581e-09 -0.01341768
v -0.007326849 -0.002064534 -0.01305064
v -0.007364117 -0.003557228 -0.01249342
v 0.008182161 0.00492575 -0.009406067
v 0.008032613 0.002657406 -0.009391315
v 0.007752158 0.002318479 -0.01137517
v 0.007748462 0.004294015 -0.01126289
v 0.00779555 7.450581e-09 -0.009435453
v 0.007605739 6.705523e-08 -0.01157156
v 0.007169537 -7.450581e-09 -0.01356355
v 0.007202454 0.002064534 -0.01320297
v 0.007192649 0.003557242 -0.01266148
v -0.006660692 0.006916501 -0.009644009
v -0.0038568 0.006215431 -0.009752519
v -0.003615566 0.005371787 -0.01193415
v -0.006228648 0.006004162 -0.01196959
v -0.000284858 0.005564414 -0.009805463
v -0.0003191754 0.004792579 -0.01182093
v -0.000344865 0.003597565 -0.01333215
v -0.003314696 0.004022829 -0.01364512
v -0.005704008 0.004486509 -0.01389153
v 0.006171636 -0.006916471 -0.009850301
v 0.00328695 -0.006215386 -0.009874053
v 0.002971627 -0.005371831 -0.01204617
v 0.005660765 -0.006004162 -0.01215985
v -0.0002848431 -0.005564399 -0.009805553
v -0.0003191456 -0.004792608 -0.01182089
v -0.000344865 -0.00359758 -0.01333221
v 0.002612673 -0.00402277 -0.01374596
v 0.005070917 -0.004486494 -0.01406286
v -0.003220402 0.002143838 -0.01457348
v -0.005541839 0.0023885 -0.01513445
v -0.0003564432 0.00191959 -0.01401494
v -0.0003587082 3.72529e-08 -0.01414921
v -0.003224961 7.450581e-09 -0.01484204
v -0.005551316 -7.450581e-09 -0.01558607
v -0.004670419 0.002041988 0.01364935
v -0.004758425 0.002042003 0.008475639
v -0.005021073 0.002150171 0.003183164
v 0.004896082 -0.002042048 0.01348662
v 0.004808016 -0.002042063 0.008312933
v 0.004893623 -0.002150156 0.003014557
v -0.005577378 0.002474524 0.0009190068
v -0.0062593 0.002714209 7.719547e-05
v 0.005382083 -0.002474524 0.0007326081
v 0.006117009 -0.002714179 -0.0001213774
v -0.007439293 0.002376132 -0.002057619
v -0.007822476 0.002477132 -0.003149949
v -0.007312439 0.003949024 -0.002669983
v -0.007607885 0.00456021 -0.003775306
v -0.007891528 0.0049401 -0.005247794
v -0.008035339 0.002669714 -0.004592337
v 0.007621519 -0.002376087 -0.002374284
v 0.007921286 -0.002477221 -0.003899671
v 0.007445239 -0.003948979 -0.002910398
v 0.007744275 -0.00456018 -0.004096918
v 0.007960878 -0.004940145 -0.005647309
v 0.008017905 -0.002669774 -0.005625553
v -0.00794483 0.002657421 -0.00913588
v -0.007710867 0.002318524 -0.01125135
v -0.008182161 0.00492572 -0.009191908
v -0.007806562 0.004293986 -0.01109316
v -0.007364087 0.003557257 -0.0124935
v -0.007326894 0.002064548 -0.01305074
v 0.008032583 -0.002657481 -0.009391315
v 0.007752113 -0.002318509 -0.01137517
v 0.008182175 -0.00492575 -0.009406082
v 0.007748418 -0.004293971 -0.01126296
v 0.00719256 -0.003557272 -0.01266146
v 0.007202439 -0.002064489 -0.01320287
v 0.004860677 3.72529e-08 -0.01575118
v 0.004866607 -0.002388351 -0.01529949
v 0.002486937 -0.002143823 -0.01467056
v 0.002482332 -5.215406e-08 -0.01493914
v -0.0003565028 -0.00191953 -0.01401497
v 0.0001107231 0.005133875 0.01344655
v 0.00215248 0.004783861 0.01341189
v 0.002058245 0.004783936 0.00787387
v 1.653284e-05 0.00513386 0.007908575
v 0.00206656 0.004877008 0.002007328
v -8.503348e-05 0.005165346 0.001941405
v -0.00193096 -0.004783936 0.01348127
v -0.002025254 -0.004783951 0.007943355
v -0.002233051 -0.004876979 0.002080493
v 0.002339743 0.005156152 -0.001007698
v -0.0001413748 0.0052597 -0.001375727
v 0.002690189 0.00558167 -0.002513193
v -0.0001710579 0.005455978 -0.003114469
v -0.00260859 -0.005156182 -0.0009235516
v -0.003010042 -0.005581699 -0.002416275
v 0.002930693 0.006113715 -0.003851168
v -0.000191994 0.005792908 -0.004346557
v 0.005523123 0.006369866 -0.003271706
v 0.005834214 0.006975435 -0.005098931
v 0.003111191 0.006522335 -0.005398534
v -0.0002142116 0.006041504 -0.005651988
v -0.003295936 -0.006113686 -0.003745355
v -0.005788825 -0.006369822 -0.003091238
v -0.006161921 -0.00697539 -0.0049069
v -0.003528945 -0.00652229 -0.005285613
v -0.000284858 0.005564414 -0.009805463
v 0.003286906 0.006215401 -0.009874053
v 0.002971612 0.005371861 -0.01204617
v -0.0003191754 0.004792579 -0.01182093
v 0.006171621 0.006916471 -0.009850301
v 0.00566072 0.006004147 -0.01215979
v 0.005070917 0.004486538 -0.01406289
v 0.002612643 0.004022755 -0.0137459
v -0.000344865 0.003597565 -0.01333215
v -0.003856771 -0.006215356 -0.009752549
v -0.003615536 -0.005371846 -0.01193412
v -0.006660752 -0.006916516 -0.009644069
v -0.006228663 -0.006004103 -0.01196956
v -0.005704023 -0.004486538 -0.01389156
v -0.003314681 -0.00402265 -0.01364512
v 0.002486937 0.002143793 -0.01467057
v -0.0003564432 0.00191959 -0.01401494
v 0.004866518 0.00238841 -0.01529943
v -0.003220432 -0.002143808 -0.01457351
v -0.005541719 -0.002388395 -0.01513445
v -0.007921807 7.450581e-09 -0.006467171
v -0.008064635 -0.002752163 -0.006751902
v -0.008146681 -0.005101599 -0.007148333
v 0.007887088 -7.450581e-09 -0.007442378
v 0.008088015 0.002752177 -0.007465489
v 0.00817997 0.005101584 -0.007475652
v -0.0002475008 0.005973063 -0.007610492
v -0.003771894 0.006577499 -0.007412203
v -0.006545506 0.007198967 -0.007190533
v -0.0002475008 -0.005973049 -0.007610478
v 0.003281616 -0.006577559 -0.007532202
v 0.006139912 -0.007198922 -0.007394262
v -0.00814674 0.005101584 -0.007148348
v -0.00806459 0.002752192 -0.006751962
v 0.008179955 -0.005101569 -0.007475622
v 0.008088075 -0.002752192 -0.007465504
v 0.006139912 0.007198937 -0.007394262
v 0.00328166 0.006577499 -0.007532187
v -0.0002475008 0.005973063 -0.007610492
v -0.006545492 -0.007198967 -0.007190458
v -0.003771938 -0.006577499 -0.007412188
v -0.006899096 0.002568237 -0.0009485558
v -0.006987117 -2.235174e-08 -0.0004609004
v -0.006855808 0.004674055 -0.002056085
v -0.007078044 0.005854852 -0.003428511
v -0.007441558 0.006411724 -0.005123459
v -0.007822074 0.006645389 -0.00719849
v -0.007928304 0.00641606 -0.009409271
v -0.007469065 0.005583711 -0.01151096
v -0.006920122 0.004177086 -0.01327845
v -0.006757133 0.00222493 -0.01448595
v -0.006772317 3.72529e-08 -0.01494978
v -0.006757177 -0.002224945 -0.01448592
v -0.006920107 -0.004176967 -0.0132784
v -0.00746911 -0.005583696 -0.01151098
v -0.007928349 -0.006416 -0.009409197
v -0.007822104 -0.006645419 -0.007198505
v -0.007441543 -0.006411709 -0.005123444
v -0.007078014 -0.005854897 -0.003428526
v -0.006855883 -0.00467401 -0.002056159
v -0.006899111 -0.002568327 -0.0009485558
v 0.006941788 -0.002568342 -0.001135878
v 0.007046275 2.235174e-08 -0.0006515756
v 0.006860875 -0.004673995 -0.002241425
v 0.007036291 -0.005854823 -0.003620557
v 0.007341884 -0.006411679 -0.005326785
v 0.00765156 -0.006645344 -0.007413737
v 0.007682584 -0.006416015 -0.009626754
v 0.007152103 -0.005583696 -0.01171158
v 0.006543331 -0.004177071 -0.01345933
v 0.006339468 -0.00222487 -0.01466062
v 0.006338812 5.215406e-08 -0.01512467
v 0.006339483 0.00222493 -0.01466059
v 0.006543316 0.004177041 -0.01345933
v 0.007152177 0.005583651 -0.01171158
v 0.007682599 0.006416105 -0.009626724
v 0.007651575 0.006645449 -0.007413693
v 0.007341869 0.006411724 -0.00532677
v 0.007036246 0.005854912 -0.003620587
v 0.00686086 0.004674084 -0.002241336
v 0.006941728 0.002568267 -0.001135863
v -0.004638009 -0.002042063 0.01555736
v -0.004987784 -5.215406e-08 0.01556335
v -0.003602736 -0.003748469 0.01553974
v -0.00303451 -0.003182955 0.01568296
v -0.003438704 -0.001531504 0.01574334
v -0.004259445 5.215406e-08 0.01570382
v 0.004928507 0.002042003 0.01539458
v 0.005278371 2.235174e-08 0.01538863
v 0.003893144 0.003748514 0.01541219
v 0.003330313 0.003182821 0.01557469
v 0.003736176 0.001531504 0.0156213
v 0.004555143 7.450581e-09 0.0155539
v -0.001896493 0.004783906 0.01551072
v 0.0001452342 0.005133875 0.01547597
v -0.003602721 0.003748529 0.01553973
v -0.00303451 0.003182821 0.01568299
v -0.001382567 0.003587939 0.01570842
v 0.0001478121 0.004407905 0.01562884
v 0.002187036 -0.004783906 0.0154412
v 0.0001452491 -0.005133905 0.01547598
v 0.003893204 -0.003748454 0.01541217
v 0.003330268 -0.003182866 0.01557472
v 0.001680084 -0.003587984 0.01565627
v 0.000147827 -0.00440795 0.01562884
v -0.004637979 0.002042003 0.01555731
v -0.003438704 0.001531519 0.01574337
v 0.004928462 -0.002042048 0.01539461
v 0.003736146 -0.001531444 0.01562125
v 0.002186991 0.004783936 0.01544117
v 0.0001452342 0.005133875 0.01547597
v 0.0001478121 0.004407905 0.01562884
v 0.001680143 0.003587954 0.01565628
v -0.001896404 -0.004783936 0.0155107
v -0.001382522 -0.003587924 0.01570832
v -0.00303451 -0.003182955 0.01568296
v -0.001382522 -0.003587924 0.01570832
v 0.0001499578 -2.235174e-08 0.01575118
v -0.003438704 -0.001531504 0.01574334
v 0.000147827 -0.00440795 0.01562884
v 0.001680084 -0.003587984 0.01565627
v 0.003330268 -0.003182866 0.01557472
v 0.003736146 -0.001531444 0.01562125
v 0.004555143 7.450581e-09 0.0155539
v 0.003736176 0.001531504 0.0156213
v 0.003330313 0.003182821 0.01557469
v 0.001680143 0.003587954 0.01565628
v 0.0001478121 0.004407905 0.01562884
v -0.001382567 0.003587939 0.01570842
v -0.00303451 0.003182821 0.01568299
v -0.003438704 0.001531519 0.01574337
v -0.004259445 5.215406e-08 0.01570382
f 1 2 3
f 1 3 4
f 5 6 3
f 5 3 2
f 7 8 3
f 7 3 6
f 9 4 3
f 9 3 8
f 10 11 12
f 10 12 13
f 14 15 12
f 14 12 11
f 16 17 12
f 16 12 15
f 18 13 12
f 18 12 17
f 19 20 21
f 19 21 22
f 23 24 21
f 23 21 20
f 25 26 21
f 25 21 24
f 27 22 21
f 27 21 26
f 28 29 30
f 28 30 31
f 32 33 30
f 32 30 29
f 34 35 30
f 34 30 33
f 36 31 30
f 36 30 35
f 9 8 37
f 9 37 38
f 7 39 37
f 7 37 8
f 40 41 37
f 40 37 39
f 42 38 37
f 42 37 41
f 18 17 43
f 18 43 44
f 16 45 43
f 16 43 17
f 46 47 43
f 46 43 45
f 48 44 43
f 48 43 47
f 27 26 49
f 27 49 50
f 25 51 49
f 25 49 26
f 52 53 49
f 52 49 51
f 54 50 49
f 54 49 53
f 36 35 55
f 36 55 56
f 34 57 55
f 34 55 35
f 58 59 55
f 58 55 57
f 60 56 55
f 60 55 59
f 61 62 63
f 61 63 64
f 65 66 63
f 65 63 62
f 67 68 63
f 67 63 66
f 69 64 63
f 69 63 68
f 70 71 72
f 70 72 73
f 74 75 72
f 74 72 71
f 76 77 72
f 76 72 75
f 78 73 72
f 78 72 77
f 54 53 79
f 54 79 80
f 52 81 79
f 52 79 53
f 82 83 79
f 82 79 81
f 84 80 79
f 84 79 83
f 60 59 85
f 60 85 86
f 58 87 85
f 58 85 59
f 88 89 85
f 88 85 87
f 90 86 85
f 90 85 89
f 91 92 93
f 91 93 94
f 95 96 93
f 95 93 92
f 97 98 93
f 97 93 96
f 99 94 93
f 99 93 98
f 100 101 102
f 100 102 103
f 104 105 102
f 104 102 101
f 106 107 102
f 106 102 105
f 108 103 102
f 108 102 107
f 109 110 111
f 109 111 112
f 113 114 111
f 113 111 110
f 115 116 111
f 115 111 114
f 117 112 111
f 117 111 116
f 118 119 120
f 118 120 121
f 122 123 120
f 122 120 119
f 124 125 120
f 124 120 123
f 126 121 120
f 126 120 125
f 117 116 127
f 117 127 128
f 115 129 127
f 115 127 116
f 130 131 127
f 130 127 129
f 132 128 127
f 132 127 131
f 5 133 134
f 5 134 6
f 19 22 134
f 19 134 133
f 27 135 134
f 27 134 22
f 7 6 134
f 7 134 135
f 14 136 137
f 14 137 15
f 28 31 137
f 28 137 136
f 36 138 137
f 36 137 31
f 16 15 137
f 16 137 138
f 7 135 139
f 7 139 39
f 27 50 139
f 27 139 135
f 54 140 139
f 54 139 50
f 40 39 139
f 40 139 140
f 16 138 141
f 16 141 45
f 36 56 141
f 36 141 138
f 60 142 141
f 60 141 56
f 46 45 141
f 46 141 142
f 65 143 144
f 65 144 66
f 145 146 144
f 145 144 143
f 147 148 144
f 147 144 146
f 67 66 144
f 67 144 148
f 74 149 150
f 74 150 75
f 151 152 150
f 151 150 149
f 153 154 150
f 153 150 152
f 76 75 150
f 76 150 154
f 95 155 156
f 95 156 96
f 157 158 156
f 157 156 155
f 159 160 156
f 159 156 158
f 97 96 156
f 97 156 160
f 104 161 162
f 104 162 105
f 163 164 162
f 163 162 161
f 165 166 162
f 165 162 164
f 106 105 162
f 106 162 166
f 167 168 169
f 167 169 170
f 126 125 169
f 126 169 168
f 124 171 169
f 124 169 125
f 130 170 169
f 130 169 171
f 172 173 174
f 172 174 175
f 10 13 174
f 10 174 173
f 18 176 174
f 18 174 13
f 177 175 174
f 177 174 176
f 32 178 179
f 32 179 33
f 1 4 179
f 1 179 178
f 9 180 179
f 9 179 4
f 34 33 179
f 34 179 180
f 177 176 181
f 177 181 182
f 18 44 181
f 18 181 176
f 48 183 181
f 48 181 44
f 184 182 181
f 184 181 183
f 34 180 185
f 34 185 57
f 9 38 185
f 9 185 180
f 42 186 185
f 42 185 38
f 58 57 185
f 58 185 186
f 184 183 187
f 184 187 188
f 48 189 187
f 48 187 183
f 190 191 187
f 190 187 189
f 192 188 187
f 192 187 191
f 58 186 193
f 58 193 87
f 42 194 193
f 42 193 186
f 195 196 193
f 195 193 194
f 88 87 193
f 88 193 196
f 197 198 199
f 197 199 200
f 201 202 199
f 201 199 198
f 203 204 199
f 203 199 202
f 205 200 199
f 205 199 204
f 122 206 207
f 122 207 123
f 208 209 207
f 208 207 206
f 210 211 207
f 210 207 209
f 124 123 207
f 124 207 211
f 205 204 212
f 205 212 213
f 203 214 212
f 203 212 204
f 167 170 212
f 167 212 214
f 130 213 212
f 130 212 170
f 124 211 215
f 124 215 171
f 210 216 215
f 210 215 211
f 132 131 215
f 132 215 216
f 130 171 215
f 130 215 131
f 67 217 218
f 67 218 68
f 95 92 218
f 95 218 217
f 91 219 218
f 91 218 92
f 69 68 218
f 69 218 219
f 76 220 221
f 76 221 77
f 104 101 221
f 104 221 220
f 100 222 221
f 100 221 101
f 78 77 221
f 78 221 222
f 82 223 224
f 82 224 83
f 113 110 224
f 113 224 223
f 109 225 224
f 109 224 110
f 84 83 224
f 84 224 225
f 88 226 227
f 88 227 89
f 122 119 227
f 122 227 226
f 118 228 227
f 118 227 119
f 90 89 227
f 90 227 228
f 147 229 230
f 147 230 148
f 157 155 230
f 157 230 229
f 95 217 230
f 95 230 155
f 67 148 230
f 67 230 217
f 153 231 232
f 153 232 154
f 163 161 232
f 163 232 231
f 104 220 232
f 104 232 161
f 76 154 232
f 76 232 220
f 190 233 234
f 190 234 191
f 201 198 234
f 201 234 233
f 197 235 234
f 197 234 198
f 192 191 234
f 192 234 235
f 195 236 237
f 195 237 196
f 208 206 237
f 208 237 236
f 122 226 237
f 122 237 206
f 88 196 237
f 88 237 226
f 40 140 238
f 40 238 239
f 54 240 238
f 54 238 140
f 145 143 238
f 145 238 240
f 65 239 238
f 65 238 143
f 54 80 241
f 54 241 240
f 84 242 241
f 84 241 80
f 147 146 241
f 147 241 242
f 145 240 241
f 145 241 146
f 84 225 243
f 84 243 242
f 109 244 243
f 109 243 225
f 157 229 243
f 157 243 244
f 147 242 243
f 147 243 229
f 109 112 245
f 109 245 244
f 117 246 245
f 117 245 112
f 159 158 245
f 159 245 246
f 157 244 245
f 157 245 158
f 117 128 247
f 117 247 246
f 132 248 247
f 132 247 128
f 97 160 247
f 97 247 248
f 159 246 247
f 159 247 160
f 132 216 249
f 132 249 248
f 210 250 249
f 210 249 216
f 99 98 249
f 99 249 250
f 97 248 249
f 97 249 98
f 210 209 251
f 210 251 250
f 208 252 251
f 208 251 209
f 91 94 251
f 91 251 252
f 99 250 251
f 99 251 94
f 208 236 253
f 208 253 252
f 195 254 253
f 195 253 236
f 69 219 253
f 69 253 254
f 91 252 253
f 91 253 219
f 195 194 255
f 195 255 254
f 42 256 255
f 42 255 194
f 61 64 255
f 61 255 256
f 69 254 255
f 69 255 64
f 42 41 257
f 42 257 256
f 40 239 257
f 40 257 41
f 65 62 257
f 65 257 239
f 61 256 257
f 61 257 62
f 46 142 258
f 46 258 259
f 60 260 258
f 60 258 142
f 151 149 258
f 151 258 260
f 74 259 258
f 74 258 149
f 60 86 261
f 60 261 260
f 90 262 261
f 90 261 86
f 153 152 261
f 153 261 262
f 151 260 261
f 151 261 152
f 90 228 263
f 90 263 262
f 118 264 263
f 118 263 228
f 163 231 263
f 163 263 264
f 153 262 263
f 153 263 231
f 118 121 265
f 118 265 264
f 126 266 265
f 126 265 121
f 165 164 265
f 165 265 266
f 163 264 265
f 163 265 164
f 126 168 267
f 126 267 266
f 167 268 267
f 167 267 168
f 106 166 267
f 106 267 268
f 165 266 267
f 165 267 166
f 167 214 269
f 167 269 268
f 203 270 269
f 203 269 214
f 108 107 269
f 108 269 270
f 106 268 269
f 106 269 107
f 203 202 271
f 203 271 270
f 201 272 271
f 201 271 202
f 100 103 271
f 100 271 272
f 108 270 271
f 108 271 103
f 201 233 273
f 201 273 272
f 190 274 273
f 190 273 233
f 78 222 273
f 78 273 274
f 100 272 273
f 100 273 222
f 190 189 275
f 190 275 274
f 48 276 275
f 48 275 189
f 70 73 275
f 70 275 276
f 78 274 275
f 78 275 73
f 48 47 277
f 48 277 276
f 46 259 277
f 46 277 47
f 74 71 277
f 74 277 259
f 70 276 277
f 70 277 71
f 5 2 278
f 5 278 279
f 1 280 278
f 1 278 2
f 281 282 278
f 281 278 280
f 283 279 278
f 283 278 282
f 14 11 284
f 14 284 285
f 10 286 284
f 10 284 11
f 287 288 284
f 287 284 286
f 289 285 284
f 289 284 288
f 23 20 290
f 23 290 291
f 19 292 290
f 19 290 20
f 293 294 290
f 293 290 292
f 295 291 290
f 295 290 294
f 32 29 296
f 32 296 297
f 28 298 296
f 28 296 29
f 299 300 296
f 299 296 298
f 301 297 296
f 301 296 300
f 19 133 302
f 19 302 292
f 5 279 302
f 5 302 133
f 283 303 302
f 283 302 279
f 293 292 302
f 293 302 303
f 28 136 304
f 28 304 298
f 14 285 304
f 14 304 136
f 289 305 304
f 289 304 285
f 299 298 304
f 299 304 305
f 10 173 306
f 10 306 286
f 172 307 306
f 172 306 173
f 308 309 306
f 308 306 307
f 287 286 306
f 287 306 309
f 1 178 310
f 1 310 280
f 32 297 310
f 32 310 178
f 301 311 310
f 301 310 297
f 281 280 310
f 281 310 311
f 312 313 314
f 312 314 315
f 316 317 314
f 316 314 313
f 318 319 314
f 318 314 317
f 320 321 314
f 320 314 319
f 322 323 314
f 322 314 321
f 324 325 314
f 324 314 323
f 326 327 314
f 326 314 325
f 328 315 314
f 328 314 327
