v 0.000542026 0.004618898 0.0371874
v -6.216764e-05 -0.004526436 -0.03861842
v -6.251037e-05 0.004552409 -0.0386169
v -0.0005420223 0.004793674 0.03861842
v -0.0005419999 -0.004605532 -0.03741136
v -0.0005420223 -0.004793689 0.03861761
v 0.0004364103 0.004637212 0.03776133
v 0.0005415231 -0.004618704 0.0371857
v -0.0005419217 0.004631042 -0.03740942
v 0.0003264099 0.004655108 0.03803825
v 0.0003262796 -0.004654408 0.03803667
v 0.0004360229 -0.004636213 0.03775966
f 1 2 3
f 4 5 6
f 2 5 3
f 7 1 3
f 1 8 2
f 5 8 6
f 8 5 2
f 5 9 3
f 9 5 4
f 9 7 3
f 7 9 4
f 10 4 6
f 10 7 4
f 10 11 7
f 8 11 6
f 11 10 6
f 11 12 7
f 12 11 8
f 7 12 1
f 12 8 1
