v -0.001172423 0.004532821 0.03863928
v -0.00161691 0.004612386 0.03741774
v -0.001616731 -0.004625224 0.03741691
v -0.001616761 -0.005132042 -0.03734076
v -0.001616761 0.00513199 -0.03734016
v 0.001616865 -0.004618056 -0.03711724
v 0.001616314 0.004618898 -0.03711674
v -0.001172036 -0.004546843 0.03863803
v 0.001528025 -0.00463637 -0.03769377
v 0.0005746037 -0.004793055 -0.03857818
v -0.0004142523 -0.00494995 -0.0386394
v 0.000574708 0.004794218 -0.03857774
v -0.0004152209 0.004950777 -0.03863841
v -0.001337931 0.005092435 -0.03793818
v 0.001527265 0.0046378 -0.03769326
v 0.001425833 0.004654907 -0.03797331
v 0.001426131 -0.00465434 -0.03797376
v -0.001337409 -0.00509166 -0.03793955
v -0.0009403378 0.005032204 -0.03830317
v -0.0009394139 -0.005030356 -0.03830472
f 1 2 3
f 2 4 3
f 4 2 5
f 6 7 1
f 4 8 3
f 8 1 3
f 8 6 1
f 9 4 10
f 8 9 6
f 9 8 4
f 9 7 6
f 11 12 10
f 12 11 13
f 14 4 5
f 2 14 5
f 15 2 1
f 7 15 1
f 12 15 16
f 15 9 16
f 9 15 7
f 9 17 16
f 17 9 10
f 17 12 16
f 12 17 10
f 14 18 4
f 4 18 10
f 18 11 10
f 19 15 12
f 19 12 13
f 19 14 2
f 15 19 2
f 19 18 14
f 18 20 11
f 19 20 18
f 11 20 13
f 20 19 13
