v -0.004718781 -0.005415976 -0.0313985
v -0.0009999573 0.01349014 -0.001918882
v -0.003476441 -0.004026234 -0.03384426
v -0.004034132 0.02027577 0.03572491
v 0.001984119 0.0179286 0.0364719
v -0.001801848 -0.01763272 0.03100309
v 0.002377927 -0.005516887 0.03237191
v -0.001964808 -0.01848894 0.03000835
v -0.001096129 -0.005461156 -0.0364719
v -0.0009280443 -0.02027577 0.01706755
v -0.0009623766 0.020262 0.01902947
v -0.003946006 -0.004022419 0.03141394
v -0.0007573366 0.006178975 -0.01873598
v 0.003651589 -0.01460433 -0.006444275
v 0.00409168 -0.01305568 -0.005122691
v 0.003250986 0.01621807 0.004714817
v -0.004703462 0.01568252 0.0347763
v -0.002588779 -0.01693588 0.02841541
v 0.004070133 -0.005667269 0.01826206
v 0.003074646 -0.004875243 0.02877647
v 0.004405588 -0.009919584 0.002205104
v 0.004650444 0.01355797 0.009317845
v 0.003628612 -0.01180023 -0.01363245
v 0.003756583 -0.004885018 -0.01718107
v 0.003090411 -0.002120137 -0.02737737
v 0.001657397 0.01988047 0.02906695
v -0.004646569 0.01857114 0.03530207
v 0.002753794 0.008356333 -0.01597825
v 0.004662514 0.01469189 0.004715919
v 0.003345251 0.006632268 -0.01808569
v 0.002025038 -0.0002797246 -0.02917653
v 0.004502714 0.00601995 -0.01317248
v 0.001818419 -0.007281542 -0.03334871
v 0.003124118 0.01780999 0.01074103
v 0.0005710721 0.01945275 0.03646949
v -0.001516193 -0.00357759 -0.03525648
v 0.004718781 0.007919788 -0.008946508
v 0.001615822 -0.005775511 -0.03504065
v 0.003458649 0.01814401 0.02526733
f 1 2 3
f 2 1 4
f 5 6 7
f 6 8 7
f 9 1 3
f 1 9 10
f 11 2 4
f 12 8 6
f 2 13 3
f 14 15 10
f 11 16 2
f 12 17 1
f 17 12 6
f 18 12 1
f 12 18 8
f 18 1 10
f 8 18 10
f 19 20 10
f 8 20 7
f 20 8 10
f 20 5 7
f 15 21 10
f 21 19 10
f 19 21 22
f 14 23 15
f 23 24 15
f 24 23 25
f 26 11 4
f 1 27 4
f 17 27 1
f 27 6 4
f 27 17 6
f 28 13 2
f 16 28 2
f 28 16 29
f 30 28 29
f 31 30 25
f 31 28 30
f 30 32 25
f 32 24 25
f 24 32 15
f 23 33 25
f 33 23 14
f 9 33 10
f 33 14 10
f 34 16 11
f 26 34 11
f 16 34 29
f 35 26 4
f 26 35 5
f 6 35 4
f 5 35 6
f 36 9 3
f 13 36 3
f 28 36 13
f 31 36 28
f 37 21 15
f 32 37 15
f 22 37 29
f 21 37 22
f 37 30 29
f 37 32 30
f 38 31 25
f 33 38 25
f 38 33 9
f 36 38 9
f 38 36 31
f 34 39 29
f 39 34 26
f 39 26 5
f 39 22 29
f 20 39 5
f 39 19 22
f 39 20 19
