v -0.001250237 -0.01646864 0.01387997
v -0.002776474 -0.0160771 -0.02420263
v 0.002890378 -0.01652998 -0.02109061
v 0.003178507 0.01479429 0.008299932
v -0.00252074 0.01653481 0.02420263
v -0.003694862 0.0162071 -0.014865
v -0.002111614 0.01528329 -0.01824991
v 0.003253579 0.01563954 -0.0151829
v -0.00213626 -0.01601624 0.0132194
v -0.003096908 -0.01597607 0.0001355857
v -0.003739297 -0.01599169 -0.02162804
v -0.003769815 0.01529074 -0.01486166
v -0.003452718 0.01538032 0.02341978
v 0.002933532 0.01573968 0.009153649
v 0.00240469 -0.01415116 0.001226321
v 0.003099442 -0.007353246 -0.0222982
v 0.003769815 0.0008861423 -0.01449479
v -0.000777036 0.002893031 -0.02181984
v 0.003302038 -0.0009311438 -0.02146046
v 0.003136665 0.01287729 -0.01807155
v -0.003377348 0.0162977 0.02341785
v -0.003769279 0.01536191 0.00861831
v -0.003769815 -0.01505703 -0.01873432
v 0.003209531 -0.01653486 -0.01412095
v 0.003663421 0.0008789301 -0.01942606
f 1 2 3
f 1 4 5
f 2 6 7
f 8 6 5
f 6 8 7
f 9 10 1
f 1 11 2
f 10 11 1
f 11 6 2
f 6 11 12
f 9 13 10
f 13 1 5
f 13 9 1
f 14 8 5
f 4 14 5
f 14 4 8
f 15 4 1
f 2 16 3
f 4 17 8
f 18 2 7
f 18 16 2
f 16 18 19
f 8 20 7
f 20 18 7
f 18 20 19
f 6 21 5
f 21 13 5
f 22 6 12
f 22 21 6
f 21 22 13
f 23 11 10
f 13 23 10
f 22 23 13
f 11 23 12
f 23 22 12
f 24 1 3
f 24 15 1
f 15 24 4
f 24 17 4
f 20 25 19
f 25 16 19
f 17 25 8
f 25 20 8
f 16 25 3
f 25 24 3
f 24 25 17
