v -0.003557384 0.00748384 0.02362084
v -0.002230942 0.01994091 0.02520087
v -0.004298151 0.01556367 -0.02429506
v -0.003599882 -0.003749073 -0.02513185
v 0.00327903 -0.004012287 -0.02422458
v 0.002325416 -0.007219732 -0.02250966
v 0.002999961 0.008069754 0.02448478
v 0.003313482 0.01915592 -0.01041043
v 0.00414151 0.009779096 0.01083791
v -0.004146695 -0.01129711 0.02353492
v -0.00429213 -0.01823628 0.02259123
v -0.003838062 -0.003751457 -0.02332139
v -0.00417912 0.01556337 -0.02520084
v 0.001725554 0.01785266 -0.02441987
v 0.002332091 0.01817763 -0.02249718
v 0.003731847 -0.01679587 0.00985077
v 0.002145708 -0.01764989 0.02436209
v 0.002343535 -0.01882666 0.01886603
v 0.0003057122 -0.01074469 -0.0150547
v 0.003564715 -0.01200294 -0.01039028
v 0.000159204 -0.01722628 0.004439801
v -0.003762245 -0.01994091 0.02358162
v -0.002926052 -0.01993752 0.0172497
v -0.001731038 -0.009758651 -0.01612625
v 0.003246605 -0.01711959 0.007029176
v 0.004222214 -0.01338172 -0.003867745
v 0.004298151 -0.0113529 -0.002936065
v 0.002731681 -0.01156431 0.02444199
v 0.003639519 0.0182997 -0.01036769
v -0.001521707 -0.01590347 0.0007625222
v 0.003828228 -0.007825315 0.0126313
v 0.004273415 0.01318896 -0.0001705885
v 0.004102945 0.01488966 -0.003871709
v 0.004195511 -0.007945299 -0.01214713
v 0.002832294 0.01241326 -0.02427542
v 0.003774166 -0.006566465 -0.0204767
f 1 2 3
f 4 5 6
f 7 8 2
f 8 7 9
f 1 10 2
f 11 10 3
f 10 1 3
f 12 11 3
f 12 4 11
f 5 13 14
f 4 13 5
f 2 13 3
f 14 13 2
f 13 12 3
f 12 13 4
f 15 14 2
f 8 15 2
f 16 17 18
f 19 20 21
f 20 19 6
f 4 22 11
f 23 22 4
f 22 10 11
f 17 22 18
f 22 23 18
f 22 17 2
f 10 22 2
f 24 23 4
f 24 4 6
f 19 24 6
f 25 16 18
f 23 25 18
f 25 23 21
f 16 25 26
f 20 25 21
f 25 20 26
f 27 16 26
f 16 28 17
f 17 28 2
f 28 7 2
f 29 15 8
f 29 8 9
f 23 30 21
f 24 30 23
f 30 19 21
f 30 24 19
f 31 27 9
f 27 31 16
f 31 28 16
f 7 31 9
f 28 31 7
f 27 32 9
f 32 29 9
f 29 32 33
f 34 27 26
f 32 34 33
f 34 32 27
f 29 35 15
f 35 5 14
f 15 35 14
f 35 36 5
f 36 35 29
f 36 29 33
f 34 36 33
f 5 36 6
f 36 20 6
f 20 36 26
f 36 34 26
