v 0.0179497 -0.002329558 0.05023517
v 0.01941931 -0.02012017 0.03788504
v 0.02326363 0.005273849 0.04581138
v 0.01776832 -0.01142554 -0.05120778
v -0.005984843 0.03051747 0.01582238
v 0.009362698 -0.01730055 -0.05162534
v 0.009744823 -0.01775569 -0.05191594
v 0.02216774 0.006070822 0.04663938
v -0.02300864 -0.01947522 0.03827509
v 0.002666771 -0.02489337 -0.04993531
v -0.01588413 -0.02872181 0.02496454
v -0.006951988 -0.01240914 -0.03196543
v 0.01229444 -0.01087333 0.05119519
v 0.01137874 -0.009779781 0.05189326
v 0.003889292 -0.01674832 0.05077761
v 0.001721859 -0.02957797 0.03498214
v 0.01101366 -0.02599511 0.03746659
v -0.005402803 -0.02033079 0.04829362
v 0.01129338 -0.01933073 -0.05019796
v -0.01421636 0.0300885 0.008549571
v 0.02135402 0.006437302 0.04681286
v 0.004794359 -0.02624521 -0.04962921
v -0.007546306 -0.03051746 0.03067464
v -0.01467067 -0.02127007 0.04398525
v 0.00521934 -0.02621758 -0.04866531
v 0.004062474 -0.02594936 -0.05024853
v 0.01052234 -0.01862542 -0.05187887
v -0.01508194 -0.01998198 0.04481901
v -0.02316815 -0.01736715 0.03952745
v -0.02326366 -0.01822083 0.03921549
v 0.01077422 -0.009096175 0.05194932
v 0.002692312 -0.01474535 0.05154851
v 0.01104945 -0.01915258 -0.05120733
v -0.02262175 0.02421291 0.008131623
v -0.01463607 0.03041461 0.01004535
v 0.02100697 0.006557643 0.04681781
v 0.02066454 0.006611183 0.04669365
v 0.01690552 -0.001598135 0.05029109
v 0.01721269 -0.001797378 0.05032478
v 0.01661062 -0.001452282 0.05012621
v -0.006346107 -0.01749766 0.04898529
v -0.02255183 0.02442308 0.01118931
v -0.02291477 -0.01669256 0.03955735
v -0.0146409 0.02995214 0.01158175
v -0.02308369 -0.01701702 0.03959963
v -0.02271497 0.02457871 0.01089843
v -0.006320477 -0.0178324 0.04913735
v 0.002526581 -0.01442085 0.0515027
v -0.006241262 -0.01818949 0.04915956
v -0.01514491 -0.01872675 0.04503548
v 0.003100276 -0.02528951 -0.05023921
v -0.005987376 -0.01906037 0.04904532
v 0.003130555 -0.01554489 0.05148312
v -0.01471496 0.03028542 0.0109468
v -0.02279621 0.02463786 0.0105457
v -0.02288404 0.02464963 0.009636194
v 0.01030838 -0.008596867 0.05171637
v -0.01506871 -0.01838247 0.04493095
v -0.0151521 -0.01909339 0.04501724
v 0.003538877 -0.02560589 -0.05029267
v -0.01471233 0.03017242 0.01129597
v 0.00239867 -0.01412615 0.05132295
v 0.01052991 -0.008826792 0.05190057
v 0.01010394 -0.01816222 -0.05194932
f 1 2 3
f 4 5 3
f 2 4 3
f 6 4 7
f 5 8 3
f 8 1 3
f 9 10 11
f 10 9 12
f 6 10 12
f 13 1 14
f 13 2 1
f 15 16 17
f 16 15 18
f 2 15 17
f 13 15 2
f 15 13 14
f 19 4 2
f 20 4 6
f 4 20 5
f 21 8 5
f 8 21 1
f 22 23 11
f 16 23 22
f 23 9 11
f 23 24 9
f 23 16 18
f 24 23 18
f 16 25 17
f 25 16 22
f 25 2 17
f 19 25 22
f 25 19 2
f 26 22 11
f 26 27 22
f 28 24 18
f 28 29 30
f 24 28 9
f 28 30 9
f 1 31 14
f 31 32 14
f 33 27 4
f 19 33 4
f 27 33 22
f 33 19 22
f 34 20 6
f 34 6 12
f 9 34 12
f 20 35 5
f 36 5 37
f 36 21 5
f 38 36 37
f 21 39 1
f 39 31 1
f 39 36 38
f 36 39 21
f 5 40 37
f 40 38 37
f 41 42 43
f 44 42 5
f 42 40 5
f 45 42 46
f 43 42 45
f 41 47 48
f 47 32 48
f 32 47 49
f 50 47 41
f 47 50 49
f 10 51 11
f 51 6 7
f 51 10 6
f 52 32 49
f 52 28 18
f 28 52 49
f 53 15 14
f 32 53 14
f 52 53 32
f 15 53 18
f 53 52 18
f 35 54 5
f 55 54 35
f 29 55 30
f 55 45 46
f 55 29 45
f 34 56 20
f 56 35 20
f 56 55 35
f 55 56 30
f 30 56 9
f 56 34 9
f 57 42 41
f 42 57 40
f 58 41 43
f 58 50 41
f 58 43 45
f 50 58 45
f 59 28 49
f 50 59 49
f 28 59 29
f 29 59 45
f 59 50 45
f 60 26 11
f 51 60 11
f 26 60 27
f 42 61 46
f 61 42 44
f 61 55 46
f 55 61 54
f 61 44 5
f 54 61 5
f 62 41 48
f 57 62 48
f 62 57 41
f 63 57 48
f 32 63 48
f 63 32 31
f 63 39 38
f 39 63 31
f 40 63 38
f 57 63 40
f 60 64 27
f 4 64 7
f 27 64 4
f 64 51 7
f 64 60 51
