v -0.001485631 0.00664407 -0.01700145
v -0.0005755126 0.006538808 -0.01700389
v -0.001650244 -0.002680719 -0.02289701
v -0.0005227327 0.006640553 0.02211666
v -0.00148952 0.00625509 0.02289695
v 0.002616793 0.002279043 -0.01946086
v 0.002579391 0.001609623 0.01916659
v -0.002616808 -0.003065467 -0.02211756
v -0.002094001 -0.00664407 -0.008064151
v -0.002575293 -0.004697323 0.01423943
v -0.002056122 -0.006485403 0.01047599
v -0.0005791485 0.006149769 0.02289569
v 0.001985878 -0.00348866 0.01700026
v 0.001858339 -0.004347563 -0.01066786
v -0.001011506 -0.005477965 0.01552927
v -0.0001078844 -0.005389273 -0.01038754
v 0.002145901 -0.001773 -0.01987368
v -0.0001139343 -0.005652726 0.01222306
v 1.327693e-05 -0.004279613 -0.0172739
f 1 2 3
f 4 1 5
f 1 4 2
f 2 6 3
f 4 6 2
f 6 4 7
f 8 9 10
f 8 1 3
f 8 10 5
f 1 8 5
f 9 11 10
f 12 4 5
f 4 12 7
f 13 12 5
f 7 12 13
f 14 7 13
f 14 6 7
f 11 15 10
f 15 13 5
f 10 15 5
f 16 14 9
f 6 17 3
f 14 17 6
f 18 11 9
f 14 18 9
f 18 14 13
f 15 18 13
f 18 15 11
f 16 19 14
f 19 17 14
f 17 19 3
f 19 16 9
f 19 8 3
f 8 19 9
