v -0.003267989 -0.01691419 0.03469527
v 0.00338687 -0.002159119 0.03995383
v -0.003386781 0.0221436 0.03921327
v -0.00338687 -0.007617772 -0.03868225
v -0.003323629 -0.0199188 -0.01340371
v -0.00338687 0.0221585 -0.03982234
v 0.002273217 0.0207473 0.03673604
v 0.002964571 0.0157392 -0.0399538
v -0.003342375 -0.01635402 -0.0236659
v 0.00198786 0.02117825 -0.03826487
v -0.003282413 -0.02155292 -0.005691588
v -0.003278956 -0.0221585 0.01226842
v -0.003278241 -0.0201053 0.02560127
v 0.002829388 -0.01226854 0.03385895
v -0.0006172508 -0.01572406 0.03391045
v 0.00202696 -0.0199315 0.01684821
v 0.001950011 -0.01181364 -0.02858549
v 0.001105651 -0.02080315 0.01501197
v 0.002689287 -0.01755267 0.0136916
v 0.002613172 -0.01617837 -0.00804621
v 0.0009574741 -0.0188998 -0.004783809
v 0.002650157 -0.001521766 -0.0374133
f 1 2 3
f 4 5 3
f 6 4 3
f 2 7 3
f 8 7 2
f 8 4 6
f 4 9 5
f 10 8 6
f 8 10 7
f 10 6 3
f 7 10 3
f 11 12 5
f 12 13 5
f 5 13 3
f 13 1 3
f 14 15 16
f 13 15 1
f 15 13 16
f 1 15 2
f 15 14 2
f 9 17 5
f 17 9 4
f 13 18 16
f 18 13 12
f 11 18 12
f 19 14 16
f 20 19 16
f 14 19 2
f 19 20 2
f 21 18 11
f 21 11 5
f 18 21 16
f 21 20 16
f 17 21 5
f 20 21 17
f 22 8 2
f 20 22 2
f 22 20 17
f 8 22 4
f 22 17 4
