v -0.002239034 0.001010835 0.02032335
v -0.002216414 0.002525687 0.01929463
v -0.00235121 -0.005674243 0.01046564
v -0.001446143 -0.00562793 -0.01390927
v -0.00143595 -0.005688667 0.01046507
v 0.002273455 -0.00293237 0.01298238
v 0.002363428 0.003267586 -0.005600825
v 0.002314731 0.0006223917 -0.0192946
v -0.0003922433 0.003211081 -0.01880799
v 0.002359882 0.002616644 0.008112833
v 0.00231351 -0.0006075501 0.01804371
v -0.002363428 -0.005613029 -0.01390935
v -0.002224132 0.003239155 -0.01880626
v 0.002278015 -0.001652896 -0.01775111
v 0.0005586296 0.004646957 0.004540965
v 0.0005290955 0.002453327 0.0159861
v -0.0004093796 0.002184451 -0.02032335
v -0.002173528 0.005688667 0.002759531
v -0.001263127 0.00559938 -0.007141665
f 1 2 3
f 4 5 3
f 5 4 6
f 7 8 9
f 7 10 8
f 11 6 8
f 10 11 8
f 11 2 1
f 11 5 6
f 11 1 3
f 5 11 3
f 2 12 3
f 12 2 13
f 12 4 3
f 6 14 8
f 4 14 6
f 12 14 4
f 7 15 10
f 16 11 10
f 11 16 2
f 15 16 10
f 16 15 2
f 17 12 13
f 8 17 9
f 17 13 9
f 14 17 8
f 17 14 12
f 2 18 13
f 15 18 2
f 13 19 9
f 18 19 13
f 19 7 9
f 19 15 7
f 19 18 15
