v -0.002292931 0.02924109 -0.03465134
v -0.002292857 -0.03008974 0.03198576
v -0.002210543 0.01041925 0.01042491
v -0.002237603 -0.01121289 0.02631211
v -0.002292931 -0.03206497 -0.03499135
v 0.002130985 0.03293258 -0.0358997
v 0.002292961 -0.03293264 -0.03590342
v -0.0005654097 0.03058386 -0.02713376
v 0.002109885 0.03121555 -0.02224356
v 0.002046853 0.01695162 0.008232474
v 0.002189219 -0.03116149 0.03590345
v 0.002042085 0.0270887 -0.009376347
v -0.0005381703 -0.02192855 0.03243738
v 0.001295686 -0.03162891 0.03547576
v -0.001400128 0.02791643 -0.01933423
v 0.002058864 -0.001973629 0.02513567
v 0.002034009 0.006607592 0.01873451
v -0.000544101 0.0006254911 0.0215705
v -0.0005511642 0.01297766 0.01043767
v -0.002177909 0.001403868 0.01865166
v 0.002254784 -0.03219569 0.008672059
v 0.001200318 -0.01584989 0.03150564
v -0.0005568266 0.02134651 -0.001410931
v -0.002201661 0.02329504 -0.009714067
f 1 2 3
f 2 4 3
f 1 5 2
f 5 6 7
f 5 1 6
f 8 9 6
f 1 8 6
f 10 11 9
f 12 10 9
f 13 4 2
f 5 14 2
f 14 13 2
f 13 14 11
f 14 5 7
f 15 12 9
f 8 15 9
f 15 8 1
f 16 10 17
f 10 16 11
f 18 16 17
f 16 18 4
f 10 19 17
f 19 18 17
f 4 20 3
f 18 20 4
f 20 19 3
f 19 20 18
f 21 14 7
f 14 21 11
f 6 21 7
f 9 21 6
f 11 21 9
f 13 22 4
f 22 16 4
f 22 13 11
f 16 22 11
f 23 10 12
f 23 19 10
f 19 23 3
f 15 24 12
f 24 23 12
f 23 24 3
f 24 1 3
f 24 15 1
