v 0.002825171 -0.004385114 -0.01299796
v -0.002825201 0.00204879 -0.01300815
v 0.002681881 0.007686138 -0.01299825
v 0.001749754 0.007675648 -0.01114088
v -0.002814233 -0.002592921 0.01299873
v 0.002825141 0.008113563 -0.01174042
v 0.00282523 -0.008104265 0.01300815
v 0.002703249 0.002113223 0.01300761
v -0.0008939505 -0.006287336 0.002780735
v 0.001916915 -0.008113503 3.576279e-06
v 0.001903921 -0.005324602 -0.01114044
v -0.002792388 -0.004451752 0.012999
v 0.001773357 0.002100587 0.01300654
v -0.002779245 -0.002594054 -0.007432014
v -0.002793521 -0.0007349253 -0.01207799
f 1 2 3
f 2 4 3
f 4 2 5
f 1 6 7
f 6 1 3
f 6 8 7
f 4 6 3
f 9 10 7
f 10 1 7
f 1 10 11
f 12 9 7
f 2 12 5
f 13 4 5
f 12 13 5
f 6 13 8
f 13 6 4
f 8 13 7
f 13 12 7
f 12 14 9
f 14 12 2
f 10 14 11
f 14 10 9
f 14 15 11
f 15 14 2
f 15 1 11
f 15 2 1
