v 0.0009534359 0.02042712 -0.03723663
v 0.00709182 0.02341516 -0.03919894
v 0.01106954 0.02060659 -0.04052395
v -0.01795101 0.01145746 0.009072602
v -0.01850736 0.002491489 0.003491402
v -0.005752623 0.02213331 0.01110101
v 0.002239466 0.02373786 0.002257407
v 0.002062976 0.02361138 0.00927037
v -0.01349258 0.01738192 0.01019198
v 0.008983135 0.02185084 0.006008267
v 0.007010996 0.020647 0.01860577
v 0.01271415 0.01749863 0.01767087
v -0.004520893 0.02194823 0.001293302
v -0.007387578 0.01937534 0.0218457
v -0.01442891 0.01673843 0.02209133
v 0.01571643 -0.01325922 0.002703339
v 0.01022899 0.01428725 -0.03720129
v -0.01536214 0.01680394 0.01704726
v 0.009524345 -0.02227397 0.01268896
v 0.0008870363 -0.02370013 0.01875311
v 0.001076996 -0.02373786 0.01075158
v 0.004310787 -0.02218281 0.02624893
v -0.008906543 -0.02078892 0.02701867
v -0.01141524 -0.0147367 0.02720565
v -0.01219165 -0.02181916 0.02046099
v -0.004994512 0.008873835 0.03643829
v 0.001616418 0.008700863 0.03795946
v 0.004036427 0.01198472 0.03548247
v -0.01080513 0.008907035 0.03284201
v -0.003531933 0.001221046 0.03909832
v -0.01440465 0.01269992 0.02763253
v -0.01572394 0.007650778 0.0275391
v -0.01895529 0.007043794 0.02005592
v -0.01978159 0.005317643 0.01583058
v 0.01647592 0.01402499 0.01151264
v 0.01326752 0.01809599 0.005772591
v 0.0009270906 0.01916344 0.02482429
v -0.002903163 0.01658715 0.02919877
v 0.003551662 0.01002218 -0.03458646
v 0.003635526 -0.00901182 -0.01484022
v 0.0003763437 -0.01623441 -0.007846862
v 0.01612186 -0.003664449 -0.004719585
v 0.01844049 -0.008340403 0.006406605
v 0.01987529 -0.002950087 0.008449018
v 0.01987529 0.004847243 0.01301494
v -0.01742405 -0.0145068 0.01585194
v -0.0115568 -0.02259319 0.0136019
v -0.01618755 -0.01942541 0.01059437
v -0.01406848 -0.01917343 0.006609052
v -0.0007594228 -0.0219173 0.001998812
v 0.0003797412 0.01319052 -0.03642362
v -0.009705424 -0.01335056 -0.003840268
v -0.00529021 -0.01883595 -0.002092957
v -0.003347993 -0.009622499 0.03631794
v 0.005805612 -0.006934986 0.04005668
v 0.003631353 -0.01195373 0.0378817
v 0.006856918 -0.02268885 0.008329421
v -0.002745271 -0.01714911 0.0332025
v 1.549721e-05 -0.02144866 0.02911365
v -0.008710921 -0.01094575 0.0319939
v -0.00757587 -0.02336474 0.02086124
v 0.004447758 0.001305625 0.04052395
v 0.01069981 -0.0009575933 0.03976423
v -0.01648819 0.01498289 0.01922137
v -0.009853125 0.01398565 0.03070611
v 0.0004091263 0.02244164 0.01583433
v 0.007594705 -0.01563813 -0.006957799
v 0.01862609 0.003332689 0.002016574
v -0.01589507 -0.0191568 0.013706
v -0.01974213 -0.00534524 0.01149616
v -0.009237766 -0.02159519 0.007529378
v -0.001628816 -0.008494958 -0.01448125
v 0.007921934 -0.01932873 0.03119758
v 0.01364237 -0.01869841 0.02296662
v 0.01269144 -0.01490878 0.03295371
v 0.01695383 0.01014353 0.02327752
v 0.01979226 0.001316682 0.02304718
v 0.008620024 0.01551129 0.02831662
v 0.01190513 0.006879225 0.03612891
v -0.004991353 -0.01299314 0.03389454
v -0.01143384 6.781518e-05 0.0326407
v -0.006699204 -0.008147344 0.03455749
v 0.00807035 0.004597917 0.03955662
v 0.01374114 -0.01186277 -0.003536105
v 0.01055515 -0.01959936 0.002798885
v -0.01981437 -1.259148e-05 0.01135141
v -0.0171808 -0.01342975 0.005085766
v -0.01853383 -0.01145037 0.009709597
v 0.01158822 -0.008576199 0.03813672
v 0.0158751 -0.005455568 0.03468296
v 0.01602221 0.002956584 0.03330523
v 0.01103586 -0.02071919 0.02130818
v 0.01726687 -0.01300265 0.02450401
v 0.007270813 -0.01607938 0.0355711
v 0.01283377 0.01253124 0.02824453
v -0.00440532 -0.008849159 0.03597289
v -0.01080823 -0.007375225 0.0311169
v 0.00481993 -0.02106102 0.0004732609
v 0.01446193 -0.01826154 0.0107919
v -0.01987535 0.000265494 0.01206318
v -0.0177747 -0.006333336 0.002499998
v 0.01987052 -0.006138489 0.02009308
v -0.009635568 -0.008406594 0.03212556
v 0.01781195 -0.01348634 0.01328996
v 0.01753134 -0.007272407 0.03114098
f 1 2 3
f 4 1 5
f 6 7 2
f 7 6 8
f 4 9 1
f 2 10 3
f 10 11 12
f 11 10 8
f 10 7 8
f 7 10 2
f 13 2 1
f 13 6 2
f 9 13 1
f 13 9 6
f 14 6 15
f 16 17 3
f 18 9 4
f 6 18 15
f 9 18 6
f 19 20 21
f 20 19 22
f 23 24 25
f 26 27 28
f 26 29 30
f 27 26 30
f 29 31 32
f 31 33 32
f 34 4 5
f 35 36 12
f 36 10 12
f 36 35 3
f 10 36 3
f 37 14 38
f 28 37 38
f 39 40 41
f 42 16 3
f 42 43 16
f 44 43 3
f 43 42 3
f 35 45 3
f 24 46 25
f 33 46 32
f 46 24 32
f 47 48 49
f 47 50 21
f 48 47 25
f 51 39 41
f 51 1 3
f 1 51 5
f 17 51 3
f 51 17 39
f 52 53 49
f 50 53 41
f 51 53 52
f 54 55 30
f 55 54 56
f 50 57 21
f 57 19 21
f 54 58 56
f 59 58 23
f 60 24 23
f 61 20 22
f 59 61 22
f 47 61 25
f 61 23 25
f 61 59 23
f 20 61 21
f 61 47 21
f 62 27 30
f 55 62 30
f 62 55 63
f 64 31 15
f 31 64 33
f 18 64 15
f 64 18 4
f 34 64 4
f 64 34 33
f 26 65 29
f 65 31 29
f 65 28 38
f 65 26 28
f 31 65 15
f 65 14 15
f 14 65 38
f 37 66 14
f 6 66 8
f 14 66 6
f 66 11 8
f 66 37 11
f 40 67 41
f 17 67 39
f 67 40 39
f 68 44 3
f 45 68 3
f 68 45 44
f 69 48 25
f 46 69 25
f 69 46 48
f 34 70 33
f 70 46 33
f 71 47 49
f 47 71 50
f 53 71 49
f 71 53 50
f 72 51 41
f 53 72 41
f 72 53 51
f 73 59 22
f 73 74 75
f 76 35 12
f 45 76 77
f 76 45 35
f 11 78 12
f 79 78 28
f 78 37 28
f 37 78 11
f 80 58 54
f 58 80 23
f 80 60 23
f 81 29 32
f 29 81 30
f 81 82 30
f 62 83 27
f 27 83 28
f 83 79 28
f 79 83 63
f 83 62 63
f 84 17 16
f 84 67 17
f 57 85 19
f 85 84 16
f 84 85 67
f 70 86 5
f 48 87 49
f 87 52 49
f 87 51 52
f 46 88 48
f 70 88 46
f 88 87 48
f 89 90 63
f 90 89 75
f 55 89 63
f 91 79 63
f 90 91 63
f 76 91 77
f 19 92 22
f 74 92 19
f 92 73 22
f 73 92 74
f 74 93 75
f 94 58 59
f 73 94 59
f 58 94 56
f 94 55 56
f 94 89 55
f 94 73 75
f 89 94 75
f 95 78 79
f 91 95 79
f 95 91 76
f 95 76 12
f 78 95 12
f 96 54 30
f 82 96 30
f 96 80 54
f 80 96 60
f 96 82 60
f 24 97 32
f 97 81 32
f 98 57 50
f 98 85 57
f 85 98 67
f 98 50 41
f 67 98 41
f 99 74 19
f 85 99 19
f 99 85 16
f 100 70 34
f 100 86 70
f 100 34 5
f 86 100 5
f 101 70 5
f 51 101 5
f 87 101 51
f 101 88 70
f 88 101 87
f 102 45 77
f 45 102 44
f 97 103 81
f 82 103 60
f 81 103 82
f 60 103 24
f 103 97 24
f 104 93 74
f 99 104 74
f 104 102 93
f 43 104 16
f 104 99 16
f 104 43 44
f 102 104 44
f 102 105 93
f 105 90 75
f 93 105 75
f 105 102 77
f 91 105 77
f 105 91 90
