v 0.002714276 -0.03978539 0.0460428
v -0.002735019 0.03846067 0.04511368
v -0.0009500384 -0.03978413 0.04604197
v 0.001734763 0.03569502 0.04392144
v -0.002735108 -0.03977346 -0.04604283
v 0.002619892 -0.03848219 -0.04105079
v -0.002672195 -0.0149098 -0.04332647
v -0.002641052 0.01072562 -0.03066039
v -0.002735078 -0.03909886 0.04525751
v -0.002683401 0.0395062 0.01768717
v -0.002640486 0.03008664 -0.008804291
v 0.002589762 0.03615314 0.03472838
v -0.002688497 -0.02393639 -0.04534793
v -0.00264895 -0.0006947517 -0.0377591
v 0.001708567 0.007090628 -0.02920669
v 0.002549559 -0.004922509 -0.03493163
v -0.002655417 0.03643215 0.005188346
v 0.002735108 -0.02089572 -0.04195336
v -0.002701789 0.03978539 0.03922179
v 0.001719356 0.03155863 0.0007946789
v 0.00170058 0.02341813 -0.01288956
v 0.002525032 0.02824557 -0.003440052
v 0.002535701 0.01126266 -0.02460998
v -0.002631009 0.02032936 -0.02184686
v 0.001812041 0.03888899 0.02282539
v -0.002629876 0.02469373 -0.01661813
v 0.002567261 0.03396118 0.01110482
f 1 2 3
f 2 1 4
f 5 1 3
f 1 5 6
f 7 5 8
f 9 5 3
f 2 9 3
f 9 2 5
f 2 10 5
f 5 10 8
f 10 11 8
f 1 12 4
f 7 13 5
f 14 7 8
f 15 14 8
f 14 15 16
f 10 17 11
f 18 1 6
f 18 12 1
f 5 18 6
f 13 18 5
f 18 13 7
f 14 18 7
f 18 14 16
f 19 10 2
f 19 2 4
f 17 20 11
f 21 20 22
f 20 21 11
f 18 23 22
f 23 18 16
f 15 23 16
f 23 21 22
f 23 15 8
f 11 24 8
f 24 23 8
f 23 24 21
f 25 17 10
f 25 20 17
f 19 25 10
f 12 25 4
f 25 19 4
f 21 26 11
f 26 24 11
f 24 26 21
f 20 27 22
f 25 27 20
f 27 25 12
f 27 18 22
f 18 27 12
