v -0.00436534 0.01712257 -0.02700743
v -0.004344478 -0.01466119 0.0241178
v -0.002312526 -0.008592486 0.02375615
v -0.0003681332 -0.01474196 0.02889094
v 0.00241603 -0.00744319 0.02089193
v 0.001693115 -0.01648283 0.0274941
v -0.0004079491 -0.01909924 -0.0282706
v -0.001812652 -0.01764226 -0.02795449
v -0.003245875 -0.008373499 -0.02659753
v 0.003068641 0.002006948 -0.02781919
v 0.003076717 -0.008691907 -0.02889094
v 0.002150938 0.01679349 -0.02839664
v 0.003740266 -0.009611666 -0.02435067
v -0.004388824 0.01422608 -0.02703765
v -0.001227066 0.0190993 -0.02483442
v 0.003937319 0.01227927 -0.01289931
v 0.004388824 0.007839561 -0.003687799
v -0.003413424 -0.005464315 -0.027473
v 0.004364654 -0.01759386 -0.00865826
v 0.004241571 -0.00185895 0.01120323
v 0.004001603 -0.017712 0.00357759
v 0.003284797 0.01496589 -0.02022293
v 0.001431659 0.001056314 0.01183403
v 0.001478329 0.009873927 -0.002106279
v -0.002738908 0.01791739 -0.02078021
v 0.002068415 0.01641113 -0.0190134
v 0.003886625 -0.01908576 -0.003895104
v 0.002842173 -0.0141446 0.02446857
v 0.003126219 0.0004666448 0.01146701
v 0.003173187 0.009285808 -0.002473801
v -0.00198181 0.01850981 -0.0228073
v -0.0001012236 0.01550901 -0.01387647
v 0.003275558 -0.01667935 0.01685479
f 1 2 3
f 3 4 5
f 4 6 5
f 2 4 3
f 4 2 6
f 7 2 8
f 2 7 6
f 2 9 8
f 10 11 12
f 11 10 13
f 14 1 12
f 11 14 12
f 7 14 11
f 14 2 1
f 1 15 12
f 16 17 13
f 18 7 8
f 18 14 7
f 9 18 8
f 18 9 2
f 14 18 2
f 17 19 13
f 19 11 13
f 19 7 11
f 20 19 17
f 19 20 21
f 10 22 13
f 22 16 13
f 22 10 12
f 23 3 5
f 23 24 3
f 25 1 3
f 24 25 3
f 22 26 16
f 15 26 12
f 26 22 12
f 19 27 7
f 27 19 21
f 7 27 6
f 6 28 5
f 28 20 5
f 20 29 5
f 29 23 5
f 29 20 17
f 26 30 16
f 16 30 17
f 30 29 17
f 23 30 24
f 29 30 23
f 31 15 1
f 25 31 1
f 32 25 24
f 30 32 24
f 32 30 26
f 32 31 25
f 32 26 15
f 31 32 15
f 20 33 21
f 28 33 20
f 33 28 6
f 27 33 6
f 33 27 21
