v 0.0005420186 0.004618898 0.0371874
v -6.221235e-05 -0.004526436 -0.03861845
v -6.253645e-05 0.004552424 -0.03861684
v -0.0005420186 0.004793689 0.03861842
v -0.0005420037 -0.004605532 -0.03741133
v -0.0005420111 -0.004793689 0.03861755
v 0.000436414 0.004637241 0.03776133
v 0.000541538 -0.004618689 0.0371857
v -0.0005419366 0.004631072 -0.03740948
v 0.0003264137 0.004655138 0.03803825
v 0.0003262758 -0.004654393 0.03803664
v 0.0004360303 -0.004636183 0.03775969
f 1 2 3
f 4 5 6
f 2 5 3
f 7 1 3
f 1 8 2
f 5 8 6
f 8 5 2
f 5 9 3
f 9 5 4
f 9 7 3
f 7 9 4
f 10 4 6
f 10 7 4
f 10 11 7
f 8 11 6
f 11 10 6
f 11 12 7
f 12 11 8
f 7 12 1
f 12 8 1
