v 0.002733529 -0.001695812 -0.02312922
v 0.001774669 0.007256866 0.01669973
v 0.003329664 -0.007150948 -0.00267607
v 0.003232479 -0.006547093 0.0119943
v 0.002780259 -0.002816796 0.02312917
v 0.001856029 -0.002923489 0.02312613
v 0.001688838 0.007258773 -0.01133204
v -0.003329694 0.002115667 -0.0172078
v -0.002631128 -0.004261196 0.005099595
v -0.002962261 -0.001626551 0.01939118
v -0.002981961 -0.0008465648 -0.01961261
v 0.002167225 -0.005526185 0.01811749
v -0.002646118 -0.003939152 -0.006782651
v 0.002405584 -0.007258832 -0.002678037
v -0.00326246 0.0009598732 0.01975763
v 0.0007562935 0.007099152 -0.01127368
v 0.002309114 -0.00665319 0.01199377
v 0.00227648 -0.00600481 -0.01177806
v 0.0007417202 0.006824672 0.01454169
f 1 2 3
f 2 4 3
f 5 4 2
f 6 5 2
f 1 7 2
f 8 9 10
f 9 8 11
f 11 8 1
f 8 7 1
f 12 4 5
f 6 12 5
f 12 6 10
f 9 12 10
f 13 9 11
f 4 14 3
f 13 14 9
f 15 8 10
f 15 6 2
f 6 15 10
f 7 16 2
f 8 16 7
f 12 17 4
f 17 12 9
f 17 14 4
f 14 17 9
f 18 13 11
f 18 14 13
f 18 11 1
f 18 1 3
f 14 18 3
f 15 19 8
f 19 16 8
f 19 15 2
f 16 19 2
