v -0.002749622 -0.007331491 -0.01512122
v -0.0009158552 0.003664911 -0.01512137
v 0.001832753 0.0009159446 -0.01512057
v 0.001832813 -0.002748013 -0.01512015
v -0.002749592 0.00458163 -0.01328588
v -0.002749652 -0.00274688 0.01512134
v -0.001833677 -0.007331967 -0.01512086
v 0.002748787 0.001834452 0.01512048
v 8.940697e-07 0.006415844 0.01512092
v -0.002749264 0.007331908 0.01511973
v -0.001831949 0.007331967 -0.002288342
v -0.001832157 -0.002746165 0.01512074
v 0.002749652 0.003666222 -0.003205419
v 0.002749443 0.004582345 0.01145211
f 1 2 3
f 4 1 3
f 5 1 6
f 1 5 2
f 1 7 6
f 4 7 1
f 8 9 6
f 8 7 4
f 9 10 6
f 10 5 6
f 5 11 2
f 11 10 9
f 10 11 5
f 7 12 6
f 12 8 6
f 8 12 7
f 13 4 3
f 13 8 4
f 2 13 3
f 11 13 2
f 8 14 9
f 13 14 8
f 14 11 9
f 14 13 11
