v -0.002468035 -0.03159648 -0.04157972
v 0.002835184 -0.03296465 -0.04664868
v 0.002835646 -0.03298828 0.04664874
v 0.002835631 0.03199869 0.04041129
v 0.00282456 0.02675772 -0.002753437
v -0.002835631 -0.03049242 0.04293525
v 0.002819046 0.03187576 0.01364166
v 0.002829537 -0.01903901 -0.04364026
v 0.002785087 0.009376884 -0.02687043
v 0.002042532 -0.004885226 -0.03906393
v 0.00278683 0.01818362 -0.01693559
v -0.002232313 0.01602396 -0.0131259
v -0.002614394 0.02965587 0.0409838
v -0.001687407 0.0313873 0.03819811
v 0.002803758 0.03298828 0.03420824
v 0.0001855195 0.03105971 0.01964867
v -0.002318218 0.02637908 0.0081141
v -0.002296731 -0.001728326 -0.03025514
v -0.002371743 -0.01642731 -0.03788918
v -0.002215758 0.008313596 -0.02172619
v -0.002260089 0.0222927 -0.002697527
v -0.001514688 0.02786869 0.009209335
f 1 2 3
f 2 4 3
f 2 5 4
f 6 1 3
f 5 7 4
f 5 8 9
f 2 8 5
f 8 10 9
f 8 2 1
f 11 5 9
f 12 11 9
f 13 6 3
f 4 13 3
f 13 4 14
f 6 13 1
f 4 15 14
f 15 7 14
f 7 15 4
f 7 16 14
f 17 13 14
f 17 18 13
f 19 18 10
f 19 8 1
f 8 19 10
f 13 19 1
f 18 19 13
f 20 12 9
f 20 18 12
f 10 20 9
f 18 20 10
f 18 21 12
f 17 21 18
f 11 21 5
f 21 11 12
f 22 16 7
f 22 7 5
f 16 22 14
f 22 17 14
f 21 22 5
f 22 21 17
