v 0.001794726 0.01777506 0.026263
v -0.004449695 0.01411653 0.02783591
v 0.002451926 0.0140509 0.02709332
v 0.0035685 -0.005230308 0.02684021
v -0.004353732 0.0153355 0.02415746
v -0.003178388 0.01953304 -0.02783591
v 0.002007455 0.008742809 -0.02700984
v 0.00356704 0.008644462 -0.0124945
v 0.003622413 -0.01588118 -0.01542401
v 0.001378924 -0.01818579 -0.02712807
v -0.004548222 -0.01573408 -0.02647495
v -0.004548371 0.00796628 -0.02631021
v 0.002943248 0.01769316 0.01789084
v -0.003992677 -0.01945376 -0.02656066
v -0.002723783 -0.01953304 -0.01476771
v -0.003530055 -0.005150259 0.0257605
v 0.002453357 -0.01580566 -0.02630037
v -0.002197236 -0.01874858 -0.006560862
v 0.0002585948 -0.01451129 0.009813249
v -0.001792789 -0.007945299 0.02532026
v -0.003334343 -0.00516361 0.02758229
v -0.004548311 0.01412326 0.02691901
v 0.002595276 0.01853591 0.01793388
v 0.004484326 -0.0142982 -0.0008336902
v 0.004548371 -0.01102662 0.0129281
v 0.003753126 6.037951e-05 0.02135301
v 0.003868103 0.01271838 0.006745815
v 0.002593279 -0.00761342 0.02692848
v -0.002178282 0.01884246 -0.02648962
v 0.004052013 -0.01631445 -0.003549695
v 0.003901273 0.009440541 -0.006106406
v 0.003815442 -0.01711899 -0.009034693
v 0.004002601 -0.01139629 0.01573914
f 1 2 3
f 2 4 3
f 5 1 6
f 1 5 2
f 7 8 9
f 7 10 6
f 11 12 6
f 13 1 3
f 14 10 15
f 14 16 11
f 14 11 6
f 10 14 6
f 17 7 9
f 10 17 9
f 17 10 7
f 18 19 20
f 21 18 20
f 18 14 15
f 14 18 16
f 18 21 16
f 5 22 2
f 22 12 11
f 22 5 6
f 12 22 6
f 16 22 11
f 22 21 2
f 21 22 16
f 1 23 6
f 13 23 1
f 8 24 9
f 25 26 4
f 4 26 3
f 26 13 3
f 27 23 13
f 26 27 13
f 27 26 25
f 28 21 20
f 19 28 20
f 28 4 2
f 21 28 2
f 29 7 6
f 23 29 6
f 18 30 19
f 30 24 25
f 27 31 23
f 31 29 23
f 31 24 8
f 7 31 8
f 29 31 7
f 24 31 25
f 31 27 25
f 32 18 15
f 32 30 18
f 10 32 15
f 32 10 9
f 24 32 9
f 30 32 24
f 30 33 19
f 33 30 25
f 33 28 19
f 33 25 4
f 28 33 4
