v 0.0009534359 0.02042709 -0.0372366
v 0.00709182 0.02341513 -0.03919888
v 0.01106954 0.02060668 -0.04052395
v -0.01795095 0.01145752 0.009072572
v -0.01850724 0.002491549 0.003491312
v -0.005752563 0.0221334 0.01110104
v 0.002239525 0.02373789 0.002257407
v 0.002063036 0.02361147 0.00927037
v -0.01349252 0.01738189 0.01019198
v 0.008983135 0.02185081 0.006008267
v 0.007010996 0.02064703 0.01860571
v 0.01271403 0.01749878 0.01767081
v -0.004520774 0.02194826 0.001293302
v -0.007387578 0.01937537 0.0218457
v -0.01442897 0.01673834 0.02209127
v 0.01571649 -0.01325916 0.002703309
v 0.01022899 0.01428716 -0.03720132
v -0.01536214 0.01680408 0.01704723
v 0.009524405 -0.02227391 0.01268891
v 0.0008871555 -0.02370004 0.01875302
v 0.001077056 -0.02373789 0.01075158
v 0.004310787 -0.02218275 0.02624899
v -0.008906543 -0.02078892 0.02701867
v -0.01141518 -0.01473673 0.02720571
v -0.01219159 -0.02181913 0.02046096
v -0.004994512 0.008873925 0.03643835
v 0.001616478 0.008700773 0.03795949
v 0.004036427 0.01198475 0.03548238
v -0.01080507 0.008907005 0.03284198
v -0.003531992 0.001221076 0.03909835
v -0.01440459 0.01269989 0.0276325
v -0.01572388 0.007650807 0.02753901
v -0.01895535 0.007043853 0.02005595
v -0.01978147 0.005317673 0.01583052
v 0.01647586 0.01402502 0.01151264
v 0.01326758 0.01809596 0.005772591
v 0.0009271502 0.01916353 0.0248242
v -0.002903163 0.01658724 0.02919874
v 0.003551662 0.01002209 -0.03458646
v 0.003635645 -0.00901179 -0.01484025
v 0.0003764033 -0.01623438 -0.007846892
v 0.01612198 -0.00366433 -0.004719615
v 0.01844049 -0.008340403 0.006406605
v 0.01987529 -0.002950028 0.008449018
v 0.01987529 0.004847273 0.01301488
v -0.01742411 -0.01450689 0.01585197
v -0.0115568 -0.02259313 0.01360193
v -0.01618749 -0.01942544 0.01059437
v -0.01406848 -0.0191734 0.006609082
v -0.0007594824 -0.02191727 0.001998812
v 0.0003798008 0.01319058 -0.03642365
v -0.009705424 -0.0133505 -0.003840268
v -0.005290151 -0.01883592 -0.002092957
v -0.003347933 -0.00962238 0.03631791
v 0.005805671 -0.006934956 0.04005671
v 0.003631353 -0.01195373 0.03788167
v 0.006856859 -0.02268885 0.008329451
v -0.002745211 -0.01714917 0.03320247
v 1.555681e-05 -0.02144869 0.02911368
v -0.008710921 -0.01094578 0.03199396
v -0.00757581 -0.02336465 0.02086121
v 0.004447877 0.001305655 0.04052395
v 0.01069993 -0.0009575933 0.0397642
v -0.01648808 0.01498292 0.01922137
v -0.009853005 0.01398562 0.03070611
v 0.0004090071 0.02244167 0.0158343
v 0.007594705 -0.01563807 -0.006957829
v 0.01862609 0.003332689 0.002016604
v -0.01589501 -0.01915683 0.01370603
v -0.01974213 -0.005345151 0.01149613
v -0.009237647 -0.02159517 0.007529378
v -0.001628757 -0.008494869 -0.01448128
v 0.007922053 -0.0193287 0.03119755
v 0.01364243 -0.01869838 0.02296659
v 0.0126915 -0.01490878 0.03295368
v 0.01695389 0.0101435 0.02327752
v 0.01979226 0.001316682 0.02304715
v 0.008619964 0.01551132 0.02831668
v 0.01190507 0.006879255 0.03612888
v -0.004991293 -0.01299317 0.03389457
v -0.01143378 6.781518e-05 0.03264067
v -0.006699145 -0.008147255 0.03455755
v 0.00807029 0.004597947 0.03955665
v 0.0137412 -0.01186271 -0.003536105
v 0.01055521 -0.01959939 0.002798915
v -0.01981437 -1.259148e-05 0.01135138
v -0.0171808 -0.01342972 0.005085707
v -0.01853383 -0.01145034 0.009709656
v 0.01158828 -0.00857617 0.03813672
v 0.0158751 -0.005455598 0.03468299
v 0.01602215 0.002956554 0.03330526
v 0.01103592 -0.0207191 0.02130818
v 0.01726675 -0.01300268 0.02450398
v 0.007270753 -0.01607944 0.0355711
v 0.01283383 0.01253133 0.02824455
v -0.00440532 -0.008849099 0.03597286
v -0.01080823 -0.007375255 0.03111687
v 0.004819989 -0.02106105 0.0004732907
v 0.01446193 -0.01826145 0.01079184
v -0.01987535 0.0002654344 0.01206315
v -0.0177747 -0.006333306 0.002499998
v 0.01987046 -0.006138459 0.02009311
v -0.009635568 -0.008406565 0.03212553
v 0.01781189 -0.01348622 0.01328993
v 0.01753134 -0.007272437 0.03114104
f 1 2 3
f 4 1 5
f 6 7 2
f 7 6 8
f 4 9 1
f 2 10 3
f 10 11 12
f 11 10 8
f 10 7 8
f 7 10 2
f 13 2 1
f 13 6 2
f 9 13 1
f 13 9 6
f 14 6 15
f 16 17 3
f 18 9 4
f 6 18 15
f 9 18 6
f 19 20 21
f 20 19 22
f 23 24 25
f 26 27 28
f 26 29 30
f 27 26 30
f 29 31 32
f 31 33 32
f 34 4 5
f 35 36 12
f 36 10 12
f 36 35 3
f 10 36 3
f 37 14 38
f 28 37 38
f 39 40 41
f 42 16 3
f 42 43 16
f 44 43 3
f 43 42 3
f 35 45 3
f 24 46 25
f 33 46 32
f 46 24 32
f 47 48 49
f 47 50 21
f 48 47 25
f 51 39 41
f 51 1 3
f 1 51 5
f 17 51 3
f 51 17 39
f 52 53 49
f 50 53 41
f 51 53 52
f 54 55 30
f 55 54 56
f 50 57 21
f 57 19 21
f 54 58 56
f 59 58 23
f 60 24 23
f 61 20 22
f 59 61 22
f 47 61 25
f 61 23 25
f 61 59 23
f 20 61 21
f 61 47 21
f 62 27 30
f 55 62 30
f 62 55 63
f 64 31 15
f 31 64 33
f 18 64 15
f 64 18 4
f 34 64 4
f 64 34 33
f 26 65 29
f 65 31 29
f 65 28 38
f 65 26 28
f 31 65 15
f 65 14 15
f 14 65 38
f 37 66 14
f 6 66 8
f 14 66 6
f 66 11 8
f 66 37 11
f 40 67 41
f 17 67 39
f 67 40 39
f 68 44 3
f 45 68 3
f 68 45 44
f 69 48 25
f 46 69 25
f 69 46 48
f 34 70 33
f 70 46 33
f 71 47 49
f 47 71 50
f 53 71 49
f 71 53 50
f 72 51 41
f 53 72 41
f 72 53 51
f 73 59 22
f 73 74 75
f 76 35 12
f 45 76 77
f 76 45 35
f 11 78 12
f 79 78 28
f 78 37 28
f 37 78 11
f 80 58 54
f 58 80 23
f 80 60 23
f 81 29 32
f 29 81 30
f 81 82 30
f 62 83 27
f 27 83 28
f 83 79 28
f 79 83 63
f 83 62 63
f 84 17 16
f 84 67 17
f 57 85 19
f 85 84 16
f 84 85 67
f 70 86 5
f 48 87 49
f 87 52 49
f 87 51 52
f 46 88 48
f 70 88 46
f 88 87 48
f 89 90 63
f 90 89 75
f 55 89 63
f 91 79 63
f 90 91 63
f 76 91 77
f 19 92 22
f 74 92 19
f 92 73 22
f 73 92 74
f 74 93 75
f 94 58 59
f 73 94 59
f 58 94 56
f 94 55 56
f 94 89 55
f 94 73 75
f 89 94 75
f 95 78 79
f 91 95 79
f 95 91 76
f 95 76 12
f 78 95 12
f 96 54 30
f 82 96 30
f 96 80 54
f 80 96 60
f 96 82 60
f 24 97 32
f 97 81 32
f 98 57 50
f 98 85 57
f 85 98 67
f 98 50 41
f 67 98 41
f 99 74 19
f 85 99 19
f 99 85 16
f 100 70 34
f 100 86 70
f 100 34 5
f 86 100 5
f 101 70 5
f 51 101 5
f 87 101 51
f 101 88 70
f 88 101 87
f 102 45 77
f 45 102 44
f 97 103 81
f 82 103 60
f 81 103 82
f 60 103 24
f 103 97 24
f 104 93 74
f 99 104 74
f 104 102 93
f 43 104 16
f 104 99 16
f 104 43 44
f 102 104 44
f 102 105 93
f 105 90 75
f 93 105 75
f 105 102 77
f 91 105 77
f 105 91 90
