v 0.00284037 0.002730489 0.02310681
v 0.002870575 0.00292334 -0.02429545
v -0.0003796816 0.006760538 0.01897627
v -0.002201155 -0.0009463131 0.02792513
v 0.002303198 -0.001888752 0.0214572
v -0.00129059 0.006867111 0.01897639
v -0.000371784 0.006764561 -0.02127218
v -0.001282603 0.006870806 -0.02126986
v 0.0002541542 -0.00364697 0.02093309
v -0.002734587 -0.005547017 0.01653212
v -0.001950011 -0.006750792 0.009463549
v 0.001900658 -0.005369127 0.007395625
v 0.002283797 -0.002135724 -0.0226689
v 0.001928151 -0.005163074 -0.00948602
v -0.002870589 -0.006764174 -0.01259345
v -0.002376467 -0.002542883 -0.0271554
v -0.002280951 -0.001631707 0.02731931
v 0.0005740523 -0.0009680688 -0.02792513
v -0.001959354 -0.006870806 -0.01259345
f 1 2 3
f 1 4 5
f 6 1 3
f 1 6 4
f 2 7 3
f 7 6 3
f 7 8 6
f 9 10 11
f 8 10 6
f 9 12 5
f 12 9 11
f 13 1 5
f 12 13 5
f 13 12 14
f 1 13 2
f 10 15 11
f 15 8 16
f 15 10 8
f 17 10 9
f 4 17 5
f 17 9 5
f 6 17 4
f 10 17 6
f 18 13 16
f 13 18 2
f 8 18 16
f 18 7 2
f 7 18 8
f 15 19 11
f 19 12 11
f 12 19 14
f 19 13 14
f 13 19 16
f 19 15 16
