v 0.0006890297 0.01935399 2.726912e-05
v 0.004514694 -0.01137388 -0.03161311
v -0.001470506 -0.01148134 -0.03441194
v -0.001201153 -0.01540911 0.03297812
v -0.002298176 -0.01066488 0.03215063
v -0.003721297 -0.01641595 0.02040115
v 0.004437089 -0.01100779 0.03035784
v 0.004523516 -0.01335019 0.03206575
v 0.002901435 0.00804019 0.01671481
v -0.003695905 0.00723803 -0.01356322
v -0.004517317 0.004794598 -0.002116799
v -0.0007647276 -0.01434815 0.03441197
v 0.00220865 -0.01674962 0.03293717
v -0.004210949 0.005143285 0.01162764
v -0.003414214 -0.0006967783 0.02275234
v -0.00349462 0.006710529 0.01964206
v 0.002306283 0.009798884 -0.007895499
v 0.000856936 0.01938522 0.01118362
v 0.0009394884 0.01968759 0.008434296
v -0.003965974 0.004116416 -0.01585823
v -0.0007445812 -0.01666093 0.03024516
v -0.0001095533 -0.01968074 0.01820546
v -0.00266701 -0.01867533 0.01823708
v -0.003227711 -0.01968753 0.005074233
v 0.0006039739 -0.01911974 -0.003376037
v -0.001130164 -0.01315409 -0.03327751
v -0.002655983 -0.01208979 -0.03124928
v 0.001320958 -0.01718777 -0.02515748
v 0.002765477 -0.01591027 -0.02888876
v 0.001528621 0.01733959 0.007890731
v -0.004417181 -0.01476943 -0.00876537
v -0.004523456 -0.01779646 -0.0006283224
v -0.002306938 -0.008690715 -0.0315285
v -0.003062785 -0.01884276 -0.008518666
v -0.004218698 -0.01745254 0.01310593
v 0.002924204 -0.01733816 0.02963093
v -0.003653705 -0.01492345 -0.02180621
v -0.002423048 -0.0167942 -0.02196881
f 1 2 3
f 4 5 6
f 7 8 2
f 9 7 2
f 10 11 1
f 12 4 13
f 4 12 5
f 8 12 13
f 11 14 1
f 5 15 6
f 16 15 5
f 15 14 6
f 14 15 16
f 17 2 1
f 17 9 2
f 18 16 5
f 9 18 7
f 12 18 5
f 18 14 16
f 18 8 7
f 18 12 8
f 14 18 1
f 18 19 1
f 10 20 11
f 4 21 13
f 21 22 13
f 21 23 22
f 23 4 6
f 23 21 4
f 22 24 25
f 23 24 22
f 2 26 3
f 26 27 3
f 28 29 25
f 8 29 2
f 29 26 2
f 26 29 28
f 17 30 9
f 30 18 9
f 18 30 19
f 30 17 1
f 19 30 1
f 31 32 11
f 20 31 11
f 33 20 10
f 33 1 3
f 33 10 1
f 27 33 3
f 20 33 27
f 34 28 25
f 24 34 25
f 34 24 32
f 35 23 6
f 35 24 23
f 24 35 32
f 14 35 6
f 32 35 11
f 35 14 11
f 29 36 25
f 36 29 8
f 36 8 13
f 22 36 13
f 36 22 25
f 37 34 32
f 31 37 32
f 37 20 27
f 37 31 20
f 34 38 28
f 37 38 34
f 38 26 28
f 26 38 27
f 38 37 27
