v 0.01447372 0.005736709 0.04160532
v 0.01345715 -0.004923701 0.03922555
v 0.01345764 -0.004923135 -0.04025653
v -0.01447368 -0.01527008 0.03922561
v -0.004217744 -0.01485339 -0.04025623
v -0.004219256 -0.01485349 0.03922471
v 0.005406633 -0.01128869 -0.0402551
v -0.01429814 0.01527014 0.04160488
v -0.009137057 0.01459807 0.04160503
v -0.01424973 -0.01335133 0.04160452
v -0.01447364 0.00665471 0.04160437
v -0.01429195 -0.01370963 0.04153374
v -0.01440347 -0.01465987 0.04069009
v -0.01447371 -0.01526974 -0.01635447
v -0.004839376 -0.01175018 -0.04074493
v 0.005405188 -0.01128799 0.03922561
v -0.004339479 -0.01425111 0.04068998
v -0.004527211 -0.01331325 0.04153433
v -0.004029877 0.01340805 0.04160514
v 0.0006545261 0.0118763 0.04160532
v -0.004598297 -0.01295915 0.04160526
v 0.004459091 -0.009603962 0.04160532
v 0.004839003 -0.01027821 -0.04160497
v 0.004347876 -0.009403363 -0.0415878
v 0.005281329 -0.01106536 -0.04086617
v 0.0130057 -0.004507467 0.04068992
v 0.01203674 -0.00361377 0.04160529
v 0.01230208 -0.003858596 0.04153413
v -0.004467733 -0.01361345 0.04133239
v 0.003912434 -0.008629829 -0.04102057
v -0.004643098 -0.01273361 -0.04158846
v 0.005091757 -0.01072823 -0.04124823
v -0.004817046 -0.01186268 -0.04102051
v 0.01252798 -0.004066125 0.04133219
v 0.006573297 0.009317368 0.04160556
v -0.01432762 -0.01401442 0.04133174
v 0.003856517 -0.008529246 -0.04074508
v -0.004268035 -0.01460268 -0.04086667
v 0.00510443 -0.01075293 0.04069024
v -0.004344217 -0.01422362 -0.04124764
v 0.004636198 -0.009918824 0.04153422
v 0.004786238 -0.01018642 0.04133293
v -0.004445471 -0.01371767 -0.04160562
f 1 2 3
f 4 5 6
f 2 7 3
f 5 7 6
f 8 9 3
f 10 11 12
f 11 10 8
f 13 11 4
f 4 14 5
f 11 14 4
f 15 14 8
f 14 11 8
f 7 16 6
f 16 7 2
f 17 4 6
f 17 13 4
f 18 10 12
f 19 20 3
f 9 19 3
f 19 9 20
f 18 21 10
f 21 18 22
f 10 21 8
f 21 9 8
f 23 24 3
f 7 25 3
f 26 2 1
f 27 28 1
f 17 29 13
f 24 30 3
f 31 30 24
f 32 23 3
f 25 32 3
f 33 14 15
f 33 31 14
f 33 30 31
f 28 34 1
f 34 26 1
f 35 21 22
f 27 35 22
f 9 35 20
f 21 35 9
f 35 27 1
f 35 1 3
f 20 35 3
f 29 36 13
f 11 36 12
f 13 36 11
f 36 18 12
f 36 29 18
f 37 8 3
f 30 37 3
f 37 15 8
f 37 33 15
f 33 37 30
f 38 32 25
f 38 7 5
f 38 25 7
f 14 38 5
f 39 16 2
f 26 39 2
f 16 39 6
f 39 17 6
f 38 40 32
f 40 38 14
f 41 27 22
f 27 41 28
f 18 41 22
f 34 42 26
f 42 39 26
f 42 34 28
f 41 42 28
f 42 29 17
f 39 42 17
f 29 42 18
f 42 41 18
f 32 43 23
f 40 43 32
f 43 24 23
f 43 31 24
f 31 43 14
f 43 40 14
