v -0.001024544 -0.006685734 -0.04154685
v 0.0002430677 0.02006423 -0.004808605
v 0.004269838 -0.008220553 -0.04093653
v -0.003723562 0.009748399 -0.01906854
v 0.0007472038 -0.01774988 -0.0111503
v 0.002679825 -0.01288417 -0.0334242
v 0.00197652 -0.01929325 0.02589327
v 0.005108118 -0.01231861 0.03941625
v 0.001631826 -0.01300275 -0.03415871
v 0.003253639 0.008964837 0.02733135
v 0.001093984 0.02006787 0.02255118
v 0.003563732 -0.01477516 0.0384531
v -0.002437443 -0.00324887 -0.03560835
v -0.00101912 -0.01741338 0.03206968
v -0.002554834 -0.02006787 0.01559377
v -0.003552556 -0.01784477 -0.01367563
v -0.0007088184 -0.01912397 -0.003646493
v -0.005108118 -0.01768076 -0.002508461
v -0.004451394 -0.0146645 -0.01964581
v -0.00497362 -0.01819712 0.008597195
v -0.004841149 0.004511535 0.01144546
v -0.002901971 0.008083105 0.02945584
v -0.002230912 -0.01320192 -0.02978307
v -0.000708431 -0.008461654 -0.04058132
v 0.005070508 -0.006411195 -0.03787041
v 0.00237307 0.01002818 -0.01538563
v -0.001050621 -0.01320755 0.04154682
v 0.001729727 0.01808047 0.02125674
v -0.004322499 0.008040011 -0.01681107
v -0.003663063 0.001375616 0.02601439
v -0.002567261 -0.01415518 0.03597862
v -0.003063619 -0.01010919 -0.03247076
v -0.00178206 -0.01474696 0.03721678
v -0.001631945 -0.01215303 0.04107499
v -0.004977167 0.004673302 0.004864097
v -0.004034996 -0.01689237 0.02278453
v -0.003923506 -0.01288369 -0.02517903
v -0.004997462 0.002954841 -0.006061196
f 1 2 3
f 2 1 4
f 5 6 7
f 6 8 7
f 6 9 3
f 9 6 5
f 8 10 11
f 8 12 7
f 1 13 4
f 14 15 7
f 12 14 7
f 16 9 5
f 17 5 7
f 15 17 7
f 17 16 5
f 16 17 15
f 16 18 19
f 20 18 15
f 18 16 15
f 2 21 11
f 21 22 11
f 23 16 19
f 16 23 9
f 24 1 3
f 9 24 3
f 23 24 9
f 25 6 3
f 6 25 8
f 25 10 8
f 2 25 3
f 26 25 2
f 27 12 8
f 27 14 12
f 27 8 11
f 10 28 11
f 28 2 11
f 28 26 2
f 25 28 10
f 28 25 26
f 29 2 4
f 13 29 4
f 22 30 31
f 21 30 22
f 32 13 1
f 24 32 1
f 32 24 23
f 32 29 13
f 33 27 31
f 27 33 14
f 22 34 11
f 34 27 11
f 34 22 31
f 27 34 31
f 35 21 2
f 29 35 2
f 35 18 20
f 21 35 20
f 30 36 31
f 36 20 15
f 36 21 20
f 36 30 21
f 14 36 15
f 36 33 31
f 33 36 14
f 37 23 19
f 37 32 23
f 29 37 19
f 32 37 29
f 35 38 18
f 38 35 29
f 18 38 19
f 38 29 19
