v -0.0005421606 0.004793733 -0.03861657
v 0.0003272146 -0.004654825 -0.03803867
v -0.0005421666 -0.004793674 -0.03861809
v -0.0005405354 0.004604191 0.03741065
v -6.024679e-05 -0.004554063 0.03861672
v 0.0005411808 0.004618317 -0.0371857
v -6.167917e-05 0.004525512 0.03861794
v -0.0005403478 -0.004633114 0.03740871
v 0.0003262106 0.004655212 -0.03803626
v 0.0005421629 -0.004618436 -0.03718707
v 0.0004361738 0.004636526 -0.03775963
v 0.0004363363 -0.004636467 -0.03776246
f 1 2 3
f 4 1 3
f 5 6 7
f 8 4 3
f 2 8 3
f 5 8 2
f 8 5 7
f 4 8 7
f 9 2 1
f 6 9 7
f 9 4 7
f 4 9 1
f 10 5 2
f 10 6 5
f 9 11 2
f 11 9 6
f 10 11 6
f 12 10 2
f 11 12 2
f 12 11 10
