v -0.003609359 0.01622438 -0.01401754
v -0.002732962 0.0169881 0.02184136
v 0.002877206 0.0157246 -0.01560809
v -0.001238376 0.01506591 -0.01710062
v 0.003434122 -0.01657677 -0.0009797961
v 0.003742307 -0.002097905 -0.01837714
v 0.003467798 0.01153028 0.006550714
v -0.003696501 0.01586473 0.01067381
v -0.003050715 -0.01607585 0.0006071478
v -0.001596868 -0.01589388 0.01298188
v 0.002754837 -0.01698864 -0.02097167
v -0.001975179 0.01571387 0.02318971
v 0.003172427 0.01624858 0.008184597
v 0.003711164 0.006317377 -0.01682626
v -0.0009263158 -0.01544392 0.01460747
v -0.002815098 -0.01504904 0.005587265
v -0.002865076 -0.005446613 -0.02257214
v -0.003733039 -0.01648515 -0.01937784
v 0.003285527 0.01585644 -0.008547649
v -0.001843214 -0.01492918 0.01383086
v -0.002866387 0.01513094 0.02188529
v 0.003403276 0.005360723 -0.01886393
v -0.003347486 -0.01660138 -0.0231898
v 0.00315398 -0.01143193 -0.0211008
v -0.003661931 -0.016559 -0.02231608
v -0.003742158 0.01436734 -0.01397477
f 1 2 3
f 4 1 3
f 5 6 7
f 1 8 2
f 9 5 10
f 5 9 11
f 12 13 2
f 13 12 7
f 2 13 3
f 6 14 7
f 12 15 7
f 15 5 7
f 5 15 10
f 16 9 10
f 9 16 8
f 17 1 4
f 18 9 8
f 19 13 7
f 14 19 7
f 13 19 3
f 19 14 3
f 20 16 10
f 15 20 10
f 20 15 12
f 8 21 2
f 16 21 8
f 20 21 16
f 21 12 2
f 21 20 12
f 14 22 3
f 22 14 6
f 22 4 3
f 22 17 4
f 23 24 11
f 17 24 23
f 22 24 17
f 24 22 6
f 24 5 11
f 5 24 6
f 17 25 1
f 25 17 23
f 18 25 9
f 9 25 11
f 25 23 11
f 25 26 1
f 26 25 18
f 26 8 1
f 26 18 8
