v 0.000290066 -0.004566237 -0.005930752
v -0.002491862 -0.003640041 -0.003885448
v 0.001227617 0.0057569 -0.005980253
v 0.002468824 -0.005476609 -0.003992677
v -0.001673996 0.005195603 -0.003924638
v 0.003550738 0.005909517 -0.004025787
v 0.003550708 -0.005912825 4.529953e-06
v 0.003550768 0.005912825 0.004025578
v 0.001226962 0.005761907 0.005980253
v 0.0002904534 -0.004562184 0.005938917
v -0.0024921 -0.003636733 0.003892571
v -0.001674533 0.005198225 0.003924727
v -0.003550738 -0.003286049 3.308058e-06
v 0.00246799 -0.005473837 0.004001975
v -0.002781749 0.004982248 6.556511e-07
f 1 2 3
f 2 1 4
f 2 5 3
f 6 1 3
f 1 6 4
f 6 7 4
f 7 6 8
f 8 9 10
f 9 11 10
f 11 9 12
f 5 9 3
f 9 6 3
f 6 9 8
f 13 11 12
f 13 5 2
f 13 2 4
f 7 13 4
f 14 8 10
f 14 7 8
f 11 14 10
f 13 14 11
f 14 13 7
f 15 13 12
f 13 15 5
f 9 15 12
f 15 9 5
