v 0.001141697 -0.009998709 0.02825734
v 0.001595542 -0.01002389 -0.02689359
v 0.001316205 0.0002577752 0.01286757
v 0.001643203 0.0002393872 -0.02689829
v 0.001347736 -0.009982973 -0.0275062
v -0.001625113 0.01002388 -0.00965181
v -0.001643211 -0.009495705 -0.02683777
v -0.001482993 0.01001586 -0.02692872
v 0.001394667 0.0002004504 -0.02751052
v 0.0005081892 6.318092e-05 -0.02825731
v 0.0004625469 -0.009837866 -0.02825263
v -0.0005277693 -0.009676531 -0.02824375
v 0.0009694844 -0.009921253 -0.02789146
v -0.001408793 -0.009533525 -0.02768299
v -0.001365095 -0.0002238154 -0.02768719
v -0.001481645 -0.0002413243 -0.02741343
v -0.0004833043 -8.98391e-05 -0.02824759
v -0.00159964 -0.0002589822 -0.02684152
v 0.001016401 0.0001411438 -0.02789566
v -0.001524597 -0.009514034 -0.02740926
f 1 2 3
f 2 4 3
f 2 5 4
f 6 7 1
f 6 1 3
f 4 6 3
f 6 4 8
f 4 9 8
f 5 9 4
f 10 11 12
f 2 13 5
f 11 13 12
f 13 2 1
f 14 15 12
f 13 14 12
f 7 14 1
f 14 13 1
f 15 16 8
f 14 16 15
f 10 17 8
f 17 15 8
f 17 10 12
f 15 17 12
f 18 6 8
f 6 18 7
f 16 18 8
f 18 16 7
f 19 10 8
f 9 19 8
f 19 11 10
f 19 13 11
f 19 9 5
f 13 19 5
f 20 14 7
f 16 20 7
f 20 16 14
