v 0.008799203 -0.0295867 0.04005966
v 0.0004802048 -0.02278709 -0.03935927
v 0.008799553 -0.02879688 -0.03941825
v 0.0004800558 -0.0235762 0.04011893
v -0.00879924 0.005515873 -0.03907788
v -0.008772306 -0.004746944 -0.03917962
v -0.00877282 -0.005536854 0.04029793
v 0.008681282 0.02958567 -0.03881079
v 0.008799396 0.02928065 -0.0312317
v 0.0007925332 0.02318528 -0.04036623
v -0.006864935 -0.00441651 -0.04155639
v -0.006890386 0.005242646 -0.04146019
v 0.008753225 0.02905272 0.0008726716
v -0.005653679 0.01466708 0.02321944
v 0.000357002 0.02320968 0.0008146763
v 0.008799277 0.02905095 -0.008064628
v -0.005105384 0.01502179 -0.04044795
v -0.00816562 -0.004634932 -0.04064324
v 0.002630696 -0.02142143 0.04090503
v -0.005574942 -0.0152885 0.04020113
v -0.008799553 0.004898429 0.02312329
v 0.004089803 0.02657239 -0.025962
v 0.00862731 0.02958672 -0.02823138
v 0.004268713 0.02661742 -0.01589876
v -0.008192629 0.005436316 -0.04054281
v -0.00565356 0.01528557 -0.03898036
v -0.007523835 -0.004524931 -0.04128397
v -0.004543543 -0.01477371 0.04155639
v -0.003650919 -0.01431602 0.04154345
v -0.002861589 -0.01390493 0.04097968
v 0.0006601065 -0.02340044 0.04073113
v -0.005574569 -0.01467538 -0.02157313
v -0.007550083 0.005342767 -0.04118583
v 0.0003569424 0.0236045 -0.03889808
v -0.00722155 -0.004473954 -0.04148564
v 0.002004847 -0.02205664 0.0414657
v 0.001297511 -0.02276823 0.04147559
v 0.0009323955 -0.02313088 0.04111591
v -0.005346991 -0.01517841 0.04081303
v -0.007247359 0.005297765 -0.04138887
v -0.005003572 -0.01500566 0.04119578
f 1 2 3
f 4 2 1
f 5 6 7
f 8 9 3
f 9 1 3
f 10 8 3
f 2 11 3
f 11 10 3
f 10 11 12
f 13 14 7
f 15 14 13
f 16 13 1
f 9 16 1
f 16 9 13
f 17 10 12
f 6 18 2
f 13 19 1
f 4 20 2
f 21 5 7
f 14 21 7
f 22 23 8
f 23 9 8
f 9 23 13
f 24 15 13
f 24 22 15
f 23 24 13
f 24 23 22
f 25 6 5
f 25 18 6
f 21 26 5
f 26 21 14
f 26 25 5
f 25 26 17
f 26 14 15
f 18 27 2
f 25 27 18
f 28 29 7
f 30 13 7
f 30 19 13
f 29 30 7
f 30 29 19
f 31 4 1
f 32 6 2
f 20 32 2
f 6 32 7
f 32 20 7
f 33 25 17
f 33 27 25
f 34 26 15
f 22 34 15
f 17 34 10
f 26 34 17
f 10 34 8
f 34 22 8
f 35 11 2
f 27 35 2
f 29 36 19
f 19 36 1
f 36 37 1
f 37 36 28
f 36 29 28
f 38 37 28
f 37 38 1
f 38 31 1
f 20 39 7
f 38 39 31
f 39 20 4
f 31 39 4
f 40 17 12
f 40 33 17
f 11 40 12
f 35 40 11
f 33 40 27
f 40 35 27
f 41 28 7
f 39 41 7
f 41 38 28
f 41 39 38
