v 0.003373325 -0.01993638 -0.02258256
v -0.002613008 -0.01745921 -0.02311638
v 0.002607048 0.01977843 -0.02290627
v -0.002138317 0.01993638 0.02073368
v 0.00368309 0.01746023 0.02311638
v -0.002155125 0.01786262 0.0225988
v 0.003423214 -0.007542372 0.02310273
v -0.003624201 -0.00764519 0.02247614
v 0.001728177 0.01992136 -0.02274349
v 0.003985405 0.005919933 -0.02253696
v 0.004280925 -0.01528817 -0.0225046
v 0.0042665 0.01624113 0.02223532
v 0.0007696152 -0.01063472 0.02111918
v 0.002186954 -0.01820958 -0.001241416
v 0.002551794 -0.01993328 -0.01333246
v -0.004024386 -0.01487356 0.004726022
v -0.002503335 0.009610951 -0.02311486
v 0.004078686 -0.01821852 -0.02252075
v 0.003084958 0.01834846 -0.02262166
v 0.003705859 -0.004613101 0.02219257
v -0.003683329 -0.01143271 0.01687765
v -0.003435373 -0.01745534 -0.01386639
v -0.003422797 -0.01538408 -0.01572943
v -0.002951503 0.01735342 0.0178628
v -0.00361973 0.01391774 0.0094143
v -0.003832459 0.01219612 0.003801703
v -0.003737152 0.00961715 -0.009236991
v 0.004211545 0.01124048 0.02223212
v -0.004280865 -0.01365972 0.001907319
v -0.003003478 0.001686513 -0.02035758
v -0.0008666515 -0.0160194 0.004661322
v -0.00412786 -0.01108032 0.01217359
f 1 2 3
f 4 5 3
f 4 6 5
f 7 6 8
f 6 7 5
f 9 4 3
f 10 11 3
f 5 12 3
f 12 11 10
f 7 12 5
f 13 7 8
f 13 14 7
f 15 2 1
f 16 15 14
f 2 17 3
f 17 9 3
f 18 1 3
f 11 18 3
f 14 18 7
f 18 15 1
f 15 18 14
f 19 10 3
f 12 19 3
f 19 12 10
f 18 20 7
f 20 18 11
f 21 13 8
f 15 22 2
f 22 15 16
f 22 23 2
f 6 24 8
f 24 25 8
f 24 6 4
f 9 24 4
f 26 17 27
f 24 26 25
f 17 26 9
f 26 24 9
f 12 28 11
f 28 20 11
f 28 12 7
f 20 28 7
f 23 29 27
f 29 26 27
f 29 22 16
f 22 29 23
f 17 30 27
f 30 23 27
f 30 17 2
f 23 30 2
f 31 16 14
f 31 21 16
f 13 31 14
f 21 31 13
f 29 32 26
f 25 32 8
f 26 32 25
f 32 21 8
f 21 32 16
f 32 29 16
