v 0.002588779 0.03042686 0.03222352
v -0.002723008 0.03084362 -0.03701484
v -0.002722919 0.03082556 0.03701484
v -0.002722919 -0.03084356 -0.0355247
v 0.002723008 -0.02780104 -0.03629783
v 0.002583176 0.02875453 -0.0344322
v 0.002714366 -0.02768993 -0.02713224
v -0.002637684 -0.02863097 -0.01947391
v -0.002592623 0.005506694 0.02696595
v -0.002553105 -0.01300246 0.01103884
v -0.002515167 -0.007824779 0.0165368
v 0.002338082 -0.006915271 0.01221076
v -0.002664655 0.0240044 0.03537455
v -0.002616316 -0.02562523 -0.009862393
v -0.002516866 -0.01782793 0.004417479
v 0.002418369 0.01615566 0.02798694
v 0.002355427 0.0003545284 0.01864734
v 0.002698421 -0.02288711 -0.008859307
f 1 2 3
f 4 2 5
f 2 4 3
f 2 6 5
f 6 1 5
f 1 6 2
f 7 4 5
f 4 7 8
f 9 10 11
f 10 12 11
f 13 1 3
f 9 13 3
f 9 14 10
f 14 15 10
f 14 9 3
f 4 14 3
f 14 4 8
f 13 16 1
f 16 13 9
f 17 9 11
f 12 17 11
f 17 16 9
f 18 12 10
f 15 18 10
f 18 17 12
f 14 18 15
f 7 18 8
f 18 14 8
f 1 18 5
f 18 7 5
f 16 18 1
f 17 18 16
