v 0.01060416 -0.02844401 -0.1110382
v 0.01130087 -0.003879324 0.1208016
v -0.008378088 -0.02817133 0.1149766
v 0.004270695 0.01147896 -0.117587
v 0.0003047287 0.02844402 -0.0889793
v -0.0006895512 0.004397184 0.0849635
v -0.009569183 0.02010064 -0.07201511
v -0.01130088 -0.01412071 0.09630471
v 0.001272917 0.01937297 -0.1116198
v -0.002554856 -0.004960969 -0.1165411
v 0.003974766 0.003424674 0.1030867
v 0.00484743 -0.00237602 -0.1208016
v 0.0001243353 -0.02600312 -0.1030172
v -0.0108645 -0.01612262 0.09203345
v -0.009208113 -0.01862262 0.0421266
v -0.0006166175 0.02650535 -0.09760958
v -0.006880365 0.01776609 -0.1037663
v -0.005702987 -0.01816413 -0.08850718
v -0.01002894 0.002239943 -0.06982112
v -0.007923804 -0.006571352 -0.0850876
v -0.008561954 0.00136447 -0.09469754
f 1 2 3
f 2 1 4
f 5 2 4
f 6 5 7
f 8 6 7
f 9 5 4
f 10 9 4
f 5 11 2
f 11 5 6
f 8 11 6
f 2 11 3
f 11 8 3
f 1 12 4
f 12 10 4
f 10 12 1
f 13 10 1
f 13 1 3
f 14 15 3
f 8 14 3
f 5 16 7
f 9 16 5
f 17 9 10
f 16 17 7
f 17 16 9
f 13 18 10
f 15 18 3
f 18 13 3
f 19 8 7
f 14 19 15
f 19 14 8
f 19 18 15
f 18 19 20
f 21 17 10
f 18 21 10
f 21 18 20
f 19 21 20
f 17 21 7
f 21 19 7
