v -0.002730459 0.02968013 -0.03684464
v -0.002730727 0.03088301 0.03684461
v 0.002730757 0.03013933 -0.03461742
v -0.00273028 -0.03088307 0.03682292
v 0.002584875 -0.02641803 0.03558543
v -0.002629727 0.01807046 -0.03352305
v -0.002610028 -0.02624446 0.0118857
v 0.002560288 0.02853507 0.03410813
v -0.002603322 0.009315312 -0.0296095
v -0.002525389 -0.01809031 -0.004307091
v -0.002535582 -0.01242352 -0.01187557
v 0.002382666 -0.01837945 0.003058374
v 0.002377242 -0.004035592 -0.01558441
v -0.0025585 -0.001722634 -0.0221951
v 0.00163871 0.007428765 -0.02550024
v 0.001637429 -0.02394021 0.01409876
v 0.001595616 -0.01218581 -0.008396715
v 0.002432823 0.007299244 -0.02424759
v 0.001648545 0.01246524 -0.02817467
v 0.001617253 -0.004141092 -0.01686481
v 0.001684844 -0.02699184 0.02823791
v -0.002663076 -0.03017753 0.0270879
v -0.002647936 -0.02916485 0.02168339
v 0.002349764 -0.01030266 -0.008988053
f 1 2 3
f 2 1 4
f 5 2 4
f 6 1 3
f 1 7 4
f 2 8 3
f 8 5 3
f 5 8 2
f 9 7 1
f 6 9 1
f 10 7 11
f 5 12 3
f 12 13 3
f 10 12 7
f 7 14 11
f 9 14 7
f 15 14 9
f 16 12 5
f 12 16 7
f 17 10 11
f 17 12 10
f 13 18 3
f 19 6 3
f 18 19 3
f 19 18 15
f 19 9 6
f 19 15 9
f 15 20 14
f 14 20 11
f 20 18 13
f 18 20 15
f 20 17 11
f 17 20 13
f 21 16 5
f 21 5 4
f 22 21 4
f 16 23 7
f 7 23 4
f 23 22 4
f 23 21 22
f 21 23 16
f 12 24 13
f 24 17 13
f 17 24 12
