v 0.0003274083 0.02024466 -0.01905555
v -0.003077179 0.02047628 -0.01776391
v -0.003586829 0.01952624 0.0145629
v -0.00237608 -0.0017097 -0.0222213
v 0.003308624 0.01699597 -0.01060992
v 0.003222078 0.0190596 0.01198041
v 0.003431082 0.01618063 0.01562351
v -0.003784388 0.01943022 -0.01170585
v -0.002365589 -0.01897711 -0.01652098
v 0.003864199 -0.01253599 -0.00383237
v 0.00297761 -0.02047628 0.01845235
v 0.003283173 -0.01981032 -0.004055858
v 0.002886891 0.01983023 -0.01223439
v -0.002627999 0.01936966 0.01711935
v -0.001516432 -0.01941985 -0.01722136
v -0.00393948 -0.01991379 0.01815671
v -0.003512651 -0.02006322 0.02188635
v 0.003535807 -0.006837904 0.0200451
v -0.002640188 -0.00916028 0.02222133
v -0.003770053 0.01871294 0.01164967
v -0.003712118 0.02034014 -0.01167703
v -0.003103763 -0.01925474 -0.005529881
v 0.003759563 0.01048481 -0.008249253
v 0.0009347796 0.01788461 0.01573777
v -0.002220005 0.008258998 0.02019417
v 0.00393948 0.005216897 0.01379788
v 0.00374645 -0.006793797 0.01801461
v 0.003766567 0.004164994 0.01867253
f 1 2 3
f 4 2 1
f 5 6 7
f 8 2 4
f 9 8 4
f 10 11 12
f 13 1 3
f 6 13 3
f 13 6 5
f 14 6 3
f 11 15 12
f 15 9 4
f 15 4 1
f 13 15 1
f 15 10 12
f 15 13 5
f 16 17 3
f 17 14 3
f 15 17 16
f 17 15 11
f 18 17 11
f 17 18 19
f 20 16 3
f 20 8 16
f 2 21 3
f 8 21 2
f 21 20 3
f 20 21 8
f 8 22 16
f 22 8 9
f 22 15 16
f 15 22 9
f 23 5 7
f 23 15 5
f 15 23 10
f 6 24 7
f 24 14 7
f 14 24 6
f 18 25 19
f 25 17 19
f 17 25 14
f 14 25 7
f 23 26 10
f 26 23 7
f 26 27 10
f 10 27 11
f 27 18 11
f 28 26 7
f 25 28 7
f 28 25 18
f 27 28 18
f 28 27 26
