v 0.002707243 -0.003206491 0.02042127
v 0.001911193 0.006231606 0.01172131
v -0.002719313 0.002267122 0.01546487
v 0.001657248 -0.003508568 -0.02042127
v 0.002877384 0.006198704 -0.01078728
v 0.002559394 -0.004922152 -0.01788414
v -0.002745003 0.0002456307 0.01733014
v 0.002878308 0.006624579 0.006685644
v -0.00282684 0.001535714 -0.01502243
v 0.001898229 0.006427526 0.006546646
v 0.002615988 -0.006624579 0.00861606
v 0.001648843 -0.006614327 -0.007577926
v 0.001699686 -0.00661099 0.008617729
v 0.001767397 -0.004437804 0.01907524
v -0.002845675 -0.003017545 0.001640737
v -0.002813548 -0.002705693 0.0100787
v -0.0009652078 -0.002993464 0.01654443
v -0.002862602 -0.0003302097 -0.01704243
v -0.002878278 -0.002503872 -0.01129392
f 1 2 3
f 4 5 6
f 7 1 3
f 5 8 1
f 8 2 1
f 9 10 5
f 10 8 5
f 8 10 2
f 10 9 3
f 2 10 3
f 5 11 6
f 11 5 1
f 11 12 6
f 12 11 13
f 7 14 1
f 14 11 1
f 11 14 13
f 7 15 16
f 15 7 3
f 15 13 16
f 15 12 13
f 17 7 16
f 17 14 7
f 13 17 16
f 14 17 13
f 9 18 3
f 18 15 3
f 18 9 5
f 4 18 5
f 15 19 12
f 18 19 15
f 12 19 6
f 19 4 6
f 19 18 4
