v -0.00387834 0.01303133 -0.01800154
v -0.002360821 0.01146236 -0.01925015
v -0.003701389 0.001384676 -0.01929072
v -0.00387685 0.01305437 0.01801768
v 0.0005779117 -0.0130544 2.263486e-05
v -0.002327845 0.01149422 0.01929072
v -0.002834439 -0.01121378 -0.01478098
v -0.0030718 0.01293597 -0.01859134
v -0.002448887 0.01212701 0.01913935
v -0.003070161 0.01295996 0.01860787
v 0.00138317 0.01232174 -0.009771466
v 0.002288178 0.01083329 -0.01012848
v 0.002132609 0.01147062 -0.01004969
v 0.00387834 0.0106172 8.761883e-06
v -0.001350179 -0.001262516 -0.01457682
v -0.001011699 -0.01283938 -0.01011492
v 0.001820207 0.01190028 -0.00993076
v -0.002465397 0.01210034 -0.0191109
v -0.002705768 0.01254821 0.01891159
v 0.001819685 0.01191252 0.009946764
v 0.002287537 0.01084504 0.01014557
v 0.001382008 0.01233426 0.009786293
v -0.002713531 0.01252678 -0.01888946
v 0.002130985 0.01148319 0.01006624
v 0.002916738 0.01211429 7.688999e-06
v 0.003378719 0.01168889 8.046627e-06
v 0.003709719 0.01125735 8.091331e-06
f 1 2 3
f 4 5 6
f 4 7 5
f 7 4 3
f 4 1 3
f 8 2 1
f 9 10 6
f 10 4 6
f 8 10 11
f 4 10 1
f 10 8 1
f 12 13 14
f 12 15 2
f 15 7 3
f 2 15 3
f 7 16 5
f 16 14 5
f 16 12 14
f 15 16 7
f 16 15 12
f 17 8 11
f 8 18 2
f 18 12 2
f 18 13 12
f 19 10 9
f 20 19 9
f 19 20 10
f 5 21 6
f 14 21 5
f 10 22 11
f 20 22 10
f 17 23 8
f 23 18 8
f 23 17 13
f 18 23 13
f 24 20 9
f 24 9 6
f 21 24 6
f 22 25 11
f 25 17 11
f 25 26 17
f 26 25 20
f 25 22 20
f 27 26 20
f 24 27 20
f 13 27 14
f 27 21 14
f 27 24 21
f 17 27 13
f 26 27 17
