v 0.0527603 -0.0607819 -0.003947783
v 0.03133762 -0.06084102 0.02557386
v 0.05481756 -0.06083286 -0.03062882
v 0.0485518 0.01276439 0.05096282
v -0.05360717 -0.06084102 -0.006454814
v 0.000820756 -0.06083775 0.03467039
v -0.02728248 -0.06083643 0.02798171
v 0.0539366 0.06012797 0.05267416
v 0.02893001 0.06084096 0.0746869
v 0.02608883 0.05683559 0.028917
v -0.004703164 0.05633456 0.0412258
v -0.0462988 -0.06081098 0.009521823
v -0.02229291 -0.06084096 -0.07208179
v -0.02643061 0.02171183 -0.02216743
v -0.03778774 0.01534557 -0.007156927
v -0.05481756 -0.0323379 -0.02466317
v -0.05359024 -0.03624159 -0.01080268
v -0.04581982 -0.003461242 -0.03866081
v -0.03295863 0.002687335 -0.04882624
v -0.04971188 -0.02637815 -0.04382711
v -0.03858727 -0.02560574 -0.05901172
v -0.04419261 -0.06082338 -0.05389856
v -0.02588952 -0.04118574 -0.06908216
v 0.0542075 0.02292746 0.036427
v 0.02324599 0.00410378 0.06203
v 0.0122633 0.04894376 0.07516475
v 0.02441144 0.01931232 -0.03943406
v 0.008283019 0.02255374 -0.03834866
v 0.01018625 0.008486509 -0.05675249
v 0.02604461 -0.002444565 -0.0616061
v 0.0516212 -0.01749003 -0.02958803
v 0.04709053 -0.03945577 -0.04895051
v 0.04322737 0.002496779 -0.04178088
v 0.04031146 -0.06070685 -0.05880447
v -0.002054751 0.05410367 0.06875525
v -0.04680258 -0.02519959 0.006387096
v -0.0153445 0.02058917 -0.03562983
v -0.05341822 -0.06083703 -0.03571211
v -0.04726344 0.002406478 -0.01069819
v 0.02331245 -0.03046864 -0.07041584
v 0.02567554 -0.0608322 -0.06925265
v 0.0106318 -0.06083184 -0.07516475
v -0.0007243752 -0.01275438 -0.07196774
v 0.006238937 0.004580677 0.0634854
v 0.04245549 0.04826015 0.02040334
v 0.0513649 0.04920208 0.03145165
v 0.0341993 -0.02356821 -0.06221287
v -0.009021819 0.0125457 0.05775536
v -0.01457012 0.04263616 0.04802872
v 0.01021725 -0.02804571 -0.07421951
v -0.01174206 0.001388669 -0.06237905
v -0.02442837 -0.01447201 -0.06600045
v 0.03943294 0.01306754 -0.03466241
v 0.006101549 0.02536726 0.07023047
v -0.005282223 -0.0340398 -0.07493807
f 1 2 3
f 2 1 4
f 5 6 7
f 6 5 2
f 8 9 4
f 9 10 11
f 9 8 10
f 12 5 7
f 5 13 2
f 2 13 3
f 14 15 11
f 16 5 17
f 18 14 19
f 14 18 15
f 16 18 20
f 21 18 19
f 18 21 20
f 20 21 22
f 21 13 22
f 13 21 23
f 24 8 4
f 1 24 4
f 8 24 3
f 24 1 3
f 25 2 4
f 25 6 2
f 9 25 4
f 25 9 26
f 27 28 10
f 29 27 30
f 27 29 28
f 31 8 3
f 31 32 33
f 34 32 3
f 32 31 3
f 35 9 11
f 9 35 26
f 5 36 17
f 12 36 5
f 35 36 12
f 14 37 19
f 37 14 11
f 10 37 11
f 28 37 10
f 16 38 5
f 13 38 22
f 38 13 5
f 38 20 22
f 38 16 20
f 18 39 15
f 39 18 16
f 39 16 17
f 36 39 17
f 40 41 42
f 41 40 34
f 41 34 3
f 13 41 3
f 41 13 42
f 43 29 30
f 25 44 6
f 6 44 7
f 8 45 10
f 45 27 10
f 31 46 8
f 46 31 33
f 46 45 8
f 40 47 34
f 47 32 34
f 47 40 30
f 33 47 30
f 32 47 33
f 48 12 7
f 48 35 12
f 49 36 35
f 49 39 36
f 49 35 11
f 15 49 11
f 39 49 15
f 50 40 42
f 40 50 30
f 50 43 30
f 43 51 29
f 37 51 19
f 29 51 28
f 51 37 28
f 21 52 23
f 52 51 43
f 52 21 19
f 51 52 19
f 45 53 27
f 46 53 45
f 53 46 33
f 53 33 30
f 27 53 30
f 44 54 7
f 54 48 7
f 54 25 26
f 54 44 25
f 35 54 26
f 48 54 35
f 13 55 42
f 55 50 42
f 50 55 43
f 55 13 23
f 52 55 23
f 55 52 43
