v 0.0009534955 0.02042711 -0.03723663
v 0.00709188 0.02341503 -0.03919891
v 0.01106966 0.0206067 -0.04052395
v -0.01795089 0.01145753 0.009072602
v -0.01850718 0.002491504 0.003491372
v -0.005752504 0.02213341 0.01110101
v 0.002239525 0.02373791 0.002257347
v 0.002063096 0.02361155 0.00927037
v -0.01349247 0.01738197 0.01019198
v 0.008983135 0.02185088 0.006008267
v 0.007011056 0.02064711 0.01860583
v 0.01271415 0.01749873 0.01767069
v -0.004520774 0.02194828 0.001293331
v -0.007387459 0.01937538 0.02184576
v -0.01442879 0.01673836 0.02209127
v 0.01571649 -0.01325917 0.002703309
v 0.01022905 0.0142872 -0.03720137
v -0.01536208 0.0168041 0.01704723
v 0.009524465 -0.02227387 0.01268896
v 0.0008871555 -0.02370009 0.01875305
v 0.001077056 -0.02373791 0.01075155
v 0.004310966 -0.0221827 0.0262489
v -0.008906424 -0.02078891 0.02701858
v -0.01141518 -0.01473671 0.02720568
v -0.01219159 -0.02181917 0.02046096
v -0.004994512 0.00887388 0.0364382
v 0.001616538 0.008700848 0.03795952
v 0.004036546 0.01198477 0.03548247
v -0.01080507 0.00890708 0.03284198
v -0.003531933 0.001221031 0.0390982
v -0.01440465 0.0126999 0.02763253
v -0.01572382 0.007650733 0.02753899
v -0.01895535 0.007043839 0.02005589
v -0.01978147 0.005317628 0.01583052
v 0.01647598 0.01402503 0.01151258
v 0.01326764 0.01809597 0.005772591
v 0.0009272099 0.01916355 0.02482417
v -0.002903104 0.01658726 0.02919871
v 0.003551722 0.0100221 -0.03458649
v 0.003635645 -0.009011775 -0.01484019
v 0.0003764033 -0.01623437 -0.007846922
v 0.01612198 -0.003664404 -0.004719675
v 0.01844054 -0.008340329 0.006406605
v 0.01987535 -0.002949983 0.008448958
v 0.01987535 0.004847288 0.01301491
v -0.01742405 -0.01450688 0.01585191
v -0.01155663 -0.02259311 0.0136019
v -0.01618743 -0.01942533 0.01059437
v -0.01406848 -0.01917341 0.006609082
v -0.0007594228 -0.02191728 0.001998782
v 0.0003798604 0.01319054 -0.03642374
v -0.009705424 -0.01335055 -0.003840268
v -0.005290091 -0.01883596 -0.002093107
v -0.003347814 -0.009622395 0.03631788
v 0.005805731 -0.006934971 0.04005662
v 0.003631473 -0.01195371 0.03788167
v 0.006856978 -0.02268875 0.008329421
v -0.002745152 -0.01714906 0.03320247
v 1.567602e-05 -0.02144861 0.02911359
v -0.008710861 -0.01094571 0.03199381
v -0.00757575 -0.0233646 0.02086127
v 0.004447937 0.00130567 0.04052392
v 0.01069999 -0.0009575188 0.0397642
v -0.01648808 0.01498294 0.01922134
v -0.009853005 0.01398569 0.03070614
v 0.0004091859 0.02244169 0.01583427
v 0.007594824 -0.01563805 -0.006957769
v 0.01862621 0.003332704 0.002016485
v -0.01589501 -0.01915681 0.013706
v -0.01974213 -0.005345196 0.01149619
v -0.009237587 -0.02159518 0.007529289
v -0.001628697 -0.008494914 -0.01448131
v 0.007922053 -0.01932865 0.03119761
v 0.01364255 -0.01869836 0.0229665
v 0.01269156 -0.01490876 0.03295368
v 0.01695389 0.01014358 0.02327749
v 0.01979232 0.001316696 0.02304721
v 0.008620083 0.01551133 0.02831659
v 0.01190525 0.00687933 0.03612894
v -0.004991233 -0.01299316 0.03389454
v -0.01143378 6.780028e-05 0.03264058
v -0.006699085 -0.00814724 0.03455746
v 0.008070409 0.004597902 0.03955665
v 0.01374125 -0.01186273 -0.003536165
v 0.01055527 -0.01959938 0.002798826
v -0.01981431 -1.251698e-05 0.01135141
v -0.01718068 -0.01342973 0.005085707
v -0.01853371 -0.01145038 0.009709626
v 0.01158834 -0.008576155 0.03813663
v 0.01587522 -0.005455554 0.03468299
v 0.01602226 0.002956629 0.03330517
v 0.01103592 -0.02071908 0.02130815
v 0.01726687 -0.01300263 0.02450401
v 0.007270932 -0.01607943 0.03557107
v 0.01283383 0.01253134 0.0282445
v -0.00440532 -0.008848995 0.03597286
v -0.01080811 -0.00737527 0.03111687
v 0.004819989 -0.02106103 0.0004732013
v 0.01446205 -0.01826149 0.0107919
v -0.01987529 0.0002655089 0.01206309
v -0.01777458 -0.006333262 0.002499968
v 0.01987052 -0.006138444 0.02009308
v -0.009635448 -0.00840649 0.03212553
v 0.01781195 -0.01348621 0.01328987
v 0.01753145 -0.007272333 0.03114101
f 1 2 3
f 4 1 5
f 6 7 2
f 7 6 8
f 4 9 1
f 2 10 3
f 10 11 12
f 11 10 8
f 10 7 8
f 7 10 2
f 13 2 1
f 13 6 2
f 9 13 1
f 13 9 6
f 14 6 15
f 16 17 3
f 18 9 4
f 6 18 15
f 9 18 6
f 19 20 21
f 20 19 22
f 23 24 25
f 26 27 28
f 26 29 30
f 27 26 30
f 29 31 32
f 31 33 32
f 34 4 5
f 35 36 12
f 36 10 12
f 36 35 3
f 10 36 3
f 37 14 38
f 28 37 38
f 39 40 41
f 42 16 3
f 42 43 16
f 44 43 3
f 43 42 3
f 35 45 3
f 24 46 25
f 33 46 32
f 46 24 32
f 47 48 49
f 47 50 21
f 48 47 25
f 51 39 41
f 51 1 3
f 1 51 5
f 17 51 3
f 51 17 39
f 52 53 49
f 50 53 41
f 51 53 52
f 54 55 30
f 55 54 56
f 50 57 21
f 57 19 21
f 54 58 56
f 59 58 23
f 60 24 23
f 61 20 22
f 59 61 22
f 47 61 25
f 61 23 25
f 61 59 23
f 20 61 21
f 61 47 21
f 62 27 30
f 55 62 30
f 62 55 63
f 64 31 15
f 31 64 33
f 18 64 15
f 64 18 4
f 34 64 4
f 64 34 33
f 26 65 29
f 65 31 29
f 65 28 38
f 65 26 28
f 31 65 15
f 65 14 15
f 14 65 38
f 37 66 14
f 6 66 8
f 14 66 6
f 66 11 8
f 66 37 11
f 40 67 41
f 17 67 39
f 67 40 39
f 68 44 3
f 45 68 3
f 68 45 44
f 69 48 25
f 46 69 25
f 69 46 48
f 34 70 33
f 70 46 33
f 71 47 49
f 47 71 50
f 53 71 49
f 71 53 50
f 72 51 41
f 53 72 41
f 72 53 51
f 73 59 22
f 73 74 75
f 76 35 12
f 45 76 77
f 76 45 35
f 11 78 12
f 79 78 28
f 78 37 28
f 37 78 11
f 80 58 54
f 58 80 23
f 80 60 23
f 81 29 32
f 29 81 30
f 81 82 30
f 62 83 27
f 27 83 28
f 83 79 28
f 79 83 63
f 83 62 63
f 84 17 16
f 84 67 17
f 57 85 19
f 85 84 16
f 84 85 67
f 70 86 5
f 48 87 49
f 87 52 49
f 87 51 52
f 46 88 48
f 70 88 46
f 88 87 48
f 89 90 63
f 90 89 75
f 55 89 63
f 91 79 63
f 90 91 63
f 76 91 77
f 19 92 22
f 74 92 19
f 92 73 22
f 73 92 74
f 74 93 75
f 94 58 59
f 73 94 59
f 58 94 56
f 94 55 56
f 94 89 55
f 94 73 75
f 89 94 75
f 95 78 79
f 91 95 79
f 95 91 76
f 95 76 12
f 78 95 12
f 96 54 30
f 82 96 30
f 96 80 54
f 80 96 60
f 96 82 60
f 24 97 32
f 97 81 32
f 98 57 50
f 98 85 57
f 85 98 67
f 98 50 41
f 67 98 41
f 99 74 19
f 85 99 19
f 99 85 16
f 100 70 34
f 100 86 70
f 100 34 5
f 86 100 5
f 101 70 5
f 51 101 5
f 87 101 51
f 101 88 70
f 88 101 87
f 102 45 77
f 45 102 44
f 97 103 81
f 82 103 60
f 81 103 82
f 60 103 24
f 103 97 24
f 104 93 74
f 99 104 74
f 104 102 93
f 43 104 16
f 104 99 16
f 104 43 44
f 102 104 44
f 102 105 93
f 105 90 75
f 93 105 75
f 105 102 77
f 91 105 77
f 105 91 90
