v 0.006882787 -0.01362081 0.04003817
v 0.004169188 -0.01511836 -0.02380764
v 0.006887831 0.007720977 -0.04164714
v 0.006883815 0.01399371 0.04343629
v 0.001670741 -0.004811987 0.04034051
v -0.006887048 0.01502796 -0.03683308
v -0.006887756 0.004841283 -0.0380865
v 0.003364407 -0.01130524 -0.04360506
v -0.002592184 -0.003798574 -0.04195967
v -0.002279989 -0.003623486 -0.04204342
v 0.001671977 0.005374685 0.0415943
v 0.004825227 0.0151044 0.0424476
v 0.005996257 0.01443219 0.04360512
v 0.004823834 -0.01445892 0.03880975
v 0.002262622 -0.01296781 -0.04127711
v -0.006441332 0.01511829 -0.03835461
v -0.00199046 0.01466405 -0.03982469
v 0.00599616 -0.01408653 0.04009473
v 0.00295496 0.005046323 0.04278174
v 0.005118251 0.01491803 0.04301217
v -0.003734984 -0.004805386 -0.03961846
v 0.002536476 -0.01235345 -0.04271519
v -0.005247004 0.005454913 -0.04060227
v -0.005246028 0.01504165 -0.03942236
v -0.005594119 0.005385891 -0.04050094
v -0.005872384 0.01510443 -0.03906953
v 0.002924867 -0.01181306 -0.0433428
v 0.005115934 -0.01441437 0.03940177
v 0.001988605 -0.004843071 0.04092079
v 0.001988731 0.005264163 0.04216456
v 0.005500741 0.0147022 0.04333004
v -0.003348298 -0.004343629 -0.04108763
v -0.00559327 0.01508486 -0.03930736
v 0.003118344 -0.01157042 -0.04353881
v 0.002954692 -0.004781455 0.04157197
v 0.002409168 0.005163103 0.04249281
v -0.002841324 -0.00396511 -0.04174781
v 0.005499892 -0.01428236 0.03976226
v 0.002409346 -0.004824594 0.04126418
v -0.006442145 0.005122036 -0.03958514
v -0.005872801 0.005309045 -0.04027495
f 1 2 3
f 4 1 3
f 5 6 7
f 2 8 3
f 8 9 10
f 6 11 12
f 5 11 6
f 4 13 1
f 2 14 15
f 16 6 12
f 17 8 10
f 8 17 3
f 17 4 3
f 4 17 12
f 13 18 1
f 18 2 1
f 19 18 13
f 20 4 12
f 20 13 4
f 14 21 15
f 21 22 15
f 21 5 7
f 21 14 5
f 23 17 10
f 17 23 24
f 9 23 10
f 25 23 9
f 26 16 12
f 22 27 15
f 27 2 15
f 27 8 2
f 14 28 5
f 28 14 2
f 28 29 5
f 11 30 12
f 30 20 12
f 30 11 5
f 29 30 5
f 31 19 13
f 20 31 13
f 21 32 22
f 32 27 22
f 33 26 12
f 17 33 12
f 33 17 24
f 26 33 25
f 23 33 24
f 33 23 25
f 8 34 9
f 34 27 9
f 27 34 8
f 19 35 18
f 30 36 20
f 36 31 20
f 31 36 19
f 27 37 9
f 32 37 27
f 35 38 18
f 18 38 2
f 38 28 2
f 39 38 35
f 39 30 29
f 39 36 30
f 39 35 19
f 36 39 19
f 39 29 28
f 38 39 28
f 40 37 32
f 40 21 7
f 40 32 21
f 6 40 7
f 16 40 6
f 26 40 16
f 40 41 37
f 41 25 9
f 37 41 9
f 41 26 25
f 41 40 26
