v 0.002959877 0.03627348 -0.05064988
v 0.002960175 0.03262758 0.04668045
v 0.002960563 -0.03627348 0.05064988
v 0.001601189 -0.03625041 -0.04570156
v 0.002636641 -0.03585362 -0.0127506
v -0.002960533 -0.03615105 -0.04556972
v -0.002754778 0.03314447 -0.04623404
v -0.002589256 -0.03518343 0.04917428
v -0.002388477 0.03405333 0.04859099
v 0.002637774 0.005779684 -0.04506442
f 1 2 3
f 4 5 3
f 5 1 3
f 1 6 7
f 6 1 4
f 6 4 3
f 8 6 3
f 9 1 7
f 9 2 1
f 6 9 7
f 9 6 8
f 2 9 3
f 9 8 3
f 1 10 4
f 10 5 4
f 5 10 1
