v -0.003334891 -8.045863e-07 -0.007527769
v -0.003334943 -0.003992707 0.007527888
v -0.003334861 0.003994614 0.007526457
v -0.002291273 -0.003997594 -0.007007539
v -0.0003961287 -0.005929023 0.00662449
v -0.0001663081 -0.005934983 -0.005977482
v 0.002369616 -0.00388962 -0.004505157
v -0.0001655258 0.005934983 -0.005978376
v -0.0003964193 0.00593099 0.006623209
v 0.001976501 0.003800184 0.006323367
v 0.002369497 0.003888726 -0.004506856
v 0.002961215 8.345414e-07 0.006198525
v -0.00229108 0.003997087 -0.007007807
v 0.001976583 -0.003798306 0.006323934
v 0.003334936 2.980996e-07 -0.003946126
f 1 2 3
f 2 1 4
f 5 6 7
f 6 2 4
f 2 6 5
f 1 6 4
f 6 1 8
f 9 8 3
f 10 9 3
f 11 6 8
f 9 11 8
f 11 9 10
f 12 11 10
f 12 10 3
f 2 12 3
f 8 13 3
f 13 1 3
f 1 13 8
f 14 5 7
f 12 14 7
f 14 2 5
f 14 12 2
f 15 12 7
f 12 15 11
f 6 15 7
f 11 15 6
