v -0.005584285 0.0230705 0.08262122
v 0.01531486 -0.03362932 0.02959859
v 0.02072172 0.02953807 0.02436876
v 0.02080871 -0.02206965 0.01665789
v 0.01902083 -0.02398251 -0.0737974
v 0.007661954 0.03362932 0.02049804
v 0.0001463443 -0.03271009 -0.08088976
v 0.01725325 0.01655887 -0.07519436
v -0.004044324 0.02733039 -0.08262122
v -0.01943143 -0.003460264 0.06111515
v -0.01604624 -0.02264444 0.0402897
v 0.009685934 -0.03251927 -0.06874192
v -0.005577087 -0.02994079 0.01323873
v 0.02082284 0.01108521 0.01580149
v 0.005291075 0.02914897 -0.07356781
v -0.01679094 0.02406058 0.05254143
v -0.01557724 0.01724131 -0.0805459
v -0.01991439 0.01665551 0.006951869
v 0.01922464 0.000194544 -0.06888199
v -0.007586166 -0.02945357 -0.08224541
v -0.01300843 -0.0232971 -0.0806579
v -0.01765224 0.005501194 -0.07827222
v -0.01660567 -0.01223474 -0.07789105
v -0.02082283 -0.003527967 0.002723634
v 0.01314129 0.0244804 -0.07440275
v -0.02079868 0.009989874 0.04813123
v -0.01016577 0.02792466 0.005462766
v -0.01771733 -0.01902973 0.0157479
v -0.01801736 0.01822044 0.05988014
v -0.01199073 0.02263111 -0.07471412
f 1 2 3
f 2 4 3
f 5 4 2
f 6 1 3
f 7 8 5
f 8 7 9
f 10 2 1
f 10 11 2
f 12 5 2
f 7 12 2
f 12 7 5
f 11 13 2
f 13 7 2
f 4 14 3
f 15 6 3
f 6 15 9
f 6 16 1
f 16 17 18
f 19 8 3
f 8 19 5
f 14 19 3
f 19 4 5
f 19 14 4
f 13 20 7
f 7 20 9
f 21 20 11
f 20 13 11
f 20 17 9
f 17 20 21
f 22 21 23
f 22 17 21
f 24 22 23
f 17 22 18
f 22 24 18
f 25 8 9
f 15 25 9
f 8 25 3
f 25 15 3
f 26 16 18
f 24 26 18
f 26 24 10
f 27 6 9
f 27 16 6
f 10 28 11
f 24 28 10
f 28 24 23
f 21 28 23
f 28 21 11
f 29 26 10
f 26 29 16
f 29 10 1
f 16 29 1
f 16 30 17
f 27 30 16
f 17 30 9
f 30 27 9
