v 0.00688272 -0.01362079 0.04003814
v 0.004169129 -0.01511833 -0.02380767
v 0.006887801 0.007721007 -0.04164717
v 0.006883793 0.01399371 0.04343638
v 0.001670696 -0.004811943 0.04034057
v -0.006887086 0.015028 -0.03683302
v -0.006887801 0.004841313 -0.03808653
v 0.003364377 -0.01130518 -0.04360506
v -0.002592228 -0.003798544 -0.04195967
v -0.002279982 -0.003623426 -0.04204336
v 0.001671933 0.00537473 0.04159427
v 0.004825212 0.01510441 0.04244763
v 0.005996212 0.01443225 0.04360509
v 0.004823796 -0.01445891 0.03880972
v 0.002262585 -0.01296777 -0.04127705
v -0.006441355 0.01511832 -0.03835455
v -0.001990497 0.0146641 -0.03982469
v 0.005996086 -0.0140865 0.04009473
v 0.00295493 0.005046338 0.0427818
v 0.005118228 0.01491803 0.0430122
v -0.003735021 -0.004805356 -0.03961846
v 0.002536431 -0.01235339 -0.04271516
v -0.005247042 0.005454943 -0.0406023
v -0.005246043 0.01504169 -0.03942227
v -0.005594157 0.00538592 -0.040501
v -0.005872406 0.01510446 -0.03906953
v 0.00292483 -0.01181303 -0.04334277
v 0.005115867 -0.01441437 0.03940171
v 0.001988553 -0.004843026 0.04092076
v 0.001988672 0.005264208 0.04216453
v 0.005500704 0.01470223 0.04333007
v -0.003348343 -0.004343599 -0.04108769
v -0.005593278 0.01508489 -0.03930742
v 0.003118344 -0.01157036 -0.04353887
v 0.002954654 -0.004781425 0.04157192
v 0.002409108 0.005163133 0.04249281
v -0.002841376 -0.003965065 -0.04174778
v 0.005499855 -0.01428233 0.03976232
v 0.002409302 -0.004824564 0.04126421
v -0.006442167 0.005122066 -0.03958505
v -0.005872846 0.00530909 -0.04027498
f 1 2 3
f 4 1 3
f 5 6 7
f 2 8 3
f 8 9 10
f 6 11 12
f 5 11 6
f 4 13 1
f 2 14 15
f 16 6 12
f 17 8 10
f 8 17 3
f 17 4 3
f 4 17 12
f 13 18 1
f 18 2 1
f 19 18 13
f 20 4 12
f 20 13 4
f 14 21 15
f 21 22 15
f 21 5 7
f 21 14 5
f 23 17 10
f 17 23 24
f 9 23 10
f 25 23 9
f 26 16 12
f 22 27 15
f 27 2 15
f 27 8 2
f 14 28 5
f 28 14 2
f 28 29 5
f 11 30 12
f 30 20 12
f 30 11 5
f 29 30 5
f 31 19 13
f 20 31 13
f 21 32 22
f 32 27 22
f 33 26 12
f 17 33 12
f 33 17 24
f 26 33 25
f 23 33 24
f 33 23 25
f 8 34 9
f 34 27 9
f 27 34 8
f 19 35 18
f 30 36 20
f 36 31 20
f 31 36 19
f 27 37 9
f 32 37 27
f 35 38 18
f 18 38 2
f 38 28 2
f 39 38 35
f 39 30 29
f 39 36 30
f 39 35 19
f 36 39 19
f 39 29 28
f 38 39 28
f 40 37 32
f 40 21 7
f 40 32 21
f 6 40 7
f 16 40 6
f 26 40 16
f 40 41 37
f 41 25 9
f 37 41 9
f 41 26 25
f 41 40 26
