v -0.04722154 -0.01622617 -0.01066348
v -0.04800022 -4.446507e-05 0.05634704
v -0.04689169 0.02819854 -0.03904924
v -0.01211172 -0.04077488 -0.04541025
v -0.03130782 -0.04141265 -0.02597448
v -0.00563097 -0.05353481 0.05634853
v 0.02959812 -0.04299825 0.05634901
v -0.04197013 -0.02924573 0.05634901
v 0.01678288 -0.0504539 0.05634812
v -0.04121608 0.02078468 0.05634692
v 0.004097342 0.04287231 0.05634871
v -0.003756523 0.05353475 -0.02701077
v -0.02036232 0.03865212 0.05634311
v 0.03537261 0.02721423 0.05634275
v 0.04514873 0.01108992 0.05634394
v 0.04800022 -0.009477377 0.05634472
v 0.045941 0.007974684 -0.01965263
v 0.04777861 -0.01128912 -0.01703915
v 0.0409019 -0.03078741 0.05634591
v -0.04049778 -0.03138781 -0.01885924
v -0.04737377 -0.01453906 0.05634764
v -0.008238196 -0.04916 -0.0330098
v -0.02911729 -0.04410297 0.05634823
v 0.04172242 0.002182662 -0.0368683
v 0.04261714 -0.01523912 -0.03478292
v -0.01392627 0.05192733 -0.03854886
v -0.02496624 0.04749244 -0.04095033
v -0.03963983 0.0374707 -0.04115316
v 0.02308464 0.03671956 0.05634376
v 0.03193951 0.03044981 -0.02026299
v -0.01778132 -0.05021799 -0.01983741
v 0.04053682 0.01962554 -0.02254501
v 0.04206622 -0.02763951 -0.02345046
v 0.002334952 -0.03999513 -0.04872444
v 0.01578856 -0.05048496 -0.0214797
v 0.02645278 -0.04204839 -0.03194657
v 0.03081989 -0.004417777 -0.05106279
v 0.02652907 0.01855159 -0.04723957
v 0.001154542 -0.05342734 -0.01909736
v 0.03454375 0.02229357 -0.0349277
v 0.03139001 -0.04196364 -0.0150508
v 0.0003643632 0.008639276 -0.05634901
v 0.01667881 0.01440519 -0.05343053
v 0.01896787 -0.01300967 -0.05626354
v -0.01914263 0.006494462 -0.05371585
v 0.0322156 -0.02338207 -0.04508439
f 1 2 3
f 4 5 3
f 6 7 8
f 7 6 9
f 2 10 3
f 10 2 8
f 11 12 13
f 10 11 13
f 14 11 15
f 7 11 8
f 11 10 8
f 16 17 15
f 17 16 18
f 11 16 15
f 16 11 7
f 16 19 18
f 19 16 7
f 1 20 8
f 5 20 3
f 20 1 3
f 2 21 8
f 21 1 8
f 1 21 2
f 4 22 5
f 23 6 8
f 20 23 8
f 23 20 5
f 24 17 18
f 25 24 18
f 12 26 13
f 26 27 13
f 28 10 13
f 27 28 13
f 10 28 3
f 29 11 14
f 11 29 12
f 30 29 14
f 29 30 12
f 22 31 5
f 31 23 5
f 23 31 6
f 32 30 14
f 32 14 15
f 17 32 15
f 24 32 17
f 19 33 18
f 33 25 18
f 34 22 4
f 22 34 35
f 34 36 35
f 37 24 25
f 24 37 38
f 39 22 35
f 39 31 22
f 31 39 6
f 9 39 35
f 6 39 9
f 40 24 38
f 40 32 24
f 32 40 30
f 30 40 12
f 26 40 38
f 40 26 12
f 41 19 7
f 41 33 19
f 33 41 36
f 36 41 35
f 41 9 35
f 41 7 9
f 42 43 44
f 37 43 38
f 43 37 44
f 43 26 38
f 26 43 27
f 43 42 27
f 45 28 27
f 42 45 27
f 28 45 3
f 45 4 3
f 45 34 4
f 45 42 44
f 34 45 44
f 46 37 25
f 37 46 44
f 33 46 25
f 46 33 36
f 34 46 36
f 46 34 44
