v -0.001172453 0.004532814 0.03863928
v -0.001616895 0.004612386 0.03741771
v -0.001616716 -0.004625231 0.03741696
v -0.001616776 -0.005132034 -0.03734079
v -0.001616776 0.00513199 -0.03734013
v 0.001616865 -0.004618049 -0.03711724
v 0.001616329 0.004618928 -0.03711674
v -0.001172051 -0.004546866 0.038638
v 0.00152801 -0.004636362 -0.03769374
v 0.0005745739 -0.004793048 -0.03857821
v -0.0004142523 -0.004949957 -0.03863949
v 0.000574708 0.004794225 -0.03857771
v -0.0004152507 0.004950792 -0.03863838
v -0.001337945 0.005092442 -0.03793815
v 0.00152722 0.004637808 -0.03769326
v 0.001425833 0.004654907 -0.03797331
v 0.001426116 -0.004654318 -0.03797376
v -0.001337424 -0.005091667 -0.03793952
v -0.0009403527 0.005032204 -0.03830323
v -0.0009394437 -0.005030349 -0.03830481
f 1 2 3
f 2 4 3
f 4 2 5
f 6 7 1
f 4 8 3
f 8 1 3
f 8 6 1
f 9 4 10
f 8 9 6
f 9 8 4
f 9 7 6
f 11 12 10
f 12 11 13
f 14 4 5
f 2 14 5
f 15 2 1
f 7 15 1
f 12 15 16
f 15 9 16
f 9 15 7
f 9 17 16
f 17 9 10
f 17 12 16
f 12 17 10
f 14 18 4
f 4 18 10
f 18 11 10
f 19 15 12
f 19 12 13
f 19 14 2
f 15 19 2
f 19 18 14
f 18 20 11
f 19 20 18
f 11 20 13
f 20 19 13
