v -0.05772841 -0.01191649 -0.08158231
v -0.05704653 -0.01295743 -0.08698767
v -0.05740485 -0.01998807 -0.103165
v -0.05867639 0.02233581 0.00646019
v -0.0587717 0.02235813 0.0083583
v -0.05793791 0.0248331 0.00741744
v -0.05749473 0.02473896 0.007449567
v -0.05832577 0.02228138 0.008391738
v -0.05822778 0.02227085 0.006499231
v -0.05695933 -0.02287921 -0.1143092
v -0.05642036 -0.02205038 -0.1188488
v -0.05662863 -0.02331715 -0.1189677
v -0.05697016 -0.01987386 -0.1060852
v -0.05788972 -0.008846588 -0.07139945
v -0.05700365 -0.008078385 -0.0718627
v -0.05829117 0.01674494 -0.01623732
v -0.05873525 0.01682166 -0.0162707
v -0.05868604 0.01539149 -0.01572245
v -0.0586137 0.01537575 -0.01675129
v -0.05726062 -0.021386 -0.1077262
v -0.05587244 0.02301423 -0.02387816
v -0.05645631 0.02315962 -0.0217064
v -0.05574831 0.02478715 -0.02389741
v -0.05588424 0.02480931 -0.02189249
v -0.05805603 -0.007624794 -0.06507182
v -0.05560853 0.02438243 -0.02115011
v -0.0553 0.0247099 -0.02386391
v -0.05722108 -0.006497893 -0.06218219
v -0.05828623 -0.006997596 -0.05900604
v -0.05593008 0.02343357 -0.02115816
v -0.0564903 0.02449512 -0.01508486
v -0.05737515 0.02202951 -0.01414794
v -0.05603638 0.02441706 -0.01505089
v -0.05692479 0.02195159 -0.01411414
v -0.05724214 0.0220002 -0.01604331
v -0.05230631 -0.03128403 -0.113053
v -0.05427408 -0.02789264 -0.1122469
v -0.05350158 -0.02900818 -0.1178722
v -0.05206229 -0.0275315 -0.08711016
v -0.05448829 -0.02153676 -0.07426822
v -0.05384417 -0.0234886 -0.08421516
v -0.05105372 -0.03300493 -0.1078287
v -0.05330238 -0.02428165 -0.07509786
v -0.05679573 0.02192335 -0.01600993
v -0.04644315 -0.02156405 -0.05661374
v -0.04663447 -0.02306202 -0.05693746
v -0.04544471 -0.0237843 -0.06260377
v -0.04463513 -0.02270394 -0.06480014
v -0.0542199 -0.02253636 -0.07037318
v -0.0443296 -0.02464057 -0.0666852
v -0.04928325 -0.03519605 -0.1032786
v -0.050835 -0.03258056 -0.1017131
v -0.05574603 -0.018031 -0.07169288
v -0.04750846 -0.03708755 -0.09936488
v -0.05366333 -0.02838053 -0.1062875
v -0.04330856 -0.02383122 -0.06916988
v -0.04349761 -0.02535698 -0.0692997
v -0.04165286 -0.02711983 -0.07425952
v -0.04022777 -0.02685345 -0.07703865
v -0.05672729 -0.0147627 -0.06827796
v -0.05473247 -0.02135562 -0.08395785
v -0.04040679 -0.02838895 -0.0771541
v -0.05245771 -0.02959589 -0.1005056
v -0.03862457 -0.02850864 -0.0803566
v -0.03886776 -0.02998748 -0.08031863
v -0.04297507 -0.04293241 -0.1151929
v -0.04351735 -0.04257295 -0.1135111
v -0.04783837 -0.0372088 -0.1173525
v -0.03613545 -0.03294844 -0.08552319
v -0.03013889 -0.04019187 -0.09708989
v -0.02547187 -0.04261875 -0.1051985
v -0.0464137 -0.03947359 -0.1115057
v -0.05682507 -0.01385628 -0.07178378
v -0.05598778 -0.01754784 -0.08159459
v -0.02843185 -0.04194898 -0.1002877
v -0.02729025 -0.04294879 -0.1023774
v -0.05611347 -0.01841244 -0.08715671
v -0.02602836 -0.04386876 -0.1046342
v -0.05680016 -0.01416243 -0.07714862
v -0.05427147 -0.02650558 -0.1022776
v -0.02494892 -0.04453988 -0.106532
v -0.02350932 -0.04525245 -0.1090108
v -0.02239859 -0.04568966 -0.1108915
v -0.04978174 -0.03465247 -0.1176261
v -0.02147241 -0.04598128 -0.1124392
v -0.01079033 -0.04375063 -0.1286873
v -0.01942551 -0.04640734 -0.1158055
v -0.05888636 0.01390062 -0.01810807
v -0.05803099 0.01759406 -0.01662743
v -0.05933607 0.01397953 -0.01814091
v -0.05847745 0.01767105 -0.01666105
v -0.05195785 0.02773554 -0.06595981
v -0.05159245 0.02634033 -0.06238383
v -0.05231635 0.02724557 -0.06096685
v -0.05101444 0.02730371 -0.07029235
v -0.05138566 0.02883294 -0.07223159
v -0.04414868 -0.04203885 -0.1114191
v -0.05092405 0.0298991 -0.07657325
v -0.044908 -0.04121704 -0.1088471
v -0.05000465 0.03010945 -0.08108246
v -0.04953781 -0.03539322 -0.1133864
v -0.045488 -0.04052043 -0.1069461
v -0.04914328 -0.03585319 -0.1079384
v -0.05256736 0.02712648 -0.05658364
v -0.04893181 0.0349433 -0.09187698
v -0.04611084 -0.03958105 -0.1046076
v -0.04666285 -0.03868017 -0.1025921
v -0.04817298 0.03546062 -0.09637094
v -0.05135506 -0.03268809 -0.1152831
v -0.05621411 0.02194535 -0.02388757
v -0.05705106 0.01914016 -0.02390331
v -0.05666018 0.02203476 -0.02392006
v -0.05749597 0.01921699 -0.02393681
v -0.05790999 0.01933431 -0.01154768
v -0.05780586 0.01931055 -0.01307404
v -0.05835514 0.01941122 -0.01158118
v -0.05825114 0.01938739 -0.01310754
v -0.05595982 0.0219397 -0.0274058
v -0.05576199 0.02189725 -0.03030616
v -0.05640627 0.02201704 -0.0274393
v -0.05621298 0.02197087 -0.0303399
v -0.05994812 -0.01066196 -0.02996922
v -0.05945367 -0.006572615 -0.04013783
v -0.05977681 -0.01250953 -0.03025955
v -0.05810356 -0.0119635 -0.05600047
v -0.05788395 -0.01375934 -0.05564117
v -0.06204694 -0.0128088 0.003145754
v -0.05025706 -0.0307313 -0.08804679
v -0.05765222 -0.01552982 -0.05417156
v -0.06020623 -0.01503289 -0.01879025
v -0.05737998 -0.01694376 -0.05328023
v -0.05988526 -0.01665784 -0.01875627
v -0.05951131 -0.01874212 -0.01666981
v -0.05625214 -0.0196014 -0.05623412
v -0.05794568 -0.009888604 -0.06057072
v -0.0547206 -0.02249873 -0.08948296
v -0.06194678 -0.005666707 -0.002830267
v -0.06228078 -0.01018794 0.003585339
v -0.05136207 -0.028263 -0.08349538
v -0.06309117 -0.01384693 0.01863182
v -0.06208024 -0.01636696 0.01066262
v -0.06170716 -0.01803715 0.01082289
v -0.0576669 0.01751141 -0.02177203
v -0.05816557 0.01760005 -0.02104431
v -0.05811102 0.01758816 -0.02180505
v -0.05743283 0.0232233 -0.001367807
v -0.05705051 0.02630356 0.001458943
v -0.05787977 0.02330069 -0.001401365
v -0.05659944 0.02622702 0.001493692
v -0.05783081 0.01754745 -0.01947314
v -0.05818628 0.01611339 -0.01987493
v -0.05834784 0.01763984 -0.01848215
v -0.05255765 -0.02577461 -0.07854062
v -0.05863103 0.01618997 -0.01990807
v -0.05879735 0.01387833 -0.01936918
v -0.05828418 0.01558675 -0.02040148
v -0.05924064 0.01395497 -0.01940233
v -0.05736512 0.01592271 -0.03119415
v -0.0575045 0.0159532 -0.02930158
v -0.05810875 0.0154114 -0.02933645
v -0.05787349 0.01930537 -0.01855201
v -0.05742858 0.01922855 -0.01851869
v -0.05588342 0.02603747 -0.01579392
v -0.05543394 0.02596004 -0.01576048
v -0.05753994 0.01748318 -0.02354294
v -0.05804367 0.01757212 -0.0228157
v -0.05798963 0.01755843 -0.02357662
v -0.05831973 0.01377024 -0.02600849
v -0.05826642 0.01375848 -0.02674127
v -0.05870996 0.01383514 -0.0267747
v -0.05764419 0.01661618 -0.02525586
v -0.057136 0.01738953 -0.02915531
v -0.05759606 0.01681353 -0.03122461
v -0.05758068 0.01746641 -0.02918851
v -0.05746536 0.01663803 -0.02747905
v -0.05821197 0.01374676 -0.02748758
v -0.04238485 -0.04322938 -0.117072
v -0.05494107 -0.02131278 -0.06614447
v -0.05869296 0.02115478 0.008834958
v -0.05855057 0.02112125 0.006054401
v -0.0591388 0.02123191 0.008801699
v -0.05899629 0.02119849 0.006021261
v -0.05566774 -0.02025686 -0.0611487
v -0.05769432 0.0226599 -0.0002359152
v -0.05797469 0.02152251 -0.001381278
v -0.05815281 0.02273848 -0.0002701879
v -0.05438434 0.02571795 -0.03167593
v -0.05514896 0.02586523 -0.02694631
v -0.05484569 0.02579313 -0.03171068
v -0.05469732 0.0257864 -0.02691233
v -0.05837415 0.01378177 -0.02526015
v -0.05887264 0.0138713 -0.02458447
v -0.04924397 -0.02226662 -0.02826047
v -0.04714322 -0.02129211 -0.05142248
v -0.05181903 -0.0215792 0.005311608
v -0.04738133 -0.02277043 -0.05181926
v -0.05607632 -0.01830603 -0.06443572
v -0.05168514 -0.02013895 0.009069562
v -0.05665757 -0.01612204 -0.0643422
v -0.05412388 0.001010071 0.09262919
v -0.06216359 0.00406592 0.08476543
v -0.05450986 -0.001585376 0.09180528
v -0.06107668 0.01054123 0.08562958
v -0.06153696 0.007838558 0.0854488
v -0.05287491 0.008723158 0.09379148
v -0.05511911 -0.005993787 0.0897789
v -0.06284413 -0.000209149 0.08317244
v -0.05342077 0.005452555 0.09351063
v -0.06342073 -0.004011054 0.08068597
v -0.06311928 -0.001972254 0.08215201
v -0.05588742 -0.01274445 0.08458233
v -0.0636791 -0.005863007 0.07892871
v -0.05572477 -0.01111478 0.0861392
v -0.03481551 -0.04233818 -0.1367704
v -0.0120596 -0.04543529 -0.1274025
v -0.03578457 -0.04291983 -0.1344274
v 0.00743559 -0.02540763 -0.1531078
v -0.02129503 -0.021335 -0.1632601
v 0.008537605 -0.02315753 -0.1542598
v -0.03378592 -0.04159364 -0.139168
v -0.01043771 -0.04478538 -0.1298274
v 0.005834609 -0.02832079 -0.1513598
v -0.02258641 -0.02456878 -0.1612681
v -0.01650339 -0.00546464 -0.1687902
v -0.01577123 -0.002121616 -0.1692364
v -0.01017839 -0.004220877 -0.1670597
v -0.01521057 0.0008507036 -0.1694399
v -0.008234009 -0.04364566 -0.1330531
v -0.00315702 -0.03983644 -0.1401449
v -0.03004871 -0.03777576 -0.1473674
v -0.02909023 -0.03652152 -0.1493496
v 0.009878859 -0.0201643 -0.1555607
v -0.01934204 -0.01575997 -0.1659269
v -0.0187794 -0.01399973 -0.1665933
v 0.003281668 -0.03234519 -0.1483872
v -0.02577853 -0.03120933 -0.1557897
v -0.02385411 -0.02736675 -0.1592145
v 0.01184683 -0.01491855 -0.1572785
v -0.01819903 -0.01193308 -0.1672834
v -0.0175157 -0.009546604 -0.1679395
v -0.04298761 0.04078105 -0.07221144
v -0.04381962 0.04006231 -0.06921977
v -0.03143768 0.03987707 -0.07173103
v -0.0445682 0.03946764 -0.06618428
v -0.0328663 0.039297 -0.06838346
v -0.001147807 -0.0378599 -0.1428201
v -0.04584779 0.03861783 -0.05966383
v -0.03398901 0.0389158 -0.06526357
v -0.02060091 -0.01949687 -0.1642374
v -0.03535809 0.03856668 -0.06053054
v -0.03660211 0.03845532 -0.05420458
v -0.04632978 0.03840647 -0.05641413
v -0.02670644 -0.03283742 -0.1540686
v 0.001935706 -0.03419422 -0.1467417
v 0.0003546178 -0.03616608 -0.1447576
v -0.006830111 0.05130486 -0.1096088
v -0.01443382 0.0519736 -0.1066284
v -0.008628651 0.0510953 -0.1068064
v -0.01088162 0.05056604 -0.1033629
v -0.02759323 0.05506213 -0.1115979
v -0.02708583 -0.04538463 -0.1175103
v -0.01784259 0.05122228 -0.1024715
v -0.01330061 0.04960973 -0.09976423
v -0.01831049 0.05031921 -0.09992981
v -0.01545687 0.04847666 -0.09662533
v -0.02213062 0.04947395 -0.09710014
v -0.02144969 0.04491184 -0.08799237
v -0.0382345 0.04535203 -0.08527213
v -0.03627451 0.04741383 -0.09006453
v -0.02565737 0.0426386 -0.08184928
v 0.01267536 -0.01235875 -0.1578923
v -0.04057041 0.04305416 -0.07942486
v -0.0273364 0.04180836 -0.07930011
v -0.04170488 0.04196576 -0.07624042
v -0.04031599 -0.04387864 -0.1228526
v -0.03929754 -0.04392985 -0.1255583
v -0.04111645 -0.04372191 -0.1206355
v -0.02317213 -0.04547603 -0.123759
v -0.03830232 -0.04382331 -0.1281533
v -0.03738734 -0.04357974 -0.1305183
v -0.02816439 -0.03519171 -0.1512085
v -0.01686615 -0.0464576 -0.1199427
v -0.02536011 0.05559893 -0.1176145
v -0.004356131 0.05121769 -0.1135578
v -0.002855852 0.0509779 -0.1160036
v -0.02676761 0.0553678 -0.1137687
v -0.01363517 -0.04593858 -0.1250087
v -0.02082299 -0.04544964 -0.125211
v -0.03344259 0.05048064 -0.09695804
v 0.004723206 -0.03016272 -0.1500893
v 0.01359873 -0.009089027 -0.1584725
v -0.02875754 0.05445244 -0.1085451
v -0.02989879 0.0536943 -0.1056414
v -0.03124076 0.05262059 -0.102289
v -0.00576666 -0.04200541 -0.136557
v -0.03237906 -0.04033775 -0.1423793
v 0.01431654 -0.006164107 -0.1588178
v 0.005255044 0.04476933 -0.1304181
v -0.01606378 0.04681541 -0.09612906
v 0.015012 -0.002768684 -0.1590042
v -0.01470438 0.003646698 -0.1694752
v -0.02749033 0.04038621 -0.079512
v -0.03122419 0.03861259 -0.07277954
v -0.03499065 0.03720909 -0.06292772
v -0.03661938 0.03697627 -0.05570024
v -0.0586791 0.01385236 -0.02102286
v -0.05912259 0.01392894 -0.02105612
v -0.05634899 0.02614545 -0.008915722
v -0.05808292 0.02175383 -0.006115019
v -0.05653806 0.02618693 -0.006071746
v -0.05324385 0.02719124 -0.04657751
v -0.05100419 0.03093075 -0.05619144
v -0.05745713 0.02640057 0.008190811
v -0.0568445 0.03162539 0.02374375
v -0.05717628 0.02633096 0.003346384
v -0.05849762 0.02697155 0.02524948
v -0.05247295 0.03932502 0.01802105
v -0.05157387 0.03923123 0.006710887
v -0.05344293 0.03753955 0.01618665
v -0.05685911 0.0262615 -0.001374125
v -0.05453655 0.03579808 0.01759303
v -0.05406438 0.03415291 0.00281179
v -0.05844911 0.01943953 -0.0103333
v -0.05507544 0.03189195 0.003222048
v -0.05771945 0.01926602 -0.02077127
v -0.05585326 0.02310772 -0.03033131
v -0.0552619 0.02589582 -0.02528882
v -0.05532575 0.02469026 -0.03031725
v -0.05624944 0.03337431 0.02499223
v -0.05604699 0.02314949 -0.02743113
v -0.05580287 0.02604638 -0.01024562
v -0.05625261 0.02612399 -0.01027912
v -0.05913407 0.01120778 -0.02983475
v -0.05907281 0.01391944 -0.02181768
v -0.05589519 0.02606704 -0.008880734
v -0.05740575 0.0191975 -0.02533919
v -0.02501306 8.902326e-05 -0.1663413
v -0.0284691 0.002972152 -0.1649539
v -0.0258882 0.004312556 -0.1659983
v -0.04388104 0.002689529 -0.1561561
v -0.04812855 0.00333241 -0.1530597
v -0.04313074 0.005683687 -0.1566472
v -0.05921215 0.01961184 0.001622498
v -0.05902775 0.01956956 -0.00142616
v -0.05893861 0.01954972 -0.002828777
v -0.05791314 0.01754101 -0.02457428
v -0.01929501 -0.004606854 -0.1680437
v -0.02146326 -0.0011173 -0.1675825
v -0.05783082 0.01752293 -0.02571619
v -0.05860722 0.01381275 -0.0282281
v -0.0313282 0.00528704 -0.1635931
v -0.05793756 0.01433793 -0.02909315
v -0.04670049 0.01150839 -0.1533298
v -0.05881035 0.01951567 -0.00482136
v -0.05899531 0.01390063 -0.02282721
v -0.05765 0.01748368 -0.0282163
v -0.05598336 0.0260586 -0.01431012
v -0.03996193 0.006728549 -0.158703
v -0.06183325 0.01178302 0.009224832
v -0.03925636 0.0009181984 -0.1592072
v -0.05970703 0.0197322 0.01092887
v -0.05871674 0.01949514 -0.006229401
v -0.05718307 0.02382455 -0.00899905
v -0.05853244 0.01945512 -0.009031653
v -0.05799604 0.01493297 -0.0263679
v -0.05773254 0.01750129 -0.02707642
v -0.05894113 0.01388881 -0.02358812
v -0.05704132 0.01911465 -0.0303542
v -0.05863573 0.01225193 -0.03297281
v -0.02239847 0.004012454 -0.1672758
v -0.03638151 0.0002195351 -0.1608862
v -0.06165656 0.01326517 0.01252866
v -0.05415095 0.02511014 -0.04449737
v -0.05694176 0.01909253 -0.03175753
v -0.03758273 0.006663594 -0.1601573
v -0.033604 0.004173968 -0.1624908
v -0.03370203 0.0001417659 -0.1623703
v -0.01936491 0.003621053 -0.1682607
v -0.05737759 0.01742187 -0.03198349
v -0.0577824 0.01430401 -0.03119922
v -0.05752549 0.01530426 -0.03119564
v -0.05687925 0.01753025 -0.03779256
v -0.0573826 0.02638251 0.006703854
v -0.02963151 -0.004136842 -0.1640044
v -0.05953698 0.02351926 0.04789758
v -0.05989763 0.02593974 0.04222572
v -0.05875312 0.02533852 0.03885257
v -0.06057122 0.02442791 0.04890221
v -0.05833086 0.01375037 -0.03199589
v -0.06294606 0.01587467 0.05709308
v -0.0620188 0.0196464 0.05588007
v -0.0612468 0.01766091 0.05499351
v -0.06127095 0.02230723 0.05345261
v -0.05982295 0.02267116 0.05015725
v -0.05651273 0.02342011 -0.01973987
v -0.05571483 0.02560135 -0.02033496
v -0.05789088 0.02614741 0.02495462
v -0.05940931 0.02660621 0.03690547
v -0.06039665 0.02080623 0.05302519
v -0.06240799 0.01228056 0.0558219
v -0.05791433 0.02369631 0.0007067919
v -0.05775404 0.02090495 -0.01370555
v -0.05756412 0.02086325 -0.01648217
v -0.05853808 0.01768338 -0.01585573
v -0.05797744 0.01932793 -0.01706421
v -0.05959637 0.01403548 -0.01435721
v -0.05962201 0.01971203 0.009400785
v -0.05677658 0.02221959 -0.02147341
v -0.05934723 0.01965134 0.003949881
v -0.05827144 0.01941823 -0.006196022
v -0.05670765 0.02374883 -0.008966208
v -0.05941681 0.01966428 0.005438566
v -0.04576336 0.04028252 -0.1188402
v -0.0488558 -0.0003701709 -0.1522461
v -0.04573548 0.04147357 -0.116961
v -0.04522963 0.04163385 -0.121428
v -0.05554698 0.02473832 -0.02695745
v -0.05676937 0.0262395 -0.002776384
v -0.04990248 -0.005257707 -0.1504124
v -0.05827538 0.01762426 -0.01950639
v -0.04472999 0.04108885 -0.1265696
v -0.05589925 -0.02332607 -0.1251816
v -0.05662718 0.02620568 -0.004768014
v -0.05075084 -0.008883029 -0.1484301
v -0.04439321 0.03972329 -0.1315128
v -0.05886196 0.01477588 -0.01547974
v -0.05875576 0.01475273 -0.01698714
v -0.05815694 0.01589528 -0.02101701
v -0.05550463 -0.02292312 -0.1280118
v -0.05641401 0.02164153 -0.02247578
v -0.0442135 0.0374939 -0.1363771
v -0.05738652 0.01744623 -0.02568305
v -0.05746889 0.0174643 -0.0245412
v -0.05190699 -0.01332976 -0.1449935
v -0.0588932 0.01956929 0.003982484
v -0.05692208 0.02630484 0.006738901
v -0.054974 -0.02205945 -0.1313323
v -0.05925995 0.01965529 0.01096183
v -0.0570109 0.02632364 0.008223593
v -0.04419115 0.03540035 -0.1396734
v -0.05242653 -0.01514098 -0.1431727
v -0.04424627 0.03346093 -0.1420728
v -0.05423945 -0.02046543 -0.1353424
v -0.05617754 0.02612773 -0.004734397
v -0.05836505 0.0194387 -0.00478816
v -0.044384 0.03085827 -0.1447361
v -0.053202 -0.01762541 -0.1401298
v -0.04464911 0.02748958 -0.147429
v -0.04490243 0.02491835 -0.1490458
v -0.04528128 0.02155499 -0.1507447
v -0.05727442 0.01918916 -0.02073807
v -0.04582222 0.01739622 -0.1522192
v -0.05480497 0.02581456 -0.02525443
v -0.05557822 0.02477005 -0.01969916
v -0.06087142 0.01943037 0.07785249
v -0.06018674 0.02501785 0.07049942
v -0.06208901 0.01755097 0.07205474
v -0.05901282 0.02942063 0.06509626
v -0.05898423 0.03005045 0.05416006
v -0.06031344 0.02615878 0.05948466
v -0.0590123 0.02848727 0.07004791
v -0.06140746 0.01275479 0.08267069
v -0.06050631 0.01782849 0.08196276
v -0.0616233 0.01557356 0.07862341
v -0.05985935 0.02747937 0.05346602
v -0.05858654 0.03009241 0.04266477
v -0.05727512 0.03297766 0.03846133
v -0.05646148 0.0342417 0.070032
v -0.05614462 0.03535424 0.06683362
v -0.05787235 0.03237665 0.06255788
v -0.0609396 0.01286757 0.01262939
v -0.06053148 0.02513659 0.06450343
v -0.05281024 0.02622638 -0.04587042
v -0.05509873 0.02466065 -0.02692407
v -0.05487658 0.02461298 -0.03028387
v -0.05730832 0.02082768 -0.01367217
v -0.05753244 0.01925104 -0.01703095
v -0.05858266 0.01949268 -0.001392841
v -0.0580382 0.03231646 0.05644071
v -0.05719183 0.03390847 0.04656184
v -0.05872258 0.02381407 0.08284444
v -0.05843019 0.02537199 0.08188045
v -0.06001537 0.02285025 0.07742709
v -0.06133505 0.02172608 0.06847239
v -0.05915241 0.01395886 -0.01432419
v -0.0628023 0.01652993 0.06432343
v -0.05739 0.0192329 -0.01906228
v -0.0574488 0.02361852 0.000739038
v -0.05930693 0.02065965 0.08422703
v -0.0567233 0.02625398 0.003381133
v -0.05876584 0.01953468 0.001655996
v -0.06002407 0.01662513 0.08524108
v -0.06235188 0.01177466 0.07864457
v -0.05689852 0.03255822 0.07370943
v -0.05608833 0.02610946 -0.006037951
v -0.05808229 0.01937716 -0.008997679
v -0.06361722 0.01254397 0.06401891
v -0.06340633 0.01173105 0.07067519
v -0.0569519 0.01911853 -0.02530515
v -0.05760275 0.0216515 -0.006077647
v -0.05649635 0.01901567 -0.03172415
v -0.05659661 0.01903779 -0.03032112
v -0.05886748 0.01389361 -0.01838398
v -0.05722874 0.0311516 0.0760178
v -0.05855183 0.01382408 -0.02279401
v -0.05553371 0.02598071 -0.01427662
v -0.05886721 0.01955794 0.003473043
v -0.05540533 0.02303054 -0.03029788
v -0.05559999 0.02307256 -0.02739763
v -0.05799385 0.01935773 -0.01029932
v -0.0591771 0.01963519 0.009434283
v -0.0628729 0.01205393 0.07494235
v -0.05809517 0.01371895 -0.02909476
v -0.05602825 0.03633822 0.0536198
v -0.05790451 0.02799987 0.07978296
v -0.05769049 0.02904139 0.07870889
v -0.05808751 0.01760589 -0.01582205
v -0.05693211 0.01734502 -0.03194994
v -0.05454567 0.03864787 0.04724848
v -0.05390941 0.0391303 0.03821814
v -0.05494973 0.0373801 0.03653157
v -0.05772164 0.01239103 -0.03362089
v -0.0605357 0.01369469 0.0855791
v -0.0563115 0.02616273 -0.002742231
v -0.05625756 0.03557023 0.043311
v -0.05849352 0.0194728 -0.002795458
v -0.05640726 0.02618404 -0.00134027
v -0.05511591 0.03785197 0.05496347
v -0.05849685 0.01381209 -0.02355486
v -0.05788458 0.01367309 -0.0319615
v -0.05711815 0.0207863 -0.01644909
v -0.05606368 0.03449668 0.02947682
v -0.05549332 0.03710479 0.05967271
v -0.05466929 0.03683391 0.02687836
v -0.05338079 0.03930878 0.03066623
v -0.05586502 0.03614898 0.0640527
v -0.04685321 0.03846326 -0.05149549
v -0.03713256 0.03850533 -0.04940754
v -0.0494761 0.03897087 -0.0186215
v -0.04140659 0.03927781 0.005321324
v -0.05817391 0.01121087 -0.03166246
v -0.05836612 0.0108791 -0.03022802
v -0.06109008 0.01142353 0.008991599
v -0.05626497 0.02262021 -0.02022809
v -0.05633481 0.02213911 -0.0213955
v -0.05105513 0.01700852 0.09166098
v -0.052306 0.0120349 0.09374893
v -0.05111884 0.01863024 0.09276795
v -0.05066895 0.02099251 0.09208328
v -0.0500689 0.02399256 0.0908739
v -0.04922953 0.02629614 0.08796388
v -0.04943603 0.02700051 0.08926922
v -0.0489136 0.02936339 0.08763337
v -0.0647999 0.002781752 0.0654552
v -0.06401744 0.009482201 0.06657749
v -0.0644621 0.006677363 0.06274897
v -0.04850103 0.03112852 0.08615601
v -0.04808362 0.032838 0.08450496
v -0.06390531 -0.003354248 0.07767797
v -0.04653209 0.03691014 0.07511127
v -0.04749712 0.03504245 0.08176237
v -0.04705915 0.036523 0.07938093
v -0.0647383 -0.0123741 0.057742
v -0.06434564 -0.01290398 0.06580311
v -0.06506278 -0.009440336 0.05952096
v -0.04641247 0.03837544 0.0752123
v -0.06387262 -0.007181529 0.07734454
v -0.06452021 -0.003576797 0.07291913
v -0.06513286 -0.00927249 0.05434287
v -0.06528278 -0.006137211 0.05794764
v -0.06517383 -0.007627416 0.04964203
v -0.04599828 0.03928926 0.07189178
v -0.06471345 -0.009872328 0.03966165
v -0.04567128 0.03981226 0.06886107
v -0.04553407 0.03875029 0.06544071
v -0.06315365 0.003920157 0.08007902
v -0.06444769 0.0004906319 0.07256711
v -0.04501021 0.04041229 0.0606997
v -0.0649668 -0.008313995 0.06471181
v -0.06465193 -0.006941732 0.07060194
v -0.06451935 -0.008056212 0.0349291
v -0.06385458 -0.004414137 0.02593231
v -0.06396019 -0.009145875 0.02599794
v -0.04436441 0.04037088 0.05098355
v -0.065111 -0.005873155 0.04732811
v -0.06525145 -0.00385223 0.05415666
v -0.06490061 -0.001052801 0.04839981
v -0.04236351 0.03957635 0.01977569
v -0.04180811 0.03791907 0.009832919
v -0.06375013 0.00771914 0.07301486
v -0.06457488 0.002763111 0.06953049
v -0.05344902 0.002981622 0.09161705
v -0.0649325 0.001963783 0.06094718
v -0.0643709 0.007242378 0.05696476
v -0.06482124 0.001997408 0.05424583
v -0.05480726 -0.006337855 0.08792192
v -0.06469703 -0.002934393 0.04016459
v -0.06318509 -0.01735656 0.03235483
v -0.0644135 -0.01376737 0.04374659
v -0.0633091 -0.01530057 0.02577949
v -0.0636292 -0.01691148 0.04007232
v -0.06488115 -0.0008543544 0.06814486
v -0.05608912 -0.01534169 0.08142304
v -0.05578691 -0.01683427 0.07594597
v -0.05616915 -0.01733682 0.07809222
v -0.06433535 -0.01426334 0.06060433
v -0.05616844 -0.01828517 0.07601285
v -0.05612761 -0.01903577 0.07387924
v -0.05594705 -0.02018481 0.06900829
v -0.05531614 -0.01950796 0.06261295
v -0.05553518 -0.02101154 0.06094539
v -0.05501655 -0.02125408 0.0525763
v -0.06357535 0.005582143 0.07638633
v -0.05293217 -0.02141489 0.02169347
v -0.03722402 0.03701678 -0.05081463
v -0.06524605 -0.003106777 0.06045401
v -0.04726335 0.03992641 0.05249637
v -0.05105457 0.03929946 0.04768538
v -0.04840854 0.0395123 0.05991668
v -0.04700756 0.03986158 0.04250157
v -0.05097687 0.03944967 0.03643864
v -0.06424017 -0.01090532 0.0711602
v -0.06401652 -0.008633841 0.07537872
v -0.04983361 0.0395374 0.04434568
v -0.06424614 -0.01523802 0.05537874
v -0.06479795 -0.01210762 0.04991788
v -0.06404521 -0.01603838 0.04972559
v -0.04823099 0.03963093 0.03251082
v -0.06385642 -0.01165618 0.02628928
v -0.06384832 -0.01653501 0.04491454
v 0.007734925 0.04338691 -0.1350943
v 0.01029678 0.03782908 -0.1401381
v 0.009858117 0.04010795 -0.1393744
v 0.01592067 0.01264992 -0.1555012
v 0.01620311 0.01006774 -0.1574955
v 0.01620772 0.01306388 -0.156702
v -0.001282975 0.05050733 -0.1186705
v 0.001489788 0.04920366 -0.1234934
v 0.003236309 0.04801674 -0.1266233
v 0.005686954 0.04582519 -0.1311532
v 0.006614313 0.04479244 -0.1329204
v 0.01068586 0.03855852 -0.1411157
v 0.01139709 0.03707533 -0.1426438
v 0.0128229 0.03350036 -0.1458766
v 0.01342635 0.03005612 -0.1470584
v 0.01405331 0.02947801 -0.1489202
v 0.01454487 0.02746863 -0.150236
v 0.01551056 0.01952385 -0.1530594
v 0.01525283 0.02387962 -0.1523098
v -0.06008071 -0.01779703 0.06052381
v -0.05905638 -0.0187401 0.05796462
v -0.06047769 -0.01817588 0.05083156
v 0.01564738 0.02113463 -0.1536686
v -0.05710378 -0.02008995 0.04700822
v 0.01591021 0.01867146 -0.1547471
v -0.05680475 -0.02008915 0.03554457
v 0.0161206 0.01559896 -0.1558944
v 0.01614606 0.008059744 -0.1579335
v -0.06040361 -0.01712546 0.06379163
v 0.01598421 0.005246412 -0.1584235
v 0.01533082 0.001773108 -0.1574229
v 0.0157558 0.002711717 -0.1587335
v 0.01541746 -0.000142049 -0.1589485
v -0.05878712 -0.01923067 0.02871692
v 0.01212367 -0.01313902 -0.1563563
v 0.009101495 -0.02115945 -0.1537677
v -0.06261356 -0.01769717 0.02325976
v -0.005137339 -0.04050585 -0.1366817
v 0.004430726 -0.02986469 -0.1487988
v -0.06327449 0.005878191 0.05507648
v 0.01390143 -0.006519359 -0.1573755
v -0.06344886 0.003766041 0.05408406
v -0.06357686 0.001395579 0.05169737
v -0.06362574 -8.441135e-05 0.04874742
v -0.063548 -0.002040278 0.0410465
v -0.05728838 0.01742459 -0.02704322
v -0.03128031 -0.02564437 -0.1557362
v -0.03695883 -0.02340592 -0.1529678
v -0.03446569 -0.02031403 -0.1564755
v -0.043505 -0.0390518 -0.1272935
v -0.06292983 -0.003986288 0.02366376
v -0.0313282 -0.03349509 -0.1501811
v -0.02898365 -0.02918669 -0.1550618
v -0.04794186 -0.01834148 -0.1460868
v -0.03097524 -0.01992508 -0.1588959
v -0.03569156 -0.01515105 -0.1579309
v -0.04891214 -0.02168129 -0.1423173
v -0.0476224 0.03812579 -0.1012524
v -0.03436437 -0.01223243 -0.1597626
v -0.03924286 -0.01283402 -0.1563913
v -0.04126631 -0.009105783 -0.1561692
v -0.04004313 -0.03955816 -0.1333096
v -0.04393348 -0.03576986 -0.1327804
v -0.04015003 -0.03754651 -0.1363084
v -0.04651907 0.0404455 -0.1097659
v -0.04707111 0.03934849 -0.1053854
v -0.04105417 -0.003536563 -0.1575607
v -0.03903414 -0.006978583 -0.1582506
v -0.04404864 -0.003181081 -0.1555036
v -0.04323629 -0.0003105439 -0.1564589
v -0.03298086 -0.02906718 -0.1522995
v -0.03405628 -0.03428091 -0.147138
v -0.03735311 -0.02839437 -0.149181
v -0.04407907 -0.03237428 -0.1375352
v -0.02857797 -0.02460441 -0.1580273
v -0.02571602 -0.02333491 -0.1602701
v -0.02780567 -0.01739169 -0.1616797
v -0.0472227 -0.01420369 -0.149271
v -0.04158637 -0.02764292 -0.1456821
v -0.0459075 -0.02578325 -0.1423827
v -0.02620962 -0.005291071 -0.1654007
v -0.02628876 -0.01226977 -0.1640012
v -0.02965523 -0.006791625 -0.1635984
v -0.05897155 0.01958737 0.005471945
v -0.02215643 -0.01290322 -0.1656134
v -0.02293204 -0.01637069 -0.1643251
v -0.05977182 -0.005677383 -0.02393544
v -0.04357909 -0.03097655 -0.1399493
v -0.03065142 -0.01396357 -0.1613488
v -0.0572059 0.01742096 -0.02818328
v -0.03971092 -0.03251129 -0.1430733
v -0.01070543 0.05233065 -0.1241635
v -0.02251202 0.05524126 -0.1254319
v -0.02371101 0.05556192 -0.1220652
v -0.0221628 -0.009683233 -0.1663057
v -0.03589062 -0.007749286 -0.1600517
v -0.0214133 0.05470635 -0.1285447
v -0.01482375 0.05347329 -0.1177877
v -0.03846948 -0.03699845 -0.1393851
v -0.01987572 0.05351044 -0.133185
v -0.00760372 0.05002795 -0.13175
v -0.0190938 0.0526791 -0.1356143
v -0.05262372 -0.02873575 -0.1243284
v -0.05282971 -0.0295645 -0.1204791
v -0.03768645 -0.004129987 -0.1596371
v -0.04565707 -0.02237071 -0.1456299
v -0.03360657 -0.009576123 -0.1609358
v -0.05018379 -0.03210024 -0.1247
v -0.05136229 -0.02750703 -0.1309586
v -0.04817803 -0.03533028 -0.1229225
v -0.02730384 0.05423126 -0.120321
v -0.03758489 -0.03603732 -0.1416453
v -0.02141161 0.008844946 -0.1670591
v -0.01762891 0.01586228 -0.1666954
v -0.01699202 0.01054377 -0.168115
v -0.04002726 -0.02448747 -0.1496855
v -0.02313513 0.01198988 -0.1658894
v -0.02786505 0.01083523 -0.1642903
v -0.02578457 0.0153411 -0.1640371
v -0.04297794 -0.02243176 -0.1483545
v -0.03077623 0.0109326 -0.1629879
v -0.04827408 -0.03296819 -0.1284488
v -0.02991456 0.04917714 -0.1320039
v -0.03307369 0.04863285 -0.1287827
v -0.02805293 0.05265302 -0.1251853
v -0.05115451 -0.02626496 -0.1334474
v -0.0355116 0.009176005 -0.1609448
v -0.0328725 0.05014897 -0.1244116
v -0.04742485 -0.03718477 -0.1198056
v -0.02515094 0.02368285 -0.1611274
v -0.02180323 0.02040796 -0.1638262
v -0.02630998 0.01869207 -0.1627359
v -0.03664771 -0.03490504 -0.1439453
v -0.01406145 0.007925492 -0.1692363
v -0.04411797 -0.0160008 -0.1511998
v -0.02177115 0.02399456 -0.1623192
v -0.01373769 0.01052684 -0.1689227
v -0.01340443 0.01376019 -0.1683581
v -0.03665231 -0.03256256 -0.1462671
v -0.04127422 0.01163069 -0.1570184
v -0.03224862 -0.004036974 -0.1627262
v -0.0462444 -0.01033313 -0.1518639
v -0.03877524 0.04732862 -0.1187049
v -0.03894064 0.04593126 -0.1249535
v -0.03584529 0.01348136 -0.1598101
v -0.03870922 0.01118573 -0.158723
v -0.03889443 0.01598288 -0.157298
v -0.04083766 0.04586226 -0.1166716
v -0.03578657 0.01667072 -0.1588726
v -0.0440058 -0.04129826 -0.118608
v -0.04416956 -0.03966545 -0.1239052
v -0.02120721 0.01757797 -0.165043
v -0.0504899 -0.02495032 -0.1365457
v -0.03110239 0.01645524 -0.1613591
v -0.03601399 0.0215548 -0.156755
v -0.02883831 0.02167854 -0.1604288
v -0.04345357 -0.01404324 -0.1527015
v -0.04677875 -0.03366757 -0.1306595
v -0.03057142 0.02520693 -0.1578506
v -0.01290028 0.02258297 -0.1657183
v -0.02495295 0.02653613 -0.1597525
v -0.01731372 0.02324333 -0.1641935
v -0.04597206 -0.03599595 -0.1279434
v -0.03823192 -0.01999513 -0.1539422
v -0.04972155 -0.02373593 -0.1391735
v -0.03439462 0.02614322 -0.1552502
v -0.04751734 -0.02786313 -0.1378859
v -0.04485969 -0.007175315 -0.1540219
v -0.04607339 -0.03228284 -0.1343536
v -0.01289341 0.02724534 -0.1636181
v -0.01609306 0.02869025 -0.1619149
v -0.01295762 0.02940195 -0.1624573
v -0.04089235 0.01912837 -0.1548491
v -0.03763393 0.02330689 -0.1549184
v -0.03046128 0.02774956 -0.1564422
v -0.038416 0.03130096 -0.1490121
v -0.03809671 0.03541355 -0.1453247
v -0.02561212 0.02902623 -0.158031
v -0.03812708 0.03704904 -0.1434301
v -0.03966673 -0.01680164 -0.1544441
v -0.02118619 0.02905394 -0.1598766
v -0.03878631 0.04027646 -0.1383283
v -0.03853457 0.04230725 -0.1350987
v -0.03685436 0.0467265 -0.1272801
v -0.03895591 0.04364466 -0.1316341
v -0.01683325 0.03168577 -0.1598939
v -0.02588147 0.03146555 -0.1563008
v -0.03547157 0.04923457 -0.1213447
v -0.02102576 0.03188096 -0.1581695
v -0.03044197 0.03250891 -0.1531475
v -0.0214 0.0346626 -0.1560248
v -0.01352489 0.03615077 -0.1579618
v -0.03452997 0.02969007 -0.1528472
v -0.02633241 0.03405042 -0.1541755
v -0.03599077 0.04950496 -0.1177615
v -0.01409838 0.03992757 -0.1546997
v -0.01390034 0.03866682 -0.1558598
v -0.01318435 0.01684432 -0.1676242
v -0.04017748 0.0249568 -0.1523535
v -0.03769551 0.0291663 -0.1511832
v -0.01298656 0.01979667 -0.1667278
v -0.02191442 0.03718813 -0.15376
v -0.02799253 0.03690789 -0.1508216
v -0.01286785 0.02503696 -0.1646754
v -0.02220015 0.03986989 -0.1511669
v -0.03492771 0.03506115 -0.1480906
v -0.05237132 0.03123974 -0.03604114
v -0.05011849 0.03274672 -0.05633354
v -0.05148818 0.03421778 -0.02926844
v -0.01490591 0.04356728 -0.1508945
v -0.01537807 0.04519925 -0.1489064
v -0.05074167 0.03732531 -0.0166747
v -0.01322709 0.03343826 -0.1599402
v -0.0193329 0.04540803 -0.1466779
v -0.0484961 0.03607264 -0.05253643
v -0.03077246 0.03867502 -0.1473063
v -0.02659118 0.04037802 -0.1482071
v -0.04926337 0.03459222 -0.05446196
v -0.02964275 0.04165119 -0.1446697
v -0.01945116 0.04736901 -0.1440609
v -0.02734894 0.04502017 -0.1419156
v -0.02385877 0.04706445 -0.1415516
v -0.024462 0.0483354 -0.1390947
v -0.01825084 0.05153244 -0.1384085
v -0.02821331 0.0462913 -0.1392641
v -0.04968339 0.03168875 -0.0692535
v -0.03929931 0.04712343 -0.1094717
v -0.03983521 0.04629424 -0.1044858
v -0.03700136 0.04849179 -0.1025314
v -0.01446927 0.04177421 -0.152862
v -0.03372779 0.05095418 -0.1023691
v -0.03574228 0.04991914 -0.109198
v -0.0245845 0.05005461 -0.1359526
v -0.04286003 0.04077305 -0.07989526
v -0.0453243 0.03812311 -0.07086855
v -0.03810769 0.04816473 -0.1146531
v -0.04212111 0.04478715 -0.1125785
v -0.04527324 0.03855455 -0.08703351
v -0.04747814 0.03541721 -0.08323836
v -0.04611443 0.03692337 -0.08017713
v -0.04769041 0.03575391 -0.08790326
v -0.0455738 0.03869697 -0.09079444
v -0.03276269 0.05194541 -0.1070051
v -0.03489678 0.04083515 -0.1414207
v -0.01587175 0.04668489 -0.1469113
v -0.03166477 0.0438187 -0.14004
v -0.03827149 0.04571771 -0.08912742
v -0.03814536 0.03894812 -0.1409776
v -0.04419966 0.04141093 -0.09899783
v -0.04339612 0.04087801 -0.089104
v -0.0264632 0.05255729 -0.1280503
v -0.02296789 0.05301065 -0.1312282
v -0.04022491 0.04389017 -0.08804637
v -0.01640613 0.0480625 -0.1448582
v -0.03547737 0.05010763 -0.1145986
v -0.04047816 0.0450893 -0.09908569
v -0.04187605 0.0423331 -0.08822882
v -0.03496784 0.04335227 -0.1375147
v -0.01707919 0.04950988 -0.1424404
v -0.04911919 0.0329798 -0.06570292
v -0.04733139 0.03574524 -0.06677681
v -0.01765154 0.05057487 -0.1404303
v -0.0327307 0.04680926 -0.1335958
v -0.03302597 0.05184982 -0.1113952
v -0.04738605 0.0351231 -0.07360953
v -0.03241497 0.05144611 -0.1200821
v -0.03102709 0.05293615 -0.1153173
v -0.04569638 0.0374078 -0.07568932
v -0.04251988 0.04411838 -0.1075242
v -0.0053951 0.02090545 -0.163132
v -0.00409095 0.03304384 -0.155544
v -0.007041976 0.03002387 -0.1592219
f 1 2 3
f 4 5 6
f 7 6 8
f 6 5 8
f 9 5 4
f 9 8 5
f 7 9 6
f 10 11 12
f 10 13 11
f 14 15 1
f 1 15 2
f 6 9 4
f 16 17 18
f 19 18 17
f 20 13 10
f 16 19 17
f 21 22 23
f 22 24 23
f 25 15 14
f 22 26 24
f 3 13 20
f 24 27 23
f 25 28 15
f 3 2 13
f 29 28 25
f 27 21 23
f 24 26 27
f 26 22 30
f 22 21 30
f 31 32 33
f 33 32 34
f 35 32 31
f 36 37 38
f 39 40 41
f 42 37 36
f 43 40 39
f 44 32 35
f 44 34 32
f 33 44 31
f 31 44 35
f 45 46 47
f 45 47 48
f 49 40 43
f 38 10 12
f 48 47 50
f 51 52 42
f 40 53 41
f 54 52 51
f 37 10 38
f 42 55 37
f 48 50 56
f 56 50 57
f 56 57 58
f 52 55 42
f 56 58 59
f 41 60 61
f 59 58 62
f 52 63 55
f 64 62 65
f 59 62 64
f 66 67 68
f 64 65 69
f 55 10 37
f 64 69 70
f 71 64 70
f 67 72 68
f 61 73 74
f 53 60 41
f 71 70 75
f 71 75 76
f 55 20 10
f 74 1 77
f 71 76 78
f 74 79 1
f 73 79 74
f 60 73 61
f 80 20 55
f 71 78 81
f 71 81 82
f 71 82 83
f 72 84 68
f 71 83 85
f 71 85 86
f 86 85 87
f 80 3 20
f 88 89 90
f 89 91 90
f 79 14 1
f 39 80 63
f 92 93 94
f 95 93 92
f 96 95 92
f 67 97 72
f 98 95 96
f 99 72 97
f 100 95 98
f 84 72 101
f 99 102 72
f 72 102 103
f 94 93 104
f 105 100 98
f 106 107 102
f 108 100 105
f 102 107 103
f 101 36 109
f 110 111 112
f 112 111 113
f 114 115 116
f 101 109 84
f 116 115 117
f 51 42 103
f 54 51 107
f 118 119 120
f 72 103 101
f 109 38 84
f 120 119 121
f 122 123 124
f 124 125 126
f 124 126 127
f 128 52 54
f 127 126 129
f 127 129 130
f 129 131 132
f 63 80 55
f 132 131 133
f 133 131 134
f 103 36 101
f 128 39 52
f 124 29 135
f 52 39 63
f 124 123 29
f 136 3 80
f 124 135 125
f 137 122 138
f 122 124 138
f 139 39 128
f 36 38 109
f 124 127 138
f 137 123 122
f 130 140 127
f 130 141 140
f 103 42 36
f 130 133 141
f 39 136 80
f 133 142 141
f 3 136 77
f 130 129 132
f 130 132 133
f 61 136 41
f 41 136 39
f 143 144 145
f 146 147 148
f 146 149 147
f 150 151 152
f 153 39 139
f 43 39 153
f 77 136 74
f 74 136 61
f 152 151 154
f 155 156 157
f 158 159 160
f 161 162 163
f 107 51 103
f 162 164 163
f 3 77 1
f 165 166 167
f 168 169 170
f 171 168 170
f 172 173 174
f 172 158 173
f 81 99 82
f 82 99 97
f 175 176 170
f 57 49 58
f 78 102 81
f 69 139 128
f 81 102 99
f 85 177 87
f 65 139 69
f 50 178 57
f 76 106 78
f 65 153 139
f 57 178 49
f 78 106 102
f 76 107 106
f 75 107 76
f 179 180 181
f 181 180 182
f 47 183 50
f 50 183 178
f 62 153 65
f 85 66 177
f 70 54 75
f 184 185 186
f 187 188 189
f 75 54 107
f 187 190 188
f 46 134 47
f 47 134 183
f 62 43 153
f 58 43 62
f 85 67 66
f 191 171 192
f 83 67 85
f 70 128 54
f 82 97 83
f 69 128 70
f 83 97 67
f 58 49 43
f 193 194 195
f 196 46 45
f 134 131 183
f 60 135 73
f 135 25 73
f 131 197 183
f 73 25 14
f 196 45 194
f 193 196 194
f 195 194 198
f 197 129 199
f 200 201 202
f 131 129 197
f 203 204 205
f 49 197 40
f 199 125 60
f 206 202 207
f 204 201 200
f 208 204 200
f 197 53 40
f 60 125 135
f 129 126 199
f 178 183 49
f 205 204 208
f 209 206 210
f 211 209 212
f 126 125 199
f 183 197 49
f 210 206 207
f 206 209 213
f 209 211 213
f 201 207 202
f 135 29 25
f 214 215 216
f 217 218 219
f 220 221 214
f 217 222 223
f 224 225 226
f 227 226 225
f 221 220 228
f 229 230 231
f 232 233 234
f 197 199 53
f 73 14 79
f 53 199 60
f 235 236 237
f 223 218 217
f 238 239 240
f 241 242 243
f 244 245 242
f 229 231 246
f 247 248 244
f 244 248 245
f 218 249 219
f 247 250 248
f 219 249 233
f 251 250 252
f 252 250 247
f 253 254 255
f 256 257 258
f 258 257 259
f 219 233 232
f 260 257 256
f 177 261 87
f 259 262 263
f 262 264 263
f 263 264 265
f 264 266 265
f 265 266 267
f 268 267 269
f 267 268 270
f 271 240 224
f 268 272 270
f 272 273 270
f 274 273 272
f 240 271 238
f 274 241 273
f 273 241 243
f 261 275 276
f 243 242 245
f 277 275 261
f 278 279 280
f 246 281 255
f 276 279 278
f 278 282 276
f 283 284 285
f 87 261 282
f 286 256 283
f 253 236 254
f 254 236 235
f 283 256 284
f 267 266 269
f 287 288 280
f 266 289 269
f 260 256 286
f 235 237 290
f 221 215 214
f 291 224 226
f 292 257 260
f 293 259 292
f 292 259 257
f 291 271 224
f 294 262 293
f 293 262 259
f 238 234 239
f 295 228 296
f 294 264 262
f 289 266 294
f 294 266 264
f 297 226 227
f 285 284 298
f 230 229 295
f 284 256 298
f 298 256 299
f 256 258 299
f 297 291 226
f 258 259 299
f 297 227 300
f 177 277 261
f 259 263 299
f 263 265 299
f 300 227 301
f 265 267 299
f 299 267 302
f 282 261 276
f 267 270 302
f 280 288 278
f 270 273 302
f 282 278 288
f 302 273 303
f 273 243 303
f 222 290 223
f 295 296 230
f 288 287 282
f 243 245 303
f 303 245 304
f 245 248 304
f 296 228 220
f 248 250 304
f 304 250 305
f 246 231 281
f 253 255 281
f 232 234 238
f 250 251 305
f 290 237 223
f 156 306 307
f 287 280 216
f 215 287 216
f 308 309 310
f 104 311 312
f 313 314 315
f 316 314 313
f 317 318 319
f 148 147 320
f 321 319 322
f 166 145 323
f 314 324 315
f 167 325 113
f 167 323 325
f 167 166 323
f 326 327 328
f 307 157 156
f 321 322 329
f 329 322 324
f 330 327 326
f 331 308 332
f 333 90 157
f 334 145 166
f 331 335 308
f 121 336 120
f 337 338 339
f 340 341 342
f 343 344 345
f 167 113 336
f 167 346 192
f 333 157 307
f 347 337 348
f 336 349 346
f 336 346 167
f 160 350 174
f 339 338 351
f 352 350 160
f 342 341 353
f 343 345 354
f 334 166 355
f 350 356 174
f 357 308 163
f 357 332 308
f 333 307 334
f 358 340 342
f 323 359 343
f 360 340 358
f 361 316 313
f 362 363 364
f 333 334 355
f 365 349 366
f 366 349 336
f 323 354 362
f 323 343 354
f 311 189 188
f 192 367 167
f 116 332 357
f 336 356 366
f 368 336 121
f 369 355 367
f 369 333 355
f 116 323 332
f 369 367 192
f 163 308 327
f 356 336 174
f 170 192 171
f 348 337 370
f 174 336 368
f 323 362 364
f 371 360 358
f 370 337 339
f 372 316 361
f 373 374 189
f 369 192 170
f 371 358 375
f 347 348 225
f 376 371 375
f 174 368 374
f 225 348 370
f 377 371 376
f 224 347 225
f 160 174 173
f 373 189 311
f 369 170 350
f 225 370 378
f 160 173 158
f 227 225 378
f 379 174 374
f 380 352 160
f 380 160 381
f 374 373 382
f 315 383 313
f 301 227 378
f 384 377 338
f 338 377 376
f 351 376 375
f 338 376 351
f 337 384 338
f 385 386 387
f 388 386 385
f 323 116 117
f 369 350 389
f 382 379 374
f 390 391 392
f 393 388 394
f 395 163 396
f 394 388 385
f 316 397 398
f 398 397 387
f 389 382 369
f 399 393 394
f 382 389 379
f 391 393 399
f 390 392 400
f 401 383 315
f 117 402 403
f 327 396 163
f 386 398 387
f 404 359 323
f 405 117 403
f 333 359 406
f 392 391 399
f 407 181 182
f 320 147 315
f 408 163 395
f 401 409 383
f 161 163 408
f 323 117 405
f 410 411 362
f 412 407 182
f 323 91 404
f 362 411 363
f 343 361 407
f 406 359 404
f 413 353 341
f 413 341 414
f 323 405 161
f 152 91 323
f 415 416 413
f 327 188 417
f 343 407 412
f 418 320 315
f 418 315 308
f 413 414 11
f 11 414 419
f 323 420 152
f 416 421 413
f 372 361 343
f 11 422 12
f 154 90 91
f 423 418 308
f 343 412 409
f 323 161 325
f 418 423 354
f 144 420 323
f 11 419 424
f 186 185 344
f 310 423 308
f 421 425 413
f 328 327 417
f 90 426 427
f 90 406 426
f 420 144 428
f 323 145 144
f 354 345 418
f 154 91 152
f 11 429 422
f 120 336 327
f 325 430 112
f 343 186 344
f 333 406 90
f 311 188 327
f 359 372 343
f 120 327 330
f 113 325 112
f 425 431 413
f 176 350 170
f 432 433 346
f 432 346 349
f 11 424 434
f 435 383 409
f 435 436 383
f 11 437 429
f 313 438 361
f 439 438 313
f 431 440 413
f 11 434 441
f 440 442 413
f 11 443 437
f 444 445 354
f 442 446 413
f 11 441 447
f 423 444 354
f 446 448 413
f 11 447 443
f 448 449 413
f 112 430 110
f 449 450 413
f 451 430 325
f 413 450 452
f 396 453 454
f 413 452 353
f 455 456 457
f 458 459 460
f 456 461 458
f 395 396 454
f 462 463 464
f 465 459 466
f 466 329 314
f 453 396 327
f 466 467 329
f 468 469 470
f 471 397 372
f 397 316 372
f 388 465 386
f 460 459 465
f 472 458 460
f 104 473 311
f 93 473 104
f 188 474 417
f 190 474 188
f 417 475 328
f 474 475 417
f 402 117 115
f 476 402 115
f 405 162 161
f 477 162 405
f 185 478 344
f 479 480 459
f 481 482 483
f 457 456 484
f 426 406 485
f 486 460 391
f 459 480 467
f 466 314 316
f 161 451 325
f 487 451 161
f 315 488 401
f 463 489 481
f 490 488 315
f 491 184 186
f 491 186 343
f 492 489 463
f 493 462 464
f 494 468 458
f 495 444 423
f 495 423 310
f 411 496 364
f 363 411 364
f 458 468 470
f 497 498 486
f 456 458 472
f 483 461 456
f 336 453 327
f 460 393 391
f 499 453 336
f 308 500 309
f 390 486 391
f 335 500 308
f 458 470 479
f 365 432 349
f 398 466 316
f 368 501 374
f 502 501 368
f 433 191 192
f 346 433 192
f 464 455 457
f 90 155 157
f 503 155 90
f 501 187 189
f 374 501 189
f 504 494 461
f 461 494 458
f 481 483 455
f 458 479 459
f 428 150 420
f 459 467 466
f 166 505 355
f 497 486 390
f 165 505 166
f 164 506 357
f 164 357 163
f 409 491 343
f 507 491 409
f 508 509 330
f 508 330 326
f 364 510 323
f 496 510 364
f 361 511 407
f 438 511 361
f 181 407 511
f 179 181 511
f 328 508 326
f 475 508 328
f 493 464 512
f 159 381 160
f 352 513 350
f 514 480 479
f 154 503 90
f 151 503 154
f 512 464 457
f 482 515 516
f 89 517 404
f 89 404 91
f 379 172 174
f 518 172 379
f 473 373 311
f 386 466 398
f 519 520 521
f 473 522 373
f 522 382 373
f 523 492 462
f 522 369 382
f 462 492 463
f 457 484 486
f 460 465 388
f 345 524 418
f 525 519 521
f 463 481 455
f 465 466 386
f 526 524 345
f 524 527 320
f 524 320 418
f 149 490 315
f 149 315 147
f 307 306 334
f 519 514 528
f 516 504 461
f 143 145 334
f 306 143 334
f 505 529 367
f 505 367 355
f 488 507 409
f 401 488 409
f 514 519 525
f 404 485 406
f 517 485 404
f 482 516 483
f 513 530 389
f 513 389 350
f 436 439 313
f 436 313 383
f 113 499 336
f 111 499 113
f 403 477 405
f 531 477 403
f 320 146 148
f 525 521 532
f 527 146 320
f 121 502 368
f 119 502 121
f 533 528 514
f 532 321 329
f 455 483 456
f 534 321 532
f 480 514 525
f 521 520 535
f 486 484 472
f 521 535 534
f 534 319 321
f 317 534 535
f 484 456 472
f 534 317 319
f 314 329 324
f 470 536 533
f 512 457 498
f 525 532 467
f 521 534 532
f 486 472 460
f 329 467 532
f 510 331 332
f 323 510 332
f 464 463 455
f 469 536 470
f 175 170 169
f 533 514 479
f 483 516 461
f 344 526 345
f 478 526 344
f 354 410 362
f 445 410 354
f 427 88 90
f 480 525 467
f 251 537 538
f 252 537 251
f 537 539 538
f 539 540 538
f 539 318 540
f 460 388 393
f 541 369 522
f 203 523 462
f 470 533 479
f 541 333 369
f 542 333 541
f 498 457 486
f 509 118 330
f 543 372 359
f 471 372 543
f 330 118 120
f 408 544 545
f 408 395 544
f 205 546 547
f 395 454 544
f 547 546 548
f 543 359 333
f 542 543 333
f 548 546 549
f 530 379 389
f 549 546 550
f 546 551 550
f 550 551 552
f 530 518 379
f 552 551 553
f 554 555 556
f 553 551 557
f 557 551 558
f 212 209 559
f 551 560 558
f 558 560 561
f 561 560 562
f 563 564 565
f 562 560 566
f 567 559 568
f 569 570 571
f 563 565 569
f 566 560 572
f 569 571 573
f 572 560 574
f 560 575 574
f 559 576 577
f 575 578 574
f 579 580 570
f 581 582 583
f 575 584 578
f 585 581 573
f 586 587 585
f 571 585 573
f 575 588 584
f 575 589 588
f 209 210 559
f 589 540 588
f 577 590 591
f 205 592 546
f 208 592 205
f 200 592 208
f 593 594 595
f 555 498 497
f 571 570 586
f 202 592 200
f 202 596 592
f 206 596 202
f 593 556 594
f 582 581 597
f 585 597 581
f 201 204 493
f 213 596 206
f 201 493 576
f 555 497 556
f 211 596 213
f 598 599 600
f 601 599 598
f 580 602 570
f 603 596 211
f 603 604 596
f 605 604 603
f 580 568 602
f 606 564 563
f 607 604 605
f 608 604 607
f 591 555 554
f 609 604 608
f 609 610 604
f 586 593 595
f 571 586 585
f 577 591 602
f 611 610 609
f 556 497 594
f 612 610 611
f 210 207 201
f 204 203 462
f 576 613 577
f 585 587 597
f 614 195 198
f 497 390 594
f 614 610 612
f 198 610 614
f 589 615 540
f 615 251 538
f 305 251 615
f 538 540 615
f 493 512 613
f 515 482 553
f 210 201 576
f 570 602 616
f 613 512 590
f 590 498 591
f 574 533 572
f 558 504 516
f 210 576 559
f 204 462 493
f 561 562 494
f 617 618 619
f 602 554 616
f 620 621 520
f 576 493 613
f 568 559 577
f 205 547 523
f 566 536 469
f 547 492 523
f 564 622 579
f 564 579 565
f 468 566 469
f 622 623 580
f 622 580 579
f 619 574 578
f 572 533 536
f 590 512 498
f 602 591 554
f 591 498 555
f 561 504 558
f 616 593 586
f 624 620 520
f 625 626 627
f 584 588 620
f 580 623 567
f 628 317 535
f 626 599 627
f 573 629 599
f 588 540 318
f 599 626 573
f 626 625 563
f 554 556 593
f 570 616 586
f 548 492 547
f 504 561 494
f 573 626 569
f 563 569 626
f 568 577 602
f 601 630 627
f 577 613 590
f 552 553 482
f 601 627 599
f 557 516 515
f 600 599 629
f 566 494 562
f 205 523 203
f 468 494 566
f 565 570 569
f 528 533 574
f 572 536 566
f 565 579 570
f 578 617 619
f 528 574 619
f 625 606 563
f 628 620 588
f 573 583 629
f 628 588 317
f 317 588 318
f 580 567 568
f 212 559 567
f 584 617 578
f 586 595 587
f 616 554 593
f 619 519 528
f 573 581 583
f 618 519 619
f 618 584 624
f 617 584 618
f 631 632 633
f 584 620 624
f 634 635 636
f 637 285 298
f 618 624 519
f 492 548 489
f 549 489 548
f 519 624 520
f 638 637 298
f 550 552 481
f 520 621 535
f 639 638 298
f 628 535 621
f 640 639 298
f 481 552 482
f 641 640 298
f 628 621 620
f 632 641 298
f 489 549 550
f 631 641 632
f 642 633 632
f 558 516 557
f 489 550 481
f 643 642 632
f 644 643 632
f 515 553 557
f 645 644 632
f 196 134 46
f 193 134 196
f 193 133 134
f 646 644 645
f 193 195 133
f 195 142 133
f 647 646 645
f 648 647 645
f 649 647 648
f 650 625 651
f 651 652 611
f 653 649 648
f 627 651 625
f 611 652 612
f 652 630 612
f 612 630 654
f 627 652 651
f 630 652 627
f 655 653 648
f 654 656 612
f 612 656 614
f 657 655 648
f 630 601 654
f 636 657 634
f 634 657 648
f 603 567 623
f 658 635 634
f 608 607 564
f 606 659 609
f 607 622 564
f 609 608 606
f 660 658 634
f 661 660 634
f 598 654 601
f 662 660 661
f 659 650 609
f 654 598 656
f 663 662 661
f 564 606 608
f 300 663 661
f 664 614 656
f 665 232 238
f 650 651 609
f 598 664 656
f 609 651 611
f 666 232 665
f 271 665 238
f 86 87 282
f 86 282 287
f 659 625 650
f 606 625 659
f 667 142 664
f 211 212 567
f 86 287 215
f 86 215 221
f 86 221 668
f 668 221 228
f 667 664 598
f 664 195 614
f 668 228 295
f 142 195 664
f 668 295 229
f 668 229 246
f 211 567 603
f 669 246 255
f 668 246 669
f 669 255 254
f 669 254 235
f 669 235 290
f 669 290 222
f 669 222 217
f 669 217 666
f 666 217 219
f 605 622 607
f 622 605 623
f 623 605 603
f 666 219 232
f 400 594 390
f 670 594 400
f 665 271 291
f 665 291 671
f 671 291 297
f 672 594 670
f 672 595 594
f 671 297 300
f 671 300 661
f 673 595 672
f 487 161 545
f 161 408 545
f 674 595 673
f 674 587 595
f 150 152 420
f 357 506 116
f 675 587 674
f 506 114 116
f 675 597 587
f 143 428 144
f 366 676 365
f 677 678 679
f 279 680 280
f 681 597 675
f 253 682 683
f 681 582 597
f 281 682 253
f 684 441 434
f 681 137 582
f 685 679 686
f 687 441 684
f 688 108 105
f 413 108 415
f 689 690 691
f 692 693 694
f 415 108 695
f 686 690 689
f 108 696 695
f 697 698 699
f 108 688 696
f 340 700 341
f 341 700 414
f 137 138 583
f 140 600 629
f 683 701 677
f 667 600 141
f 682 702 703
f 694 693 704
f 231 702 682
f 141 600 140
f 697 699 700
f 679 685 705
f 253 683 236
f 706 705 685
f 629 127 140
f 705 706 237
f 583 138 629
f 685 707 706
f 684 434 708
f 127 629 138
f 667 598 600
f 218 706 707
f 706 218 223
f 709 710 687
f 705 677 679
f 711 712 713
f 141 142 667
f 583 582 137
f 182 714 412
f 180 714 182
f 715 716 712
f 123 717 29
f 712 716 707
f 123 137 717
f 137 681 717
f 717 28 29
f 718 710 709
f 495 310 309
f 685 686 719
f 500 495 309
f 720 356 350
f 176 720 350
f 721 704 718
f 233 716 715
f 722 723 637
f 683 677 705
f 637 724 285
f 723 724 637
f 712 711 725
f 715 712 725
f 725 239 715
f 240 239 725
f 224 240 347
f 689 691 726
f 727 722 638
f 285 728 283
f 726 691 698
f 724 728 285
f 719 686 689
f 694 704 729
f 730 638 731
f 237 683 705
f 731 639 640
f 732 730 731
f 236 683 237
f 708 434 424
f 422 733 734
f 735 698 697
f 731 638 639
f 732 731 640
f 733 422 429
f 728 724 283
f 736 687 684
f 709 687 736
f 638 722 637
f 697 700 360
f 737 689 726
f 738 734 733
f 739 429 437
f 727 723 722
f 726 698 735
f 730 727 638
f 740 734 738
f 738 733 429
f 707 685 719
f 724 741 283
f 742 704 721
f 729 704 742
f 743 744 745
f 360 700 340
f 280 692 216
f 746 709 736
f 214 692 694
f 747 748 749
f 735 697 371
f 734 740 84
f 750 736 684
f 351 751 748
f 721 718 709
f 752 738 429
f 753 754 755
f 719 689 737
f 756 437 443
f 351 375 757
f 371 697 360
f 754 758 755
f 759 84 740
f 757 751 351
f 216 692 214
f 760 761 762
f 742 721 763
f 764 301 378
f 756 739 437
f 684 708 765
f 378 743 764
f 737 726 735
f 752 429 739
f 761 760 766
f 743 745 764
f 378 370 743
f 767 745 768
f 721 709 769
f 342 770 358
f 771 735 371
f 708 424 772
f 740 738 752
f 223 237 706
f 214 694 220
f 712 719 737
f 421 773 774
f 768 745 744
f 775 776 777
f 421 416 773
f 370 339 743
f 746 736 750
f 737 735 771
f 339 747 743
f 750 684 765
f 712 737 713
f 220 694 729
f 416 778 773
f 777 779 775
f 707 719 712
f 771 371 377
f 68 759 780
f 743 747 744
f 763 721 769
f 759 740 781
f 781 740 752
f 744 782 761
f 744 747 782
f 218 707 716
f 756 443 783
f 784 785 786
f 713 737 771
f 769 709 703
f 703 709 746
f 220 729 296
f 770 375 358
f 757 775 751
f 765 708 787
f 713 771 384
f 788 752 739
f 296 729 742
f 746 750 765
f 749 782 747
f 786 785 789
f 775 784 751
f 744 761 790
f 249 218 716
f 375 776 757
f 786 789 791
f 702 763 769
f 384 771 377
f 711 713 384
f 781 780 759
f 776 775 757
f 788 739 756
f 790 761 792
f 770 776 375
f 781 752 793
f 249 716 233
f 748 751 749
f 419 772 424
f 794 746 765
f 762 782 749
f 783 443 795
f 796 789 785
f 711 384 337
f 784 775 779
f 797 756 783
f 793 752 788
f 787 708 772
f 296 742 763
f 798 772 419
f 776 770 777
f 779 785 784
f 702 769 703
f 799 788 756
f 800 792 766
f 68 780 66
f 762 761 782
f 770 353 452
f 800 801 802
f 770 452 777
f 234 233 715
f 725 711 347
f 803 804 785
f 766 792 761
f 784 762 749
f 777 785 779
f 789 805 791
f 806 446 807
f 791 805 808
f 234 715 239
f 798 419 414
f 777 803 785
f 446 442 807
f 347 711 337
f 442 440 809
f 810 765 787
f 766 811 801
f 240 725 347
f 680 781 793
f 812 431 813
f 440 431 812
f 791 766 760
f 794 765 810
f 762 786 760
f 425 813 431
f 796 805 789
f 296 763 230
f 814 758 754
f 452 803 777
f 791 811 766
f 678 746 794
f 425 815 813
f 804 796 785
f 801 811 816
f 808 805 817
f 66 780 177
f 795 443 447
f 342 353 770
f 703 746 678
f 808 811 791
f 230 763 702
f 799 756 797
f 814 818 758
f 277 780 781
f 177 780 277
f 815 425 814
f 798 414 699
f 814 774 818
f 764 745 767
f 787 772 691
f 791 760 786
f 811 819 816
f 805 820 817
f 793 788 693
f 693 788 799
f 795 447 687
f 682 703 701
f 797 783 795
f 691 772 798
f 277 781 275
f 701 703 678
f 821 822 816
f 690 787 691
f 810 787 690
f 425 774 814
f 421 774 425
f 823 820 796
f 796 820 805
f 817 820 824
f 704 799 797
f 774 773 825
f 699 414 700
f 826 827 821
f 821 827 822
f 692 793 693
f 679 794 810
f 768 744 828
f 817 819 808
f 808 819 811
f 680 793 692
f 450 803 452
f 276 781 680
f 275 781 276
f 230 702 231
f 762 784 786
f 819 821 816
f 683 682 701
f 351 748 339
f 829 449 830
f 830 449 448
f 687 447 441
f 276 680 279
f 828 744 831
f 678 794 679
f 830 796 804
f 806 448 446
f 442 809 807
f 701 678 677
f 803 450 804
f 339 748 747
f 679 810 686
f 718 797 710
f 774 825 818
f 710 797 795
f 817 821 819
f 824 821 817
f 686 810 690
f 744 790 831
f 806 830 448
f 821 832 826
f 691 798 698
f 823 796 830
f 824 832 821
f 833 832 824
f 824 820 833
f 704 797 718
f 804 829 830
f 790 792 834
f 832 835 826
f 792 800 834
f 836 820 823
f 281 231 682
f 450 829 804
f 693 799 704
f 835 832 833
f 698 798 699
f 280 680 692
f 710 795 687
f 327 837 311
f 311 837 312
f 751 784 749
f 449 829 450
f 838 312 839
f 840 835 841
f 837 315 324
f 308 315 837
f 837 324 322
f 839 322 319
f 836 833 820
f 842 319 318
f 802 801 843
f 839 837 322
f 842 839 319
f 842 318 539
f 766 801 800
f 835 844 841
f 845 839 842
f 801 816 843
f 833 846 847
f 838 839 848
f 830 806 823
f 847 844 835
f 849 844 847
f 848 839 845
f 843 816 822
f 837 839 312
f 836 846 833
f 845 537 252
f 823 806 836
f 539 845 842
f 849 850 844
f 851 850 849
f 537 845 539
f 308 837 327
f 476 531 402
f 849 846 836
f 846 849 847
f 402 531 403
f 851 852 850
f 720 676 356
f 806 807 836
f 852 853 854
f 356 676 366
f 855 852 851
f 529 165 167
f 529 167 367
f 96 92 856
f 857 858 859
f 826 840 860
f 855 853 852
f 294 861 289
f 857 859 862
f 853 863 854
f 864 865 274
f 836 809 849
f 809 836 807
f 866 867 857
f 855 863 853
f 274 242 241
f 778 867 866
f 826 835 840
f 868 869 870
f 862 859 861
f 753 863 855
f 871 869 872
f 862 861 873
f 416 415 778
f 866 857 862
f 809 874 849
f 841 844 875
f 851 876 855
f 849 876 851
f 872 869 868
f 859 877 289
f 872 105 871
f 878 874 809
f 879 872 868
f 879 868 880
f 874 876 849
f 863 881 882
f 268 883 272
f 875 850 884
f 844 850 875
f 272 883 864
f 866 862 885
f 753 881 863
f 886 880 887
f 888 876 874
f 884 850 889
f 890 838 891
f 891 838 848
f 850 852 889
f 886 887 883
f 755 881 753
f 876 888 855
f 889 852 892
f 886 883 877
f 833 847 835
f 242 865 845
f 852 854 892
f 855 893 753
f 894 862 873
f 272 864 274
f 886 877 859
f 289 877 269
f 809 440 878
f 868 870 880
f 895 96 856
f 878 812 874
f 888 893 855
f 813 893 888
f 861 294 873
f 873 294 293
f 873 292 894
f 896 755 758
f 894 292 897
f 883 898 864
f 897 260 286
f 897 286 896
f 755 896 741
f 874 812 888
f 896 286 741
f 856 890 895
f 732 882 730
f 854 863 732
f 885 862 894
f 741 286 283
f 252 247 845
f 730 882 727
f 688 105 872
f 292 873 293
f 887 870 898
f 895 890 891
f 878 440 812
f 812 813 888
f 863 882 732
f 242 845 247
f 815 893 813
f 893 754 753
f 882 881 727
f 773 778 866
f 825 866 885
f 758 818 896
f 818 825 896
f 727 881 723
f 891 848 865
f 887 898 883
f 94 104 312
f 814 754 815
f 815 754 893
f 773 866 825
f 880 870 887
f 723 755 724
f 825 885 894
f 897 292 260
f 825 894 897
f 869 96 895
f 688 872 879
f 881 755 723
f 871 98 96
f 896 825 897
f 755 741 724
f 826 644 827
f 877 883 268
f 631 633 875
f 644 860 643
f 871 96 869
f 696 688 879
f 877 268 269
f 886 879 880
f 696 879 886
f 869 895 870
f 695 696 899
f 860 644 826
f 92 94 890
f 646 647 822
f 244 242 247
f 831 834 900
f 790 834 831
f 647 901 822
f 899 696 886
f 898 895 891
f 899 886 858
f 858 886 859
f 890 94 312
f 649 902 647
f 867 695 899
f 902 901 647
f 890 312 838
f 856 92 890
f 415 695 867
f 867 899 857
f 857 899 858
f 884 641 631
f 870 895 898
f 861 859 289
f 898 891 864
f 864 891 865
f 105 98 871
f 764 663 301
f 764 662 663
f 767 662 764
f 633 642 841
f 767 660 662
f 768 660 767
f 660 768 658
f 641 884 889
f 828 658 768
f 828 635 658
f 831 636 828
f 828 636 635
f 831 657 636
f 900 657 831
f 657 900 655
f 892 641 889
f 834 655 900
f 655 834 653
f 732 640 854
f 800 653 834
f 865 848 845
f 778 415 867
f 301 663 300
f 653 800 649
f 800 802 649
f 274 865 242
f 84 38 734
f 802 902 649
f 642 643 840
f 901 843 822
f 68 84 759
f 827 644 822
f 38 12 422
f 734 38 422
f 641 892 640
f 714 435 412
f 412 435 409
f 854 640 892
f 884 631 875
f 644 646 822
f 902 843 901
f 841 642 840
f 902 802 843
f 841 875 633
f 643 860 840
