v 0.01794967 -0.002329588 0.05023517
v 0.01941937 -0.02012019 0.03788504
v 0.02326363 0.005273834 0.04581138
v 0.01776829 -0.01142552 -0.05120778
v -0.005984873 0.03051744 0.01582238
v 0.009362698 -0.01730056 -0.05162531
v 0.009744853 -0.0177557 -0.05191588
v 0.02216771 0.006070778 0.04663935
v -0.0230087 -0.01947524 0.03827509
v 0.002666742 -0.02489336 -0.04993522
v -0.01588416 -0.02872182 0.02496456
v -0.006952018 -0.01240914 -0.0319654
v 0.01229441 -0.01087336 0.0511952
v 0.01137868 -0.009779766 0.05189328
v 0.003889263 -0.01674838 0.05077758
v 0.001721859 -0.02957805 0.03498217
v 0.01101366 -0.02599512 0.03746662
v -0.005402863 -0.02033083 0.04829365
v 0.01129335 -0.01933075 -0.05019796
v -0.01421636 0.03008841 0.008549601
v 0.02135402 0.006437287 0.04681289
v 0.004794389 -0.02624522 -0.04962915
v -0.007546246 -0.03051744 0.0306747
v -0.01467067 -0.02127014 0.04398528
v 0.00521937 -0.02621759 -0.04866529
v 0.004062533 -0.02594937 -0.0502485
v 0.01052237 -0.01862541 -0.05187887
v -0.01508188 -0.019982 0.04481904
v -0.02316815 -0.01736714 0.03952748
v -0.02326366 -0.01822089 0.03921551
v 0.0107742 -0.00909619 0.05194935
v 0.002692282 -0.01474537 0.05154857
v 0.01104945 -0.0191526 -0.05120727
v -0.02262172 0.02421287 0.008131683
v -0.01463604 0.03041455 0.01004536
v 0.02100703 0.006557629 0.04681781
v 0.02066448 0.006611168 0.04669367
v 0.01690552 -0.001598164 0.05029111
v 0.01721269 -0.001797393 0.05032477
v 0.01661059 -0.001452371 0.05012622
v -0.006346136 -0.01749767 0.04898533
v -0.02255183 0.02442308 0.01118936
v -0.02291471 -0.01669262 0.03955738
v -0.01464096 0.02995211 0.01158176
v -0.02308372 -0.01701708 0.03959963
v -0.022715 0.02457866 0.01089847
v -0.006320447 -0.01783244 0.04913732
v 0.002526522 -0.01442091 0.05150273
v -0.006241292 -0.0181895 0.04915959
v -0.01514497 -0.01872681 0.04503548
v 0.003100306 -0.02528952 -0.05023912
v -0.005987406 -0.01906036 0.04904538
v 0.003130555 -0.01554491 0.05148312
v -0.01471496 0.03028536 0.01094683
v -0.02279621 0.02463785 0.01054572
v -0.02288407 0.02464959 0.009636253
v 0.01030833 -0.008596882 0.05171634
v -0.01506874 -0.0183825 0.04493093
v -0.01515207 -0.01909342 0.04501727
v 0.003538847 -0.02560593 -0.05029264
v -0.0147123 0.03017239 0.01129603
v 0.00239864 -0.01412617 0.05132298
v 0.01052991 -0.008826867 0.0519006
v 0.01010388 -0.01816224 -0.05194932
f 1 2 3
f 4 5 3
f 2 4 3
f 6 4 7
f 5 8 3
f 8 1 3
f 9 10 11
f 10 9 12
f 6 10 12
f 13 1 14
f 13 2 1
f 15 16 17
f 16 15 18
f 2 15 17
f 13 15 2
f 15 13 14
f 19 4 2
f 20 4 6
f 4 20 5
f 21 8 5
f 8 21 1
f 22 23 11
f 16 23 22
f 23 9 11
f 23 24 9
f 23 16 18
f 24 23 18
f 16 25 17
f 25 16 22
f 25 2 17
f 19 25 22
f 25 19 2
f 26 22 11
f 26 27 22
f 28 24 18
f 28 29 30
f 24 28 9
f 28 30 9
f 1 31 14
f 31 32 14
f 33 27 4
f 19 33 4
f 27 33 22
f 33 19 22
f 34 20 6
f 34 6 12
f 9 34 12
f 20 35 5
f 36 5 37
f 36 21 5
f 38 36 37
f 21 39 1
f 39 31 1
f 39 36 38
f 36 39 21
f 5 40 37
f 40 38 37
f 41 42 43
f 44 42 5
f 42 40 5
f 45 42 46
f 43 42 45
f 41 47 48
f 47 32 48
f 32 47 49
f 50 47 41
f 47 50 49
f 10 51 11
f 51 6 7
f 51 10 6
f 52 32 49
f 52 28 18
f 28 52 49
f 53 15 14
f 32 53 14
f 52 53 32
f 15 53 18
f 53 52 18
f 35 54 5
f 55 54 35
f 29 55 30
f 55 45 46
f 55 29 45
f 34 56 20
f 56 35 20
f 56 55 35
f 55 56 30
f 30 56 9
f 56 34 9
f 57 42 41
f 42 57 40
f 58 41 43
f 58 50 41
f 58 43 45
f 50 58 45
f 59 28 49
f 50 59 49
f 28 59 29
f 29 59 45
f 59 50 45
f 60 26 11
f 51 60 11
f 26 60 27
f 42 61 46
f 61 42 44
f 61 55 46
f 55 61 54
f 61 44 5
f 54 61 5
f 62 41 48
f 57 62 48
f 62 57 41
f 63 57 48
f 32 63 48
f 63 32 31
f 63 39 38
f 39 63 31
f 40 63 38
f 57 63 40
f 60 64 27
f 4 64 7
f 27 64 4
f 64 51 7
f 64 60 51
