v -0.001014948 0.008262813 -0.02080998
v 0.003185689 -0.008980453 -0.02199289
v -0.001800984 0.007784188 -0.02017215
v 0.003034472 0.009020507 0.02013457
v -0.003372431 0.007428467 0.02159679
v 0.003372461 0.007188976 0.02199289
v -0.0002368689 -0.009020507 0.02155504
v 0.001563489 -0.008570135 0.02166751
v 0.003045946 -0.00822401 -0.003358752
v 0.002235562 -0.008440912 -0.02015808
v -0.003372252 0.005036891 0.02008709
f 1 2 3
f 2 1 4
f 5 1 3
f 1 5 4
f 6 2 4
f 5 6 4
f 7 2 8
f 6 7 8
f 7 6 5
f 2 9 8
f 9 6 8
f 6 9 2
f 2 10 3
f 10 7 3
f 7 10 2
f 11 5 3
f 7 11 3
f 11 7 5
