v 0.00227648 0.006936431 0.01004744
v 0.002491921 0.007665426 -0.0100475
v -0.002491951 0.007513225 -0.009944141
v 0.0004538 0.006909817 0.009133637
v 0.001579612 -0.007665455 0.01004434
v 0.001579553 -0.007661372 -0.009105444
v 0.002491862 -0.007647842 -0.009106934
v 0.002491832 -0.007652909 0.01004434
v -0.002269268 0.005958766 -0.006365299
v -0.002254635 0.005049735 -0.009102583
f 1 2 3
f 4 1 3
f 4 5 1
f 2 6 3
f 6 2 7
f 5 8 1
f 8 2 1
f 2 8 7
f 6 8 5
f 8 6 7
f 9 4 3
f 4 9 5
f 10 6 5
f 9 10 5
f 6 10 3
f 10 9 3
