v 0.00286682 0.02578157 0.03647265
v -0.002871111 0.03099245 -0.01697239
v -0.002519146 0.02474642 0.03892457
v 0.002870902 0.02896184 -0.03640276
v 0.002871111 -0.02710795 -0.03686896
v -0.002791628 0.03110868 -0.03892145
v 0.002870843 0.02395767 0.03639203
v -0.002305523 -0.01845509 0.00838232
v -0.002442703 -0.02926373 -0.01695079
v -0.0022908 -0.02637559 -0.007303894
v -0.002444342 0.004658103 0.03069922
v -0.002440408 -0.03110868 -0.03892457
v -0.0005885512 -0.02998018 -0.03735605
v 0.001196131 -0.03070128 -0.02895719
v 0.002776071 -0.02541453 -0.0171538
v 0.002712145 -0.016141 0.004906148
v 0.002669349 -0.002822459 0.02027273
v -0.002487078 0.01677251 0.03664029
v 0.002103254 -0.02915192 -0.02250129
v 0.00104107 -0.007671714 0.01845053
v -0.0005899221 -0.01244396 0.01492441
v 0.002091631 -0.02526468 -0.006817371
v 0.002633408 -0.007457674 0.01564392
v -0.002331868 -0.006285429 0.02248105
v 0.001031414 0.001135707 0.02581593
v 0.001183912 -0.02697295 -0.00963217
f 1 2 3
f 4 5 6
f 2 4 6
f 4 2 1
f 4 7 5
f 7 4 1
f 7 1 3
f 8 9 10
f 9 11 2
f 8 11 9
f 12 2 6
f 12 9 2
f 5 12 6
f 13 12 5
f 14 13 5
f 14 12 13
f 12 14 9
f 7 15 5
f 15 7 16
f 7 17 16
f 2 18 3
f 11 18 2
f 18 7 3
f 18 11 7
f 19 14 5
f 15 19 5
f 20 21 16
f 22 15 16
f 22 19 15
f 21 22 16
f 8 22 21
f 17 23 16
f 23 20 16
f 20 23 17
f 20 24 21
f 24 8 21
f 24 11 8
f 25 20 17
f 11 25 7
f 25 17 7
f 24 25 11
f 25 24 20
f 22 26 19
f 14 26 9
f 19 26 14
f 9 26 10
f 26 8 10
f 26 22 8
