v 0.01060421 -0.02844402 -0.1110383
v 0.01130088 -0.003879368 0.1208016
v -0.008378074 -0.02817138 0.1149765
v 0.00427074 0.01147893 -0.1175871
v 0.000304766 0.02844402 -0.08897942
v -0.0006895065 0.004397109 0.08496344
v -0.009569153 0.02010062 -0.07201529
v -0.01130088 -0.01412077 0.09630454
v 0.001272976 0.01937295 -0.1116199
v -0.002554819 -0.004960999 -0.1165413
v 0.003974766 0.003424644 0.1030866
v 0.004847482 -0.00237605 -0.1208016
v 0.0001244247 -0.02600312 -0.1030174
v -0.01086448 -0.01612267 0.09203339
v -0.009208068 -0.01862267 0.04212642
v -0.0006165504 0.02650535 -0.09760964
v -0.006880306 0.01776606 -0.1037664
v -0.005702928 -0.01816413 -0.08850718
v -0.0100289 0.002239913 -0.06982112
v -0.007923752 -0.006571382 -0.08508772
v -0.008561924 0.001364455 -0.09469765
f 1 2 3
f 2 1 4
f 5 2 4
f 6 5 7
f 8 6 7
f 9 5 4
f 10 9 4
f 5 11 2
f 11 5 6
f 8 11 6
f 2 11 3
f 11 8 3
f 1 12 4
f 12 10 4
f 10 12 1
f 13 10 1
f 13 1 3
f 14 15 3
f 8 14 3
f 5 16 7
f 9 16 5
f 17 9 10
f 16 17 7
f 17 16 9
f 13 18 10
f 15 18 3
f 18 13 3
f 19 8 7
f 14 19 15
f 19 14 8
f 19 18 15
f 18 19 20
f 21 17 10
f 18 21 10
f 21 18 20
f 19 21 20
f 17 21 7
f 21 19 7
