v 0.004923671 -0.01571918 -0.01812667
v 0.004387558 -0.01568034 0.01812667
v -0.004888982 -0.0152939 0.01104355
v 0.00494048 -0.01460221 0.01695317
v 0.004943311 0.01564834 -0.01542032
v -0.0005241036 0.01571918 -0.01529616
v -0.004814506 0.01253995 -0.001624703
v -0.004937738 -0.01427844 0.008344352
v 0.0007326007 -0.0118829 0.01560867
v 0.001722664 0.002877027 0.0106526
v 0.004480034 0.01492596 0.004639685
v 0.001711845 0.01407865 0.003756821
v -3.737211e-05 -0.01494217 -0.01712769
v -0.004943311 0.01368344 -0.007965088
v -0.003884315 -0.007069618 0.01041228
v -0.00293532 0.01056153 0.001911521
v 0.004832149 0.01333857 0.004283249
v 0.004483223 -0.002784461 0.01494175
v -0.004837275 0.01537806 -0.00425154
f 1 2 3
f 4 1 5
f 4 2 1
f 1 6 5
f 7 8 3
f 2 9 3
f 10 11 12
f 13 6 1
f 6 13 14
f 13 8 14
f 13 1 3
f 8 13 3
f 15 7 3
f 9 15 3
f 16 10 12
f 7 16 12
f 16 15 10
f 15 16 7
f 17 4 5
f 11 17 5
f 18 11 10
f 18 9 2
f 4 18 2
f 15 18 10
f 18 15 9
f 17 18 4
f 18 17 11
f 19 6 14
f 11 19 12
f 6 19 5
f 19 11 5
f 19 7 12
f 8 19 14
f 7 19 8
