v -0.00691998 -0.006939668 0.004040822
v 0.0003926158 -0.005662777 -0.01534669
v 0.006842852 -0.006938234 0.004411772
v -0.006285727 -5.38379e-05 0.01577373
v 0.004680693 0.003573835 0.01486988
v -0.005962133 0.005229957 0.01313271
v 0.006720662 0.006856516 0.01076178
v 0.006643832 0.0001253858 0.01501529
v 0.008166134 0.006128021 0.009065047
v 0.005542159 -0.001566522 -0.01527314
v 0.004303515 0.003363132 -0.01542796
v 0.006219268 -0.007145982 0.009247646
v 0.00474894 -0.001079313 0.01579888
v 0.005734086 -0.005248427 0.01363809
v -0.006001472 -0.005080104 0.01334144
v 0.003618121 -0.004832819 -0.0152678
v 0.008069634 -0.006317895 0.00921075
v 0.006896555 0.006627068 0.004138425
v -0.008166134 0.007145986 0.008852765
v -0.007428706 0.00686539 0.004673198
v -0.008158267 -0.007107012 0.009223863
v -0.003028214 -0.004627358 -0.01548944
v 0.007965386 -0.0002093092 0.002829894
v -0.0005794764 0.004613452 -0.01558949
v -0.003856778 0.002729319 -0.01565357
v 0.001962125 0.003048927 -0.01568113
v -0.007320106 0.001599096 0.01431547
v -0.008038938 -0.000842236 0.002763018
v -0.002754152 0.002659947 -0.01576661
v 0.003998101 -0.002076626 -0.01551409
v -0.004743814 -0.001224503 -0.01561044
v -0.00317353 -0.00205471 -0.0157982
v -0.003162324 0.00100974 -0.01579888
v 0.004009128 0.0009859055 -0.01557539
v 0.0004000664 -0.004939489 -0.01551332
v 0.001933575 -0.004125167 -0.0155365
f 1 2 3
f 4 5 6
f 7 5 8
f 5 7 6
f 9 7 8
f 9 10 11
f 12 1 3
f 13 14 8
f 5 13 8
f 13 5 4
f 13 4 15
f 14 13 15
f 2 16 3
f 16 10 3
f 17 9 8
f 17 12 3
f 10 17 3
f 14 17 8
f 12 17 14
f 18 9 11
f 9 18 7
f 7 19 6
f 18 19 7
f 19 18 20
f 12 21 1
f 21 14 15
f 21 12 14
f 4 21 15
f 22 2 1
f 9 23 10
f 23 17 10
f 17 23 9
f 24 18 11
f 18 24 20
f 20 24 25
f 26 24 11
f 27 4 6
f 19 27 6
f 27 21 4
f 21 27 19
f 28 21 19
f 24 29 25
f 29 24 26
f 16 30 10
f 21 31 1
f 31 22 1
f 28 31 21
f 22 31 32
f 31 20 25
f 31 19 20
f 31 28 19
f 33 26 32
f 33 29 26
f 29 33 25
f 33 31 25
f 31 33 32
f 26 34 32
f 34 30 32
f 34 26 11
f 10 34 11
f 30 34 10
f 22 35 2
f 35 22 32
f 35 16 2
f 36 30 16
f 35 36 16
f 30 36 32
f 36 35 32
