v -0.003261626 -0.0135693 -0.01549077
v 0.002465546 -0.01342271 -0.01728302
v 0.003636241 -0.01449588 -0.01496828
v 0.002873719 0.01336958 -0.02790487
v 0.0001929998 -0.005416706 -0.02190596
v 0.003529012 -0.01365247 0.02675641
v 0.0001581311 0.01457173 0.0104894
v 0.002669692 -0.01393433 0.02790481
v -0.002101541 -0.01144369 0.00865376
v -0.002792776 -0.00208953 0.002871037
v -0.003140569 0.01417202 -0.02582228
v 0.003406048 -0.01456165 0.02675372
v -0.0003351569 0.009585544 -0.02653354
v -0.003758311 -0.00609456 -0.01980239
v 0.003756523 0.01324527 -0.02530694
v 0.002794921 0.0133218 -0.002695262
v -0.003606081 -0.01166804 -0.01721811
v -0.00370425 0.01144782 -0.01511061
v 0.002544582 -0.01457173 0.02730232
v 0.001171052 0.01351102 0.009480298
v 0.003725827 -0.01365359 0.01603186
v -0.00345552 0.009588182 -0.02496797
v -0.002818525 0.01191771 -0.002119124
v 0.003758371 -0.01358585 -0.0149672
f 1 2 3
f 2 4 3
f 4 2 5
f 6 7 8
f 7 9 8
f 9 7 10
f 7 4 11
f 12 6 8
f 4 13 11
f 13 4 5
f 14 13 5
f 6 15 16
f 15 7 16
f 7 15 4
f 17 2 1
f 2 17 5
f 17 14 5
f 9 17 1
f 17 9 10
f 18 17 10
f 17 18 14
f 19 9 1
f 9 19 8
f 19 12 8
f 19 1 3
f 12 19 3
f 20 6 16
f 7 20 16
f 20 7 6
f 21 15 6
f 21 12 3
f 12 21 6
f 22 18 11
f 18 22 14
f 13 22 11
f 22 13 14
f 7 23 10
f 23 18 10
f 23 7 11
f 18 23 11
f 24 21 3
f 21 24 15
f 4 24 3
f 15 24 4
