v 0.0004689246 -0.003188193 -0.004581869
v 0.0002420098 0.003815293 -0.004584074
v 0.0004680306 0.003748953 0.004113793
v -0.0004619509 0.004361272 0.0007725358
v -0.0004193038 -0.0002647042 0.004583985
v -7.815659e-05 -0.004361451 0.002237797
v -0.0004102737 0.001921952 0.004554391
v 5.00232e-05 0.003208458 -0.003408611
v -0.0001073033 -0.003553867 -0.0001363456
v -0.000469014 0.002296746 0.003178418
v 0.0001134723 -0.002591074 -0.003065944
v -0.0003829747 -0.002147019 0.002397776
v 0.0001703352 0.000128746 -0.00428623
f 1 2 3
f 2 4 3
f 5 6 3
f 6 1 3
f 7 5 3
f 4 7 3
f 8 4 2
f 6 9 1
f 7 10 5
f 10 7 4
f 9 11 1
f 10 12 5
f 12 10 4
f 12 6 5
f 12 9 6
f 11 12 4
f 12 11 9
f 1 13 2
f 11 13 1
f 13 8 2
f 8 13 4
f 13 11 4
