v -0.00691998 -0.006939739 0.004040778
v 0.0003926158 -0.005662821 -0.01534671
v 0.006842852 -0.006938215 0.004411846
v -0.006285787 -5.379319e-05 0.01577377
v 0.004680634 0.003573813 0.01486987
v -0.005962193 0.00523001 0.01313275
v 0.006720603 0.006856531 0.0107618
v 0.006643772 0.0001253411 0.0150153
v 0.008166075 0.006127976 0.009065032
v 0.005542219 -0.001566477 -0.01527312
v 0.004303455 0.003363147 -0.01542792
v 0.006219208 -0.007145993 0.009247661
v 0.004748881 -0.001079291 0.0157989
v 0.005734086 -0.005248412 0.01363808
v -0.006001592 -0.005080085 0.01334152
v 0.003618121 -0.004832745 -0.01526779
v 0.008069575 -0.006317846 0.009210736
v 0.006896615 0.006627053 0.00413844
v -0.008166075 0.007146001 0.00885281
v -0.007428765 0.006865352 0.004673272
v -0.008158386 -0.007106967 0.009223878
v -0.003028154 -0.004627399 -0.01548949
v 0.007965326 -0.0002092943 0.002829939
v -0.0005794168 0.00461337 -0.01558954
v -0.003856778 0.002729297 -0.01565352
v 0.001962125 0.003048852 -0.01568115
v -0.007320046 0.001599081 0.01431549
v -0.008038819 -0.0008422807 0.002763033
v -0.002754211 0.002659924 -0.01576656
v 0.003998101 -0.002076667 -0.01551408
v -0.004743874 -0.001224548 -0.01561043
v -0.00317353 -0.002054755 -0.01579818
v -0.003162324 0.001009792 -0.0157989
v 0.004009128 0.0009858906 -0.01557538
v 0.0004000068 -0.004939441 -0.01551333
v 0.001933694 -0.004125182 -0.01553655
f 1 2 3
f 4 5 6
f 7 5 8
f 5 7 6
f 9 7 8
f 9 10 11
f 12 1 3
f 13 14 8
f 5 13 8
f 13 5 4
f 13 4 15
f 14 13 15
f 2 16 3
f 16 10 3
f 17 9 8
f 17 12 3
f 10 17 3
f 14 17 8
f 12 17 14
f 18 9 11
f 9 18 7
f 7 19 6
f 18 19 7
f 19 18 20
f 12 21 1
f 21 14 15
f 21 12 14
f 4 21 15
f 22 2 1
f 9 23 10
f 23 17 10
f 17 23 9
f 24 18 11
f 18 24 20
f 20 24 25
f 26 24 11
f 27 4 6
f 19 27 6
f 27 21 4
f 21 27 19
f 28 21 19
f 24 29 25
f 29 24 26
f 16 30 10
f 21 31 1
f 31 22 1
f 28 31 21
f 22 31 32
f 31 20 25
f 31 19 20
f 31 28 19
f 33 26 32
f 33 29 26
f 29 33 25
f 33 31 25
f 31 33 32
f 26 34 32
f 34 30 32
f 34 26 11
f 10 34 11
f 30 34 10
f 22 35 2
f 35 22 32
f 35 16 2
f 36 30 16
f 35 36 16
f 30 36 32
f 36 35 32
