v 0.7700006 0.5200003 -0.0149999
v 0.8000007 0.5500003 -0.01499978
v 0.7700006 -0.5200004 -0.0149999
v -0.7700007 0.5200003 -0.01500002
v -0.8000007 0.5500003 -0.01500002
v -0.8000007 -0.5500004 -0.01500002
v -0.7700007 -0.5200004 -0.01500002
v 0.8000007 -0.5500004 -0.01499978
v 0.7300007 0.4900003 -0.0149999
v -0.7300006 0.4800003 -0.01500013
v -0.7300006 0.4900003 -0.01500013
v -0.7300006 -0.4800003 -0.01500013
v -0.7300006 -0.4900002 -0.01500013
v 0.7300007 -0.4900002 -0.0149999
v 0.7400005 0.4800003 -0.01500002
v 0.7300007 -0.4800003 -0.0149999
v 0.7300007 0.4800003 -0.0149999
v 0.7400005 -0.4800003 -0.01500002
v -0.7400007 -0.4800003 -0.01500002
v -0.7400007 0.4800003 -0.01500002
v 0.8000007 -0.5500004 0.01500013
v 0.8000007 0.5500003 0.01500013
v -0.8000008 0.5500003 0.01499984
v -0.8000008 -0.5500004 0.01499984
f 1 2 3
f 4 2 1
f 4 5 2
f 5 4 6
f 7 6 4
f 6 7 8
f 8 7 3
f 9 10 11
f 10 9 12
f 12 9 13
f 13 9 14
f 15 16 17
f 16 15 18
f 19 10 12
f 10 19 20
f 8 3 2
f 2 21 8
f 21 2 22
f 2 23 22
f 23 2 5
f 6 23 5
f 23 6 24
f 6 21 24
f 21 6 8
f 21 23 24
f 23 21 22
