v 0.003265396 -0.0004701614 -0.01516348
v 0.002639696 -0.004678488 0.005966783
v 0.00300552 -0.002125561 -0.01589715
v 0.0006773025 -0.005217135 -0.01038957
v -0.002943322 -0.004594266 -0.01735955
v -0.002423927 -0.007335484 -0.00451231
v 0.002900347 -0.003084362 0.01367545
v 0.003290221 -0.0005967617 0.01477802
v -0.003177091 -0.006375074 0.01184875
v -0.0002103597 0.006641805 0.01567578
v -0.001640603 0.005999088 -0.01461375
v -0.001265272 0.007335424 0.0170157
v -0.003290221 -0.007042468 0.006549537
v -0.001227751 0.006054282 0.01735955
v -0.0004774183 0.005210578 -0.01295108
v -0.0003228635 0.005912542 0.01735812
f 1 2 3
f 3 4 5
f 4 6 5
f 2 4 3
f 4 2 6
f 7 1 8
f 7 2 1
f 7 9 2
f 1 10 8
f 11 9 12
f 11 3 5
f 11 1 3
f 10 11 12
f 6 13 5
f 13 11 5
f 11 13 9
f 2 13 6
f 9 13 2
f 9 14 12
f 14 9 7
f 15 10 1
f 11 15 1
f 15 11 10
f 16 7 8
f 16 14 7
f 14 16 12
f 10 16 8
f 16 10 12
