v 0.001013458 -0.01342197 -0.02631733
v 0.001013875 -0.02632223 -0.0134124
v 0.0009831786 -0.02089374 -0.02088645
v 0.00101319 0.0205202 0.02051263
v -0.000177145 -0.02585571 -0.01316629
v 0.0008966029 0.004541382 0.02865919
v 0.0007620454 -0.004537687 0.02866162
v 0.0002494454 -0.004339978 0.02746846
v 0.0005914271 -0.01317234 0.02585909
v 0.0004028678 -0.02051707 0.02052428
v -9.381771e-05 -0.01965074 0.01967192
v 4.518032e-05 0.004537418 -0.02866162
v -8.9854e-05 -0.004541531 -0.02865935
v -0.0004372001 0.004354283 -0.02745339
v -0.0007016063 -0.01847567 0.009441197
v -0.0002745986 -0.02476431 0.01263669
v -0.0002354383 0.003284559 0.02021047
v -0.0001835227 0.009273484 0.01818106
v -0.0009992719 -0.009244159 -0.01815175
v -0.0001766682 -0.01317559 -0.02585106
v 0.0005920529 0.02585362 -0.013181
v 0.0004035532 0.02051698 -0.02052437
v 0.000761807 0.02866043 -0.00454706
v 0.0008965135 0.02866076 0.004531384
v -0.0001549125 0.01443382 0.01452571
v -0.0004322231 0.01850446 -0.009412095
v 8.678436e-05 0.02477886 -0.01262146
v -9.384751e-05 0.01966535 -0.01965739
v 0.000982821 0.01317541 0.02585153
v 8.711219e-05 -0.01261269 0.02478349
v -9.036064e-05 -0.0286607 -0.004530758
v 4.476309e-05 -0.02866076 0.004547298
v -0.0005666316 -0.02745302 -0.004333138
v 0.0002146959 -0.02585383 0.01318163
v 0.0002150536 0.0131716 -0.02585899
v -0.001013845 -0.01440509 -0.01449648
v -0.0006785989 -0.01965328 -0.01964626
v -0.0004371405 -0.02745281 0.00436455
v -0.0008921623 -0.02126302 -0.003289521
v -0.0006502271 -0.02476548 -0.01260731
v -0.0005662441 -0.004343793 -0.0274512
v -0.0002069473 -0.02051996 -0.02051197
v -0.0009329319 -0.003254756 -0.02018073
v -0.0002741516 0.01262774 -0.02476841
v -0.000665009 0.009840265 -0.01914716
v 0.0004900396 0.01966797 0.01966053
v 0.0004613101 0.01263021 0.0247757
v -0.0003886223 -0.009812966 0.01917514
v -0.0008088946 -0.02059449 0.003471524
v -0.0006491244 -0.01261638 -0.02476061
v -0.0005502701 0.01491888 -0.01463449
v 0.0003783703 0.02746706 0.00434868
v 0.0009834766 0.02585591 0.01316638
v 0.0003786683 0.004358098 0.02746621
v -0.0005576313 -0.01489075 0.01466314
v -0.000975281 -0.01832445 -0.00959526
v -0.0008196831 0.003013238 -0.02047375
v 0.0002495646 0.02746697 -0.004349738
v 0.0004615486 0.02478032 0.0126221
v -0.0001445413 0.01835282 0.009623826
v -0.0002998114 -0.002984419 0.02050272
v -0.0001609623 0.02128993 0.003317595
v -0.0002995133 0.02062266 -0.003443062
f 1 2 3
f 2 1 4
f 2 5 3
f 2 6 7
f 6 8 7
f 9 2 7
f 2 9 10
f 8 9 7
f 10 9 11
f 12 1 13
f 14 12 13
f 15 16 11
f 16 10 11
f 17 18 19
f 15 17 19
f 1 20 13
f 20 1 3
f 21 1 22
f 21 23 1
f 23 24 1
f 18 25 19
f 26 27 28
f 21 27 23
f 28 27 22
f 27 21 22
f 29 2 4
f 29 6 2
f 9 30 11
f 30 9 8
f 31 32 33
f 32 31 2
f 31 5 2
f 34 2 10
f 34 32 2
f 16 34 10
f 34 16 32
f 35 12 14
f 35 28 22
f 1 35 22
f 12 35 1
f 36 15 19
f 37 36 19
f 38 16 15
f 38 39 33
f 32 38 33
f 16 38 32
f 40 37 5
f 40 31 33
f 31 40 5
f 39 40 33
f 40 36 37
f 41 14 13
f 20 41 13
f 5 42 3
f 37 42 5
f 42 20 3
f 42 37 20
f 25 43 19
f 43 25 26
f 43 41 19
f 41 43 14
f 44 45 28
f 45 44 14
f 35 44 28
f 44 35 14
f 46 25 18
f 46 29 4
f 46 47 29
f 47 46 18
f 30 48 11
f 48 30 8
f 36 49 15
f 49 38 15
f 38 49 39
f 50 37 19
f 41 50 19
f 37 50 20
f 50 41 20
f 51 43 26
f 51 26 28
f 45 51 28
f 52 24 23
f 1 53 4
f 24 53 1
f 29 54 6
f 47 54 29
f 6 54 8
f 54 17 8
f 17 54 18
f 54 47 18
f 55 17 15
f 55 15 11
f 48 55 11
f 49 56 39
f 56 49 36
f 56 40 39
f 40 56 36
f 57 51 45
f 51 57 43
f 57 45 14
f 43 57 14
f 27 58 23
f 58 52 23
f 58 27 26
f 59 60 25
f 46 59 25
f 59 46 4
f 53 59 4
f 52 59 24
f 59 53 24
f 55 61 17
f 61 55 48
f 17 61 8
f 61 48 8
f 58 62 52
f 59 62 60
f 62 59 52
f 63 58 26
f 63 62 58
f 62 63 60
f 25 63 26
f 60 63 25
