v 0.001291096 0.004721671 0.01270002
v -0.001378924 -0.004721671 0.01377422
v 0.001379043 -0.00439623 0.0127157
v -0.0009858459 -0.004456669 -0.009058416
v -0.001379028 0.00465104 -0.0136283
v -0.0004566759 0.003771693 -0.01377416
v 0.0003817827 0.004713029 0.0127604
v -0.0004669577 0.004676312 -0.01374024
v -7.344782e-05 -0.004461467 -0.009141862
v -0.00136815 -0.002597898 0.01289362
f 1 2 3
f 4 2 5
f 6 1 3
f 6 4 5
f 7 2 1
f 8 6 5
f 6 8 1
f 7 8 5
f 8 7 1
f 9 6 3
f 6 9 4
f 2 9 3
f 4 9 2
f 2 10 5
f 10 7 5
f 7 10 2
