v 0.003036261 0.01630774 0.01808721
v -0.003696546 0.01620498 0.01871425
v -0.0026301 0.01250353 0.02130824
v 0.003086895 0.01631013 -0.004841983
v -0.003696449 -0.0144513 -0.02096093
v -0.003453664 0.01620737 -0.006285846
v -0.003696539 -0.0144515 0.01491266
v -0.001626477 0.01623583 -0.01696354
v -0.002829596 -0.01444629 -0.02130818
v 0.003696539 -0.001325101 0.01395369
v 0.003245309 -0.01527163 -0.005709708
v -0.001136072 -0.01092997 0.02056569
v 0.002972737 -0.01341808 0.01928747
v -0.003523782 -0.01630715 0.01784778
v -0.002492845 0.01622251 -0.01662588
v 0.003474429 0.009810686 0.01895243
v -0.003666587 -0.01631013 -0.02095968
v 0.003211752 -0.01620337 0.01722467
v -0.002517037 -0.01567876 0.01968855
v 0.00369221 -0.004113525 0.01895058
v 0.00292366 -0.01620772 -0.006575584
f 1 2 3
f 4 2 1
f 5 2 6
f 2 5 7
f 8 4 9
f 10 11 4
f 12 13 3
f 2 14 3
f 14 2 7
f 5 15 9
f 15 8 9
f 15 5 6
f 2 15 6
f 15 2 4
f 8 15 4
f 16 4 1
f 16 10 4
f 16 1 3
f 13 16 3
f 14 17 18
f 17 5 9
f 5 17 7
f 17 14 7
f 19 12 3
f 14 19 3
f 12 19 13
f 13 19 18
f 19 14 18
f 16 20 10
f 11 20 18
f 10 20 11
f 20 13 18
f 20 16 13
f 21 11 18
f 17 21 18
f 21 17 9
f 4 21 9
f 11 21 4
