v 0.002289161 0.007784903 -0.02427334
v 0.002290756 0.005953223 -0.005950511
v 0.002289459 0.005034685 -0.02427256
v -0.002290681 0.001373112 -0.02427298
v -0.00229013 0.01053256 -0.0242734
v -0.001374334 0.001372814 -0.02427256
v -0.002290756 -0.0004550815 0.01327801
v -0.002290741 -0.01053289 0.009612322
v -0.002289325 -0.01053247 0.0242734
v -0.001374394 -0.0105325 0.009614527
v 0.002289236 -0.01053184 0.01602745
v 0.0004582256 0.009614438 -0.01877469
v 0.002289593 -0.008696556 0.02059901
v -0.001373366 0.008699834 -0.006866038
v -0.001373112 -0.00503391 0.01968771
v -0.0004570484 -0.01053244 0.02427292
v 0.0004573166 0.0004578531 0.01052451
v -0.002290681 0.01053292 -0.01694107
v 0.002289936 -0.00137192 0.01052386
f 1 2 3
f 4 1 3
f 1 4 5
f 6 4 3
f 7 8 9
f 8 7 4
f 6 8 4
f 8 6 10
f 11 8 10
f 2 11 3
f 11 6 3
f 6 11 10
f 12 1 5
f 1 12 2
f 13 11 2
f 12 14 2
f 15 7 9
f 13 16 11
f 8 16 9
f 11 16 8
f 16 15 9
f 15 16 13
f 14 17 2
f 17 14 7
f 15 17 7
f 17 15 13
f 18 12 5
f 18 14 12
f 14 18 7
f 4 18 5
f 7 18 4
f 19 13 2
f 17 19 2
f 19 17 13
