v 0.0009531975 0.02042714 -0.03723663
v 0.007091701 0.02341518 -0.03919894
v 0.01106942 0.02060673 -0.04052395
v -0.01795113 0.01145759 0.009072602
v -0.01850742 0.002491623 0.003491312
v -0.005752742 0.02213344 0.01110107
v 0.002239287 0.02373794 0.002257317
v 0.002062857 0.02361158 0.00927034
v -0.0134927 0.01738206 0.01019192
v 0.008982956 0.02185097 0.006008178
v 0.007010818 0.0206472 0.01860577
v 0.01271391 0.01749888 0.01767075
v -0.004520893 0.02194831 0.001293272
v -0.007387698 0.01937547 0.02184576
v -0.01442909 0.01673838 0.02209127
v 0.01571631 -0.01325908 0.002703249
v 0.01022881 0.01428732 -0.03720137
v -0.01536232 0.01680413 0.01704723
v 0.009524226 -0.02227378 0.01268891
v 0.0008869767 -0.0237 0.01875305
v 0.001076937 -0.02373791 0.01075155
v 0.004310727 -0.02218258 0.0262489
v -0.008906603 -0.02078879 0.02701858
v -0.01141536 -0.01473662 0.02720556
v -0.01219183 -0.02181903 0.02046096
v -0.004994631 0.008874029 0.03643826
v 0.001616299 0.008700937 0.03795958
v 0.004036307 0.01198485 0.03548247
v -0.01080519 0.008907169 0.03284192
v -0.003532171 0.00122118 0.03909823
v -0.01440483 0.01269999 0.0276325
v -0.015724 0.007650852 0.02753907
v -0.01895547 0.007043868 0.02005595
v -0.01978171 0.005317718 0.01583052
v 0.01647574 0.01402512 0.01151258
v 0.01326746 0.018096 0.005772591
v 0.0009269714 0.01916358 0.0248242
v -0.002903342 0.01658729 0.02919874
v 0.003551483 0.01002225 -0.03458646
v 0.003635406 -0.009011745 -0.01484025
v 0.0003762245 -0.01623428 -0.007846922
v 0.01612175 -0.003664345 -0.004719615
v 0.01844037 -0.008340299 0.006406605
v 0.01987511 -0.002949953 0.008448899
v 0.01987511 0.004847318 0.01301491
v -0.01742429 -0.01450679 0.01585186
v -0.01155686 -0.02259308 0.0136019
v -0.01618767 -0.01942527 0.01059431
v -0.0140686 -0.01917335 0.006609112
v -0.0007596612 -0.02191725 0.001998782
v 0.000379622 0.0131906 -0.03642371
v -0.009705544 -0.01335043 -0.003840208
v -0.00529027 -0.01883581 -0.002093077
v -0.003348053 -0.009622335 0.03631783
v 0.005805492 -0.006934911 0.04005665
v 0.003631175 -0.01195368 0.03788167
v 0.00685674 -0.02268872 0.008329421
v -0.00274533 -0.01714903 0.03320241
v 1.54376e-05 -0.02144858 0.02911365
v -0.0087111 -0.01094562 0.03199381
v -0.007575989 -0.02336454 0.02086127
v 0.004447699 0.001305789 0.04052392
v 0.01069975 -0.0009574592 0.0397642
v -0.01648825 0.01498291 0.0192214
v -0.009853184 0.01398572 0.0307062
v 0.0004088879 0.02244172 0.01583427
v 0.007594645 -0.01563802 -0.00695771
v 0.01862597 0.003332824 0.002016515
v -0.01589525 -0.01915672 0.013706
v -0.01974237 -0.005345047 0.01149625
v -0.009237766 -0.021595 0.007529318
v -0.001628935 -0.008494824 -0.01448128
v 0.007921815 -0.01932859 0.03119761
v 0.01364231 -0.0186983 0.02296653
v 0.01269138 -0.0149087 0.03295368
v 0.01695365 0.01014361 0.02327749
v 0.01979208 0.001316786 0.02304715
v 0.008619845 0.01551142 0.02831668
v 0.01190507 0.006879359 0.036129
v -0.004991412 -0.01299307 0.03389454
v -0.01143402 6.791949e-05 0.03264061
v -0.006699264 -0.00814721 0.03455746
v 0.008070171 0.004598051 0.03955659
v 0.01374102 -0.01186264 -0.003536224
v 0.01055503 -0.01959929 0.002798766
v -0.01981455 -1.248717e-05 0.01135129
v -0.01718092 -0.01342961 0.005085677
v -0.01853395 -0.01145023 0.009709626
v 0.0115881 -0.008576065 0.03813663
v 0.01587486 -0.005455494 0.03468299
v 0.01602203 0.002956659 0.03330514
v 0.01103568 -0.02071899 0.02130815
v 0.01726663 -0.01300251 0.02450398
v 0.007270694 -0.01607937 0.03557107
v 0.0128336 0.01253143 0.0282445
v -0.004405558 -0.008848965 0.03597292
v -0.01080835 -0.007375151 0.03111687
v 0.004819751 -0.02106088 0.0004731715
v 0.01446176 -0.0182614 0.0107919
v -0.01987547 0.0002655685 0.01206309
v -0.01777488 -0.006333172 0.002500027
v 0.01987028 -0.006138355 0.02009302
v -0.009635687 -0.008406401 0.03212553
v 0.01781172 -0.01348621 0.01328987
v 0.01753122 -0.007272273 0.03114107
f 1 2 3
f 4 1 5
f 6 7 2
f 7 6 8
f 4 9 1
f 2 10 3
f 10 11 12
f 11 10 8
f 10 7 8
f 7 10 2
f 13 2 1
f 13 6 2
f 9 13 1
f 13 9 6
f 14 6 15
f 16 17 3
f 18 9 4
f 6 18 15
f 9 18 6
f 19 20 21
f 20 19 22
f 23 24 25
f 26 27 28
f 26 29 30
f 27 26 30
f 29 31 32
f 31 33 32
f 34 4 5
f 35 36 12
f 36 10 12
f 36 35 3
f 10 36 3
f 37 14 38
f 28 37 38
f 39 40 41
f 42 16 3
f 42 43 16
f 44 43 3
f 43 42 3
f 35 45 3
f 24 46 25
f 33 46 32
f 46 24 32
f 47 48 49
f 47 50 21
f 48 47 25
f 51 39 41
f 51 1 3
f 1 51 5
f 17 51 3
f 51 17 39
f 52 53 49
f 50 53 41
f 51 53 52
f 54 55 30
f 55 54 56
f 50 57 21
f 57 19 21
f 54 58 56
f 59 58 23
f 60 24 23
f 61 20 22
f 59 61 22
f 47 61 25
f 61 23 25
f 61 59 23
f 20 61 21
f 61 47 21
f 62 27 30
f 55 62 30
f 62 55 63
f 64 31 15
f 31 64 33
f 18 64 15
f 64 18 4
f 34 64 4
f 64 34 33
f 26 65 29
f 65 31 29
f 65 28 38
f 65 26 28
f 31 65 15
f 65 14 15
f 14 65 38
f 37 66 14
f 6 66 8
f 14 66 6
f 66 11 8
f 66 37 11
f 40 67 41
f 17 67 39
f 67 40 39
f 68 44 3
f 45 68 3
f 68 45 44
f 69 48 25
f 46 69 25
f 69 46 48
f 34 70 33
f 70 46 33
f 71 47 49
f 47 71 50
f 53 71 49
f 71 53 50
f 72 51 41
f 53 72 41
f 72 53 51
f 73 59 22
f 73 74 75
f 76 35 12
f 45 76 77
f 76 45 35
f 11 78 12
f 79 78 28
f 78 37 28
f 37 78 11
f 80 58 54
f 58 80 23
f 80 60 23
f 81 29 32
f 29 81 30
f 81 82 30
f 62 83 27
f 27 83 28
f 83 79 28
f 79 83 63
f 83 62 63
f 84 17 16
f 84 67 17
f 57 85 19
f 85 84 16
f 84 85 67
f 70 86 5
f 48 87 49
f 87 52 49
f 87 51 52
f 46 88 48
f 70 88 46
f 88 87 48
f 89 90 63
f 90 89 75
f 55 89 63
f 91 79 63
f 90 91 63
f 76 91 77
f 19 92 22
f 74 92 19
f 92 73 22
f 73 92 74
f 74 93 75
f 94 58 59
f 73 94 59
f 58 94 56
f 94 55 56
f 94 89 55
f 94 73 75
f 89 94 75
f 95 78 79
f 91 95 79
f 95 91 76
f 95 76 12
f 78 95 12
f 96 54 30
f 82 96 30
f 96 80 54
f 80 96 60
f 96 82 60
f 24 97 32
f 97 81 32
f 98 57 50
f 98 85 57
f 85 98 67
f 98 50 41
f 67 98 41
f 99 74 19
f 85 99 19
f 99 85 16
f 100 70 34
f 100 86 70
f 100 34 5
f 86 100 5
f 101 70 5
f 51 101 5
f 87 101 51
f 101 88 70
f 88 101 87
f 102 45 77
f 45 102 44
f 97 103 81
f 82 103 60
f 81 103 82
f 60 103 24
f 103 97 24
f 104 93 74
f 99 104 74
f 104 102 93
f 43 104 16
f 104 99 16
f 104 43 44
f 102 104 44
f 102 105 93
f 105 90 75
f 93 105 75
f 105 102 77
f 91 105 77
f 105 91 90
