v 0.006882749 -0.01362076 0.04003811
v 0.004169151 -0.01511833 -0.02380773
v 0.006887801 0.007720977 -0.0416472
v 0.0068838 0.01399375 0.04343635
v 0.001670703 -0.004811928 0.04034057
v -0.006887071 0.015028 -0.03683302
v -0.006887808 0.004841328 -0.0380865
v 0.003364392 -0.01130521 -0.04360506
v -0.002592213 -0.003798559 -0.0419597
v -0.002279982 -0.003623426 -0.04204339
v 0.00167194 0.005374745 0.04159424
v 0.004825205 0.01510446 0.04244754
v 0.005996205 0.01443228 0.04360506
v 0.004823796 -0.01445885 0.03880969
v 0.0022626 -0.01296777 -0.04127705
v -0.006441362 0.01511835 -0.03835458
v -0.00199049 0.0146641 -0.03982469
v 0.005996093 -0.01408648 0.04009467
v 0.002954923 0.005046383 0.04278174
v 0.005118236 0.01491807 0.0430122
v -0.003735021 -0.004805356 -0.03961846
v 0.002536453 -0.01235338 -0.04271519
v -0.005247004 0.005454943 -0.04060233
v -0.005246036 0.01504171 -0.0394223
v -0.005594134 0.00538592 -0.04050097
v -0.005872399 0.01510447 -0.03906947
v 0.002924837 -0.01181301 -0.0433428
v 0.005115896 -0.01441433 0.03940171
v 0.00198859 -0.004843011 0.04092067
v 0.001988709 0.005264223 0.04216459
v 0.005500697 0.01470226 0.04332998
v -0.003348321 -0.004343569 -0.04108769
v -0.005593292 0.01508489 -0.03930739
v 0.003118314 -0.01157036 -0.04353884
v 0.002954662 -0.004781425 0.04157192
v 0.002409123 0.005163163 0.04249272
v -0.002841353 -0.00396505 -0.04174787
v 0.005499862 -0.01428229 0.03976238
v 0.002409309 -0.004824549 0.04126421
v -0.006442145 0.005122095 -0.03958514
v -0.005872823 0.00530909 -0.04027495
f 1 2 3
f 4 1 3
f 5 6 7
f 2 8 3
f 8 9 10
f 6 11 12
f 5 11 6
f 4 13 1
f 2 14 15
f 16 6 12
f 17 8 10
f 8 17 3
f 17 4 3
f 4 17 12
f 13 18 1
f 18 2 1
f 19 18 13
f 20 4 12
f 20 13 4
f 14 21 15
f 21 22 15
f 21 5 7
f 21 14 5
f 23 17 10
f 17 23 24
f 9 23 10
f 25 23 9
f 26 16 12
f 22 27 15
f 27 2 15
f 27 8 2
f 14 28 5
f 28 14 2
f 28 29 5
f 11 30 12
f 30 20 12
f 30 11 5
f 29 30 5
f 31 19 13
f 20 31 13
f 21 32 22
f 32 27 22
f 33 26 12
f 17 33 12
f 33 17 24
f 26 33 25
f 23 33 24
f 33 23 25
f 8 34 9
f 34 27 9
f 27 34 8
f 19 35 18
f 30 36 20
f 36 31 20
f 31 36 19
f 27 37 9
f 32 37 27
f 35 38 18
f 18 38 2
f 38 28 2
f 39 38 35
f 39 30 29
f 39 36 30
f 39 35 19
f 36 39 19
f 39 29 28
f 38 39 28
f 40 37 32
f 40 21 7
f 40 32 21
f 6 40 7
f 16 40 6
f 26 40 16
f 40 41 37
f 41 25 9
f 37 41 9
f 41 26 25
f 41 40 26
