v -0.001162887 -0.01297051 -0.04493189
v 0.002329081 0.02131195 -0.02311319
v 0.004774243 -0.01539826 -0.04476523
v -0.00497362 0.005564801 0.008482456
v -0.003195971 0.01102103 0.02477968
v 0.0009059906 0.0210204 0.01439071
v 7.623434e-05 -0.006242163 0.04493183
v 0.005254149 -0.005878426 0.04218233
v -0.0009121299 -0.01895539 -0.03513348
v -0.002493739 0.005948432 0.03186524
v -0.002957344 0.007856049 -0.03028554
v -0.00342539 0.0068096 -0.02885205
v -0.005066097 0.004061006 -0.01026523
v 0.002246052 -0.01717025 0.02002323
v 0.001118392 -0.0205668 -0.01911199
v 0.0004648268 -0.02104335 -0.004897773
v -0.003022015 -0.02087758 -0.02313721
v -0.001364231 -0.02110834 0.0009762645
v 0.002361536 0.02151135 -0.02167773
v 0.005210191 -0.01171306 -0.0419271
v 0.00528726 -0.01406479 -0.0436213
v -0.0006147623 -0.01772849 0.0192644
v -0.005160451 -0.01922833 0.006704152
v 0.003967553 -0.008042395 0.04267919
v -0.0006654561 -0.01088529 0.03893596
v -0.001667678 -0.005840711 0.04229867
v -0.00520736 0.004115038 -0.004396856
v -0.00359717 -0.01786096 -0.02933735
v -0.004439116 -0.0193748 -0.02132535
v -0.004399389 0.002564363 -0.02053422
v -0.00528723 -0.01810206 -0.007763803
v -0.001148999 -0.02151135 -0.01212853
v 0.004959285 -0.002047218 0.03784615
v 0.003091067 0.0117102 0.02263725
v 0.001651406 0.0197143 0.01394701
v -0.002067566 -0.01494808 0.02962977
v -0.005215496 -0.01673947 0.009681821
v -0.004213274 -0.01329459 0.02427214
v -0.003045022 -0.009755768 0.03428376
v -0.003582656 -0.01307046 -0.0305286
v -0.005159587 -0.02015606 -0.006890655
v -0.005123526 -0.01801202 -0.01233566
v -0.004472047 0.004901707 0.01636207
v -0.003248364 -0.01291761 0.03073096
f 1 2 3
f 4 5 6
f 7 8 6
f 9 1 3
f 10 7 6
f 5 10 6
f 2 11 6
f 11 12 6
f 1 11 2
f 12 11 1
f 12 13 6
f 14 15 3
f 16 15 14
f 15 9 3
f 9 15 17
f 18 16 14
f 19 20 2
f 19 2 6
f 8 21 20
f 2 21 3
f 20 21 2
f 21 14 3
f 21 8 14
f 22 18 14
f 18 22 23
f 8 24 14
f 24 8 7
f 25 24 7
f 26 25 7
f 10 26 7
f 27 4 6
f 13 27 6
f 9 28 1
f 28 9 17
f 29 28 17
f 30 13 12
f 31 27 13
f 15 32 17
f 32 15 16
f 18 32 16
f 33 19 34
f 8 33 6
f 33 34 6
f 33 8 20
f 19 33 20
f 34 35 6
f 35 19 6
f 19 35 34
f 22 36 23
f 36 22 14
f 24 36 14
f 36 24 25
f 27 37 4
f 37 31 23
f 31 37 27
f 38 37 23
f 39 10 5
f 39 26 10
f 40 28 29
f 30 40 29
f 40 30 12
f 40 12 1
f 28 40 1
f 31 41 23
f 41 29 17
f 32 41 17
f 41 18 23
f 41 32 18
f 42 31 13
f 30 42 13
f 42 30 29
f 41 42 29
f 42 41 31
f 43 5 4
f 37 43 4
f 38 43 37
f 43 39 5
f 39 43 38
f 44 39 38
f 36 44 23
f 44 38 23
f 44 36 25
f 26 44 25
f 39 44 26
