v 0.00169003 -0.007339716 0.01324075
v 0.002918482 0.002711862 0.02100033
v -0.003171295 -0.001595855 0.01703316
v 0.001613617 -0.007347792 -0.02100033
v 0.0007408261 -0.007121205 0.0130083
v -0.002769113 0.001673728 0.01731378
v -0.002737254 0.003503501 -0.0128634
v -0.002585888 0.003513634 0.01058614
v 0.003152132 0.004840702 0.01684594
v 0.002415121 0.007347792 -0.002317607
v 0.003171265 0.006385267 -0.01004338
v 0.001540214 -0.006400377 -0.02032453
v -0.0006206036 0.005552769 -0.009873092
v -0.003163815 8.98838e-05 -0.01443172
v 0.0003885031 0.005172133 0.01099855
v 0.0005662143 -0.006857544 -0.01960272
f 1 2 3
f 1 4 2
f 5 1 3
f 1 5 4
f 2 6 3
f 6 7 3
f 7 6 8
f 9 6 2
f 10 9 11
f 9 4 11
f 4 9 2
f 4 12 11
f 12 7 11
f 7 12 4
f 13 10 11
f 7 13 11
f 10 13 8
f 13 7 8
f 7 14 3
f 14 7 4
f 15 10 8
f 15 9 10
f 6 15 8
f 9 15 6
f 14 16 3
f 16 14 4
f 16 5 3
f 5 16 4
