v 4.883111e-05 0.07500017 -0.07499978
v 4.889071e-05 0.07500017 -0.0799998
v -0.0009265691 0.07500081 -0.07990372
v -4.917383e-05 -0.07499979 -0.07999985
v -4.920363e-05 -0.07499981 -0.07499981
v -0.001024663 -0.07499912 -0.07990375
v -0.001864567 0.07500143 -0.07961917
v -0.001962632 -0.07499857 -0.07961924
v -0.002728984 0.07500198 -0.07915714
v -0.002827078 -0.07499799 -0.07915717
v -0.003486678 0.07500249 -0.07853535
v -0.003584743 -0.0749975 -0.07853539
v -0.004108518 0.07500288 -0.07777765
v -0.004206568 -0.07499707 -0.07777768
v -0.004570499 0.07500325 -0.07691321
v -0.004668593 -0.07499678 -0.07691327
v -0.004855081 0.07500339 -0.07597524
v -0.004953146 -0.07499655 -0.07597525
v -0.004951179 0.07500347 -0.07499981
v -0.005049199 -0.0749965 -0.07499982
v -0.004855067 0.07500337 -0.07402429
v -0.004953146 -0.07499659 -0.07402441
v -0.004570559 0.07500324 -0.07308638
v -0.004668593 -0.07499678 -0.07308638
v -0.004108548 0.07500289 -0.0722219
v -0.004206568 -0.07499707 -0.07222196
v -0.003486678 0.07500257 -0.07146424
v -0.003584743 -0.0749975 -0.07146424
v -0.002729014 0.07500198 -0.07084244
v -0.002827048 -0.07499798 -0.07084246
v -0.001864552 0.07500145 -0.07038039
v -0.001962602 -0.07499857 -0.07038042
v -0.000926584 0.07500081 -0.0700959
v -0.001024604 -0.07499917 -0.07009585
v 4.883111e-05 0.07500015 -0.06999978
v -4.917383e-05 -0.07499979 -0.06999981
v 0.001024261 0.07499959 -0.07009587
v 0.0009262562 -0.07500039 -0.07009588
v 0.001962274 0.07499896 -0.07038039
v 0.001864225 -0.07500105 -0.07038036
v 0.002826676 0.07499835 -0.07084244
v 0.002728671 -0.07500161 -0.07084243
v 0.003584385 0.07499787 -0.07146424
v 0.003486365 -0.07500212 -0.07146426
v 0.00420621 0.07499745 -0.0722219
v 0.004108161 -0.07500252 -0.07222193
v 0.004668236 0.0749972 -0.07308638
v 0.004570246 -0.07500282 -0.07308638
v 0.004952773 0.07499695 -0.07402429
v 0.004854739 -0.07500301 -0.07402436
v 0.005048841 0.0749969 -0.07499972
v 0.004950792 -0.07500307 -0.07499979
v 0.004952744 0.07499695 -0.07597521
v 0.004854769 -0.07500298 -0.07597521
v 0.004668266 0.07499716 -0.07691318
v 0.004570216 -0.0750028 -0.07691325
v 0.004206181 0.07499743 -0.07777759
v 0.004108161 -0.07500249 -0.07777765
v 0.00358437 0.07499789 -0.07853532
v 0.003486365 -0.07500209 -0.07853536
v 0.002826706 0.07499836 -0.07915714
v 0.002728701 -0.0750016 -0.0791572
v 0.001962289 0.07499892 -0.0796192
v 0.001864225 -0.07500102 -0.07961921
v 0.001024291 0.07499954 -0.07990372
v 0.0009262562 -0.07500041 -0.0799038
f 1 2 3
f 4 5 6
f 2 4 3
f 4 6 3
f 1 3 7
f 6 5 8
f 3 6 7
f 6 8 7
f 1 7 9
f 8 5 10
f 7 8 9
f 8 10 9
f 1 9 11
f 10 5 12
f 9 10 11
f 10 12 11
f 1 11 13
f 12 5 14
f 11 12 13
f 12 14 13
f 1 13 15
f 14 5 16
f 13 14 15
f 14 16 15
f 1 15 17
f 16 5 18
f 15 16 17
f 16 18 17
f 1 17 19
f 18 5 20
f 17 18 19
f 18 20 19
f 1 19 21
f 20 5 22
f 19 20 21
f 20 22 21
f 1 21 23
f 22 5 24
f 21 22 23
f 22 24 23
f 1 23 25
f 24 5 26
f 23 24 25
f 24 26 25
f 1 25 27
f 26 5 28
f 25 26 27
f 26 28 27
f 1 27 29
f 28 5 30
f 27 28 29
f 28 30 29
f 1 29 31
f 30 5 32
f 29 30 31
f 30 32 31
f 1 31 33
f 32 5 34
f 31 32 33
f 32 34 33
f 1 33 35
f 34 5 36
f 33 34 35
f 34 36 35
f 1 35 37
f 36 5 38
f 35 36 37
f 36 38 37
f 1 37 39
f 38 5 40
f 37 38 39
f 38 40 39
f 1 39 41
f 40 5 42
f 39 40 41
f 40 42 41
f 1 41 43
f 42 5 44
f 41 42 43
f 42 44 43
f 1 43 45
f 44 5 46
f 43 44 45
f 44 46 45
f 1 45 47
f 46 5 48
f 45 46 47
f 46 48 47
f 1 47 49
f 48 5 50
f 47 48 49
f 48 50 49
f 1 49 51
f 50 5 52
f 49 50 51
f 50 52 51
f 1 51 53
f 52 5 54
f 51 52 53
f 52 54 53
f 1 53 55
f 54 5 56
f 53 54 55
f 54 56 55
f 1 55 57
f 56 5 58
f 55 56 57
f 56 58 57
f 1 57 59
f 58 5 60
f 57 58 59
f 58 60 59
f 1 59 61
f 60 5 62
f 59 60 61
f 60 62 61
f 1 61 63
f 62 5 64
f 61 62 63
f 62 64 63
f 1 63 65
f 64 5 66
f 63 64 65
f 64 66 65
f 1 65 2
f 66 5 4
f 65 66 2
f 66 4 2
