v 0.0002900362 -0.004566222 -0.005930826
v -0.002491802 -0.003640056 -0.003885433
v 0.001227736 0.005756885 -0.005980268
v 0.002468944 -0.005476564 -0.003992692
v -0.001673996 0.005195618 -0.003924653
v 0.003550768 0.005909532 -0.004025802
v 0.003550768 -0.00591287 4.515052e-06
v 0.003550768 0.00591287 0.004025564
v 0.001226962 0.005761862 0.005980268
v 0.000290513 -0.004562169 0.005938902
v -0.00249207 -0.003636718 0.003892526
v -0.001674563 0.00519821 0.003924653
v -0.003550738 -0.003286064 3.322959e-06
v 0.00246805 -0.005473912 0.00400193
v -0.002781749 0.004982233 5.811453e-07
f 1 2 3
f 2 1 4
f 2 5 3
f 6 1 3
f 1 6 4
f 6 7 4
f 7 6 8
f 8 9 10
f 9 11 10
f 11 9 12
f 5 9 3
f 9 6 3
f 6 9 8
f 13 11 12
f 13 5 2
f 13 2 4
f 7 13 4
f 14 8 10
f 14 7 8
f 11 14 10
f 13 14 11
f 14 13 7
f 15 13 12
f 13 15 5
f 9 15 12
f 15 9 5
