v -0.03434664 -0.03469861 0.01359757
v -0.03392267 -0.02588546 0.01687931
v -0.03435934 -0.02335358 0.01549456
v -0.03492987 -0.01363349 0.01854077
v 0.0250442 0.06355166 0.02183246
v 0.02195388 0.06293654 0.01779538
v 0.01967078 0.06415474 0.01775839
v 0.02557474 0.061553 0.01976427
v 0.01351577 0.06455159 0.01473714
v 0.01584834 0.06382358 0.01475883
v 0.009397268 0.06466794 0.0134924
v 0.009802997 0.06277311 0.01155782
v 0.02791941 0.06307352 0.02485216
v 0.02584523 0.007281184 0.007106274
v 0.0283553 0.02735686 0.01069383
v 0.02982807 0.02251875 0.01421551
v 0.02649218 0.01460063 0.007429384
v 0.02793628 0.03500974 -0.03504704
v 0.02401865 0.03512859 -0.03790328
v 0.0252322 0.03704858 -0.02970929
v 0.02450573 0.04449618 -0.004563451
v 0.02542788 0.04330695 -0.003105745
v 0.02650869 0.03819501 -0.01655336
v 0.02632296 0.01999271 0.003704347
v 0.02645451 0.01845396 -0.0002665892
v 0.03583151 0.02714753 0.02364455
v 0.02918702 0.01439941 0.01327129
v 0.02223152 0.03922498 -0.02606748
v 0.02928734 0.02863514 0.01308609
v 0.0256018 0.03789937 -0.02499767
v 0.02709091 0.03333437 0.0004237071
v 0.03452611 0.03643596 0.02309472
v 0.03209996 0.03203988 0.01883306
v 0.01809877 0.03983092 -0.02711406
v 0.02103084 0.03514302 -0.03921404
v 0.02815723 0.02588999 -0.008662805
v 0.02720428 0.02715957 -0.003960997
v 0.03254193 0.05411625 0.02469086
v 0.02897698 0.05131888 0.01809523
v 0.03147525 0.05815554 0.0249487
v 0.01998544 0.04370594 -0.01609983
v 0.0296669 0.03428566 0.01436239
v 0.02771968 0.05363202 0.01705856
v 0.02922302 0.06045496 0.02319776
v 0.02782249 0.03252292 0.007952884
v 0.02757221 0.03455365 -0.01071107
v 0.02929997 0.02962863 -0.01485381
v 0.0276823 0.0306071 -0.007915244
v 0.02556175 0.05574381 0.01516578
v 0.02789962 0.03923237 0.008984871
v 0.03130317 0.04090536 0.01905147
v 0.02715236 0.03690946 -0.01395976
v 0.03039145 0.03320849 -0.02403053
v 0.02925754 0.03412747 -0.02156184
v 0.02686822 0.03767216 -0.002454065
v 0.02975756 0.03471541 -0.03138665
v 0.03051257 0.03369117 -0.02775755
v 0.01709181 0.05531681 0.004863232
v 0.01548904 0.05099785 -0.003777675
v 0.01279294 0.05232716 -0.002502427
v -0.0285328 -0.0323559 -0.06293045
v -0.0278753 0.003702879 -0.06343629
v -0.02562594 -0.002241254 -0.06863337
v -0.02415669 -0.0119139 -0.07166924
v 0.02732217 0.03670323 -0.02439511
v 0.01795024 0.05802953 0.009782039
v 0.01365435 0.05971646 0.009660609
v 0.01105624 0.05765522 0.005623296
v 0.02837348 0.04804158 0.01511019
v 0.02671975 0.04594052 0.007956564
v 0.02660096 0.0383569 -0.0112213
v 0.03006089 0.003661394 0.01463678
v 0.03167027 -0.009938121 0.01646702
v 0.02801526 -0.01173854 0.01313905
v 0.03469425 -0.01012623 0.01965723
v 0.02418917 0.04166007 -0.01432376
v 0.02997744 0.01040101 0.01445046
v 0.03390318 0.005793214 0.0191618
v 0.02674359 0.04245508 0.004013039
v 0.02639204 0.04007113 -0.004080661
v -0.03067303 0.007377386 -0.05587505
v 0.02269787 0.04183245 -0.01746131
v 0.02293968 0.0462395 -0.005138926
v 0.01921082 0.04873335 -0.005503841
v 0.01518053 0.04612505 -0.01361127
v 0.02733815 0.03125608 0.005268209
v 0.02499288 0.05138063 0.009333745
v 0.02551323 0.04963636 0.008305341
v -0.03151608 -0.03574574 -0.05500674
v 0.02323431 0.05275285 0.007598363
v 0.02389717 0.05481374 0.01170054
v -0.03475362 0.007973433 -0.043283
v -0.03363544 -0.03614569 -0.04869924
v 0.02128994 0.05371177 0.006119192
v 0.0202598 0.05701029 0.01017021
v 0.02871746 -0.0176028 0.01334627
v 0.02701795 0.035689 -0.001708187
v 0.02723575 -0.00478363 0.01187215
v 0.028193 0.00178194 0.01233558
v -0.03702414 -0.03586853 -0.03712515
v -0.03778374 0.007280588 -0.0320985
v -0.03943896 -0.03451347 -0.0273049
v 0.03524959 0.008082747 0.02102308
v -0.04024035 0.005105138 -0.02103286
v -0.04095 -0.03281057 -0.01981227
v -0.04196793 -0.03096068 -0.01329417
v -0.04173476 0.002487183 -0.01190455
v -0.04230231 -0.001003981 -0.007128157
v 0.03359419 -0.0216037 0.01814808
v 0.02671689 0.000315547 0.01031597
v 0.0331946 -0.05641329 0.02578745
v 0.005705059 -0.05151588 0.02085339
v 0.03238815 -0.05117893 0.02688213
v 0.005927086 -0.05664515 0.01956508
v 0.00622797 -0.0608741 0.01797231
v 0.03369921 -0.06189764 0.0237495
v 0.006680131 -0.06550807 0.01567445
v 0.005619109 -0.04644072 0.02152496
v 0.00566411 -0.04120553 0.02161493
v 0.03223485 -0.04271722 0.02753891
v 0.03208578 -0.0469147 0.02737485
v 0.006700575 -0.06560892 0.0155771
v 0.03178167 -0.06591809 0.0211509
v -0.0359484 -0.04537034 0.02907395
v -0.03899348 -0.04172313 0.03817645
v -0.03794694 -0.03923476 0.03422033
v -0.03908074 -0.03806424 0.0376813
v -0.03883767 -0.03474128 0.03499862
v -0.02542073 -0.05444849 0.01191666
v -0.02954203 -0.05225337 0.01679236
v -0.02487648 -0.05257404 0.01014694
v -0.007857919 -0.06602371 0.003659822
v -0.01745629 -0.06590664 0.00648585
v -0.01156175 -0.06142211 0.004485048
v -0.02524263 -0.06044006 0.0119689
v -0.02884996 -0.06576955 0.01354324
v -0.03270972 -0.06572396 0.01726001
v -0.02886653 -0.04899228 0.01420898
v -0.04036868 -0.0331912 0.03993286
v -0.04146886 -0.02613926 0.03561674
v -0.03018981 -0.04411578 0.01312163
v -0.03164101 -0.04581797 0.01889148
v -0.03112715 -0.04220545 0.01496103
v -0.01970398 -0.0581553 0.00781703
v -0.02505273 -0.05685568 0.01201786
v -0.01865095 -0.05544305 0.005769584
v -0.0344944 -0.04928941 0.02529551
v -0.0372411 -0.04790205 0.03158897
v 0.01519835 0.03840053 -0.03166442
v 0.01649845 0.03440225 -0.04052248
v 0.01452601 0.03843129 -0.03140597
v 0.02132231 0.03406107 -0.03925069
v 0.0163911 0.03391945 -0.04006245
v -0.03164601 -0.05750972 0.01889323
v -0.02284336 -0.06584048 0.009227376
v 0.01701385 0.03522754 -0.04002468
v -0.01457411 -0.05763113 0.00461141
v -0.01736939 -0.06172073 0.006759986
v -0.01745045 -0.05905104 0.006581616
v -0.03312051 -0.032498 0.01794244
v -0.03691852 -0.0316143 0.02737957
v -0.03510606 -0.02686346 0.02065975
v -0.03387439 -0.03643811 0.02185098
v -0.02789664 -0.05479193 0.0148989
v -0.03323317 -0.05517131 0.02163447
v -0.02770287 -0.04773211 0.009777769
v -0.007822394 -0.06138515 0.003661964
v -0.01989937 -0.05389738 0.005334739
v -0.02238595 -0.05183804 0.005305301
v -0.007540524 -0.05782926 0.002632979
v -0.04346436 -0.06560206 0.03854391
v -0.04301375 -0.06284463 0.03701695
v -0.04039472 -0.06563377 0.02890247
v -0.04124701 -0.06358564 0.03136301
v -0.0425719 -0.06028748 0.03693495
v 0.02324027 -0.0609113 0.009611953
v 0.02347571 -0.05849266 0.008699484
v 0.02713144 -0.05995506 0.01205023
v 0.02641535 -0.05725503 0.01006602
v -0.0145548 -0.05511379 0.002555545
v -0.03962737 -0.05834985 0.03039891
v 0.02391618 -0.05630779 0.00683862
v 0.02489686 -0.05446869 0.002522014
v 0.02605695 -0.05601883 0.007710449
v -0.0405885 -0.05361283 0.03755042
v -0.03880584 -0.05177093 0.03348261
v -0.03820133 -0.06565881 0.02467461
v -0.03693438 -0.06080729 0.02445789
v -0.03927374 -0.04684627 0.03811617
v 0.02839994 -0.06187093 0.01356455
v -0.03724653 -0.05219686 0.02957987
v -0.007251322 -0.05622548 0.0014125
v 0.02694029 -0.05445349 0.003036976
v -0.02599615 -0.04903096 0.00702697
v 0.02390105 -0.02902365 0.01148786
v 0.02358532 -0.03037333 0.009807084
v 0.02303404 -0.04507744 0.01254335
v -0.03479028 -0.01943278 0.01839743
v 0.02302676 -0.04723597 0.01141193
v -0.0324201 -0.03657496 0.01564744
v -0.03333318 -0.04122615 0.01037776
v -0.03027421 -0.04374754 0.01160558
v -0.03285831 -0.03872049 0.01288007
v 0.023821 -0.05653584 0.01097092
v 0.02378869 -0.04391015 0.01476865
v 0.02473271 -0.04966527 0.01594234
v 0.02398938 0.0157727 -0.07532235
v 0.0254758 0.003507853 -0.08270857
v 0.02478981 0.01029158 -0.07923672
v 0.01074678 -0.05832458 -0.01979272
v 0.02577329 -0.0009696484 -0.08430053
v 0.02457905 -0.05320799 0.01497598
v 0.008219838 -0.0532403 -0.008119337
v 0.008087158 -0.05414993 -0.0075722
v 0.009282947 -0.05503023 -0.01301091
v 0.02512282 0.007336617 -0.08090281
v 0.02460593 -0.05883861 0.01294041
v 0.01532459 -0.06293619 -0.04068245
v 0.02606773 -0.009649396 -0.08611232
v 0.01183516 -0.06040668 -0.02481385
v 0.01283091 -0.06171811 -0.02937524
v 0.0259527 -0.004944801 -0.08533087
v 0.01602334 0.0358547 -0.03829549
v 0.01240039 0.03062308 -0.02226137
v 0.009807944 -0.05598122 -0.01543186
v 0.01988816 0.02967572 -0.05606028
v 0.01369756 -0.06246364 -0.03332274
v 0.01358408 0.03233254 -0.0275009
v 0.02187961 -0.05193079 -0.06960735
v 0.02480143 -0.03579795 -0.08187153
v 0.0255717 -0.02745688 -0.08487592
v 0.02607453 -0.0143801 -0.08640882
v 0.0183965 -0.06054556 -0.05439275
v 0.01981735 -0.05791062 -0.06064822
v 0.0206058 -0.05596232 -0.06409232
v 0.01462352 0.03333342 -0.03212863
v 0.01638532 -0.0625844 -0.0454427
v 0.025877 -0.0220536 -0.08594918
v 0.02601528 -0.01789248 -0.08633847
v 0.01568538 0.03384387 -0.03688568
v 0.01740175 -0.06179762 -0.04997968
v 0.02393609 -0.03898704 0.01463276
v 0.02620578 -0.0614481 0.01491056
v 0.02519768 -0.03200412 -0.08344445
v 0.02150834 0.02596724 -0.06356975
v 0.02072948 0.02798486 -0.05994679
v 0.02300084 0.02072036 -0.07059007
v 0.02389592 -0.04237878 -0.0781593
v 0.02313107 -0.04660308 -0.07494912
v 0.0222562 0.0236243 -0.06707179
v -0.02986151 0.05449593 0.06088495
v -0.0281772 0.05325067 0.06382481
v -0.03219914 0.05499387 0.0543263
v -0.03259975 0.05603063 0.05262488
v -0.03307527 0.0577966 0.04338989
v -0.03294963 0.05732179 0.04214919
v -0.03254634 0.05851555 0.03971734
v -0.03100824 0.05950773 0.03437816
v -0.02922624 0.05960619 0.03041815
v -0.02802676 0.06073546 0.02843037
v 0.02283865 -0.06089711 0.01215547
v 0.02462721 -0.06142837 0.0141353
v -0.02251816 0.06216133 0.02178258
v 0.02306014 -0.05775636 0.01066016
v -0.02122957 0.06172597 0.02053651
v -0.01323617 0.06361318 0.01560746
v -0.01438308 0.06278431 0.01605212
v -0.005896211 0.06428432 0.01322252
v -0.005374134 0.06362855 0.01300395
v -0.001389921 0.06453812 0.01259319
v 0.004503131 0.06400263 0.01252898
v 0.008828044 0.06466854 0.01328703
v 0.008782744 0.06403959 0.01345679
v -0.006645083 0.04591453 0.0819711
v -0.006670654 0.04688036 0.08213834
v -0.00665009 0.04605532 0.08199649
v -0.01631355 0.04774868 0.07872923
v -0.0165174 0.04704797 0.07847141
v 0.01393181 0.02541888 -0.01191252
v 0.01210946 0.01860845 -0.004081115
v 0.01130426 0.01449335 -0.0006826147
v 0.02329302 -0.06091082 0.01153829
v 0.01610625 0.0305295 -0.0214261
v 0.01066792 0.01050544 0.001961745
v 0.009078801 -0.006228924 0.008185584
v 0.009585142 0.001112938 0.006314814
v 0.02434385 -0.0527041 0.005121984
v 0.01539099 0.02916443 -0.01827916
v 0.01011097 0.006255388 0.004233047
v 0.01192909 -0.05328649 -0.00729638
v 0.008615911 -0.01289237 0.009898338
v 0.008857131 -0.006228328 0.009184554
v 0.00786221 -0.01673651 0.01308001
v 0.01046509 -0.05326146 -0.0006977282
v 0.007041693 -0.02215946 0.0164736
v 0.006632209 -0.0256511 0.01812401
v 0.00610739 -0.03160608 0.02015531
v 0.009979546 -0.05357468 0.001471285
v 0.005845428 -0.03598392 0.02109015
v 0.009278297 -0.0550859 0.004547801
v 0.008933604 -0.05646932 0.006025158
v 0.008657217 -0.0582571 0.007170834
v 0.008500516 -0.05997664 0.00778022
v 0.00838697 -0.06552541 0.007981222
v 0.01304424 0.02246785 -0.008077942
v 0.0278182 0.06248033 0.0247154
v 0.01836729 0.06366503 0.01695051
v 0.03783989 0.001266003 0.06954242
v 0.03870118 -0.008275628 0.06852555
v 0.0403983 0.0001279116 0.06467069
v 0.03605622 -0.009632111 0.07271193
v 0.04311889 -0.006453872 0.03716657
v 0.04304188 -0.0205853 0.03659846
v 0.04185718 -0.02049875 0.03252552
v 0.0385685 0.002780557 0.02589775
v 0.04047483 0.0001437664 0.02962355
v 0.03809476 -0.01526272 0.02450193
v 0.03726596 0.00222528 0.02365897
v 0.02570337 -0.0524798 -0.0009651259
v 0.02456057 -0.04140532 0.004768562
v 0.04147911 -0.01101863 0.06263485
v 0.04156834 0.0002161264 0.0617332
v 0.04072011 -0.02152836 0.02967568
v 0.02661717 -0.05451524 -0.00523404
v 0.0261631 -0.05102485 -0.002991982
v 0.0267415 -0.05348372 -0.005736802
v 0.04285383 -0.00927043 0.05829528
v 0.04246807 0.0006467104 0.05885075
v 0.04380941 -0.01128662 0.05381416
v 0.04320741 0.009072423 0.05363069
v 0.04399139 0.0008383989 0.04986687
v 0.0441854 -0.00958693 0.05032831
v 0.04422951 -0.02025008 0.04975621
v 0.0440765 -0.0004969835 0.04521447
v 0.04407412 -0.009376049 0.04266971
v 0.04215187 -0.02161419 0.06051358
v 0.04342318 0.005234122 0.04053786
v 0.04332078 -0.02180016 0.05608068
v 0.0442853 -0.02084887 0.04597001
v 0.0290283 0.0005446672 0.08022971
v 0.02485424 -0.001679301 0.08357082
v 0.02781296 -0.009107828 0.08145833
v 0.04210734 0.01336908 0.03597561
v 0.03200257 -0.004695058 0.07751331
v 0.03609973 2.586842e-05 0.07231111
v 0.0334025 0.005767703 0.07546076
v 0.04183751 0.0006042719 0.03323936
v 0.03268558 -0.0118835 0.07688024
v 0.00510782 0.0425874 0.08515754
v -0.001108468 0.04275143 0.08521396
v -0.0006097555 0.03836834 0.08655252
v 0.01121819 0.03935039 0.08503876
v 0.00737071 0.03679621 0.08633734
v 0.009146452 0.02831924 0.08750942
v 0.01279682 0.0274241 0.0868731
v 0.002350748 0.02586818 0.08863096
v 0.002560019 0.0366993 0.08686809
v -0.001060247 0.02965665 0.0882154
v -0.00430584 0.02642035 0.08846682
v 0.007643759 0.02244937 0.08845058
v 0.005748212 0.008860469 0.08981404
v 0.01010495 0.007891774 0.08922094
v 0.01122558 0.02168357 0.08792214
v -0.004171729 0.03178322 0.08767658
v 0.0004733205 0.01760817 0.08960137
v 0.01465422 0.007664561 0.08812034
v 0.01235503 -0.002729893 0.08915383
v -0.007409394 0.0308131 0.08733983
v -0.00539273 0.01833546 0.08922614
v 0.0006038547 0.002929688 0.09054592
v -0.002356529 0.005460382 0.09039256
v 0.005148768 -0.003239632 0.09044866
v -0.006230295 0.01081073 0.08970145
v -0.007910013 0.01777053 0.08886581
v 0.01164997 0.04883564 0.08138651
v 0.005122364 0.04492342 0.08433156
v 0.01033252 0.04436398 0.08371015
v 0.01256478 0.04552174 0.0826922
v 0.006527305 0.04821157 0.08264388
v 0.004107296 0.04759109 0.08310096
v -0.006437898 0.04447687 0.08372645
v -0.00701189 0.0379622 0.08594858
v 0.01475668 0.01508451 0.08761472
v -0.005645394 -0.004080653 0.09044248
v 0.02793878 0.02636826 -0.01057477
v -0.008498371 -0.008179784 0.09006261
v -0.00608623 0.04687941 0.08227785
v 0.01311994 0.05117428 0.07948989
v 0.02301127 -0.022066 0.08467263
v 0.02535355 -0.0221628 0.08315288
v 0.02072364 -0.01264966 0.08609259
v 0.01795655 -0.006996751 0.08737127
v 0.01954168 -0.02327895 0.08644546
v 0.01482522 -0.01179039 0.08858311
v 0.0138979 -0.02119136 0.08886269
v -0.01521963 -0.05217052 0.08522302
v -0.02176481 -0.05456662 0.08274318
v -0.01823974 -0.05950457 0.08634923
v -0.02314883 -0.05943942 0.08371048
v -0.02630544 -0.05922878 0.08147988
v -0.02451462 -0.06298709 0.0835977
v -0.02828437 -0.05184913 0.07685981
v -0.03185475 -0.05751926 0.07575218
v -0.00976938 -0.06367958 0.08991101
v -0.0141775 -0.0609408 0.08830413
v -0.01677984 -0.06595492 0.0878213
v 0.02575177 0.01622355 0.0009634793
v 0.02552694 0.01139569 0.004573874
v -0.01846415 -0.06179512 0.0867777
v -0.0278579 -0.06581515 0.08132938
v -0.009810865 -0.06604189 0.08996442
v -0.009635389 -0.06055748 0.08948274
v -0.02345169 -0.05190891 0.08077393
v -0.00913775 -0.05411553 0.08760053
v -0.02329302 -0.06587195 0.08452564
v -0.03277665 -0.06115162 0.07612503
v -0.03190082 -0.06576377 0.07762558
v -0.03476882 -0.05933642 0.0730807
v -0.03317058 -0.05240077 0.07161132
v -0.03531694 -0.0657196 0.07365313
v 0.02704465 0.05400109 0.06930877
v 0.01310569 0.05057955 0.07928376
v 0.02084464 0.05336976 0.0746935
v -0.01819348 -0.06519902 0.009932775
v -0.01072711 -0.06598985 0.007131211
v -0.009827495 -0.06530041 0.006571099
v -0.02434534 -0.06582534 0.0135837
v -0.0258196 -0.06510735 0.01471119
v -0.03100133 -0.06574619 0.01959309
v -0.03405219 -0.06501013 0.02348555
v -0.03770077 -0.06566876 0.02984973
v -0.03950828 -0.06494844 0.03453911
v -0.041278 -0.06563109 0.04311623
v -0.04112208 -0.06493211 0.04188872
v -0.04046315 -0.06494701 0.05591571
v -0.04032093 -0.06564963 0.0565643
v -0.03798914 -0.0656817 0.06351723
v -0.03816247 -0.06497884 0.06309934
v -0.03381747 -0.06573653 0.07089162
v -0.03440332 -0.06502861 0.07002342
v -0.02872121 -0.06510186 0.07676218
v -0.02401567 -0.06586224 0.0806282
v -0.01641107 -0.06525761 0.08486555
v -0.01172155 -0.06601667 0.08654933
v -0.009182811 -0.06534779 0.08717407
v -0.007038772 -0.06607485 0.08760308
v -0.007878125 -0.05945867 0.004064053
v -0.006435573 -0.05339038 -0.00209697
v -0.005883574 -0.05374563 -0.004609063
v -0.005893946 -0.05304575 -0.004518244
v -0.006743789 -0.05465293 -0.0007789768
v -0.00705409 -0.05467391 0.0006190017
v -0.007548034 -0.05670649 0.002730455
v -0.004608035 -0.0537616 -0.01035104
v -0.004604638 -0.0530647 -0.01034458
v 0.02742702 0.02435482 -0.007597819
v 0.026407 0.01996756 -0.002463445
v -0.03279626 -0.02032685 0.07603982
v -0.03080863 -0.02101147 0.07815561
v -0.02807969 -0.0109849 0.08049963
v -0.02336979 -3.98159e-05 0.08345731
v -0.0252943 -0.004438281 0.08239323
v -0.02171266 -0.01983011 0.08513795
v -0.01942128 -0.00955236 0.08617778
v -0.01866394 0.005414605 0.08590366
v -0.03041285 0.001669765 0.07789358
v -0.01613659 -0.003417611 0.08753666
v -0.02696371 -0.02083874 0.08157979
v -0.0335142 -0.0005019903 0.07473741
v -0.03645402 -0.003727555 0.07089351
v -0.03816545 -0.00638485 0.06806776
v -0.0370242 -0.02075493 0.07034676
v -0.01774889 -0.02104712 0.08716658
v -0.01365632 -0.02103639 0.08876546
v -0.01384199 0.0113194 0.0876738
v -0.01136678 -0.002439022 0.08919559
v -0.02529776 0.005267382 0.08184106
v -0.0378648 0.002188087 0.06797683
v -0.02738988 0.004869342 0.08031457
v -0.009111881 -0.01014626 0.08994704
v -0.008739591 0.009002686 0.089341
v -0.00925833 -0.02177584 0.08995619
v 0.02906704 0.02948117 -0.01629872
v -0.008103192 -0.06532049 0.004324831
v 0.0386554 -0.02357388 0.02592209
v 0.04042667 -0.02567089 0.03036503
v 0.04369307 -0.02565038 0.04460712
v 0.04387391 -0.02088761 0.04115005
v 0.04341882 -0.02575612 0.05253054
v 0.0430792 -0.02783763 0.05027136
v 0.04113793 -0.0343858 0.04897001
v 0.04258126 -0.02580035 0.0571257
v 0.03966326 -0.03505147 0.03661352
v 0.04205459 -0.02560878 0.03498499
v 0.04302329 -0.02565205 0.03921398
v 0.04164261 -0.03146255 0.0415674
v 0.03589654 -0.0342108 0.02681154
v 0.03690755 -0.02679527 0.02413924
v 0.03888726 -0.02784526 0.0283241
v 0.04101467 -0.0349406 0.04575168
v 0.03373086 -0.02594054 0.01906225
v 0.0296858 0.03133523 -0.02112975
v 0.03693026 -0.02136075 0.02275237
v 0.02973217 -0.03535545 0.01761404
v 0.02673215 -0.0335145 0.01304037
v 0.01805109 0.03935361 -0.02692731
v 0.03178018 -0.02543437 0.01640278
v 0.03130746 -0.02228355 0.01556193
v 0.02796745 -0.02431571 0.01243361
v 0.02676839 -0.02755332 0.01147383
v 0.004492044 0.04712033 0.08278501
v 0.03491622 0.0601486 0.03830514
v 0.03269708 0.06182718 0.03224434
v 0.008778274 0.0639571 0.01347232
v 0.03503519 0.06066477 0.03882743
v 0.03595871 0.05906177 0.04750536
v 0.03597927 0.05875182 0.04590906
v 0.03444153 0.05667651 0.05663024
v 0.033584 0.05679059 0.05909267
v 0.03157139 0.05592847 0.06326298
v 0.02771729 0.05476081 0.06866135
v -0.01727766 -0.02604318 0.08665019
v -0.01523846 -0.02341127 0.08801818
v -0.02411503 -0.02545309 0.08301456
v -0.02796572 -0.02353776 0.08051348
v -0.0217998 -0.02318037 0.08491036
v -0.03217155 -0.02585292 0.0757864
v -0.03525543 -0.02552807 0.07201123
v -0.0305075 -0.03333008 0.07443185
v -0.02274477 -0.0346452 0.08084458
v -0.0266791 -0.02592337 0.08097903
v -0.03402579 -0.02369857 0.0742272
v -0.02720857 -0.03130257 0.07844914
v -0.008828819 -0.03243196 0.08742306
v -0.009139538 -0.02689242 0.08913372
v -0.01299429 -0.03354919 0.08597639
v -0.01761544 -0.03349364 0.08410048
v 0.03228593 -0.04454768 0.02314097
v 0.03484362 -0.04166698 0.02723213
v 0.03596467 -0.04785943 0.02906699
v 0.03515971 -0.03792727 0.02701147
v 0.02613306 -0.04016125 0.01357936
v 0.02599853 -0.04523373 0.0135803
v 0.02734411 -0.04952496 0.01534952
v 0.03349346 -0.05357325 0.02286698
v 0.03183901 -0.04923546 0.02182814
v 0.03392607 -0.06130123 0.0199338
v 0.03107136 -0.05470645 0.01901519
v 0.02916783 -0.05344695 -0.005146004
v 0.02719432 -0.05396175 0.004429206
v 0.02962506 -0.05398285 -0.004513822
v 0.03780764 -0.06067812 0.02603886
v 0.03608167 -0.06313854 0.02244079
v 0.03334624 -0.06653881 0.01860595
v 0.02661699 -0.04345834 0.003844328
v 0.03639859 -0.05251741 0.02825207
v 0.02658367 -0.02440107 0.01456336
v 0.02486724 -0.0243398 0.01282651
v 0.02490926 -0.02472115 0.01386939
v 0.0233447 -0.02532804 0.01112459
v 0.02511376 -0.02438068 0.01170921
v 0.02317321 -0.06640899 0.00975731
v 0.02343071 -0.06641328 0.01220721
v 0.02550793 -0.03668809 0.007672161
v 0.02463013 -0.06642914 0.01418995
v 0.005949378 0.03084505 -0.05548144
v 0.002102792 0.03120935 -0.05392046
v 0.005862832 0.03554666 -0.04045704
v 0.006188512 0.02948058 -0.05939735
v -0.008372545 0.02800524 -0.05932759
v -0.005227864 0.02986705 -0.0540747
v -0.03120661 0.01357448 0.0110419
v -0.03203213 0.01108229 0.0123774
v -0.03241527 0.01042831 0.01499522
v -0.00822705 0.0299648 -0.04938522
v -0.003591657 0.03191066 -0.04788383
v -0.009285271 0.03012884 -0.04551978
v -0.007994831 0.03232169 -0.04006903
v -0.02860409 0.01840246 0.00379882
v -0.02936167 0.01846552 0.007744707
v -0.00102067 0.03230631 -0.04880391
v -0.02322477 0.02374816 -0.01654575
v -0.02328825 0.02330458 -0.01207459
v -0.01638061 0.02774441 -0.03615651
v -0.0001156926 0.02912462 -0.05986036
v 0.02566421 -0.03063166 0.01019941
v -0.01334685 0.02879608 -0.03802881
v -0.01592648 0.02772391 -0.03095907
v -0.02905464 0.01876771 0.0003994629
v -0.03131235 0.01550555 0.006652534
v -0.02668583 0.02185738 0.0008789077
v -0.02050209 0.02518022 -0.01915967
v -0.01918989 0.0271554 -0.01883779
v -0.01549202 0.02935922 -0.02725468
v -0.01254988 0.03100526 -0.03254458
v -0.01075864 0.03091192 -0.03773886
v -0.03430617 -0.01384366 0.01602669
v -0.03425652 -0.0008038282 0.01473016
v -0.03476733 -0.01762402 0.01545537
v -0.03311962 0.004470706 0.01480848
v -0.03395212 -0.006509781 0.01660115
v -0.03343606 0.003733754 0.01681104
v -0.0128172 0.02918184 -0.04623377
v 0.03006047 0.03279352 -0.0267283
v -0.01062304 0.03430748 -0.02958828
v 0.02986753 0.03332233 -0.0299205
v -0.01046067 0.02902496 -0.0533964
v -0.03321415 0.01013851 0.01190236
v 0.0269025 0.0337739 -0.03590283
v 0.02504462 -0.02006674 0.01232405
v 0.0256775 -0.01516497 0.01271193
v 0.02326316 -0.01425266 0.01214555
v 0.03957635 0.04928994 0.04650551
v 0.03978282 0.04490113 0.05188219
v 0.04204118 0.03039694 0.04780716
v 0.03167552 0.05400455 0.065833
v 0.02961433 0.0493747 0.07095809
v 0.03439289 0.0547055 0.06131586
v 0.04111367 0.03640962 0.05082759
v 0.04235095 0.01661456 0.05553629
v 0.04309863 0.01722777 0.04987878
v 0.02352601 -0.00641036 0.01139243
v 0.03792495 0.05568659 0.03991479
v 0.03787559 0.05698979 0.04494549
v 0.03973639 0.04628718 0.04034744
v 0.03514612 0.05267084 0.06162934
v 0.03460062 0.04869354 0.06463558
v 0.03743166 0.05719984 0.04906453
v 0.03900546 0.05231416 0.0472274
v 0.03499258 0.04221857 0.06645156
v 0.0360738 0.03414524 0.06708007
v 0.0378654 0.03790104 0.06224391
v 0.03704995 0.05041885 0.03215237
v 0.04004323 0.03908777 0.03658525
v 0.03933632 0.03950012 0.03410345
v 0.03719658 0.05308366 0.05644546
v 0.02552319 -0.03732455 0.01123492
v 0.04207271 0.009046912 0.05876978
v 0.03494751 0.04729438 0.02631279
v 0.03429544 0.05704796 0.02924148
v 0.04068196 0.03620446 0.05377109
v 0.02524072 0.04640269 0.07603966
v 0.02773046 0.04465902 0.07462786
v 0.03707057 0.04038548 0.02844769
v 0.04024333 0.02966928 0.03362771
v 0.04092824 0.03040278 0.0363652
v 0.04105049 0.0155164 0.03283118
v 0.03871655 0.02501988 0.06427318
v 0.03649497 0.02196491 0.06914949
v 0.03921127 0.01475894 0.06535026
v 0.03947288 0.008274198 0.065777
v 0.03628176 0.05699944 0.0539111
v 0.03779268 0.05416787 0.03725782
v 0.03814965 0.05253267 0.05336747
v 0.02589834 0.03722322 0.07842041
v 0.02106458 0.04034162 0.08091253
v 0.02144188 0.0310384 0.08289289
v 0.02971125 0.03306437 0.07588276
v 0.02647561 0.0312438 0.07926269
v 0.02849406 0.0283885 0.07800241
v 0.02595991 -0.03756797 0.007924248
v 0.03293508 0.02899063 0.07299946
v 0.0435797 0.008995771 0.04331937
v 0.03197396 0.04388058 0.07030632
v 0.03274149 0.03955746 0.07066628
v 0.04318672 0.0176791 0.04661623
v 0.03689373 0.0317992 0.02618795
v 0.03544468 0.01026034 0.07243302
v 0.03227174 0.06096613 0.02861575
v 0.03414083 0.05920005 0.03058028
v 0.02748144 0.05279303 0.07100384
v 0.04221612 0.02364421 0.03987919
v 0.03606528 0.05713451 0.03368795
v 0.03617817 0.05948436 0.03811021
v 0.03674221 0.05866385 0.04667632
v 0.04071617 0.0291518 0.05738376
v 0.03940696 0.03984678 0.05705264
v 0.04011172 0.02258837 0.06148264
v 0.03353304 0.02006733 0.07377231
v 0.02454877 0.04889143 0.07549024
v 0.02245015 0.04611123 0.07806034
v 0.03018391 0.01505268 0.07816672
v 0.03946298 0.02317929 0.03001039
v 0.02849323 -0.01448405 0.01555949
v 0.02130991 0.05103779 0.07632615
v 0.03841913 0.01563799 0.02668366
v 0.02769315 0.02122056 0.07979138
v 0.0412249 0.03776109 0.04454085
v 0.03040946 -0.01537514 0.01675146
v 0.0353694 -0.02449501 0.02378043
v 0.0336315 -0.0204978 0.0211787
v 0.03216779 -0.03986883 0.02735917
v 0.03294653 -0.03330684 0.02645929
v 0.03291118 -0.01822436 0.01950702
v 0.03401524 -0.0279578 0.02500586
v 0.03408623 -0.02449691 0.0235048
v 0.02281541 -0.01425278 0.01415578
v 0.023067 -0.01304758 0.01308929
v 0.02811366 0.008271217 0.08063103
v 0.03012556 -0.05099201 0.0236678
v 0.02925318 -0.04498911 0.02332357
v 0.02985364 -0.0395689 0.0239929
v 0.02467543 0.01003861 0.08320865
v 0.02316546 -0.009528875 0.01284232
v 0.02330786 -0.00640738 0.01237584
v 0.03064859 -0.03371489 0.02334619
v 0.02491736 -0.02037847 0.01281824
v 0.03309768 -0.02445185 0.02063544
v 0.03165483 -0.02008474 0.01813435
v 0.01775604 0.02633417 0.08540887
v 0.01465029 0.03909385 0.08411035
v 0.02166474 0.02549636 0.08365423
v 0.01813215 0.03767395 0.0831279
v 0.02252352 0.01938081 0.08387975
v 0.02220351 0.0005389452 0.0851928
v 0.01900482 0.0176245 0.08585416
v 0.01730645 0.05009019 0.07874138
v 0.01756757 0.04370892 0.0815596
v 0.01742077 0.002285123 0.08738738
v -0.02346498 -0.03674567 -0.06588472
v -0.01693207 -0.03812778 -0.07139629
v -0.01828116 -0.0411557 -0.06770798
v 0.0002053976 -0.02766812 -0.0865019
v -0.0005813241 -0.03308833 -0.08441534
v -0.008442819 -0.02801764 -0.08206812
v -0.01303065 -0.01730692 -0.08090399
v -0.01583195 -0.02042866 -0.07864328
v -0.01916993 -0.01721919 -0.07618254
v -0.008952737 -0.03099966 -0.08081168
v -0.006234825 -0.03478467 -0.08084054
v -0.01293731 -0.03495324 -0.07646395
v -0.02415496 -0.03974915 -0.06228604
v -0.01880145 -0.02409089 -0.07570858
v -0.0267635 -0.02918172 -0.06654044
v -0.02462441 -0.03378117 -0.06662975
v -0.02955312 -0.03448474 -0.05994851
v -0.0217787 -0.03332758 -0.06984802
v -0.01422441 -0.02832139 -0.07821378
v -0.02034706 -0.03093469 -0.07232972
v -0.02227944 -0.02678752 -0.07196166
v -0.01060385 -0.02110493 -0.08217312
v -0.02504444 -0.0235889 -0.06991462
v -0.004820108 -0.02631605 -0.08449226
v -0.01359802 -0.03719401 -0.07473871
v -0.01555514 -0.01375055 -0.0791251
v 0.0006915927 -0.02253699 -0.08772616
v -0.009742379 -0.01428509 -0.08307114
v -0.002164841 -0.01318467 -0.08700923
v -0.004216194 -0.01935112 -0.08590618
v -0.02061874 -0.01411092 -0.07492814
v -0.02400607 -0.01268935 -0.07157288
v -0.009477317 -0.04096413 -0.07526471
v -0.0057742 -0.04978955 -0.06994925
v -0.01007515 -0.04663444 -0.06993841
v -0.003542125 -0.04475629 -0.07624521
v -0.01355141 -0.04430461 -0.06927966
v -0.001560867 -0.03793204 -0.08174828
v 0.001030743 -0.01352537 -0.08838545
v -0.01457334 -0.04829192 -0.06356262
v -0.01634395 -0.05227226 -0.05301022
v -0.01415288 -0.05568314 -0.04584596
v -0.02004069 -0.05103254 -0.04673838
v -0.0142715 -0.05107939 -0.05939636
v -0.01157421 -0.05565763 -0.05333146
v -0.01800644 -0.04860497 -0.05833292
v -0.0204981 -0.04904896 -0.05244881
v -0.02522206 -0.04077113 -0.05949398
v -0.02146286 -0.05166554 -0.02448153
v -0.02048355 -0.05161071 -0.0400589
v -0.0160774 -0.05492294 -0.04023103
v -0.028382 -0.04237354 -0.04952091
v -0.02885211 -0.04341638 -0.0442916
v -0.03071386 -0.03898132 -0.0513083
v -0.02169645 -0.04608321 -0.05680706
v -0.02622175 -0.0415566 -0.05655941
v -0.01800001 -0.04611254 -0.06242403
v -0.02447844 -0.04799843 -0.04230674
v -0.02665776 -0.04725301 -0.02999922
v -0.02384681 -0.04611397 -0.05203453
v -0.03753871 -0.03609765 -0.03463764
v -0.03320676 -0.0407505 -0.03439486
v -0.03174508 -0.03633046 -0.05389452
v -0.02787036 -0.04538786 -0.038661
v -0.00842154 -0.05356848 -0.06240134
v -0.03602707 -0.03645909 -0.04026072
v 0.02622914 0.03414261 -0.03695408
v 0.03031939 -0.02444816 0.0183732
v 0.02452773 -0.03307533 0.0142073
v 0.02887511 -0.03305066 0.02005325
v 0.02835524 -0.0385133 0.0211129
v 0.03072804 -0.0618003 0.01987197
v 0.02762365 -0.05576313 0.0183827
v 0.01141632 0.05580068 0.003896207
v 0.01438379 0.04746544 -0.0099447
v 0.03815401 -0.02151549 0.06941857
v 0.0292387 -0.02337873 0.07998046
v 0.03940326 -0.02330124 0.06693253
v 0.03348535 -0.0220722 0.07586818
v 0.03606606 -0.02347243 0.07239711
v 0.02561903 -0.04643643 0.009573206
v -0.00797683 -0.03679025 0.08610885
v -0.008148968 -0.03475583 0.08699892
v -0.008673787 -0.02216434 0.09006913
v -0.007981598 0.01107752 0.08881168
v -0.008122861 -0.04578161 0.08626283
v -0.00810343 -0.04851437 0.08602168
v -0.008934557 -0.05882609 0.08919017
v -0.008826196 -0.0590111 0.0886906
v -0.009222925 -0.06604874 0.09010793
v -0.008615255 -0.0252918 0.08963072
v -0.009182751 -0.0653491 0.08717404
v -0.03448504 -0.04029965 -0.02378206
v -0.03911257 -0.0351516 -0.02817237
v -0.03098303 -0.04357183 -0.02652839
v -0.02778208 -0.04696631 -0.005970404
v -0.0288406 -0.04572773 -0.02067262
v -0.03207493 -0.0429163 -0.00548809
v -0.03596127 -0.03887868 -0.01224244
v -0.04067719 -0.03351033 -0.0206508
v -0.02881712 0.01771641 -0.002776183
v -0.02612084 0.0197916 -0.00837341
v -0.02626234 0.01974273 -0.008316003
v -0.02519882 0.02080381 -0.01289002
v -0.02626002 0.01976407 -0.008415319
v -0.0308044 0.01440632 0.005026184
v -0.03252149 0.01210666 0.007534891
v -0.03139085 0.01441824 0.004330777
v -0.03231567 0.01084602 0.009284914
v -0.03338003 0.009489179 0.009736188
v -0.03418189 0.00612247 0.01097292
v -0.03313845 0.006676316 0.01152126
v -0.03488648 -0.0003348589 0.01220651
v 0.006495059 -0.06564158 0.08761401
v 0.0169602 -0.06576902 0.08438135
v 0.0244683 -0.06585944 0.07989787
v 0.03285819 -0.06595862 0.07144326
v 0.03931567 -0.06603152 0.05827068
v 0.0428763 -0.06167328 0.040402
v 0.04304594 -0.06463313 0.03935154
v 0.04253781 -0.06167275 0.03845993
v 0.03739542 -0.06599432 0.03037973
v 0.0396415 -0.06602514 0.03694494
v 0.04086024 -0.06604612 0.04886137
v 0.04216638 -0.0623889 0.05776311
v 0.04064864 -0.06061274 0.0616145
v 0.04000109 -0.06239402 0.06418269
v 0.001558483 -0.06558108 0.08813491
v 0.001519084 -0.06618059 0.08814909
v 0.04225928 -0.06666803 0.05833425
v 0.04057834 -0.06664973 0.06339061
v 0.03744608 -0.06659102 0.02433378
v 0.01203185 -0.06630945 0.08629972
v 0.02038306 -0.06641036 0.08261228
v 0.03038901 -0.06652963 0.07448892
v 0.03559628 -0.06659013 0.06719083
v 0.04186067 -0.05940843 0.05634657
v 0.03914455 -0.06662983 0.05882725
v 0.04289275 -0.06075335 0.05223867
v 0.04040354 -0.05303907 0.05415943
v 0.0407958 -0.066643 0.04421582
v 0.01480168 -0.06267905 0.08816162
v 0.02036297 -0.05892861 0.08479093
v 0.01221281 -0.06039369 0.08860764
v 0.03693545 -0.06658816 0.02935976
v 0.02772099 -0.06646848 0.0167994
v -0.04001713 -0.01385319 0.002390839
v -0.04021907 -0.01315176 0.0009420365
v -0.04102105 -0.01468909 -0.0003046915
v -0.03459698 -0.04020321 -0.005075663
v -0.03562921 -0.03804696 0.001262732
v -0.0421505 -0.03063405 -0.01098447
v -0.0361464 -0.03808796 -0.002464272
v -0.04177117 -0.03166223 -0.01394916
v -0.0329259 -0.03932202 0.009231631
v -0.0396291 -0.03194201 -0.002064317
v 0.02597588 -0.05984604 0.08141319
v 0.02470297 -0.05281615 0.07981503
v 0.01836705 -0.05416572 0.0841619
v -0.03142565 -0.04288733 0.004751403
v -0.03366041 -0.03521276 0.0115128
v -0.03583574 -0.03542113 0.005748361
v -0.03689009 -0.0327847 0.005219437
v 0.04274377 -0.05918503 0.04962895
v 0.01122916 -0.06630075 0.08949382
v 0.02185613 -0.06642938 0.0850454
v 0.0230512 -0.06277913 0.08412271
v -0.04253089 -0.02773821 -0.007123768
v -0.04075676 -0.02679455 -0.001506299
v -0.03502852 -0.006550908 0.01310975
v -0.03407729 -0.01044858 0.0136243
v -0.0358091 -0.01501334 0.0130158
v -0.03412396 -0.02439606 0.01325467
v -0.00540632 -0.0526576 -0.0707778
v 0.002710879 -0.05573756 -0.06695464
v -0.003523946 -0.0570749 -0.06339281
v 0.004453599 -0.05941558 -0.05942368
v 0.002101123 -0.06088448 -0.05477086
v -0.001423299 -0.05879104 -0.06008637
v 0.04331708 -0.06667852 0.05311187
v -0.007031679 -0.05499732 -0.06638699
v -0.004496753 -0.05864036 -0.05922337
v 0.0009478331 -0.06188446 -0.04981069
v -0.002676249 -0.06078541 -0.05302311
v -0.009284794 -0.05744588 -0.05977361
v -0.002512097 -0.0617218 -0.04787841
v -0.006485879 -0.06071043 -0.04902972
v 0.007384121 -0.02793014 -0.0882952
v 0.006323695 -0.03579378 -0.08536045
v 0.001059353 -0.0287962 -0.08890568
v 0.00026232 -0.03463733 -0.0866434
v 0.001616955 -0.02397513 -0.09015953
v 0.01100647 -0.02351499 -0.0886998
v 0.01106519 -0.02070284 -0.08912265
v 0.006210566 -0.04091108 -0.08239061
v -0.0006148219 -0.0390197 -0.08425495
v -0.01839232 -0.05597717 -0.02795152
v -0.01899117 -0.05630291 -0.03155062
v -0.008848608 -0.0602774 -0.03753224
v 0.04351145 -0.06240612 0.04709619
v 0.00190866 -0.01918495 -0.09085144
v -0.01279986 -0.05879718 -0.04961141
v 0.001767695 -0.06247908 -0.04457834
v -0.005110264 -0.06151307 -0.04344504
v 0.0005165935 -0.06235343 -0.03920019
v -0.0034554 -0.06177533 -0.03859597
v -0.0005886555 -0.06140435 -0.03284324
v -0.002140403 -0.06063032 -0.03024822
v -0.006369412 -0.05926716 -0.02824963
v 0.02813536 -0.05430996 0.07741363
v 0.01126909 -0.01393783 -0.08943629
v -0.01079935 -0.05984092 -0.04191964
v 0.02913052 -0.06226921 0.07943231
v -0.01539683 -0.05815017 -0.04217274
v 0.009461164 -0.0413413 -0.08162249
v 0.03106511 -0.0607245 0.07715324
v 0.003313363 -0.04532111 -0.07933576
v 0.008690834 -0.04482567 -0.07915732
v -0.001875162 -0.05876076 0.09001559
v -0.002762854 -0.05252397 0.08806684
v -0.002497733 -0.05893898 -0.0252215
v 0.008151174 -0.0482446 -0.07615449
v 0.0280385 -0.06650364 0.08069202
v -0.004407525 -0.05755901 -0.02262798
v 0.006896079 -0.05277508 -0.07115208
v 0.00271982 -0.05297738 -0.0711202
v 0.04296345 -0.06063533 0.04263914
v 0.03289104 -0.05150402 0.07105538
v -0.002286375 -0.04507232 -0.0797203
v -0.003286064 -0.06245899 0.09071629
v 0.04373586 -0.06668115 0.047801
v 0.002046883 -0.04961509 -0.07522126
v 0.002043784 -0.01219141 -0.09096827
v 0.005369961 -0.05695248 -0.0647707
v 0.01053053 -0.03340089 -0.08577815
v 0.03406522 -0.05932045 0.07312281
v 0.002815723 -0.05347764 0.08825831
v 0.008549452 -0.008660793 0.0901233
v 0.01097769 -0.02119434 0.08970939
v 0.005774677 -0.02096581 0.09068277
v -0.001202464 -0.006556273 0.09085415
v 0.002737045 -0.02060187 0.0909683
v 0.001955807 -0.008337259 -0.09058142
v -0.01400828 -0.05234385 -0.005409248
v -0.01600713 -0.05503547 -0.02176465
v -0.0120768 -0.05440152 -0.01795714
v -0.02366942 -0.05332911 -0.01769929
v -0.005094826 -0.05583477 -0.01939128
v -0.01680875 -0.05253649 -0.002350722
v -0.0201683 -0.05169976 -0.004097644
v 0.004456818 -0.05873466 0.08976681
v -0.004058659 -0.05395186 -0.01274838
v -0.01075643 -0.05320072 -0.01187389
v -0.01607394 -0.05223691 -0.007762708
v -0.02173966 -0.0517118 -0.008638803
v -0.0268411 -0.05093724 -0.008548103
v -0.01483148 -0.05359399 -0.0001296028
v -0.0006568432 -0.06249088 0.09082049
v 0.03305012 -0.06289798 0.07550217
v 0.03177771 -0.06654805 0.07718711
v 0.02613544 -0.04942787 0.0134298
v 0.002121329 -0.06618929 0.09095933
v 0.0415619 -0.0588482 0.03709069
v 0.03807902 -0.05299568 0.0316886
v 0.03975022 -0.05301762 0.03682619
v 0.02585727 -0.05118376 0.01210005
v 0.04073548 -0.06071705 0.03255702
v -0.02004516 -0.05189359 0.0004176609
v 0.007922232 -0.0526461 0.08736575
v 0.04304326 -0.06666815 0.0392538
v -0.02364469 -0.05041528 0.003727935
v -0.02641767 -0.04859936 0.002940595
v -0.02130383 -0.05133021 -0.001818232
v -0.03075558 -0.04669726 0.002997607
v 0.03545618 -0.06659132 0.07271066
v -0.03229058 -0.04406488 0.007267445
v -0.02899289 -0.04584897 0.008877318
v -0.0299418 -0.04602945 0.005286124
v 0.03599891 -0.06067747 0.07096515
v 0.03574073 -0.05496526 0.06823181
v 0.04122818 -0.06664252 0.03234735
v 0.02710849 -0.06645894 0.01252525
v 0.004588604 -0.0625546 0.09055616
v -0.02862841 -0.001681089 -0.05990756
v -0.02883226 -0.002364039 -0.06077974
v -0.02768368 -0.006257892 -0.06377268
v -0.0270372 -0.00710237 -0.06406397
v -0.03176701 0.001832604 -0.05087262
v -0.03335363 0.001614213 -0.04761586
v -0.03077561 0.0009942055 -0.05534181
v -0.02696389 -0.01149452 -0.06559878
v -0.02640063 -0.01366282 -0.06571887
v 0.0004392862 0.00692904 -0.08559261
v 0.0009329915 0.003681064 -0.08717085
v -0.0008137226 0.01285875 -0.08177628
v 0.03875509 -0.06059527 0.06610043
v 0.0373584 -0.05388713 0.06448871
v 0.001384437 -5.340576e-05 -0.0886183
v -0.03817028 -0.004309773 0.02560854
v -0.04117292 -0.00545013 0.03323214
v -0.03775585 0.01296508 0.02740963
v 0.008459926 -0.06257796 0.08994772
v -0.03863961 -0.01721585 0.02571992
v -0.03782958 -0.009992719 0.02421436
v -0.03792429 -0.02181911 0.02488906
v -0.04240072 -0.005162597 0.0379461
v -0.04197514 -0.01313889 0.0350906
v -0.04224938 -0.02060926 0.03574235
v -0.03997791 -0.01688945 0.02887199
v -0.04112965 0.004534602 0.03505024
v 0.03716344 -0.06479013 0.07010575
v 0.01156962 -0.05268121 0.08646528
v -0.03507131 -0.02791071 -0.04141729
v -0.03455299 -0.02982461 -0.04502477
v -0.03695887 -0.02133048 -0.03614489
v -0.03617573 -0.02348912 -0.03724077
v -0.03270596 -0.03079522 -0.04925948
v -0.03198916 -0.03062892 -0.05297392
v -0.03667855 -0.01861072 -0.03511683
v -0.03725672 -0.0147835 -0.03469676
v -0.03514183 -0.002117515 -0.04003341
v -0.03657061 -0.006102443 -0.03689136
v -0.0345577 0.0003341436 -0.04375634
v -0.03672302 -0.01284611 -0.034671
v -0.03328323 0.001296759 -0.04619418
v -0.03599107 -0.005617857 -0.03709982
v -0.02973133 -0.02881622 -0.05784196
v -0.02865893 -0.02544534 -0.06196322
v -0.03099012 -0.02984679 -0.05582894
v -0.02718216 -0.0218178 -0.06415789
v -0.02720374 -0.01914275 -0.06527257
v -0.04241204 -0.005980134 -0.005170889
v -0.04261851 -0.02284241 -0.005175658
v -0.04233372 -0.003355622 -0.005842283
v -0.01918679 0.02442443 -0.02832142
v -0.03913975 -0.018466 0.004578762
v -0.03567505 -0.02026689 0.01280841
v -0.03502393 -0.02576458 0.01257119
v 0.0391832 -0.06661499 0.02748003
v 0.03829953 -0.0666241 0.06820632
v -0.03592449 0.007514 -0.03865667
v -0.02899426 0.01284742 -0.04703483
v -0.03199321 0.007522464 -0.05155884
v -0.02795482 0.01496029 -0.04348731
v -0.02314305 0.01808786 -0.04884298
v -0.01927596 0.01778424 -0.05778576
v -0.02383167 0.01643729 -0.05160569
v 0.03952026 -0.0549655 0.05980063
v -0.01684147 0.0217638 -0.05340781
v -0.01571733 0.02057195 -0.05805035
v -0.008423448 0.0249424 -0.05955277
v -0.0104534 0.02629018 -0.05361053
v -0.01524228 0.02500105 -0.04723074
v -0.01294237 0.02681744 -0.046366
v -0.02728397 0.01131451 -0.05513001
v -0.02900732 0.0112915 -0.05111283
v -0.03573173 -0.01048803 0.01284809
v -0.006362557 0.0259068 -0.06529468
v -0.003289163 0.016469 -0.07475906
v -0.002119422 0.01734257 -0.07783518
v -0.002069294 0.01265895 -0.0784382
v -0.006291389 0.02253056 -0.0658258
v -0.001177192 0.009067059 -0.08115727
v -0.003626406 0.02116919 -0.07340167
v -0.0003854632 0.0049541 -0.08360473
v -0.00467819 0.01972139 -0.0706097
v 0.0003563166 -0.0004388094 -0.08595178
v -0.008524597 0.0168798 0.08881398
v -0.008153915 0.02401066 0.08754344
v -0.007710099 0.03394568 0.08609994
v 0.0008039474 -0.005832791 -0.08744793
v -0.01477122 0.02644277 -0.0410724
v -0.04015297 -0.02236724 0.02998423
v -0.03976768 -0.02639246 0.03087825
v -0.02468657 -0.006421447 -0.07018345
v -0.03971213 0.005286098 -0.02312462
v -0.0383361 0.006506443 -0.02928276
v -0.04212403 -0.0002372265 -0.007837921
v -0.04188603 0.001312494 -0.009882241
v -0.02600819 -0.001044869 -0.06740619
v -0.04093176 0.003601432 -0.01657589
v -0.03761584 0.006935954 -0.03223045
v -0.02883303 0.005094886 -0.06053502
v -0.01615191 0.002877116 -0.07496212
v -0.009976685 0.003829598 -0.07892895
v -0.01320302 -0.0002264977 -0.07840388
v -0.02066141 0.0123744 -0.06382997
v -0.01959211 0.01099217 -0.06646997
v -0.02662641 0.009807229 -0.05872288
v -0.04044265 -0.02697718 0.06104448
v -0.04251295 -0.02439678 0.05569007
v -0.0400117 -0.03320229 0.05590224
v -0.03801984 -0.03320432 0.06238162
v -0.005042195 0.0002683401 -0.08318035
v -0.008938491 0.01017821 -0.07605864
v -0.01695281 0.009334803 -0.07044709
v -0.01104367 0.01341522 -0.07207608
v -0.04328704 -0.02304399 0.05205461
v -0.04247892 -0.02706456 0.0519702
v -0.04288763 -0.02545965 0.04212511
v -0.009162784 0.01616347 -0.07099805
v -0.03824443 -0.02289999 0.0680329
v -0.03944808 -0.02067387 0.06594512
v -0.0425517 -0.0205915 0.05712198
v -0.03817999 -0.02709293 0.06635123
v -0.01191294 0.02116168 -0.06211754
v -0.01204169 0.01606405 -0.06870704
v -0.01660144 0.01576364 -0.06452382
v -0.04035825 -0.02491748 0.06269395
v -0.03359067 -0.03329289 0.07053547
v -0.04276264 -0.02700067 0.04820501
v -0.04094815 -0.03312945 0.04917473
v -0.02242362 0.0143584 -0.0587281
v -0.01628286 -0.003880143 -0.07722891
v -0.01551628 -0.009904981 -0.07889108
v -0.01919228 -0.004832864 -0.07508797
v -0.01072347 -0.005194187 -0.08142627
v -0.04354936 -0.02271843 0.04464146
v -0.005246162 -0.01013362 -0.08532141
v -0.04160935 -0.02043641 0.06049421
v -0.007915378 -0.0026263 -0.08249301
v -0.04372573 -0.02053773 0.04670291
v -0.04056823 -0.03322864 0.05284042
v -0.02286875 0.000493288 -0.07006269
v -0.0210523 0.005336761 -0.06935358
v -0.04068488 -0.02057433 0.06307895
v -0.02484614 0.005341649 -0.06534979
v -0.03646737 -0.03328562 0.06574874
v -0.03460789 0.01110852 -0.02465653
v -0.03042328 0.01490819 -0.02953338
v -0.03678834 0.009032369 -0.01552056
v -0.01924831 0.02344942 -0.03879195
v -0.04327148 -0.02050495 0.04076056
v -0.03175277 0.01453078 -0.01655599
v -0.0199275 0.02222753 -0.04326393
v -0.03843689 0.006941915 -0.01322369
v -0.04095417 -0.03321874 0.04543921
v -0.03822112 0.006726503 -0.006185934
v -0.02725035 0.01803172 -0.02788064
v -0.03360081 0.01273203 -0.009354919
v -0.03495455 0.01092017 -0.003727585
v -0.03698188 0.007691026 -0.001311272
v -0.03718048 0.00254178 0.005489178
v -0.02358502 0.05179179 0.07104757
v -0.03783947 0.005325198 0.0006010383
v -0.02131242 0.0493046 0.07411847
v -0.02467269 0.01960087 -0.03430474
v -0.01968974 0.04899704 0.07616209
v -0.02410901 0.04031336 0.07711259
v -0.03015429 0.04060352 0.07112046
v -0.02852225 0.03478444 0.07495135
v -0.02521545 0.03282106 0.07830764
v -0.03346884 0.01091015 -0.0359509
v -0.01281834 0.02900803 0.08609271
v -0.01662862 0.02060008 0.08560029
v -0.01737547 0.03190589 0.08350155
v -0.02093863 0.03513157 0.0807288
v -0.02425987 0.02182424 0.0809035
v -0.0391928 -0.004069448 0.002953365
v -0.008153141 0.02732468 0.08772428
v -0.02761829 0.04998326 0.06864043
v -0.02852643 0.05215323 0.06571993
v -0.03145576 0.04897094 0.06443455
v 0.0106048 0.0009943247 -0.08678311
v 0.01161397 -0.002583504 -0.08771638
v -0.02555037 0.04360366 0.07460203
v 0.003063321 0.01733625 -0.07769435
v -0.01718944 0.03537619 0.08287805
v 0.00840652 0.01420856 -0.07981595
v 0.01024777 0.003871322 -0.08570068
v 0.00891161 0.01090562 -0.08211186
v 0.001205027 0.02598333 -0.06664846
v 0.003198206 0.02371037 -0.0702934
v -0.01208454 0.0388056 0.08429761
v 0.0112862 -0.006525636 -0.08868058
v -0.03361213 0.01201904 0.07361117
v 0.01132226 -0.01013076 -0.08919045
v 0.002164304 0.02041245 -0.07450793
v -0.007776618 0.03507268 0.08646165
v -0.03674102 0.01196826 0.06884955
v 0.008881867 0.02113855 -0.07305019
v 0.009682357 0.01793778 -0.07632744
v 0.006340027 0.02808607 -0.06264754
v 0.008812428 0.02600098 -0.06616655
v -0.0191713 0.04305732 0.07954006
v -0.01651269 0.04112077 0.08167516
v -0.03211474 0.01152956 0.07539918
v -0.009124935 -0.02118874 0.08938771
v -0.034486 0.02311182 0.07063468
v -0.03772479 0.01891136 0.06549334
v -0.03389621 0.03051865 0.0696004
v -0.02389711 0.04634917 0.07469042
v -0.01132965 0.04466116 0.08236068
v -0.007160544 0.04326308 0.08414455
v -0.02765495 0.02032435 0.07857963
v -0.0296731 0.02497602 0.07605758
v -0.0412088 -0.0631758 0.06292817
v -0.04211265 -0.06562936 0.06074594
v -0.04019547 -0.06565559 0.0655359
v -0.03141427 0.02799821 0.07361074
v -0.0434162 -0.05912054 0.04923452
v -0.04128939 -0.05227923 0.0485512
v -0.04105896 -0.05172408 0.04394501
v -0.04233807 -0.05729222 0.03992495
v -0.04213965 -0.06239355 0.05999012
v -0.04381233 -0.062343 0.04195306
v -0.03892362 -0.0589776 0.0661923
v -0.03550345 -0.05156732 0.06770846
v -0.0439291 -0.06218404 0.05071934
v -0.04308009 -0.05929518 0.05314444
v -0.04401827 -0.06176919 0.04807507
v -0.0436464 -0.06560755 0.05461302
v -0.03773737 -0.05176651 0.06344227
v -0.04428488 -0.06559575 0.04697506
v -0.03827864 -0.0656808 0.06922203
v -0.03648472 -0.06322527 0.07186303
v -0.04087198 -0.05928123 0.06185573
v -0.04148841 -0.05723417 0.0578918
v -0.04080755 -0.05229437 0.05348743
v -0.03959233 -0.0517323 0.05826471
v -0.0328393 0.03475058 0.06983045
v -0.03424871 0.04065847 0.06472117
v -0.002338469 -0.02096856 0.09095369
v 0.01589376 -0.03154016 0.0856876
v 0.01856422 -0.03180015 0.0844015
v 0.02327603 -0.02566707 0.08394392
v 0.0303874 -0.02564955 0.07843666
v 0.02750039 -0.02714109 0.08046728
v 0.001922965 -0.02287722 0.09089967
v -0.004175484 -0.02545869 0.09029549
v -0.004443944 -0.03246331 0.08818531
v -0.0007380247 -0.02553582 0.09050544
v 0.00396955 -0.02744448 0.08987193
v -0.03043705 0.04448307 0.06879172
v 0.008227468 -0.02514553 0.08986897
v 0.01060212 -0.0282346 0.08852938
v 0.02911097 -0.03422987 0.07611144
v 0.005730629 -0.03546643 0.08737552
v 0.01175767 -0.0327667 0.0867444
v 0.01441002 -0.02541709 0.08819755
v 0.03171235 -0.03366959 0.07350595
v 0.03524071 -0.02585018 0.07285777
v 0.0380342 -0.02757955 0.06762016
v 0.03679955 -0.03563511 0.06480438
v 0.04118919 -0.02352059 0.06286658
v 0.0402227 -0.0273962 0.06312332
v 0.04002887 -0.031353 0.05981602
v 0.02111733 -0.03712702 0.08158931
v 0.0263139 -0.03715992 0.07784132
v 0.03909826 -0.03803194 0.0573705
v 0.04025924 -0.03731942 0.05191625
v 0.03824472 -0.0380249 0.06019907
v 0.00545609 -0.05016559 0.08725868
v 0.009841502 -0.04314101 0.08578403
v 0.005520701 -0.04673743 0.0867964
v 0.03968143 -0.04918104 0.03972629
v -0.004686654 -0.04049349 0.08680917
v 0.0004441738 -0.03757286 0.08739879
v 0.004874825 -0.04170585 0.08673611
v 0.0003588796 -0.04473341 0.08705477
v 0.03551549 -0.05086446 0.06670839
v 0.03488076 -0.04598129 0.06671458
v 0.03082585 -0.04723179 0.07274518
v 0.039855 -0.04496717 0.05054219
v 0.04001969 -0.0421201 0.04580154
v 0.04046834 -0.05029786 0.04578049
v 0.01140398 -0.04822987 0.08567362
v 0.01949686 -0.04410875 0.08194517
v 0.03882045 -0.04495895 0.05672648
v -0.004880071 -0.0438379 0.08671403
v 0.01702601 -0.03835905 0.08356873
v 0.03987706 -0.05031806 0.05404465
v 0.02511579 -0.04210031 0.07817917
v 0.03782648 -0.04494989 0.06008002
v 0.02380264 -0.04589319 0.07924553
v 0.02741116 -0.04289663 0.07616232
v 0.01363337 0.04782844 -0.009312667
v 0.01743191 0.04004097 -0.02686875
v 0.009562433 0.06111181 0.009778552
v 0.01071912 0.05610156 0.004285477
v 0.01029545 0.05828285 0.006316602
v 0.01413894 0.04727638 -0.01162182
v 0.01271695 0.05094516 -0.005008027
v 0.01146173 0.05454445 0.0008486882
v 0.02841306 -0.04725361 0.07538956
v 0.001817286 0.06058002 0.007916592
v 0.007140517 0.05771518 0.004959956
v -0.001116157 0.05855858 0.005745448
v 0.02150667 -0.05002588 0.08134314
v 0.01227438 -0.03829992 0.08541463
v -0.02608639 0.05901277 0.02066813
v -0.02958149 0.05638158 0.02366739
v -0.03087986 0.05843365 0.02906217
v 0.03658271 -0.03677166 0.02930739
v 0.03350341 -0.03703105 0.06993373
v -0.001165509 0.06349003 0.0108632
v 0.004252255 0.063573 0.01113299
v 0.03681141 -0.04202557 0.03125123
v -0.02763116 0.05699861 0.02093933
v 0.03336561 -0.04318631 0.06907523
v 0.03919512 -0.0380224 0.03702601
v 0.00936234 -0.037678 0.08632131
v -0.01843554 0.03110397 -0.01596591
v 0.0401656 -0.03865302 0.04305047
v 0.03823048 -0.04729903 0.03478193
v -0.02905846 0.05338442 0.02097657
v -0.02643144 0.05529535 0.01814385
v 0.03892094 -0.04235446 0.03763349
v 0.0318163 -0.04013801 0.0715542
v -0.01835418 0.04182351 -0.0009893179
v -0.02280861 0.03469944 1.203269e-05
v -0.02193135 0.03890395 0.00230512
v 0.01691258 -0.04827261 0.08358143
v 0.03706366 -0.05020863 0.0633048
v -0.0179832 0.03467095 -0.01185662
v -0.01114285 0.03790081 -0.02050402
v -0.007272542 0.04274571 -0.01540007
v -0.007793784 0.03649771 -0.0289572
v -0.03155595 0.0544132 0.02628773
v -0.01137507 0.04296148 -0.01013289
v -0.006003618 0.04701984 -0.008466758
v -0.01241481 0.06235015 0.01261339
v -0.01994646 0.05966532 0.01458182
v -0.01938373 0.06203127 0.0173168
v -0.02950412 0.04197931 0.01766238
v -0.03144443 0.05076861 0.02427292
v -0.02383864 0.02985871 -0.002043873
v -0.04333764 -0.01233995 0.05184237
v -0.04274565 0.003070235 0.05104904
v -0.04356092 -0.01130235 0.04834904
v -0.04354811 -0.01132131 0.04540707
v -0.006718755 0.0622052 0.0102284
v -0.03901947 0.0008357763 0.06574905
v -0.04267776 0.003999949 0.04313163
v -0.04091877 -0.006229281 0.06175202
v -0.04308492 -0.003787637 0.04268476
v -0.04194039 -0.007677317 0.05856422
v -0.04264683 -0.007225275 0.0554409
v -0.03335708 0.04947388 0.02827533
v -0.01517683 0.0521102 0.005303957
v -0.0196085 0.05752635 0.01251411
v -0.01350749 0.06051219 0.01104033
v 0.0001209378 0.03655457 -0.03607198
v 0.0042606 0.03823543 -0.03242293
v 0.007932127 0.04136968 -0.02471625
v 0.001631618 0.04114616 -0.02444888
v -0.02491975 0.02626646 -0.001868844
v -0.03117239 0.03677535 0.01899531
v -0.03658551 0.03679383 0.03180153
v -0.03466201 0.04912508 0.03207175
v -0.03194147 0.02781641 0.01735912
v -0.03754866 0.04079676 0.03768304
v -0.03087252 0.02362752 0.01337542
v -0.02921879 0.02798903 0.01090913
v -0.03939658 0.02996588 0.0386498
v -0.0371002 0.02873361 0.02993609
v -0.03936923 0.02488971 0.03566542
v -0.01316428 0.04433978 -0.005435184
v -0.0171845 0.04738557 0.003183104
v -0.01209158 0.04862082 -0.0007778332
v -0.006417692 0.05808246 0.006155871
v -0.004529893 0.05383241 0.000903599
v -0.01142442 0.05527234 0.005560003
v -0.001208901 0.05151236 -0.003599256
v -0.008080959 0.05103624 -0.0008940101
v -0.00898236 0.06106961 0.00966882
v -0.008957744 -0.05353498 0.08682167
v -0.001233459 0.04157317 -0.02236416
v -0.008534431 -0.04375887 0.08546145
v -0.00868386 -0.03264463 0.08675793
v -0.008675933 -0.03700793 0.08647747
v -0.008641899 -0.04144394 0.0860756
v -0.0008494854 0.04547048 -0.01436034
v -0.01545876 0.0423342 -0.005075872
v -0.008902729 -0.05050701 0.08674339
v -0.02336842 0.05603385 0.01497871
v -0.0009833574 0.04751396 -0.01046336
v -0.0148769 0.03893292 -0.01160538
v -0.025567 0.0456264 0.01267117
v -0.04036945 -0.0360992 0.04487365
v -0.01968038 -0.04662764 0.08205145
v -0.02406776 -0.04408491 0.0790007
v -0.01649392 -0.05002916 0.08419038
v -0.03967458 -0.03619945 0.05470986
v -0.03992063 -0.04231918 0.04489863
v -0.03765339 -0.04635632 0.06109802
v -0.03892136 -0.04135275 0.05625504
v -0.03967315 -0.04636431 0.05354149
v -0.02986473 -0.03918409 0.07379666
v -0.03312904 -0.03617823 0.0702168
v -0.03565329 -0.04393446 0.06521893
v -0.04002541 -0.04387164 0.04784675
v -0.02521247 -0.04988265 0.07894599
v -0.02768904 -0.04150128 0.0758953
v -0.02644283 -0.03632295 0.07762624
v -0.02823645 -0.04571688 0.07552981
v -0.02547163 0.06111109 0.02351376
v -0.03173268 -0.04400933 0.07142
v -0.04014832 -0.04615891 0.04520756
v -0.03568566 -0.03910792 0.06533615
v -0.03339916 -0.04979897 0.07027701
v -0.03353918 -0.04629123 0.06915706
v -0.03811914 -0.03615952 0.06048209
v -0.006649494 0.03610313 -0.03153688
v -0.01445907 -0.04166758 0.08432844
v -0.01727128 -0.03934395 0.08323883
v -0.02313054 0.04915714 0.01113977
v -0.02000213 0.04965448 0.007959604
v -0.02300495 -0.04156005 0.07975259
v -0.01989597 0.04343092 0.003102064
v -0.01493031 -0.04668462 0.08431827
v -0.0161323 0.0453006 -0.0002358705
v -0.03658241 0.04174984 0.05822735
v -0.03917426 0.03424788 0.05293828
v -0.03860122 0.03064668 0.05858075
v -0.03643268 0.02912736 0.06527359
v -0.03314245 0.05177224 0.05896696
v -0.03351313 0.05356467 0.05592361
v -0.03792328 0.04386151 0.04720633
v -0.03585923 0.05316734 0.04342678
v -0.03896278 0.0371834 0.04319835
v -0.03670549 0.04727221 0.03938217
v -0.03863198 0.02576053 0.06087
v -0.03342444 0.04726875 0.06220631
v -0.03990525 0.02249253 0.05786718
v -0.03923994 0.03642988 0.04768809
v -0.0350101 0.04635203 0.05931249
v -0.03984964 0.01436162 0.06111689
v -0.03551102 0.04976916 0.05462392
v -0.02296323 0.04268444 0.007166743
v -0.03433102 0.05556262 0.04917732
v -0.03965491 0.007781982 0.06320445
v -0.03203398 0.05838013 0.03309144
v -0.0411917 0.009330392 0.05789113
v -0.04018986 0.02728903 0.05303344
v -0.03615957 0.05067849 0.05027226
v -0.03989565 0.03092337 0.04309094
v -0.04207468 0.01320875 0.04963496
v -0.0416351 0.0182786 0.04626868
v -0.03481299 0.05597794 0.04269677
v -0.04078799 0.02184951 0.0408142
v -0.04203093 0.01200521 0.04291645
v -0.03717899 0.0469557 0.04919613
v -0.03418559 0.05680239 0.03923459
v -0.03682894 0.04455972 0.05489567
v -0.04122162 0.01307535 0.03822581
v -0.02614921 0.04008663 0.01082835
v -0.03529608 0.05396008 0.03960095
v -0.03355855 0.05535758 0.03316734
v -0.02708262 0.03484976 0.009667046
v 0.009439886 0.04338419 -0.02018048
v -0.03997844 0.01247025 0.03325763
v 0.004536688 0.04501605 -0.01664246
v -0.03368694 0.01917803 0.01917039
v -0.03586245 0.02503395 0.02559414
v 0.006257355 0.04719651 -0.01249873
v 0.005621016 0.05212116 -0.003713928
v 0.001546443 0.05600941 0.002424523
f 1 2 3
f 4 3 2
f 5 6 7
f 5 8 6
f 7 6 9
f 9 6 10
f 9 10 11
f 10 12 11
f 13 8 5
f 14 15 16
f 15 14 17
f 18 19 20
f 21 22 23
f 24 14 25
f 17 14 24
f 26 27 16
f 19 28 20
f 29 16 15
f 30 20 28
f 24 25 31
f 32 26 16
f 29 33 16
f 34 19 35
f 36 37 25
f 38 39 40
f 34 41 28
f 42 33 29
f 40 43 44
f 29 45 42
f 46 36 47
f 48 36 46
f 43 49 44
f 42 45 50
f 32 33 51
f 46 47 52
f 53 52 47
f 54 52 53
f 13 44 8
f 55 46 52
f 23 52 54
f 56 30 57
f 58 59 60
f 23 54 53
f 61 62 63
f 61 63 64
f 23 53 65
f 66 58 67
f 57 65 53
f 58 60 68
f 69 50 70
f 18 20 56
f 52 23 71
f 72 73 74
f 75 73 72
f 65 76 23
f 77 78 72
f 79 80 22
f 71 23 22
f 30 76 65
f 61 81 62
f 30 82 76
f 23 76 21
f 28 41 30
f 76 83 21
f 34 28 19
f 41 82 30
f 76 84 83
f 39 43 40
f 34 85 41
f 24 31 86
f 59 84 41
f 22 87 88
f 61 89 81
f 87 83 90
f 37 31 25
f 8 44 49
f 41 85 59
f 51 42 69
f 79 55 80
f 49 91 8
f 92 81 93
f 70 88 69
f 93 81 89
f 69 88 87
f 58 94 84
f 87 22 21
f 87 21 83
f 91 49 87
f 60 59 85
f 8 91 6
f 6 91 95
f 90 94 91
f 94 95 91
f 94 58 95
f 86 17 24
f 96 74 73
f 67 58 68
f 48 37 36
f 97 31 37
f 72 98 99
f 45 86 31
f 97 37 48
f 92 100 101
f 101 100 102
f 55 48 46
f 93 100 92
f 97 48 55
f 45 31 97
f 77 103 78
f 97 50 45
f 42 50 69
f 101 102 104
f 27 103 77
f 71 80 55
f 97 79 50
f 97 55 79
f 39 51 69
f 103 27 26
f 104 102 105
f 50 79 70
f 80 71 22
f 22 70 79
f 39 69 43
f 88 70 22
f 69 87 43
f 32 16 33
f 84 82 41
f 76 82 84
f 45 15 17
f 87 49 43
f 45 17 86
f 106 107 105
f 105 107 104
f 29 15 45
f 51 33 42
f 90 83 94
f 91 87 90
f 106 108 107
f 84 94 83
f 65 57 30
f 58 84 59
f 71 55 52
f 20 30 56
f 66 95 58
f 38 51 39
f 73 75 109
f 103 75 78
f 78 75 72
f 74 98 72
f 110 99 98
f 72 99 77
f 16 99 110
f 14 16 110
f 27 77 99
f 16 27 99
f 111 112 113
f 114 112 111
f 115 114 116
f 116 114 111
f 117 115 116
f 118 119 120
f 121 118 120
f 122 117 123
f 123 117 116
f 113 118 121
f 112 118 113
f 124 125 126
f 126 127 128
f 129 130 131
f 132 133 134
f 135 136 137
f 131 130 138
f 128 139 140
f 141 142 143
f 144 145 146
f 147 148 124
f 149 150 151
f 152 153 150
f 145 137 154
f 155 136 135
f 146 145 129
f 35 150 156
f 35 152 150
f 157 158 159
f 160 161 162
f 143 142 163
f 164 154 165
f 131 138 166
f 142 124 126
f 138 142 166
f 167 132 134
f 134 158 157
f 157 159 144
f 146 129 168
f 130 165 147
f 169 129 131
f 164 165 130
f 143 163 160
f 145 154 164
f 134 157 170
f 169 131 166
f 171 172 173
f 173 172 174
f 174 172 175
f 176 177 178
f 135 137 145
f 178 177 179
f 157 144 180
f 173 174 181
f 181 174 175
f 180 144 146
f 182 183 184
f 166 142 141
f 175 185 186
f 177 184 179
f 158 133 155
f 167 134 170
f 138 147 124
f 168 129 169
f 187 173 188
f 181 175 186
f 158 155 135
f 186 185 189
f 188 173 181
f 177 182 184
f 176 178 190
f 191 181 186
f 192 170 157
f 184 183 193
f 126 128 161
f 142 126 163
f 144 135 145
f 194 169 166
f 138 124 142
f 137 187 188
f 188 181 191
f 158 135 159
f 180 146 168
f 145 164 129
f 165 188 191
f 148 186 189
f 159 135 144
f 130 147 138
f 192 157 180
f 191 186 148
f 134 133 158
f 137 188 165
f 126 125 127
f 148 189 125
f 195 196 197
f 129 164 130
f 154 137 165
f 163 126 160
f 160 126 161
f 165 191 147
f 124 148 125
f 128 127 139
f 147 191 148
f 2 162 198
f 197 196 199
f 198 4 2
f 2 160 162
f 200 143 160
f 200 160 2
f 201 202 203
f 203 2 1
f 202 141 203
f 199 204 197
f 205 197 206
f 203 200 2
f 203 141 200
f 141 143 200
f 207 208 209
f 207 210 211
f 207 211 208
f 197 204 212
f 213 214 215
f 209 208 216
f 204 217 212
f 210 218 219
f 210 220 218
f 210 219 211
f 220 221 218
f 211 219 222
f 151 150 223
f 224 213 215
f 224 225 226
f 224 215 225
f 221 227 218
f 224 226 228
f 219 229 230
f 219 231 232
f 219 218 233
f 197 212 206
f 219 233 234
f 219 230 231
f 219 235 229
f 219 234 235
f 228 226 236
f 218 237 233
f 232 238 239
f 232 231 238
f 236 226 240
f 205 195 197
f 240 226 153
f 237 241 233
f 223 150 226
f 242 195 205
f 153 226 150
f 217 243 212
f 231 230 244
f 226 210 207
f 226 225 210
f 226 245 246
f 226 247 245
f 226 207 247
f 230 229 248
f 248 229 249
f 245 247 250
f 251 252 253
f 254 251 253
f 255 254 253
f 255 253 256
f 257 255 256
f 258 257 256
f 258 256 259
f 260 258 259
f 204 261 262
f 263 260 259
f 264 261 204
f 263 259 265
f 266 263 265
f 266 265 267
f 268 266 267
f 269 268 267
f 270 268 269
f 270 269 271
f 272 270 271
f 273 272 271
f 274 275 276
f 277 275 274
f 278 277 274
f 279 280 281
f 282 262 261
f 279 281 283
f 283 281 284
f 176 282 261
f 285 284 286
f 264 204 287
f 283 284 285
f 288 279 283
f 286 284 289
f 290 283 285
f 290 285 291
f 291 285 292
f 290 291 293
f 290 293 294
f 294 293 295
f 294 295 296
f 294 296 297
f 294 297 298
f 298 297 299
f 298 299 119
f 298 119 300
f 300 119 118
f 300 118 112
f 300 112 301
f 301 112 114
f 301 114 302
f 302 114 115
f 302 115 303
f 303 115 117
f 303 117 304
f 305 280 279
f 306 5 307
f 287 204 199
f 5 7 307
f 307 9 273
f 308 309 310
f 308 311 309
f 312 313 314
f 315 316 317
f 315 317 318
f 319 199 320
f 310 309 321
f 199 196 320
f 310 321 322
f 314 323 316
f 316 323 317
f 324 325 326
f 322 327 328
f 324 319 325
f 324 183 319
f 318 317 75
f 322 321 327
f 328 327 329
f 329 330 328
f 329 331 330
f 183 287 319
f 332 329 333
f 329 332 331
f 331 332 334
f 334 332 335
f 261 264 176
f 176 264 177
f 336 327 321
f 334 335 337
f 182 287 183
f 329 327 338
f 337 335 312
f 75 103 318
f 177 264 182
f 332 333 339
f 340 341 342
f 182 264 287
f 319 320 325
f 312 343 337
f 332 339 335
f 287 199 319
f 344 345 346
f 312 347 343
f 340 348 344
f 340 342 348
f 344 348 345
f 345 348 311
f 347 312 314
f 345 311 308
f 312 335 313
f 347 314 316
f 349 350 351
f 352 353 354
f 352 354 355
f 356 357 358
f 349 357 353
f 356 358 359
f 360 361 362
f 360 362 363
f 353 357 354
f 359 358 364
f 360 365 361
f 366 362 367
f 359 364 368
f 365 356 359
f 365 359 369
f 370 361 365
f 365 371 370
f 362 361 372
f 365 369 371
f 369 373 371
f 373 369 374
f 375 376 377
f 375 377 378
f 349 351 357
f 379 380 376
f 361 370 372
f 355 354 363
f 350 381 382
f 363 383 355
f 354 360 363
f 376 349 377
f 350 382 351
f 357 351 358
f 380 350 376
f 371 373 384
f 351 382 364
f 354 357 356
f 377 353 352
f 47 36 385
f 373 374 386
f 373 386 384
f 377 349 353
f 380 381 350
f 380 387 381
f 354 356 360
f 351 364 358
f 359 368 374
f 363 366 383
f 369 359 374
f 363 362 366
f 375 388 379
f 376 350 349
f 364 382 368
f 360 356 365
f 375 379 376
f 342 389 390
f 391 392 393
f 391 393 389
f 392 394 395
f 392 395 393
f 396 397 398
f 399 400 401
f 400 402 403
f 404 405 406
f 407 14 408
f 405 409 406
f 401 400 410
f 407 25 14
f 404 406 411
f 404 412 405
f 398 397 399
f 399 413 400
f 405 398 409
f 412 414 396
f 412 396 405
f 409 415 406
f 405 396 398
f 410 416 417
f 399 397 413
f 410 400 416
f 416 403 418
f 415 409 401
f 403 419 418
f 409 398 399
f 400 403 416
f 409 399 401
f 400 413 402
f 401 410 415
f 416 420 417
f 421 422 423
f 424 425 426
f 427 425 424
f 428 427 424
f 429 427 428
f 430 429 428
f 431 429 430
f 432 431 430
f 433 431 432
f 434 433 432
f 435 433 434
f 436 433 435
f 437 436 435
f 438 437 435
f 439 437 438
f 440 439 438
f 441 439 440
f 442 439 441
f 443 442 441
f 444 442 443
f 445 444 443
f 446 444 445
f 447 167 170
f 448 449 450
f 448 451 449
f 452 453 192
f 453 170 192
f 452 192 451
f 453 447 170
f 449 454 450
f 450 454 455
f 452 451 448
f 213 224 290
f 456 25 457
f 290 224 283
f 36 25 456
f 458 459 460
f 461 462 463
f 461 464 465
f 466 458 460
f 465 464 467
f 463 464 461
f 468 462 460
f 469 470 458
f 460 459 468
f 471 472 470
f 464 473 474
f 473 464 463
f 475 467 476
f 461 477 462
f 470 478 471
f 477 479 462
f 470 472 458
f 479 460 462
f 464 474 467
f 479 466 460
f 474 480 476
f 476 480 481
f 467 474 476
f 474 482 480
f 466 469 458
f 463 462 468
f 117 438 435
f 117 430 428
f 443 441 117
f 483 47 385
f 117 428 424
f 117 435 434
f 117 424 426
f 117 426 484
f 117 434 432
f 445 443 117
f 117 440 438
f 117 484 304
f 441 440 117
f 117 432 430
f 485 323 486
f 487 488 339
f 487 489 490
f 491 490 492
f 493 494 495
f 493 495 496
f 487 339 333
f 486 323 494
f 323 313 494
f 494 313 495
f 333 489 487
f 490 489 492
f 497 498 499
f 496 487 500
f 496 495 487
f 323 314 313
f 498 485 499
f 498 501 485
f 489 333 338
f 47 483 502
f 489 338 492
f 501 503 485
f 500 487 490
f 499 494 493
f 313 488 495
f 499 485 486
f 485 503 323
f 495 488 487
f 499 486 494
f 204 262 217
f 217 262 243
f 504 505 501
f 75 503 109
f 501 109 503
f 504 498 497
f 498 504 501
f 149 156 150
f 34 149 506
f 507 508 109
f 505 507 501
f 508 96 73
f 501 507 109
f 509 96 508
f 508 73 109
f 509 508 510
f 385 36 456
f 507 510 508
f 422 511 379
f 511 276 380
f 306 512 513
f 514 273 271
f 276 273 514
f 276 514 274
f 11 273 9
f 513 13 306
f 515 513 512
f 516 515 512
f 517 516 512
f 518 516 517
f 519 516 518
f 520 519 518
f 421 520 518
f 521 520 421
f 423 521 421
f 388 423 422
f 388 422 379
f 7 9 307
f 13 5 306
f 511 380 379
f 522 523 524
f 525 468 459
f 523 526 524
f 523 473 526
f 527 528 529
f 530 524 531
f 463 468 526
f 527 459 532
f 530 531 533
f 534 535 536
f 527 532 528
f 536 535 522
f 459 458 532
f 25 407 457
f 536 522 537
f 473 463 526
f 533 531 529
f 535 523 522
f 535 482 523
f 524 526 525
f 524 525 531
f 523 482 474
f 526 468 525
f 529 531 527
f 537 524 530
f 531 525 527
f 523 474 473
f 537 522 524
f 525 459 527
f 538 539 540
f 504 541 542
f 505 504 542
f 543 538 544
f 538 542 541
f 538 541 539
f 545 546 540
f 547 548 545
f 538 543 542
f 497 541 504
f 544 538 546
f 98 285 110
f 326 325 549
f 285 286 110
f 544 546 548
f 548 546 545
f 546 538 540
f 550 193 551
f 184 193 550
f 179 184 550
f 547 552 553
f 553 554 547
f 286 289 110
f 547 545 552
f 110 289 14
f 549 325 555
f 545 556 552
f 557 558 559
f 325 320 555
f 560 559 558
f 560 558 561
f 557 559 195
f 559 560 195
f 289 284 14
f 560 196 195
f 14 284 408
f 149 34 35
f 149 35 156
f 562 282 176
f 562 563 282
f 563 262 282
f 320 564 555
f 563 565 262
f 223 226 566
f 567 568 566
f 569 566 226
f 284 281 408
f 570 571 567
f 572 573 574
f 571 575 576
f 408 281 407
f 576 577 578
f 579 572 580
f 581 571 576
f 582 583 584
f 281 280 407
f 585 570 567
f 320 196 564
f 407 280 457
f 196 586 564
f 587 583 588
f 584 583 587
f 589 590 579
f 280 305 457
f 591 579 580
f 589 583 582
f 567 571 581
f 592 583 593
f 457 305 456
f 594 592 593
f 595 588 592
f 595 592 594
f 305 279 456
f 196 510 586
f 456 279 385
f 585 567 566
f 596 588 595
f 597 598 599
f 196 509 510
f 596 587 588
f 279 288 385
f 385 288 483
f 600 598 597
f 569 585 566
f 601 4 602
f 584 575 603
f 483 283 502
f 288 283 483
f 283 224 502
f 196 560 509
f 593 583 579
f 577 584 587
f 224 228 502
f 502 228 604
f 592 588 583
f 596 595 605
f 600 597 601
f 577 587 596
f 560 561 509
f 604 236 606
f 228 236 604
f 607 603 575
f 600 601 602
f 575 584 577
f 574 600 602
f 598 600 608
f 573 600 574
f 608 600 573
f 236 240 606
f 608 573 590
f 606 240 609
f 590 573 572
f 607 575 571
f 577 596 578
f 561 610 509
f 610 96 509
f 609 153 152
f 572 574 580
f 240 153 609
f 570 607 571
f 579 590 572
f 610 611 96
f 96 611 74
f 579 583 589
f 611 612 74
f 591 593 579
f 576 575 577
f 613 614 615
f 616 617 618
f 619 620 621
f 612 622 74
f 623 624 625
f 622 98 74
f 626 618 627
f 622 285 98
f 624 628 629
f 630 631 632
f 633 634 635
f 636 626 632
f 614 619 615
f 510 637 586
f 330 638 328
f 633 639 640
f 619 641 620
f 617 642 643
f 633 635 644
f 645 646 647
f 648 649 650
f 638 650 651
f 639 38 640
f 652 636 628
f 633 653 634
f 624 613 625
f 628 654 629
f 655 656 657
f 624 629 613
f 658 659 660
f 26 318 103
f 564 586 661
f 662 658 660
f 343 663 337
f 618 617 627
f 664 643 665
f 615 621 666
f 650 649 651
f 32 644 667
f 649 668 308
f 647 343 347
f 308 651 649
f 664 665 630
f 655 657 659
f 40 44 669
f 40 669 670
f 40 670 640
f 653 625 634
f 521 671 616
f 634 672 646
f 673 670 674
f 624 623 674
f 624 675 628
f 626 627 632
f 652 516 519
f 654 628 636
f 641 676 620
f 638 322 328
f 677 678 676
f 649 662 668
f 616 671 617
f 636 632 677
f 13 513 669
f 13 669 44
f 662 660 679
f 677 632 678
f 652 519 618
f 638 651 322
f 510 507 505
f 680 681 642
f 660 682 679
f 632 627 630
f 662 679 668
f 521 423 671
f 513 670 669
f 644 683 667
f 612 611 684
f 32 667 26
f 680 685 681
f 686 683 316
f 614 641 619
f 614 677 641
f 651 310 322
f 644 635 683
f 513 674 670
f 660 687 682
f 40 640 38
f 515 674 513
f 647 646 343
f 625 613 688
f 672 688 666
f 611 689 684
f 630 665 631
f 646 672 343
f 660 659 687
f 627 617 664
f 632 648 678
f 632 631 648
f 652 626 636
f 652 618 626
f 318 686 315
f 651 308 310
f 690 295 691
f 120 119 692
f 629 614 613
f 295 293 691
f 683 347 316
f 671 423 685
f 119 299 692
f 692 299 693
f 691 293 694
f 668 679 346
f 640 670 673
f 694 293 689
f 299 297 693
f 686 316 315
f 695 296 696
f 693 297 695
f 696 295 690
f 296 295 696
f 519 520 618
f 26 667 686
f 674 515 516
f 308 668 345
f 689 291 684
f 643 658 665
f 293 291 689
f 297 296 695
f 684 291 697
f 697 291 698
f 629 654 614
f 668 346 345
f 679 682 346
f 683 647 347
f 682 340 346
f 674 623 673
f 641 677 676
f 674 516 675
f 682 699 340
f 121 700 113
f 121 701 700
f 682 687 699
f 673 633 640
f 700 111 113
f 642 681 656
f 663 334 337
f 346 340 344
f 635 645 683
f 701 121 702
f 702 121 692
f 687 703 699
f 121 120 692
f 698 291 704
f 291 292 704
f 621 620 330
f 704 292 705
f 706 702 692
f 706 692 693
f 620 676 638
f 693 695 706
f 688 615 666
f 673 623 653
f 643 642 655
f 674 675 624
f 38 639 51
f 631 665 662
f 663 666 334
f 635 646 645
f 635 634 646
f 643 655 658
f 631 649 648
f 667 683 686
f 696 706 695
f 673 653 633
f 654 636 677
f 51 639 644
f 671 685 680
f 520 616 618
f 666 331 334
f 666 621 331
f 675 516 652
f 707 558 610
f 642 656 655
f 676 678 638
f 627 664 630
f 558 708 610
f 610 708 691
f 343 672 663
f 625 688 634
f 671 642 617
f 620 638 330
f 672 666 663
f 691 708 690
f 658 655 659
f 613 615 688
f 678 650 638
f 558 707 561
f 654 677 614
f 631 662 649
f 561 707 610
f 683 645 647
f 520 521 616
f 621 330 331
f 615 619 621
f 675 652 628
f 664 617 643
f 623 625 653
f 51 644 32
f 678 648 650
f 671 680 642
f 665 658 662
f 26 686 318
f 709 610 691
f 634 688 672
f 639 633 644
f 355 383 710
f 711 352 355
f 710 712 713
f 703 714 715
f 366 716 383
f 703 715 341
f 341 715 389
f 341 389 342
f 392 367 394
f 423 717 685
f 710 383 716
f 717 423 388
f 703 340 699
f 703 341 340
f 717 388 375
f 656 713 657
f 713 712 657
f 685 717 681
f 391 715 392
f 717 718 681
f 716 366 719
f 715 719 392
f 717 375 378
f 657 712 659
f 719 366 367
f 659 712 714
f 659 714 687
f 717 378 718
f 719 367 392
f 710 716 712
f 681 718 656
f 716 719 715
f 656 718 713
f 391 389 715
f 718 378 713
f 355 710 711
f 713 378 711
f 703 687 714
f 713 711 710
f 378 352 711
f 378 377 352
f 714 712 716
f 714 716 715
f 720 721 722
f 723 724 725
f 726 727 728
f 729 730 731
f 732 720 722
f 728 727 733
f 734 735 736
f 734 737 735
f 738 739 740
f 741 725 738
f 725 730 729
f 728 733 742
f 743 723 725
f 744 721 737
f 737 721 720
f 745 726 728
f 746 723 743
f 727 741 738
f 736 720 732
f 731 744 737
f 747 748 749
f 740 739 734
f 726 749 741
f 745 728 750
f 733 738 740
f 727 738 733
f 751 728 742
f 749 746 743
f 752 753 754
f 750 728 751
f 755 753 752
f 729 731 738
f 752 754 756
f 757 755 752
f 738 731 739
f 739 731 737
f 741 743 725
f 730 757 752
f 737 720 735
f 747 749 726
f 726 741 727
f 752 756 721
f 732 722 756
f 756 722 721
f 740 734 742
f 733 740 742
f 731 752 744
f 730 752 731
f 749 743 741
f 744 752 721
f 725 729 738
f 724 757 730
f 748 746 749
f 735 720 736
f 746 748 758
f 725 724 730
f 747 726 745
f 739 737 734
f 754 759 756
f 760 761 762
f 763 764 765
f 762 766 760
f 732 767 736
f 768 769 770
f 551 555 661
f 771 772 773
f 767 774 775
f 776 774 767
f 761 770 769
f 777 769 778
f 761 769 777
f 759 763 776
f 776 763 765
f 779 766 772
f 780 772 781
f 762 761 777
f 736 767 782
f 764 761 760
f 756 776 732
f 783 777 778
f 779 771 775
f 782 775 773
f 549 555 551
f 753 784 754
f 785 772 780
f 732 776 767
f 765 766 774
f 759 784 763
f 774 766 779
f 775 774 779
f 779 772 771
f 762 777 772
f 772 777 783
f 764 763 784
f 776 765 774
f 754 784 759
f 764 760 765
f 772 783 781
f 767 775 782
f 775 771 773
f 756 759 776
f 773 772 785
f 765 760 766
f 782 773 785
f 766 762 772
f 35 19 786
f 152 35 786
f 53 47 57
f 57 47 606
f 609 152 786
f 56 606 609
f 609 786 18
f 786 19 18
f 18 56 609
f 47 502 604
f 47 604 606
f 606 56 57
f 506 149 151
f 787 788 696
f 661 555 564
f 788 789 696
f 557 788 787
f 696 789 706
f 706 790 702
f 791 116 792
f 790 205 701
f 206 701 205
f 788 790 789
f 206 212 701
f 212 792 701
f 212 243 792
f 792 700 701
f 790 701 702
f 242 790 788
f 789 790 706
f 792 243 791
f 792 111 700
f 242 205 790
f 195 788 557
f 242 788 195
f 791 243 262
f 193 183 324
f 95 10 6
f 67 68 12
f 95 66 10
f 66 67 10
f 67 12 10
f 793 68 794
f 11 12 793
f 794 68 60
f 794 60 85
f 793 12 68
f 794 85 506
f 506 85 34
f 311 795 309
f 342 390 796
f 309 795 797
f 342 796 348
f 348 796 798
f 333 329 338
f 317 323 503
f 309 797 321
f 348 799 311
f 550 551 800
f 348 798 799
f 327 336 338
f 800 551 661
f 335 339 488
f 75 317 503
f 797 336 321
f 311 799 795
f 335 488 313
f 374 368 382
f 801 802 803
f 179 550 800
f 386 374 804
f 803 386 804
f 805 802 801
f 806 805 801
f 804 374 382
f 807 806 808
f 809 807 808
f 802 810 803
f 811 117 122
f 812 813 814
f 780 781 813
f 768 815 816
f 814 816 815
f 812 814 817
f 778 768 816
f 778 816 814
f 818 812 817
f 769 768 778
f 819 812 818
f 783 778 814
f 813 812 819
f 781 814 813
f 783 814 781
f 820 821 822
f 823 822 824
f 823 820 822
f 821 820 825
f 826 825 827
f 828 825 826
f 828 826 829
f 193 324 551
f 829 830 831
f 831 830 832
f 825 820 827
f 833 122 834
f 834 122 835
f 835 122 836
f 836 122 837
f 838 839 840
f 122 123 841
f 122 841 842
f 122 842 843
f 122 843 837
f 844 845 846
f 811 122 847
f 847 122 833
f 446 445 811
f 446 811 847
f 848 446 847
f 848 847 833
f 849 846 850
f 851 553 552
f 852 848 833
f 834 852 833
f 853 852 834
f 853 834 835
f 854 853 835
f 854 835 836
f 855 854 836
f 855 836 837
f 844 856 845
f 554 553 851
f 857 855 837
f 849 844 846
f 858 859 856
f 857 837 843
f 860 857 843
f 861 862 863
f 860 843 842
f 864 860 842
f 864 842 841
f 123 864 841
f 865 864 123
f 865 123 791
f 791 123 116
f 262 865 791
f 565 865 262
f 622 705 292
f 285 622 292
f 866 867 868
f 817 869 818
f 870 871 872
f 872 871 873
f 872 873 869
f 874 875 871
f 876 877 878
f 858 856 844
f 818 869 819
f 874 870 879
f 874 880 881
f 881 880 882
f 883 859 858
f 881 875 874
f 861 884 885
f 886 862 861
f 871 875 887
f 875 881 882
f 819 869 873
f 879 869 815
f 887 882 888
f 815 869 817
f 870 872 879
f 870 874 871
f 875 882 887
f 869 879 872
f 876 878 862
f 815 817 814
f 831 889 890
f 889 891 890
f 891 892 890
f 893 894 895
f 896 897 898
f 885 886 861
f 899 844 849
f 895 900 893
f 897 901 898
f 897 902 903
f 897 903 901
f 895 901 900
f 901 895 898
f 886 876 862
f 901 904 900
f 902 905 903
f 905 906 903
f 858 844 899
f 904 901 903
f 907 908 909
f 904 903 906
f 908 910 909
f 907 909 911
f 907 911 912
f 912 911 913
f 908 914 915
f 908 915 910
f 916 917 918
f 919 883 858
f 911 920 913
f 906 921 904
f 905 902 922
f 906 905 923
f 922 923 905
f 923 922 924
f 923 924 925
f 924 926 925
f 925 927 928
f 925 918 923
f 876 929 877
f 930 239 913
f 921 906 923
f 926 927 925
f 921 923 931
f 923 918 931
f 932 876 886
f 921 931 933
f 908 934 914
f 935 929 876
f 918 925 928
f 934 936 914
f 934 937 936
f 899 919 858
f 938 806 807
f 938 939 806
f 928 927 940
f 931 918 933
f 928 916 918
f 937 941 936
f 886 885 942
f 928 940 943
f 918 917 933
f 914 936 915
f 944 945 941
f 919 946 883
f 935 947 929
f 936 948 915
f 949 807 809
f 950 919 899
f 941 951 936
f 951 941 945
f 930 913 920
f 920 952 930
f 936 951 948
f 944 894 945
f 944 953 894
f 954 908 907
f 951 945 893
f 951 893 948
f 953 898 894
f 953 896 898
f 945 894 893
f 894 898 895
f 955 947 935
f 111 792 116
f 942 932 886
f 704 705 622
f 949 938 807
f 612 704 622
f 698 704 612
f 697 698 612
f 709 691 694
f 689 709 694
f 932 935 876
f 610 709 611
f 611 709 689
f 690 708 696
f 696 708 787
f 708 558 787
f 787 558 557
f 938 956 939
f 367 957 958
f 367 958 394
f 372 959 957
f 959 958 957
f 384 960 371
f 960 961 372
f 960 370 371
f 370 960 372
f 957 362 372
f 957 367 362
f 838 946 919
f 911 952 920
f 952 911 962
f 454 449 963
f 964 965 966
f 943 967 964
f 963 968 969
f 970 956 938
f 971 454 963
f 971 963 972
f 928 964 916
f 972 963 973
f 966 974 975
f 916 964 966
f 965 972 966
f 966 972 973
f 928 943 964
f 973 963 974
f 963 969 974
f 976 451 192
f 950 838 919
f 964 967 965
f 974 969 975
f 977 938 949
f 449 451 968
f 968 451 976
f 449 968 963
f 978 935 932
f 965 971 972
f 966 973 974
f 3 601 597
f 3 4 601
f 599 3 597
f 684 697 612
f 190 544 548
f 979 932 942
f 839 838 950
f 554 190 547
f 190 548 547
f 980 543 544
f 324 326 551
f 949 809 981
f 840 946 838
f 840 982 946
f 326 549 551
f 982 983 984
f 978 955 935
f 179 800 985
f 800 661 637
f 505 542 510
f 978 932 979
f 510 542 637
f 637 542 543
f 980 178 985
f 179 985 178
f 800 637 985
f 981 977 949
f 543 985 637
f 970 938 977
f 190 178 544
f 986 983 982
f 661 586 637
f 178 980 544
f 985 543 980
f 916 966 975
f 917 916 975
f 180 976 192
f 168 169 987
f 970 988 956
f 168 987 180
f 839 950 989
f 986 982 840
f 990 987 169
f 987 991 992
f 976 180 987
f 987 990 991
f 993 992 991
f 992 976 987
f 968 992 969
f 992 993 975
f 968 976 992
f 969 992 975
f 994 978 979
f 995 996 201
f 993 991 997
f 194 166 996
f 998 999 955
f 993 997 995
f 996 166 141
f 996 202 201
f 169 194 990
f 991 990 194
f 996 141 202
f 991 996 997
f 1000 840 839
f 998 955 978
f 991 194 996
f 995 997 996
f 554 1001 190
f 1001 176 190
f 1001 562 176
f 1002 970 977
f 1003 1004 1005
f 1006 1003 1005
f 1007 1008 1009
f 1003 1007 1009
f 1006 1005 1010
f 1011 1006 1010
f 1003 1009 1004
f 3 599 1
f 1012 1013 1014
f 1015 1016 999
f 962 1013 1017
f 1000 839 989
f 1018 1019 1020
f 1021 988 970
f 4 1022 1023
f 1024 1022 198
f 1021 970 1002
f 4 198 1022
f 1025 1026 1027
f 1027 1026 1028
f 4 1023 602
f 1029 1026 1025
f 552 983 986
f 1030 998 978
f 1028 1026 1019
f 1000 986 840
f 863 1031 988
f 1019 1026 1029
f 1022 1028 1018
f 1030 978 994
f 1018 1028 1019
f 1023 1022 1018
f 1015 999 998
f 1032 1033 1034
f 1032 1034 1035
f 1036 1037 1033
f 1035 1034 1038
f 1038 1034 1039
f 552 556 983
f 1002 977 981
f 1036 1033 1032
f 1040 1041 1042
f 1043 1038 1039
f 1044 1040 1042
f 1044 1042 1008
f 863 988 1021
f 1043 1039 1041
f 1007 1044 1008
f 1045 1043 1041
f 1040 1045 1041
f 1046 1047 1048
f 1011 1010 1049
f 1030 1015 998
f 1049 1010 1050
f 1046 1048 1037
f 1049 1050 1047
f 1046 1037 1036
f 1049 1047 1046
f 203 1 201
f 845 1016 1015
f 1051 887 1052
f 1053 887 1051
f 823 821 1054
f 824 821 823
f 887 888 1052
f 888 1055 1052
f 1056 1055 888
f 882 1057 888
f 846 1015 1030
f 1057 1056 888
f 1058 986 1000
f 1030 994 1059
f 880 1057 882
f 1055 868 1052
f 1060 1061 1062
f 1063 1064 1061
f 1064 1065 1066
f 845 1067 1016
f 1068 1065 1064
f 1065 1068 1069
f 1070 1069 1071
f 1068 1071 1069
f 1068 1064 1072
f 1058 552 986
f 1073 1068 1072
f 1071 1068 1073
f 884 1021 1002
f 1066 1074 1075
f 1074 1066 1065
f 1066 1075 1061
f 1064 1066 1061
f 1074 1062 1075
f 856 1067 845
f 863 878 1031
f 1075 1062 1061
f 832 1076 889
f 832 889 831
f 889 1076 891
f 861 863 1021
f 570 1077 607
f 829 831 828
f 1078 1079 1080
f 603 607 1073
f 884 1002 981
f 764 904 921
f 879 993 995
f 1077 1081 1070
f 862 878 863
f 856 859 1067
f 850 846 1030
f 879 815 993
f 764 784 904
f 815 768 975
f 1079 1014 1080
f 861 1021 884
f 746 911 723
f 723 911 909
f 1080 1014 1082
f 845 1015 846
f 784 900 904
f 608 831 598
f 1077 1083 1081
f 589 821 825
f 723 909 910
f 598 831 890
f 607 1071 1073
f 1 880 201
f 1082 1014 1013
f 1082 1013 1084
f 723 910 724
f 975 768 917
f 1081 1083 1085
f 589 582 821
f 880 874 201
f 850 1030 1059
f 598 890 599
f 784 753 900
f 851 552 1058
f 1084 1013 1086
f 582 1054 821
f 724 910 915
f 724 915 757
f 753 893 900
f 917 768 933
f 768 770 933
f 1087 803 804
f 582 584 1054
f 1088 1087 804
f 607 1070 1071
f 1088 804 382
f 1086 1013 962
f 1089 1088 382
f 1089 382 381
f 890 892 599
f 1086 962 1090
f 599 892 1
f 753 755 948
f 753 948 893
f 276 1089 381
f 276 381 387
f 815 975 993
f 584 1091 1054
f 584 603 1091
f 201 874 995
f 874 879 995
f 770 761 933
f 1090 962 758
f 1083 1078 1085
f 757 915 755
f 607 1077 1070
f 140 1027 1092
f 755 915 948
f 1093 1092 1024
f 1 892 880
f 590 828 608
f 590 825 828
f 761 764 933
f 1093 1024 162
f 603 1073 1091
f 1083 1079 1078
f 764 921 933
f 608 828 831
f 1093 140 1092
f 758 962 746
f 746 962 911
f 590 589 825
f 1094 751 742
f 161 1093 162
f 128 140 1093
f 1042 1062 1008
f 1095 1096 813
f 1050 1010 734
f 1037 1048 782
f 1097 1098 871
f 782 1048 736
f 819 1095 813
f 734 1099 742
f 887 1097 871
f 1100 819 873
f 1053 1097 887
f 162 1024 198
f 1101 1039 780
f 1092 1028 1022
f 1096 1101 780
f 128 1093 161
f 1041 1060 1042
f 1033 1037 782
f 1050 734 1047
f 1047 734 736
f 1034 780 1039
f 1098 873 871
f 1101 1060 1041
f 780 1034 785
f 1034 1033 785
f 1102 1099 1004
f 1092 1027 1028
f 1004 1099 1005
f 1102 1004 1009
f 785 1033 782
f 1100 1095 819
f 1062 1102 1009
f 1024 1092 1022
f 1099 1094 742
f 1048 1047 736
f 813 1096 780
f 1005 1099 1010
f 1062 1009 1008
f 1101 1041 1039
f 1060 1062 1042
f 1010 1099 734
f 1098 1100 873
f 1103 1104 1105
f 1106 1107 1108
f 1062 1108 1102
f 1109 1110 1111
f 1109 1111 1112
f 1084 1086 1113
f 1084 1113 1104
f 1114 1115 1116
f 1108 1062 1074
f 1110 1117 1118
f 1084 1104 1082
f 1119 140 139
f 1116 1080 1114
f 1116 1078 1080
f 1120 1078 1116
f 1121 472 1122
f 1110 1123 1117
f 1124 1109 1112
f 1125 1126 1127
f 1126 1081 1085
f 1109 1124 1128
f 1082 1104 1114
f 528 1124 1129
f 1116 1115 1107
f 1118 1130 1131
f 1106 1108 1132
f 1133 1134 1135
f 745 1134 1136
f 1126 1116 1107
f 1127 1107 1106
f 1132 1108 1074
f 1127 1106 1132
f 1136 1134 1133
f 1082 1114 1080
f 528 1121 1124
f 1126 1107 1127
f 1130 1137 1119
f 1138 747 1136
f 748 747 1138
f 1139 1123 1110
f 1120 1116 1126
f 1065 1132 1074
f 1127 1132 1065
f 1136 1133 1140
f 1140 1133 1105
f 758 748 1138
f 1125 1127 1065
f 1138 1136 1140
f 1117 1141 1137
f 1085 1120 1126
f 758 1138 1090
f 472 532 458
f 1142 1118 1131
f 1128 1139 1110
f 1125 1065 1069
f 1103 1143 1144
f 1128 1145 1139
f 1078 1120 1085
f 1130 1117 1137
f 1104 1140 1105
f 1086 1138 1140
f 1090 1138 1086
f 1081 1126 1125
f 532 472 1121
f 1118 1117 1130
f 1081 1125 1070
f 1144 1146 1115
f 1109 1128 1110
f 1070 1125 1069
f 1115 1103 1144
f 1134 750 1135
f 1086 1140 1113
f 1147 1124 1112
f 1107 1146 1102
f 528 532 1121
f 1115 1146 1107
f 1119 1027 140
f 745 750 1134
f 751 1135 750
f 1094 1135 751
f 1135 1094 1099
f 1136 747 745
f 1107 1102 1108
f 1128 1122 1145
f 1135 1099 1143
f 1133 1135 1105
f 1114 1104 1103
f 1105 1135 1143
f 1105 1143 1103
f 1102 1146 1099
f 1099 1144 1143
f 1129 1124 1147
f 1146 1144 1099
f 1114 1103 1115
f 1113 1140 1104
f 1148 1149 1101
f 1150 1096 1095
f 1129 529 528
f 1091 1151 1054
f 1027 1119 1152
f 1152 1119 1137
f 1111 1110 1142
f 1148 1150 1153
f 1072 1154 1151
f 1095 1100 1155
f 1119 139 1156
f 1155 1150 1095
f 1121 1122 1128
f 1155 1100 1157
f 1130 1119 1156
f 1054 1151 1158
f 1130 1156 1131
f 1073 1072 1091
f 823 1054 1158
f 1091 1072 1151
f 1150 1159 1153
f 1137 1141 1152
f 823 1153 820
f 1153 1159 820
f 1160 1150 1155
f 1157 1098 1161
f 1162 1097 1053
f 820 1159 1160
f 1124 1121 1128
f 1110 1118 1142
f 1061 1060 1063
f 820 1160 827
f 826 827 1161
f 1064 1154 1072
f 251 1163 252
f 826 1161 1164
f 1148 1101 1096
f 252 1163 1165
f 1158 1166 1149
f 826 1164 829
f 1148 1096 1150
f 829 1164 830
f 1149 1148 1153
f 1151 1166 1158
f 1163 1167 1165
f 1158 1149 823
f 823 1149 1153
f 1165 1167 278
f 1098 1157 1100
f 1167 277 278
f 1157 1160 1155
f 832 830 1162
f 1160 1159 1150
f 1164 1098 1097
f 1161 1160 1157
f 1161 827 1160
f 1098 1164 1161
f 1097 1162 1164
f 1168 1169 1170
f 1168 1170 1171
f 830 1164 1162
f 1060 1101 1172
f 1063 1060 1172
f 1162 1053 1051
f 1173 1174 475
f 1087 475 481
f 1175 1176 1177
f 1175 1177 1174
f 1064 1063 1154
f 1166 1063 1172
f 1166 1154 1063
f 1154 1166 1151
f 1173 1175 1174
f 1166 1172 1149
f 1149 1172 1101
f 1076 1178 1051
f 866 1076 1051
f 832 1162 1178
f 832 1178 1076
f 1051 868 867
f 1076 866 891
f 1179 475 1087
f 1051 1178 1162
f 866 1051 867
f 1179 1173 475
f 1055 891 868
f 891 866 868
f 868 1051 1052
f 1055 1056 891
f 1056 892 891
f 1180 1181 1182
f 1057 892 1056
f 892 1057 880
f 1183 1184 1017
f 1185 1169 1168
f 1186 1014 1079
f 1187 1176 1175
f 1184 962 1017
f 1186 1188 1014
f 209 1189 1190
f 1191 1083 1077
f 1191 1192 1083
f 1175 1173 1193
f 1184 1194 962
f 1190 1189 1013
f 1176 1168 1171
f 1195 478 470
f 1194 1196 962
f 1193 1187 1175
f 469 1195 470
f 1188 1190 1014
f 1196 952 962
f 1190 1012 1014
f 1192 1197 1083
f 1196 930 952
f 1189 1183 1013
f 1193 1173 1198
f 1195 1199 478
f 1198 1173 1179
f 1200 1186 1197
f 1200 1201 1186
f 569 1202 1191
f 569 1191 585
f 1190 1013 1012
f 1202 1203 1191
f 1187 1204 1176
f 1201 1188 1186
f 1197 1079 1083
f 585 1191 1077
f 1203 1192 1191
f 1205 1187 1193
f 585 1077 570
f 1197 1186 1079
f 1205 1204 1187
f 1183 1017 1013
f 1204 1168 1176
f 1206 469 466
f 1203 1200 1197
f 1203 1197 1192
f 803 1087 1207
f 229 235 944
f 211 1184 1183
f 211 222 1184
f 235 953 944
f 235 234 953
f 222 1194 1184
f 222 219 1194
f 1208 1209 1199
f 219 1196 1194
f 234 896 953
f 234 233 896
f 1204 1185 1168
f 219 232 930
f 219 930 1196
f 233 897 896
f 233 241 897
f 1206 1195 469
f 232 239 930
f 239 238 913
f 241 237 902
f 241 902 897
f 238 912 913
f 238 231 912
f 1208 1210 1209
f 237 922 902
f 237 218 922
f 226 246 569
f 246 1202 569
f 479 1206 466
f 1211 1180 1185
f 231 907 912
f 246 245 1203
f 246 1203 1202
f 1212 1205 1193
f 1163 251 1181
f 245 250 1203
f 1212 1204 1205
f 218 924 922
f 1193 1198 1213
f 231 244 907
f 218 227 924
f 244 954 907
f 250 1200 1203
f 250 247 1200
f 1206 1208 1195
f 244 230 954
f 230 908 954
f 227 221 926
f 247 1201 1200
f 227 926 924
f 230 934 908
f 247 207 1201
f 1213 1212 1193
f 230 248 934
f 1204 1211 1185
f 221 220 927
f 221 927 926
f 207 1188 1201
f 248 937 934
f 207 1190 1188
f 248 249 937
f 207 209 1190
f 220 940 927
f 1214 1206 479
f 220 210 940
f 249 941 937
f 210 943 940
f 249 229 941
f 216 1189 209
f 216 208 1189
f 210 967 943
f 210 225 967
f 229 944 941
f 208 211 1183
f 208 1183 1189
f 454 971 214
f 1212 1213 275
f 465 477 461
f 1212 275 277
f 1167 1211 1204
f 214 971 215
f 1208 1199 1195
f 971 965 215
f 965 967 215
f 477 1214 479
f 215 967 225
f 387 380 276
f 1214 1215 1206
f 1216 1217 1218
f 1219 1208 1206
f 1220 1221 1222
f 1220 1222 1223
f 1216 1224 1217
f 1225 1223 175
f 418 419 1226
f 419 1227 1226
f 1228 1229 1220
f 1228 1220 1230
f 1224 1231 1217
f 465 475 1174
f 1226 1227 1232
f 1228 1230 1233
f 1222 185 1223
f 1218 1234 1235
f 1218 1235 1226
f 1236 1216 1226
f 1224 1216 1236
f 1226 1232 1236
f 1224 1229 1231
f 1229 1228 1231
f 1237 1238 1229
f 172 1225 175
f 420 416 1235
f 1230 171 1233
f 1212 277 1204
f 1235 1234 420
f 416 418 1235
f 1223 185 175
f 1230 1225 171
f 1229 1238 1221
f 1229 1221 1220
f 1235 418 1226
f 1230 1220 1225
f 1225 172 171
f 1177 1214 477
f 1236 1237 1224
f 1224 1237 1229
f 1232 1239 1236
f 1236 1239 1237
f 1225 1220 1223
f 1218 1226 1216
f 1228 1233 1231
f 214 455 454
f 1177 477 465
f 213 455 214
f 298 300 452
f 298 448 450
f 290 294 450
f 450 294 298
f 213 290 455
f 290 450 455
f 448 298 452
f 302 303 447
f 1240 1241 1210
f 453 302 447
f 301 302 453
f 452 301 453
f 300 301 452
f 303 304 484
f 1219 1206 1215
f 447 303 484
f 1208 1219 1210
f 960 1242 961
f 372 961 959
f 394 958 395
f 386 803 1242
f 1210 1219 1240
f 386 1242 384
f 384 1242 960
f 1243 1244 1245
f 390 1245 796
f 475 476 481
f 796 1245 1246
f 1245 1247 1246
f 1242 1248 961
f 802 1249 810
f 1249 802 1250
f 1250 1251 1249
f 796 1246 798
f 1251 1250 1252
f 1180 1182 1253
f 1170 1240 1219
f 1171 1215 1214
f 1254 1248 1252
f 1254 1252 1255
f 1247 1256 1246
f 1170 1219 1215
f 1252 1257 1255
f 1255 1257 1258
f 1259 1254 1255
f 1180 1253 1185
f 1255 1243 1259
f 393 1259 1243
f 393 1245 389
f 1171 1214 1177
f 1243 1245 393
f 1246 1260 1261
f 1261 798 1246
f 798 1261 799
f 1246 1256 1260
f 1180 1163 1181
f 1169 1241 1240
f 799 1261 1262
f 1163 1180 1211
f 797 795 799
f 1242 803 1249
f 803 810 1249
f 1169 1240 1170
f 1242 1249 1248
f 799 1262 797
f 1249 1251 1248
f 1261 1263 1262
f 1171 1170 1215
f 797 1264 336
f 1176 1171 1177
f 1167 1163 1211
f 961 1248 959
f 797 1262 1265
f 959 1248 1254
f 797 1265 1264
f 959 1254 958
f 1264 492 336
f 1251 1252 1248
f 1264 1265 492
f 1265 1262 1266
f 1253 1241 1169
f 336 492 338
f 958 1254 395
f 277 1167 1204
f 492 1265 1266
f 395 1254 1259
f 395 1259 393
f 1255 1258 1243
f 389 1245 390
f 1267 1268 1247
f 1269 1270 1271
f 1272 1273 1274
f 1271 492 1266
f 982 984 1275
f 1245 1267 1247
f 1276 1277 1250
f 1274 1278 1279
f 1280 1281 947
f 947 1281 1282
f 1279 1278 1277
f 1244 1267 1245
f 1283 1284 500
f 475 465 467
f 1283 500 1270
f 982 1275 1285
f 988 1031 1286
f 1287 1268 1267
f 999 1280 947
f 1288 1270 1269
f 946 982 1285
f 988 1286 1272
f 1289 1277 1276
f 1174 1177 465
f 1276 1250 802
f 999 947 955
f 1271 1266 1263
f 1290 1267 1244
f 1266 1262 1263
f 1272 1274 1279
f 1283 1270 1288
f 1185 1253 1169
f 988 1272 956
f 1284 1283 1291
f 1279 1277 1289
f 1292 1268 1287
f 1293 1269 1271
f 1258 1244 1243
f 1294 1295 1292
f 1285 1284 1291
f 1296 506 1297
f 1287 1267 1290
f 1298 1299 1300
f 1301 1296 1297
f 273 1299 1298
f 1272 1279 956
f 1288 1269 1293
f 946 1285 883
f 1302 1296 1301
f 1299 1296 1302
f 1303 1299 1302
f 272 273 1298
f 1290 1244 1258
f 1300 1299 1303
f 1304 1295 1294
f 939 1279 1289
f 1282 1304 929
f 1305 1306 1307
f 1291 1283 1288
f 939 956 1279
f 947 1282 929
f 1289 1276 805
f 1308 1304 1294
f 1294 1292 1287
f 859 1285 1291
f 805 1276 802
f 1309 1290 1258
f 939 1289 805
f 1310 1311 1312
f 929 1304 1308
f 541 497 1313
f 1261 1314 1263
f 1313 497 499
f 1305 1315 1316
f 883 1285 859
f 1317 541 1313
f 539 541 1317
f 1318 1311 1310
f 1313 499 493
f 1271 1263 1319
f 1317 1313 493
f 1260 1314 1261
f 806 939 805
f 1317 493 1320
f 1321 1258 1257
f 1281 1293 1271
f 877 929 1308
f 1291 1288 1293
f 593 1322 594
f 1323 493 496
f 1309 1258 1321
f 556 545 540
f 1320 493 1323
f 1324 539 1317
f 1325 1311 1318
f 1326 1325 1318
f 1317 1320 1327
f 1067 1291 1293
f 1328 1314 1260
f 1290 1309 1273
f 1323 496 500
f 1329 1330 1331
f 1281 1271 1319
f 1308 1294 1287
f 1287 1290 1286
f 1324 1317 1327
f 1328 1263 1314
f 1308 1287 1332
f 1333 1293 1281
f 1334 1330 1329
f 859 1291 1067
f 1322 1330 1334
f 1273 1309 1321
f 983 556 540
f 1286 1290 1273
f 540 539 984
f 984 539 1324
f 1067 1293 1333
f 491 500 490
f 1328 1260 1256
f 1335 1336 1337
f 1277 1257 1252
f 1319 1263 1328
f 1338 1312 1311
f 1332 1287 1286
f 878 1308 1332
f 877 1308 878
f 1333 1281 1280
f 1305 1307 1315
f 1327 1320 1323
f 1275 1324 1327
f 1284 1323 500
f 983 540 984
f 1327 1323 1284
f 1295 1328 1256
f 1272 1286 1273
f 1270 491 492
f 1247 1268 1256
f 1336 1339 1340
f 500 491 1270
f 1341 1342 1343
f 1067 1333 1016
f 1278 1321 1257
f 984 1324 1275
f 1319 1328 1282
f 1281 1319 1282
f 1277 1252 1250
f 1275 1327 1285
f 1311 1325 1338
f 1285 1327 1284
f 1031 878 1332
f 1292 1256 1268
f 1295 1256 1292
f 1336 1335 1339
f 1325 1344 1345
f 1270 492 1271
f 1031 1332 1286
f 1273 1321 1278
f 1016 1333 999
f 1322 593 1346
f 999 1333 1280
f 1304 1328 1295
f 1282 1328 1304
f 1278 1257 1277
f 1274 1273 1278
f 1347 1348 1349
f 1349 1350 1141
f 1315 1307 1351
f 478 1352 471
f 1325 1345 1338
f 1348 1353 1350
f 1348 1350 1349
f 1350 1152 1141
f 1352 1354 1145
f 1350 1353 1355
f 1354 1139 1145
f 1354 1356 1139
f 1139 1356 1123
f 1356 1357 1123
f 1338 1345 1358
f 1350 1355 1152
f 1357 1117 1123
f 471 1352 1122
f 1353 1025 1355
f 1357 1347 1117
f 1122 472 471
f 1359 1360 1361
f 568 1362 1363
f 1364 1363 1365
f 1348 1347 1357
f 1366 1346 593
f 1360 1342 1361
f 1355 1025 1152
f 1347 1141 1117
f 1152 1025 1027
f 1145 1122 1352
f 1347 1349 1141
f 425 132 426
f 426 132 484
f 132 167 484
f 484 167 447
f 979 942 854
f 1367 1345 1344
f 444 406 442
f 433 1233 171
f 1368 1369 1358
f 425 427 133
f 854 942 853
f 133 427 155
f 1367 1370 1345
f 1371 1369 1368
f 950 899 860
f 1351 1341 1315
f 442 406 415
f 942 885 853
f 1337 578 605
f 433 436 1233
f 1372 1370 1373
f 436 1231 1233
f 155 427 136
f 853 885 852
f 605 1335 1337
f 899 857 860
f 851 1058 864
f 1371 1368 1374
f 1368 1375 1376
f 442 415 410
f 899 849 857
f 851 864 554
f 427 429 136
f 554 864 865
f 136 429 137
f 852 885 884
f 1058 1000 864
f 436 1217 1231
f 849 850 857
f 436 437 1217
f 554 865 1001
f 442 410 417
f 1000 989 864
f 442 417 439
f 884 981 852
f 429 187 137
f 1001 865 565
f 989 860 864
f 852 981 848
f 429 431 187
f 437 1218 1217
f 850 1059 857
f 1377 1378 1379
f 439 417 420
f 1059 855 857
f 1001 565 563
f 437 439 1218
f 1307 1380 1351
f 1001 563 562
f 431 173 187
f 848 981 446
f 439 1234 1218
f 1380 1381 1382
f 1059 994 855
f 1383 1340 1384
f 989 950 860
f 1361 1341 1385
f 439 420 1234
f 446 981 809
f 581 1362 567
f 1382 1385 1380
f 431 171 173
f 431 433 171
f 994 854 855
f 567 1362 568
f 994 979 854
f 446 809 411
f 446 411 444
f 444 411 406
f 132 425 133
f 1386 414 808
f 414 411 808
f 1362 1387 1365
f 808 411 809
f 1386 808 806
f 1388 1386 806
f 1388 806 801
f 1359 1382 1384
f 1389 1388 801
f 1207 1389 803
f 803 1389 801
f 1213 1089 276
f 1213 1198 1089
f 1198 1179 1089
f 1089 1179 1088
f 1179 1087 1088
f 481 480 1087
f 1087 480 1207
f 480 482 1207
f 482 535 1207
f 535 1389 1207
f 535 534 1389
f 534 1390 1389
f 1389 1390 1388
f 1390 1391 1388
f 1365 1387 1392
f 1334 1329 1393
f 1391 1394 1388
f 1388 1394 1386
f 1394 414 1386
f 275 1213 276
f 1359 1395 1360
f 1392 1387 1396
f 412 404 411
f 412 411 414
f 1339 1335 1397
f 1326 1398 1325
f 1142 1131 1399
f 413 1400 1401
f 1402 1400 413
f 1403 1142 1404
f 1395 1342 1360
f 1399 1131 1156
f 1405 1406 1407
f 1408 529 1409
f 1409 529 1129
f 1232 1410 1405
f 1406 1403 1411
f 1404 1142 1399
f 413 1401 1412
f 1411 1403 1404
f 397 1402 413
f 396 1402 397
f 1413 1414 1408
f 1232 1405 1239
f 1239 1405 1407
f 1412 1401 1415
f 1409 1129 1147
f 1407 1406 1411
f 1415 1401 1413
f 1415 1413 1408
f 1239 1407 1238
f 1408 1409 1410
f 127 1399 1156
f 127 1156 139
f 1343 1310 1416
f 1387 1337 1396
f 1415 1408 1417
f 1417 1408 1410
f 1407 1411 1222
f 413 1412 402
f 1237 1239 1238
f 1222 1411 1418
f 1418 1411 1404
f 1409 1147 1419
f 1420 1415 1417
f 402 1412 1415
f 1421 1417 1410
f 1404 1399 125
f 1147 1112 1422
f 578 1423 576
f 1342 1395 1310
f 1420 1417 1421
f 125 1399 127
f 534 536 1390
f 1410 1409 1419
f 1238 1407 1221
f 1391 1390 1424
f 1221 1407 1222
f 1418 1404 125
f 1424 1390 1425
f 1425 1390 536
f 1422 1112 1111
f 1418 125 189
f 1419 1147 1422
f 1425 536 537
f 419 402 1415
f 1222 1418 185
f 419 1415 1420
f 1426 1395 1427
f 1425 537 1428
f 1378 1429 1427
f 1428 537 530
f 185 1418 189
f 1394 1391 1430
f 1416 260 263
f 1430 1391 1424
f 403 402 419
f 1410 1419 1405
f 1394 1430 1402
f 1406 1419 1422
f 1227 1420 1421
f 1403 1111 1142
f 1400 1424 1425
f 1405 1419 1406
f 1430 1424 1400
f 1318 1310 1395
f 1431 1329 1429
f 414 1394 396
f 396 1394 1402
f 1422 1111 1403
f 419 1420 1227
f 1414 530 533
f 1395 1426 1326
f 1227 1421 1410
f 1414 533 529
f 1428 530 1413
f 1395 1326 1318
f 1402 1430 1400
f 1406 1422 1403
f 1414 529 1408
f 1413 530 1414
f 1401 1400 1425
f 1425 1428 1401
f 1401 1428 1413
f 1232 1227 1410
f 151 1297 506
f 1432 1433 1434
f 1435 1209 1210
f 1298 1316 272
f 1305 1316 1298
f 1181 1436 1182
f 1181 251 1436
f 251 254 1437
f 1438 1439 1440
f 1439 1441 1440
f 251 1437 1436
f 1312 260 1416
f 1312 1416 1310
f 1435 1442 1209
f 1182 1436 1443
f 1434 1444 1442
f 1438 1440 1445
f 1436 1446 1443
f 1199 1209 1352
f 1442 1444 1447
f 1436 1437 1448
f 1449 1427 1429
f 254 1450 1437
f 1209 1442 1451
f 1209 1451 1352
f 1437 1450 1448
f 1398 1326 1426
f 1442 1447 1451
f 1452 260 1312
f 254 255 1450
f 1436 1448 1446
f 1352 478 1199
f 260 1452 258
f 1447 1444 1453
f 1449 1426 1427
f 1444 1454 1453
f 1448 1450 1455
f 1440 1371 1456
f 1454 1445 1457
f 1443 1446 1241
f 1454 1457 1453
f 1445 1458 1457
f 1429 1331 1449
f 1451 1354 1352
f 1445 1456 1458
f 566 568 223
f 255 1459 1450
f 1451 1447 1354
f 1447 1356 1354
f 1447 1453 1356
f 1453 1457 1348
f 1453 1357 1356
f 1456 1374 1460
f 1458 1456 1461
f 255 257 1459
f 1456 1460 1461
f 1444 1433 1454
f 1459 1439 1455
f 1452 257 258
f 1348 1357 1453
f 1462 1445 1433
f 257 1463 1459
f 1457 1458 1348
f 1448 1455 1464
f 1461 1460 1465
f 1466 1398 1426
f 1458 1353 1348
f 1458 1461 1353
f 1439 1467 1441
f 1455 1462 1464
f 1441 1371 1440
f 1461 1465 1353
f 1443 1253 1182
f 1443 1241 1253
f 1353 1465 1025
f 1446 1448 1432
f 1025 1465 1029
f 1241 1446 1432
f 1455 1439 1462
f 257 1452 1463
f 1398 1344 1325
f 1338 1468 1312
f 1331 1330 1449
f 1448 1464 1432
f 1459 1455 1450
f 1241 1432 1435
f 1466 1344 1398
f 1435 1210 1241
f 1322 1346 1330
f 1330 1469 1449
f 1358 1369 1338
f 1346 1469 1330
f 1459 1463 1439
f 1432 1434 1435
f 1433 1464 1462
f 1462 1439 1438
f 1462 1438 1445
f 1435 1434 1442
f 1463 1467 1439
f 1464 1433 1432
f 1444 1434 1433
f 1433 1445 1454
f 1312 1468 1452
f 1440 1456 1445
f 1371 1374 1456
f 1296 794 506
f 1296 1299 794
f 1469 1346 1366
f 1299 793 794
f 1367 1344 1466
f 1299 273 11
f 591 1366 593
f 1299 11 793
f 1452 1468 1463
f 1423 581 576
f 1423 1337 1387
f 1449 1466 1426
f 1329 1331 1429
f 1469 1367 1466
f 1362 1423 1387
f 1337 1336 1396
f 151 1364 1297
f 594 1322 1334
f 1362 581 1423
f 1358 1345 1375
f 1297 1364 1470
f 1336 1340 1396
f 1468 1338 1369
f 223 568 151
f 594 1334 605
f 605 1334 1397
f 268 1341 266
f 1469 1466 1449
f 1345 1370 1375
f 1334 1393 1397
f 1305 1300 1306
f 1300 1303 1306
f 1393 1329 1431
f 1378 1431 1429
f 1298 1300 1305
f 605 595 594
f 1335 605 1397
f 1363 1362 1365
f 1377 1393 1431
f 1469 1373 1367
f 1427 1359 1378
f 1019 1029 1471
f 1397 1393 1377
f 1392 1396 1472
f 1441 1369 1371
f 1342 1310 1343
f 1358 1375 1368
f 1395 1359 1427
f 1023 1018 602
f 1341 268 1315
f 1366 591 1373
f 1378 1377 1431
f 1365 1392 1472
f 1473 1020 1474
f 1416 263 1343
f 1373 591 1372
f 1470 1365 1472
f 578 596 605
f 1472 1383 1475
f 1373 1370 1367
f 1377 1339 1397
f 1359 1379 1378
f 1473 1474 1370
f 1365 1470 1364
f 1468 1467 1463
f 580 1372 591
f 1339 1377 1384
f 1384 1377 1379
f 578 1337 1423
f 1315 268 270
f 266 1343 263
f 1470 1472 1475
f 1341 1343 266
f 1476 1475 1383
f 1361 1382 1359
f 1359 1384 1379
f 1342 1341 1361
f 1468 1441 1467
f 1375 1370 1474
f 1384 1340 1339
f 1476 1302 1475
f 1364 151 1363
f 1475 1302 1301
f 1385 1382 1361
f 1475 1301 1470
f 1381 1384 1382
f 1473 1372 574
f 574 1372 580
f 1369 1441 1468
f 1384 1381 1383
f 270 272 1316
f 1297 1470 1301
f 1380 1385 1351
f 1372 1473 1370
f 1383 1396 1340
f 1376 1374 1368
f 1351 1385 1341
f 1307 1381 1380
f 1383 1381 1477
f 1473 1018 1020
f 1472 1396 1383
f 1474 1020 1471
f 1018 1473 602
f 574 602 1473
f 1366 1373 1469
f 1381 1307 1477
f 1374 1376 1460
f 1471 1375 1474
f 1476 1383 1477
f 1375 1471 1376
f 1306 1477 1307
f 1476 1477 1306
f 568 1363 151
f 1460 1376 1465
f 1303 1476 1306
f 270 1316 1315
f 1476 1303 1302
f 1020 1019 1471
f 1376 1029 1465
f 1471 1029 1376
