v 0.006605305 -0.002945032 -0.07808906
v 0.00647901 0.006764317 -0.08165461
v 0.006640688 -0.01675683 0.08165497
v -0.004936922 0.01675679 0.04108292
v -0.005113076 -0.01254185 0.0721578
v 0.004189454 -0.01673334 -0.06582242
v -0.004369594 -0.009192467 -0.05875105
v -0.006111979 -0.01257804 -0.02519351
v -0.006640662 0.002955616 0.02420884
v -0.006353471 0.003263928 -0.04663086
v -0.00603237 0.0008643568 0.05620772
v -0.00501937 0.01626557 -0.002241671
v -0.006583042 0.002724577 0.001658022
v -0.005646855 0.01380298 0.02277052
v -0.00568299 0.01332987 0.03955233
v -0.00628861 0.0109583 0.02528232
f 1 2 3
f 4 5 3
f 2 4 3
f 6 1 3
f 5 6 3
f 7 2 1
f 6 7 1
f 8 6 5
f 8 7 6
f 9 8 5
f 7 10 2
f 8 10 7
f 4 11 5
f 11 9 5
f 12 4 2
f 10 12 2
f 13 8 9
f 13 10 8
f 12 14 4
f 15 11 4
f 16 12 10
f 16 14 12
f 13 16 10
f 16 13 9
f 11 16 9
f 15 16 11
f 14 16 4
f 16 15 4
