v 0.005993992 0.01380232 0.03057039
v 0.005993932 -0.006436005 0.01051825
v 0.005993992 0.01411662 -0.02928895
v 0.004429251 -0.01532011 -0.03053379
v 0.0007952154 0.01504427 -0.03054637
v -0.005829513 -0.003729731 -0.03056824
v -0.005993992 -0.006458461 -0.03057039
v 0.005860031 0.01426581 0.02964514
v 0.005551666 -0.01286162 -0.003787518
v 0.003492028 -0.01526457 -0.02323359
v 0.003523022 -0.01435131 -0.01594383
v -0.005985856 -0.005550325 -0.0168786
v -0.005138189 0.009915918 0.01046121
v -0.005414069 0.005365044 0.01046056
v -0.003929943 0.01532009 0.0214166
v 0.001507401 0.0149875 0.0278157
v -0.00409323 0.0125919 0.02050042
v 0.001030296 0.006797522 0.02143294
v 0.0006698966 0.0004264861 0.01321548
v 0.003516763 -0.01526439 -0.03053701
v -0.004230976 -0.006570578 -0.01322472
v -0.003912091 0.01531997 0.01594388
v 0.004921615 0.011127 0.02874327
v -0.0008100867 -0.01134232 -0.03055209
v -0.0006725788 -0.007701874 -0.005922437
f 1 2 3
f 4 5 3
f 6 5 7
f 8 1 3
f 5 8 3
f 2 9 3
f 9 4 3
f 9 10 4
f 10 9 11
f 12 6 7
f 10 12 7
f 12 10 11
f 13 14 15
f 13 12 14
f 12 13 6
f 8 16 1
f 16 5 15
f 16 8 5
f 14 17 15
f 18 17 14
f 17 16 15
f 18 19 2
f 19 18 14
f 10 20 4
f 5 20 7
f 20 5 4
f 9 21 11
f 21 12 11
f 12 21 14
f 5 22 15
f 22 13 15
f 6 22 5
f 13 22 6
f 16 23 1
f 1 23 2
f 23 18 2
f 23 17 18
f 17 23 16
f 24 10 7
f 20 24 7
f 24 20 10
f 21 25 14
f 25 21 9
f 25 9 2
f 19 25 2
f 25 19 14
