v 0.009802449 -0.04944262 0.006704926
v -0.008585438 -0.05026558 -0.01016951
v 0.01882108 -0.04828469 -0.01842964
v 0.03320292 -0.03576303 0.03205186
v 0.006763984 -0.03480506 0.05583781
v 0.03302656 0.03694241 0.02702928
v 0.007623985 0.02720045 0.05625284
v 0.01471161 0.02198437 0.05366713
v -0.003289368 0.02695867 0.04895812
v -0.006803133 0.05026557 0.005612612
v 0.01927234 -0.003112271 0.05625528
v 0.03141073 -0.01602948 -0.04937422
v -0.001187459 -0.02853451 -0.04728842
v 0.0005240813 -0.003048733 -0.0562551
v 0.02703641 -0.03369176 -0.03953111
v -0.01920265 0.01320717 -0.04038203
v -0.02774289 0.003861234 -0.03366923
v -0.01666404 -0.02272582 0.0489583
v -0.01343708 -0.03297261 0.0492186
v -0.02564228 0.02932724 -0.01871169
v -0.0007694177 0.03682457 -0.0399127
v 0.02958384 0.004501037 0.04589069
v 0.01165785 0.04628366 0.0136112
v 0.01870454 0.04882367 -0.005656242
v 0.02514956 0.04330084 -0.02457047
v 0.0310137 0.02777951 -0.04276621
v 0.03320437 0.0042478 -0.05162632
v 0.02336183 -0.04054397 -0.0293963
v 0.02863796 -0.02776552 -0.04206252
v -0.01514193 -0.01487762 -0.04350615
v 0.0009867623 0.02147208 -0.05095911
v -0.0178746 0.02321473 0.03106827
v -0.03167883 0.008172475 0.007307172
v -0.02374262 0.03542358 -0.0003904104
v -0.02981485 -0.009719864 0.01558244
v -0.004617713 -0.04509595 -0.02962184
v -0.03046741 0.0129767 -0.02080321
v 0.02990566 -0.0161637 0.0437265
v 0.02951847 0.02328911 0.03959662
v 0.02930246 0.0325809 -0.03637421
v -0.002505526 0.04772721 -0.02252007
v 0.03242128 0.01637205 -0.04676616
v 0.03218514 -0.00958252 -0.04933262
v -0.02225554 -0.03674307 -0.001363397
v -0.01098 -0.04880174 0.008355618
v -0.03320434 -0.005765319 -0.01324296
v -0.01705852 -0.02746506 0.04428256
v -0.0274719 -0.02597221 0.007778645
v -0.02917238 -0.02395234 -0.01441562
v -0.02737275 -0.02339057 -0.02489948
v 0.03276804 -0.002713263 -0.05003953
v -0.02521633 -0.0315589 -0.0002748966
v -0.02316663 -0.01536322 -0.03512788
v -0.02043757 -0.02823511 -0.02825963
f 1 2 3
f 4 1 3
f 1 4 5
f 6 7 8
f 9 7 10
f 7 11 8
f 11 7 5
f 12 13 14
f 15 13 12
f 16 14 17
f 18 7 9
f 5 18 19
f 7 18 5
f 20 16 17
f 16 20 21
f 6 22 4
f 11 22 8
f 23 24 10
f 24 23 6
f 7 23 10
f 23 7 6
f 25 24 6
f 21 25 26
f 27 12 14
f 27 6 4
f 28 4 3
f 15 28 3
f 28 15 4
f 29 12 4
f 15 29 4
f 29 15 12
f 14 30 17
f 13 30 14
f 16 31 14
f 31 16 21
f 31 21 26
f 27 31 26
f 31 27 14
f 32 18 9
f 18 32 33
f 32 34 33
f 32 9 10
f 34 32 10
f 35 18 33
f 2 36 3
f 36 15 3
f 36 13 15
f 37 20 17
f 34 37 33
f 37 34 20
f 22 38 4
f 38 22 11
f 4 38 5
f 38 11 5
f 39 6 8
f 22 39 8
f 39 22 6
f 40 6 26
f 25 40 26
f 40 25 6
f 41 25 21
f 25 41 24
f 24 41 10
f 20 41 21
f 41 34 10
f 34 41 20
f 6 42 26
f 42 27 26
f 27 42 6
f 12 43 4
f 27 43 12
f 44 45 19
f 45 44 2
f 1 45 2
f 45 5 19
f 45 1 5
f 46 35 33
f 37 46 33
f 46 37 17
f 18 47 19
f 35 47 18
f 48 46 49
f 46 48 35
f 48 47 35
f 48 44 19
f 47 48 19
f 50 36 2
f 50 46 17
f 46 50 49
f 44 50 2
f 50 44 49
f 51 27 4
f 43 51 4
f 51 43 27
f 44 52 49
f 52 48 49
f 48 52 44
f 30 53 17
f 53 50 17
f 53 30 13
f 54 53 13
f 53 54 50
f 36 54 13
f 50 54 36
