v 0.0001657307 0.01766241 -0.009511054
v 0.003325768 -0.01767343 -0.01076806
v -0.002232835 -0.01789087 -0.02809864
v -0.002136126 -0.01838329 -0.0273937
v 0.003308132 -0.01760632 0.01530486
v -0.003606416 -0.01837313 0.01472276
v 0.003219076 0.01612329 0.002802014
v -0.003687628 -0.01752627 -0.01135582
v 0.0002895743 0.01815838 -0.008366644
v -0.003800027 0.01758659 0.02592927
v 0.002539113 0.01829258 0.02767646
v -0.00181064 -0.003184676 0.02354896
v 0.003808066 -0.003700495 0.02135754
v 0.003189124 -0.01391804 0.01906276
v -0.0007912815 0.0169082 -0.008833766
v -0.003808074 -0.01654753 0.01471615
v -0.00310085 -0.01750129 -0.02700901
v -0.002240658 0.01677537 0.001304448
v 0.003697112 0.01838326 0.01376587
v -0.002922535 0.01764396 0.01114911
v -0.002182133 -0.0171904 0.01804847
v -0.002635516 0.01688743 0.02809864
v 0.003288157 0.003618538 0.02510554
v 0.003797539 0.01747602 0.0137676
v -0.000109531 -0.01351842 0.02002037
v -0.0009469241 0.006459296 0.02676839
v 0.003432214 0.01285613 0.02565914
f 1 2 3
f 2 4 3
f 4 5 6
f 5 4 2
f 7 2 1
f 8 4 6
f 9 10 11
f 9 7 1
f 12 10 6
f 13 5 2
f 5 13 14
f 15 9 1
f 10 16 6
f 16 8 6
f 8 16 10
f 4 17 3
f 8 17 4
f 15 17 18
f 17 8 10
f 17 1 3
f 17 15 1
f 19 9 11
f 9 19 7
f 9 20 10
f 20 17 10
f 17 20 18
f 20 15 18
f 15 20 9
f 21 12 6
f 21 5 14
f 5 21 6
f 10 22 11
f 12 22 10
f 13 23 14
f 7 24 2
f 19 24 7
f 24 13 2
f 25 21 14
f 21 25 12
f 23 25 14
f 26 22 12
f 25 26 12
f 26 25 23
f 22 26 11
f 26 23 11
f 27 23 13
f 24 27 13
f 23 27 11
f 27 19 11
f 27 24 19
