v -0.001563877 -0.007291019 -0.001597419
v -0.00157252 -0.005840361 -0.01512901
v 0.002132803 -0.003137887 -0.01601945
v 0.002192795 -0.003504336 0.01144658
v -0.002333283 -0.002132177 0.02411406
v -0.002188206 0.007291019 0.01837318
v -0.002298713 0.006758034 -0.02430578
v 0.0004355907 -0.0008960962 0.02430578
v -0.002282232 -0.005126119 -0.01384012
v 0.002288789 0.0005527735 0.02322172
v 0.002211601 0.002039909 -0.01979645
v 0.002333283 0.003711283 0.01978476
v -0.001513302 -0.006001353 0.01105405
v -0.001372218 0.007281721 -0.02356736
v 0.002200842 0.001499832 -0.02053715
v -0.001272321 0.00727433 0.01837213
f 1 2 3
f 4 1 3
f 5 6 7
f 6 5 8
f 9 2 1
f 5 9 1
f 2 9 7
f 9 5 7
f 4 10 8
f 10 11 12
f 13 5 1
f 4 13 1
f 5 13 8
f 13 4 8
f 11 14 12
f 6 14 7
f 15 2 7
f 14 15 7
f 15 14 11
f 2 15 3
f 15 4 3
f 15 10 4
f 10 15 11
f 14 16 12
f 16 14 6
f 16 10 12
f 16 6 8
f 10 16 8
