v -0.002550006 -0.001044333 -0.03237408
v -0.001570329 0.008204997 -0.02692723
v 0.003139332 0.0005941987 -0.03083777
v -0.001636997 0.00819689 0.02100158
v -0.002535135 0.0006434917 0.03237408
v 0.00338015 0.004048765 0.02632195
v 0.003418952 0.003099263 -0.0280419
v -0.0005978644 0.008141279 -0.02501208
v -0.002099112 -0.004926741 -0.02503365
v -0.003418952 -0.00810039 -0.01188666
v -0.002511784 -0.008205026 -0.01188451
v 0.002830073 -0.001931012 -0.02375078
v -0.0007302612 0.008091807 0.02100414
v 0.0006924272 -0.004490077 -0.02123284
v 0.003114372 0.001781583 0.02809018
v -0.002619982 -0.0001126528 0.03186542
v -0.003136948 -0.004874289 0.02098304
v 0.001864165 -0.004306436 -0.006570637
v 0.001444489 -0.005128473 0.01239437
v 0.0009863973 -0.0007725358 0.02732247
v -0.002231762 -0.004978955 0.02098513
v 0.002597764 -0.002980411 0.01720798
f 1 2 3
f 4 2 5
f 6 4 5
f 2 7 3
f 7 6 3
f 8 2 4
f 8 7 2
f 7 8 6
f 9 1 3
f 10 2 1
f 9 10 1
f 10 9 11
f 6 12 3
f 6 13 4
f 13 8 4
f 8 13 6
f 9 14 11
f 14 9 3
f 12 14 3
f 15 6 5
f 2 16 5
f 16 15 5
f 10 17 2
f 17 16 2
f 18 14 12
f 18 19 11
f 14 18 11
f 16 20 15
f 17 21 16
f 21 20 16
f 19 21 11
f 21 10 11
f 21 17 10
f 20 22 15
f 22 21 19
f 21 22 20
f 22 18 12
f 18 22 19
f 22 12 6
f 15 22 6
