v 0.002682596 -0.02408275 0.03943169
v -0.002595097 -0.02608177 0.0426926
v 0.002649754 -0.02604696 -0.0426926
v -0.002682716 -0.02545664 -0.03821045
v -0.00262554 0.02129355 0.04013973
v 0.002682716 0.02494001 0.0418874
v 0.001877934 0.004169315 0.04252851
v 0.002682686 -0.02193466 -0.04256046
v 0.002645344 -0.006310344 -0.03439736
v 0.002524912 0.02483195 0.0141992
v -0.0009411871 0.00430271 -0.02132064
v 0.00243035 0.01211393 -0.0150519
v 0.001716495 -0.02556074 -0.04190546
v -0.000931412 -0.01624399 -0.0365082
v -0.002599284 -0.01252133 -0.03240371
v 0.002472073 0.02098975 0.001086175
v -0.0009099841 0.02388185 0.03579432
v -0.001759633 -0.004039437 -0.02793825
v -0.002577931 0.02114496 0.01600313
v 0.002594471 0.02608177 0.03379017
v -0.0001159608 0.014274 -0.008855879
v -0.002542347 0.009120941 -0.01273519
v -7.742643e-05 0.02453643 0.02263153
v -0.00174585 0.02095151 0.01009053
v -0.00253877 0.01650259 0.0002064109
f 1 2 3
f 2 4 3
f 5 2 6
f 5 4 2
f 2 7 6
f 7 1 6
f 1 7 2
f 8 9 6
f 8 1 3
f 1 8 6
f 9 10 6
f 9 11 12
f 4 13 3
f 13 8 3
f 8 13 4
f 14 4 15
f 14 8 4
f 9 14 15
f 8 14 9
f 16 9 12
f 16 10 9
f 17 5 6
f 18 9 15
f 18 11 9
f 17 19 5
f 5 19 4
f 10 20 6
f 20 17 6
f 21 16 12
f 18 22 11
f 22 18 15
f 11 22 12
f 22 21 12
f 4 22 15
f 19 22 4
f 23 19 17
f 23 20 10
f 20 23 17
f 16 24 10
f 24 23 10
f 23 24 19
f 22 25 21
f 21 25 16
f 25 24 16
f 25 22 19
f 24 25 19
