v 0.002747998 -0.005953789 0.01373672
v 0.002747908 0.004120111 0.01373711
v -0.002748102 -0.001372397 0.01373565
v 0.002748102 0.005038202 -0.01373643
v -0.002747148 0.003204465 -0.002744585
v -0.00274761 -0.0004556179 -0.01373711
v 0.00183177 -0.005953968 0.01006985
v -0.001831323 0.003205001 -0.01373643
v -0.001831979 0.00228864 0.0128189
v 0.001831278 0.00595355 0.007325053
v 0.002748087 -0.005036652 -0.01373658
v 0.002748117 0.005953908 -0.01190156
v 0.001832053 -0.005037427 -0.01373595
v 3.72529e-07 0.005036771 -0.01007047
f 1 2 3
f 2 1 4
f 5 6 3
f 7 1 3
f 6 7 3
f 6 8 4
f 5 8 6
f 2 9 3
f 9 5 3
f 10 9 2
f 9 10 5
f 11 6 4
f 1 11 4
f 7 11 1
f 12 2 4
f 12 10 2
f 8 12 4
f 13 7 6
f 11 13 6
f 13 11 7
f 10 14 5
f 12 14 10
f 14 8 5
f 14 12 8
