v 0.0009533167 0.02042726 -0.03723663
v 0.007091761 0.02341518 -0.03919894
v 0.01106948 0.02060667 -0.04052401
v -0.01795113 0.01145756 0.009072572
v -0.01850742 0.002491593 0.003491253
v -0.005752742 0.02213344 0.01110104
v 0.002239347 0.02373794 0.002257407
v 0.002062917 0.02361152 0.00927031
v -0.01349276 0.017382 0.01019198
v 0.008983016 0.02185097 0.006008267
v 0.007010877 0.02064714 0.01860568
v 0.01271403 0.01749888 0.01767072
v -0.004520893 0.02194831 0.001293302
v -0.007387698 0.01937547 0.0218457
v -0.01442903 0.0167385 0.02209121
v 0.01571631 -0.01325908 0.002703309
v 0.01022887 0.01428729 -0.03720146
v -0.01536226 0.01680407 0.01704717
v 0.009524226 -0.0222739 0.01268882
v 0.0008870363 -0.02370006 0.01875302
v 0.001076937 -0.02373788 0.01075149
v 0.004310668 -0.02218261 0.02624887
v -0.008906603 -0.02078888 0.02701861
v -0.01141542 -0.01473668 0.02720559
v -0.01219177 -0.02181911 0.0204609
v -0.004994571 0.008874029 0.03643823
v 0.001616299 0.008700937 0.03795955
v 0.004036367 0.0119848 0.03548238
v -0.01080519 0.008907169 0.03284201
v -0.003532112 0.00122118 0.03909832
v -0.01440477 0.01269993 0.02763245
v -0.01572406 0.007650822 0.02753901
v -0.01895541 0.007043839 0.02005595
v -0.01978159 0.005317688 0.01583052
v 0.0164758 0.01402506 0.01151249
v 0.0132674 0.01809606 0.00577262
v 0.000927031 0.01916352 0.02482414
v -0.002903283 0.01658723 0.02919868
v 0.003551543 0.01002222 -0.03458658
v 0.003635406 -0.009011716 -0.0148403
v 0.0003763437 -0.01623425 -0.007846892
v 0.01612175 -0.003664404 -0.004719585
v 0.01844037 -0.008340389 0.006406516
v 0.01987511 -0.002950042 0.008448869
v 0.01987511 0.004847348 0.01301485
v -0.01742411 -0.01450679 0.0158518
v -0.01155686 -0.02259308 0.01360193
v -0.01618767 -0.0194253 0.01059425
v -0.0140686 -0.01917338 0.006609023
v -0.0007596016 -0.02191719 0.001998663
v 0.0003796816 0.01319057 -0.0364238
v -0.009705484 -0.01335052 -0.003840238
v -0.00529027 -0.0188359 -0.002093047
v -0.003348112 -0.009622365 0.03631786
v 0.005805552 -0.006934941 0.04005665
v 0.003631234 -0.01195362 0.03788167
v 0.00685674 -0.02268881 0.008329391
v -0.00274533 -0.01714906 0.03320235
v 1.5378e-05 -0.02144867 0.02911362
v -0.00871104 -0.01094568 0.03199384
v -0.007575929 -0.02336463 0.02086115
v 0.004447699 0.001305699 0.04052395
v 0.01069969 -0.000957489 0.03976423
v -0.01648825 0.01498303 0.0192214
v -0.009853184 0.01398578 0.03070611
v 0.0004089475 0.02244177 0.01583424
v 0.007594645 -0.01563802 -0.006957769
v 0.01862597 0.003332734 0.002016544
v -0.01589513 -0.01915672 0.013706
v -0.01974231 -0.005345136 0.01149613
v -0.009237766 -0.02159515 0.007529289
v -0.001628876 -0.008494794 -0.01448134
v 0.007921875 -0.01932862 0.03119749
v 0.01364225 -0.01869828 0.02296656
v 0.01269132 -0.01490873 0.03295362
v 0.01695371 0.01014361 0.02327746
v 0.0197922 0.001316726 0.02304709
v 0.008619905 0.0155113 0.02831668
v 0.01190507 0.0068793 0.03612894
v -0.004991412 -0.0129931 0.03389451
v -0.01143384 6.788969e-05 0.03264061
v -0.006699264 -0.00814721 0.03455749
v 0.00807023 0.004597992 0.03955659
v 0.01374108 -0.01186258 -0.003536195
v 0.01055503 -0.01959929 0.002798796
v -0.01981455 -1.254678e-05 0.01135132
v -0.01718092 -0.01342973 0.005085707
v -0.01853395 -0.01145023 0.009709537
v 0.0115881 -0.008576065 0.0381366
v 0.01587504 -0.005455524 0.03468293
v 0.01602209 0.002956659 0.03330526
v 0.01103574 -0.02071911 0.02130818
v 0.01726675 -0.01300254 0.02450392
v 0.007270634 -0.01607934 0.0355711
v 0.01283365 0.01253137 0.02824455
v -0.004405499 -0.008848935 0.03597289
v -0.01080835 -0.007375151 0.03111684
v 0.004819751 -0.02106097 0.0004732311
v 0.01446187 -0.01826137 0.0107919
v -0.01987541 0.0002655983 0.01206315
v -0.01777482 -0.006333292 0.002499968
v 0.01987034 -0.006138474 0.02009305
v -0.009635687 -0.00840646 0.03212553
v 0.01781178 -0.01348618 0.0132899
v 0.01753122 -0.007272363 0.03114104
f 1 2 3
f 4 1 5
f 6 7 2
f 7 6 8
f 4 9 1
f 2 10 3
f 10 11 12
f 11 10 8
f 10 7 8
f 7 10 2
f 13 2 1
f 13 6 2
f 9 13 1
f 13 9 6
f 14 6 15
f 16 17 3
f 18 9 4
f 6 18 15
f 9 18 6
f 19 20 21
f 20 19 22
f 23 24 25
f 26 27 28
f 26 29 30
f 27 26 30
f 29 31 32
f 31 33 32
f 34 4 5
f 35 36 12
f 36 10 12
f 36 35 3
f 10 36 3
f 37 14 38
f 28 37 38
f 39 40 41
f 42 16 3
f 42 43 16
f 44 43 3
f 43 42 3
f 35 45 3
f 24 46 25
f 33 46 32
f 46 24 32
f 47 48 49
f 47 50 21
f 48 47 25
f 51 39 41
f 51 1 3
f 1 51 5
f 17 51 3
f 51 17 39
f 52 53 49
f 50 53 41
f 51 53 52
f 54 55 30
f 55 54 56
f 50 57 21
f 57 19 21
f 54 58 56
f 59 58 23
f 60 24 23
f 61 20 22
f 59 61 22
f 47 61 25
f 61 23 25
f 61 59 23
f 20 61 21
f 61 47 21
f 62 27 30
f 55 62 30
f 62 55 63
f 64 31 15
f 31 64 33
f 18 64 15
f 64 18 4
f 34 64 4
f 64 34 33
f 26 65 29
f 65 31 29
f 65 28 38
f 65 26 28
f 31 65 15
f 65 14 15
f 14 65 38
f 37 66 14
f 6 66 8
f 14 66 6
f 66 11 8
f 66 37 11
f 40 67 41
f 17 67 39
f 67 40 39
f 68 44 3
f 45 68 3
f 68 45 44
f 69 48 25
f 46 69 25
f 69 46 48
f 34 70 33
f 70 46 33
f 71 47 49
f 47 71 50
f 53 71 49
f 71 53 50
f 72 51 41
f 53 72 41
f 72 53 51
f 73 59 22
f 73 74 75
f 76 35 12
f 45 76 77
f 76 45 35
f 11 78 12
f 79 78 28
f 78 37 28
f 37 78 11
f 80 58 54
f 58 80 23
f 80 60 23
f 81 29 32
f 29 81 30
f 81 82 30
f 62 83 27
f 27 83 28
f 83 79 28
f 79 83 63
f 83 62 63
f 84 17 16
f 84 67 17
f 57 85 19
f 85 84 16
f 84 85 67
f 70 86 5
f 48 87 49
f 87 52 49
f 87 51 52
f 46 88 48
f 70 88 46
f 88 87 48
f 89 90 63
f 90 89 75
f 55 89 63
f 91 79 63
f 90 91 63
f 76 91 77
f 19 92 22
f 74 92 19
f 92 73 22
f 73 92 74
f 74 93 75
f 94 58 59
f 73 94 59
f 58 94 56
f 94 55 56
f 94 89 55
f 94 73 75
f 89 94 75
f 95 78 79
f 91 95 79
f 95 91 76
f 95 76 12
f 78 95 12
f 96 54 30
f 82 96 30
f 96 80 54
f 80 96 60
f 96 82 60
f 24 97 32
f 97 81 32
f 98 57 50
f 98 85 57
f 85 98 67
f 98 50 41
f 67 98 41
f 99 74 19
f 85 99 19
f 99 85 16
f 100 70 34
f 100 86 70
f 100 34 5
f 86 100 5
f 101 70 5
f 51 101 5
f 87 101 51
f 101 88 70
f 88 101 87
f 102 45 77
f 45 102 44
f 97 103 81
f 82 103 60
f 81 103 82
f 60 103 24
f 103 97 24
f 104 93 74
f 99 104 74
f 104 102 93
f 43 104 16
f 104 99 16
f 104 43 44
f 102 104 44
f 102 105 93
f 105 90 75
f 93 105 75
f 105 102 77
f 91 105 77
f 105 91 90
