v 0.005271882 7.385015e-05 0.00623703
v 0.005407393 0.005185187 0.004109889
v -0.005407453 0.001277193 0.003544569
v 0.004042029 -0.006146535 -0.004743695
v 0.005407393 -0.005611241 0.004658163
v -0.004428566 -0.004588783 -0.00491029
v 0.005407453 0.003093749 -0.00623706
v 0.003213763 -0.002354443 -0.006147593
v -0.005002022 -0.0008520931 -0.003365159
v -0.005393326 0.001498386 -4.953146e-05
v 0.005001158 0.006146535 -0.001785338
v -0.005271822 -0.001700342 0.004143745
f 1 2 3
f 4 5 6
f 5 4 7
f 2 5 7
f 5 2 1
f 8 6 7
f 4 8 7
f 8 4 6
f 6 9 7
f 9 10 7
f 11 2 7
f 10 11 7
f 2 11 3
f 11 10 3
f 5 12 6
f 10 12 3
f 12 1 3
f 12 5 1
f 12 9 6
f 9 12 10
