v -0.00399743 0.0006327629 -0.02983046
v -0.002784029 0.01369494 -0.02974451
v -0.002275184 0.01508605 -0.03189933
v -0.004846349 0.01608044 0.02845746
v -0.002651557 -0.02388746 -0.02427077
v -0.000722751 -0.003266871 0.01221889
v -0.004788145 -0.02197754 -0.0303041
v -0.002445117 -0.02384317 -0.02919883
v 0.000586763 -0.02388406 -0.03169477
v -0.003296837 0.01998514 -0.001085162
v -0.001661703 0.02393633 -0.01572967
v 0.003940627 0.006685913 -0.01650131
v 0.0004551858 0.01749438 0.03189933
v 0.001986876 0.01730019 0.02962673
v 0.002072707 0.009025276 0.02558321
v 0.003823593 0.006326973 0.02034509
v 0.001676872 -0.02154005 -0.03189665
v 0.002465799 0.00107187 -0.0314227
v -0.001651749 0.009489059 0.02746773
v 0.001715407 -0.001679122 0.01590812
v -0.0002688318 -0.0132165 -0.002424717
v -0.004829124 -0.01908106 -0.0302085
v -0.003532007 -0.02336103 -0.02897501
v 0.003988877 0.01371694 -0.001187742
v 0.004015252 0.008329332 -0.01363951
v 0.003060594 0.0216825 0.003042698
v 0.0047739 -0.01198101 -0.004037261
v 0.004438177 0.001697838 0.01155478
v 0.003721163 0.01211315 0.01204211
v 0.001692936 0.01816434 0.02972573
v 0.004373953 -0.007378876 0.005632639
v 0.003864154 0.0009482503 0.01639783
v 0.002687201 0.001045883 -0.03052652
v 0.003298923 -0.020078 -0.02280408
v 0.004405186 -0.01524419 -0.01065096
v 0.001030788 -0.02393633 -0.02990836
v 0.00338845 -0.01594192 -0.00758779
v 0.003046647 0.01962698 0.01243123
v 0.004846349 -0.007853329 0.002669454
v -0.001368091 -0.02363157 -0.02268928
v 0.002503738 -0.02080005 -0.01884365
f 1 2 3
f 2 1 4
f 5 6 4
f 7 5 4
f 8 7 9
f 9 7 3
f 10 2 4
f 11 12 3
f 2 11 3
f 10 11 2
f 11 10 4
f 13 11 4
f 14 15 16
f 15 14 13
f 17 9 3
f 18 17 3
f 19 6 20
f 6 19 4
f 15 19 20
f 19 13 4
f 19 15 13
f 6 21 20
f 21 6 5
f 1 22 4
f 22 7 4
f 22 1 3
f 7 22 3
f 23 8 5
f 7 23 5
f 23 7 8
f 24 25 26
f 11 25 12
f 25 11 26
f 25 27 12
f 28 29 16
f 29 28 24
f 14 30 13
f 11 30 26
f 30 11 13
f 31 32 20
f 32 15 20
f 15 32 16
f 12 33 3
f 33 18 3
f 33 17 18
f 33 34 17
f 27 35 12
f 35 33 12
f 33 35 34
f 17 36 9
f 34 36 17
f 36 8 9
f 8 36 5
f 31 37 27
f 37 35 27
f 37 31 20
f 21 37 20
f 30 38 26
f 38 30 14
f 38 24 26
f 38 29 24
f 38 14 16
f 29 38 16
f 25 39 27
f 39 25 24
f 28 39 24
f 39 31 27
f 39 32 31
f 39 28 16
f 32 39 16
f 36 40 5
f 40 21 5
f 40 37 21
f 41 36 34
f 35 41 34
f 37 41 35
f 41 40 36
f 40 41 37
