v -0.0005421587 0.004793689 -0.03861645
v 0.0003272155 -0.004654884 -0.03803849
v -0.0005421648 -0.004793704 -0.03861797
v -0.0005405364 0.004604101 0.03741077
v -6.024027e-05 -0.004554123 0.03861678
v 0.0005411971 0.004618257 -0.03718561
v -6.16801e-05 0.004525438 0.03861797
v -0.0005403636 -0.004633188 0.03740883
v 0.000326205 0.004655153 -0.0380362
v 0.0005421648 -0.004618466 -0.03718692
v 0.0004361612 0.004636467 -0.03775957
v 0.0004363242 -0.004636526 -0.0377624
f 1 2 3
f 4 1 3
f 5 6 7
f 8 4 3
f 2 8 3
f 5 8 2
f 8 5 7
f 4 8 7
f 9 2 1
f 6 9 7
f 9 4 7
f 4 9 1
f 10 5 2
f 10 6 5
f 9 11 2
f 11 9 6
f 10 11 6
f 12 10 2
f 11 12 2
f 12 11 10
