v 0.0009534955 0.02042721 -0.03723663
v 0.007091939 0.02341513 -0.03919891
v 0.01106966 0.02060674 -0.04052395
v -0.01795089 0.01145755 0.009072661
v -0.01850724 0.002491519 0.003491342
v -0.005752504 0.02213345 0.01110101
v 0.002239585 0.02373789 0.002257437
v 0.002063096 0.02361153 0.00927037
v -0.01349247 0.01738195 0.01019198
v 0.008983254 0.02185093 0.006008297
v 0.007011116 0.02064709 0.01860583
v 0.01271421 0.01749884 0.01767087
v -0.004520714 0.02194832 0.001293331
v -0.007387459 0.01937537 0.02184576
v -0.01442873 0.01673846 0.02209136
v 0.01571655 -0.01325913 0.002703309
v 0.01022911 0.01428728 -0.03720137
v -0.01536202 0.01680408 0.01704723
v 0.009524465 -0.02227382 0.01268896
v 0.0008872151 -0.02370004 0.01875311
v 0.001077056 -0.02373789 0.01075149
v 0.004310966 -0.02218278 0.02624896
v -0.008906484 -0.02078889 0.0270187
v -0.01141512 -0.01473667 0.02720568
v -0.01219153 -0.02181913 0.02046102
v -0.004994392 0.008873925 0.03643826
v 0.001616538 0.008700892 0.03795952
v 0.004036546 0.01198475 0.03548247
v -0.01080501 0.008907065 0.03284198
v -0.003531873 0.001221076 0.03909832
v -0.01440459 0.01269995 0.02763253
v -0.01572382 0.007650867 0.02753904
v -0.01895529 0.007043824 0.02005595
v -0.01978141 0.005317673 0.01583058
v 0.01647598 0.01402508 0.01151264
v 0.01326764 0.01809596 0.005772591
v 0.0009272099 0.01916353 0.02482429
v -0.002903044 0.0165873 0.02919865
v 0.003551841 0.01002221 -0.03458649
v 0.003635645 -0.009011731 -0.01484025
v 0.0003764629 -0.01623432 -0.007846862
v 0.01612198 -0.003664389 -0.004719615
v 0.0184406 -0.008340344 0.006406546
v 0.01987535 -0.002949938 0.008448929
v 0.01987541 0.004847333 0.01301497
v -0.01742393 -0.01450677 0.01585197
v -0.01155674 -0.0225931 0.0136019
v -0.01618749 -0.01942532 0.0105944
v -0.01406848 -0.01917334 0.006609082
v -0.0007593632 -0.02191727 0.001998782
v 0.00037992 0.01319061 -0.03642368
v -0.009705305 -0.01335053 -0.003840268
v -0.005290031 -0.01883592 -0.002093047
v -0.003347754 -0.00962244 0.03631794
v 0.00580579 -0.006934956 0.04005668
v 0.003631473 -0.01195364 0.03788173
v 0.006857038 -0.02268882 0.008329451
v -0.002745152 -0.01714908 0.03320253
v 1.561642e-05 -0.02144863 0.02911371
v -0.008710861 -0.01094566 0.03199387
v -0.007575691 -0.02336465 0.02086133
v 0.004447877 0.001305684 0.04052398
v 0.01069993 -0.0009575039 0.03976426
v -0.01648802 0.01498292 0.0192214
v -0.009852886 0.01398568 0.0307062
v 0.0004091859 0.02244167 0.01583436
v 0.007594883 -0.01563804 -0.006957769
v 0.01862615 0.003332719 0.002016604
v -0.01589489 -0.01915677 0.01370603
v -0.01974213 -0.005345151 0.01149619
v -0.009237587 -0.02159511 0.007529378
v -0.001628697 -0.008494809 -0.01448125
v 0.007922053 -0.01932864 0.03119767
v 0.01364249 -0.01869829 0.02296665
v 0.01269162 -0.01490875 0.03295374
v 0.01695395 0.01014362 0.02327755
v 0.01979238 0.001316711 0.02304715
v 0.008620143 0.01551138 0.02831665
v 0.01190525 0.006879255 0.03612894
v -0.004991174 -0.01299305 0.0338946
v -0.01143372 6.781518e-05 0.03264064
v -0.006699026 -0.008147135 0.03455758
v 0.008070409 0.004597947 0.03955665
v 0.01374125 -0.01186265 -0.003536075
v 0.01055533 -0.01959933 0.002798885
v -0.01981431 -1.250207e-05 0.01135135
v -0.01718068 -0.01342972 0.005085796
v -0.01853365 -0.01145028 0.009709686
v 0.01158828 -0.00857611 0.03813675
v 0.01587522 -0.005455539 0.03468299
v 0.01602226 0.002956674 0.03330523
v 0.01103592 -0.02071904 0.02130821
v 0.01726693 -0.01300262 0.02450401
v 0.007270932 -0.01607935 0.03557113
v 0.01283389 0.01253138 0.02824455
v -0.00440532 -0.008849069 0.03597292
v -0.01080811 -0.007375196 0.03111693
v 0.004819989 -0.02106099 0.0004732609
v 0.01446205 -0.01826145 0.01079196
v -0.01987535 0.0002655238 0.01206318
v -0.01777458 -0.006333277 0.002499968
v 0.01987052 -0.006138459 0.02009308
v -0.009635389 -0.008406505 0.03212553
v 0.01781201 -0.01348625 0.01328999
v 0.01753145 -0.007272318 0.03114101
f 1 2 3
f 4 1 5
f 6 7 2
f 7 6 8
f 4 9 1
f 2 10 3
f 10 11 12
f 11 10 8
f 10 7 8
f 7 10 2
f 13 2 1
f 13 6 2
f 9 13 1
f 13 9 6
f 14 6 15
f 16 17 3
f 18 9 4
f 6 18 15
f 9 18 6
f 19 20 21
f 20 19 22
f 23 24 25
f 26 27 28
f 26 29 30
f 27 26 30
f 29 31 32
f 31 33 32
f 34 4 5
f 35 36 12
f 36 10 12
f 36 35 3
f 10 36 3
f 37 14 38
f 28 37 38
f 39 40 41
f 42 16 3
f 42 43 16
f 44 43 3
f 43 42 3
f 35 45 3
f 24 46 25
f 33 46 32
f 46 24 32
f 47 48 49
f 47 50 21
f 48 47 25
f 51 39 41
f 51 1 3
f 1 51 5
f 17 51 3
f 51 17 39
f 52 53 49
f 50 53 41
f 51 53 52
f 54 55 30
f 55 54 56
f 50 57 21
f 57 19 21
f 54 58 56
f 59 58 23
f 60 24 23
f 61 20 22
f 59 61 22
f 47 61 25
f 61 23 25
f 61 59 23
f 20 61 21
f 61 47 21
f 62 27 30
f 55 62 30
f 62 55 63
f 64 31 15
f 31 64 33
f 18 64 15
f 64 18 4
f 34 64 4
f 64 34 33
f 26 65 29
f 65 31 29
f 65 28 38
f 65 26 28
f 31 65 15
f 65 14 15
f 14 65 38
f 37 66 14
f 6 66 8
f 14 66 6
f 66 11 8
f 66 37 11
f 40 67 41
f 17 67 39
f 67 40 39
f 68 44 3
f 45 68 3
f 68 45 44
f 69 48 25
f 46 69 25
f 69 46 48
f 34 70 33
f 70 46 33
f 71 47 49
f 47 71 50
f 53 71 49
f 71 53 50
f 72 51 41
f 53 72 41
f 72 53 51
f 73 59 22
f 73 74 75
f 76 35 12
f 45 76 77
f 76 45 35
f 11 78 12
f 79 78 28
f 78 37 28
f 37 78 11
f 80 58 54
f 58 80 23
f 80 60 23
f 81 29 32
f 29 81 30
f 81 82 30
f 62 83 27
f 27 83 28
f 83 79 28
f 79 83 63
f 83 62 63
f 84 17 16
f 84 67 17
f 57 85 19
f 85 84 16
f 84 85 67
f 70 86 5
f 48 87 49
f 87 52 49
f 87 51 52
f 46 88 48
f 70 88 46
f 88 87 48
f 89 90 63
f 90 89 75
f 55 89 63
f 91 79 63
f 90 91 63
f 76 91 77
f 19 92 22
f 74 92 19
f 92 73 22
f 73 92 74
f 74 93 75
f 94 58 59
f 73 94 59
f 58 94 56
f 94 55 56
f 94 89 55
f 94 73 75
f 89 94 75
f 95 78 79
f 91 95 79
f 95 91 76
f 95 76 12
f 78 95 12
f 96 54 30
f 82 96 30
f 96 80 54
f 80 96 60
f 96 82 60
f 24 97 32
f 97 81 32
f 98 57 50
f 98 85 57
f 85 98 67
f 98 50 41
f 67 98 41
f 99 74 19
f 85 99 19
f 99 85 16
f 100 70 34
f 100 86 70
f 100 34 5
f 86 100 5
f 101 70 5
f 51 101 5
f 87 101 51
f 101 88 70
f 88 101 87
f 102 45 77
f 45 102 44
f 97 103 81
f 82 103 60
f 81 103 82
f 60 103 24
f 103 97 24
f 104 93 74
f 99 104 74
f 104 102 93
f 43 104 16
f 104 99 16
f 104 43 44
f 102 104 44
f 102 105 93
f 105 90 75
f 93 105 75
f 105 102 77
f 91 105 77
f 105 91 90
