v -0.00256303 0.007016897 -0.007426679
v 0.00260216 0.006656885 0.007426709
v 0.002640873 0.006012917 -0.006473601
v 0.002362162 -0.007016838 -0.007166803
v 0.0005397499 -0.006940007 -0.00720948
v -0.0003523231 -0.00598824 -0.006317973
v 0.001109183 -0.006971598 0.00739646
v 0.001690239 0.006695628 0.007404417
v 0.002019525 -0.007010877 0.007417798
v -0.002640873 0.005059183 -0.005463302
f 1 2 3
f 2 4 3
f 4 1 3
f 1 4 5
f 6 5 7
f 6 1 5
f 2 8 7
f 8 2 1
f 5 9 7
f 4 9 5
f 9 2 7
f 9 4 2
f 10 6 7
f 6 10 1
f 8 10 7
f 10 8 1
