v -0.00691998 -0.006939687 0.004040807
v 0.0003925562 -0.005662765 -0.01534668
v 0.006842852 -0.006938227 0.004411787
v -0.006285787 -5.386025e-05 0.01577374
v 0.004680693 0.003573865 0.0148699
v -0.005962193 0.005230054 0.01313284
v 0.006720603 0.006856583 0.01076183
v 0.006643772 0.0001253933 0.01501524
v 0.008166075 0.006128028 0.009065032
v 0.005542159 -0.001566514 -0.01527318
v 0.004303396 0.003363147 -0.01542795
v 0.006219208 -0.007146005 0.009247661
v 0.004749 -0.001079358 0.01579887
v 0.005734086 -0.00524842 0.01363811
v -0.006001592 -0.005080096 0.01334146
v 0.003618002 -0.004832815 -0.01526779
v 0.008069575 -0.006317854 0.009210765
v 0.006896436 0.006627113 0.00413841
v -0.008166075 0.007146001 0.00885278
v -0.007428646 0.006865337 0.004673272
v -0.008158326 -0.007106971 0.009223849
v -0.003028333 -0.004627287 -0.01548943
v 0.007965326 -0.0002092421 0.00282988
v -0.0005794764 0.004613459 -0.01558954
v -0.003856838 0.002729326 -0.01565358
v 0.001962125 0.003048904 -0.01568112
v -0.007320106 0.001599163 0.01431546
v -0.008038878 -0.0008422285 0.002763003
v -0.002754211 0.002659924 -0.01576659
v 0.003998101 -0.002076674 -0.01551408
v -0.004743874 -0.001224495 -0.01561046
v -0.003173649 -0.002054732 -0.01579815
v -0.003162384 0.001009785 -0.01579887
v 0.004009128 0.0009859428 -0.01557541
v 0.0003999472 -0.004939452 -0.0155133
v 0.001933575 -0.004125249 -0.01553661
f 1 2 3
f 4 5 6
f 7 5 8
f 5 7 6
f 9 7 8
f 9 10 11
f 12 1 3
f 13 14 8
f 5 13 8
f 13 5 4
f 13 4 15
f 14 13 15
f 2 16 3
f 16 10 3
f 17 9 8
f 17 12 3
f 10 17 3
f 14 17 8
f 12 17 14
f 18 9 11
f 9 18 7
f 7 19 6
f 18 19 7
f 19 18 20
f 12 21 1
f 21 14 15
f 21 12 14
f 4 21 15
f 22 2 1
f 9 23 10
f 23 17 10
f 17 23 9
f 24 18 11
f 18 24 20
f 20 24 25
f 26 24 11
f 27 4 6
f 19 27 6
f 27 21 4
f 21 27 19
f 28 21 19
f 24 29 25
f 29 24 26
f 16 30 10
f 21 31 1
f 31 22 1
f 28 31 21
f 22 31 32
f 31 20 25
f 31 19 20
f 31 28 19
f 33 26 32
f 33 29 26
f 29 33 25
f 33 31 25
f 31 33 32
f 26 34 32
f 34 30 32
f 34 26 11
f 10 34 11
f 30 34 10
f 22 35 2
f 35 22 32
f 35 16 2
f 36 30 16
f 35 36 16
f 30 36 32
f 36 35 32
