v 0.0008311868 0.02159396 -0.02443874
v 0.004475206 -0.01974472 -0.02288896
v -0.0001994967 -0.02308851 -0.02408201
v 0.001260966 -0.02360067 -0.02273953
v 0.0004703104 -0.01397282 -0.005065322
v 0.002360642 -0.0196366 -0.014916
v 0.002414107 0.01154333 0.02068847
v -0.003823608 0.0236007 -0.004821002
v -0.002408981 0.02045065 0.02308035
v -0.0009271801 0.02082995 0.02537149
v -0.004001886 0.006674856 -0.0235967
v -0.00443244 0.01182652 -0.01240575
v -0.004306376 0.007364988 -0.01799697
v 0.001033366 0.009161323 0.01940721
v -0.0001364946 0.005875379 0.0162977
v 0.004487783 0.01945958 0.02207911
v 0.003270715 0.01773921 0.02462357
v -0.003495157 0.01959693 0.01142967
v -0.001184762 0.01995105 0.02531606
v -0.004487783 -0.007059872 -0.0007878542
v 0.002916008 0.006571233 -0.02366102
v 0.001695603 0.02220437 -0.02324831
v 0.0006380379 0.02338809 -0.02166378
v -0.003532201 0.00665006 -0.02537149
v -0.004257292 0.01894671 -0.004873514
v -0.002367556 -0.006042093 0.003544867
v -0.002348304 -0.01830116 -0.01428479
v -0.004373342 0.003838509 0.007619381
v -0.002659917 0.007549167 0.01655656
v -0.003765494 -0.01600897 -0.01374304
v -0.003067315 0.0004409254 0.009904921
v -0.00280115 -0.01851559 -0.02388614
v -0.003861994 0.00894174 0.01526743
v -0.00223124 -0.02054507 -0.02465451
f 1 2 3
f 2 4 3
f 5 6 7
f 4 6 5
f 6 4 2
f 8 9 10
f 8 11 12
f 11 13 12
f 14 5 7
f 14 15 5
f 16 17 2
f 6 17 7
f 17 6 2
f 17 16 10
f 17 14 7
f 18 9 8
f 9 19 10
f 19 17 10
f 17 19 14
f 13 20 12
f 21 16 2
f 21 22 16
f 21 2 1
f 22 21 1
f 22 23 16
f 23 8 10
f 16 23 10
f 23 22 1
f 23 11 8
f 24 23 1
f 11 23 24
f 25 8 12
f 25 18 8
f 15 26 5
f 4 27 3
f 27 4 5
f 26 27 5
f 27 26 20
f 20 28 12
f 28 25 12
f 14 29 15
f 19 29 14
f 30 27 20
f 11 30 13
f 30 20 13
f 31 26 15
f 29 31 15
f 26 31 20
f 32 30 11
f 32 11 24
f 33 31 29
f 33 28 20
f 31 33 20
f 18 33 9
f 33 19 9
f 33 29 19
f 25 33 18
f 28 33 25
f 34 32 24
f 34 1 3
f 34 24 1
f 32 34 30
f 27 34 3
f 30 34 27
