v 0.00284645 -0.02390075 -0.04438555
v 0.002846703 0.03919038 0.04229504
v 0.00284715 -0.04090458 0.04302013
v -0.002610162 -0.03984803 -0.04676861
v 0.002831548 -0.04031995 -0.04358721
v -0.002821103 -0.0439823 0.04625714
v -0.00284715 -0.03658694 0.04683918
v -0.002498195 0.04318908 0.04281116
v -0.002523884 -0.008937299 -0.04385805
v -0.002552584 -0.02495524 -0.04683918
v -0.00248979 0.04398233 0.03910977
v -0.002471939 0.04291505 0.01217371
v -0.001563385 0.04326445 0.01725525
v -0.001545861 0.0185819 -0.02765912
v -0.00247322 0.009456336 -0.03538388
v -0.002440587 0.02580297 -0.02118891
v 0.001861751 -0.003547668 -0.03864294
v 0.002690852 0.0007878244 -0.03548265
v -0.002479032 0.04035839 0.003299832
v -0.001561448 0.03351521 -0.009855211
v -0.0006902069 0.04339999 0.02260995
v 0.001072332 0.04272389 0.02983141
v 0.001073405 0.04174623 0.04042625
v 0.002805397 0.04044414 0.03204006
v 0.00185822 0.01352993 -0.02866924
v 0.002755523 0.03823155 0.01084143
v 0.001040518 0.03599831 -0.002041519
v 0.00268589 0.02257514 -0.01896888
v 0.001046494 0.0386239 0.004900575
v 0.001872733 0.03041899 -0.01059312
v 0.001873061 0.02459618 -0.01836342
v 0.002723709 0.0320577 -0.005466104
f 1 2 3
f 4 5 6
f 5 3 6
f 1 5 4
f 5 1 3
f 3 7 6
f 2 7 3
f 7 2 8
f 7 4 6
f 7 9 4
f 9 10 4
f 10 1 4
f 1 10 9
f 11 12 8
f 12 11 13
f 14 15 16
f 17 15 18
f 15 17 9
f 1 17 18
f 17 1 9
f 12 19 8
f 19 7 8
f 7 19 9
f 19 15 9
f 15 19 16
f 19 20 16
f 11 21 13
f 21 11 22
f 11 23 22
f 24 23 2
f 23 24 22
f 2 23 8
f 23 11 8
f 15 25 18
f 14 25 15
f 24 26 22
f 21 26 13
f 26 21 22
f 1 26 2
f 26 24 2
f 19 27 20
f 25 28 18
f 28 1 18
f 29 19 12
f 29 27 19
f 27 29 26
f 29 12 13
f 26 29 13
f 27 30 20
f 20 30 16
f 30 31 16
f 31 30 28
f 31 14 16
f 31 25 14
f 31 28 25
f 32 27 26
f 32 30 27
f 30 32 28
f 32 26 1
f 28 32 1
