v -0.003329396 -0.03688711 0.03920811
v -0.003329873 0.03688711 0.03197175
v -0.003329426 0.03560758 -0.04314408
v 0.003329873 -0.0239563 0.04314411
v 0.001673877 0.03657395 0.03169066
v -0.003133565 -0.03301805 0.007852465
v 0.002999276 0.03685844 -0.02696845
v 0.003040612 0.03617144 -0.03885734
v -0.003023624 -0.02607852 -0.006387085
v -0.003051847 -0.01185137 -0.02364331
v -0.003011227 -0.01973718 -0.0152477
v 0.002910763 -0.03095788 0.02244797
v 0.002815276 -0.01798773 -0.009114951
v -0.003148615 0.01084882 -0.03771496
v -0.00318566 0.02300513 -0.04113108
v 0.002847791 -0.002385795 -0.02434942
v 0.00287655 0.009940326 -0.03139627
v 0.002219379 -0.02839017 0.002467602
v 0.00290826 -0.0314427 0.03781673
v 0.002168655 0.02422726 -0.03909007
v 0.002003789 -0.01193267 -0.0177736
v 0.001206905 0.001569211 -0.0293422
v -0.003177851 -0.03603321 0.01953268
v -0.003185302 -0.03660589 0.02393249
v 0.00117895 -0.03357059 0.02806553
v -0.003052533 -0.003605664 -0.03007609
f 1 2 3
f 4 2 1
f 4 5 2
f 6 1 3
f 4 7 5
f 7 4 8
f 5 7 2
f 2 7 3
f 7 8 3
f 9 10 11
f 9 6 10
f 4 12 13
f 14 6 3
f 6 14 10
f 15 14 3
f 16 4 13
f 4 16 8
f 16 17 8
f 12 18 13
f 9 18 6
f 18 9 11
f 19 4 1
f 19 12 4
f 17 20 8
f 20 14 15
f 8 20 3
f 20 15 3
f 21 16 13
f 16 21 10
f 10 21 11
f 18 21 13
f 21 18 11
f 22 16 10
f 16 22 17
f 22 20 17
f 20 22 14
f 6 23 1
f 23 24 1
f 18 23 6
f 25 19 1
f 24 25 1
f 19 25 12
f 23 25 24
f 25 18 12
f 25 23 18
f 14 26 10
f 26 22 10
f 22 26 14
