v -0.001557767 0.01898938 0.01730153
v 0.002920985 0.02101922 -0.01932758
v -0.003045321 0.02082866 -0.02167743
v -0.003128946 -0.01907367 0.0217697
v -0.003860593 -0.0193578 0.008644402
v -0.002178848 -0.02101922 0.02216563
v -0.003665566 -0.01895303 -0.01688707
v 0.002967954 -0.01864129 -0.01624119
v 0.003251314 0.01991725 0.002425849
v -0.003564417 0.01970029 -0.000259459
v -0.003861129 0.02055097 -0.01708585
v -0.00241518 0.01887733 0.01688844
v -0.003712475 0.02070713 -0.01997411
v -0.002273917 -0.01940376 0.0225248
v -0.002188623 0.004378557 -0.02252483
v -0.002379715 -0.01133674 -0.0207662
v -0.001851141 -0.01758999 -0.01794785
v -0.00386107 -0.01819444 -0.01395202
v 0.003059089 -0.01806664 0.008485794
v 0.003861129 0.003402233 -0.01529461
v 0.002820194 -0.01995867 0.00924474
v 0.003107369 0.01976269 0.005304277
v 0.003538907 -0.0102312 -0.01836973
v 0.003629565 0.01086915 -0.01780415
v 0.003378153 -0.01618397 -0.009985983
v 0.003682196 0.006393492 -0.02007931
f 1 2 3
f 4 5 6
f 7 8 6
f 5 7 6
f 1 9 2
f 10 11 5
f 10 4 12
f 4 10 5
f 1 10 12
f 11 10 1
f 13 1 3
f 13 11 1
f 14 1 12
f 4 14 12
f 14 4 6
f 2 15 3
f 7 15 16
f 15 13 3
f 13 15 7
f 17 16 8
f 7 17 8
f 17 7 16
f 11 18 5
f 18 7 5
f 13 18 11
f 18 13 7
f 19 20 9
f 8 21 6
f 21 14 6
f 21 19 14
f 14 22 1
f 19 22 14
f 22 9 1
f 22 19 9
f 16 23 8
f 15 23 16
f 9 24 2
f 20 24 9
f 25 20 19
f 25 23 20
f 23 25 8
f 25 21 8
f 21 25 19
f 23 26 20
f 26 24 20
f 24 26 2
f 26 15 2
f 26 23 15
