v 0.002430862 -0.01594785 0.01083666
v -0.002932835 -0.01913533 0.03498179
v 0.001765586 -0.01736048 -0.01885772
v -0.003065575 -0.01849559 0.03558946
v -0.003801752 -0.01914605 -0.0159207
v 0.003165336 0.01604533 -0.03066456
v 0.003170814 0.01326996 -0.03267992
v -0.0008839071 0.0149999 -0.0355894
v 0.001423135 0.01650649 0.00320667
v 0.001007937 0.01915354 0.003570616
v -0.00234627 -0.0178389 -0.01991743
v -0.002023648 -0.01007622 -0.02506483
v -0.003680464 0.0150837 -0.02977264
v -0.001642965 0.015367 -0.01015854
v -0.003934149 -0.01824453 0.0345102
v -0.003934044 0.01412123 -0.03178412
v -0.003806561 -0.01915351 0.03451174
v -0.00220567 0.006496727 -0.03263521
v 0.0007051565 -0.008002371 -0.02624643
v 0.003674788 0.01611677 -0.02576882
v 0.002557063 -0.01546422 0.0009903312
v -0.0039341 -0.01638788 -0.01681018
v -0.003815122 0.01506591 -0.03265876
v 0.001255319 0.006172419 -0.03197747
v 0.003723349 -0.001443207 -0.02738827
v 0.003934147 0.0009699464 -0.003524125
v 0.003933117 0.01387322 -0.00897187
v 0.00364688 -0.004465222 0.0001481175
v 0.00384127 0.002266496 -0.02626926
f 1 2 3
f 2 1 4
f 2 5 3
f 6 7 8
f 4 9 10
f 1 9 4
f 5 11 3
f 12 11 5
f 13 14 10
f 15 14 13
f 15 4 10
f 14 15 10
f 16 15 13
f 2 17 5
f 17 15 5
f 17 2 4
f 15 17 4
f 18 19 12
f 11 19 3
f 19 11 12
f 20 7 6
f 20 6 10
f 21 1 3
f 15 22 5
f 22 16 5
f 16 22 15
f 23 16 13
f 23 13 10
f 18 23 8
f 6 23 10
f 23 6 8
f 23 18 12
f 23 12 5
f 16 23 5
f 24 18 8
f 24 19 18
f 7 24 8
f 19 25 3
f 25 21 3
f 25 24 7
f 24 25 19
f 26 27 9
f 9 27 10
f 27 20 10
f 21 28 1
f 28 9 1
f 28 26 9
f 28 25 26
f 25 28 21
f 27 29 20
f 20 29 7
f 29 25 7
f 25 29 26
f 29 27 26
