v -0.005584285 0.02307047 0.08262116
v 0.01531488 -0.03362932 0.02959865
v 0.02072173 0.02953807 0.0243687
v 0.0208087 -0.02206965 0.01665795
v 0.0190208 -0.02398251 -0.07379735
v 0.007661954 0.03362932 0.0204981
v 0.000146322 -0.0327101 -0.0808897
v 0.01725324 0.01655886 -0.07519436
v -0.004044354 0.02733039 -0.08262116
v -0.01943144 -0.003460291 0.06111526
v -0.01604624 -0.02264446 0.04028976
v 0.009685904 -0.03251926 -0.06874186
v -0.00557708 -0.02994079 0.01323885
v 0.02082282 0.0110852 0.01580155
v 0.005291037 0.02914898 -0.07356775
v -0.01679095 0.02406058 0.05254149
v -0.01557726 0.0172413 -0.08054584
v -0.0199144 0.01665549 0.006951809
v 0.01922464 0.0001945244 -0.06888199
v -0.007586166 -0.0294536 -0.08224547
v -0.01300844 -0.0232971 -0.0806579
v -0.01765227 0.005501186 -0.07827216
v -0.0166057 -0.01223474 -0.07789099
v -0.02082282 -0.003527964 0.002723694
v 0.01314127 0.02448041 -0.07440275
v -0.02079868 0.009989862 0.04813129
v -0.0101658 0.02792466 0.005462885
v -0.01771734 -0.01902976 0.01574796
v -0.01801737 0.01822042 0.05988008
v -0.01199075 0.0226311 -0.07471406
f 1 2 3
f 2 4 3
f 5 4 2
f 6 1 3
f 7 8 5
f 8 7 9
f 10 2 1
f 10 11 2
f 12 5 2
f 7 12 2
f 12 7 5
f 11 13 2
f 13 7 2
f 4 14 3
f 15 6 3
f 6 15 9
f 6 16 1
f 16 17 18
f 19 8 3
f 8 19 5
f 14 19 3
f 19 4 5
f 19 14 4
f 13 20 7
f 7 20 9
f 21 20 11
f 20 13 11
f 20 17 9
f 17 20 21
f 22 21 23
f 22 17 21
f 24 22 23
f 17 22 18
f 22 24 18
f 25 8 9
f 15 25 9
f 8 25 3
f 25 15 3
f 26 16 18
f 24 26 18
f 26 24 10
f 27 6 9
f 27 16 6
f 10 28 11
f 24 28 10
f 28 24 23
f 21 28 23
f 28 21 11
f 29 26 10
f 26 29 16
f 29 10 1
f 16 29 1
f 16 30 17
f 27 30 16
f 17 30 9
f 30 27 9
