v 0.03511453 0.05997801 0.04452118
v 0.03451395 0.06073928 0.03935729
v 0.0345431 0.06077099 0.04022845
v 0.0200929 0.0528332 0.07500537
v 0.00878191 0.06413817 0.01347331
v -0.00462991 0.05190444 0.0732257
v 0.02713311 0.06341064 0.02517065
v 0.02690148 0.0632422 0.02455802
v 0.02470654 0.06386328 0.02284287
v 0.03514445 0.05919623 0.04861769
v 0.03526688 0.05979562 0.04448622
v 0.03553408 0.05971217 0.04076245
v 0.02126342 0.06341743 0.01871092
v 0.03426111 0.05797422 0.05468746
v 0.03499931 0.05839503 0.05157743
v 0.02427208 0.05338597 0.0719828
v 0.03337598 0.0571394 0.0579323
v 0.03249776 0.05700099 0.05974129
v 0.03163958 0.0563457 0.06186989
v 0.03186715 0.0554409 0.06266236
v 0.03045189 0.05614209 0.06376471
v 0.02672184 0.05510235 0.06873013
v 0.02468288 0.05460608 0.07084406
v 0.02658445 0.05482602 0.06904922
v 0.01933652 0.05375552 0.07482292
v 0.01493698 0.05262828 0.07755265
v 0.01942599 0.05348253 0.07490343
v 0.01210737 0.06399834 0.0141969
v 0.01135612 0.04981732 0.08035131
v -0.002612114 0.04622889 0.08271158
v 0.007854998 0.04813755 0.08195379
v 0.02115548 0.06411719 0.01948099
v 0.03291553 0.06159627 0.0341927
v -0.007654369 0.06347215 0.01344183
v 0.008786857 0.06359649 0.01341895
v -0.0001617074 0.0638845 0.01237935
v -0.01584727 0.06257951 0.01673165
v -0.03051007 0.05906796 0.03298685
v 0.01420885 0.05204821 0.07815173
v -0.03270882 0.05772901 0.04018996
v 0.004558146 0.06400263 0.01254761
v 0.007519782 0.0494082 0.08163781
v 0.01012474 0.05028164 0.08058565
v 0.01192784 0.05132043 0.07946789
v -0.02884758 0.05341959 0.06279076
v -0.004670501 0.05176401 0.0734015
v -0.03246093 0.0552032 0.05318794
v -0.01796257 0.04745173 0.07764653
v -0.02129501 0.04929721 0.07422731
v -0.02569801 0.05246675 0.06751649
v -0.01006639 0.04614639 0.08110449
v -0.004847229 0.04727304 0.08206795
v 0.001759946 0.04767179 0.08270331
v 0.002202809 0.04799604 0.08260863
v 0.03046793 0.062639 0.02975421
v 0.02927005 0.06275904 0.02755212
v 0.03212911 0.06209183 0.03280959
v -0.01346278 0.06307268 0.04049283
v -0.01337856 0.06294942 0.04052119
v -0.01051152 0.06389332 0.03617554
v -0.01044649 0.06376696 0.03622679
v -0.007015288 0.06446218 0.03342142
v -0.004585028 0.06457162 0.03235105
v 0.005907357 0.04850793 0.08232408
v 0.004255414 0.04826796 0.08256426
v -0.002622902 0.06487906 0.03166195
v -7.379055e-05 0.06489444 0.03133345
v 0.007658064 0.06497419 0.013947
v 0.01197863 0.06485975 0.01502114
v 0.008958399 0.06476343 0.01398909
v 0.01381934 0.06460655 0.01547474
v 0.01778954 0.06455779 0.01756258
v 0.005428672 0.06504464 0.03178789
v 0.004748583 0.06489909 0.03168134
v -0.03202945 0.05622494 0.05244532
v -0.03152996 0.05618548 0.05408699
v -0.03230125 0.05695701 0.04974464
v -0.03259534 0.05721915 0.04713169
v -0.03243053 0.05779541 0.0455715
v -0.02862531 0.06046796 0.03065372
v -0.02751583 0.06105733 0.02910788
v -0.0244965 0.06180513 0.02477644
v -0.03188109 0.05871534 0.039529
v -0.0322476 0.0583204 0.04276559
v -0.03142029 0.05919039 0.03809777
v -0.03004158 0.06002641 0.03401245
v -0.02397227 0.05296707 0.06919768
v -0.02734101 0.05433774 0.06407984
v -0.02412421 0.05276728 0.06914323
v -0.02271372 0.06231225 0.02303401
v -0.01647836 0.06345129 0.01826219
v -0.02042216 0.06263447 0.02078982
v -0.01486742 0.06350088 0.01710523
v -0.01247281 0.06396747 0.01619302
v -0.01102191 0.06390488 0.01532988
v -0.006133735 0.06453025 0.01412217
v -0.0008816123 0.06463432 0.01317679
v -0.008398235 0.06436253 0.01471139
v -0.002933919 0.06470942 0.01353402
v 0.002242684 0.06492066 0.01333608
v -0.01701456 0.04859304 0.07773776
v -0.01875281 0.04913044 0.07640606
v -0.01487046 0.048033 0.07891623
v -0.02020705 0.05027199 0.07467531
v -0.02280891 0.05214643 0.07105751
v -0.001327395 0.05950141 0.0628993
v -0.002183199 0.05938029 0.06262171
v -0.006522 0.05959094 0.06101505
v -0.02911335 0.05477262 0.0610299
v -0.007926464 0.05978954 0.06024592
v -0.03060091 0.05565262 0.0571638
v -0.03062385 0.05529261 0.05756804
v -0.01113087 0.06012177 0.05722528
v -0.01051861 0.06011701 0.05807787
v 0.02688932 0.06390166 0.03309917
v 0.02937126 0.0631485 0.03214249
v 0.02462244 0.06444836 0.03051285
v -0.01324612 0.0607152 0.0542
v 0.0284366 0.06334305 0.0292379
v 0.02778363 0.06358576 0.03539951
v 0.02944875 0.06307518 0.03599908
v -0.01326883 0.0606389 0.05390919
v 0.03048635 0.05770874 0.06051902
v 0.02946061 0.05870354 0.05907069
v 0.02824086 0.05698586 0.06423756
v 0.01343936 0.05445373 0.0757225
v 0.01764202 0.06528699 0.03370338
v 0.01536345 0.06520629 0.0352748
v 0.0197354 0.06450498 0.03957161
v -0.01456499 0.06132197 0.0505097
v 0.02330601 0.06444943 0.03704758
v 0.02631783 0.05763209 0.06438839
v 0.01257539 0.05294406 0.07767802
v -0.01481426 0.06167746 0.04773811
v 0.01923209 0.06525862 0.03249265
v 0.02461213 0.06438744 0.03477831
v 0.02108908 0.06507635 0.03081268
v 0.02322286 0.06464458 0.02812655
v 0.01061779 0.05314791 0.07763481
v 0.01323485 0.05933475 0.06675192
v 0.01750237 0.05904317 0.06623706
v 0.01587081 0.05983162 0.06445929
v 0.02279592 0.06458664 0.02533259
v 0.02488106 0.05595171 0.06867866
v 0.01543063 0.06131482 0.05505387
v 0.01594186 0.06141651 0.05379669
v 0.01301003 0.06060016 0.05809116
v 0.007950723 0.05182409 0.07920364
v 0.01128745 0.06038499 0.05978423
v 0.0071491 0.05976486 0.06196178
v 0.02342242 0.05690622 0.06788062
v 0.007502854 0.05990744 0.06194431
v 0.002668917 0.04996288 0.08079393
v 0.001888871 0.0595597 0.06313559
v 0.01689655 0.05828369 0.06838977
v 0.01457059 0.05771601 0.07035734
v 0.02022111 0.057495 0.06853542
v 0.0320549 0.06207919 0.03768077
v 0.01475954 0.06060719 0.06162786
v 0.01294261 0.06063402 0.06138085
v 0.01046693 0.06026721 0.06313124
v -0.001114726 0.04955459 0.08071245
v -0.004019678 0.04943347 0.08033869
v 0.01293784 0.05982482 0.06514701
v -0.00765121 0.04844713 0.08054194
v 0.002530694 0.06592011 0.02911463
v 0.01029128 0.06570244 0.03150059
v 0.006231904 0.06597793 0.02888619
v 0.007942677 0.0658567 0.02932121
v 0.01274997 0.06555283 0.03189155
v 0.01512045 0.06537187 0.03382002
v 0.01973695 0.05637121 0.07088228
v 0.01746321 0.05536366 0.07343119
v 0.02063489 0.05526829 0.07218797
v 0.018897 0.06412292 0.0420202
v 0.02023154 0.06380844 0.04334944
v 0.01583189 0.06372166 0.04040764
v 0.01670194 0.0635283 0.04236476
v 0.01474506 0.06426156 0.03811847
v 0.008827865 0.06556821 0.01754715
v 0.01137513 0.06525147 0.01664739
v 0.01371962 0.06539392 0.01920899
v 0.01971519 0.0633136 0.04685587
v 0.009084821 0.06477726 0.03330311
v 0.01612848 0.06501782 0.01850107
v 0.009815693 0.06482255 0.03368831
v 0.01887214 0.06227434 0.0527541
v 0.02063423 0.06296945 0.04824184
v 0.005554616 0.05981302 0.06494837
v 0.01462752 0.06405044 0.03832482
v 0.01800919 0.065099 0.02158181
v 0.02095479 0.0645864 0.02143598
v 0.01868522 0.06175792 0.05551761
v 0.01602179 0.0612781 0.0579431
v 0.01037157 0.05932271 0.06666036
v 0.00861764 0.05973208 0.06538821
v 0.01737684 0.06270909 0.04658358
v 0.01748717 0.06261683 0.0478183
v 0.01159209 0.0586307 0.06878544
v 0.001763761 0.05920351 0.06633416
v 0.01313299 0.05698597 0.07196404
v 0.01485771 0.05662274 0.07226134
v -0.007239521 0.0597508 0.06332528
v -0.01312405 0.06438398 0.03573815
v -0.01568276 0.06358624 0.03997497
v -0.001049519 0.06580889 0.02922728
v 0.03031027 0.06273746 0.03710375
v 0.03145623 0.06202614 0.04129848
v 0.03338677 0.06121206 0.04175634
v -0.001396656 0.05957675 0.06520028
v 0.03202081 0.06096613 0.04728463
v 0.03351641 0.06053591 0.04614574
v -0.01183397 0.06020951 0.06008562
v 0.01390475 0.05554104 0.07412639
v 0.03362483 0.05987406 0.04920173
v -0.006116748 0.06546605 0.03052112
v 0.03154504 0.06004572 0.05223578
v -0.001320064 0.05922008 0.06612401
v 0.03290641 0.05930626 0.05281836
v -0.009091616 0.06506443 0.03227615
v 0.03221577 0.0583961 0.05665931
v -0.01682884 0.06169021 0.05079684
v -0.0214417 0.05865514 0.06054829
v -0.02153271 0.05954301 0.05751546
v -0.0244115 0.05829692 0.05856601
v -0.02083975 0.06336355 0.0257957
v -0.0175333 0.06375241 0.02134676
v -0.02030677 0.06314325 0.02270801
v -0.02291489 0.05414557 0.06837081
v -0.02356714 0.06247187 0.0261786
v -0.01682889 0.06296611 0.04340334
v -0.02545327 0.0551852 0.06461272
v -0.02109319 0.05665672 0.06540316
v -0.02379251 0.05661452 0.06342095
v -0.02058357 0.05801964 0.0629297
v -0.0135588 0.06503081 0.02586697
v -0.009671271 0.06547725 0.02415109
v -0.01243567 0.06501925 0.02282592
v -0.01695442 0.06115782 0.05378517
v -0.01811564 0.06216013 0.04713981
v -0.01060945 0.06510901 0.0210034
v -0.02673656 0.05617678 0.06124145
v -0.01501483 0.06459808 0.02327091
v -0.01457506 0.06426919 0.02005999
v -0.0266583 0.05758882 0.05782021
v -0.005199194 0.06565022 0.02927145
v -0.01460749 0.06075835 0.05657549
v -0.02891231 0.05645549 0.05776738
v -0.01137251 0.06463242 0.01844753
v 0.003234565 0.06591427 0.02821809
v -0.02841461 0.05782914 0.05467506
v -0.01654816 0.06355715 0.03989725
v -0.008964062 0.06498384 0.01835944
v -0.02945805 0.05917788 0.04732356
v -0.03118938 0.05769742 0.04969912
v -0.00529182 0.06525552 0.01720838
v -0.01242834 0.06474519 0.03356965
v -0.03033561 0.0592978 0.04391444
v -0.02902597 0.06019354 0.04200217
v -0.00221628 0.06541979 0.01672975
v -0.02948254 0.06035948 0.03652194
v -0.0278033 0.06113291 0.03717789
v -0.02711326 0.06147742 0.03256782
v 0.004882097 0.06559551 0.01680793
v -0.01299196 0.05999899 0.06061578
v -0.0091784 0.04953074 0.07913234
v -0.01685464 0.06006622 0.05910569
v -0.01080483 0.04738569 0.08055329
v -0.004928112 0.05919743 0.06530312
v -0.02624303 0.06186068 0.03341382
v -0.009159803 0.05953789 0.06327555
v -0.01256782 0.04881704 0.07893864
v -0.007538497 0.06559753 0.02825021
v -0.01241541 0.06497133 0.03143576
v -0.01592517 0.05959296 0.06120898
v -0.01601851 0.05046201 0.07622153
v -0.005695939 0.06550586 0.02901787
v -0.01091701 0.06534004 0.02838939
v -0.01905161 0.05954707 0.05969931
v -0.00746268 0.06546974 0.02810873
v -0.01410276 0.06494296 0.02898638
v -0.02250481 0.06298935 0.02765086
v -0.01799947 0.0584656 0.0631226
v -0.01750165 0.05131829 0.07472569
v -0.01037234 0.06502295 0.02128656
v -0.01854968 0.06046391 0.05636707
v -0.01990777 0.05327094 0.07130136
v -0.00925535 0.06470633 0.01886067
v -0.01678228 0.06441498 0.02578598
v -0.02184355 0.05468512 0.06824122
v 0.0155189 0.05983043 0.06375763
v 0.01495844 0.0604527 0.06161912
v 0.01934403 0.05783701 0.06787145
v 0.02143335 0.05697346 0.06840359
v 0.02315509 0.05675864 0.06772791
v 0.03121531 0.0618751 0.04119501
v 0.03162849 0.06033182 0.04990945
v 0.03016901 0.05905557 0.0565403
v 0.028193 0.05816364 0.06102422
v 0.004587293 0.06541967 0.01697676
v -0.003925562 0.0651629 0.01722531
v 0.02935588 0.0627687 0.03620487
v 0.02791613 0.06333756 0.03556196
v 0.02077502 0.06441224 0.03850783
v 0.01949042 0.06199217 0.05381622
v 0.01693904 0.0651046 0.03371298
v 0.02240306 0.06461072 0.02932679
v 0.02283955 0.06438684 0.0259199
v 0.02314049 0.06439483 0.02723002
v 0.02052456 0.06466568 0.02360353
v 0.01203173 0.06524742 0.01877119
v -0.003609002 0.04937148 0.08011635
v 0.004027843 0.05008864 0.0804933
v 0.005892098 0.05069208 0.07996085
v 0.01291436 0.05405664 0.07583372
v 0.009094119 0.05241883 0.07817653
v 0.01368535 0.05579662 0.07347559
v -0.01146966 0.04966223 0.07801647
v 0.008458376 0.05956638 0.06546292
v -0.02055717 0.06324065 0.02587962
v -0.01908553 0.06354618 0.0252881
v -0.01666451 0.06426823 0.02610243
v -0.02884704 0.05847645 0.050534
v -0.02689719 0.05742908 0.0572037
v -0.02867967 0.06022465 0.04145043
v -0.02535629 0.06195629 0.03225549
v -0.01842904 0.06030583 0.05602024
v -0.02498215 0.05798292 0.05828775
v -0.01716995 0.06089878 0.05396482
v -0.01572895 0.06382179 0.03800201
v -0.01714087 0.06322575 0.04121964
v -0.01299864 0.06443894 0.03417943
v -0.01292992 0.06478727 0.0306619
v -0.01238495 0.06466293 0.03240246
v -0.01449335 0.05966258 0.06069518
v -0.02109164 0.05630898 0.06555784
v -0.02143371 0.0543102 0.06849463
v -0.01666558 0.05071807 0.07528014
f 1 2 3
f 4 5 6
f 7 8 9
f 1 10 11
f 12 13 5
f 10 14 15
f 4 16 5
f 17 18 19
f 12 5 20
f 20 5 16
f 18 21 19
f 22 23 24
f 25 26 27
f 5 13 28
f 2 1 11
f 6 29 4
f 30 31 6
f 9 8 32
f 6 31 29
f 33 3 2
f 24 23 27
f 27 23 25
f 34 35 36
f 11 10 15
f 35 37 38
f 27 26 39
f 35 38 40
f 17 14 18
f 35 34 37
f 36 35 41
f 42 43 44
f 19 21 24
f 45 46 47
f 40 46 35
f 47 46 40
f 48 46 49
f 46 50 49
f 48 51 46
f 50 46 45
f 52 53 54
f 8 7 55
f 56 8 55
f 56 55 57
f 58 59 60
f 61 60 59
f 33 56 57
f 44 39 26
f 62 61 63
f 43 39 44
f 43 42 64
f 64 42 65
f 66 62 63
f 15 14 17
f 24 21 22
f 66 63 67
f 68 69 70
f 71 72 32
f 53 65 54
f 64 65 53
f 71 70 69
f 71 69 72
f 57 3 33
f 73 67 74
f 75 76 77
f 78 75 77
f 78 77 79
f 61 62 60
f 80 81 82
f 78 79 83
f 83 79 84
f 83 84 85
f 83 85 86
f 87 88 89
f 80 83 86
f 80 86 81
f 90 91 92
f 92 91 93
f 82 90 92
f 93 94 95
f 94 93 91
f 96 97 95
f 95 98 96
f 97 96 99
f 97 100 68
f 70 97 68
f 101 102 103
f 102 101 104
f 105 102 104
f 89 102 105
f 89 105 87
f 106 107 108
f 89 88 109
f 108 110 106
f 111 112 109
f 113 110 108
f 112 111 76
f 114 110 113
f 75 112 76
f 115 116 117
f 114 113 118
f 119 7 117
f 115 120 121
f 119 116 55
f 57 55 116
f 113 122 118
f 123 21 18
f 123 124 125
f 126 26 25
f 127 128 129
f 122 130 118
f 127 129 131
f 125 124 132
f 126 133 26
f 130 122 134
f 123 125 21
f 135 136 137
f 137 117 138
f 133 126 139
f 140 141 142
f 117 143 138
f 133 44 26
f 58 134 59
f 133 139 44
f 125 132 144
f 136 131 120
f 125 144 22
f 125 22 21
f 145 146 147
f 139 148 42
f 139 42 44
f 136 120 115
f 149 147 150
f 144 132 151
f 115 121 116
f 119 117 116
f 149 150 152
f 119 55 7
f 148 65 42
f 148 153 65
f 154 152 150
f 155 156 157
f 154 150 107
f 57 116 158
f 65 153 54
f 159 160 161
f 54 153 162
f 106 154 107
f 162 163 54
f 164 142 159
f 159 161 164
f 163 52 54
f 144 23 22
f 164 140 142
f 163 165 52
f 166 167 168
f 167 169 168
f 169 167 170
f 155 141 140
f 155 157 141
f 170 167 171
f 167 128 171
f 172 151 157
f 172 144 151
f 156 173 157
f 172 174 144
f 173 172 157
f 128 175 129
f 144 174 23
f 175 176 129
f 174 173 25
f 177 178 179
f 174 172 173
f 174 25 23
f 180 181 68
f 68 181 69
f 181 180 182
f 175 183 176
f 73 74 184
f 128 127 171
f 181 182 185
f 181 185 69
f 184 186 73
f 183 187 188
f 161 189 164
f 179 186 184
f 184 190 179
f 185 72 69
f 185 182 191
f 185 191 192
f 185 192 72
f 190 177 179
f 188 187 193
f 127 131 135
f 192 191 143
f 187 194 193
f 192 32 72
f 164 195 140
f 189 196 164
f 193 194 159
f 197 178 177
f 198 178 197
f 143 9 192
f 192 9 32
f 164 196 195
f 137 136 117
f 140 199 155
f 143 7 9
f 198 197 146
f 143 117 7
f 140 195 199
f 117 136 115
f 155 199 156
f 196 189 200
f 199 201 156
f 128 167 186
f 183 188 176
f 156 202 173
f 106 110 203
f 58 204 205
f 121 158 116
f 156 201 202
f 67 206 66
f 158 121 207
f 158 3 57
f 158 207 208
f 158 208 209
f 158 209 3
f 189 210 200
f 60 204 58
f 209 208 211
f 209 211 212
f 160 149 161
f 203 110 213
f 202 201 214
f 209 1 3
f 209 212 1
f 212 10 1
f 212 211 215
f 206 216 66
f 212 215 10
f 215 211 217
f 175 198 183
f 210 218 200
f 215 217 219
f 186 167 73
f 60 220 204
f 149 152 161
f 160 147 149
f 62 220 60
f 66 216 62
f 175 178 198
f 215 219 10
f 202 126 173
f 219 14 10
f 216 220 62
f 202 214 126
f 219 217 221
f 219 221 14
f 159 194 160
f 194 147 160
f 134 222 130
f 221 217 124
f 221 124 123
f 161 152 189
f 221 123 18
f 221 18 14
f 173 126 25
f 110 114 213
f 136 135 131
f 223 224 225
f 226 227 228
f 105 229 87
f 230 228 90
f 134 231 222
f 82 230 90
f 229 232 87
f 233 234 232
f 194 145 147
f 235 225 234
f 236 237 238
f 114 118 213
f 239 222 240
f 128 178 175
f 237 241 238
f 234 242 232
f 243 244 227
f 234 225 245
f 152 154 189
f 87 232 88
f 246 206 166
f 242 88 232
f 167 166 73
f 228 227 91
f 128 179 178
f 118 247 213
f 58 231 134
f 187 145 194
f 189 154 210
f 228 91 90
f 240 222 231
f 243 238 244
f 73 166 67
f 154 106 210
f 234 245 242
f 187 146 145
f 227 244 91
f 242 109 88
f 242 245 248
f 238 249 244
f 242 248 109
f 118 222 247
f 246 166 250
f 245 251 248
f 231 252 240
f 238 241 249
f 250 166 168
f 248 111 109
f 210 106 203
f 58 205 231
f 244 94 91
f 244 249 94
f 187 198 146
f 130 222 118
f 248 251 111
f 128 186 179
f 251 76 111
f 241 253 249
f 251 254 255
f 166 206 67
f 249 253 98
f 183 198 187
f 252 231 205
f 251 255 76
f 249 98 94
f 253 256 98
f 94 98 95
f 255 77 76
f 252 205 204
f 98 256 96
f 255 254 79
f 204 257 252
f 254 258 79
f 255 79 77
f 258 254 259
f 256 260 99
f 256 99 96
f 258 84 79
f 99 100 97
f 259 261 258
f 262 261 259
f 261 263 86
f 260 100 99
f 260 264 100
f 100 264 68
f 265 203 213
f 163 266 165
f 257 204 220
f 258 85 84
f 264 180 68
f 258 261 85
f 265 213 267
f 165 268 52
f 210 203 218
f 203 269 218
f 262 270 261
f 269 203 271
f 165 266 272
f 257 220 216
f 165 272 268
f 257 216 273
f 267 213 247
f 272 103 268
f 271 203 265
f 270 263 261
f 261 86 85
f 257 273 274
f 265 267 275
f 272 266 276
f 247 239 267
f 250 277 246
f 273 278 274
f 272 101 103
f 272 276 101
f 275 267 279
f 277 280 273
f 263 81 86
f 246 277 273
f 239 247 222
f 278 281 274
f 263 282 230
f 263 270 282
f 279 283 275
f 284 104 276
f 279 235 283
f 281 278 236
f 285 241 237
f 263 230 81
f 280 237 273
f 285 237 280
f 239 286 267
f 273 216 246
f 276 104 101
f 284 287 104
f 241 285 288
f 235 233 283
f 267 286 279
f 279 286 224
f 236 289 281
f 279 223 235
f 282 226 230
f 216 206 246
f 278 273 237
f 287 105 104
f 287 229 105
f 289 236 243
f 287 290 229
f 279 224 223
f 241 288 253
f 289 227 226
f 223 225 235
f 289 243 227
f 230 82 81
f 278 237 236
f 233 235 234
f 236 238 243
f 226 228 230
f 290 233 232
f 290 232 229
f 142 291 159
f 159 291 292
f 291 142 293
f 293 142 141
f 293 141 157
f 151 294 157
f 157 294 293
f 151 295 294
f 211 296 297
f 217 297 298
f 297 217 211
f 296 211 208
f 296 208 207
f 299 295 132
f 300 260 301
f 132 124 299
f 302 296 207
f 298 124 217
f 295 151 132
f 124 298 299
f 207 121 302
f 121 303 302
f 303 121 120
f 304 120 131
f 300 264 260
f 304 303 120
f 129 176 304
f 129 304 131
f 305 188 193
f 159 305 193
f 305 159 292
f 250 168 169
f 170 171 306
f 127 306 171
f 306 135 137
f 306 138 307
f 127 135 306
f 306 137 138
f 308 138 143
f 309 138 308
f 307 138 309
f 288 256 253
f 310 308 143
f 288 301 256
f 191 182 311
f 191 311 310
f 311 182 180
f 256 301 260
f 310 143 191
f 180 300 311
f 300 180 264
f 163 162 312
f 313 162 153
f 313 312 162
f 313 148 314
f 153 148 313
f 315 139 126
f 139 316 148
f 316 139 315
f 314 148 316
f 214 317 126
f 126 317 315
f 276 266 318
f 214 201 317
f 199 317 201
f 319 195 196
f 319 196 200
f 226 320 321
f 226 321 289
f 321 322 289
f 323 251 324
f 251 323 254
f 254 325 259
f 326 270 262
f 226 282 320
f 312 318 266
f 282 326 320
f 270 326 282
f 325 262 259
f 262 325 326
f 325 254 323
f 245 225 324
f 251 245 324
f 225 327 328
f 225 328 324
f 327 225 224
f 327 224 286
f 327 239 329
f 286 239 327
f 330 331 252
f 329 239 240
f 257 330 252
f 163 312 266
f 332 330 257
f 252 331 240
f 274 333 334
f 257 274 334
f 332 257 334
f 281 322 333
f 333 274 281
f 322 281 289
f 275 335 265
f 265 335 271
f 283 233 336
f 283 335 275
f 290 336 233
f 337 336 290
f 287 338 290
f 276 318 338
f 284 338 287
f 337 290 338
f 338 284 276
