v 0.0527603 -0.0607819 -0.003947778
v 0.03133762 -0.06084102 0.02557384
v 0.05481756 -0.0608328 -0.03062884
v 0.0485518 0.01276451 0.05096279
v -0.05360717 -0.06084096 -0.006454779
v 0.000820756 -0.06083769 0.03467037
v -0.02728254 -0.06083649 0.02798172
v 0.0539366 0.06012797 0.05267422
v 0.02893001 0.06084102 0.07468687
v 0.02608883 0.05683565 0.028917
v -0.004703104 0.0563345 0.04122578
v -0.04629874 -0.06081098 0.009521829
v -0.02229291 -0.06084096 -0.07208185
v -0.02643067 0.02171183 -0.0221674
v -0.03778774 0.01534551 -0.007156892
v -0.05481756 -0.0323379 -0.02466319
v -0.0535903 -0.03624159 -0.01080267
v -0.04581982 -0.003461182 -0.03866078
v -0.03295857 0.002687454 -0.04882629
v -0.04971182 -0.02637815 -0.0438271
v -0.03858727 -0.02560568 -0.05901168
v -0.04419261 -0.06082332 -0.05389859
v -0.02588946 -0.04118562 -0.06908216
v 0.05420744 0.02292752 0.03642704
v 0.02324599 0.00410378 0.06202994
v 0.01226336 0.04894376 0.07516475
v 0.02441144 0.01931238 -0.03943409
v 0.008283019 0.0225538 -0.03834872
v 0.01018625 0.008486509 -0.05675252
v 0.02604461 -0.002444625 -0.06160609
v 0.05162126 -0.01748997 -0.02958803
v 0.04709059 -0.03945571 -0.04895054
v 0.04322737 0.002496779 -0.04178084
v 0.0403114 -0.06070685 -0.05880447
v -0.002054751 0.05410367 0.06875525
v -0.04680258 -0.02519959 0.006387042
v -0.0153445 0.02058929 -0.03562982
v -0.05341822 -0.06083703 -0.03571211
v -0.04726338 0.002406478 -0.01069818
v 0.02331251 -0.03046858 -0.07041587
v 0.02567554 -0.06083232 -0.06925263
v 0.01063192 -0.06083184 -0.07516475
v -0.0007244349 -0.01275438 -0.07196783
v 0.006238937 0.004580677 0.06348537
v 0.04245555 0.04826021 0.02040337
v 0.0513649 0.04920214 0.03145163
v 0.03419936 -0.02356821 -0.0622129
v -0.009021819 0.0125457 0.05775528
v -0.01457006 0.04263616 0.04802866
v 0.01021731 -0.02804565 -0.07421951
v -0.011742 0.001388669 -0.06237905
v -0.02442837 -0.01447207 -0.06600048
v 0.03943294 0.01306748 -0.03466241
v 0.006101549 0.02536726 0.07023047
v -0.005282283 -0.0340398 -0.07493807
f 1 2 3
f 2 1 4
f 5 6 7
f 6 5 2
f 8 9 4
f 9 10 11
f 9 8 10
f 12 5 7
f 5 13 2
f 2 13 3
f 14 15 11
f 16 5 17
f 18 14 19
f 14 18 15
f 16 18 20
f 21 18 19
f 18 21 20
f 20 21 22
f 21 13 22
f 13 21 23
f 24 8 4
f 1 24 4
f 8 24 3
f 24 1 3
f 25 2 4
f 25 6 2
f 9 25 4
f 25 9 26
f 27 28 10
f 29 27 30
f 27 29 28
f 31 8 3
f 31 32 33
f 34 32 3
f 32 31 3
f 35 9 11
f 9 35 26
f 5 36 17
f 12 36 5
f 35 36 12
f 14 37 19
f 37 14 11
f 10 37 11
f 28 37 10
f 16 38 5
f 13 38 22
f 38 13 5
f 38 20 22
f 38 16 20
f 18 39 15
f 39 18 16
f 39 16 17
f 36 39 17
f 40 41 42
f 41 40 34
f 41 34 3
f 13 41 3
f 41 13 42
f 43 29 30
f 25 44 6
f 6 44 7
f 8 45 10
f 45 27 10
f 31 46 8
f 46 31 33
f 46 45 8
f 40 47 34
f 47 32 34
f 47 40 30
f 33 47 30
f 32 47 33
f 48 12 7
f 48 35 12
f 49 36 35
f 49 39 36
f 49 35 11
f 15 49 11
f 39 49 15
f 50 40 42
f 40 50 30
f 50 43 30
f 43 51 29
f 37 51 19
f 29 51 28
f 51 37 28
f 21 52 23
f 52 51 43
f 52 21 19
f 51 52 19
f 45 53 27
f 46 53 45
f 53 46 33
f 53 33 30
f 27 53 30
f 44 54 7
f 54 48 7
f 54 25 26
f 54 44 25
f 35 54 26
f 48 54 35
f 13 55 42
f 55 50 42
f 50 55 43
f 55 13 23
f 52 55 23
f 55 52 43
