v -0.00345853 -0.009228408 0.01841363
v -0.001639634 -0.01916194 0.01224869
v -0.004736811 0.01297861 0.03468025
v -0.004708141 0.0107426 -0.03216866
v 0.0008315742 0.01427406 0.0362981
v -0.001930147 0.01710373 0.03159124
v -0.002637371 0.01777202 0.02830231
v -0.003661126 0.01541948 -0.03068048
v -0.0005536079 0.01943064 -0.002709985
v -0.0007435828 0.01751333 -0.02577609
v 0.002095938 0.01944095 0.01689637
v 0.001018032 0.01925743 -0.01558283
v 0.003406584 -0.007267356 -0.01458257
v 0.004030287 0.01470697 -0.01920301
v 0.004051119 -0.005794525 -0.004983664
v 0.003181785 -0.007772446 0.01932162
v 0.002715409 -0.008837223 0.02073914
v 0.004725024 0.01402491 -0.002889335
v 0.004671887 0.01846594 0.005170465
v -0.004747272 0.01293665 -0.03171611
v -0.004281506 0.01400214 -0.03313404
v -0.002976 0.01469809 -0.03455091
v 0.0008907169 0.01210195 -0.0364238
v -0.0006163716 0.01935595 0.007176965
v 0.003967524 0.01686186 0.02030861
v -0.002486974 -0.0184381 0.009441793
v -0.00237605 -0.01818693 -0.001004636
v -0.001748979 -0.01944101 0.009630978
v -0.001661152 -0.01934528 -0.001038849
v 0.003124088 -0.007915616 -0.01516226
v 0.003727674 -0.00652647 0.01332533
v 0.003993198 0.01919854 -0.003985107
v 0.002434194 0.01106113 -0.03313386
v 0.001991346 0.01235116 0.03642377
v 0.002678975 0.0116356 0.03255343
v 0.004747272 0.01407719 0.004255533
v 0.004040673 0.01246679 0.01940072
v 0.003101781 0.01715779 -0.02003822
f 1 2 3
f 4 1 3
f 5 6 3
f 6 7 3
f 8 7 9
f 10 8 9
f 6 11 7
f 11 6 5
f 12 10 9
f 13 14 15
f 16 17 2
f 14 18 15
f 18 14 19
f 20 4 3
f 7 21 3
f 8 21 7
f 21 20 3
f 20 21 4
f 22 10 23
f 22 8 10
f 22 21 8
f 4 22 23
f 21 22 4
f 7 24 9
f 24 11 9
f 11 24 7
f 25 11 5
f 11 25 19
f 26 1 4
f 27 26 4
f 1 26 2
f 26 28 2
f 29 4 23
f 29 27 4
f 30 29 23
f 13 29 30
f 29 26 27
f 26 29 28
f 29 13 15
f 31 29 15
f 29 31 16
f 29 16 2
f 28 29 2
f 11 32 9
f 32 12 9
f 32 11 19
f 14 32 19
f 13 33 14
f 33 30 23
f 33 13 30
f 34 17 16
f 35 34 16
f 34 5 3
f 34 25 5
f 25 34 35
f 2 34 3
f 17 34 2
f 25 36 19
f 36 18 19
f 36 31 15
f 18 36 15
f 37 35 16
f 37 25 35
f 31 37 16
f 36 37 31
f 37 36 25
f 38 32 14
f 32 38 12
f 38 33 23
f 33 38 14
f 10 38 23
f 12 38 10
