v 0.002872944 0.01917017 0.02314796
v 0.001268506 0.01952988 -0.01491186
v -0.002810001 0.01948959 0.02004766
v -0.001505911 0.004469275 0.0215373
v 0.003829777 -0.01946819 0.01468696
v -0.003131658 -0.01906276 0.01502408
v 0.002784967 -0.01953018 -0.02187437
v -0.003144741 0.01948583 0.01307622
v 0.003138721 0.01907277 -0.00119029
v 0.002148032 0.01908547 -0.01427278
v 0.003831804 0.019104 0.02057058
v -0.003716052 0.003930032 0.02009957
v 0.002024621 -0.01836485 -0.02314797
v -0.003502816 -0.01360083 -0.006759062
v -0.003277808 0.01945043 0.0003141314
v 0.002531469 -0.01819825 0.01706353
v 0.0009278059 0.004308343 0.02233822
v 0.000105083 -0.006028771 0.02061283
v 0.0035927 0.01908606 0.01070398
v -0.003714204 -0.007074952 0.01841768
v -0.002865493 -0.01916015 -0.009314805
v -0.003831893 0.003920019 0.01516692
v -0.001117945 -0.01530778 0.01736796
v 0.001935273 -0.002640426 0.02102419
v 0.003828704 -0.01862764 -0.008795112
v 0.003715187 -0.01678902 -0.01083606
v 0.002891332 -0.01769555 -0.02188045
f 1 2 3
f 4 1 3
f 5 6 7
f 2 8 3
f 9 10 2
f 11 2 1
f 5 11 1
f 8 12 3
f 12 4 3
f 13 14 2
f 10 13 2
f 15 8 2
f 14 15 2
f 5 16 6
f 4 17 1
f 18 17 4
f 19 9 2
f 11 19 2
f 20 14 6
f 20 18 4
f 12 20 4
f 14 21 6
f 13 21 14
f 6 21 7
f 21 13 7
f 22 15 14
f 20 22 14
f 22 20 12
f 22 12 8
f 15 22 8
f 16 23 6
f 23 16 18
f 23 20 6
f 20 23 18
f 16 24 18
f 24 17 18
f 17 24 1
f 24 5 1
f 24 16 5
f 25 5 7
f 25 11 5
f 25 19 11
f 19 26 9
f 25 26 19
f 26 10 9
f 26 27 10
f 13 27 7
f 27 13 10
f 27 25 7
f 27 26 25
