v -0.002998084 0.008823097 0.01560509
v 0.002939165 0.006890953 0.01299334
v -0.0004262328 0.008409858 -0.01560512
v -0.003811985 -0.008327007 -0.01558852
v -0.002865791 -0.007791758 -0.01433408
v 0.001750469 -0.008823097 0.01353437
v 0.003374785 -0.002649188 0.0134936
v 0.003823608 0.005651414 0.003550142
v -0.001378089 0.007856846 -0.01307189
v -0.003823608 0.007715225 0.01136717
v -0.002593815 -0.007674575 0.01429707
v 0.001078904 0.007201314 -0.01443267
v -0.003723651 -0.0007790327 0.01381311
v -0.003690809 0.005818784 0.01497787
f 1 2 3
f 4 5 6
f 7 1 6
f 7 2 1
f 7 8 2
f 4 9 3
f 10 9 4
f 9 1 3
f 9 10 1
f 11 4 6
f 1 11 6
f 7 12 8
f 5 12 6
f 12 7 6
f 12 4 3
f 12 5 4
f 2 12 3
f 8 12 2
f 13 10 4
f 11 13 4
f 10 14 1
f 13 14 10
f 14 11 1
f 14 13 11
