v -0.002071917 0.003313988 -0.002777934
v -0.002072066 -0.003313996 -0.005562246
v -0.002072006 -0.003289819 0.005562186
v -0.0008367896 0.002781115 0.00208509
v 0.002072066 -0.0001654774 -0.0009685755
v -0.0002306104 -0.002766147 0.004765987
v -0.00147891 -0.003242835 -0.004003704
v 0.001097351 -0.001297176 -0.0009191632
v 0.001036555 -0.001594096 0.003422797
v -0.0003771782 -0.002358355 -0.003230095
f 1 2 3
f 4 1 3
f 1 5 2
f 1 4 5
f 6 4 3
f 2 7 3
f 7 6 3
f 7 8 6
f 9 8 5
f 8 9 6
f 4 9 5
f 6 9 4
f 8 10 5
f 10 8 7
f 5 10 2
f 10 7 2
