v -0.002038658 0.01737916 -0.0188871
v 0.003900051 0.01796699 -0.01662397
v 0.001585633 -0.01796699 -0.02032232
v 0.00383766 0.01770139 0.006742537
v -0.003269538 0.01698965 0.005009532
v 0.00310272 -0.01735586 0.02032232
v -0.00283654 -0.01794255 0.01805916
v 0.003159195 -0.01709193 -0.003042728
v 0.003971636 -0.01632547 0.0177767
v 0.004085988 0.01614594 -0.01664442
v -0.00293307 0.01452708 -0.01838568
v -0.003695056 0.00615263 -0.01421386
v -0.00351496 -0.01771772 -0.008508086
v 0.003931448 0.01679045 0.006733239
v 0.003272295 0.01575536 0.01130629
v 0.002777338 0.01109302 0.01381448
v -0.00308162 0.01603413 0.009908557
v 0.0006539822 -0.0171659 -0.01959288
v -0.004085973 -0.005844116 -0.01008511
v 0.002530903 -0.005482793 0.0187487
v -0.003698468 -0.01504213 -0.003568441
v -0.003709242 -0.005161166 0.01446816
v -0.003461033 -0.002397299 0.0156742
v -0.003556982 0.01231939 0.009544998
v -0.002455637 -0.01332462 0.01843169
f 1 2 3
f 4 2 5
f 2 1 5
f 6 7 3
f 6 8 9
f 8 6 3
f 10 8 3
f 2 10 3
f 8 10 9
f 11 1 3
f 1 11 5
f 11 12 5
f 7 13 3
f 14 2 4
f 14 10 2
f 10 14 9
f 14 15 9
f 15 14 4
f 16 6 9
f 15 16 9
f 17 4 5
f 17 15 4
f 17 16 15
f 18 11 3
f 13 18 3
f 11 19 12
f 18 19 11
f 19 18 13
f 16 20 6
f 21 13 7
f 21 19 13
f 22 21 7
f 21 22 19
f 17 23 16
f 23 20 16
f 23 22 7
f 24 17 5
f 22 24 19
f 24 23 17
f 23 24 22
f 12 24 5
f 19 24 12
f 25 23 7
f 23 25 20
f 6 25 7
f 20 25 6
