v -0.002303883 0.007436931 0.01955441
v -0.002303824 -0.007453859 -0.01955441
v -0.002229825 -0.0007686019 0.01955435
v -0.002303705 0.003794611 -0.01326588
v 0.002303883 0.002004206 0.0195497
v -0.001370445 0.001069605 -0.01874474
v 0.001379803 -0.0007272959 -0.01874825
v -0.001396254 0.004714727 -0.01053032
v -0.001317218 -0.000759244 0.01955208
v 0.001420811 -0.00528717 -0.01874816
v -0.001295999 -0.007136941 -0.01874655
v 0.00228028 0.00474143 0.01954946
v -0.0004855841 0.007453859 0.01225862
v 0.0022607 0.004743874 0.0004008114
v 0.002287969 0.0001890063 -0.0141817
f 1 2 3
f 1 4 2
f 5 1 3
f 2 6 7
f 4 6 2
f 8 4 1
f 6 8 7
f 8 6 4
f 2 9 3
f 9 5 3
f 10 2 7
f 9 10 5
f 11 9 2
f 10 11 2
f 11 10 9
f 5 12 1
f 13 8 1
f 13 14 8
f 12 13 1
f 13 12 14
f 10 15 5
f 15 12 5
f 12 15 14
f 15 10 7
f 8 15 7
f 14 15 8
