v 0.003799424 -0.01619178 0.003548086
v -0.004020244 -0.01514333 0.0231185
v -0.003828295 -0.01539829 -0.02150512
v 0.002782524 -0.01619652 -0.02109683
v -0.004020281 -0.01444593 -0.0206449
v -0.002851404 0.016096 0.02204031
v 0.0005826801 0.0156866 0.0232625
v -0.003717057 0.01602665 -0.01129687
v -0.003910132 0.01619652 0.01679921
v -0.003095061 -0.0147782 0.02268225
v -0.002850279 -0.01496068 -0.0232625
v -0.004020065 0.01528525 0.01680201
v -0.002428882 0.0150477 -0.01404393
v 0.002834693 0.01429626 -0.01378685
v -0.00116995 -0.00778538 -0.02231246
v 0.003278598 0.01254013 0.01463324
v 0.002703376 0.01539928 0.01720643
v 0.00300324 -0.01437372 -0.02110684
v 0.002669498 -0.01249665 -0.02228934
v 0.00355345 0.0003411174 -0.01772857
v 0.003146835 0.01520914 -0.00885421
v 0.004020289 -0.01436797 0.003538311
v -0.003988631 0.01422447 -0.008389771
v -0.0001645535 0.00330776 -0.01884508
v 0.003108278 0.00130868 -0.01890063
v 0.003553294 0.009734392 0.01292104
v 0.003444247 0.009604126 -0.01432031
f 1 2 3
f 4 1 3
f 2 5 3
f 6 2 7
f 6 8 9
f 5 8 3
f 2 10 7
f 10 1 7
f 1 10 2
f 11 4 3
f 8 11 3
f 12 5 2
f 6 12 2
f 12 6 9
f 13 8 14
f 11 13 15
f 13 11 8
f 16 17 7
f 17 6 7
f 17 8 6
f 18 19 20
f 19 11 15
f 11 19 4
f 19 18 4
f 21 17 16
f 8 21 14
f 17 21 8
f 1 22 7
f 22 16 7
f 22 18 20
f 22 1 4
f 18 22 4
f 23 8 5
f 12 23 5
f 8 23 9
f 23 12 9
f 24 13 14
f 13 24 15
f 19 25 20
f 25 24 14
f 25 19 15
f 24 25 15
f 22 26 16
f 26 21 16
f 27 22 20
f 27 26 22
f 26 27 21
f 21 27 14
f 27 25 14
f 25 27 20
