v 0.05276027 -0.06078196 -0.003947737
v 0.03133771 -0.06084108 0.02557388
v 0.05481753 -0.0608328 -0.0306288
v 0.04855189 0.01276445 0.05096284
v -0.05360714 -0.06084096 -0.006454768
v 0.0008207858 -0.06083763 0.03467044
v -0.02728245 -0.06083649 0.0279817
v 0.05393663 0.06012791 0.05267417
v 0.0289301 0.06084108 0.07468697
v 0.02608898 0.05683565 0.02891701
v -0.004703015 0.05633456 0.04122582
v -0.04629877 -0.06081104 0.009521781
v -0.02229282 -0.06084102 -0.07208186
v -0.02643052 0.02171177 -0.02216739
v -0.03778777 0.01534557 -0.007156881
v -0.05481753 -0.03233784 -0.02466318
v -0.05359021 -0.03624159 -0.01080263
v -0.04581973 -0.003461123 -0.03866076
v -0.03295854 0.002687454 -0.04882628
v -0.04971173 -0.02637815 -0.04382709
v -0.03858718 -0.0256058 -0.05901173
v -0.04419252 -0.06082338 -0.05389854
v -0.02588949 -0.04118568 -0.06908211
v 0.05420759 0.02292746 0.03642708
v 0.02324614 0.004103839 0.06202996
v 0.01226339 0.0489437 0.07516474
v 0.02441159 0.01931232 -0.03943408
v 0.008283049 0.02255374 -0.03834864
v 0.01018634 0.00848639 -0.05675247
v 0.0260447 -0.002444565 -0.06160608
v 0.05162135 -0.01749003 -0.02958808
v 0.04709062 -0.03945577 -0.04895055
v 0.0432274 0.002496839 -0.04178083
v 0.04031149 -0.06070685 -0.05880448
v -0.002054721 0.05410373 0.06875533
v -0.04680255 -0.02519959 0.006387083
v -0.01534441 0.02058929 -0.03562981
v -0.05341807 -0.06083697 -0.03571209
v -0.04726329 0.002406478 -0.01069817
v 0.0233126 -0.03046864 -0.07041588
v 0.02567562 -0.06083226 -0.06925264
v 0.01063201 -0.06083179 -0.07516474
v -0.0007242858 -0.01275438 -0.07196775
v 0.006239086 0.004580736 0.06348541
v 0.04245558 0.04826015 0.02040338
v 0.05136499 0.04920208 0.0314517
v 0.03419939 -0.02356815 -0.06221285
v -0.00902167 0.0125457 0.05775532
v -0.01456997 0.04263622 0.04802874
v 0.01021746 -0.02804571 -0.0742195
v -0.01174197 0.001388729 -0.06237903
v -0.02442828 -0.01447213 -0.06600046
v 0.03943297 0.01306748 -0.0346624
v 0.006101519 0.02536732 0.07023051
v -0.005282193 -0.03403974 -0.07493806
f 1 2 3
f 2 1 4
f 5 6 7
f 6 5 2
f 8 9 4
f 9 10 11
f 9 8 10
f 12 5 7
f 5 13 2
f 2 13 3
f 14 15 11
f 16 5 17
f 18 14 19
f 14 18 15
f 16 18 20
f 21 18 19
f 18 21 20
f 20 21 22
f 21 13 22
f 13 21 23
f 24 8 4
f 1 24 4
f 8 24 3
f 24 1 3
f 25 2 4
f 25 6 2
f 9 25 4
f 25 9 26
f 27 28 10
f 29 27 30
f 27 29 28
f 31 8 3
f 31 32 33
f 34 32 3
f 32 31 3
f 35 9 11
f 9 35 26
f 5 36 17
f 12 36 5
f 35 36 12
f 14 37 19
f 37 14 11
f 10 37 11
f 28 37 10
f 16 38 5
f 13 38 22
f 38 13 5
f 38 20 22
f 38 16 20
f 18 39 15
f 39 18 16
f 39 16 17
f 36 39 17
f 40 41 42
f 41 40 34
f 41 34 3
f 13 41 3
f 41 13 42
f 43 29 30
f 25 44 6
f 6 44 7
f 8 45 10
f 45 27 10
f 31 46 8
f 46 31 33
f 46 45 8
f 40 47 34
f 47 32 34
f 47 40 30
f 33 47 30
f 32 47 33
f 48 12 7
f 48 35 12
f 49 36 35
f 49 39 36
f 49 35 11
f 15 49 11
f 39 49 15
f 50 40 42
f 40 50 30
f 50 43 30
f 43 51 29
f 37 51 19
f 29 51 28
f 51 37 28
f 21 52 23
f 52 51 43
f 52 21 19
f 51 52 19
f 45 53 27
f 46 53 45
f 53 46 33
f 53 33 30
f 27 53 30
f 44 54 7
f 54 48 7
f 54 25 26
f 54 44 25
f 35 54 26
f 48 54 35
f 13 55 42
f 55 50 42
f 50 55 43
f 55 13 23
f 52 55 23
f 55 52 43
