v 0.05343431 0.000211399 -0.09238259
v 0.05129332 -0.0002498068 -0.09942742
v 0.04829728 0.02677384 -0.1018429
v -0.006072735 -0.07104017 -0.1146051
v -0.00877185 -0.009947177 -0.1329021
v -0.001173985 -0.008967485 -0.1337749
v 0.05424109 -0.007520076 0.1241605
v 0.0514916 -0.03877869 0.05782938
v 0.05458703 -0.05675347 -0.06780121
v 0.02324728 0.04904008 0.1067603
v 0.01802951 0.06835993 -0.08271697
v 0.007821327 0.05333358 0.1054521
v 0.0239286 -0.00816692 -0.1283675
v 0.03189522 -0.06829545 -0.1051677
v 0.01178586 -0.07078617 -0.1136137
v -0.02231752 0.066907 -0.08433966
v -0.02851466 0.06392513 -0.08161736
v -0.02604172 0.0478325 0.1071816
v -0.0425756 -0.06521277 -0.09611454
v -0.05062936 -0.06130014 -0.08357841
v -0.04317715 -0.00432384 -0.1137505
v 0.04274852 0.05318095 -0.08242247
v 0.03486657 0.05997493 -0.08220796
v 0.03714977 0.03999673 0.1095339
v -0.0001717909 -0.07095665 0.07384627
v 0.01723945 -0.06797472 0.07445588
v 0.00857808 -0.07005048 0.07465424
v -0.04481647 0.04390329 -0.1051637
v -0.04905307 0.02550239 -0.1000655
v -0.05190941 0.02029894 -0.09061311
v -0.04256352 0.04935792 -0.1006064
v -0.03271512 0.05639718 -0.1045131
v -0.03877033 0.04845208 -0.1090507
v 0.007882944 0.07057726 -0.08039598
v 0.009815276 -0.009395659 -0.132876
v -0.02106328 -0.008514117 -0.1296647
v -0.01428699 0.01111996 -0.1342335
v -0.02299082 0.01241 -0.1310675
v -0.04940052 -0.0008246228 -0.1041731
v -0.04143485 0.04079053 -0.1139094
v -0.008307722 0.07052103 -0.07928792
v -0.007912063 0.05351402 0.1054123
v -0.02606788 -0.06923182 -0.109093
v -0.03363887 -0.05999558 0.071495
v -0.055065 -0.05677992 -0.06932392
v -0.05328019 -7.562339e-05 -0.09388294
v -0.05363229 -0.03326552 0.05526871
v -0.055065 -0.002431717 0.1227043
v -0.05506498 0.001593243 -0.08253227
v 0.04569609 -0.0639844 -0.09117819
v 0.05156891 -0.06053093 -0.07985333
v 0.0276836 -0.0635023 0.07286108
v 0.05506498 0.00447486 0.1204694
v 0.05487487 0.001377847 -0.08322337
v -0.0006620802 -0.05153057 0.1377836
v 0.01190067 -0.05015355 0.1373466
v 0.004361292 0.03369879 -0.1377836
v -0.005874075 0.01799721 -0.1366024
v -0.00427296 0.03372727 -0.137702
v -0.008117831 0.06102272 -0.1147697
v -0.005605815 0.06539182 -0.1073858
v 0.004358185 0.06285797 -0.1126883
v 0.004063406 0.05752609 -0.1203934
v -0.01108863 0.05403688 -0.1230249
v -0.03193354 -0.00726613 -0.1238672
v -0.02815063 0.05627809 -0.1101753
v -0.01912119 0.06260593 -0.1066731
v -0.0406482 0.05438331 -0.09200526
v -0.04645256 0.0473828 -0.09324066
v -0.05372865 0.01403208 0.1176314
v 0.0496018 0.0247047 0.1142339
v -0.03406483 0.0133108 -0.1238322
v -0.03077809 0.06099566 -0.09543817
v -0.02273453 0.06441565 -0.098078
v -0.03375107 0.0608271 -0.08458921
v -0.01537683 0.06873631 -0.08927839
v -0.05250596 -0.01533997 0.1266802
v -0.02577048 -0.06460629 0.07346382
v 0.0506684 0.02718594 -0.09127369
v 0.04456372 -0.0298648 0.1310603
v 0.03402758 -0.04017022 0.134247
v 0.03716008 -0.05712756 0.07009494
v 0.04653745 0.04707478 -0.09368005
v 0.04061905 0.04989815 -0.103771
v 0.03761255 0.05669334 -0.0927445
v 0.04556181 0.04981188 -0.08844632
v 0.05164604 -0.0169473 0.1270716
v 0.04527479 -0.04867848 0.0652794
v 0.01803798 0.067054 -0.09471129
v 0.03064743 0.0593839 -0.1008992
v 0.02082687 0.06179572 -0.1068097
v 0.00504918 0.06799071 -0.1009679
v 0.009120435 0.069803 -0.09093261
v 0.01362756 0.0651664 -0.1046283
v -0.01110281 0.06743376 -0.1000509
v 0.01752265 0.05838169 -0.1151438
v -0.002632848 0.05062491 -0.1275387
v 0.003330993 0.03787385 -0.1361644
v 0.004010261 0.04730796 -0.1302069
v 0.01175605 0.04111361 -0.1330841
v -0.008821213 0.04180766 -0.1333422
v -0.01449995 0.0343064 -0.135818
v -0.01809328 0.04038551 -0.1315963
v -0.0179326 0.04941246 -0.1251659
v -0.02815246 0.05172766 -0.1165668
v -0.01909884 0.05771327 -0.1151182
v -0.02541205 0.04500004 -0.1251206
v -0.03512899 0.04427182 -0.118149
v -0.04226394 0.05373296 -0.08092126
v -0.04292469 0.03483645 0.1112032
v 0.02557088 0.06533268 -0.08072779
v 0.02681963 0.06423333 -0.09076212
v -0.02481981 0.03593564 -0.1310144
v 0.003773522 0.01483947 -0.1364628
v -0.04548446 0.04993725 -0.08677152
v -0.01238037 -0.05008297 0.1373492
v -0.009223706 -0.0700307 0.07444663
v -0.01592098 -0.0684521 0.07457425
v -0.02183957 -0.04720112 0.13647
v 0.0464396 -0.002336018 -0.1089958
v 0.04474109 0.02495453 -0.1103249
v 0.02262401 -0.0467993 0.1363018
v 0.02144122 0.05265751 -0.1200663
v 0.02943389 0.05559257 -0.1098932
v 0.03457108 0.04786222 -0.1150407
v -0.03393054 0.03820245 -0.1239038
v 0.04049743 -0.004883677 -0.1164005
v 0.04006445 0.02163747 -0.117541
v 0.03938838 0.03985156 -0.1171457
v 0.03275457 -0.006999437 -0.1230911
v 0.03229219 0.01442713 -0.1252897
v 0.02131706 0.01130905 -0.1317228
v 0.0227171 0.03537783 -0.132335
v 0.02182609 0.03993164 -0.1303426
v 0.03334562 0.03747476 -0.1246562
v 0.0002326281 0.07104017 -0.08591219
v -0.04135185 0.01657309 -0.1161356
v -0.03104594 -0.04228543 0.1349639
v 0.04300851 0.04194396 -0.1104719
v 0.04552653 0.04421661 -0.102797
v -7.527017e-05 0.06950924 -0.09609684
v 0.01392703 0.0496838 -0.1262841
v 0.02171608 0.04676548 -0.1255071
v 0.01129241 0.01722466 -0.1355618
v 0.03065549 0.04413712 -0.1221018
v -0.03812696 -0.03690287 0.1333122
v -0.05039039 -0.04093469 0.06139449
v 0.01374245 0.03395788 -0.1359933
v -0.008065475 0.06986 -0.0915376
v -0.04000432 -0.0547686 0.0688967
v -0.04610347 -0.02781365 0.1305186
v -0.04608163 -0.04802938 0.06504815
f 1 2 3
f 4 5 6
f 7 8 9
f 10 11 12
f 13 14 15
f 16 17 18
f 19 20 21
f 22 23 24
f 25 15 14
f 26 27 14
f 28 29 30
f 31 32 33
f 11 34 12
f 35 13 15
f 36 37 5
f 38 37 36
f 20 39 21
f 40 29 28
f 34 41 42
f 34 42 12
f 16 18 42
f 41 16 42
f 43 5 4
f 43 36 5
f 4 15 25
f 20 44 45
f 45 46 20
f 47 48 45
f 49 45 48
f 50 51 52
f 53 9 54
f 27 25 14
f 53 7 9
f 27 55 25
f 27 26 56
f 57 58 59
f 60 61 62
f 63 64 60
f 19 65 43
f 65 19 21
f 32 66 33
f 67 66 32
f 68 31 69
f 30 70 69
f 23 10 24
f 22 24 71
f 6 5 58
f 58 5 37
f 70 49 48
f 72 65 21
f 73 16 74
f 73 74 32
f 16 75 17
f 16 41 76
f 77 48 47
f 44 20 78
f 53 54 79
f 80 81 82
f 83 71 53
f 84 85 86
f 1 3 79
f 87 8 7
f 82 9 88
f 82 81 52
f 89 90 91
f 92 93 89
f 92 89 94
f 95 92 61
f 61 92 62
f 94 96 62
f 63 62 96
f 97 64 63
f 98 99 100
f 101 102 103
f 97 63 99
f 64 101 104
f 97 101 64
f 104 105 106
f 104 107 105
f 105 108 33
f 105 33 66
f 106 64 104
f 105 66 106
f 106 66 67
f 69 28 30
f 109 110 75
f 11 10 111
f 86 22 71
f 11 112 89
f 113 102 38
f 37 38 102
f 65 38 36
f 65 36 43
f 114 6 58
f 45 49 46
f 39 20 46
f 61 60 67
f 95 61 67
f 95 67 74
f 115 70 110
f 55 116 117
f 25 43 4
f 117 43 25
f 117 19 43
f 78 118 119
f 80 8 87
f 8 88 9
f 2 51 50
f 120 121 2
f 83 53 79
f 84 86 83
f 22 86 85
f 22 85 23
f 90 85 84
f 88 80 82
f 122 26 52
f 26 50 52
f 122 56 26
f 55 27 56
f 94 89 91
f 96 94 91
f 123 124 125
f 103 104 101
f 103 113 107
f 113 126 107
f 58 102 59
f 57 59 98
f 58 57 114
f 101 99 98
f 107 104 103
f 60 62 63
f 33 28 31
f 75 18 17
f 75 110 18
f 68 32 31
f 111 10 23
f 127 120 50
f 127 50 14
f 128 129 121
f 6 15 4
f 6 35 15
f 35 6 114
f 13 130 14
f 131 132 133
f 134 135 133
f 46 49 30
f 30 49 70
f 126 108 107
f 136 41 34
f 74 67 32
f 106 60 64
f 75 16 73
f 109 115 110
f 115 69 70
f 115 109 68
f 137 72 21
f 25 55 117
f 118 117 116
f 19 117 118
f 78 138 44
f 78 19 118
f 20 19 78
f 120 2 50
f 3 121 139
f 2 121 3
f 140 79 3
f 82 51 9
f 83 86 71
f 1 79 54
f 140 83 79
f 83 140 84
f 81 122 52
f 51 82 52
f 62 92 94
f 92 141 93
f 96 124 123
f 99 63 142
f 113 103 102
f 142 143 134
f 134 100 142
f 114 57 144
f 101 59 102
f 97 99 101
f 126 113 72
f 108 105 107
f 40 33 108
f 33 40 28
f 31 28 69
f 69 115 68
f 75 68 109
f 90 124 91
f 127 131 128
f 131 135 128
f 100 134 133
f 131 130 13
f 130 127 14
f 123 125 145
f 123 145 143
f 134 145 135
f 58 37 102
f 72 38 65
f 29 40 39
f 39 46 29
f 137 39 40
f 137 126 72
f 46 30 29
f 136 34 93
f 76 95 74
f 106 67 60
f 138 146 44
f 147 47 45
f 118 116 119
f 80 88 8
f 3 139 140
f 125 84 139
f 129 125 139
f 26 14 50
f 96 91 124
f 142 96 123
f 100 99 142
f 72 113 38
f 143 145 134
f 142 123 143
f 144 57 148
f 101 98 59
f 126 40 108
f 73 68 75
f 73 32 68
f 11 111 112
f 90 112 85
f 112 90 89
f 112 111 23
f 124 84 125
f 127 128 120
f 129 128 135
f 13 132 131
f 130 131 127
f 131 133 135
f 137 21 39
f 41 149 76
f 74 16 76
f 119 138 78
f 150 151 152
f 152 147 45
f 140 139 84
f 1 54 9
f 141 92 95
f 76 149 95
f 136 93 141
f 132 13 35
f 148 98 100
f 148 57 98
f 40 126 137
f 112 23 85
f 90 84 124
f 148 133 132
f 144 148 132
f 136 149 41
f 93 11 89
f 11 93 34
f 44 146 150
f 44 150 45
f 146 151 150
f 45 150 152
f 147 151 77
f 129 139 121
f 128 121 120
f 145 125 129
f 129 135 145
f 1 9 51
f 51 2 1
f 95 149 141
f 142 63 96
f 100 133 148
f 132 35 144
f 77 47 147
f 136 141 149
f 144 35 114
f 147 152 151
f 71 24 151
f 151 56 122
f 12 42 151
f 7 53 151
f 18 110 151
f 48 77 151
f 151 24 10
f 42 18 151
f 146 138 151
f 151 80 87
f 81 80 151
f 53 71 151
f 151 10 12
f 151 110 70
f 151 55 56
f 119 116 151
f 151 87 7
f 116 55 151
f 122 81 151
f 70 48 151
f 151 138 119
