v -0.0005416945 -0.00479351 -0.038616
v -0.0005417019 -0.004602596 0.03741151
v -0.0005416945 0.00479351 -0.03861851
v -6.213039e-05 -0.004523546 0.03861851
v -6.192178e-05 0.004556224 0.03861734
v 0.0003265664 -0.004654408 -0.03803626
v -0.0005410984 0.004635125 0.03740981
v 0.0003263503 0.004655316 -0.03803787
v 0.0004369691 0.00463666 -0.03776133
v 0.0005417019 0.004618794 -0.03718737
v 0.0005416945 -0.004617736 -0.03718567
v 0.0004361197 -0.004636288 -0.03775939
f 1 2 3
f 2 1 4
f 5 2 4
f 6 1 3
f 1 6 4
f 2 7 3
f 7 2 5
f 8 6 3
f 6 8 9
f 7 8 3
f 8 10 9
f 10 8 5
f 8 7 5
f 10 11 9
f 11 5 4
f 11 10 5
f 12 6 9
f 11 12 9
f 6 12 4
f 12 11 4
