v 0.006882757 -0.01362079 0.04003814
v 0.004169166 -0.01511835 -0.02380767
v 0.006887816 0.007720977 -0.04164717
v 0.006883822 0.01399373 0.04343635
v 0.001670696 -0.004811972 0.04034051
v -0.006887093 0.01502796 -0.03683305
v -0.006887808 0.004841313 -0.03808644
v 0.003364362 -0.01130521 -0.04360515
v -0.002592221 -0.003798559 -0.04195973
v -0.002279975 -0.003623456 -0.04204336
v 0.001671962 0.005374685 0.04159424
v 0.004825227 0.01510441 0.0424476
v 0.005996242 0.01443222 0.04360512
v 0.004823804 -0.01445892 0.03880969
v 0.002262585 -0.0129678 -0.04127705
v -0.006441362 0.0151183 -0.03835455
v -0.001990467 0.01466405 -0.03982475
v 0.005996116 -0.0140865 0.04009473
v 0.002954952 0.005046323 0.04278174
v 0.005118243 0.01491803 0.0430122
v -0.003735028 -0.004805386 -0.03961843
v 0.002536416 -0.01235342 -0.04271522
v -0.005247019 0.005454928 -0.04060227
v -0.005246028 0.01504168 -0.03942233
v -0.005594127 0.005385906 -0.04050091
v -0.005872406 0.01510446 -0.03906947
v 0.00292486 -0.01181303 -0.04334283
v 0.005115911 -0.01441437 0.03940177
v 0.001988575 -0.004843056 0.04092076
v 0.001988731 0.005264193 0.04216462
v 0.005500704 0.01470222 0.04332998
v -0.003348328 -0.004343614 -0.04108766
v -0.005593292 0.01508485 -0.03930739
v 0.003118314 -0.01157039 -0.04353881
v 0.002954677 -0.00478147 0.04157192
v 0.002409145 0.005163133 0.04249278
v -0.002841376 -0.003965095 -0.04174778
v 0.005499877 -0.01428235 0.03976232
v 0.002409332 -0.004824579 0.04126424
v -0.006442159 0.005122066 -0.0395852
v -0.005872831 0.005309075 -0.04027489
f 1 2 3
f 4 1 3
f 5 6 7
f 2 8 3
f 8 9 10
f 6 11 12
f 5 11 6
f 4 13 1
f 2 14 15
f 16 6 12
f 17 8 10
f 8 17 3
f 17 4 3
f 4 17 12
f 13 18 1
f 18 2 1
f 19 18 13
f 20 4 12
f 20 13 4
f 14 21 15
f 21 22 15
f 21 5 7
f 21 14 5
f 23 17 10
f 17 23 24
f 9 23 10
f 25 23 9
f 26 16 12
f 22 27 15
f 27 2 15
f 27 8 2
f 14 28 5
f 28 14 2
f 28 29 5
f 11 30 12
f 30 20 12
f 30 11 5
f 29 30 5
f 31 19 13
f 20 31 13
f 21 32 22
f 32 27 22
f 33 26 12
f 17 33 12
f 33 17 24
f 26 33 25
f 23 33 24
f 33 23 25
f 8 34 9
f 34 27 9
f 27 34 8
f 19 35 18
f 30 36 20
f 36 31 20
f 31 36 19
f 27 37 9
f 32 37 27
f 35 38 18
f 18 38 2
f 38 28 2
f 39 38 35
f 39 30 29
f 39 36 30
f 39 35 19
f 36 39 19
f 39 29 28
f 38 39 28
f 40 37 32
f 40 21 7
f 40 32 21
f 6 40 7
f 16 40 6
f 26 40 16
f 40 41 37
f 41 25 9
f 37 41 9
f 41 26 25
f 41 40 26
