v 0.01447371 0.005736664 0.04160535
v 0.01345713 -0.004923746 0.03922558
v 0.01345765 -0.004923195 -0.0402565
v -0.0144737 -0.01527011 0.03922561
v -0.004217751 -0.01485343 -0.0402562
v -0.004219271 -0.01485354 0.03922477
v 0.00540664 -0.01128875 -0.04025501
v -0.01429817 0.0152701 0.04160488
v -0.009137072 0.01459801 0.04160506
v -0.01424974 -0.01335136 0.04160452
v -0.01447366 0.006654665 0.0416044
v -0.01429197 -0.01370968 0.04153371
v -0.01440348 -0.01465991 0.04069006
v -0.01447371 -0.01526979 -0.01635453
v -0.004839368 -0.01175023 -0.04074502
v 0.005405173 -0.01128802 0.0392257
v -0.004339486 -0.01425114 0.04068995
v -0.004527226 -0.01331328 0.04153436
v -0.0040299 0.01340801 0.04160517
v 0.0006545112 0.01187626 0.04160529
v -0.004598312 -0.0129592 0.04160523
v 0.004459083 -0.009604 0.04160541
v 0.004839011 -0.01027825 -0.04160494
v 0.004347883 -0.0094034 -0.04158777
v 0.005281337 -0.01106541 -0.04086608
v 0.01300569 -0.004507512 0.04069
v 0.01203673 -0.00361383 0.04160532
v 0.01230206 -0.003858641 0.04153413
v -0.004467741 -0.01361349 0.04133248
v 0.003912441 -0.008629873 -0.0410206
v -0.00464309 -0.01273365 -0.04158846
v 0.005091779 -0.01072827 -0.0412482
v -0.004817039 -0.01186273 -0.04102051
v 0.01252796 -0.004066169 0.04133219
v 0.006573282 0.009317309 0.04160559
v -0.01432763 -0.01401445 0.04133186
v 0.003856517 -0.008529291 -0.04074502
v -0.004268043 -0.01460274 -0.04086661
v 0.005104423 -0.01075297 0.0406903
v -0.004344203 -0.01422366 -0.04124767
v 0.004636183 -0.009918861 0.04153425
v 0.004786223 -0.01018646 0.04133299
v -0.004445456 -0.01371771 -0.04160559
f 1 2 3
f 4 5 6
f 2 7 3
f 5 7 6
f 8 9 3
f 10 11 12
f 11 10 8
f 13 11 4
f 4 14 5
f 11 14 4
f 15 14 8
f 14 11 8
f 7 16 6
f 16 7 2
f 17 4 6
f 17 13 4
f 18 10 12
f 19 20 3
f 9 19 3
f 19 9 20
f 18 21 10
f 21 18 22
f 10 21 8
f 21 9 8
f 23 24 3
f 7 25 3
f 26 2 1
f 27 28 1
f 17 29 13
f 24 30 3
f 31 30 24
f 32 23 3
f 25 32 3
f 33 14 15
f 33 31 14
f 33 30 31
f 28 34 1
f 34 26 1
f 35 21 22
f 27 35 22
f 9 35 20
f 21 35 9
f 35 27 1
f 35 1 3
f 20 35 3
f 29 36 13
f 11 36 12
f 13 36 11
f 36 18 12
f 36 29 18
f 37 8 3
f 30 37 3
f 37 15 8
f 37 33 15
f 33 37 30
f 38 32 25
f 38 7 5
f 38 25 7
f 14 38 5
f 39 16 2
f 26 39 2
f 16 39 6
f 39 17 6
f 38 40 32
f 40 38 14
f 41 27 22
f 27 41 28
f 18 41 22
f 34 42 26
f 42 39 26
f 42 34 28
f 41 42 28
f 42 29 17
f 39 42 17
f 29 42 18
f 42 41 18
f 32 43 23
f 40 43 32
f 43 24 23
f 43 31 24
f 31 43 14
f 43 40 14
