v 0.005271852 7.390976e-05 0.00623703
v 0.005407393 0.005185172 0.004109859
v -0.005407453 0.001277179 0.003544539
v 0.00404197 -0.006146505 -0.004743695
v 0.005407393 -0.005611196 0.004658163
v -0.004428566 -0.004588753 -0.00491032
v 0.005407453 0.003093764 -0.00623703
v 0.003213733 -0.002354443 -0.006147623
v -0.005002052 -0.0008520633 -0.003365219
v -0.005393356 0.001498446 -4.953146e-05
v 0.005001158 0.00614652 -0.001785338
v -0.005271912 -0.001700327 0.004143715
f 1 2 3
f 4 5 6
f 5 4 7
f 2 5 7
f 5 2 1
f 8 6 7
f 4 8 7
f 8 4 6
f 6 9 7
f 9 10 7
f 11 2 7
f 10 11 7
f 2 11 3
f 11 10 3
f 5 12 6
f 10 12 3
f 12 1 3
f 12 5 1
f 12 9 6
f 9 12 10
