v -0.002776742 -0.01889652 -0.01724911
v 0.003659487 -0.01902828 -0.01589787
v 0.002815664 -0.01940379 0.01880902
v -0.00277549 -0.01917264 0.007294953
v -0.003315091 0.016684 -0.01735741
v -0.002927899 0.01940379 -0.01648098
v 0.001506925 0.01813903 -0.01899719
v -0.002757192 0.01914939 0.006033361
v 0.00201869 -0.01736376 0.02004641
v -0.003251076 -0.01707253 -0.01604426
v 0.002282679 -0.01772201 -0.01809138
v -7.092953e-05 -0.005831242 -0.02004641
v -0.000561893 0.01151621 -0.01951408
v 0.002191126 0.01207367 -0.01926893
v 0.003830135 -0.01928425 0.006616175
v 0.003678381 0.01929212 -0.01715899
v 0.002864659 -0.01666319 0.01883876
v 0.002831638 0.01891759 0.01754451
v 0.003847122 0.01903653 0.00535053
v 0.001984835 0.01932082 0.01827508
v -0.003337324 -0.01275486 0.005675316
v -0.003847182 -0.00338313 -0.01555222
v -0.003253996 -0.007921338 -0.01881844
v 0.001851916 -0.006601065 -0.01951796
v 0.003847003 0.0192568 -0.014283
v -0.003178596 0.01460198 0.005132437
v 0.003846765 -0.0182558 -0.003187716
f 1 2 3
f 4 1 3
f 5 6 7
f 6 5 8
f 9 4 3
f 4 10 1
f 11 2 1
f 12 11 1
f 13 5 7
f 14 13 7
f 13 14 12
f 2 15 3
f 16 14 7
f 6 16 7
f 17 9 3
f 9 17 18
f 17 19 18
f 15 17 3
f 17 15 19
f 9 20 8
f 20 9 18
f 19 20 18
f 20 6 8
f 20 16 6
f 9 21 4
f 21 10 4
f 21 22 10
f 10 23 1
f 22 23 10
f 23 22 5
f 23 12 1
f 13 23 5
f 23 13 12
f 14 24 12
f 24 11 12
f 11 24 2
f 24 16 2
f 16 24 14
f 16 25 2
f 25 20 19
f 20 25 16
f 21 26 22
f 5 26 8
f 22 26 5
f 26 9 8
f 26 21 9
f 15 27 19
f 27 25 19
f 27 15 2
f 25 27 2
