v -0.002071857 0.003314003 -0.002778053
v -0.002072006 -0.003313966 -0.005562365
v -0.002071947 -0.003289789 0.005562007
v -0.0008367002 0.00278113 0.00208503
v 0.002072126 -0.0001654625 -0.0009686351
v -0.0002305806 -0.002766095 0.004765868
v -0.001478821 -0.003242791 -0.004003763
v 0.001097441 -0.001297176 -0.0009192824
v 0.001036644 -0.001594089 0.003422678
v -0.0003771484 -0.002358332 -0.003230214
f 1 2 3
f 4 1 3
f 1 5 2
f 1 4 5
f 6 4 3
f 2 7 3
f 7 6 3
f 7 8 6
f 9 8 5
f 8 9 6
f 4 9 5
f 6 9 4
f 8 10 5
f 10 8 7
f 5 10 2
f 10 7 2
