v -0.003238738 -0.0008028746 -0.01664448
v 0.0008194745 -0.00545454 -0.01469409
v -0.003222615 -0.001718223 0.0111922
v 0.001905233 -0.006551385 -0.00939393
v 0.002901435 0.004278541 -0.01943415
v 0.003238738 0.006404877 -0.00218606
v 0.002747446 0.001537085 0.01943421
v -0.002868444 0.001061201 0.01493102
v -0.002645522 0.003281832 0.004728198
v -0.002944738 0.001659393 -0.01783115
v 0.001891732 -0.006551921 0.003999472
v 0.002121478 0.004183531 0.01415694
v 0.001993001 0.004389226 -0.01943058
v -0.0007145405 0.00457269 -0.01122385
v 0.002324045 0.006551981 -0.004229069
f 1 2 3
f 4 2 5
f 2 4 3
f 6 4 5
f 4 6 7
f 7 8 3
f 8 1 3
f 8 9 1
f 9 10 1
f 1 10 2
f 11 7 3
f 4 11 3
f 11 4 7
f 8 12 9
f 6 12 7
f 12 8 7
f 2 13 5
f 10 13 2
f 14 10 9
f 14 13 10
f 15 14 9
f 12 15 9
f 15 12 6
f 14 15 13
f 15 6 5
f 13 15 5
