v -0.003567889 -0.01797956 0.0009405613
v -0.002983257 0.01770318 -0.01039633
v 0.001745254 -0.01905483 -0.01555714
v -0.002897218 -0.01905304 0.02268663
v 0.003837988 0.01715493 -0.004960477
v 0.003297418 0.01905483 -0.02462444
v 0.003572702 0.0169276 0.01650178
v 0.002443328 0.0189957 -0.02495745
v -0.003366485 0.01624292 0.01679814
v 0.001514137 0.0155338 0.01840049
v 0.003824219 -0.01828277 0.02035207
v 0.003865495 -0.01654643 0.02248579
v 0.003265545 -0.01745528 0.003534198
v 0.003850147 0.01526529 0.0135155
v -0.003289953 0.01722008 -0.001720607
v -0.003865495 -0.003167212 0.0168606
v -0.00366497 -0.004325986 0.02173582
v 0.003473341 0.01723236 -0.02472004
v -0.003161222 -0.01631963 0.02282983
v 0.003084823 -0.01859599 0.02495742
v 0.002219751 0.007287204 0.02201369
v 0.002141193 -0.002044022 0.02410203
f 1 2 3
f 4 1 3
f 5 6 7
f 2 8 3
f 6 8 7
f 8 9 7
f 9 10 7
f 11 5 12
f 13 11 3
f 12 14 7
f 14 5 7
f 5 14 12
f 15 8 2
f 8 15 9
f 15 16 9
f 1 15 2
f 16 15 1
f 16 17 9
f 5 18 6
f 11 18 5
f 18 11 13
f 18 13 3
f 8 18 3
f 18 8 6
f 19 17 16
f 19 1 4
f 19 16 1
f 20 12 7
f 20 19 4
f 20 11 12
f 20 4 3
f 11 20 3
f 21 10 9
f 17 21 9
f 10 21 7
f 21 20 7
f 22 21 17
f 21 22 20
f 19 22 17
f 20 22 19
