v 0.00272736 -0.02883804 0.03522485
v -0.002727345 -0.02925166 0.03575546
v 0.002533436 -0.02951404 -0.03575546
v -0.00272733 0.02661321 0.03499961
v 0.002696037 0.02951404 0.03404206
v -0.00272733 -0.02844653 -0.03108025
v -0.001904383 -0.02905837 -0.0326066
v 0.002622545 -0.003516674 -0.02597278
v 0.002602398 -0.01919773 -0.03400457
v -0.0009151101 0.00596562 -0.01438469
v 0.002464086 0.01392505 -0.008236766
v 0.002495408 0.02007765 0.001023769
v -0.002517566 0.02320468 0.01927179
v -0.002450854 0.01143712 -0.005328238
v -0.0008670688 0.02423888 0.01608866
v 0.001605213 -0.02894151 -0.03507698
v 0.002617866 -0.006284773 -0.02776146
v -0.002484873 0.0001974404 -0.0170821
v -0.0008922815 0.01340911 -0.005489588
v 0.002569199 0.02578631 0.01398414
v -0.001678064 0.02013454 0.007464945
v -0.001807407 -0.01668712 -0.02867234
v -0.002572298 -0.009680986 -0.0239774
v 0.002625585 0.02802894 0.02208287
f 1 2 3
f 1 4 2
f 4 1 5
f 4 6 2
f 2 7 3
f 6 7 2
f 1 8 5
f 9 1 3
f 9 8 1
f 8 10 11
f 12 8 11
f 4 13 14
f 15 13 4
f 7 16 3
f 16 9 3
f 9 16 7
f 9 17 8
f 10 18 14
f 18 10 8
f 19 12 11
f 19 10 14
f 10 19 11
f 12 20 8
f 13 21 14
f 21 13 15
f 21 19 14
f 19 21 12
f 20 21 15
f 21 20 12
f 22 9 7
f 22 17 9
f 22 7 6
f 17 23 8
f 23 18 8
f 22 23 17
f 23 22 6
f 4 23 6
f 23 4 14
f 18 23 14
f 24 20 15
f 24 4 5
f 24 15 4
f 8 24 5
f 20 24 8
