v -0.002379388 0.003214955 0.02446206
v -0.002290517 -0.001413047 0.02344895
v 0.002205193 0.006340981 0.02679893
v 0.002402127 -0.003872991 0.02233235
v 0.001268119 0.006692827 0.02595021
v -0.002402097 0.003207386 -0.0241919
v 0.001248777 0.006680727 -0.02270513
v 0.001428932 -0.002678931 -0.02679893
v 0.002177119 0.006699681 -0.02270494
v 0.00238803 -0.004146636 -0.02339458
v 0.0005708635 -0.005345464 0.01866537
v -0.002254128 -0.004180908 -0.01424132
v -0.00222674 -0.004970193 0.01074456
v -0.002280682 -0.001890779 0.0222282
v 0.001502186 -0.006290078 -0.01621281
v 0.002192318 -0.006699681 0.003028754
v 0.001457602 -0.004164934 -0.02339457
f 1 2 3
f 2 4 3
f 5 1 3
f 6 7 8
f 6 2 1
f 5 6 1
f 6 5 7
f 7 9 8
f 9 5 3
f 5 9 7
f 9 10 8
f 4 10 3
f 10 9 3
f 2 11 4
f 12 6 8
f 6 12 2
f 12 13 2
f 13 14 2
f 14 11 2
f 11 14 13
f 12 15 13
f 16 11 13
f 15 16 13
f 11 16 4
f 16 10 4
f 16 15 10
f 17 12 8
f 17 15 12
f 10 17 8
f 15 17 10
