v 0.01060416 -0.02844404 -0.1110381
v 0.01130087 -0.003879383 0.1208018
v -0.008378074 -0.02817141 0.1149768
v 0.004270718 0.01147893 -0.1175867
v 0.0003047287 0.02844399 -0.08897918
v -0.0006895214 0.004397124 0.08496356
v -0.00956919 0.02010061 -0.07201505
v -0.01130088 -0.01412079 0.09630489
v 0.001272917 0.01937293 -0.1116197
v -0.002554879 -0.004961014 -0.1165411
v 0.003974758 0.003424615 0.1030867
v 0.004847437 -0.00237605 -0.1208014
v 0.0001243353 -0.02600315 -0.1030172
v -0.01086452 -0.01612271 0.09203362
v -0.009208083 -0.01862268 0.0421266
v -0.0006165951 0.02650532 -0.0976094
v -0.00688035 0.01776606 -0.1037661
v -0.005702972 -0.01816417 -0.08850706
v -0.01002893 0.002239898 -0.06982088
v -0.007923804 -0.006571382 -0.08508742
v -0.008561954 0.00136444 -0.09469742
f 1 2 3
f 2 1 4
f 5 2 4
f 6 5 7
f 8 6 7
f 9 5 4
f 10 9 4
f 5 11 2
f 11 5 6
f 8 11 6
f 2 11 3
f 11 8 3
f 1 12 4
f 12 10 4
f 10 12 1
f 13 10 1
f 13 1 3
f 14 15 3
f 8 14 3
f 5 16 7
f 9 16 5
f 17 9 10
f 16 17 7
f 17 16 9
f 13 18 10
f 15 18 3
f 18 13 3
f 19 8 7
f 14 19 15
f 19 14 8
f 19 18 15
f 18 19 20
f 21 17 10
f 18 21 10
f 21 18 20
f 19 21 20
f 17 21 7
f 21 19 7
