v 0.0006125271 -0.005935036 0.005589902
v -0.001696616 -0.003889426 0.003783166
v 0.002575189 -0.005932493 -0.006859988
v -0.001697183 0.003888995 0.003781229
v -0.002575368 -8.182542e-08 0.003094196
v 0.0006123781 0.005935036 0.005587488
v -0.0008087754 -1.965294e-06 -0.00690186
v 0.0001839399 0.00379619 -0.006890893
v 0.002575219 -0.003996368 0.00690186
v 0.002575338 0.003998268 0.00690034
v 0.002575308 0.005927445 -0.006862104
v 0.0001837909 -0.003801346 -0.006889105
f 1 2 3
f 2 4 5
f 4 1 6
f 4 2 1
f 7 8 3
f 7 2 5
f 7 4 8
f 4 7 5
f 9 1 3
f 10 9 3
f 1 9 6
f 9 10 6
f 8 11 3
f 11 10 3
f 10 11 6
f 11 4 6
f 4 11 8
f 2 12 3
f 12 7 3
f 7 12 2
