v -0.0001196956 -0.02316985 0.04498414
v 0.004880277 -0.02319124 0.04498499
v 0.004784021 -0.02319095 0.04596043
v 0.005104171 0.02914535 0.04499166
v 0.0001041983 0.02916674 0.0449908
v 0.005007945 0.02914564 0.0459671
v 0.00449933 -0.02318985 0.04689835
v 0.004723253 0.02914673 0.04690501
v 0.004037172 -0.02318798 0.0477627
v 0.004261096 0.0291486 0.04776937
v 0.003415195 -0.02318542 0.04852028
v 0.003639089 0.02915117 0.04852695
v 0.002657361 -0.02318225 0.04914196
v 0.002881255 0.02915433 0.04914863
v 0.001792939 -0.02317861 0.04960386
v 0.002016862 0.02915797 0.04961053
v 0.0008549202 -0.02317464 0.04988823
v 0.001078814 0.02916195 0.0498949
v -0.0001205732 -0.02317048 0.04998413
v 0.0001033803 0.02916611 0.04999081
v -0.001095961 -0.02316629 0.0498879
v -0.0008720668 0.02917029 0.04989456
v -0.00203387 -0.02316224 0.0496032
v -0.001810006 0.02917434 0.04960987
v -0.002898243 -0.02315849 0.049141
v -0.002674349 0.0291781 0.04914768
v -0.003655791 -0.02315517 0.04851906
v -0.003431897 0.02918142 0.04852573
v -0.004277489 -0.02315241 0.04776127
v -0.004053595 0.02918418 0.04776794
v -0.004739408 -0.02315032 0.04689676
v -0.004515514 0.02918626 0.04690343
v -0.005023759 -0.02314899 0.04595875
v -0.004799865 0.0291876 0.04596542
v -0.005119668 -0.02314845 0.04498328
v -0.004895774 0.02918813 0.04498994
v -0.005023412 -0.02314874 0.04400784
v -0.004799518 0.02918785 0.04401451
v -0.00473878 -0.02314984 0.04306993
v -0.004514887 0.02918675 0.04307659
v -0.004276563 -0.02315171 0.04220557
v -0.004052669 0.02918488 0.04221224
v -0.003654616 -0.02315427 0.04144799
v -0.003430722 0.02918232 0.04145467
v -0.002896782 -0.02315743 0.04082631
v -0.002672829 0.02917915 0.04083298
v -0.00203233 -0.02316107 0.04036441
v -0.001808466 0.02917551 0.04037108
v -0.001094311 -0.02316505 0.04008004
v -0.0008703578 0.02917154 0.04008671
v -0.0001188179 -0.02316921 0.03998414
v 0.0001050462 0.02916737 0.03999081
v 0.0008565695 -0.0231734 0.04008038
v 0.001080493 0.02916319 0.04008705
v 0.001794479 -0.02317744 0.04036507
v 0.002018373 0.02915914 0.04037174
v 0.002658852 -0.0231812 0.04082727
v 0.002882746 0.02915538 0.04083394
v 0.0034164 -0.02318452 0.04144921
v 0.003640323 0.02915206 0.04145588
v 0.004038068 -0.02318728 0.042207
v 0.004261962 0.02914931 0.04221367
v 0.004499987 -0.02318937 0.04307151
v 0.004723911 0.02914722 0.04307818
v 0.004784338 -0.0231907 0.04400953
v 0.005008232 0.02914589 0.0440162
f 1 2 3
f 4 5 6
f 2 4 3
f 4 6 3
f 1 3 7
f 6 5 8
f 3 6 7
f 6 8 7
f 1 7 9
f 8 5 10
f 7 8 9
f 8 10 9
f 1 9 11
f 10 5 12
f 9 10 11
f 10 12 11
f 1 11 13
f 12 5 14
f 11 12 13
f 12 14 13
f 1 13 15
f 14 5 16
f 13 14 15
f 14 16 15
f 1 15 17
f 16 5 18
f 15 16 17
f 16 18 17
f 1 17 19
f 18 5 20
f 17 18 19
f 18 20 19
f 1 19 21
f 20 5 22
f 19 20 21
f 20 22 21
f 1 21 23
f 22 5 24
f 21 22 23
f 22 24 23
f 1 23 25
f 24 5 26
f 23 24 25
f 24 26 25
f 1 25 27
f 26 5 28
f 25 26 27
f 26 28 27
f 1 27 29
f 28 5 30
f 27 28 29
f 28 30 29
f 1 29 31
f 30 5 32
f 29 30 31
f 30 32 31
f 1 31 33
f 32 5 34
f 31 32 33
f 32 34 33
f 1 33 35
f 34 5 36
f 33 34 35
f 34 36 35
f 1 35 37
f 36 5 38
f 35 36 37
f 36 38 37
f 1 37 39
f 38 5 40
f 37 38 39
f 38 40 39
f 1 39 41
f 40 5 42
f 39 40 41
f 40 42 41
f 1 41 43
f 42 5 44
f 41 42 43
f 42 44 43
f 1 43 45
f 44 5 46
f 43 44 45
f 44 46 45
f 1 45 47
f 46 5 48
f 45 46 47
f 46 48 47
f 1 47 49
f 48 5 50
f 47 48 49
f 48 50 49
f 1 49 51
f 50 5 52
f 49 50 51
f 50 52 51
f 1 51 53
f 52 5 54
f 51 52 53
f 52 54 53
f 1 53 55
f 54 5 56
f 53 54 55
f 54 56 55
f 1 55 57
f 56 5 58
f 55 56 57
f 56 58 57
f 1 57 59
f 58 5 60
f 57 58 59
f 58 60 59
f 1 59 61
f 60 5 62
f 59 60 61
f 60 62 61
f 1 61 63
f 62 5 64
f 61 62 63
f 62 64 63
f 1 63 65
f 64 5 66
f 63 64 65
f 64 66 65
f 1 65 2
f 66 5 4
f 65 66 2
f 66 4 2
