v 0.002289265 0.01099676 -0.01649392
v 0.002291396 -0.001833141 -0.01465625
v 0.0004589409 -3.278255e-07 -0.01649392
v -0.002289504 0.002746403 -0.01649404
v -0.002291456 0.006411582 -0.01465786
v 0.001372859 0.01099664 -0.01465702
v -0.002290383 -0.005497873 0.01557726
v -0.002289847 -0.009160936 0.01649404
v 0.002291456 -0.002744675 0.01649362
v -0.002289563 -0.008244306 0.007330477
v 0.002258167 -0.01082966 0.01624638
v 0.002291381 0.01099539 -0.01465678
v 0.001373753 -0.001830667 0.01557761
v -0.000457108 -0.004579961 -0.007327139
v 0.00137578 -0.01099676 0.009160638
f 1 2 3
f 4 1 3
f 4 5 1
f 5 6 1
f 7 8 9
f 7 5 8
f 7 6 5
f 5 10 8
f 4 10 5
f 8 11 9
f 11 2 9
f 6 12 1
f 2 12 9
f 12 2 1
f 13 7 9
f 7 13 6
f 12 13 9
f 13 12 6
f 2 14 3
f 14 4 3
f 14 10 4
f 14 15 10
f 10 15 8
f 15 11 8
f 11 15 2
f 15 14 2
