v 0.0005419664 -0.004618526 0.03718555
v -6.09234e-05 -0.004523411 -0.03861839
v -6.118044e-05 0.004555881 -0.03861672
v -0.0005419776 0.004793689 0.03861859
v -0.0005411021 0.004634738 -0.03740904
v -0.0005418509 -0.004793733 0.03861672
v 0.0003263652 -0.004655018 0.03803611
v 0.0005410463 0.004618883 0.03718749
v -0.0005406216 -0.004602715 -0.03741118
v 0.0004362315 0.004636854 0.0377613
v 0.0004369207 -0.004636541 0.03775945
v 0.000325948 0.004654706 0.03803775
f 1 2 3
f 4 5 6
f 2 5 3
f 7 4 6
f 7 2 1
f 8 1 3
f 5 9 6
f 9 5 2
f 9 7 6
f 7 9 2
f 8 10 1
f 10 5 4
f 5 10 3
f 10 8 3
f 11 7 1
f 10 11 1
f 7 12 4
f 12 10 4
f 11 12 7
f 12 11 10
