v 0.00114172 -0.009998679 0.02825731
v 0.001595557 -0.01002388 -0.02689359
v 0.001316227 0.0002577901 0.01286757
v 0.001643203 0.0002394021 -0.02689826
v 0.00134775 -0.009982944 -0.02750617
v -0.001625083 0.01002389 -0.00965184
v -0.001643203 -0.00949569 -0.0268378
v -0.001482986 0.01001588 -0.02692869
v 0.001394674 0.0002004653 -0.02751049
v 0.0005081967 6.319582e-05 -0.02825734
v 0.000462532 -0.009837866 -0.0282526
v -0.0005277619 -0.009676516 -0.02824378
v 0.0009695068 -0.009921238 -0.02789152
v -0.001408778 -0.009533495 -0.02768302
v -0.001365095 -0.0002238005 -0.02768719
v -0.001481615 -0.0002413094 -0.0274134
v -0.0004833043 -8.98242e-05 -0.02824759
v -0.00159964 -0.0002589673 -0.02684158
v 0.001016408 0.0001411587 -0.02789572
v -0.00152459 -0.009514004 -0.02740926
f 1 2 3
f 2 4 3
f 2 5 4
f 6 7 1
f 6 1 3
f 4 6 3
f 6 4 8
f 4 9 8
f 5 9 4
f 10 11 12
f 2 13 5
f 11 13 12
f 13 2 1
f 14 15 12
f 13 14 12
f 7 14 1
f 14 13 1
f 15 16 8
f 14 16 15
f 10 17 8
f 17 15 8
f 17 10 12
f 15 17 12
f 18 6 8
f 6 18 7
f 16 18 8
f 18 16 7
f 19 10 8
f 9 19 8
f 19 11 10
f 19 13 11
f 19 9 5
f 13 19 5
f 20 14 7
f 16 20 7
f 20 16 14
