v 0.001013577 -0.01342195 -0.02631728
v 0.001013875 -0.02632228 -0.01341242
v 0.0009832382 -0.02089372 -0.0208865
v 0.001013249 0.02052015 0.0205126
v -0.000177145 -0.02585572 -0.01316635
v 0.0008966625 0.004541367 0.02865921
v 0.000762105 -0.004537672 0.02866165
v 0.000249505 -0.004340023 0.02746843
v 0.0005914271 -0.01317233 0.02585906
v 0.0004028678 -0.02051702 0.02052425
v -9.387732e-05 -0.0196507 0.0196719
v 4.523993e-05 0.004537433 -0.02866165
v -8.97646e-05 -0.004541546 -0.0286593
v -0.0004371405 0.004354298 -0.02745345
v -0.0007016063 -0.01847568 0.009441152
v -0.000274539 -0.02476427 0.01263671
v -0.0002354383 0.003284574 0.02021052
v -0.0001835525 0.009273499 0.01818101
v -0.0009992421 -0.009244084 -0.01815175
v -0.0001766086 -0.01317555 -0.02585112
v 0.0005921125 0.02585363 -0.01318105
v 0.000403583 0.02051696 -0.02052437
v 0.0007617474 0.02866039 -0.004547074
v 0.0008965731 0.02866074 0.004531384
v -0.0001548827 0.01443386 0.01452579
v -0.0004322529 0.01850447 -0.009412155
v 8.678436e-05 0.02477887 -0.0126214
v -9.378791e-05 0.0196653 -0.01965736
v 0.000982821 0.01317552 0.02585147
v 8.714199e-05 -0.01261267 0.02478345
v -9.027123e-05 -0.02866063 -0.004530802
v 4.476309e-05 -0.02866074 0.004547313
v -0.0005664825 -0.02745301 -0.004333168
v 0.0002147555 -0.02585384 0.01318169
v 0.000215143 0.01317164 -0.02585899
v -0.001013875 -0.0144051 -0.01449649
v -0.0006785095 -0.01965329 -0.01964627
v -0.0004370809 -0.0274528 0.004364476
v -0.0008921325 -0.02126303 -0.003289506
v -0.0006501377 -0.02476549 -0.01260729
v -0.0005661845 -0.004343778 -0.02745121
v -0.0002068579 -0.02051991 -0.02051194
v -0.0009329319 -0.003254712 -0.02018075
v -0.0002740622 0.01262772 -0.0247684
v -0.000665009 0.00984028 -0.01914716
v 0.0004900396 0.01966798 0.01966049
v 0.00046134 0.01263022 0.02477567
v -0.0003886223 -0.009813011 0.0191751
v -0.000808835 -0.02059451 0.003471509
v -0.0006491542 -0.01261637 -0.02476063
v -0.0005501509 0.01491886 -0.01463453
v 0.0003783405 0.02746707 0.004348621
v 0.0009834766 0.02585596 0.01316635
v 0.0003787279 0.004358143 0.02746621
v -0.0005575716 -0.0148907 0.01466312
v -0.0009753108 -0.01832449 -0.0095952
v -0.0008196235 0.003013194 -0.02047373
v 0.000249505 0.02746698 -0.004349753
v 0.000461638 0.02478033 0.0126221
v -0.0001445711 0.01835275 0.009623811
v -0.0002997518 -0.002984434 0.0205027
v -0.0001608729 0.02128991 0.003317609
v -0.0002994835 0.0206227 -0.003443047
f 1 2 3
f 2 1 4
f 2 5 3
f 2 6 7
f 6 8 7
f 9 2 7
f 2 9 10
f 8 9 7
f 10 9 11
f 12 1 13
f 14 12 13
f 15 16 11
f 16 10 11
f 17 18 19
f 15 17 19
f 1 20 13
f 20 1 3
f 21 1 22
f 21 23 1
f 23 24 1
f 18 25 19
f 26 27 28
f 21 27 23
f 28 27 22
f 27 21 22
f 29 2 4
f 29 6 2
f 9 30 11
f 30 9 8
f 31 32 33
f 32 31 2
f 31 5 2
f 34 2 10
f 34 32 2
f 16 34 10
f 34 16 32
f 35 12 14
f 35 28 22
f 1 35 22
f 12 35 1
f 36 15 19
f 37 36 19
f 38 16 15
f 38 39 33
f 32 38 33
f 16 38 32
f 40 37 5
f 40 31 33
f 31 40 5
f 39 40 33
f 40 36 37
f 41 14 13
f 20 41 13
f 5 42 3
f 37 42 5
f 42 20 3
f 42 37 20
f 25 43 19
f 43 25 26
f 43 41 19
f 41 43 14
f 44 45 28
f 45 44 14
f 35 44 28
f 44 35 14
f 46 25 18
f 46 29 4
f 46 47 29
f 47 46 18
f 30 48 11
f 48 30 8
f 36 49 15
f 49 38 15
f 38 49 39
f 50 37 19
f 41 50 19
f 37 50 20
f 50 41 20
f 51 43 26
f 51 26 28
f 45 51 28
f 52 24 23
f 1 53 4
f 24 53 1
f 29 54 6
f 47 54 29
f 6 54 8
f 54 17 8
f 17 54 18
f 54 47 18
f 55 17 15
f 55 15 11
f 48 55 11
f 49 56 39
f 56 49 36
f 56 40 39
f 40 56 36
f 57 51 45
f 51 57 43
f 57 45 14
f 43 57 14
f 27 58 23
f 58 52 23
f 58 27 26
f 59 60 25
f 46 59 25
f 59 46 4
f 53 59 4
f 52 59 24
f 59 53 24
f 55 61 17
f 61 55 48
f 17 61 8
f 61 48 8
f 58 62 52
f 59 62 60
f 62 59 52
f 63 58 26
f 63 62 58
f 62 63 60
f 25 63 26
f 60 63 25
