v 0.01794964 -0.002329558 0.05023515
v 0.01941934 -0.02012017 0.03788505
v 0.02326366 0.005273879 0.04581138
v 0.01776829 -0.01142558 -0.05120778
v -0.005984873 0.03051744 0.01582238
v 0.009362727 -0.01730061 -0.05162534
v 0.009744853 -0.01775575 -0.05191588
v 0.02216774 0.006070793 0.04663935
v -0.02300867 -0.01947522 0.03827509
v 0.002666742 -0.0248934 -0.04993525
v -0.01588416 -0.02872181 0.02496454
v -0.006952018 -0.01240918 -0.03196543
v 0.01229447 -0.01087335 0.0511952
v 0.01137868 -0.009779751 0.05189329
v 0.003889292 -0.01674832 0.05077758
v 0.001721889 -0.029578 0.03498214
v 0.01101363 -0.02599514 0.03746656
v -0.005402803 -0.02033082 0.04829365
v 0.01129335 -0.01933077 -0.05019802
v -0.01421636 0.03008844 0.008549571
v 0.02135408 0.006437272 0.04681283
v 0.004794389 -0.02624527 -0.04962915
v -0.007546246 -0.03051743 0.0306747
v -0.01467073 -0.02127011 0.04398526
v 0.00521937 -0.02621764 -0.04866529
v 0.004062474 -0.02594942 -0.0502485
v 0.01052234 -0.01862544 -0.05187887
v -0.01508197 -0.01998201 0.04481903
v -0.02316815 -0.01736714 0.03952748
v -0.02326366 -0.01822086 0.03921551
v 0.0107742 -0.009096175 0.05194935
v 0.002692342 -0.01474532 0.05154856
v 0.01104951 -0.01915264 -0.0512073
v -0.02262169 0.02421288 0.008131653
v -0.01463604 0.03041457 0.01004536
v 0.02100703 0.006557614 0.04681778
v 0.02066451 0.006611213 0.04669368
v 0.01690558 -0.00159815 0.05029112
v 0.01721275 -0.001797423 0.05032477
v 0.01661065 -0.001452327 0.05012619
v -0.006346077 -0.01749766 0.04898533
v -0.02255183 0.02442308 0.01118931
v -0.02291477 -0.01669259 0.03955734
v -0.01464093 0.02995209 0.01158176
v -0.02308369 -0.01701705 0.03959961
v -0.02271497 0.02457866 0.01089844
v -0.006320477 -0.01783243 0.04913731
v 0.002526551 -0.0144209 0.0515027
v -0.006241232 -0.01818946 0.04915959
v -0.01514491 -0.0187268 0.0450355
v 0.003100276 -0.02528954 -0.05023915
v -0.005987346 -0.01906036 0.04904535
v 0.003130585 -0.01554488 0.05148312
v -0.01471502 0.03028534 0.01094678
v -0.02279621 0.02463786 0.01054572
v -0.02288407 0.02464959 0.009636223
v 0.01030838 -0.008596912 0.05171636
v -0.01506871 -0.01838252 0.04493093
v -0.01515207 -0.01909345 0.04501727
v 0.003538817 -0.02560598 -0.05029264
v -0.01471227 0.03017241 0.01129603
v 0.00239861 -0.01412614 0.05132297
v 0.01052997 -0.008826852 0.0519006
v 0.01010391 -0.01816228 -0.05194932
f 1 2 3
f 4 5 3
f 2 4 3
f 6 4 7
f 5 8 3
f 8 1 3
f 9 10 11
f 10 9 12
f 6 10 12
f 13 1 14
f 13 2 1
f 15 16 17
f 16 15 18
f 2 15 17
f 13 15 2
f 15 13 14
f 19 4 2
f 20 4 6
f 4 20 5
f 21 8 5
f 8 21 1
f 22 23 11
f 16 23 22
f 23 9 11
f 23 24 9
f 23 16 18
f 24 23 18
f 16 25 17
f 25 16 22
f 25 2 17
f 19 25 22
f 25 19 2
f 26 22 11
f 26 27 22
f 28 24 18
f 28 29 30
f 24 28 9
f 28 30 9
f 1 31 14
f 31 32 14
f 33 27 4
f 19 33 4
f 27 33 22
f 33 19 22
f 34 20 6
f 34 6 12
f 9 34 12
f 20 35 5
f 36 5 37
f 36 21 5
f 38 36 37
f 21 39 1
f 39 31 1
f 39 36 38
f 36 39 21
f 5 40 37
f 40 38 37
f 41 42 43
f 44 42 5
f 42 40 5
f 45 42 46
f 43 42 45
f 41 47 48
f 47 32 48
f 32 47 49
f 50 47 41
f 47 50 49
f 10 51 11
f 51 6 7
f 51 10 6
f 52 32 49
f 52 28 18
f 28 52 49
f 53 15 14
f 32 53 14
f 52 53 32
f 15 53 18
f 53 52 18
f 35 54 5
f 55 54 35
f 29 55 30
f 55 45 46
f 55 29 45
f 34 56 20
f 56 35 20
f 56 55 35
f 55 56 30
f 30 56 9
f 56 34 9
f 57 42 41
f 42 57 40
f 58 41 43
f 58 50 41
f 58 43 45
f 50 58 45
f 59 28 49
f 50 59 49
f 28 59 29
f 29 59 45
f 59 50 45
f 60 26 11
f 51 60 11
f 26 60 27
f 42 61 46
f 61 42 44
f 61 55 46
f 55 61 54
f 61 44 5
f 54 61 5
f 62 41 48
f 57 62 48
f 62 57 41
f 63 57 48
f 32 63 48
f 63 32 31
f 63 39 38
f 39 63 31
f 40 63 38
f 57 63 40
f 60 64 27
f 4 64 7
f 27 64 4
f 64 51 7
f 64 60 51
