v 0.014746 0.007608593 -0.04434374
v -0.01227536 0.01963791 -0.03496397
v 0.001496144 0.02134994 -0.03947085
v -0.005620755 0.01932141 -0.009028137
v 0.01474594 0.01655367 0.04277575
v 0.01474599 -0.02134998 -0.01696795
v 0.006746762 -0.01888779 -0.04261392
v 0.009624101 -0.01959881 -0.0168753
v 0.01183233 -0.002762005 0.04255262
v 0.005877949 -0.01713602 -0.01411194
v 0.006269626 -0.01915564 -0.02635103
v 0.01339265 0.007367224 0.04319474
v 0.008058675 0.01705834 -0.04179648
v 0.01172944 0.01749884 0.04329345
v 0.01025637 0.007342085 0.04342681
v -0.01217846 0.0005703568 -0.03566092
v 0.006663136 -0.02016187 -0.04165301
v 0.006962277 -0.02076159 -0.04021302
v 0.006664641 -0.01923594 -0.04252285
v 0.01025546 -0.02122571 -0.03017005
v 0.01117868 0.007319629 0.04416707
v 0.01069208 0.007326096 0.04392654
v 0.01472778 0.01657957 0.04307285
v -0.001774989 -0.01633191 -0.03719154
v -0.001453526 -0.01467231 -0.03974777
v -0.007971548 -0.007959038 -0.03735274
v -0.0136609 0.01007929 -0.03483778
v -0.014746 0.009968996 -0.03197351
v 0.006641649 -0.01953216 -0.04230899
v 0.01215256 0.01740357 0.04379243
v 0.01410375 0.01682071 0.04388669
v -0.001895614 -0.01578107 -0.0386757
v -0.008700497 -0.009197608 -0.03464505
v -0.01462404 0.01002768 -0.03355485
v 0.01272842 0.007333457 0.04401147
v 0.0132022 0.01711354 0.04421404
v -0.001737468 -0.01522782 -0.0393858
v -0.001047708 -0.01000179 -0.01156667
v -0.01307761 0.0001126975 -0.03441381
v -0.01420825 0.01005955 -0.03436884
v 0.01178167 0.007316232 0.04434392
v 0.0126225 0.01727775 0.04403552
v -0.001631029 -0.01497097 -0.03962517
v -0.01269438 0.0003443956 -0.03521031
v -0.01317013 -0.0001350641 -0.03284755
v -0.01248119 0.0004507452 -0.03548926
v -0.01398178 0.01007149 -0.034657
f 1 2 3
f 2 4 3
f 1 5 6
f 7 1 6
f 8 6 9
f 10 8 9
f 8 10 11
f 6 12 9
f 13 1 3
f 13 5 1
f 4 14 3
f 15 14 4
f 1 16 2
f 7 16 1
f 17 7 6
f 18 17 6
f 7 17 19
f 8 20 6
f 20 18 6
f 20 8 11
f 18 20 11
f 21 22 9
f 22 15 9
f 22 14 15
f 5 23 6
f 23 12 6
f 23 13 3
f 13 23 5
f 24 18 11
f 10 24 11
f 24 17 18
f 25 26 7
f 26 16 7
f 16 27 2
f 28 15 4
f 28 4 2
f 17 29 19
f 22 30 14
f 14 30 3
f 23 31 12
f 31 23 3
f 24 32 17
f 32 29 17
f 33 32 24
f 32 33 26
f 34 28 2
f 31 35 12
f 12 35 9
f 36 31 3
f 32 37 29
f 29 37 19
f 37 32 26
f 38 10 9
f 38 24 10
f 38 33 24
f 33 39 26
f 34 39 28
f 40 34 2
f 41 21 9
f 35 41 9
f 41 35 31
f 36 41 31
f 42 22 21
f 42 30 22
f 41 42 21
f 42 41 36
f 30 42 3
f 42 36 3
f 37 43 19
f 43 7 19
f 43 25 7
f 43 26 25
f 43 37 26
f 39 44 26
f 44 39 34
f 40 44 34
f 45 39 33
f 45 38 9
f 38 45 33
f 39 45 28
f 15 45 9
f 28 45 15
f 26 46 16
f 44 46 26
f 47 44 40
f 47 46 44
f 27 47 2
f 47 40 2
f 47 27 16
f 46 47 16
