v 0.00114169 -0.009998709 0.02825734
v 0.001595542 -0.01002391 -0.02689362
v 0.001316227 0.0002577752 0.0128676
v 0.001643196 0.0002393723 -0.02689835
v 0.001347758 -0.009982944 -0.02750614
v -0.001625106 0.01002389 -0.00965181
v -0.001643203 -0.009495705 -0.02683774
v -0.001482978 0.01001585 -0.02692872
v 0.001394674 0.0002004504 -0.02751052
v 0.0005081892 6.318092e-05 -0.02825731
v 0.000462532 -0.009837881 -0.02825269
v -0.0005277619 -0.009676531 -0.02824378
v 0.0009695068 -0.009921268 -0.02789146
v -0.0014088 -0.009533525 -0.0276829
v -0.00136508 -0.0002238303 -0.02768716
v -0.001481615 -0.0002413094 -0.02741334
v -0.0004832968 -8.9854e-05 -0.02824759
v -0.001599632 -0.0002589971 -0.02684146
v 0.001016423 0.0001411587 -0.02789572
v -0.001524597 -0.009514034 -0.02740929
f 1 2 3
f 2 4 3
f 2 5 4
f 6 7 1
f 6 1 3
f 4 6 3
f 6 4 8
f 4 9 8
f 5 9 4
f 10 11 12
f 2 13 5
f 11 13 12
f 13 2 1
f 14 15 12
f 13 14 12
f 7 14 1
f 14 13 1
f 15 16 8
f 14 16 15
f 10 17 8
f 17 15 8
f 17 10 12
f 15 17 12
f 18 6 8
f 6 18 7
f 16 18 8
f 18 16 7
f 19 10 8
f 9 19 8
f 19 11 10
f 19 13 11
f 19 9 5
f 13 19 5
f 20 14 7
f 16 20 7
f 20 16 14
