v 0.008138835 -0.03149427 -0.03838293
v 0.007406116 -0.03128713 -0.04085366
v 0.003509164 -0.03043938 -0.05351739
v -0.01429731 -0.03220395 -0.03236322
v -0.01431847 -0.03209165 -0.03234695
v -0.01498938 -0.03068493 -0.0450273
v -0.01442266 -0.03047084 -0.0518833
v -0.01310742 -0.03266125 -0.0540572
v -0.01211005 -0.03040681 -0.05587073
v 0.004687488 -0.03263208 -0.03854884
v -0.001774907 -0.03189497 -0.03914081
v 0.002097487 -0.03271543 -0.05018903
v -0.007715106 -0.0316405 -0.05674918
v -0.003779054 -0.03270482 -0.05612497
v 0.0005981922 -0.03272486 -0.05500992
v -0.001258314 -0.0303816 -0.05663045
v 0.001295269 -0.03205102 -0.03584598
v -0.004998565 -0.03193069 -0.03560208
v -0.009228289 -0.03236416 -0.03654771
v -0.005749583 -0.03202444 -0.04307951
v -0.01498932 -0.0315887 -0.0346196
v 0.006385207 -0.0326261 -0.02794434
v 0.008734286 -0.03206632 -0.0312572
v 0.008164883 -0.03086688 -0.04248847
v 0.00205332 -0.03306945 -0.02654408
v -0.007398486 -0.03040428 -0.0569485
v -0.0114522 -0.03266873 -0.05109705
v -0.005066574 -0.03292391 -0.02643745
v -0.01283228 -0.03248519 -0.02872625
v 0.006649196 -0.03470622 -0.02925186
v 0.008365214 -0.03235473 -0.03760318
v 0.008149683 -0.03149766 -0.03838642
v 0.008096576 -0.03377991 -0.03597675
v 0.003511906 -0.0326745 -0.05208828
v 0.001168847 -0.03159624 -0.05545039
v -0.01429719 -0.03220528 -0.03236322
v -0.01102269 -0.03482983 -0.02852948
v 0.006021798 -0.03343613 -0.0373724
v -0.013412 -0.0344713 -0.03072548
v -0.01382148 -0.03269301 -0.05135845
v -0.006236434 -0.0350119 -0.02729161
v 0.002138257 -0.03504733 -0.0271229
v 0.001928627 -0.0324747 -0.03475197
v 0.002732515 -0.03389105 -0.03274344
v -0.01158106 -0.03370894 -0.03528272
v -0.01107335 -0.03467349 -0.03081755
v -0.009176612 -0.03411433 -0.03261368
v 0.003500342 -0.03503931 -0.02891608
f 1 2 3
f 4 5 6
f 6 7 4
f 8 7 9
f 10 11 12
f 8 13 14
f 8 9 13
f 15 14 16
f 17 18 11
f 18 19 20
f 20 8 14
f 21 22 23
f 24 3 16
f 22 21 25
f 24 26 6
f 20 27 8
f 24 16 26
f 25 21 28
f 24 1 3
f 6 5 21
f 24 21 1
f 6 26 9
f 28 21 29
f 5 29 21
f 21 23 1
f 9 7 6
f 30 23 22
f 31 32 1
f 31 1 33
f 33 1 23
f 3 2 34
f 18 20 11
f 12 11 15
f 11 14 15
f 20 14 11
f 34 2 31
f 19 27 20
f 17 11 10
f 2 32 31
f 35 16 3
f 13 26 16
f 13 9 26
f 4 7 36
f 37 28 29
f 10 12 38
f 29 5 39
f 39 5 36
f 15 35 3
f 16 14 13
f 15 3 34
f 16 35 15
f 40 7 8
f 39 36 40
f 40 36 7
f 41 42 28
f 28 42 25
f 17 10 43
f 37 41 28
f 10 38 44
f 37 29 39
f 30 33 23
f 42 30 22
f 42 22 25
f 33 34 31
f 34 12 15
f 39 40 45
f 27 40 8
f 46 39 45
f 46 45 47
f 46 41 37
f 46 37 39
f 46 48 41
f 48 42 41
f 46 44 48
f 46 47 44
f 48 44 30
f 30 38 33
f 44 38 30
f 48 30 42
f 38 12 33
f 33 12 34
f 43 10 44
f 45 27 19
f 27 45 40
f 45 19 47
f 44 47 43
f 18 47 19
f 17 43 18
f 18 43 47
