v -0.002068937 0.01975113 0.02678078
v -0.001206458 0.02006423 0.0267795
v -0.00133279 0.02038991 -0.02682456
v -0.003242433 0.009578586 0.02679491
v -0.004096687 -0.01216233 0.02682155
v -0.004019082 -0.01505965 0.02682456
v 0.004096687 0.005425215 0.01853549
v 0.003177822 0.008012712 0.02678186
v 0.002946019 -0.01545024 0.02680734
v -0.00383532 -0.01597691 -0.02629271
v -0.003911436 -0.01308417 -0.02629617
v -0.002196968 0.01969075 -0.02633673
v -0.002697647 -0.01759249 0.02544689
v -0.003369749 0.009519696 -0.02632207
v 0.004005134 0.00538516 -0.01900476
v 0.004075587 -0.01601446 0.009399354
v -0.00383687 -0.005261898 -0.02630442
v 0.003851712 -0.01804352 0.01398164
v -0.001893997 -0.01981127 -0.01342312
v -0.001703143 -0.0180887 -0.02480263
v -0.0007873774 -0.02038991 -0.01175103
v 0.00304985 0.007953405 -0.02633622
v 0.004031062 -0.01603663 -0.008903205
v 0.00345856 -0.01722342 -0.01989841
v 0.001657605 -0.01966929 -0.01186123
v 0.0001007915 -0.02034891 0.01332691
v 0.00270623 -0.01748544 0.02497023
v -0.001829803 -0.01994336 0.01494274
v 0.002817005 -0.01550901 -0.02630946
v 0.003787935 -0.01807147 -0.01256233
f 1 2 3
f 1 4 2
f 2 5 6
f 4 5 2
f 7 8 9
f 8 2 6
f 9 8 6
f 2 8 3
f 8 7 3
f 5 10 6
f 10 5 11
f 10 11 3
f 12 1 3
f 1 12 4
f 13 9 6
f 14 5 4
f 12 14 4
f 14 12 3
f 7 15 3
f 16 15 7
f 5 17 11
f 14 17 5
f 11 17 3
f 17 14 3
f 18 7 9
f 18 16 7
f 19 10 20
f 21 19 20
f 15 22 3
f 15 23 24
f 23 15 16
f 24 25 20
f 25 21 20
f 21 25 26
f 25 18 26
f 27 18 9
f 18 27 26
f 13 27 9
f 27 13 26
f 10 28 6
f 19 28 10
f 28 13 6
f 13 28 26
f 28 21 26
f 28 19 21
f 29 15 24
f 29 22 15
f 29 24 20
f 10 29 20
f 29 10 3
f 22 29 3
f 30 25 24
f 25 30 18
f 23 30 24
f 18 30 16
f 30 23 16
