v 0.0004689842 -0.003188014 -0.004581869
v 0.0002419502 0.003815472 -0.004584044
v 0.0004680604 0.003749073 0.004113793
v -0.0004619807 0.004361331 0.0007725358
v -0.0004192144 -0.0002646446 0.004584014
v -7.812679e-05 -0.004361331 0.002237827
v -0.0004102141 0.001922011 0.004554391
v 5.0053e-05 0.003208518 -0.003408611
v -0.0001071841 -0.003553689 -0.0001363158
v -0.0004689842 0.002296805 0.003178507
v 0.0001135021 -0.002591014 -0.003066003
v -0.0003830343 -0.00214684 0.002397805
v 0.0001704246 0.0001288652 -0.0042862
f 1 2 3
f 2 4 3
f 5 6 3
f 6 1 3
f 7 5 3
f 4 7 3
f 8 4 2
f 6 9 1
f 7 10 5
f 10 7 4
f 9 11 1
f 10 12 5
f 12 10 4
f 12 6 5
f 12 9 6
f 11 12 4
f 12 11 9
f 1 13 2
f 11 13 1
f 13 8 2
f 8 13 4
f 13 11 4
