v 0.002689183 -0.0364126 0.04654679
v -0.002689391 -0.03546524 0.04178229
v -0.002570063 -0.03658557 -0.04654682
v 0.002689391 -0.03364015 -0.04283723
v -0.002671197 0.03098243 -0.0448589
v 0.002657354 0.03501368 -0.04547426
v 0.002560109 -0.01503474 0.04258841
v 0.002611041 -0.02762985 0.04560453
v -0.001809716 -0.02907145 0.04239801
v -0.002665862 -0.00340867 0.03264785
v 0.002689242 0.03548306 -0.04337659
v 0.002510935 0.01499391 0.02399364
v -0.001921684 0.03481418 -0.01901734
v -0.00182499 0.02649635 0.002758712
v 0.001600623 0.03178328 -0.004060805
v 0.002451271 0.02585733 0.009673923
v -0.002614006 0.0191524 0.01265404
v -0.002648339 0.02711833 -0.001481324
v 0.002538919 -0.007927537 0.03982246
v 0.002488732 0.006102622 0.03155452
v -0.00266175 -0.02164334 0.03996193
v 0.002542287 0.03530759 -0.01476184
v 0.002609283 0.03658563 -0.03274235
v -0.001821533 0.005122662 0.0283376
v -0.0009289384 0.03439349 -0.03588665
v -0.002637178 0.03149891 -0.01679918
v -0.001830786 -0.008686125 0.03661019
v -0.0018197 0.01613003 0.01800454
f 1 2 3
f 4 1 3
f 2 5 3
f 6 4 3
f 5 6 3
f 7 8 1
f 9 2 1
f 8 9 1
f 10 5 2
f 4 11 1
f 6 11 4
f 11 12 1
f 13 14 15
f 14 16 15
f 14 17 16
f 10 18 5
f 18 10 17
f 14 18 17
f 18 14 13
f 19 12 20
f 19 7 1
f 12 19 1
f 21 8 7
f 21 9 8
f 9 21 2
f 21 10 2
f 12 22 16
f 16 22 15
f 22 11 23
f 11 22 12
f 22 13 15
f 13 22 23
f 10 24 17
f 12 24 20
f 25 13 23
f 11 25 23
f 13 25 5
f 25 6 5
f 25 11 6
f 26 13 5
f 18 26 5
f 26 18 13
f 21 27 10
f 27 19 20
f 19 27 7
f 27 21 7
f 24 27 20
f 27 24 10
f 24 28 17
f 28 24 12
f 17 28 16
f 28 12 16
