v -0.001642168 -0.005970508 -0.02212501
v 0.003194809 0.00374338 0.02081811
v -0.002829194 -0.005973488 0.02427775
v 0.002418101 0.0005528629 -0.02511126
v -0.003611326 -0.005496114 0.02425748
v -0.00353539 -0.003812999 -0.02251691
v 0.004196763 0.005020916 8.827448e-05
v 0.002627254 0.005973488 0.01229411
v -0.0002694726 0.005910188 -0.001892447
v 0.002444804 0.004588634 -0.01372707
v -0.002067029 0.003954381 0.02171248
v -0.004196763 -0.001409382 -0.02321911
v -0.004185438 0.0004707873 0.02133197
v -0.0034554 -0.005202383 0.02511126
v -0.0006389618 0.005800813 0.010005
v -0.001114249 0.003986388 -0.01482743
v -0.002842426 0.00076437 -0.02421498
f 1 2 3
f 2 1 4
f 1 5 6
f 5 1 3
f 2 7 8
f 7 9 8
f 9 7 10
f 10 7 4
f 7 2 4
f 11 2 8
f 5 12 6
f 12 5 13
f 11 12 13
f 12 11 9
f 5 14 13
f 14 11 13
f 14 5 3
f 2 14 3
f 11 14 2
f 9 15 8
f 15 11 8
f 11 15 9
f 16 9 10
f 16 12 9
f 16 17 12
f 12 17 6
f 17 10 4
f 17 16 10
f 17 1 6
f 1 17 4
