v 0.0112976 0.02316128 0.006806358
v 0.008516968 0.02296692 0.006606919
v 0.008696478 0.02241614 0.006964903
v 0.01057909 0.02239955 0.006874038
v 0.005620791 0.02170973 0.006712176
v 0.006828783 0.0213534 0.006858893
v 0.008778979 0.02128611 0.007075649
v 0.005074054 0.02328316 -0.001137249
v 0.003298485 0.02244194 -0.002454336
v 0.001900876 0.0221448 -0.001477447
v 0.002594541 0.02245642 -0.0003046943
v -0.0001350367 0.02106156 0.000349314
v -0.0002686363 0.02097086 -0.001394868
v -0.0001177285 0.02114557 -0.002890944
v 0.01449696 0.0228543 -0.003035885
v 0.0134648 0.02252574 -0.00446896
v 0.006372355 0.0228212 -0.003988525
v 0.008873563 0.02366326 -0.002492237
v 0.001204133 0.02081368 -0.005289225
v 0.0007629986 0.02109112 -0.004084407
v 0.006886972 0.02237337 -0.005297443
v 0.01308191 0.02221404 -0.005433692
v -0.04275633 -0.01494995 -0.005317185
v -0.03952536 -0.0149663 -0.005847453
v -0.03839395 -0.01680881 -0.005605935
v -0.0399818 -0.01751424 -0.005567194
v -0.03541094 -0.01882197 -0.005656239
v -0.03478809 -0.01753114 -0.005653048
v -0.0346472 -0.01553217 -0.006153816
v -0.02224195 -0.001735347 -0.006967757
v -0.01932857 -0.003877569 -0.007165761
v -0.02227129 -0.004540273 -0.007320946
v -0.02523242 -0.003351356 -0.006959834
v -0.01775785 -0.006334793 -0.007338703
v -0.02225046 -0.006372869 -0.007414645
v -0.02671184 -0.005668619 -0.006896656
v 0.04126187 -0.01904785 0.006717329
v 0.03775382 -0.01789084 0.006969662
v 0.03611926 -0.019356 0.006898312
v 0.03729634 -0.02025113 0.00700298
v 0.03349 -0.01693394 0.00728732
v 0.03268407 -0.01898333 0.007102454
v 0.03261881 -0.02041228 0.006828303
v -0.04566894 -0.01456344 0.00750565
v -0.04396132 -0.01360647 0.007205958
v -0.04531569 -0.0117373 0.007607752
v -0.04666152 -0.01177714 0.007385815
v -0.04575891 -0.009321222 0.007000502
v -0.04531569 -0.0117373 0.007607752
v -0.04423609 -0.01007621 0.007661222
v -0.0421677 -0.01172619 0.007565228
v -0.04423609 -0.01007621 0.007661222
v 0.009589047 0.01525061 -0.007796993
v 0.006588988 0.01666865 -0.00727933
v 0.00861284 0.01818585 -0.007182469
v 0.01139609 0.0174882 -0.007587956
v 0.004564465 0.01809142 -0.006759669
v 0.008077883 0.01963728 -0.00733002
v 0.01217211 0.01949825 -0.007221833
v 0.02854978 -0.01419746 -0.007568725
v 0.03299681 -0.0146331 -0.007444802
v 0.03188468 -0.0163311 -0.007390206
v 0.02860219 -0.01654755 -0.00736765
v 0.0293804 -0.01878852 -0.007187256
v 0.03372306 -0.01797284 -0.007539514
v 0.03705237 -0.01635756 -0.007741927
v 0.03496013 0.001112269 -0.008597816
v 0.03693086 0.003213594 -0.008323781
v 0.03915995 0.001979703 -0.008241107
v 0.03862585 0.000229191 -0.008258453
v 0.04196683 0.0001323903 -0.008074002
v 0.04129652 0.002483439 -0.007972227
v 0.03934439 0.004742406 -0.007935036
v 0.01142559 -0.009961894 -0.007472035
v 0.005370857 -0.009507637 -0.007297729
v 0.005450225 -0.004932969 -0.00768772
v 0.01244527 -0.006437454 -0.007682735
v 0.01441412 -0.003308253 -0.008116654
v 0.009263664 -0.001413824 -0.008233573
v 0.004835589 0.0009693471 -0.008239002
v 0.0009426596 -0.001474112 -0.008068985
v -0.003737489 -0.003311448 -0.007857872
v -0.001291234 -0.006445231 -0.007541548
v -0.000421044 -0.009950889 -0.007253122
v 0.03063302 0.006031736 0.0063473
v 0.02763918 0.004406265 0.006658462
v 0.03043245 0.003628035 0.006298929
v 0.03360913 0.004502707 0.006316786
v 0.02535396 0.002348812 0.006645316
v 0.0298204 0.001970041 0.006741463
v 0.03458611 0.002314246 0.006674414
v 0.0400114 0.0002316786 0.006487797
v 0.03981639 0.003270209 0.006371986
v 0.03450998 -0.0002862487 0.006799195
v 0.03806258 0.006015108 0.005860875
v 0.02890373 -0.0003779426 0.006788877
v 0.03363011 -0.002932054 0.006929846
v 0.0277116 -0.002830481 0.006836975
v 0.02350698 2.468005e-06 0.006940475
v 0.02178942 -0.002421541 0.006937344
v 0.02644501 -0.005277431 0.006966881
v 0.02023727 -0.00482844 0.007093146
v 0.01847809 0.0007634955 0.006954715
v 0.01615059 -0.001760374 0.007248115
v 0.01406519 -0.004285892 0.007191608
v 0.01897741 -0.007284212 0.007240398
v 0.01264248 -0.00679139 0.007355398
v 0.01111751 -0.0008956438 0.007469481
v 0.008320738 -0.003602335 0.007525505
v 0.006302899 -0.006261236 0.007485209
v 0.01161884 -0.009365664 0.007413987
v 0.005111544 -0.008845765 0.007532444
v 0.003551225 -0.0025883 0.007487562
v 0.0005771015 -0.005419256 0.00750389
v -0.001377446 -0.008082215 0.007428128
v 0.004258814 -0.01147519 0.007820541
v -0.002312002 -0.01071886 0.007721918
v -0.003993852 -0.004043327 0.007591443
v -0.006957482 -0.006795568 0.007658435
v -0.008452957 -0.009539254 0.007586697
v -0.002926168 -0.01348453 0.007649884
v -0.009112719 -0.01246592 0.007626394
v -0.01139438 -0.005103717 0.007500269
v -0.01340357 -0.007952757 0.007724887
v -0.01459695 -0.01105133 0.007730307
v -0.009654868 -0.01540394 0.007406896
v -0.01548455 -0.01422958 0.007490963
v -0.01787554 -0.006139154 0.007686138
v -0.01959916 -0.009376305 0.007931914
v -0.02085972 -0.01275816 0.007403458
v -0.01612137 -0.01708268 0.006970821
v -0.02190534 -0.01590187 0.007096192
v -0.02409731 -0.00757159 0.007747998
v -0.02579495 -0.01114021 0.007533837
v -0.02738954 -0.01462191 0.007381096
v -0.02264452 -0.01847312 0.007301856
v -0.02887226 -0.01755063 0.007334096
v -0.03013711 -0.009382379 0.007739946
v -0.03223171 -0.01297973 0.007575879
v -0.03487257 -0.01659221 0.007616792
v -0.02977766 -0.01938192 0.007080922
v -0.03652531 -0.01880603 0.007647159
v -0.03626759 -0.01106744 0.007571196
v -0.03910061 -0.01430607 0.007843973
v -0.04114224 -0.01651007 0.007439433
v -0.03725737 -0.01998079 0.007172527
v -0.04225095 -0.01774112 0.007332232
v -0.03070074 -0.02152142 0.006380358
v -0.03034887 -0.02068552 0.007092098
v -0.03781238 -0.02097574 0.006641896
v -0.04301037 -0.01843009 0.006633456
v -0.03809584 -0.02153215 0.005271852
v -0.04375761 -0.0188975 0.005667919
v -0.0471298 -0.01500983 0.00662317
v -0.04854459 -0.01547564 0.005684157
v -0.04418542 -0.01919152 0.004078888
v -0.04909805 -0.01574545 0.004167606
v -0.04882651 -0.01164543 0.006653121
v -0.05041441 -0.01149151 0.005444338
v -0.05167572 -0.0116544 0.00398414
v -0.04789072 -0.008265786 0.004794204
v -0.04814985 -0.008022074 0.003082954
v -0.04786845 -0.008135608 0.0008986229
v -0.05157669 -0.01180975 0.001514453
v -0.04927481 -0.01601279 0.002086568
v -0.04365537 -0.01911677 -0.0001033898
v -0.04440289 -0.01935211 0.002100311
v -0.04842382 -0.01594615 -0.0002837582
v -0.05055726 -0.01193761 -0.001077068
v -0.04757599 -0.008086725 -0.001414573
v -0.04711002 -0.008233704 -0.003154015
v -0.05045892 -0.01209146 -0.003177207
v -0.04846361 -0.01616079 -0.0024182
v -0.04295806 -0.01903792 -0.003487472
v -0.04341498 -0.01920506 -0.002139067
v -0.04779769 -0.01612927 -0.003849904
v -0.04975343 -0.01209059 -0.004453759
v -0.04662253 -0.008297912 -0.004518037
v -0.0453966 -0.008632233 -0.00569788
v -0.04805546 -0.01204902 -0.005449393
v -0.04656696 -0.01577291 -0.00468532
v -0.04153332 -0.0182892 -0.005116913
v -0.04243506 -0.01884579 -0.004498904
v -0.04519507 -0.01541062 -0.004947997
v -0.04624649 -0.01202772 -0.005372203
v -0.04378007 -0.008855807 -0.006134125
v -0.04195088 -0.009061607 -0.006248057
v -0.04388445 -0.01196377 -0.005699608
v -0.03859964 -0.009558745 -0.006230529
v -0.0402827 -0.01221627 -0.005688339
v -0.03364144 -0.01027019 -0.006365111
v -0.03435434 -0.01288633 -0.006210648
v -0.02828098 -0.01100529 -0.006224617
v -0.02860853 -0.01354943 -0.005926535
v -0.02901481 -0.01616839 -0.005959946
v -0.0229655 -0.01410733 -0.006140152
v -0.02356512 -0.0169742 -0.006138247
v -0.0242292 -0.01952815 -0.005828781
v -0.02976671 -0.0185597 -0.005691756
v -0.02440099 -0.02094005 -0.005165084
v -0.0301444 -0.01991023 -0.005199303
v -0.02445173 -0.0217496 -0.004824623
v -0.03039858 -0.02073303 -0.004790535
v -0.03622865 -0.01971407 -0.004965392
v -0.03071184 -0.02140891 -0.004215321
v -0.03679887 -0.02032086 -0.004282026
v -0.03082383 -0.02196402 -0.003574542
v -0.03715825 -0.02086091 -0.003555953
v -0.03104507 -0.02257226 -0.002366952
v -0.03751048 -0.02109941 -0.002159416
v -0.03108392 -0.02263964 -0.0006673262
v -0.03773796 -0.02142746 -0.0001595011
v -0.03110877 -0.02263719 0.001507916
v -0.0381614 -0.02178496 0.002093971
v -0.03113923 -0.02271101 0.003499307
v -0.03825443 -0.02188784 0.003864436
v -0.03101806 -0.02224476 0.005250313
v -0.02461133 -0.02352617 0.003309087
v -0.02439917 -0.02296717 0.004661635
v -0.02395942 -0.02208157 0.006186204
v -0.01777273 -0.02386042 0.00463038
v -0.01754942 -0.02308967 0.005617463
v -0.01723661 -0.02218524 0.006289864
v -0.02360039 -0.02128988 0.006731289
v -0.01696441 -0.02115685 0.006811315
v -0.02317507 -0.02015126 0.006939191
v -0.01659514 -0.01953311 0.006992783
v -0.01065584 -0.02172869 0.006796005
v -0.01045336 -0.02024142 0.006817522
v -0.0101032 -0.01801686 0.007013146
v -0.003861492 -0.02086033 0.006908368
v -0.003732414 -0.0188464 0.007083427
v -0.003455334 -0.01623264 0.007373257
v 0.002938321 -0.01929389 0.007008692
v 0.003018525 -0.01673108 0.007254532
v 0.003506001 -0.01416035 0.007722281
v 0.009563006 -0.01719056 0.007229922
v 0.009969819 -0.01471037 0.007518677
v 0.01070152 -0.01200416 0.007489502
v 0.01630759 -0.01524084 0.00763569
v 0.01699524 -0.01246322 0.007259615
v 0.01794501 -0.009836667 0.007538626
v 0.0232286 -0.0130076 0.007225173
v 0.02417073 -0.01031541 0.007224876
v 0.0252602 -0.007757278 0.007114222
v 0.03026912 -0.01083294 0.00709876
v 0.03139997 -0.008198387 0.00693777
v 0.03249925 -0.005575537 0.006849349
v 0.03719821 -0.008688057 0.007062528
v 0.03822307 -0.00571972 0.006705201
v 0.03935995 -0.002736943 0.006882438
v 0.04333306 -0.005608475 0.00661139
v 0.04387299 -0.002372378 0.006637319
v 0.03935995 -0.002736943 0.006882438
v 0.03822307 -0.00571972 0.006705201
v 0.04391813 0.0007709255 0.006325738
v 0.0400114 0.0002316786 0.006487797
v 0.04621426 -0.002243204 0.006387668
v 0.04613714 0.001062743 0.006374347
v 0.04521925 0.004710827 0.005476851
v 0.04335366 0.00411706 0.00578259
v 0.03981639 0.003270209 0.006371986
v 0.04361568 0.007744196 0.005434859
v 0.04131223 0.007072585 0.005497441
v 0.03806258 0.006015108 0.005860875
v 0.03847433 0.009433137 0.004882288
v 0.03680812 0.008880809 0.005690674
v 0.03402969 0.007640596 0.005862451
v 0.03202616 0.01037173 0.005798882
v 0.02983999 0.009135899 0.006248208
v 0.02678378 0.007409879 0.006282625
v 0.03402969 0.007640596 0.005862451
v 0.02983999 0.009135899 0.006248208
v 0.02537736 0.01057624 0.006206152
v 0.02276749 0.008874299 0.006249481
v 0.01983398 0.006824541 0.006371875
v 0.02385416 0.005538435 0.00625714
v 0.02100021 0.003244299 0.00640415
v 0.01682385 0.0044006 0.006390914
v 0.0139479 0.001786487 0.007111797
v 0.01578432 0.008216298 0.006252303
v 0.01275565 0.005707271 0.006607632
v 0.00975634 0.00301251 0.006769275
v 0.006724246 0.0002550315 0.007448465
v 0.008765205 0.00716226 0.006320155
v 0.005761175 0.004423871 0.006704213
v 0.002682241 0.001626147 0.007130798
v -0.0005796179 -0.001206942 0.007482283
v 0.001862866 0.006016644 0.006664631
v -0.001230989 0.003217587 0.007069314
v -0.004500616 0.0004212693 0.007546382
v -0.008005269 -0.002364953 0.0078956
v -0.005020603 0.005008663 0.007418264
v -0.008329697 0.002254113 0.007617099
v -0.01179847 -0.0005048825 0.008031378
v -0.01541094 -0.003189775 0.007711921
v -0.01167786 0.004118864 0.007874409
v -0.01522972 0.001503034 0.007985955
v -0.01913522 -0.001043478 0.008111922
v -0.02198686 -0.004123897 0.007685509
v -0.01808143 0.003577761 0.008597674
v -0.02256556 0.001303831 0.008250471
v -0.02564995 -0.002064375 0.008087387
v -0.02803362 -0.005717237 0.007739561
v -0.02494084 0.003009409 0.008504922
v -0.02891576 -0.0001917896 0.00839244
v -0.03141433 -0.003990375 0.007871494
v -0.0341023 -0.007604136 0.007796684
v -0.03108537 0.001079704 0.008379834
v -0.03422728 -0.002534539 0.007800769
v -0.03741607 -0.005906157 0.00793243
v -0.03990867 -0.009044889 0.007862244
v -0.03606955 -0.001472467 0.007478932
v -0.03924719 -0.004784253 0.007410083
v -0.04225181 -0.007659865 0.007676095
v -0.04036655 -0.003972203 0.007036658
v -0.04335782 -0.006864145 0.006998716
v -0.04225181 -0.007659865 0.007676095
v -0.03924719 -0.004784253 0.007410083
v -0.04115736 -0.003434845 0.006336364
v -0.04427581 -0.006114011 0.005978672
v -0.04716188 -0.008608512 0.00633111
v -0.04419281 -0.005841665 0.004499493
v -0.04150338 -0.002986727 0.004687758
v -0.04105932 -0.002651749 0.00251532
v -0.0441071 -0.005534343 0.002641588
v -0.04133036 -0.002148778 0.0002944795
v -0.04398508 -0.005407474 0.0003826311
v -0.04094519 -0.002029396 -0.001848069
v -0.04411164 -0.005049082 -0.001900227
v -0.04030613 -0.002037742 -0.003549214
v -0.04348439 -0.005099274 -0.003523023
v -0.03936953 -0.002152518 -0.00473013
v -0.04251802 -0.005215906 -0.005043386
v -0.03838974 -0.002339779 -0.005775982
v -0.04126642 -0.005603322 -0.005620955
v -0.03738377 -0.002616355 -0.006133936
v -0.04011368 -0.005815502 -0.006310132
v -0.03609126 -0.002982937 -0.006539634
v -0.03846447 -0.00617324 -0.006374414
v -0.03414956 -0.003583808 -0.006528128
v -0.03603361 -0.006735676 -0.006390952
v -0.03105057 -0.004534944 -0.006750421
v -0.03224241 -0.00750873 -0.006424355
v -0.0276302 -0.008370016 -0.006977988
v -0.02245574 -0.00892145 -0.006971366
v -0.02272306 -0.01147247 -0.006213912
v -0.01715326 -0.008896524 -0.007144988
v -0.01704882 -0.01155144 -0.006399335
v -0.0171121 -0.01430453 -0.006421539
v -0.01139339 -0.01124892 -0.006721253
v -0.01126892 -0.01419024 -0.006776149
v -0.01123953 -0.01703546 -0.00646266
v -0.01725258 -0.01707179 -0.0061124
v -0.01135304 -0.01962401 -0.006064652
v -0.01750655 -0.01960181 -0.005736505
v -0.01140986 -0.02132708 -0.00569549
v -0.01765944 -0.02120983 -0.0054991
v -0.01142894 -0.02233777 -0.005296617
v -0.01765703 -0.02207212 -0.005027121
v -0.01146714 -0.0231873 -0.005011438
v -0.01767311 -0.02289874 -0.004717475
v -0.02436963 -0.02234525 -0.004387422
v -0.01779115 -0.02342008 -0.003741897
v -0.02440375 -0.02274718 -0.003589913
v -0.01782456 -0.02376118 -0.002685852
v -0.02440731 -0.02322019 -0.002446457
v -0.01787447 -0.02399016 -0.001092799
v -0.02446899 -0.02332947 -0.0008131107
v -0.0179224 -0.02423209 0.001291567
v -0.02465967 -0.02367819 0.001384988
v -0.01784136 -0.02425091 0.003129804
v -0.01110588 -0.02441198 0.0006712088
v -0.01088239 -0.02447873 0.002266319
v -0.01093469 -0.02428207 0.004063935
v -0.004207595 -0.02434722 0.001594075
v -0.004108076 -0.02429073 0.003512332
v -0.004052305 -0.02361277 0.004858503
v -0.01086522 -0.02369153 0.005289347
v -0.003873051 -0.02290004 0.005835752
v -0.01074636 -0.02263843 0.006160023
v -0.003866429 -0.02208674 0.006517868
v 0.002832986 -0.02297594 0.005519944
v 0.0029084 -0.02230577 0.006460476
v 0.002956221 -0.02119169 0.006886173
v 0.009434136 -0.02190974 0.006343272
v 0.009434216 -0.02087873 0.006629672
v 0.009442463 -0.01932883 0.006852802
v 0.01550131 -0.02081821 0.00684968
v 0.01566131 -0.01954025 0.006846552
v 0.01588639 -0.01769788 0.007427281
v 0.02174432 -0.01978073 0.007169854
v 0.02208448 -0.01809151 0.007199628
v 0.02254478 -0.01573995 0.007250592
v 0.02777112 -0.01854673 0.007460047
v 0.0283478 -0.01628159 0.007542333
v 0.02917621 -0.01353836 0.007330351
v 0.03477786 -0.01434053 0.007287085
v 0.0360641 -0.01154919 0.007270487
v 0.03968136 -0.0153006 0.007327799
v 0.04119892 -0.01216642 0.007066317
v 0.0360641 -0.01154919 0.007270487
v 0.03477786 -0.01434053 0.007287085
v 0.04240681 -0.008926375 0.006893704
v 0.03719821 -0.008688057 0.007062528
v 0.04446603 -0.01250964 0.006940167
v 0.04573369 -0.009023104 0.006936235
v 0.0460764 -0.005585492 0.006522402
v 0.04855751 -0.009000864 0.006748037
v 0.04775031 -0.005582016 0.006411987
v 0.04784623 -0.00223421 0.005912323
v 0.04891526 -0.005627939 0.006023515
v 0.04882138 -0.002211596 0.005665472
v 0.04869777 0.001346033 0.005259236
v 0.04752738 0.001214277 0.005988647
v 0.04692437 0.005308153 0.004549643
v 0.04611139 0.005046354 0.005266864
v 0.0457314 0.008275224 0.004256716
v 0.04510628 0.008061328 0.005288649
v 0.04082594 0.01003386 0.003850982
v 0.03969058 0.009703676 0.004517598
v 0.03533293 0.01214546 0.003659496
v 0.03425064 0.01169427 0.004613079
v 0.03329947 0.01115782 0.00500927
v 0.02968076 0.01328304 0.00478861
v 0.02872356 0.01268742 0.005769015
v 0.02746463 0.01188604 0.006183147
v 0.02452359 0.01444403 0.006053476
v 0.023171 0.01354816 0.006129797
v 0.02118689 0.01219322 0.006220095
v 0.02537736 0.01057624 0.006206152
v 0.0190324 0.01527467 0.006192229
v 0.01709044 0.0138768 0.006314087
v 0.01461174 0.01200682 0.006427035
v 0.0186705 0.01037883 0.006360609
v 0.02118689 0.01219322 0.006220095
v 0.01709044 0.0138768 0.006314087
v 0.01175634 0.009764094 0.006357264
v 0.01043204 0.01382546 0.006452571
v 0.007533103 0.01146381 0.006463177
v 0.004755761 0.008817689 0.006359162
v 0.003053158 0.0132701 0.006759616
v 0.0007755584 0.01056772 0.00696942
v -0.001843893 0.007728109 0.007088147
v -0.002436671 0.01195399 0.007381493
v -0.004883431 0.009245941 0.007522723
v -0.008258443 0.006748973 0.007515505
v -0.006875233 0.01026087 0.007581998
v -0.01042364 0.008016303 0.007718159
v -0.01421868 0.005807735 0.008147011
v -0.01163787 0.008762866 0.007775288
v -0.01565176 0.0068167 0.008208878
v -0.01990455 0.004989234 0.008572729
v -0.01645284 0.007429097 0.008189088
v -0.0208589 0.00578047 0.008513361
v -0.02616001 0.003966925 0.008559696
v -0.0215198 0.006287637 0.008050889
v -0.02694373 0.004627561 0.008414263
v -0.03239468 0.00199115 0.008128598
v -0.02756623 0.005260422 0.007707171
v -0.03358204 0.003113315 0.007678404
v -0.03239468 0.00199115 0.008128598
v -0.02694373 0.004627561 0.008414263
v -0.03814599 -0.0006201693 0.00731013
v -0.03606955 -0.001472467 0.007478932
v -0.03408825 0.003632821 0.006744964
v -0.04042624 0.0006409721 0.007229542
v -0.03428967 0.004051718 0.005171313
v -0.03997613 0.001602581 0.005333906
v -0.03375394 0.003933474 0.003110185
v -0.03879788 0.001803545 0.002794452
v -0.03373686 0.004353466 0.0004920205
v -0.03819215 0.001846352 0.0004753852
v -0.03323438 0.00449231 -0.001789019
v -0.038015 0.001713987 -0.001920274
v -0.0326733 0.004311648 -0.00373809
v -0.03738818 0.001522694 -0.003712794
v -0.03144467 0.003637037 -0.004456146
v -0.03623928 0.001196037 -0.004699011
v -0.03074228 0.003366153 -0.00551374
v -0.03556386 0.001031436 -0.005770553
v -0.03010887 0.002972723 -0.006166053
v -0.03453112 0.0006105253 -0.006175566
v -0.02910699 0.002345304 -0.006108414
v -0.03329783 0.0001225681 -0.006199972
v -0.02772128 0.001571789 -0.006374964
v -0.0317286 -0.000557451 -0.006368175
v -0.02560856 0.0003136941 -0.0065488
v -0.02921904 -0.001650681 -0.006664854
v -0.02306194 0.003019743 -0.006650004
v -0.02109773 0.001607051 -0.006787749
v -0.01820843 -0.0005552331 -0.00693947
v -0.01669587 0.00290182 -0.006999965
v -0.01401411 0.0006954684 -0.007199162
v -0.01108658 -0.001813806 -0.007367333
v -0.01536304 -0.002947582 -0.007442947
v -0.008518301 -0.004619351 -0.007569063
v -0.01317782 -0.00562069 -0.007519776
v -0.006723757 -0.007580944 -0.007449108
v -0.01190039 -0.008402159 -0.007090176
v -0.005896008 -0.01067649 -0.007029819
v -0.0003831084 -0.01346044 -0.007174266
v -0.005640991 -0.01384588 -0.006945718
v -0.0002336972 -0.01655377 -0.00652389
v -0.00548944 -0.01688628 -0.00670438
v 0.0002984195 -0.01925014 -0.006401553
v -0.005275428 -0.01963322 -0.006460091
v 0.0008770162 -0.02107569 -0.005967512
v -0.005037687 -0.02144422 -0.006029805
v 0.001278294 -0.02216138 -0.005651905
v -0.004940843 -0.0224993 -0.005527309
v 0.001626246 -0.02291186 -0.005342556
v -0.0048073 -0.02313356 -0.005131444
v 0.001875364 -0.02369013 -0.005098416
v -0.004753826 -0.02383968 -0.00463619
v -0.01144707 -0.02383076 -0.00431317
v -0.004682707 -0.02407764 -0.003632686
v -0.01138639 -0.02417667 -0.003108024
v -0.004542788 -0.02430414 -0.002346209
v -0.01122314 -0.02439047 -0.001561641
v -0.004409519 -0.02427177 -0.0006793058
v 0.002198951 -0.02447202 -0.003060384
v 0.002220759 -0.02459397 -0.00139062
v 0.002322171 -0.02454458 0.0009398926
v 0.00808317 -0.02388831 -0.001878596
v 0.008602786 -0.02393535 0.0004368071
v 0.008835835 -0.02382929 0.002557153
v 0.002537964 -0.02452457 0.00284286
v 0.009144561 -0.02348636 0.004174466
v 0.002721154 -0.02378953 0.004436004
v 0.009359304 -0.02269646 0.005377973
v 0.01489762 -0.02307705 0.003552142
v 0.01507489 -0.02268696 0.005274001
v 0.01539396 -0.02172875 0.006362502
v 0.02090878 -0.02257549 0.005093077
v 0.02126021 -0.02162721 0.006216387
v 0.02149923 -0.0208721 0.006944697
v 0.02671014 -0.02181027 0.006034033
v 0.02704304 -0.0210024 0.006458121
v 0.0273875 -0.02009742 0.007059205
v 0.03257183 -0.02126486 0.006537462
v 0.03892347 -0.02153341 0.00621915
v 0.03825229 -0.0209059 0.006578119
v 0.03255245 -0.0220268 0.006270044
v 0.04400696 -0.01992117 0.006210215
v 0.04288169 -0.01956989 0.006468571
v 0.0460601 -0.01693298 0.006225627
v 0.04483217 -0.01663524 0.006897012
v 0.04288169 -0.01956989 0.006468571
v 0.04400696 -0.01992117 0.006210215
v 0.04298073 -0.01612974 0.007260866
v 0.04126187 -0.01904785 0.006717329
v 0.04737579 -0.0126334 0.0069298
v 0.03775382 -0.01789084 0.006969662
v 0.04923315 -0.01265579 0.006542521
v 0.05002693 -0.009107536 0.006361652
v 0.05000424 -0.01277521 0.005405414
v 0.05066767 -0.009266407 0.005355348
v 0.04972761 -0.005797452 0.005002906
v 0.05107426 -0.009352109 0.004021427
v 0.05041175 -0.005862018 0.003738752
v 0.05008684 -0.002410099 0.003355763
v 0.04959502 -0.002330065 0.00466787
v 0.05021841 0.00123142 0.002598339
v 0.04935254 0.001285696 0.004002682
v 0.04850781 0.005480924 0.002148323
v 0.04787188 0.005542566 0.003836951
v 0.0467331 0.008660666 0.001772127
v 0.04603389 0.008554071 0.003400913
v 0.0415449 0.010501 0.0009267488
v 0.04134623 0.0103358 0.002688036
v 0.03671636 0.01256129 0.0006598039
v 0.03597465 0.01220522 0.002312492
v 0.03217685 0.01470631 0.0007096296
v 0.03133081 0.01420511 0.002336925
v 0.03055573 0.01385735 0.003711765
v 0.02742225 0.01606574 0.002756746
v 0.0265156 0.01559274 0.004070371
v 0.02558715 0.01507303 0.005296497
v 0.0229493 0.01761119 0.00458714
v 0.02154998 0.0168826 0.005480106
v 0.02044957 0.01619862 0.006086492
v 0.01780493 0.01938757 0.005953809
v 0.01672593 0.0187577 0.006467928
v 0.01516493 0.01772697 0.006345855
v 0.01305408 0.01593163 0.006562962
v 0.01320576 0.02137665 0.006804394
v 0.01164636 0.02037687 0.006715371
v 0.009059064 0.01833747 0.006405513
v 0.01305408 0.01593163 0.006562962
v 0.009059064 0.01833747 0.006405513
v 0.005861193 0.01572427 0.007197535
v 0.005740695 0.01935747 0.007092752
v 0.002309105 0.01707486 0.007282497
v 0.005740695 0.01935747 0.007092752
v -0.0004629251 0.01464852 0.007160274
v 0.003690937 0.01974026 0.007105503
v 0.000421585 0.01768355 0.007447392
v -0.002385992 0.0153462 0.00761145
v -0.004557164 0.01284008 0.007549994
v -0.0008493052 0.01809116 0.007265268
v -0.003562621 0.01576566 0.007309193
v -0.005791601 0.01328515 0.007565042
v -0.008026212 0.01082224 0.007466184
v -0.004477584 0.01600961 0.006949538
v -0.006702205 0.01360317 0.007358005
v -0.005791601 0.01328515 0.007565042
v -0.003562621 0.01576566 0.007309193
v -0.008977646 0.01124915 0.007304862
v -0.006702205 0.01360317 0.007358005
v -0.012439 0.009236085 0.007550847
v -0.007518222 0.01384473 0.006664116
v -0.009814791 0.01155967 0.006667689
v -0.01321268 0.009688802 0.007318029
v -0.01714584 0.007970694 0.007729238
v -0.01077576 0.011948 0.006356522
v -0.01403219 0.01016068 0.006739418
v -0.01321268 0.009688802 0.007318029
v -0.009814791 0.01155967 0.006667689
v -0.01794136 0.008594019 0.007235233
v -0.01714584 0.007970694 0.007729238
v -0.0215198 0.006287637 0.008050889
v -0.02208496 0.006878724 0.007498562
v -0.01451332 0.01048746 0.005650291
v -0.01830624 0.008869752 0.00595725
v -0.02243583 0.007319549 0.006156682
v -0.02791268 0.005580353 0.006659798
v -0.01837192 0.009062593 0.004340325
v -0.02253647 0.007415788 0.004743873
v -0.02793306 0.00583462 0.00490614
v -0.02221681 0.00719286 0.002595513
v -0.02784133 0.005847009 0.00284373
v -0.02246399 0.007525703 0.0001071384
v -0.02765612 0.006181384 0.0006458983
v -0.02243282 0.007584231 -0.002147974
v -0.02723275 0.006216153 -0.001859463
v -0.02215677 0.007240779 -0.003790111
v -0.02696445 0.005929871 -0.003713555
v -0.02176068 0.006834505 -0.004932165
v -0.02623798 0.005330159 -0.004555798
v -0.02109429 0.006308675 -0.005547136
v -0.02555105 0.004751835 -0.005334472
v -0.02049813 0.005869715 -0.006191849
v -0.0248945 0.004314236 -0.005903159
v -0.01972682 0.005344335 -0.00640571
v -0.02418514 0.00383479 -0.006288324
v -0.01856017 0.004443143 -0.006580529
v -0.01568075 0.00683546 -0.00664466
v -0.01454961 0.005912584 -0.006950728
v -0.01260692 0.004319329 -0.007028511
v -0.010802 0.007470769 -0.007284509
v -0.008844955 0.005983702 -0.007401094
v -0.006000174 0.003874022 -0.007182342
v -0.009918988 0.002147827 -0.007238316
v -0.002702544 0.001327277 -0.007819513
v -0.006800235 -0.0004210572 -0.007442042
v -0.002353308 0.005909455 -0.007876314
v 0.001100737 0.003499027 -0.007937317
v 0.001063213 0.008183606 -0.008087578
v 0.004607222 0.005930432 -0.008122473
v 0.008343197 0.003631926 -0.0082266
v 0.007777668 0.008507735 -0.008015985
v 0.01158777 0.006404947 -0.008058777
v 0.01553089 0.004410341 -0.008219974
v 0.01241316 0.001487561 -0.008426896
v 0.01970675 0.002655392 -0.008224411
v 0.01688615 -0.0002937096 -0.008450078
v 0.02408164 0.001175443 -0.008284667
v 0.02180874 -0.001736318 -0.008305741
v 0.01985367 -0.004648388 -0.008201852
v 0.01838186 -0.007584757 -0.0079494
v 0.02692561 -0.00296385 -0.008485026
v 0.02542305 -0.005676792 -0.008121023
v 0.0242119 -0.008364446 -0.007993054
v 0.01753992 -0.01063926 -0.007577737
v 0.02344859 -0.01114275 -0.007694466
v 0.03100756 -0.006584064 -0.007837686
v 0.0299713 -0.009096211 -0.007699822
v 0.02908535 -0.01162167 -0.007785297
v 0.02324395 -0.0140807 -0.007572814
v 0.03557016 -0.009951636 -0.007778405
v 0.03447922 -0.01239546 -0.007824392
v 0.04159831 -0.01074691 -0.007729403
v 0.04026387 -0.01363618 -0.007702911
v 0.04569039 -0.0113833 -0.007524805
v 0.04405684 -0.01491491 -0.00797548
v 0.04053554 -0.01837409 -0.007969822
v 0.03583933 -0.01980369 -0.007421644
v 0.04558497 -0.01565413 -0.007519532
v 0.04223858 -0.01925388 -0.00757038
v 0.03701043 -0.02081082 -0.00723678
v 0.03019579 -0.02022627 -0.007264593
v 0.0307745 -0.02113464 -0.007188031
v 0.04303174 -0.0196414 -0.006870293
v 0.03768598 -0.02135293 -0.007056683
v 0.0312409 -0.02184588 -0.00703276
v 0.0381594 -0.0217587 -0.006455332
v 0.03172163 -0.0225478 -0.006669648
v 0.02464303 -0.02306596 -0.006344603
v 0.02446604 -0.02230071 -0.006794558
v 0.02421715 -0.02156996 -0.006936208
v 0.02400854 -0.02077836 -0.007343755
v 0.01832425 -0.02227602 -0.006477588
v 0.01817997 -0.0215916 -0.006668025
v 0.01799962 -0.02077133 -0.006969535
v 0.0237189 -0.01943194 -0.007433073
v 0.01784047 -0.01932668 -0.007434063
v 0.01245383 -0.02134764 -0.006253988
v 0.01220044 -0.0205433 -0.006651253
v 0.01181531 -0.01908675 -0.006934464
v 0.0175522 -0.01678715 -0.007403634
v 0.01126487 -0.01661108 -0.007347435
v 0.006520967 -0.02079416 -0.006124176
v 0.005871971 -0.01915778 -0.006756253
v 0.005184664 -0.01646685 -0.007033236
v 0.01104322 -0.013461 -0.007484972
v 0.00503379 -0.01324831 -0.007233119
v 0.01732082 -0.01381337 -0.007517419
v 0.02348238 -0.01691719 -0.007381633
v 0.006953397 -0.02170017 -0.005838729
v 0.0126517 -0.02188939 -0.005967945
v 0.007289553 -0.0223255 -0.005444563
v 0.01284802 -0.02232724 -0.005273014
v 0.007537702 -0.02289338 -0.005037046
v 0.01298114 -0.02270967 -0.00449717
v 0.007870303 -0.02327119 -0.004264927
v 0.002056093 -0.02398125 -0.004138275
v 0.007995889 -0.02360738 -0.003348059
v 0.01337938 -0.02307746 -0.003608584
v 0.01347137 -0.0232056 -0.002249002
v 0.01887118 -0.0231634 -0.004161679
v 0.01897283 -0.02358368 -0.003199183
v 0.01960603 -0.02322982 -0.0009047315
v 0.01399757 -0.02343574 -0.0004481068
v 0.020044 -0.02332002 0.001311132
v 0.01454985 -0.02355703 0.001827062
v 0.02049392 -0.02315572 0.003446856
v 0.02593404 -0.02378299 0.001410529
v 0.02611754 -0.02331686 0.003844992
v 0.02643456 -0.02258633 0.005268768
v 0.03252604 -0.02415535 0.004439943
v 0.03232286 -0.02328307 0.005887888
v 0.03937752 -0.02267877 0.004396709
v 0.0392718 -0.0222373 0.005564274
v 0.04650689 -0.0212236 0.004577349
v 0.0454732 -0.02060975 0.006025443
v 0.04798585 -0.01715853 0.004080338
v 0.04712709 -0.01710729 0.005395276
v 0.0454732 -0.02060975 0.006025443
v 0.04650689 -0.0212236 0.004577349
v 0.05073651 -0.0127973 0.003789116
v 0.04860256 -0.01707806 0.002297982
v 0.05074577 -0.01293415 0.001953084
v 0.05167569 -0.009393027 0.00235959
v 0.05097017 -0.01295761 -1.143664e-06
v 0.05119704 -0.009344328 -6.798841e-05
v 0.05092038 -0.005918962 0.0001530554
v 0.05091105 -0.005915081 0.002189359
v 0.05077176 -0.00273894 -0.0003593639
v 0.05066904 -0.002628227 0.001670681
v 0.05053111 0.0008373531 -0.001346773
v 0.05059673 0.0009875116 0.0007124478
v 0.04897593 0.004769706 -0.002231188
v 0.04867605 0.00501379 -2.540648e-06
v 0.04712626 0.008586017 -0.003191956
v 0.04669186 0.008633768 -0.0004943693
v 0.04172899 0.01093676 -0.003200992
v 0.04196901 0.01105793 -0.0009964542
v 0.03680113 0.01280495 -0.00328194
v 0.03726589 0.01298491 -0.00133692
v 0.03206462 0.01453939 -0.003141427
v 0.03238636 0.01467197 -0.001424186
v 0.02818925 0.01654783 -0.002766994
v 0.02816107 0.01642235 -0.001190004
v 0.0280975 0.01635236 0.0009148745
v 0.02439591 0.0184823 -0.0005913088
v 0.02418713 0.01832129 0.001385836
v 0.0235533 0.01792302 0.003042785
v 0.02043003 0.0207407 0.002084935
v 0.0197611 0.02035615 0.003788078
v 0.01897424 0.01996125 0.004971139
v 0.015643 0.02273408 0.004894902
v 0.0151191 0.022453 0.005745728
v 0.01422103 0.02194538 0.006690907
v 0.01167738 0.02386915 0.00614144
v 0.008000938 0.02400334 0.005463194
v 0.008228578 0.02372254 0.006566208
v 0.0116707 0.02444138 0.005424009
v 0.004050143 0.02253476 0.006015753
v 0.004867531 0.02212962 0.006629563
v 0.002534074 0.01993941 0.006770495
v 0.001693609 0.0201617 0.006640139
v 0.0009115245 0.02046489 0.006044479
v -0.001842452 0.01839115 0.007073579
v -0.00241542 0.01856316 0.0065304
v 0.003892472 0.02250098 0.004734194
v 0.0004823608 0.02066745 0.005196484
v -0.002961304 0.01876164 0.00557157
v -0.005236446 0.01625985 0.006503545
v -0.005827881 0.01643353 0.005640708
v 0.0001954613 0.02083848 0.003901572
v -0.003326065 0.01895317 0.004354025
v -0.006043815 0.01654584 0.00444185
v -0.008093497 0.01397292 0.005927223
v -0.008333694 0.01401916 0.004748154
v -0.003487451 0.01912486 0.002754445
v -0.006293063 0.01664927 0.002836398
v -0.008453663 0.01404999 0.003044802
v -0.0114063 0.01218188 0.00522296
v -0.01178395 0.01235349 0.003388686
v -0.006720377 0.01677494 0.0009013629
v -0.00909782 0.01426767 0.0009508599
v -0.01170191 0.01238422 0.00106038
v -0.01487488 0.01062371 0.003780285
v -0.01476343 0.0104519 0.001322905
v -0.009274747 0.01439291 -0.001199765
v -0.012007 0.01245236 -0.001237677
v -0.015042 0.01055194 -0.000992408
v -0.01815721 0.008815888 0.001851921
v -0.01836888 0.00895753 -0.0004816903
v -0.01189236 0.01227161 -0.003000961
v -0.01474426 0.01035791 -0.00279834
v -0.01832223 0.008741791 -0.002336617
v -0.01433342 0.01000207 -0.004152259
v -0.01785409 0.008431837 -0.003831441
v -0.01376161 0.009635561 -0.005238046
v -0.01745806 0.008101301 -0.004892136
v -0.01333705 0.009327488 -0.006173034
v -0.01715939 0.007944747 -0.005878592
v -0.01271712 0.008873357 -0.006537277
v -0.01657679 0.007485544 -0.006262535
v -0.01196414 0.008294599 -0.00681712
v -0.009438246 0.01059498 -0.006955369
v -0.008500589 0.01001476 -0.0070336
v -0.007313221 0.009189618 -0.007386995
v -0.00554311 0.01216068 -0.007226804
v -0.004141 0.01136525 -0.007522978
v -0.001978713 0.0100918 -0.00788126
v -0.005216052 0.007846561 -0.007464091
v -0.001256151 0.01364124 -0.007322047
v 0.001102339 0.01236826 -0.007654519
v 0.004233308 0.01055853 -0.008173106
v 0.003949959 0.01456983 -0.00736123
v 0.007106392 0.0129612 -0.007571989
v 0.01069465 0.01114995 -0.008293023
v 0.01320684 0.01365756 -0.008043813
v 0.0170418 0.01174029 -0.007939768
v 0.0144883 0.009192583 -0.008379834
v 0.02105792 0.009921463 -0.008052119
v 0.01847581 0.007301246 -0.008025986
v 0.02521819 0.008250436 -0.007933442
v 0.02254006 0.005592609 -0.008190849
v 0.02928148 0.006531888 -0.008120298
v 0.02667916 0.003990602 -0.00823513
v 0.03329421 0.00484311 -0.008131381
v 0.03084436 0.002486334 -0.008410364
v 0.02867066 -0.0001818489 -0.00844005
v 0.0334352 -0.001394412 -0.008231221
v 0.03215379 -0.004019845 -0.008292168
v 0.03795077 -0.002185119 -0.008067809
v 0.03707279 -0.004822429 -0.00816899
v 0.03626793 -0.007432205 -0.007910934
v 0.04129392 -0.00535892 -0.007961174
v 0.04133242 -0.008064597 -0.007739922
v 0.04464134 -0.005662812 -0.007410512
v 0.04524775 -0.008489527 -0.00753604
v 0.04664642 -0.005819548 -0.007166608
v 0.04772253 -0.008707517 -0.007110609
v 0.04816274 -0.0118611 -0.007479473
v 0.04964807 -0.008848744 -0.006821942
v 0.04944664 -0.01219002 -0.007000817
v 0.04639711 -0.01611664 -0.007198083
v 0.04999952 -0.01243988 -0.006543112
v 0.04693554 -0.01639158 -0.006407874
v 0.04381365 -0.02000936 -0.006373011
v 0.04777024 -0.01667379 -0.005559908
v 0.04438073 -0.02037598 -0.005815855
v 0.03851387 -0.02227466 -0.005654335
v 0.03190681 -0.02287539 -0.005406149
v 0.0449224 -0.02072402 -0.004753015
v 0.03861281 -0.02241078 -0.003889948
v 0.03218465 -0.02347691 -0.003991403
v 0.03861542 -0.02265042 -0.001822888
v 0.03222352 -0.02370616 -0.002118565
v 0.02548923 -0.02387194 -0.002953634
v 0.02511798 -0.02372923 -0.004478172
v 0.02490556 -0.02351595 -0.005442635
v 0.01858551 -0.02308606 -0.00520488
v 0.01842118 -0.02268166 -0.005919986
v 0.0323571 -0.02429235 0.0001638457
v 0.02576706 -0.02358787 -0.0008306354
v 0.03245807 -0.02466989 0.00270202
v 0.03871404 -0.02284749 0.0008547902
v 0.03908882 -0.0229578 0.002771766
v 0.04647423 -0.02159814 0.0006423984
v 0.04707975 -0.02176269 0.00309364
v 0.04859179 -0.01694934 7.136725e-06
v 0.0453045 -0.02097484 -0.002819947
v 0.04828091 -0.01677731 -0.002083943
v 0.05070043 -0.01290297 -0.002036702
v 0.04784552 -0.01677465 -0.003992753
v 0.05039856 -0.01278241 -0.003843379
v 0.0511268 -0.009197136 -0.003997276
v 0.05105002 -0.00926687 -0.002175788
v 0.05137127 -0.006214838 -0.00418035
v 0.05104902 -0.00598784 -0.001948931
v 0.05047584 -0.002925038 -0.004553297
v 0.0505382 -0.002879512 -0.00256423
v 0.05026185 0.0005350187 -0.005291529
v 0.05063945 0.0006288034 -0.003443873
v 0.04846793 0.004226074 -0.005395569
v 0.04878432 0.004472728 -0.004212417
v 0.04688676 0.008161752 -0.006611296
v 0.04723023 0.008410918 -0.005330302
v 0.04149869 0.01049948 -0.00589235
v 0.04169983 0.01073851 -0.00479026
v 0.03644353 0.0125337 -0.005596359
v 0.03649192 0.01257141 -0.004426916
v 0.03172486 0.01436246 -0.005412454
v 0.03198653 0.01451338 -0.004355335
v 0.0274948 0.01612144 -0.005155175
v 0.02802235 0.01648056 -0.00410485
v 0.02373502 0.0182521 -0.004832926
v 0.02402539 0.01853292 -0.003703745
v 0.0241958 0.0185894 -0.002287955
v 0.01960755 0.0206583 -0.003243601
v 0.02015319 0.02084657 -0.001496678
v 0.02072042 0.02091047 0.0003343178
v 0.01523505 0.02312147 -0.0007157438
v 0.01567806 0.02328743 0.001514217
v 0.01551865 0.02303239 0.00318267
v 0.01097589 0.02442715 0.002580687
v 0.01147957 0.02466989 0.003960983
v 0.007091385 0.02447638 0.003025006
v 0.007666668 0.02413776 0.00434808
v 0.00365231 0.02270179 0.003467148
v 0.006379975 0.02370083 0.001018504
v 0.003162647 0.02271825 0.001851653
v 0.0001061158 0.02093589 0.002378971
v -0.003210626 0.01894008 0.0006555878
v -0.003804164 0.01924079 -0.001426075
v -0.006731123 0.01671949 -0.001107016
v -0.003884062 0.01926156 -0.002948617
v -0.006452146 0.01653178 -0.002664694
v -0.008801378 0.01406085 -0.002758218
v -0.006177395 0.01630255 -0.003935345
v -0.008645948 0.01387375 -0.004133326
v -0.01142241 0.01184958 -0.004430132
v -0.007786326 0.01343748 -0.005237054
v -0.01064515 0.01137059 -0.005415485
v -0.007101977 0.0131104 -0.006132762
v -0.01023705 0.0111153 -0.006490514
v -0.006461372 0.01269951 -0.006562243
v -0.004817909 0.01555614 -0.005841441
v -0.003748388 0.01498765 -0.006311959
v -0.002752617 0.01446872 -0.006772136
v -0.0009499057 0.01737148 -0.006322654
v 5.321903e-05 0.01679691 -0.00658545
v 0.001579748 0.0159363 -0.007114469
v 0.003286958 0.01914993 -0.006437626
v 0.00248445 0.0197638 -0.006251005
v 0.007260246 0.02160131 -0.006334951
v 0.007614574 0.02087353 -0.006621441
v 0.01279336 0.0214721 -0.006445005
v 0.01250568 0.02074192 -0.006846264
v 0.01794187 0.01933813 -0.006900647
v 0.01740569 0.0186471 -0.007250139
v 0.01655351 0.01754195 -0.007539403
v 0.0152104 0.01581167 -0.007309897
v 0.02164549 0.01639458 -0.006856178
v 0.02062787 0.01537907 -0.007253892
v 0.01914855 0.01389916 -0.007795105
v 0.02445889 0.01336396 -0.007672432
v 0.02303738 0.01195553 -0.007727092
v 0.0288152 0.01193671 -0.007594018
v 0.02738658 0.01048562 -0.007770509
v 0.03312055 0.01016435 -0.007521564
v 0.03151701 0.008724846 -0.007735487
v 0.03766395 0.00802114 -0.007795175
v 0.03576568 0.006712721 -0.007996164
v 0.0414311 0.005809895 -0.007874803
v 0.03899618 0.008879848 -0.007808822
v 0.04285518 0.006490443 -0.007836713
v 0.04524254 0.00346104 -0.007681769
v 0.04368487 0.003044682 -0.007832064
v 0.04657243 0.0004153908 -0.00766955
v 0.04482593 0.000310888 -0.007765813
v 0.04187535 -0.00252532 -0.008067835
v 0.04479354 -0.002633021 -0.007734731
v 0.04661493 -0.002727161 -0.007328255
v 0.04782729 0.0004655444 -0.007356624
v 0.04786243 -0.002792615 -0.006974589
v 0.0484781 -0.005942014 -0.0068147
v 0.04890266 -0.002857673 -0.006602953
v 0.05019795 -0.00608558 -0.006483147
v 0.0504047 -0.008965109 -0.006488095
v 0.05073795 -0.006227464 -0.005515763
v 0.05074421 -0.009075419 -0.005395393
v 0.05024606 -0.0126544 -0.005325568
v 0.04956787 -0.002899911 -0.005794177
v 0.04896519 0.0005218629 -0.006993511
v 0.04968144 0.0005204198 -0.006314464
v 0.04724661 0.003944289 -0.006997654
v 0.0476227 0.004063568 -0.006170074
v 0.04509003 0.007530342 -0.007687639
v 0.04587711 0.007830664 -0.007123748
v 0.04065562 0.009904382 -0.007347301
v 0.04118155 0.0102444 -0.006766274
v 0.03565445 0.01206288 -0.007077416
v 0.03606067 0.01229765 -0.00628971
v 0.03116125 0.01398765 -0.006951297
v 0.03155712 0.01429133 -0.006352091
v 0.02677588 0.01548315 -0.006707251
v 0.02728447 0.0158908 -0.006068378
v 0.0228377 0.01754746 -0.006021205
v 0.02335109 0.01801016 -0.005555692
v 0.018357 0.01981298 -0.006490477
v 0.01870179 0.02017185 -0.005656011
v 0.01910135 0.02048751 -0.004697389
v 0.01302372 0.02193535 -0.006129338
v 0.007064418 0.02211536 -0.005939921
v 0.001679315 0.02040416 -0.005895881
v -0.002889804 0.01853556 -0.00521988
v -0.00182248 0.01790019 -0.00579426
v -0.00322595 0.01889574 -0.004084442
v -0.00550389 0.01595668 -0.004860468
v 0.02236911 0.01699911 -0.006334429
v 0.02617382 0.01499914 -0.007082969
v 0.02545658 0.01431465 -0.007246943
v 0.0304733 0.01342885 -0.007189598
v 0.02982711 0.01285203 -0.00735986
v 0.03502014 0.01162264 -0.007335356
v 0.03428621 0.01106542 -0.007612608
v 0.03989444 0.009434358 -0.007558958
v 0.04407614 0.00706797 -0.007852209
v 0.04625611 0.003706113 -0.00729702
v 0.01012444 0.02435353 0.0001055142
v -0.007518222 0.01384473 0.006664116
v -0.0008493052 0.01809116 0.007265268
v 0.002534074 0.01993941 0.006770495
v 0.003690937 0.01974026 0.007105503
v 0.03349 -0.01693394 0.00728732
f 1 2 3
f 1 3 4
f 5 6 3
f 5 3 2
f 7 4 3
f 7 3 6
f 8 9 10
f 8 10 11
f 12 11 10
f 12 10 13
f 14 13 10
f 14 10 9
f 15 16 17
f 15 17 18
f 8 18 17
f 8 17 9
f 19 20 17
f 19 17 21
f 22 21 17
f 22 17 16
f 14 9 17
f 14 17 20
f 23 24 25
f 23 25 26
f 27 26 25
f 27 25 28
f 29 28 25
f 29 25 24
f 30 31 32
f 30 32 33
f 34 35 32
f 34 32 31
f 36 33 32
f 36 32 35
f 37 38 39
f 37 39 40
f 41 42 39
f 41 39 38
f 43 40 39
f 43 39 42
f 44 45 46
f 44 46 47
f 48 47 49
f 48 49 50
f 51 52 46
f 51 46 45
f 53 54 55
f 53 55 56
f 57 58 55
f 57 55 54
f 59 56 55
f 59 55 58
f 60 61 62
f 60 62 63
f 64 63 62
f 64 62 65
f 66 65 62
f 66 62 61
f 67 68 69
f 67 69 70
f 71 70 69
f 71 69 72
f 73 72 69
f 73 69 68
f 74 75 76
f 74 76 77
f 78 77 76
f 78 76 79
f 80 79 76
f 80 76 81
f 82 81 76
f 82 76 83
f 84 83 76
f 84 76 75
f 85 86 87
f 85 87 88
f 89 90 87
f 89 87 86
f 91 88 87
f 91 87 90
f 92 93 91
f 92 91 94
f 95 88 91
f 95 91 93
f 96 94 91
f 96 91 90
f 97 94 96
f 97 96 98
f 89 99 96
f 89 96 90
f 100 98 96
f 100 96 99
f 101 98 100
f 101 100 102
f 103 104 100
f 103 100 99
f 105 102 100
f 105 100 104
f 106 102 105
f 106 105 107
f 108 109 105
f 108 105 104
f 110 107 105
f 110 105 109
f 111 107 110
f 111 110 112
f 113 114 110
f 113 110 109
f 115 112 110
f 115 110 114
f 116 112 115
f 116 115 117
f 118 119 115
f 118 115 114
f 120 117 115
f 120 115 119
f 121 117 120
f 121 120 122
f 123 124 120
f 123 120 119
f 125 122 120
f 125 120 124
f 126 122 125
f 126 125 127
f 128 129 125
f 128 125 124
f 130 127 125
f 130 125 129
f 131 127 130
f 131 130 132
f 133 134 130
f 133 130 129
f 135 132 130
f 135 130 134
f 136 132 135
f 136 135 137
f 138 139 135
f 138 135 134
f 140 137 135
f 140 135 139
f 141 137 140
f 141 140 142
f 143 144 140
f 143 140 139
f 145 142 140
f 145 140 144
f 146 142 145
f 146 145 147
f 51 45 145
f 51 145 144
f 44 147 145
f 44 145 45
f 148 149 146
f 148 146 150
f 141 142 146
f 141 146 149
f 151 150 146
f 151 146 147
f 152 150 151
f 152 151 153
f 44 154 151
f 44 151 147
f 155 153 151
f 155 151 154
f 156 153 155
f 156 155 157
f 158 159 155
f 158 155 154
f 160 157 155
f 160 155 159
f 161 162 160
f 161 160 159
f 163 164 160
f 163 160 162
f 165 157 160
f 165 160 164
f 166 167 165
f 166 165 168
f 156 157 165
f 156 165 167
f 169 168 165
f 169 165 164
f 163 170 169
f 163 169 164
f 171 172 169
f 171 169 170
f 173 168 169
f 173 169 172
f 174 175 173
f 174 173 176
f 166 168 173
f 166 173 175
f 177 176 173
f 177 173 172
f 171 178 177
f 171 177 172
f 179 180 177
f 179 177 178
f 181 176 177
f 181 177 180
f 182 183 181
f 182 181 184
f 174 176 181
f 174 181 183
f 185 184 181
f 185 181 180
f 179 186 185
f 179 185 180
f 187 188 185
f 187 185 186
f 23 184 185
f 23 185 188
f 189 190 188
f 189 188 187
f 24 23 188
f 24 188 190
f 191 192 190
f 191 190 189
f 29 24 190
f 29 190 192
f 193 194 192
f 193 192 191
f 195 29 192
f 195 192 194
f 196 197 195
f 196 195 194
f 198 199 195
f 198 195 197
f 28 29 195
f 28 195 199
f 200 201 199
f 200 199 198
f 27 28 199
f 27 199 201
f 202 203 201
f 202 201 200
f 204 27 201
f 204 201 203
f 205 206 204
f 205 204 203
f 183 182 204
f 183 204 206
f 26 27 204
f 26 204 182
f 207 208 206
f 207 206 205
f 174 183 206
f 174 206 208
f 209 210 208
f 209 208 207
f 175 174 208
f 175 208 210
f 211 212 210
f 211 210 209
f 166 175 210
f 166 210 212
f 213 214 212
f 213 212 211
f 167 166 212
f 167 212 214
f 215 216 214
f 215 214 213
f 156 167 214
f 156 214 216
f 217 152 216
f 217 216 215
f 153 156 216
f 153 216 152
f 218 219 217
f 218 217 215
f 220 148 217
f 220 217 219
f 150 152 217
f 150 217 148
f 221 222 220
f 221 220 219
f 223 224 220
f 223 220 222
f 149 148 220
f 149 220 224
f 225 226 224
f 225 224 223
f 141 149 224
f 141 224 226
f 227 136 226
f 227 226 225
f 137 141 226
f 137 226 136
f 228 229 227
f 228 227 225
f 230 131 227
f 230 227 229
f 132 136 227
f 132 227 131
f 231 232 230
f 231 230 229
f 233 126 230
f 233 230 232
f 127 131 230
f 127 230 126
f 234 235 233
f 234 233 232
f 236 121 233
f 236 233 235
f 122 126 233
f 122 233 121
f 237 238 236
f 237 236 235
f 239 116 236
f 239 236 238
f 117 121 236
f 117 236 116
f 240 241 239
f 240 239 238
f 242 111 239
f 242 239 241
f 112 116 239
f 112 239 111
f 243 244 242
f 243 242 241
f 245 106 242
f 245 242 244
f 107 111 242
f 107 242 106
f 246 247 245
f 246 245 244
f 248 101 245
f 248 245 247
f 102 106 245
f 102 245 101
f 249 250 248
f 249 248 247
f 251 97 248
f 251 248 250
f 98 101 248
f 98 248 97
f 252 253 254
f 252 254 255
f 256 257 254
f 256 254 253
f 94 97 251
f 94 251 92
f 258 259 256
f 258 256 253
f 260 261 256
f 260 256 259
f 262 257 256
f 262 256 261
f 263 264 261
f 263 261 260
f 265 262 261
f 265 261 264
f 266 267 264
f 266 264 263
f 268 265 264
f 268 264 267
f 269 270 268
f 269 268 267
f 271 85 272
f 271 272 273
f 88 95 272
f 88 272 85
f 274 275 271
f 274 271 273
f 276 277 271
f 276 271 275
f 86 85 271
f 86 271 277
f 89 86 277
f 89 277 278
f 279 278 277
f 279 277 276
f 103 278 279
f 103 279 280
f 281 282 279
f 281 279 276
f 283 280 279
f 283 279 282
f 108 280 283
f 108 283 284
f 285 286 283
f 285 283 282
f 287 284 283
f 287 283 286
f 113 284 287
f 113 287 288
f 289 290 287
f 289 287 286
f 291 288 287
f 291 287 290
f 118 288 291
f 118 291 292
f 293 294 291
f 293 291 290
f 295 292 291
f 295 291 294
f 123 292 295
f 123 295 296
f 297 298 295
f 297 295 294
f 299 296 295
f 299 295 298
f 128 296 299
f 128 299 300
f 301 302 299
f 301 299 298
f 303 300 299
f 303 299 302
f 133 300 303
f 133 303 304
f 305 306 303
f 305 303 302
f 307 304 303
f 307 303 306
f 138 304 307
f 138 307 308
f 309 310 307
f 309 307 306
f 311 308 307
f 311 307 310
f 143 308 311
f 143 311 312
f 313 314 311
f 313 311 310
f 315 312 311
f 315 311 314
f 51 312 315
f 51 315 52
f 316 317 318
f 316 318 319
f 48 50 318
f 48 318 317
f 320 321 317
f 320 317 316
f 322 48 317
f 322 317 321
f 47 48 322
f 47 322 158
f 323 161 322
f 323 322 321
f 159 158 322
f 159 322 161
f 320 324 323
f 320 323 321
f 325 326 323
f 325 323 324
f 162 161 323
f 162 323 326
f 327 328 326
f 327 326 325
f 163 162 326
f 163 326 328
f 329 330 328
f 329 328 327
f 170 163 328
f 170 328 330
f 331 332 330
f 331 330 329
f 171 170 330
f 171 330 332
f 333 334 332
f 333 332 331
f 178 171 332
f 178 332 334
f 335 336 334
f 335 334 333
f 179 178 334
f 179 334 336
f 337 338 336
f 337 336 335
f 186 179 336
f 186 336 338
f 339 340 338
f 339 338 337
f 187 186 338
f 187 338 340
f 341 342 340
f 341 340 339
f 189 187 340
f 189 340 342
f 343 344 342
f 343 342 341
f 191 189 342
f 191 342 344
f 36 345 344
f 36 344 343
f 193 191 344
f 193 344 345
f 35 346 345
f 35 345 36
f 347 193 345
f 347 345 346
f 348 349 347
f 348 347 346
f 350 196 347
f 350 347 349
f 194 193 347
f 194 347 196
f 351 352 350
f 351 350 349
f 353 354 350
f 353 350 352
f 197 196 350
f 197 350 354
f 355 356 354
f 355 354 353
f 198 197 354
f 198 354 356
f 357 358 356
f 357 356 355
f 200 198 356
f 200 356 358
f 359 360 358
f 359 358 357
f 202 200 358
f 202 358 360
f 361 362 360
f 361 360 359
f 363 202 360
f 363 360 362
f 364 365 363
f 364 363 362
f 207 205 363
f 207 363 365
f 203 202 363
f 203 363 205
f 366 367 365
f 366 365 364
f 209 207 365
f 209 365 367
f 368 369 367
f 368 367 366
f 211 209 367
f 211 367 369
f 370 371 369
f 370 369 368
f 213 211 369
f 213 369 371
f 372 218 371
f 372 371 370
f 215 213 371
f 215 371 218
f 373 374 372
f 373 372 370
f 375 221 372
f 375 372 374
f 219 218 372
f 219 372 221
f 376 377 375
f 376 375 374
f 378 379 375
f 378 375 377
f 222 221 375
f 222 375 379
f 380 381 379
f 380 379 378
f 223 222 379
f 223 379 381
f 382 228 381
f 382 381 380
f 225 223 381
f 225 381 228
f 383 384 382
f 383 382 380
f 385 231 382
f 385 382 384
f 229 228 382
f 229 382 231
f 386 387 385
f 386 385 384
f 388 234 385
f 388 385 387
f 232 231 385
f 232 385 234
f 389 390 388
f 389 388 387
f 391 237 388
f 391 388 390
f 235 234 388
f 235 388 237
f 392 393 391
f 392 391 390
f 394 240 391
f 394 391 393
f 238 237 391
f 238 391 240
f 395 396 394
f 395 394 393
f 397 243 394
f 397 394 396
f 241 240 394
f 241 394 243
f 41 398 397
f 41 397 396
f 399 246 397
f 399 397 398
f 244 243 397
f 244 397 246
f 400 401 402
f 400 402 403
f 404 405 402
f 404 402 401
f 247 246 399
f 247 399 249
f 406 407 404
f 406 404 401
f 408 252 404
f 408 404 407
f 255 405 404
f 255 404 252
f 409 410 408
f 409 408 407
f 411 258 408
f 411 408 410
f 253 252 408
f 253 408 258
f 412 413 411
f 412 411 410
f 414 415 411
f 414 411 413
f 259 258 411
f 259 411 415
f 416 417 415
f 416 415 414
f 260 259 415
f 260 415 417
f 418 419 417
f 418 417 416
f 263 260 417
f 263 417 419
f 420 421 419
f 420 419 418
f 266 263 419
f 266 419 421
f 422 423 421
f 422 421 420
f 424 266 421
f 424 421 423
f 425 426 424
f 425 424 423
f 427 269 424
f 427 424 426
f 267 266 424
f 267 424 269
f 428 429 427
f 428 427 426
f 430 431 427
f 430 427 429
f 270 269 427
f 270 427 431
f 432 433 430
f 432 430 429
f 434 435 436
f 434 436 437
f 275 274 436
f 275 436 435
f 276 275 435
f 276 435 281
f 438 281 435
f 438 435 434
f 282 281 438
f 282 438 285
f 439 440 438
f 439 438 434
f 441 285 438
f 441 438 440
f 286 285 441
f 286 441 289
f 442 443 441
f 442 441 440
f 444 289 441
f 444 441 443
f 290 289 444
f 290 444 293
f 445 446 444
f 445 444 443
f 447 293 444
f 447 444 446
f 294 293 447
f 294 447 297
f 448 449 447
f 448 447 446
f 450 297 447
f 450 447 449
f 298 297 450
f 298 450 301
f 451 452 450
f 451 450 449
f 453 301 450
f 453 450 452
f 302 301 453
f 302 453 305
f 454 455 453
f 454 453 452
f 456 305 453
f 456 453 455
f 306 305 456
f 306 456 309
f 457 458 456
f 457 456 455
f 459 309 456
f 459 456 458
f 310 309 459
f 310 459 313
f 460 461 462
f 460 462 463
f 464 465 462
f 464 462 461
f 319 465 464
f 319 464 316
f 466 467 464
f 466 464 461
f 320 316 464
f 320 464 467
f 468 469 467
f 468 467 466
f 324 320 467
f 324 467 469
f 470 471 469
f 470 469 468
f 325 324 469
f 325 469 471
f 472 473 471
f 472 471 470
f 327 325 471
f 327 471 473
f 474 475 473
f 474 473 472
f 329 327 473
f 329 473 475
f 476 477 475
f 476 475 474
f 331 329 475
f 331 475 477
f 478 479 477
f 478 477 476
f 333 331 477
f 333 477 479
f 480 481 479
f 480 479 478
f 335 333 479
f 335 479 481
f 482 483 481
f 482 481 480
f 337 335 481
f 337 481 483
f 484 485 483
f 484 483 482
f 339 337 483
f 339 483 485
f 486 487 485
f 486 485 484
f 341 339 485
f 341 485 487
f 488 489 487
f 488 487 486
f 343 341 487
f 343 487 489
f 30 33 489
f 30 489 488
f 36 343 489
f 36 489 33
f 490 491 488
f 490 488 486
f 492 30 488
f 492 488 491
f 493 494 492
f 493 492 491
f 495 496 492
f 495 492 494
f 31 30 492
f 31 492 496
f 497 498 496
f 497 496 495
f 34 31 496
f 34 496 498
f 499 500 498
f 499 498 497
f 348 34 498
f 348 498 500
f 501 351 500
f 501 500 499
f 349 348 500
f 349 500 351
f 83 84 501
f 83 501 499
f 502 503 501
f 502 501 84
f 352 351 501
f 352 501 503
f 504 505 503
f 504 503 502
f 353 352 503
f 353 503 505
f 506 507 505
f 506 505 504
f 355 353 505
f 355 505 507
f 508 509 507
f 508 507 506
f 357 355 507
f 357 507 509
f 510 511 509
f 510 509 508
f 359 357 509
f 359 509 511
f 512 513 511
f 512 511 510
f 361 359 511
f 361 511 513
f 514 515 513
f 514 513 512
f 516 361 513
f 516 513 515
f 517 518 516
f 517 516 515
f 366 364 516
f 366 516 518
f 362 361 516
f 362 516 364
f 519 520 518
f 519 518 517
f 368 366 518
f 368 518 520
f 521 373 520
f 521 520 519
f 370 368 520
f 370 520 373
f 522 523 521
f 522 521 519
f 524 376 521
f 524 521 523
f 374 373 521
f 374 521 376
f 525 526 524
f 525 524 523
f 527 528 524
f 527 524 526
f 377 376 524
f 377 524 528
f 529 530 528
f 529 528 527
f 378 377 528
f 378 528 530
f 531 383 530
f 531 530 529
f 380 378 530
f 380 530 383
f 532 533 531
f 532 531 529
f 534 386 531
f 534 531 533
f 384 383 531
f 384 531 386
f 535 536 534
f 535 534 533
f 537 389 534
f 537 534 536
f 387 386 534
f 387 534 389
f 538 539 537
f 538 537 536
f 540 392 537
f 540 537 539
f 390 389 537
f 390 537 392
f 541 43 540
f 541 540 539
f 42 395 540
f 42 540 43
f 393 392 540
f 393 540 395
f 542 543 541
f 542 541 544
f 40 43 541
f 40 541 543
f 538 544 541
f 538 541 539
f 545 546 543
f 545 543 542
f 37 40 543
f 37 543 546
f 547 548 549
f 547 549 550
f 551 552 549
f 551 549 548
f 553 406 551
f 553 551 548
f 401 400 551
f 401 551 406
f 554 552 551
f 554 551 400
f 547 555 553
f 547 553 548
f 556 409 553
f 556 553 555
f 407 406 553
f 407 553 409
f 557 558 556
f 557 556 555
f 559 412 556
f 559 556 558
f 410 409 556
f 410 556 412
f 560 561 559
f 560 559 558
f 562 563 559
f 562 559 561
f 413 412 559
f 413 559 563
f 564 565 563
f 564 563 562
f 414 413 563
f 414 563 565
f 566 567 565
f 566 565 564
f 416 414 565
f 416 565 567
f 568 569 567
f 568 567 566
f 418 416 567
f 418 567 569
f 570 571 569
f 570 569 568
f 420 418 569
f 420 569 571
f 572 573 571
f 572 571 570
f 422 420 571
f 422 571 573
f 574 575 573
f 574 573 572
f 576 422 573
f 576 573 575
f 577 578 576
f 577 576 575
f 579 425 576
f 579 576 578
f 423 422 576
f 423 576 425
f 580 581 579
f 580 579 578
f 582 428 579
f 582 579 581
f 426 425 579
f 426 579 428
f 583 584 582
f 583 582 581
f 585 432 582
f 585 582 584
f 429 428 582
f 429 582 432
f 433 432 585
f 433 585 586
f 587 588 585
f 587 585 584
f 589 586 585
f 589 585 588
f 439 590 591
f 439 591 592
f 7 593 589
f 7 589 588
f 594 592 591
f 594 591 595
f 442 592 594
f 442 594 596
f 597 598 594
f 597 594 595
f 599 596 594
f 599 594 598
f 445 596 599
f 445 599 600
f 601 602 599
f 601 599 598
f 603 600 599
f 603 599 602
f 448 600 603
f 448 603 604
f 605 606 607
f 605 607 608
f 609 604 603
f 609 603 610
f 451 604 609
f 451 609 611
f 612 613 609
f 612 609 610
f 614 611 609
f 614 609 613
f 454 611 614
f 454 614 615
f 616 617 618
f 616 618 619
f 620 621 618
f 620 618 617
f 622 621 620
f 622 620 623
f 624 625 620
f 624 620 617
f 626 623 620
f 626 620 625
f 460 623 626
f 460 626 627
f 628 629 626
f 628 626 625
f 630 627 626
f 630 626 629
f 466 627 630
f 466 630 468
f 631 632 630
f 631 630 629
f 470 468 630
f 470 630 632
f 633 634 632
f 633 632 631
f 472 470 632
f 472 632 634
f 635 636 634
f 635 634 633
f 474 472 634
f 474 634 636
f 637 638 636
f 637 636 635
f 476 474 636
f 476 636 638
f 639 640 638
f 639 638 637
f 478 476 638
f 478 638 640
f 641 642 640
f 641 640 639
f 480 478 640
f 480 640 642
f 643 644 642
f 643 642 641
f 482 480 642
f 482 642 644
f 645 646 644
f 645 644 643
f 484 482 644
f 484 644 646
f 647 490 646
f 647 646 645
f 486 484 646
f 486 646 490
f 648 649 647
f 648 647 645
f 650 493 647
f 650 647 649
f 491 490 647
f 491 647 493
f 651 652 650
f 651 650 649
f 653 654 650
f 653 650 652
f 494 493 650
f 494 650 654
f 655 656 654
f 655 654 653
f 495 494 654
f 495 654 656
f 81 82 656
f 81 656 655
f 497 495 656
f 497 656 82
f 657 658 655
f 657 655 653
f 80 81 655
f 80 655 658
f 659 660 658
f 659 658 657
f 661 80 658
f 661 658 660
f 662 663 661
f 662 661 660
f 664 665 661
f 664 661 663
f 79 80 661
f 79 661 665
f 666 667 665
f 666 665 664
f 78 79 665
f 78 665 667
f 668 669 667
f 668 667 666
f 670 78 667
f 670 667 669
f 77 78 670
f 77 670 671
f 672 673 670
f 672 670 669
f 674 671 670
f 674 670 673
f 675 671 674
f 675 674 676
f 677 678 674
f 677 674 673
f 679 676 674
f 679 674 678
f 680 676 679
f 680 679 60
f 681 682 679
f 681 679 678
f 61 60 679
f 61 679 682
f 683 684 682
f 683 682 681
f 66 61 682
f 66 682 684
f 685 686 684
f 685 684 683
f 687 66 684
f 687 684 686
f 65 66 687
f 65 687 688
f 689 690 687
f 689 687 686
f 691 688 687
f 691 687 690
f 692 688 691
f 692 691 693
f 694 695 691
f 694 691 690
f 696 693 691
f 696 691 695
f 697 698 696
f 697 696 695
f 699 700 696
f 699 696 698
f 701 693 696
f 701 696 700
f 692 693 701
f 692 701 702
f 703 704 701
f 703 701 700
f 705 702 701
f 705 701 704
f 706 702 705
f 706 705 707
f 708 709 705
f 708 705 704
f 710 707 705
f 710 705 709
f 711 707 710
f 711 710 712
f 713 714 710
f 713 710 709
f 715 712 710
f 715 710 714
f 716 712 715
f 716 715 717
f 506 504 715
f 506 715 714
f 502 717 715
f 502 715 504
f 675 718 716
f 675 716 74
f 711 712 716
f 711 716 718
f 75 74 716
f 75 716 717
f 676 680 718
f 676 718 675
f 719 711 718
f 719 718 680
f 60 63 719
f 60 719 680
f 64 706 719
f 64 719 63
f 707 711 719
f 707 719 706
f 84 75 717
f 84 717 502
f 508 506 714
f 508 714 713
f 708 720 713
f 708 713 709
f 510 508 713
f 510 713 720
f 721 722 720
f 721 720 708
f 512 510 720
f 512 720 722
f 723 724 722
f 723 722 721
f 514 512 722
f 514 722 724
f 725 726 724
f 725 724 723
f 727 514 724
f 727 724 726
f 728 522 727
f 728 727 726
f 519 517 727
f 519 727 522
f 515 514 727
f 515 727 517
f 725 729 728
f 725 728 726
f 730 525 728
f 730 728 729
f 523 522 728
f 523 728 525
f 731 732 730
f 731 730 729
f 733 734 730
f 733 730 732
f 526 525 730
f 526 730 734
f 735 736 734
f 735 734 733
f 527 526 734
f 527 734 736
f 737 532 736
f 737 736 735
f 529 527 736
f 529 736 532
f 738 739 737
f 738 737 735
f 740 535 737
f 740 737 739
f 533 532 737
f 533 737 535
f 741 742 740
f 741 740 739
f 544 538 740
f 544 740 742
f 536 535 740
f 536 740 538
f 743 744 742
f 743 742 741
f 542 544 742
f 542 742 744
f 745 746 744
f 745 744 743
f 545 542 744
f 545 744 746
f 747 748 749
f 747 749 750
f 547 550 749
f 547 749 748
f 751 557 748
f 751 748 747
f 555 547 748
f 555 748 557
f 752 753 751
f 752 751 747
f 754 560 751
f 754 751 753
f 558 557 751
f 558 751 560
f 755 756 754
f 755 754 753
f 757 758 754
f 757 754 756
f 561 560 754
f 561 754 758
f 759 760 758
f 759 758 757
f 562 561 758
f 562 758 760
f 761 762 760
f 761 760 759
f 564 562 760
f 564 760 762
f 763 764 762
f 763 762 761
f 566 564 762
f 566 762 764
f 765 766 764
f 765 764 763
f 568 566 764
f 568 764 766
f 767 768 766
f 767 766 765
f 570 568 766
f 570 766 768
f 769 770 768
f 769 768 767
f 572 570 768
f 572 768 770
f 771 772 770
f 771 770 769
f 574 572 770
f 574 770 772
f 773 774 772
f 773 772 771
f 775 574 772
f 775 772 774
f 776 777 775
f 776 775 774
f 778 577 775
f 778 775 777
f 575 574 775
f 575 775 577
f 779 780 778
f 779 778 777
f 781 580 778
f 781 778 780
f 578 577 778
f 578 778 580
f 782 783 781
f 782 781 780
f 784 583 781
f 784 781 783
f 581 580 781
f 581 781 583
f 785 1 784
f 785 784 783
f 4 587 784
f 4 784 1
f 584 583 784
f 584 784 587
f 786 787 785
f 786 785 788
f 2 1 785
f 2 785 787
f 782 788 785
f 782 785 783
f 789 790 787
f 789 787 786
f 5 2 787
f 5 787 790
f 791 5 790
f 791 790 792
f 793 792 790
f 793 790 789
f 794 792 793
f 794 793 795
f 796 797 793
f 796 793 789
f 798 795 793
f 798 793 797
f 799 795 798
f 799 798 800
f 801 802 798
f 801 798 797
f 803 800 798
f 803 798 802
f 804 800 803
f 804 803 805
f 806 807 803
f 806 803 802
f 808 805 803
f 808 803 807
f 809 805 808
f 809 808 810
f 811 812 808
f 811 808 807
f 813 810 808
f 813 808 812
f 814 810 813
f 814 813 815
f 816 817 813
f 816 813 812
f 818 815 813
f 818 813 817
f 819 815 818
f 819 818 820
f 821 822 818
f 821 818 817
f 823 820 818
f 823 818 822
f 633 820 823
f 633 823 635
f 824 825 823
f 824 823 822
f 637 635 823
f 637 823 825
f 826 827 825
f 826 825 824
f 639 637 825
f 639 825 827
f 828 829 827
f 828 827 826
f 641 639 827
f 641 827 829
f 830 831 829
f 830 829 828
f 643 641 829
f 643 829 831
f 832 648 831
f 832 831 830
f 645 643 831
f 645 831 648
f 833 834 832
f 833 832 830
f 835 651 832
f 835 832 834
f 649 648 832
f 649 832 651
f 836 837 835
f 836 835 834
f 838 839 835
f 838 835 837
f 652 651 835
f 652 835 839
f 659 657 839
f 659 839 838
f 653 652 839
f 653 839 657
f 840 841 838
f 840 838 837
f 842 659 838
f 842 838 841
f 843 844 842
f 843 842 841
f 845 662 842
f 845 842 844
f 660 659 842
f 660 842 662
f 53 846 845
f 53 845 844
f 847 848 845
f 847 845 846
f 663 662 845
f 663 845 848
f 849 850 848
f 849 848 847
f 664 663 848
f 664 848 850
f 851 852 850
f 851 850 849
f 666 664 850
f 666 850 852
f 853 854 852
f 853 852 851
f 668 666 852
f 668 852 854
f 855 856 854
f 855 854 853
f 857 668 854
f 857 854 856
f 669 668 857
f 669 857 672
f 67 858 857
f 67 857 856
f 859 672 857
f 859 857 858
f 673 672 859
f 673 859 677
f 860 861 859
f 860 859 858
f 862 677 859
f 862 859 861
f 678 677 862
f 678 862 681
f 863 864 862
f 863 862 861
f 683 681 862
f 683 862 864
f 865 866 864
f 865 864 863
f 685 683 864
f 685 864 866
f 867 868 866
f 867 866 865
f 869 685 866
f 869 866 868
f 686 685 869
f 686 869 689
f 870 871 869
f 870 869 868
f 872 689 869
f 872 869 871
f 690 689 872
f 690 872 694
f 873 874 872
f 873 872 871
f 875 694 872
f 875 872 874
f 695 694 875
f 695 875 697
f 876 877 875
f 876 875 874
f 878 697 875
f 878 875 877
f 698 697 878
f 698 878 879
f 880 881 878
f 880 878 877
f 882 879 878
f 882 878 881
f 883 884 882
f 883 882 881
f 885 886 882
f 885 882 884
f 887 879 882
f 887 882 886
f 698 879 887
f 698 887 699
f 731 888 887
f 731 887 886
f 889 699 887
f 889 887 888
f 700 699 889
f 700 889 703
f 725 723 889
f 725 889 888
f 721 703 889
f 721 889 723
f 729 725 888
f 729 888 731
f 732 731 886
f 732 886 885
f 890 891 885
f 890 885 884
f 733 732 885
f 733 885 891
f 892 738 891
f 892 891 890
f 735 733 891
f 735 891 738
f 893 894 892
f 893 892 890
f 743 741 892
f 743 892 894
f 739 738 892
f 739 892 741
f 895 896 894
f 895 894 893
f 745 743 894
f 745 894 896
f 897 752 896
f 897 896 895
f 747 750 896
f 747 896 752
f 898 899 897
f 898 897 895
f 900 755 897
f 900 897 899
f 753 752 897
f 753 897 755
f 901 902 900
f 901 900 899
f 903 904 900
f 903 900 902
f 756 755 900
f 756 900 904
f 905 906 904
f 905 904 903
f 757 756 904
f 757 904 906
f 907 908 906
f 907 906 905
f 759 757 906
f 759 906 908
f 909 910 908
f 909 908 907
f 761 759 908
f 761 908 910
f 911 912 910
f 911 910 909
f 763 761 910
f 763 910 912
f 913 914 912
f 913 912 911
f 765 763 912
f 765 912 914
f 915 916 914
f 915 914 913
f 767 765 914
f 767 914 916
f 917 918 916
f 917 916 915
f 769 767 916
f 769 916 918
f 919 920 918
f 919 918 917
f 771 769 918
f 771 918 920
f 921 922 920
f 921 920 919
f 773 771 920
f 773 920 922
f 923 924 922
f 923 922 921
f 925 773 922
f 925 922 924
f 926 927 925
f 926 925 924
f 928 776 925
f 928 925 927
f 774 773 925
f 774 925 776
f 929 930 928
f 929 928 927
f 931 779 928
f 931 928 930
f 777 776 928
f 777 928 779
f 932 933 931
f 932 931 930
f 788 782 931
f 788 931 933
f 780 779 931
f 780 931 782
f 934 935 933
f 934 933 932
f 786 788 933
f 786 933 935
f 936 796 935
f 936 935 934
f 789 786 935
f 789 935 796
f 797 796 936
f 797 936 801
f 937 938 936
f 937 936 934
f 939 801 936
f 939 936 938
f 802 801 939
f 802 939 806
f 11 12 939
f 11 939 938
f 940 806 939
f 940 939 12
f 807 806 940
f 807 940 811
f 13 941 940
f 13 940 12
f 942 811 940
f 942 940 941
f 812 811 942
f 812 942 816
f 943 944 942
f 943 942 941
f 945 816 942
f 945 942 944
f 817 816 945
f 817 945 821
f 946 947 945
f 946 945 944
f 948 821 945
f 948 945 947
f 822 821 948
f 822 948 824
f 949 950 948
f 949 948 947
f 826 824 948
f 826 948 950
f 951 952 950
f 951 950 949
f 828 826 950
f 828 950 952
f 953 833 952
f 953 952 951
f 830 828 952
f 830 952 833
f 954 955 953
f 954 953 951
f 956 836 953
f 956 953 955
f 834 833 953
f 834 953 836
f 957 958 956
f 957 956 955
f 959 840 956
f 959 956 958
f 837 836 956
f 837 956 840
f 960 57 959
f 960 959 958
f 54 843 959
f 54 959 57
f 841 840 959
f 841 959 843
f 957 961 960
f 957 960 958
f 962 963 960
f 962 960 961
f 58 57 960
f 58 960 963
f 964 965 963
f 964 963 962
f 59 58 963
f 59 963 965
f 966 967 965
f 966 965 964
f 968 59 965
f 968 965 967
f 56 59 968
f 56 968 969
f 970 971 968
f 970 968 967
f 972 969 968
f 972 968 971
f 846 969 972
f 846 972 847
f 973 974 972
f 973 972 971
f 849 847 972
f 849 972 974
f 975 976 974
f 975 974 973
f 851 849 974
f 851 974 976
f 977 978 976
f 977 976 975
f 853 851 976
f 853 976 978
f 979 980 978
f 979 978 977
f 855 853 978
f 855 978 980
f 981 73 980
f 981 980 979
f 68 855 980
f 68 980 73
f 982 983 981
f 982 981 979
f 984 985 981
f 984 981 983
f 72 73 981
f 72 981 985
f 986 987 985
f 986 985 984
f 71 72 985
f 71 985 987
f 988 71 987
f 988 987 989
f 990 989 987
f 990 987 986
f 865 989 990
f 865 990 867
f 991 992 990
f 991 990 986
f 993 867 990
f 993 990 992
f 868 867 993
f 868 993 870
f 994 995 993
f 994 993 992
f 996 870 993
f 996 993 995
f 871 870 996
f 871 996 873
f 997 998 996
f 997 996 995
f 999 873 996
f 999 996 998
f 874 873 999
f 874 999 876
f 903 902 999
f 903 999 998
f 901 876 999
f 901 999 902
f 905 903 998
f 905 998 997
f 994 1000 997
f 994 997 995
f 907 905 997
f 907 997 1000
f 1001 1002 1000
f 1001 1000 994
f 909 907 1000
f 909 1000 1002
f 1003 1004 1002
f 1003 1002 1001
f 911 909 1002
f 911 1002 1004
f 1005 1006 1004
f 1005 1004 1003
f 913 911 1004
f 913 1004 1006
f 1007 1008 1006
f 1007 1006 1005
f 915 913 1006
f 915 1006 1008
f 1009 1010 1008
f 1009 1008 1007
f 917 915 1008
f 917 1008 1010
f 1011 1012 1010
f 1011 1010 1009
f 919 917 1010
f 919 1010 1012
f 1013 1014 1012
f 1013 1012 1011
f 921 919 1012
f 921 1012 1014
f 1015 1016 1014
f 1015 1014 1013
f 923 921 1014
f 923 1014 1016
f 1017 1018 1016
f 1017 1016 1015
f 1019 923 1016
f 1019 1016 1018
f 22 16 1019
f 22 1019 1018
f 15 926 1019
f 15 1019 16
f 924 923 1019
f 924 1019 926
f 1020 22 1018
f 1020 1018 1017
f 962 1021 1020
f 962 1020 964
f 21 22 1020
f 21 1020 1021
f 966 964 1020
f 966 1020 1017
f 961 1022 1021
f 961 1021 962
f 19 21 1021
f 19 1021 1022
f 1023 19 1022
f 1023 1022 1024
f 957 1024 1022
f 957 1022 961
f 946 1025 1023
f 946 1023 1026
f 20 19 1023
f 20 1023 1025
f 954 1026 1023
f 954 1023 1024
f 944 943 1025
f 944 1025 946
f 14 20 1025
f 14 1025 943
f 947 946 1026
f 947 1026 949
f 951 949 1026
f 951 1026 954
f 955 954 1024
f 955 1024 957
f 1027 966 1017
f 1027 1017 1015
f 967 966 1027
f 967 1027 970
f 1013 1028 1027
f 1013 1027 1015
f 1029 970 1027
f 1029 1027 1028
f 971 970 1029
f 971 1029 973
f 1030 1031 1029
f 1030 1029 1028
f 975 973 1029
f 975 1029 1031
f 1032 1033 1031
f 1032 1031 1030
f 977 975 1031
f 977 1031 1033
f 1034 982 1033
f 1034 1033 1032
f 979 977 1033
f 979 1033 982
f 1009 1007 1034
f 1009 1034 1032
f 1005 1035 1034
f 1005 1034 1007
f 983 982 1034
f 983 1034 1035
f 1003 1036 1035
f 1003 1035 1005
f 984 983 1035
f 984 1035 1036
f 1001 991 1036
f 1001 1036 1003
f 986 984 1036
f 986 1036 991
f 1011 1009 1032
f 1011 1032 1030
f 1013 1011 1030
f 1013 1030 1028
f 992 991 1001
f 992 1001 994
f 861 860 988
f 861 988 863
f 70 71 988
f 70 988 860
f 865 863 988
f 865 988 989
f 53 56 969
f 53 969 846
f 13 14 943
f 13 943 941
f 8 11 938
f 8 938 937
f 932 1037 937
f 932 937 934
f 18 8 937
f 18 937 1037
f 930 929 1037
f 930 1037 932
f 15 18 1037
f 15 1037 929
f 926 15 929
f 926 929 927
f 877 876 901
f 877 901 880
f 898 880 901
f 898 901 899
f 881 880 898
f 881 898 883
f 893 883 898
f 893 898 895
f 884 883 893
f 884 893 890
f 67 70 860
f 67 860 858
f 68 67 856
f 68 856 855
f 54 53 844
f 54 844 843
f 629 628 819
f 629 819 631
f 814 815 819
f 814 819 628
f 633 631 819
f 633 819 820
f 625 624 814
f 625 814 628
f 809 810 814
f 809 814 624
f 617 616 809
f 617 809 624
f 804 805 809
f 804 809 616
f 619 1038 804
f 619 804 616
f 799 800 804
f 799 804 1038
f 606 605 799
f 606 799 1038
f 794 795 799
f 794 799 605
f 608 1039 794
f 608 794 605
f 791 792 794
f 791 794 1039
f 598 597 1040
f 598 1040 601
f 6 5 791
f 6 791 1041
f 704 703 721
f 704 721 708
f 692 702 706
f 692 706 64
f 65 688 692
f 65 692 64
f 77 671 675
f 77 675 74
f 461 460 627
f 461 627 466
f 463 622 623
f 463 623 460
f 455 454 615
f 455 615 457
f 452 451 611
f 452 611 454
f 449 448 604
f 449 604 451
f 446 445 600
f 446 600 448
f 7 6 1041
f 7 1041 593
f 443 442 596
f 443 596 445
f 440 439 592
f 440 592 442
f 4 7 588
f 4 588 587
f 434 437 590
f 434 590 439
f 82 83 499
f 82 499 497
f 1042 554 400
f 1042 400 403
f 42 41 396
f 42 396 395
f 35 34 348
f 35 348 346
f 144 143 312
f 144 312 51
f 139 138 308
f 139 308 143
f 134 133 304
f 134 304 138
f 129 128 300
f 129 300 133
f 124 123 296
f 124 296 128
f 119 118 292
f 119 292 123
f 114 113 288
f 114 288 118
f 109 108 284
f 109 284 113
f 104 103 280
f 104 280 108
f 99 89 278
f 99 278 103
f 23 26 182
f 23 182 184
f 44 47 158
f 44 158 154
