v -0.002776131 0.002334625 0.01434737
v -0.002776131 0.009615511 -0.0143373
v -0.002776101 -0.003201753 -0.0143373
v 0.002716765 0.003203332 -0.01434743
v -0.001860097 0.009615451 -0.0143376
v -0.002742186 -0.008697778 0.002140164
v -0.002717942 -0.009615332 0.0140475
v -0.001801819 -0.009615511 0.01404542
v 0.002776146 -0.005952865 0.01403773
v 0.002723157 0.00320366 -0.01159859
v 0.002734601 -0.003202647 -0.006106079
v -0.001814321 -0.009615064 0.007633984
v 0.002775729 -0.003204733 0.01403815
v -2.709031e-05 -0.002287596 -0.01342583
v -0.001835242 -0.007782876 -0.002430975
v 0.002759814 -0.005951434 0.006708503
v -0.001802802 0.002286375 0.0140456
v -0.001856685 0.009614944 -0.01250297
f 1 2 3
f 2 4 3
f 4 2 5
f 6 1 3
f 6 7 1
f 8 9 1
f 7 8 1
f 10 4 5
f 11 10 9
f 10 11 4
f 6 12 7
f 12 8 7
f 8 12 9
f 9 13 1
f 10 13 9
f 4 14 3
f 11 14 4
f 15 12 6
f 15 14 11
f 15 6 3
f 14 15 3
f 16 11 9
f 12 16 9
f 16 15 11
f 15 16 12
f 13 17 1
f 18 10 5
f 18 13 10
f 18 17 13
f 17 18 1
f 18 2 1
f 2 18 5
