v 0.0387153 -0.04038858 -0.007505208
v 0.04149455 -0.03720385 -0.008548468
v 0.04389384 -0.03562769 -0.001486778
v 0.04568507 -0.02521104 0.000969559
v 0.04504327 -0.01802692 -0.002622187
v 0.01656671 -0.02993327 0.09770882
v 2.937764e-05 -0.03159291 0.09545988
v 0.01411281 -0.03478318 0.09145975
v -0.0333595 -0.02959961 0.08969027
v -0.009858869 -0.0340158 0.08961886
v -0.02961155 -0.02505931 0.100114
v 0.04648381 -0.03481799 0.006441921
v 0.04672779 -0.03306714 0.007045984
v 0.02952708 -0.0342671 0.01547259
v 0.02762744 -0.02125493 0.005544424
v 0.0340706 -0.03749529 0.001007825
v 0.02368622 -0.04029626 -0.001063168
v 0.03974166 -0.03616202 0.009999961
v 0.03520238 -0.03640985 0.004366279
v 0.02639112 -0.03628486 0.006215096
v 0.02911802 -0.03597364 0.01470524
v 0.03667978 0.04197043 -0.03814027
v 0.02442799 0.04054114 -0.02331483
v 0.02227423 0.045542 -0.03161097
v 0.03151093 0.04443759 -0.03447089
v 0.02240501 0.0459111 -0.03131148
v -0.004019275 -0.02302811 0.1052195
v -0.02862121 -0.02341598 0.1026264
v 0.04190338 0.03276387 -0.0006065965
v 0.04271696 0.03323188 -0.002014637
v 0.03226382 0.03474596 0.00309822
v 0.0492271 0.02842364 -0.004202098
v 0.04911815 0.02955219 -0.004869699
v 0.03723207 0.04261059 -0.03767124
v 0.0395722 0.03906411 -0.03782317
v 0.03530546 0.03573027 -0.01879343
v 0.04159558 0.03635249 -0.03062928
v 0.03250677 0.04023224 -0.02775103
v 0.04472142 0.03187802 -0.01931697
v 0.04120206 0.03274024 -0.0105857
v -0.007469647 -0.03922594 0.07418883
v -0.008903295 -0.03947225 0.06928974
v 0.002346985 -0.04214752 0.0618034
v 0.05445847 -0.02919814 0.09287339
v 0.03209551 -0.02894914 0.0972532
v 0.05460425 -0.02921575 0.09282649
v 0.02946084 0.03415275 -0.005542457
v 0.02731989 0.03543627 -0.01266479
v -0.01162127 -0.0358085 0.08462262
v 0.01154685 -0.03853637 0.08453894
v 0.007821254 -0.04182562 0.07381433
v 0.01657157 -0.04198402 0.07667601
v 0.05281748 -0.03382823 0.08860892
v 0.0470994 0.01687887 -0.007348299
v 0.04542841 0.001931399 -0.007922739
v 0.045862 0.006967515 -0.008170873
v 0.04315236 0.02623644 -0.003479034
v 0.02902865 0.01712298 -0.001720577
v -0.02874757 -0.03363997 0.07793176
v 0.03713426 -0.03508234 0.08975267
v 0.02669273 -0.03976932 0.08310252
v 0.04789576 -0.0428097 0.07585788
v 0.02161699 -0.02213866 0.1043629
v 0.02403069 -0.04280147 -0.004009634
v 0.02594575 -0.02999943 0.002912343
v 0.02270728 -0.04257286 -0.003447711
v 0.02821878 0.001038432 -0.002137125
v 0.02824768 0.009574205 -0.001881361
v 0.02732718 -0.005107164 -0.0003120899
v 0.0281867 -0.0149357 0.002074838
v 0.02770776 -0.02023864 0.005486697
v -0.01090888 0.03283024 -0.01830262
v -0.01302594 0.02896053 -0.01366565
v -0.003236957 0.03342497 -0.009610325
v 0.005995393 0.03547531 0.004441619
v -0.000520654 0.0339672 0.002979398
v -0.004711062 0.03656325 0.01422286
v -0.008722305 0.03142625 0.007240713
v -0.00998085 0.03428745 0.0150815
v 0.0308248 0.03442496 -0.001330346
v 0.0107597 0.03885564 0.01292434
v 0.0328278 0.03642154 0.004362315
v -0.0345973 0.00179708 -0.03029627
v -0.0347922 -0.008998036 -0.0297305
v -0.02780307 0.0007870197 -0.01562348
v 0.01005337 0.0360269 -0.009287834
v -0.001172014 0.03334048 -0.0008862913
v 0.0116929 0.03523985 -0.003825694
v 0.0007786006 0.04188085 0.02084059
v 0.0107718 0.04746202 0.02331662
v 0.006163999 0.03643253 -0.01188377
v -0.01755582 0.02240652 -0.007609487
v -0.02056083 0.01632553 -0.004542232
v -0.01742433 0.02168369 0.0001013875
v -0.008331008 0.06319293 -0.04951927
v -0.008752123 0.05069849 -0.03752694
v 0.0003950223 0.04783383 -0.03163406
v -0.0330021 0.01162812 -0.0305666
v -0.042154 0.02191621 -0.05064255
v 0.02096728 0.05120942 -0.03744519
v 0.01639729 0.04699525 -0.03034949
v 0.02464546 0.04003811 -0.02247748
v -0.01330891 0.02652872 -0.002509952
v -0.01666746 0.02346623 0.005573988
v 0.009100094 0.04585487 -0.02803296
v -0.004308924 0.04202026 -0.02637962
v -0.003761277 0.03735703 -0.01954404
v -0.01343399 0.04050419 0.02601972
v -0.00822515 0.03022283 -0.002004296
v -0.01657386 0.04319102 -0.03472596
v -0.01485441 0.02779663 0.01109803
v -0.02391398 0.04445171 -0.04104078
v -0.02038921 0.03236222 -0.02793741
v -0.01840877 0.02448946 -0.01568991
v -0.02235615 0.02373847 -0.02168995
v 0.01020534 0.03965354 -0.01850015
v 0.04104652 -0.04786682 0.05584967
v 0.01840017 -0.04512036 0.0586428
v 0.03721499 -0.04681873 0.04347789
v -0.02363971 0.01265949 -0.01200974
v -0.02278992 0.007354468 0.0009516776
v 0.0005784333 -0.01593852 0.1105345
v -0.02574921 -0.01694402 0.1097648
v 0.03925078 -0.04363823 0.07458007
v 0.02193888 -0.04436252 0.06953853
v 0.04486421 -0.04607588 0.06731546
v 0.0268192 0.03605199 -0.01439315
v -0.02658145 -0.004374981 -0.01093701
v -0.03058947 0.01971376 -0.03094792
v -0.0264034 0.01134753 -0.01791501
v 0.02073798 0.03492692 -0.001614183
v -0.02027149 0.0186123 0.01046497
v 0.03480516 0.0401803 0.009438723
v 0.02829467 0.03458759 -0.009340078
v -0.01493528 0.03503034 0.02157396
v -0.03652055 -0.03109726 0.08015937
v -0.03842021 -0.03089046 0.07434189
v -0.00552085 0.0485009 0.03046554
v -0.02590073 0.02753979 -0.03004834
v 0.01769619 0.06237417 -0.04948285
v 0.0122455 0.0659301 -0.05184352
v 0.0006073564 0.06511718 -0.04987341
v 0.03844243 -0.05584818 -0.028644
v 0.02756325 -0.05850917 -0.02449775
v 0.0326032 -0.05995589 -0.03182891
v 0.03195587 -0.05333251 -0.01872525
v 0.02982579 -0.0503917 -0.01380664
v 0.02445112 -0.05173367 -0.01313823
v 0.009872966 -0.06000343 -0.02266482
v 0.006726339 -0.06375232 -0.0315229
v 0.01676581 -0.06431258 -0.03341627
v -0.003966361 -0.0378052 -0.001735717
v -0.007942311 -0.04426464 -0.008190811
v 0.001571193 -0.05013165 -0.01043802
v -0.01344062 -0.04711309 -0.01397634
v -0.007288471 -0.05329627 -0.01761222
v 0.003246203 -0.05748007 -0.01944071
v 0.008540705 -0.05529052 -0.01538754
v -0.01333022 -0.04013056 -0.007636875
v 0.01800333 -0.05609706 -0.01701581
v 0.0244638 -0.06129482 -0.02859217
v 0.00495109 -0.0464291 -0.006264776
v -0.001604512 -0.06151646 -0.02922669
v 0.05003347 -0.04585397 -0.02631521
v 0.04682225 -0.04270849 -0.01820257
v 0.04090573 -0.0495674 -0.0205569
v 0.04608549 -0.05140787 -0.02999455
v 0.01737748 -0.06584612 -0.04103309
v 0.01267007 -0.04705808 -0.00637576
v 0.03851013 -0.04665399 -0.01496804
v 0.03381614 -0.04285598 -0.008437961
v 0.03130598 -0.0627411 -0.04101193
v 0.01889812 -0.02477926 -0.1112183
v 0.02139857 -0.03856689 -0.09338549
v 0.01352802 -0.0308468 -0.1055572
v 0.01592328 -0.01403189 -0.1240507
v 0.03066261 -0.05241632 -0.06914288
v 0.02674969 -0.06072319 -0.05826959
v 0.02531655 -0.0486331 -0.07782897
v 0.01692313 -0.04195765 -0.09027135
v -0.03477471 -0.02408487 -0.0779177
v -0.03055013 -0.03454205 -0.06244582
v -0.03583267 -0.02637613 -0.06275269
v 0.0287073 -0.03615606 -0.09267935
v -0.02136125 -0.05054781 -0.04052854
v -0.02313162 -0.04685864 -0.04933333
v -0.01585977 -0.055794 -0.04303554
v 0.02671767 -0.02976534 -0.1016513
v -0.04103234 -0.004401565 -0.1022638
v -0.04025559 -0.01086268 -0.09114817
v -0.04647287 0.002271533 -0.09504986
v -0.02297812 -0.04348648 -0.06187373
v -0.02765863 -0.03434539 -0.07364121
v -0.03608037 -0.01507747 -0.09487474
v 0.02973539 -0.02077252 -0.1097291
v -0.02877277 -0.02731937 -0.08686993
v 0.03594622 -0.05764431 -0.05670357
v 0.04048289 -0.04918325 -0.06497911
v 0.02689845 -0.009788692 -0.122806
v -0.03394458 -0.009754866 -0.1086837
v -0.02014496 -0.0421674 -0.07168442
v 0.03527966 -0.03242832 -0.0922085
v 0.03677224 -0.04144502 -0.07954243
v 0.04369552 -0.05238092 -0.05608597
v -0.01243241 -0.05319536 -0.05905446
v -0.02769995 -0.02243862 -0.09783202
v 0.04480703 -0.04114527 -0.07058156
v -0.02176575 -0.03260419 -0.08845595
v 0.04076241 -0.01928115 -0.1011236
v 0.03677851 -0.00396353 -0.1198965
v -0.0317082 -0.01941919 -0.02420118
v -0.02716993 -0.02416569 -0.01523548
v -0.04111235 6.198883e-06 -0.0447745
v -0.04178119 0.01273978 -0.04714203
v -0.02464381 -0.01400921 -0.1146343
v 0.04433177 -0.02715284 -0.08828008
v -0.01985927 -0.02743149 -0.09947965
v -0.04524719 0.01455733 -0.05626947
v -0.02784465 -0.03120822 -0.01930681
v -0.008323863 -0.05174601 -0.0675754
v -0.003234006 -0.06226662 -0.04899216
v -0.03741759 -0.01509017 -0.03867626
v -0.04178693 -0.006007612 -0.04913062
v 0.05107909 -0.04632246 -0.05243582
v -0.0122916 -0.03764495 -0.08986348
v -0.05056439 0.02342734 -0.07522345
v -0.0488977 0.02972931 -0.06998521
v 0.0411627 -0.000538975 -0.1178559
v -0.0004002601 -0.06200829 -0.0531446
v 0.04975535 -0.0285925 -0.0782961
v 0.04613462 -0.01185924 -0.1013438
v -0.04838373 0.0113132 -0.06856185
v -0.006113909 -0.04048198 -0.08944091
v -0.009320185 -0.03210908 -0.1004938
v 0.005743861 -0.06312618 -0.05469826
v 0.0003479719 -0.05112532 -0.0749495
v 0.05261999 -0.02935582 -0.07184869
v -0.03740124 -0.02005103 -0.04355472
v 0.05491182 -0.04280549 -0.04795334
v -0.01215555 -0.01672241 -0.1199471
v -0.03352527 -0.02800971 -0.03642035
v 0.05307354 -0.02091476 -0.08027828
v 0.04878578 -0.003556907 -0.1043376
v -0.04553572 -0.002368718 -0.06604189
v -0.02675861 -0.04156488 -0.02891779
v -0.001806229 -0.03906167 -0.09356108
v -0.04996194 0.01029396 -0.08708283
v 0.05725437 -0.0260748 -0.0639025
v 0.04856379 0.007134199 -0.1127229
v 0.01185486 -0.06217954 -0.05851424
v 0.05525304 0.04785219 0.08799535
v 0.06091978 0.04311109 0.09070235
v 0.05904098 0.05082703 0.08244085
v -0.03720549 -0.02361315 -0.05143481
v 0.05769415 -0.03835294 -0.04549393
v 0.05419922 -0.005552381 -0.09198451
v 0.04299372 0.02475429 0.1077023
v 0.01801537 0.02552864 0.11364
v 0.02551975 0.01777187 0.113791
v -0.04214879 -0.01267835 -0.06321955
v -0.007255465 -0.01706958 -0.1213927
v 0.007262751 -0.04964185 -0.07946667
v 0.003159508 -0.03671798 -0.09817991
v -0.01918589 0.03272003 0.1167513
v -0.01861382 0.02540952 0.1192938
v 0.003309444 0.03002486 0.1148524
v -0.04764933 0.002405971 -0.08172992
v -0.03202275 -0.03413075 -0.0465354
v 0.05767624 -0.002404511 -0.08495489
v 0.004112676 -0.02881354 -0.1088224
v -0.02459243 -0.04634643 -0.03356534
v 0.06083088 -0.02324679 -0.05223203
v 0.05977671 -0.01826242 -0.06351772
v -0.04090587 -0.01575419 -0.06905949
v -0.001475334 -0.01702344 -0.1226904
v 0.01259905 -0.04918295 -0.08043456
v 0.06052732 -0.03172305 -0.04118931
v 0.0538681 0.01560649 -0.1063911
v -0.03017457 -0.03721204 -0.0502013
v 0.02080163 -0.05738902 -0.06611705
v 0.0162838 -0.06391034 -0.05497932
v 0.06061871 -0.003232747 -0.07254088
v -0.04181887 -0.01125365 -0.08251837
v 0.06175815 -0.01261193 -0.05795735
v 0.05974887 0.008157074 -0.08263543
v 0.04617113 0.01825333 0.1084777
v 0.06246561 0.015753 0.1038848
v 0.05654666 0.02316707 -0.1002645
v 0.05421633 0.05976078 0.06454688
v 0.03065194 0.06153011 0.07071823
v 0.04635088 0.05906677 0.07189012
v 0.02197338 0.06292331 0.06580633
v 0.004590683 0.06190693 0.0757696
v 0.02504858 0.06074378 0.07578868
v -0.01918913 -0.0427267 -0.01468363
v -0.01758334 -0.05174068 -0.02523601
v 0.0251763 -0.06455895 -0.04076087
v 0.02319648 -0.06496185 -0.04746127
v 0.03508179 -0.06114116 -0.04680485
v 0.001780756 0.02000952 0.1178685
v -0.01318403 -0.05801412 -0.03593269
v -0.01863442 -0.05321878 -0.03250816
v -0.01347458 -0.0548448 -0.02537516
v 0.03041051 -0.06182373 -0.05281597
v 0.04548433 -0.05391917 -0.04920396
v -0.01123388 -0.05812624 -0.03053191
v -0.008408867 -0.06040978 -0.04614061
v 0.03993169 -0.05856147 -0.04006141
v -0.002810538 -0.06341213 -0.04005456
v 0.05162512 -0.04820794 -0.04656556
v 0.05594477 0.05766046 0.07062292
v 0.04902132 -0.05167988 -0.04060873
v 0.002823077 -0.06431055 -0.03536198
v 0.005396038 -0.06492779 -0.0485228
v 0.05619626 -0.04255208 -0.04039317
v -0.02548398 -0.03577361 -0.01753867
v -0.02277612 -0.03087312 -0.01044485
v 0.03846043 0.04939294 0.01814032
v 0.05013403 -0.04951099 -0.03434837
v 0.05538876 -0.0428533 -0.03367591
v 0.009679899 -0.06593001 -0.04519469
v -0.01707601 -0.02813685 -0.002152622
v -0.02415925 -0.04360834 -0.02387229
v 0.01796749 -0.06533164 -0.04968372
v 0.05647311 -0.03938973 -0.02965209
v 0.02251989 -0.06369722 -0.05365163
v 0.06193192 0.007180095 0.1048088
v -0.0314434 0.04574171 0.03970575
v 0.002449825 0.06008506 0.08284682
v 0.04809761 -0.0148949 -0.00504601
v 0.04350211 -0.0184164 -0.001855969
v 0.04074439 0.00517121 -0.006411612
v 0.04998018 -0.007882655 -0.007886231
v -0.02636652 0.05916241 0.08440822
v -0.02466271 0.05749899 0.09034365
v 0.01781449 0.06562543 -0.05340514
v 0.02353027 0.05257839 0.02580729
v -0.03540892 0.04876518 -0.0561232
v -0.04506722 0.03753194 -0.06391025
v 0.04541546 0.05502701 -0.06925523
v 0.05033968 0.05011681 -0.07477775
v 0.05574369 0.04061824 -0.08450574
v 0.03819103 0.05980393 -0.06331989
v 0.05688202 0.03641352 -0.08852157
v 0.02852523 0.06362849 -0.05766812
v 0.05728571 0.02763689 -0.09644723
v -0.0187116 0.0594323 -0.05047086
v -0.02306246 0.05729729 -0.05136913
v 0.04402006 0.05045897 -0.05912822
v 0.0407996 0.05711198 0.07939506
v 0.06194952 -0.004777789 -0.06218842
v 0.04254615 0.04687005 -0.05167156
v 0.03984332 0.03785902 -0.03713554
v 0.04362759 0.02804512 -0.03078991
v 0.03965612 0.02507222 -0.02344421
v 0.04696293 0.01309913 -0.01999977
v 0.06246592 -0.01339787 -0.04570216
v 0.06171536 -0.0266889 -0.03686643
v 0.05969462 0.02136081 -0.08085752
v 0.0616578 -0.02446291 -0.03129679
v 0.06228487 -0.001237839 -0.05698726
v 0.03175651 0.05509874 -0.04954299
v 0.0616058 -0.01871255 -0.02972016
v 0.03001965 0.03910413 -0.03009096
v 0.03242685 0.01764032 -0.0111742
v 0.06162399 0.0001572073 -0.04577765
v 0.02995251 0.02962077 -0.02065697
v 0.06063409 0.0165776 -0.06715393
v 0.05946366 0.02271736 -0.06747493
v 0.06030169 -0.008300006 -0.02962497
v 0.05976559 0.005420268 -0.04092038
v 0.04569282 0.008473605 0.1095754
v 0.05904604 -0.01125598 -0.02246988
v 0.02423621 0.0348579 -0.02218992
v 0.003624372 0.01104698 0.1182767
v 0.05630195 0.03629833 -0.07456261
v 0.05724286 0.02383557 -0.05484673
v -0.0297133 0.0461494 -0.04766628
v 0.02017122 0.05786818 0.08476442
v 0.05741163 0.01289523 -0.0406962
v -0.03536925 0.037536 -0.04794562
v -0.01873545 0.01993617 0.120405
v 0.05517885 0.005641997 -0.02693412
v -0.04079971 0.04584777 0.04508656
v -0.03754035 0.05194962 0.05141765
v 0.0529364 0.001422077 -0.0184516
v 0.05525775 0.02677751 -0.05179569
v -0.03858818 0.031804 -0.04902199
v 0.05219266 0.02069449 -0.03632239
v 0.04881352 0.03448349 -0.04621559
v -0.008582599 0.05357748 0.03851604
v 0.05109094 -0.002035379 -0.01238716
v 0.06032021 -0.02144217 -0.02413547
v 0.0590332 -0.02777585 -0.02338362
v 0.05714302 -0.01364395 -0.01682866
v 0.05229095 -0.03241754 -0.01523221
v 0.05619963 -0.02506691 -0.01645386
v 0.04860084 -0.02871054 -0.00930804
v 0.05286561 -0.0143888 -0.01010951
v 0.05924891 -0.0339202 -0.03031158
v 0.05606161 -0.03438815 -0.0222894
v 0.05669785 -0.02045879 -0.0159336
v 0.05199234 -0.02165875 -0.009846747
v 0.0600387 -0.03376558 -0.03503996
v 0.01258226 0.05531546 0.03324908
v -0.005735978 0.05583462 0.09352458
v 0.02182685 0.007993609 0.1151008
v 0.04021963 0.05286598 0.02261788
v 0.04256806 -0.02545476 -0.003310293
v 0.04760171 -0.03663263 -0.0134393
v 0.03669317 -0.03809553 -0.006412625
v 0.03477742 -0.02690566 0.0004143715
v -0.02747308 0.002256304 0.01300883
v -0.02399951 0.003805935 0.006706715
v -0.02518411 -0.008232445 0.008102626
v -0.02457326 0.009371936 0.0114966
v -0.0208903 0.02432087 0.01747754
v -0.01060285 -0.03476048 0.03319392
v 0.007046737 -0.04032317 0.03902376
v -0.004017688 -0.03888473 0.04274344
v -0.02192513 -0.0178003 0.005669475
v -0.02692164 -0.01712719 0.01485637
v -0.02418101 -0.02132919 0.01498628
v -0.04234257 -0.02311957 0.03994024
v -0.03397791 -0.02562708 0.03234929
v -0.0562998 -0.006567121 0.0473727
v -0.04945017 -0.0163244 0.0424757
v -0.05297413 -0.01791251 0.05508828
v -0.02017328 -0.02190799 0.008377343
v -0.01691046 -0.02553406 0.01063415
v -0.0215702 -0.02559182 0.01860681
v -0.04434287 -0.01835585 0.03613633
v 0.04708754 0.004383147 0.1090728
v 0.06114931 -0.0001629591 0.1045803
v -0.04949485 0.02470955 0.03718966
v -0.03370086 0.003324419 0.01995474
v -0.04838752 0.009624481 0.03273866
v -0.01391689 -0.02773222 0.01467875
v -0.02251051 0.05387384 0.09803629
v -0.03043529 0.009829998 0.0187875
v -0.05737535 -0.01022926 0.0560258
v -0.0493397 0.002049804 0.03335214
v -0.03032467 -0.004127115 0.01565582
v -0.04996679 -0.003862917 0.03498662
v 0.005843163 -0.03207225 0.01403004
v -0.005278923 -0.03073305 0.01899949
v -0.02969934 -0.03174418 0.04429579
v -0.0300127 -0.03001532 0.03794205
v -0.02075508 -0.03183612 0.03301987
v -0.06163944 0.00212574 0.06098497
v -0.024156 0.03257734 0.02584773
v -0.05223839 0.01503083 0.03715569
v -0.01339176 -0.03837061 0.06192535
v -0.01988102 0.03805313 0.02737582
v -0.01895291 -0.03525871 0.04381531
v 0.02176657 -0.03717041 0.02349663
v 0.0290729 -0.03601429 0.01458284
v 0.0347067 -0.04419616 0.0347898
v -0.06240418 0.009560078 0.06147605
v -0.06060073 0.007968485 0.05193055
v -0.04924176 -0.01212752 0.03796434
v -0.04081036 -0.01622516 0.02964276
v 0.01537117 -0.04412639 0.05091238
v -0.001380667 -0.04063916 0.05104822
v 0.02501042 0.05410367 0.09021544
v -0.03577738 -0.02875757 0.04313743
v -0.05621827 -0.01544032 0.06627727
v -0.0359729 0.01548269 0.0250656
v -0.0422361 -0.02708513 0.0523293
v -0.03742918 -0.03023112 0.05749571
v -0.04357549 -0.0284797 0.07291281
v -0.06005609 -0.005999744 0.06479317
v -0.05585031 0.009344339 0.04100883
v 0.01893243 0.05691606 0.03429762
v -0.02388424 -0.0347954 0.05237663
v -0.04907537 -0.02303413 0.05790675
v -0.0530724 -0.02016971 0.0721969
v -0.032702 0.02421576 0.02640265
v -0.0549784 -0.001079589 0.04126614
v -0.02436458 -0.02281374 -0.009818912
v -0.02380127 -0.0128468 -0.004767239
v -0.05618464 0.02421629 0.0448879
v 0.01495478 -0.03850216 0.0018121
v 0.002522729 0.05401278 0.09540057
v 0.02545172 -0.03729776 0.003578365
v -0.00502599 -0.03246987 0.003902823
v -0.01280418 -0.03188252 -0.001324475
v -0.02073296 -0.02165812 -0.002015233
v -0.01954044 0.009924203 0.1207942
v -0.02254647 0.009532452 0.006025791
v -0.0231279 -0.01185155 0.00188309
v 0.006042786 -0.03277585 0.009133548
v -0.0493449 -0.02395737 0.07600105
v -0.05987458 0.0200386 0.0514226
v -0.04386733 0.0342876 0.037516
v -0.01277331 -0.02921855 0.002506196
v 0.02744253 -0.0356513 0.009340703
v -0.05892798 0.01158813 0.04677844
v -0.01720806 -0.02563056 0.001335919
v -0.01244198 -0.02787238 0.01041567
v 0.03662021 0.04972318 0.09262365
v -0.002425872 0.05820599 0.04462743
v 0.01673457 0.004475594 0.1157687
v -0.008411303 0.05319023 0.09814155
v -0.02973438 0.05551952 0.05333197
v 0.04774964 -0.005337179 0.1073202
v 0.04882927 0.06151366 0.04706907
v 0.04418658 0.05848762 0.03338322
v 0.05017892 0.06165224 0.05127096
v -0.002987638 0.002821803 0.1183152
v 0.06210694 0.03391925 0.09722769
v 0.06244971 0.0285269 0.09995002
v 0.05888672 -0.01365042 0.1015644
v 0.05628903 -0.02401227 0.09654427
v 0.05460498 -0.02921334 0.09282857
v -0.03544806 -0.01724222 0.1065208
v -0.03879049 -0.02311984 0.09779507
v -0.04091825 -0.01506478 0.1046541
v -0.04582231 -0.01967737 0.09463179
v -0.04739799 -0.01616552 0.09644932
v -0.05076148 -0.0184043 0.08744371
v -0.04232006 -0.02818859 0.08198142
v -0.04633164 -0.02450365 0.08492273
v -0.05721521 -0.0119139 0.07686305
v -0.05313024 -0.0125773 0.08959222
v -0.04086167 -0.02524847 0.09228748
v -0.02455129 -0.01170474 0.1136969
v -0.03763667 -0.008679628 0.1111838
v -0.04544168 -0.00918299 0.1043546
v -0.0301607 -0.006592542 0.115465
v -0.04650001 0.02007741 0.1078019
v -0.04315724 0.01124394 0.1119972
v -0.0399232 0.02293736 0.1133291
v -0.05696735 0.03547373 0.07696831
v -0.05683786 0.02945828 0.08643264
v -0.05447344 0.03667006 0.08470094
v -0.04508669 0.03050381 0.1056826
v -0.04991597 0.0342581 0.09694523
v -0.05008169 0.04603645 0.08056939
v -0.05124067 0.008394927 0.1028405
v -0.05599888 0.005445361 0.09462631
v -0.05404355 0.01703286 0.09827524
v -0.04895197 0.04253116 0.09007955
v -0.04258451 0.04315647 0.09945798
v -0.05855357 0.01648396 0.0891372
v -0.05458706 0.02459896 0.09487855
v -0.05794903 0.03359669 0.05954939
v -0.05784554 0.03513753 0.07017136
v -0.05484626 0.03930843 0.0573259
v -0.04309631 0.04962566 0.09023213
v -0.05025931 0.04755005 0.0634684
v -0.06143402 0.02384001 0.06542784
v -0.04620633 0.001368374 0.1077452
v -0.05197983 0.04523304 0.07390827
v -0.05012019 0.04819149 0.06950861
v -0.06145387 0.01981977 0.0768066
v -0.04054394 0.03517148 0.1077846
v 0.01692379 0.04923981 0.09867722
v -0.04413195 0.04011422 0.04177535
v -0.06020259 -0.005577266 0.07034874
v -0.06142595 0.007243454 0.07945877
v -0.06243382 0.005824864 0.06999433
v -0.06012245 -0.002564847 0.0781523
v -0.05321332 -0.001705557 0.09727621
v 0.02961771 0.06110683 0.04301113
v -0.06246601 0.01092818 0.07337147
v -0.06217867 0.01965338 0.06896532
v 0.01048397 -0.000418067 0.1159255
v -0.05680628 -0.004840016 0.08790994
v -0.05961734 0.02718452 0.05663037
v -0.05892248 0.009417653 0.08863062
v -0.05945618 0.00387162 0.08567739
v 0.004975155 0.06016049 0.04674023
v -0.05321432 0.03384456 0.04631364
v -0.0550135 0.03524232 0.05113876
v -0.05188863 0.04183346 0.05342937
v -0.05085168 0.03261697 0.04228467
v -0.04664113 0.04446936 0.04869634
v -0.01019271 0.06005478 0.05377442
v -0.02452137 0.009437323 0.1206453
v -0.028337 0.02376682 0.1188785
v -0.03101199 0.01313853 0.1193745
v -0.0332108 0.05704501 0.08679885
v -0.03967165 0.05534235 0.08232194
v -0.03630398 0.004883707 0.1164625
v -0.03666402 0.01708871 0.116595
v -0.03685632 0.05776823 0.07652783
v -0.03094358 0.05952841 0.07794964
v -0.03467325 0.02563107 0.1160042
v -0.04352739 0.05272594 0.08201629
v -0.0322598 0.05879259 0.06592482
v -0.02463378 0.03387967 0.1160326
v -0.03946008 0.05658317 0.0684008
v -0.04484135 0.05322054 0.06837249
v -0.03432887 0.05730507 0.0616051
v -0.0247748 0.04153052 0.1113988
v -0.03250109 0.03321871 0.1141366
v -0.0194639 0.04186463 0.1113253
v -0.04115041 0.05265075 0.0562169
v -0.02029951 0.0459221 0.1079266
v -0.03311586 0.04135105 0.1088684
v -0.0461814 0.05064258 0.0600391
v 0.01966071 -0.005864739 0.1130247
v -0.03032314 0.04826564 0.1037865
v -0.02203262 -0.00219813 0.1183463
v -0.03414414 -0.0002518594 0.1163638
v -0.04049915 -0.004044294 0.1113758
v -0.03902106 0.04225919 0.1040561
v 0.000472568 0.04776183 0.1035276
v -0.03018052 0.0006341338 0.1180518
v 0.04286768 -0.01139051 0.1065417
v -0.03365076 0.05195698 0.09712631
v -0.02740474 0.05589074 0.09345764
v 0.03073378 0.04405311 0.1002226
v 0.00546287 0.06303138 0.06450194
v -0.004406005 -0.004230678 0.1165829
v 0.0422993 0.06228149 0.0569998
v -0.0009321272 0.03478858 0.1133872
v 0.02504513 0.03458336 0.1082786
v -0.01287493 0.06189001 0.06993878
v 0.05362236 0.02928185 0.1026672
v 0.0433891 -0.02362275 0.09975559
v 0.02697511 -0.01858398 0.1060201
v 0.02267997 0.06310648 0.05645537
v 0.02186811 0.03770417 0.1072366
v -0.005525611 -0.00932321 0.1145875
v 0.04226352 0.03688696 0.1021917
v 0.009820722 -0.01142347 0.1122006
v 0.04448585 -0.01926294 0.1023587
v 0.004783869 0.04388705 0.1063593
v 0.003296413 0.06250748 0.05794382
v -0.01901507 0.06058353 0.0625183
v 0.01689763 0.06213185 0.05002576
f 1 2 3
f 4 2 5
f 4 3 2
f 6 7 8
f 9 10 11
f 12 3 4
f 13 12 4
f 13 4 14
f 4 5 15
f 4 15 14
f 1 16 17
f 12 18 19
f 16 19 20
f 16 20 17
f 19 18 21
f 19 21 20
f 16 3 19
f 1 3 16
f 3 12 19
f 14 21 13
f 13 18 12
f 18 13 21
f 2 1 17
f 22 23 24
f 25 26 23
f 27 28 7
f 29 30 31
f 29 32 33
f 29 33 30
f 34 35 22
f 36 37 38
f 37 35 34
f 39 36 40
f 41 42 43
f 30 33 40
f 37 34 38
f 44 45 46
f 39 37 36
f 38 25 23
f 30 47 31
f 47 30 40
f 40 36 47
f 36 23 48
f 36 48 47
f 36 38 23
f 10 49 50
f 40 33 39
f 34 25 38
f 50 51 52
f 37 39 35
f 46 45 53
f 39 33 35
f 33 54 35
f 33 32 54
f 35 54 55
f 54 56 55
f 57 32 29
f 54 32 57
f 31 57 29
f 57 31 58
f 54 57 58
f 55 56 58
f 41 59 42
f 56 54 58
f 25 22 26
f 60 61 62
f 63 6 45
f 22 24 26
f 34 22 25
f 64 65 66
f 67 68 69
f 70 67 69
f 71 70 69
f 72 73 74
f 75 76 77
f 76 78 79
f 80 81 82
f 83 84 85
f 86 87 88
f 27 6 63
f 89 90 82
f 86 91 87
f 92 93 94
f 95 96 97
f 98 99 83
f 81 77 89
f 100 101 102
f 10 9 49
f 60 8 61
f 103 94 104
f 101 97 105
f 97 96 106
f 97 106 107
f 76 79 77
f 89 77 108
f 103 104 109
f 97 107 105
f 96 110 106
f 101 105 102
f 50 49 51
f 88 87 76
f 78 109 111
f 112 113 110
f 114 115 92
f 78 111 79
f 106 110 72
f 105 107 116
f 117 118 119
f 88 76 75
f 120 85 121
f 109 104 111
f 102 105 116
f 122 123 27
f 124 125 126
f 106 72 107
f 102 116 127
f 120 121 93
f 85 84 128
f 129 85 130
f 129 98 85
f 77 79 108
f 131 75 80
f 114 92 73
f 52 125 124
f 93 132 94
f 91 109 87
f 91 74 109
f 73 109 74
f 94 132 104
f 85 128 121
f 8 50 61
f 80 75 81
f 110 113 72
f 127 116 86
f 52 51 125
f 133 82 90
f 134 127 88
f 111 135 79
f 136 137 59
f 109 73 103
f 104 132 111
f 7 10 8
f 79 135 108
f 90 89 138
f 115 130 120
f 115 120 92
f 113 139 115
f 98 83 85
f 116 107 74
f 116 74 91
f 113 115 114
f 116 91 86
f 87 78 76
f 72 113 73
f 127 86 88
f 82 81 89
f 139 129 115
f 28 11 7
f 134 88 75
f 134 131 80
f 73 92 94
f 73 94 103
f 113 114 73
f 134 75 131
f 92 120 93
f 130 85 120
f 100 140 141
f 107 72 74
f 75 77 81
f 87 109 78
f 142 101 141
f 142 97 101
f 115 129 130
f 125 117 126
f 141 101 100
f 143 144 145
f 146 147 148
f 149 150 151
f 152 153 154
f 8 10 50
f 153 155 156
f 154 157 158
f 153 159 155
f 59 137 42
f 148 144 146
f 64 66 148
f 160 149 161
f 160 162 158
f 144 161 145
f 148 66 160
f 157 163 150
f 158 157 149
f 157 156 163
f 164 165 166
f 160 158 149
f 62 124 126
f 164 166 167
f 161 151 168
f 7 11 10
f 162 169 152
f 148 160 144
f 153 152 159
f 66 169 160
f 166 143 167
f 157 154 156
f 162 154 158
f 161 149 151
f 45 60 53
f 170 171 147
f 166 170 146
f 149 157 150
f 160 161 144
f 153 156 154
f 162 152 154
f 170 147 146
f 166 146 143
f 145 161 172
f 146 144 143
f 147 64 148
f 169 162 160
f 173 174 175
f 173 175 176
f 49 41 51
f 62 61 124
f 51 41 125
f 177 178 179
f 179 180 174
f 181 182 183
f 45 6 60
f 184 179 174
f 185 186 187
f 188 174 173
f 189 190 191
f 184 174 188
f 192 186 193
f 193 186 182
f 192 187 186
f 194 181 190
f 193 182 181
f 194 190 189
f 61 52 124
f 6 8 60
f 125 118 117
f 184 177 179
f 193 181 194
f 195 188 173
f 196 193 194
f 136 59 9
f 9 59 49
f 197 177 198
f 61 50 52
f 199 173 176
f 200 194 189
f 200 196 194
f 201 187 192
f 202 184 188
f 195 173 199
f 203 177 184
f 53 60 62
f 195 202 188
f 123 28 27
f 201 192 193
f 125 41 118
f 198 177 203
f 201 193 196
f 202 203 184
f 204 197 198
f 205 187 201
f 206 196 200
f 207 198 203
f 208 201 196
f 208 196 206
f 209 195 199
f 209 202 195
f 207 203 202
f 210 209 199
f 205 201 208
f 49 59 41
f 204 198 207
f 211 212 84
f 27 7 6
f 41 43 118
f 213 84 214
f 215 206 200
f 216 207 202
f 217 206 215
f 213 214 218
f 217 208 206
f 211 84 213
f 212 211 219
f 220 205 208
f 216 202 209
f 220 221 205
f 222 211 213
f 223 213 218
f 224 204 207
f 225 220 208
f 225 208 217
f 226 218 227
f 219 211 222
f 223 222 213
f 228 209 210
f 229 221 220
f 224 207 230
f 231 216 209
f 232 218 226
f 230 207 216
f 223 218 232
f 231 209 228
f 233 220 225
f 234 225 217
f 235 229 220
f 230 216 231
f 236 220 233
f 233 225 234
f 237 224 230
f 235 220 236
f 238 219 222
f 238 222 223
f 234 217 215
f 239 224 237
f 240 234 215
f 241 219 238
f 242 237 230
f 243 231 228
f 244 223 232
f 242 230 231
f 243 242 231
f 219 241 245
f 236 233 246
f 247 232 226
f 238 223 244
f 248 239 237
f 246 233 234
f 249 243 228
f 235 236 250
f 244 232 247
f 251 252 253
f 254 238 244
f 255 239 248
f 256 242 243
f 257 258 259
f 254 244 260
f 254 241 238
f 261 234 240
f 262 236 246
f 248 237 242
f 263 246 234
f 264 265 266
f 262 246 263
f 250 236 262
f 267 244 247
f 268 245 241
f 261 263 234
f 256 243 249
f 268 241 254
f 269 248 242
f 269 242 256
f 270 263 261
f 267 260 244
f 271 245 268
f 272 255 248
f 273 248 269
f 274 260 267
f 270 261 275
f 274 254 260
f 276 250 262
f 277 255 272
f 276 262 263
f 278 269 256
f 278 256 249
f 272 248 273
f 268 254 183
f 183 254 274
f 191 267 247
f 175 276 263
f 271 268 279
f 280 281 250
f 274 267 191
f 280 250 276
f 175 263 270
f 282 273 269
f 279 268 183
f 283 274 191
f 284 272 273
f 280 276 180
f 281 280 178
f 285 269 278
f 182 279 183
f 257 286 287
f 288 285 278
f 175 270 275
f 285 282 269
f 183 274 283
f 180 276 175
f 289 290 291
f 185 271 279
f 178 280 179
f 179 280 180
f 292 293 294
f 292 294 290
f 176 175 275
f 174 180 175
f 186 279 182
f 186 185 279
f 190 283 191
f 181 183 283
f 181 283 190
f 295 296 155
f 168 297 161
f 298 299 297
f 266 300 258
f 185 301 302
f 296 302 303
f 185 187 301
f 297 299 172
f 197 299 304
f 297 172 161
f 296 303 155
f 155 303 156
f 204 305 197
f 302 301 303
f 301 306 303
f 197 305 299
f 187 205 307
f 303 306 163
f 187 307 301
f 303 163 156
f 258 300 259
f 257 259 286
f 290 294 291
f 299 308 172
f 299 305 308
f 301 309 306
f 205 221 307
f 204 310 305
f 172 308 145
f 301 307 309
f 289 291 311
f 204 224 310
f 305 312 308
f 224 239 310
f 310 312 305
f 306 309 163
f 307 221 309
f 309 313 163
f 229 314 221
f 265 300 266
f 239 255 315
f 239 315 310
f 145 308 143
f 229 235 314
f 310 315 312
f 212 316 317
f 133 90 318
f 312 319 308
f 219 316 212
f 312 315 320
f 163 313 150
f 221 314 309
f 308 319 167
f 308 167 143
f 312 320 319
f 314 321 309
f 159 322 317
f 255 277 315
f 235 250 314
f 317 316 159
f 250 281 314
f 309 321 313
f 316 295 159
f 219 323 316
f 314 324 321
f 219 245 323
f 315 325 320
f 319 164 167
f 314 281 324
f 313 151 150
f 316 323 295
f 321 324 168
f 320 164 319
f 321 168 313
f 320 325 164
f 281 178 326
f 281 326 324
f 245 271 323
f 313 168 151
f 159 295 155
f 178 304 326
f 324 326 298
f 271 296 323
f 287 286 327
f 324 298 168
f 178 197 304
f 271 302 296
f 298 297 168
f 178 177 197
f 323 296 295
f 326 304 298
f 89 328 138
f 293 329 294
f 271 185 302
f 304 299 298
f 330 70 331
f 332 67 333
f 334 335 293
f 333 70 330
f 67 70 333
f 68 67 332
f 70 71 331
f 228 336 249
f 249 336 278
f 240 336 261
f 261 336 275
f 275 336 176
f 176 336 199
f 199 336 210
f 210 336 228
f 142 141 336
f 189 336 200
f 200 336 215
f 215 336 240
f 247 336 191
f 191 336 189
f 227 336 226
f 90 337 318
f 226 336 247
f 338 336 339
f 293 335 329
f 339 336 227
f 340 341 336
f 336 341 342
f 343 340 336
f 336 342 344
f 345 343 336
f 336 344 346
f 347 336 348
f 348 336 338
f 336 346 288
f 95 336 347
f 336 288 278
f 142 336 95
f 343 349 340
f 291 294 350
f 351 284 282
f 352 349 343
f 291 350 311
f 351 282 285
f 353 354 352
f 346 285 288
f 355 356 354
f 355 332 356
f 357 358 284
f 357 284 351
f 359 351 285
f 353 352 343
f 360 358 357
f 361 357 351
f 353 355 354
f 361 351 359
f 359 285 346
f 362 353 343
f 363 360 357
f 362 343 345
f 364 353 362
f 364 355 353
f 365 332 355
f 366 357 361
f 367 355 364
f 368 361 359
f 367 365 355
f 366 361 368
f 366 363 357
f 332 365 68
f 100 364 362
f 100 362 345
f 344 359 346
f 336 100 345
f 369 368 359
f 369 359 344
f 370 363 366
f 371 368 369
f 286 259 372
f 373 363 370
f 374 365 367
f 371 366 368
f 374 367 364
f 300 375 259
f 374 364 100
f 371 370 366
f 68 365 374
f 369 344 342
f 90 138 337
f 100 336 140
f 376 369 342
f 141 140 336
f 97 142 95
f 371 369 377
f 96 95 347
f 96 347 110
f 373 370 371
f 348 110 347
f 286 372 327
f 112 110 348
f 377 369 376
f 378 112 348
f 329 379 294
f 139 113 112
f 139 112 378
f 338 378 348
f 380 371 377
f 381 139 378
f 341 376 342
f 338 381 378
f 139 381 129
f 265 382 300
f 383 371 380
f 373 371 383
f 384 385 328
f 386 373 383
f 377 376 341
f 387 380 377
f 388 129 381
f 388 381 338
f 388 338 339
f 387 377 341
f 388 98 129
f 99 98 388
f 294 379 350
f 389 383 380
f 99 388 339
f 389 380 387
f 214 83 99
f 390 389 387
f 227 99 339
f 328 391 138
f 340 387 341
f 218 214 99
f 84 83 214
f 218 99 227
f 390 387 340
f 389 386 383
f 392 386 389
f 349 390 340
f 356 392 389
f 284 273 282
f 358 277 272
f 354 356 389
f 354 389 390
f 352 390 349
f 332 392 356
f 358 272 284
f 354 390 352
f 360 393 394
f 386 392 395
f 396 397 398
f 395 333 399
f 400 394 401
f 395 392 333
f 402 403 397
f 363 373 393
f 397 403 398
f 402 399 330
f 402 330 403
f 394 393 397
f 373 395 393
f 392 332 333
f 404 315 277
f 398 403 331
f 277 358 404
f 394 397 401
f 399 333 330
f 315 404 325
f 393 395 402
f 337 138 405
f 401 397 396
f 358 360 404
f 393 402 397
f 325 404 400
f 403 330 331
f 300 382 375
f 329 335 406
f 259 407 372
f 318 337 408
f 404 360 400
f 325 401 164
f 360 394 400
f 400 401 325
f 373 386 395
f 363 393 360
f 395 399 402
f 331 409 398
f 171 64 147
f 329 406 379
f 409 331 71
f 410 411 170
f 410 170 165
f 409 71 412
f 412 65 411
f 398 410 396
f 165 170 166
f 138 391 405
f 410 401 396
f 410 165 401
f 71 65 412
f 401 165 164
f 409 412 398
f 411 65 64
f 411 171 170
f 411 64 171
f 259 375 407
f 398 411 410
f 398 412 411
f 413 414 415
f 132 416 417
f 416 414 413
f 418 419 420
f 415 421 422
f 422 421 423
f 424 423 425
f 135 132 417
f 420 419 119
f 426 427 428
f 429 430 431
f 432 423 424
f 327 433 434
f 435 436 437
f 431 430 438
f 335 439 406
f 440 416 413
f 441 426 428
f 442 443 444
f 443 413 415
f 423 429 431
f 327 372 433
f 438 445 446
f 447 448 449
f 440 417 416
f 450 426 441
f 451 135 417
f 452 435 437
f 453 43 42
f 454 135 451
f 108 135 454
f 328 385 391
f 455 418 420
f 456 457 458
f 459 460 450
f 447 449 455
f 443 415 422
f 461 462 432
f 420 119 463
f 455 420 464
f 379 465 350
f 444 462 461
f 440 413 443
f 425 448 466
f 441 428 467
f 451 417 468
f 469 470 471
f 372 407 433
f 468 417 440
f 463 119 118
f 450 441 472
f 424 425 466
f 473 437 442
f 337 405 474
f 448 447 466
f 449 438 446
f 446 456 458
f 464 420 463
f 137 470 475
f 475 453 137
f 431 438 449
f 436 440 443
f 476 469 471
f 452 437 473
f 477 428 476
f 472 441 467
f 473 442 444
f 478 451 468
f 436 443 442
f 449 446 418
f 467 428 477
f 337 474 408
f 461 432 427
f 137 453 42
f 473 435 452
f 479 444 461
f 427 432 424
f 311 350 253
f 475 455 464
f 473 444 479
f 84 212 480
f 128 84 480
f 481 128 480
f 482 435 473
f 121 128 481
f 447 455 475
f 317 480 212
f 169 66 483
f 406 484 379
f 480 317 322
f 425 423 431
f 470 137 471
f 483 66 485
f 462 422 423
f 468 440 436
f 486 152 169
f 159 152 487
f 487 322 159
f 481 480 488
f 489 375 382
f 490 121 481
f 419 446 458
f 491 481 488
f 486 169 483
f 379 484 465
f 469 424 466
f 488 480 322
f 93 121 132
f 492 483 485
f 493 477 476
f 444 443 422
f 494 482 473
f 495 451 478
f 493 476 471
f 487 152 496
f 436 442 437
f 414 490 481
f 492 485 497
f 322 487 496
f 494 473 498
f 496 152 486
f 488 322 499
f 132 121 490
f 454 451 495
f 414 481 491
f 499 322 496
f 426 479 461
f 470 466 447
f 118 464 463
f 421 491 488
f 486 483 492
f 418 446 419
f 492 497 445
f 500 499 496
f 421 488 499
f 419 458 119
f 430 499 500
f 498 473 479
f 428 427 424
f 43 464 118
f 470 447 475
f 426 461 427
f 445 497 457
f 465 501 350
f 496 486 500
f 391 502 405
f 421 499 429
f 407 503 433
f 476 424 469
f 416 132 490
f 498 479 460
f 407 375 503
f 415 491 421
f 438 492 445
f 438 486 492
f 460 494 498
f 429 499 430
f 428 424 476
f 446 445 457
f 500 486 438
f 456 446 457
f 414 491 415
f 435 468 436
f 416 490 414
f 475 464 453
f 425 431 448
f 460 479 426
f 423 421 429
f 135 111 132
f 444 422 462
f 438 430 500
f 460 426 450
f 469 466 470
f 432 462 423
f 448 431 449
f 478 468 435
f 449 418 455
f 453 464 43
f 406 504 484
f 391 385 505
f 134 374 127
f 133 458 69
f 69 458 71
f 71 458 457
f 433 506 434
f 127 374 102
f 485 66 65
f 497 485 65
f 102 374 100
f 133 69 68
f 71 457 497
f 350 501 253
f 71 497 65
f 133 68 82
f 507 46 508
f 509 46 507
f 391 505 502
f 289 46 509
f 375 489 510
f 405 502 474
f 311 46 289
f 253 46 311
f 252 46 253
f 511 46 252
f 512 46 511
f 287 46 512
f 406 439 504
f 327 46 287
f 434 46 327
f 513 46 434
f 82 68 80
f 514 46 513
f 515 46 514
f 134 68 374
f 126 117 62
f 80 68 134
f 62 117 53
f 408 474 508
f 53 117 119
f 53 119 46
f 46 119 458
f 318 458 133
f 408 458 318
f 508 458 408
f 46 458 508
f 11 28 516
f 517 516 518
f 519 520 521
f 517 518 519
f 522 523 493
f 28 123 516
f 519 518 520
f 477 521 524
f 493 521 477
f 136 9 522
f 520 525 521
f 522 526 523
f 522 9 526
f 123 527 516
f 516 528 518
f 523 521 493
f 518 529 520
f 516 527 530
f 9 517 526
f 9 11 517
f 526 519 523
f 523 519 521
f 518 528 529
f 137 522 471
f 137 136 522
f 517 11 516
f 471 522 493
f 467 477 524
f 526 517 519
f 375 510 503
f 531 532 533
f 534 535 536
f 531 537 538
f 534 536 539
f 540 532 531
f 541 540 542
f 543 538 544
f 545 546 535
f 539 536 543
f 547 548 549
f 543 544 550
f 549 548 551
f 548 547 552
f 540 553 532
f 548 554 551
f 253 501 251
f 548 552 534
f 551 554 555
f 534 552 556
f 548 534 554
f 537 557 544
f 542 531 546
f 534 556 535
f 546 531 538
f 535 538 536
f 542 540 531
f 538 537 544
f 433 503 506
f 531 533 537
f 554 539 555
f 536 538 543
f 545 542 546
f 465 484 558
f 554 534 539
f 546 538 535
f 535 556 545
f 537 533 557
f 541 542 545
f 454 328 108
f 465 558 501
f 454 559 328
f 495 559 454
f 108 328 89
f 459 552 494
f 560 561 562
f 560 524 563
f 541 564 540
f 474 565 508
f 524 521 525
f 566 556 567
f 560 563 561
f 503 510 568
f 564 553 540
f 564 529 553
f 562 561 566
f 562 459 450
f 524 525 569
f 570 552 547
f 459 567 552
f 472 560 450
f 450 560 562
f 562 566 459
f 459 566 567
f 566 571 556
f 571 541 545
f 569 564 572
f 560 472 467
f 569 525 564
f 566 561 571
f 571 572 541
f 561 563 572
f 572 564 541
f 560 467 524
f 567 556 552
f 563 569 572
f 494 460 459
f 561 572 571
f 563 524 569
f 556 571 545
f 525 529 564
f 434 506 513
f 474 502 573
f 570 494 552
f 525 520 529
f 574 575 576
f 559 435 577
f 482 494 570
f 328 559 384
f 559 578 384
f 575 547 549
f 559 577 578
f 575 570 547
f 578 574 576
f 578 577 574
f 577 435 574
f 574 482 575
f 575 549 576
f 575 482 570
f 495 435 559
f 574 435 482
f 502 505 579
f 478 435 495
f 580 581 582
f 583 584 550
f 585 586 532
f 583 587 584
f 474 573 565
f 583 588 587
f 382 265 581
f 582 589 586
f 582 581 589
f 550 584 590
f 588 591 587
f 265 592 581
f 265 264 592
f 586 533 532
f 550 590 543
f 591 593 587
f 584 594 590
f 584 587 594
f 501 252 251
f 581 592 589
f 591 595 593
f 590 539 543
f 264 596 592
f 589 592 597
f 586 589 533
f 587 593 594
f 264 598 596
f 594 555 590
f 595 599 593
f 589 597 533
f 505 599 595
f 590 555 539
f 598 600 596
f 505 385 599
f 596 601 592
f 593 599 594
f 592 601 597
f 505 595 579
f 594 599 602
f 597 557 533
f 506 503 603
f 579 573 502
f 594 551 555
f 594 602 551
f 504 439 600
f 596 604 601
f 596 600 604
f 385 384 599
f 530 528 516
f 601 557 597
f 599 384 578
f 527 605 530
f 600 439 604
f 530 606 528
f 528 607 529
f 599 578 602
f 601 608 557
f 504 609 484
f 605 610 530
f 529 607 553
f 601 604 608
f 528 606 607
f 602 578 576
f 506 611 513
f 604 439 612
f 602 549 551
f 608 544 557
f 530 610 606
f 604 612 608
f 602 576 549
f 439 335 613
f 439 613 612
f 568 603 503
f 489 580 605
f 605 580 610
f 606 585 607
f 612 544 608
f 607 585 532
f 607 532 553
f 335 334 613
f 484 609 558
f 606 610 585
f 613 583 612
f 580 582 610
f 501 614 252
f 610 582 585
f 334 583 613
f 489 382 580
f 334 588 583
f 612 550 544
f 582 586 585
f 612 583 550
f 382 581 580
f 334 293 615
f 510 489 616
f 257 287 512
f 615 293 292
f 617 290 289
f 618 264 266
f 617 292 290
f 619 266 258
f 504 600 609
f 122 27 63
f 527 123 122
f 620 588 334
f 619 258 257
f 620 334 615
f 621 257 512
f 509 617 289
f 621 619 257
f 622 63 45
f 622 45 44
f 514 44 515
f 623 122 63
f 624 292 617
f 622 44 514
f 625 266 619
f 626 527 122
f 511 621 512
f 623 63 622
f 624 615 292
f 619 621 627
f 618 266 625
f 628 122 623
f 527 626 605
f 627 621 511
f 605 616 489
f 624 617 509
f 264 618 598
f 629 622 514
f 630 618 625
f 510 616 568
f 629 623 622
f 627 625 619
f 588 620 591
f 628 626 122
f 631 632 620
f 631 620 615
f 558 614 501
f 631 615 624
f 507 624 509
f 616 605 626
f 598 618 630
f 632 591 620
f 616 626 628
f 614 625 627
f 633 631 624
f 611 623 629
f 579 632 631
f 628 623 611
f 573 633 565
f 630 625 614
f 565 624 507
f 513 629 514
f 565 633 624
f 252 614 627
f 506 603 611
f 616 628 603
f 252 627 511
f 579 631 573
f 611 629 513
f 595 591 632
f 573 631 633
f 609 600 598
f 558 630 614
f 609 630 558
f 609 598 630
f 603 628 611
f 508 565 507
f 595 632 579
f 568 616 603
