v 0.0005419701 -0.004618496 0.0371854
v -6.091595e-05 -0.004523396 -0.03861848
v -6.115064e-05 0.004555896 -0.03861687
v -0.0005419701 0.004793718 0.03861848
v -0.0005410761 0.004634768 -0.03740922
v -0.0005418174 -0.004793704 0.03861666
v 0.0003263764 -0.004655018 0.03803596
v 0.0005410686 0.004618913 0.03718737
v -0.000540603 -0.004602686 -0.03741139
v 0.0004362278 0.004636884 0.03776112
v 0.0004369393 -0.004636496 0.03775933
v 0.0003259443 0.004654735 0.0380376
f 1 2 3
f 4 5 6
f 2 5 3
f 7 4 6
f 7 2 1
f 8 1 3
f 5 9 6
f 9 5 2
f 9 7 6
f 7 9 2
f 8 10 1
f 10 5 4
f 5 10 3
f 10 8 3
f 11 7 1
f 10 11 1
f 7 12 4
f 12 10 4
f 11 12 7
f 12 11 10
