v 0.001013398 -0.01342189 -0.02631731
v 0.001013845 -0.02632222 -0.01341236
v 0.0009831488 -0.02089369 -0.0208865
v 0.00101316 0.02052021 0.02051258
v -0.0001772046 -0.02585569 -0.01316631
v 0.0008965135 0.004541427 0.02865916
v 0.0007620454 -0.004537612 0.02866164
v 0.0002494454 -0.004339963 0.0274685
v 0.0005913377 -0.0131723 0.02585906
v 0.0004028082 -0.02051705 0.02052426
v -9.387732e-05 -0.01965073 0.01967192
v 4.512072e-05 0.004537493 -0.02866165
v -8.98838e-05 -0.004541457 -0.0286593
v -0.0004372001 0.004354298 -0.02745334
v -0.0007016063 -0.01847562 0.009441257
v -0.0002745986 -0.02476427 0.01263669
v -0.0002354681 0.003284603 0.02021053
v -0.0001835823 0.009273499 0.01818103
v -0.0009993315 -0.009244114 -0.01815176
v -0.0001766682 -0.01317564 -0.02585103
v 0.0005920529 0.02585369 -0.013181
v 0.0004035234 0.02051699 -0.02052435
v 0.0007616878 0.02866045 -0.00454706
v 0.0008965135 0.0286608 0.004531324
v -0.0001549721 0.01443392 0.01452571
v -0.0004322529 0.0185045 -0.00941205
v 8.669496e-05 0.02477884 -0.01262142
v -9.387732e-05 0.01966536 -0.01965734
v 0.0009827614 0.01317546 0.02585155
v 8.702278e-05 -0.01261261 0.02478343
v -9.036064e-05 -0.02866066 -0.004530758
v 4.470348e-05 -0.0286608 0.004547328
v -0.000566572 -0.02745301 -0.004333168
v 0.0002146959 -0.02585387 0.01318167
v 0.0002150536 0.0131717 -0.02585896
v -0.001013875 -0.0144051 -0.0144964
v -0.0006785989 -0.01965329 -0.01964621
v -0.0004371405 -0.02745277 0.00436455
v -0.0008921623 -0.02126306 -0.003289491
v -0.0006502867 -0.02476549 -0.01260729
v -0.0005662441 -0.004343718 -0.02745119
v -0.0002069473 -0.02051991 -0.02051194
v -0.0009330213 -0.003254712 -0.02018075
v -0.0002741814 0.01262775 -0.02476843
v -0.0006650686 0.00984031 -0.01914711
v 0.00048998 0.01966798 0.01966053
v 0.0004612207 0.01263025 0.02477568
v -0.0003886819 -0.009812951 0.01917516
v -0.0008089542 -0.02059442 0.003471524
v -0.0006492138 -0.01261637 -0.02476061
v -0.0005502999 0.01491889 -0.01463453
v 0.0003783107 0.0274671 0.004348695
v 0.000983417 0.02585599 0.0131664
v 0.0003786683 0.004358113 0.02746624
v -0.0005576611 -0.01489067 0.01466319
v -0.0009753704 -0.01832443 -0.009595245
v -0.0008197427 0.003013253 -0.02047373
v 0.000249505 0.02746704 -0.004349783
v 0.0004615188 0.02478036 0.01262215
v -0.0001445413 0.01835278 0.009623781
v -0.000299871 -0.002984375 0.02050269
v -0.0001609921 0.02129 0.00331758
v -0.0002995729 0.02062276 -0.003443122
f 1 2 3
f 2 1 4
f 2 5 3
f 2 6 7
f 6 8 7
f 9 2 7
f 2 9 10
f 8 9 7
f 10 9 11
f 12 1 13
f 14 12 13
f 15 16 11
f 16 10 11
f 17 18 19
f 15 17 19
f 1 20 13
f 20 1 3
f 21 1 22
f 21 23 1
f 23 24 1
f 18 25 19
f 26 27 28
f 21 27 23
f 28 27 22
f 27 21 22
f 29 2 4
f 29 6 2
f 9 30 11
f 30 9 8
f 31 32 33
f 32 31 2
f 31 5 2
f 34 2 10
f 34 32 2
f 16 34 10
f 34 16 32
f 35 12 14
f 35 28 22
f 1 35 22
f 12 35 1
f 36 15 19
f 37 36 19
f 38 16 15
f 38 39 33
f 32 38 33
f 16 38 32
f 40 37 5
f 40 31 33
f 31 40 5
f 39 40 33
f 40 36 37
f 41 14 13
f 20 41 13
f 5 42 3
f 37 42 5
f 42 20 3
f 42 37 20
f 25 43 19
f 43 25 26
f 43 41 19
f 41 43 14
f 44 45 28
f 45 44 14
f 35 44 28
f 44 35 14
f 46 25 18
f 46 29 4
f 46 47 29
f 47 46 18
f 30 48 11
f 48 30 8
f 36 49 15
f 49 38 15
f 38 49 39
f 50 37 19
f 41 50 19
f 37 50 20
f 50 41 20
f 51 43 26
f 51 26 28
f 45 51 28
f 52 24 23
f 1 53 4
f 24 53 1
f 29 54 6
f 47 54 29
f 6 54 8
f 54 17 8
f 17 54 18
f 54 47 18
f 55 17 15
f 55 15 11
f 48 55 11
f 49 56 39
f 56 49 36
f 56 40 39
f 40 56 36
f 57 51 45
f 51 57 43
f 57 45 14
f 43 57 14
f 27 58 23
f 58 52 23
f 58 27 26
f 59 60 25
f 46 59 25
f 59 46 4
f 53 59 4
f 52 59 24
f 59 53 24
f 55 61 17
f 61 55 48
f 17 61 8
f 61 48 8
f 58 62 52
f 59 62 60
f 62 59 52
f 63 58 26
f 63 62 58
f 62 63 60
f 25 63 26
f 60 63 25
