v 0.01447372 0.005736694 0.04160535
v 0.01345716 -0.004923731 0.03922552
v 0.01345763 -0.004923165 -0.04025656
v -0.01447368 -0.01527011 0.0392257
v -0.004217751 -0.01485342 -0.04025623
v -0.004219256 -0.01485352 0.03922474
v 0.005406626 -0.01128872 -0.04025507
v -0.01429815 0.01527011 0.04160494
v -0.009137057 0.01459804 0.04160511
v -0.01424972 -0.01335135 0.04160464
v -0.01447363 0.00665468 0.04160452
v -0.01429195 -0.01370966 0.04153389
v -0.01440345 -0.0146599 0.04069018
v -0.01447372 -0.01526977 -0.01635438
v -0.004839398 -0.01175021 -0.04074493
v 0.005405195 -0.01128801 0.03922564
v -0.004339464 -0.01425114 0.04068995
v -0.004527204 -0.01331326 0.04153442
v -0.004029892 0.01340802 0.04160523
v 0.000654541 0.01187627 0.04160538
v -0.004598282 -0.01295918 0.04160529
v 0.004459105 -0.009603992 0.04160535
v 0.004838996 -0.01027824 -0.04160494
v 0.004347868 -0.009403393 -0.04158783
v 0.005281322 -0.01106539 -0.04086617
v 0.01300571 -0.004507497 0.04068989
v 0.01203676 -0.003613815 0.04160535
v 0.01230208 -0.003858626 0.04153419
v -0.004467733 -0.01361348 0.04133239
v 0.003912427 -0.008629858 -0.04102051
v -0.00464312 -0.01273365 -0.04158843
v 0.005091749 -0.01072825 -0.04124823
v -0.004817046 -0.01186271 -0.04102042
v 0.01252798 -0.004066154 0.04133222
v 0.006573297 0.009317338 0.04160559
v -0.01432762 -0.01401445 0.04133195
v 0.003856502 -0.008529276 -0.04074499
v -0.004268073 -0.01460271 -0.04086661
v 0.00510443 -0.01075295 0.0406903
v -0.004344232 -0.01422366 -0.04124767
v 0.004636213 -0.009918854 0.04153425
v 0.004786246 -0.01018645 0.04133296
v -0.004445486 -0.0137177 -0.04160562
f 1 2 3
f 4 5 6
f 2 7 3
f 5 7 6
f 8 9 3
f 10 11 12
f 11 10 8
f 13 11 4
f 4 14 5
f 11 14 4
f 15 14 8
f 14 11 8
f 7 16 6
f 16 7 2
f 17 4 6
f 17 13 4
f 18 10 12
f 19 20 3
f 9 19 3
f 19 9 20
f 18 21 10
f 21 18 22
f 10 21 8
f 21 9 8
f 23 24 3
f 7 25 3
f 26 2 1
f 27 28 1
f 17 29 13
f 24 30 3
f 31 30 24
f 32 23 3
f 25 32 3
f 33 14 15
f 33 31 14
f 33 30 31
f 28 34 1
f 34 26 1
f 35 21 22
f 27 35 22
f 9 35 20
f 21 35 9
f 35 27 1
f 35 1 3
f 20 35 3
f 29 36 13
f 11 36 12
f 13 36 11
f 36 18 12
f 36 29 18
f 37 8 3
f 30 37 3
f 37 15 8
f 37 33 15
f 33 37 30
f 38 32 25
f 38 7 5
f 38 25 7
f 14 38 5
f 39 16 2
f 26 39 2
f 16 39 6
f 39 17 6
f 38 40 32
f 40 38 14
f 41 27 22
f 27 41 28
f 18 41 22
f 34 42 26
f 42 39 26
f 42 34 28
f 41 42 28
f 42 29 17
f 39 42 17
f 29 42 18
f 42 41 18
f 32 43 23
f 40 43 32
f 43 24 23
f 43 31 24
f 31 43 14
f 43 40 14
