v -0.0005421583 0.004793704 -0.03861642
v 0.000327216 -0.004654884 -0.03803846
v -0.0005421569 -0.004793704 -0.03861797
v -0.0005405378 0.004604131 0.03741086
v -6.02412e-05 -0.004554138 0.03861681
v 0.0005411902 0.004618272 -0.03718561
v -6.166659e-05 0.004525453 0.038618
v -0.0005403506 -0.004633188 0.03740892
v 0.0003262055 0.004655182 -0.03803617
v 0.0005421578 -0.004618466 -0.03718692
v 0.0004361686 0.004636467 -0.03775948
v 0.0004363162 -0.004636511 -0.03776228
f 1 2 3
f 4 1 3
f 5 6 7
f 8 4 3
f 2 8 3
f 5 8 2
f 8 5 7
f 4 8 7
f 9 2 1
f 6 9 7
f 9 4 7
f 4 9 1
f 10 5 2
f 10 6 5
f 9 11 2
f 11 9 6
f 10 11 6
f 12 10 2
f 11 12 2
f 12 11 10
