v -0.01303577 -0.0256881 -0.03333145
v -0.01267695 -0.01455946 -0.03415284
v -0.0128127 -0.01315808 -0.03332415
v -0.01303586 -0.0256875 -0.03433168
v -0.008358896 -0.02585546 -0.0293189
v -0.01409504 -0.02561958 -0.02720016
v 0.01202548 -0.01938901 0.03126873
v 0.01376492 -0.02717409 0.03041241
v 0.01067787 -0.02717292 0.03174073
v -0.005457044 -0.02699471 0.03325863
v -0.004547119 -0.01909507 0.03338593
v -0.0002999604 -0.02718047 0.03366485
v 0.004300088 -0.01925274 0.03337675
v 0.004860133 -0.02717842 0.03325707
v -0.004386097 -0.03395274 -0.04340667
v -0.00373432 -0.03455703 -0.04339549
v -0.00433588 -0.02848566 -0.04340443
v -0.01234093 -0.01895506 0.03127244
v -0.01572514 -0.01098915 0.0295555
v -0.01516876 -0.01059334 0.02939349
v 0.008279562 -0.01932312 0.03256226
v 0.01569057 -0.01154851 0.02955073
v 0.01663423 -0.02716449 0.02884063
v 0.01251212 -0.0149738 -0.03417143
v -0.002282172 -0.02606918 -0.0302892
v -0.008594781 -0.01902265 0.03256482
v -0.01127112 -0.02678211 0.03174406
v -0.001469105 -0.03151511 -0.09725782
v -0.0003935397 -0.0313159 -0.09708324
v -0.001859933 -0.03453266 -0.0953168
v -0.002322048 -0.03437648 -0.09655413
v -0.01435673 -0.02667339 0.03041671
v -0.01722428 -0.02656162 0.02884582
v -0.0003003776 -0.02607122 -0.09836891
v 0.001701146 -0.02614012 -0.0302898
v 0.007781625 -0.02614283 -0.02932137
v -0.00230363 -0.02739041 -0.0998998
v 0.01246029 -0.02614148 -0.03433558
v -0.01048756 0.0458006 0.06725064
v -0.01061928 0.03840174 0.06724632
v -0.01060021 0.03847885 -0.06410733
v -0.009245932 0.04587775 -0.06510413
v -0.009377688 0.03847891 -0.06510845
v 0.0008539855 0.03847544 -0.06529605
v 0.01155797 0.04542377 0.06845035
v 0.01235771 0.03799261 0.06724283
v 0.01142627 0.03802491 0.06844604
v -0.009555101 0.04579969 0.06845358
v 0.001004755 0.0457957 0.0687082
v 0.0008728802 0.03839685 0.06870389
v 0.0002125502 -0.03453388 -0.09489074
v 0.01248956 0.04539148 0.06724712
v 0.01243299 0.04546994 -0.06410649
v 0.0123013 0.0380711 -0.06411085
v 0.01121089 0.04551352 -0.06510726
v 0.0009857416 0.04587431 -0.06529179
v 0.01107919 0.03811466 -0.06511158
v -0.001455456 -0.02643393 -0.09865257
v -0.002042979 -0.01275872 -0.09977874
v -0.002308249 -0.01510929 -0.1012793
v -0.002197206 -0.007593997 -0.09919277
v -0.002361715 -0.02703344 -0.1010792
v -0.002651393 -0.0327501 -0.09956586
v -0.009686738 0.03840083 0.06844924
v -0.00194791 -0.005233351 -0.09726271
v -0.001907557 -0.004237559 -0.09463772
v -0.01046836 0.04587772 -0.06410304
v -0.003028274 -0.002830766 -0.09504536
v 0.0001558363 -0.000467442 -0.0955267
v 0.0001523197 -0.0006686971 -0.09536442
v -0.01531273 -0.01022215 0.02321345
v -0.01527184 -0.009780284 -0.02644375
v -0.01524431 -0.008775271 -0.06470707
v -0.01590493 -0.0187372 -0.02618656
v -0.01590586 -0.01873307 -0.03327501
v -0.01547447 -0.01306434 -0.03327742
v -0.01522598 -0.00886219 0.067985
v -0.01504868 -0.02470777 -0.02671292
v -0.01506156 -0.02465293 -0.03329515
v -0.01315811 0.04587472 -0.08557576
v 0.0009816289 0.04586552 -0.0905675
v -0.01125306 0.04587068 -0.09007475
v -0.01295042 0.04575059 0.092641
v 0.001008004 0.04576099 0.09395117
v -0.0103181 0.04574999 0.09383957
v -0.01397306 0.04565624 -0.0869661
v 0.001847953 -0.02863424 -0.03177145
v -0.006141931 -0.02842906 -0.03134719
v -0.01412052 -0.02814042 -0.02886084
v 5.349517e-05 -0.006228738 -0.09433833
v 5.659461e-05 -0.006053723 -0.09412768
v -0.001371503 -0.005410973 -0.0943433
v -0.01434141 -0.02806287 -0.07196948
v -0.004339725 -0.02845815 -0.07133347
v -0.005073428 -0.02850516 0.03484985
v -0.000326246 -0.02867285 0.03518167
v -0.0003203452 -0.02867273 0.07439736
v 0.00208813 -0.005305197 -0.09726334
v 0.002084166 -0.004308622 -0.09463835
v 0.003254056 -0.002942655 -0.09504628
v -0.02509716 -0.02779271 0.03859773
v -0.0229634 -0.02787456 0.07396321
v -0.01742876 -0.02805214 0.03422329
v -0.01563191 -0.0280949 0.03143221
v -0.001591027 -0.02613894 -0.03035629
v -0.0003090203 -0.0271426 -0.03033355
v 0.002762675 -0.03463538 -0.09649831
v 0.001424849 -0.03444318 -0.0965547
v 0.003169507 -0.0343953 -0.09713843
v 0.001810998 -0.03282955 -0.09956655
v 0.0004218221 0.01448786 -0.09766439
v -0.01355729 0.008111581 -0.09660453
v -0.01365826 0.01582935 -0.09751704
v 0.0002895594 0.007056024 -0.09674457
v 0.000746429 0.03272312 -0.09884655
v -0.00840959 0.03707868 -0.09868321
v 0.0008271039 0.03725593 -0.09886554
v 0.0005792379 0.02333033 -0.09843525
v -0.01332864 0.02980511 -0.09850487
v -0.01390147 0.001839817 -0.09563193
v -0.003893614 -0.003683101 -0.09486353
v -0.01399386 -0.005451355 -0.09429416
v 0.002949476 -0.02929014 -0.1008967
v 0.00172469 -0.02710621 -0.1010798
v 0.002885908 -0.02688155 -0.1012918
v -0.003990531 -0.008652356 -0.09386149
v 0.00209558 -0.0151877 -0.1012801
v -0.009051174 0.03830584 -0.09815779
v -0.01039204 0.04065822 -0.0961175
v -0.006534189 0.04038743 -0.09689528
v -0.01525447 0.0355012 -0.09710428
v -0.01589999 0.04179782 -0.09125116
v -0.01385006 0.04458872 -0.09142315
v 0.003412753 -0.01475469 -0.1011842
v 0.003510416 -0.01087598 -0.1004576
v 0.002252758 -0.007673226 -0.09919345
v 0.003320336 -0.005426303 -0.09763059
v -0.01664829 0.03249172 -0.0958775
v 0.002846241 -0.0346742 -0.0433965
v 0.003977567 -0.008569237 -0.09895095
v -0.01689437 0.04090481 -0.08722553
v -0.01600984 0.04357819 -0.08864495
v -0.01757309 0.02896314 -0.0912936
v -0.01728639 0.03041654 -0.0936195
v -0.01794273 0.008222241 -0.08818355
v -0.01695737 0.0107555 -0.09425491
v 0.004088581 -0.003825206 -0.09486473
v -0.01683527 0.03774899 -0.09197548
v -0.01763755 -0.004983436 -0.08880118
v -0.01711363 -0.00587932 -0.09157735
v -0.01826721 -0.01023322 -0.08287054
v -0.01713902 -0.01151687 -0.09008074
v -0.01638219 0.04340704 -0.08441487
v -0.0121496 0.03783282 -0.09775242
v 0.003624886 -0.02656237 -0.1007125
v 0.003541529 -0.03275952 -0.09888926
v -0.01712957 -0.01883448 -0.08678266
v 0.003560692 -0.03372299 -0.09696299
v -0.01836732 -0.01582346 -0.07748026
v 0.00351882 -0.03409352 -0.04340789
v -0.01041576 0.04489319 -0.09235719
v -0.0171375 -0.02128585 -0.08477607
v -0.01301807 0.04306382 -0.09324411
v -0.01735741 -0.0247922 -0.07650658
v -0.01841608 -0.01860474 -0.07191974
v 0.01452169 -0.02517967 -0.03329965
v 0.0155763 -0.01929361 -0.03327981
v 0.01246035 -0.02614206 -0.03333536
v 0.01268351 -0.01361206 -0.03332803
v 0.01534706 -0.01361312 -0.03328219
v -0.01743639 -0.02532853 -0.0719749
v 0.01773426 -0.009699482 0.03086078
v 0.01771453 -0.009703249 -0.06418291
v 0.01744792 -0.009451162 -0.06427154
v 0.01756987 -0.009545922 0.06765968
v 0.01779979 -0.007467974 0.07126506
v 0.01755261 -0.009142023 0.06918681
v 0.01755226 -0.007399376 0.07100637
v 0.01747245 -0.007089771 -0.06774208
v 0.0179396 0.001574039 -0.07070252
v 0.01756054 0.001305673 -0.07027119
v 0.01773748 -0.008594114 -0.06701639
v 0.01769045 0.001184985 0.07363924
v 0.01798171 0.003982347 -0.07025096
v 0.01549411 0.003846083 -0.06990799
v 0.018015 0.006374221 -0.0667522
v -0.01746139 0.03469268 -0.09018275
v 0.0008900166 0.04077093 -0.09690294
v -0.002782196 0.04257448 -0.09520194
v 0.0009480417 0.0440092 -0.09374937
v 0.0008483827 0.03844953 -0.09852758
v -0.004936635 0.03815936 -0.09853706
v 0.01801929 0.006262567 0.07026061
v 0.01781434 0.006042954 0.06976177
v 0.01768965 0.006080329 -0.06671935
v 0.01527917 -0.009405356 0.06798036
v 0.0152601 -0.009318423 -0.06471172
v 0.0009743571 0.04547049 -0.09184977
v 0.01532021 -0.0070793 0.07106018
v -0.01493657 0.04423622 -0.09057266
v -0.01740602 0.0382233 -0.08231735
v -0.016406 0.0430231 -0.07970089
v 0.01547736 0.001664471 0.0736419
v 0.01797113 0.003846224 0.07354999
v 0.01554283 0.005355898 0.07184204
v 0.01551577 0.003819138 0.07323331
v -0.01414326 0.03643579 -0.09761593
v -0.01756838 0.005681232 0.07777904
v -0.01777947 0.008714352 0.08103557
v -0.01764092 0.02418343 0.08275902
v 0.01555365 0.005970843 0.07013872
v -0.01802838 0.03682874 0.09116639
v -0.01854295 0.03343409 0.09397355
v -0.01820031 0.008788701 0.08281928
v -0.01867607 0.0173923 0.08819482
v -0.01740593 0.006893322 0.07026604
v -0.01741779 0.01312974 -0.07460296
v -0.01743934 0.007005505 -0.0667468
v -0.01749238 0.004613969 -0.07024553
v -0.01740593 0.03806372 0.08398819
v -0.01744273 0.004476789 0.07355541
v -0.01725709 0.001807231 0.07364458
v 0.0155341 0.006047487 -0.06677994
v -0.01767519 -0.006836325 0.07127047
v 0.01552838 0.005746201 -0.06794462
v 0.01546684 0.002301846 -0.07029229
v 0.01529852 -0.007181566 -0.06763148
v 0.01527882 -0.008278485 -0.06679741
v -0.02008936 0.002897087 0.08440664
v -0.01919973 0.0293346 0.09457928
v -0.02172095 0.01122737 0.09211794
v -0.0231472 0.0004308261 0.08959703
v -0.01998553 -0.007746138 0.07809564
v -0.02415106 -0.00713902 0.08739276
v -0.0185197 -0.007555451 0.07446367
v 0.007802814 -0.02714188 -0.02930579
v 0.01345849 -0.02863149 -0.02886507
v -0.01841229 -0.01881941 -0.02461317
v -0.01752758 -0.02509573 -0.02528474
v -0.01752028 -0.008921135 0.06766503
v -0.01841933 -0.009086806 0.07270375
v 0.01254168 -0.02714379 -0.02765602
v 0.0145717 -0.02838237 -0.02806267
v -0.02148679 -0.0103228 0.07921025
v -0.02492797 -0.01207613 0.08460847
v -0.02574307 -0.01619244 0.08019501
v -0.02216393 -0.01254229 0.07784793
v -0.01969853 -0.01237886 0.06914224
v -0.02191144 -0.01419642 0.07359925
v -0.01841688 -0.01071334 0.06889686
v 0.01623097 -0.02714063 -0.02573279
v -0.01752552 0.006252468 -0.07607582
v 0.01568377 -0.02772264 -0.02672544
v 0.01498893 -0.02864011 0.03142753
v -0.02657232 -0.0187114 0.07317445
v -0.02633929 -0.01836539 0.07564868
v -0.0221346 -0.01483706 0.0712413
v 0.004423648 -0.02867426 0.03484839
v -0.01771078 -0.009072486 -0.06417748
v -0.01873702 -0.01112442 0.03423786
v -0.01802224 -0.00999736 0.03328247
v -0.01863435 -0.01155337 0.03151944
v 0.01616636 -0.01211209 -0.02592212
v 0.01780817 -0.01266081 -0.02488384
v 0.01697156 -0.0125504 -0.02042714
v 0.01548618 -0.01123694 -0.02631694
v 0.01530379 -0.01076729 0.02320877
v 0.0152635 -0.01032397 -0.0264484
v 0.01726595 -0.01264495 0.02859022
v 0.0008409619 -0.02647483 -0.09865287
v -9.834766e-05 -0.0147219 -0.09835723
v 0.0009378195 -0.01471399 -0.09858999
v 0.001914471 -0.01282918 -0.09977934
v 0.001654238 -0.02746089 -0.09990039
v -5.573034e-05 -0.01233416 -0.09792989
v -6.765127e-06 -0.009593721 -0.0968723
v 0.001211494 -0.007870995 -0.09624335
v -0.01933521 -0.01410635 0.03099388
v -0.0215202 -0.01532203 0.03325255
v -0.01810122 -0.01205027 0.02808881
v -0.0190255 -0.0176683 0.03023663
v -0.0183928 -0.0188996 0.02796987
v 0.000684917 -0.005982596 -0.09417918
v -0.0255082 -0.01872009 0.03465857
v -0.02222627 -0.0148629 0.0347943
v 0.01565781 0.006082032 -0.09593984
v 0.0167523 0.001050744 -0.09413221
v 0.01635745 -0.007279556 -0.09279129
v -0.01942101 -0.01180763 0.04891562
v 0.01543206 -0.006783556 -0.09363303
v 0.006619424 0.03795359 -0.09853885
v 0.01005158 0.03674996 -0.09868604
v 0.01335883 0.03649909 -0.09835121
v 0.0147087 0.02930589 -0.09850916
v 0.01073673 0.03795352 -0.0981608
v 0.01381651 0.03737051 -0.09775642
v 0.01575941 0.03590336 -0.09762049
v 0.01601693 0.03216977 -0.09822002
v -0.02041811 -0.01267573 0.03745282
v 0.01683658 0.03492982 -0.09710917
v -0.02876788 -0.01867037 0.04104893
v -0.02842927 -0.01867641 0.03834337
v 0.01780775 0.02878243 -0.09662497
v 0.01765811 0.01013916 -0.09426019
v 0.01812273 0.0318726 -0.0958828
v 0.01454106 0.01532724 -0.09752133
v 0.01507866 0.02162394 -0.09801123
v 0.01571739 0.01463633 -0.09709308
v -0.02281269 -0.0150594 0.06125638
v 0.01416546 0.007617973 -0.09660873
v -0.02587882 -0.01735675 0.05798751
v -0.0176951 -0.007963259 -0.067011
v -0.01753622 0.002205685 -0.0706971
v 0.01722312 -0.0064907 -0.09158257
v 0.01428664 0.001337938 -0.09563622
v -0.01789933 -0.01205187 0.02548248
v -0.01770139 -0.009068552 0.03086621
v -0.01789752 -0.01202506 -0.02487835
v 0.01411983 -0.005951948 -0.09429845
v -0.0279102 -0.01869408 0.03701255
v 0.01643804 0.02821668 -0.09792489
v 0.01684681 0.01599605 -0.09647068
v 0.0157018 -0.02682754 -0.07842267
v 0.01482117 -0.02759495 -0.07781151
v 0.01457444 -0.02632958 -0.08234569
v -0.02011791 -0.01595803 0.03167179
v 0.01670045 -0.02188833 -0.0847812
v 0.01605448 -0.02440263 -0.08344308
v 0.01329869 -0.02799457 -0.07810554
v 0.01359785 -0.02725701 -0.0808126
v 0.01589599 -0.02172726 -0.08692047
v 0.01472411 -0.02435428 -0.08547398
v 0.01331428 -0.02582133 -0.08408907
v 0.01356906 -0.02451615 -0.08591852
v 0.01677945 -0.01943822 -0.08678782
v 0.01360214 -0.02207594 -0.08831778
v 0.01543677 -0.0196552 -0.08902326
v 0.01594499 -0.01630066 -0.0902932
v 0.01355374 -0.02022858 -0.0896298
v -0.02282149 -0.01459291 0.04119286
v -0.02170429 -0.01883292 0.03303833
v -0.02305001 -0.01812118 0.03357992
v 0.01704824 -0.01212555 -0.09008598
v 0.01588175 -0.01256307 -0.0917801
v 0.01397142 -0.0125843 -0.09274873
v 0.01344058 -0.01784438 -0.09089312
v 0.0168595 -0.02593916 -0.07198012
v 0.01634055 -0.02693568 -0.07208356
v 0.01679805 -0.02540034 -0.07651177
v 0.01545855 -0.02783933 -0.07147488
v 0.01366884 -0.02856157 -0.07197377
v -0.02882457 -0.02402229 0.04238763
v 0.01697293 -0.02571002 -0.02528998
v -0.02836409 -0.0243251 0.03790873
v -0.01994249 -0.02420911 0.03176077
v 0.01233658 0.04448807 -0.09236073
v 0.0134016 0.04511568 -0.09113356
v 0.01575825 0.04406156 -0.09142765
v -0.02190772 -0.02459604 0.03312814
v 0.01683182 0.04367058 -0.09057751
v 0.01719436 0.04426109 -0.0871816
v 0.01788157 0.04297471 -0.08865014
v 0.01654339 0.04467792 -0.08845255
v -0.02706051 -0.02442893 0.03576386
v 0.01592058 0.04512399 -0.08697066
v -0.01785418 -0.02483452 0.02839942
v -0.0248563 -0.02408702 0.03427491
v 0.0132091 0.0454351 -0.09007847
v -0.02119577 0.01195588 0.09516826
v -0.0206829 0.01121155 0.09775072
v -0.02291739 -0.006488334 0.09449604
v 0.01824895 0.0427904 -0.08442014
v -0.02443129 -0.0164135 0.09003836
v 0.01511428 0.04537133 -0.08558008
v 0.01635972 0.04486631 -0.0231474
v 0.01689693 0.04445633 0.08317412
v 0.01727331 0.04416643 -0.03160477
v -0.02531525 -0.02163028 0.08515677
v 0.01826036 0.04240586 -0.07970619
v 0.01776582 0.04350594 0.04898547
v -0.01639086 0.04340116 0.09007752
v -0.01640543 0.04283749 0.08299854
v -0.00925228 0.04494381 0.09578308
v 0.0009769201 0.04398789 0.09705386
v 0.001002342 0.04543183 0.0951142
v 0.01571119 0.0451461 0.09031749
v 0.01824778 0.04244551 0.04501669
v 0.0179531 0.04320449 0.08349462
v 0.01830289 0.0422195 0.08299325
v 0.01495665 0.04525368 0.09263673
v -0.01542875 0.04389298 0.09368008
v -0.01471409 0.04252094 0.09606032
v -0.01305738 0.04532885 0.09420209
v -0.01183388 0.04080966 0.09900364
v -0.01166075 0.04496409 0.09540142
v -0.008611083 0.04056942 0.09984493
v -0.005612671 0.04112984 0.0996989
v 0.0009512305 0.04253524 0.09862551
v -0.01747864 0.03889326 0.09324715
v -0.01506916 0.03588502 0.1009371
v -0.0161424 0.03536346 0.1002214
v 0.0009138584 0.04041828 0.1004845
v -0.006098509 0.03859603 0.1016059
v -0.009959877 0.03708272 0.1019534
v -0.02660441 -0.02444658 0.07385719
v -0.01351196 0.03665204 0.1013519
v 0.0183104 0.04278329 0.09007224
v 0.01738113 0.04418386 0.08969322
v 0.01232645 0.04534681 0.09383611
v 0.01123312 0.04457904 0.09577996
v 0.01736763 0.04330904 0.09367506
v 0.0168806 0.04440861 0.09221046
v 0.01804426 0.04284166 0.09219643
v -0.01787874 0.03498923 0.09668083
v -0.01729146 0.03295709 0.1000459
v 0.01504898 0.0448284 0.09419776
v -0.01937097 0.02705446 0.09658794
v -0.01900676 0.02602637 0.09888993
v -0.01612216 0.04344999 0.09220165
v 0.01364076 0.04451359 0.09539756
v -0.01636368 0.04027631 0.09576647
v 0.0008795857 0.03848707 0.1018519
v 0.02145618 0.01046126 0.09774429
v 0.02095807 0.00969778 0.09864597
v 0.02305835 -0.007306945 0.09448901
v 0.02082407 0.001859747 0.09826672
v 0.01876605 0.004666146 0.09948006
v 0.02113155 -0.008872211 0.09654742
v 0.000857383 0.03724075 0.1022731
v 0.007857174 0.03834755 0.1016037
v 0.01166224 0.03669772 0.1019501
v 0.01519671 0.03614088 0.1013475
v 0.01721159 0.03355439 0.1012848
v 0.01672536 0.0353189 0.1009323
v 0.01419502 0.03478317 0.1020246
v 0.01884177 0.03231373 0.1000404
v 0.01777917 0.03475952 0.1002163
v 0.01648003 0.03243509 0.1018194
v 0.01787168 0.03029469 0.1013658
v -0.02290535 -0.02765039 0.07697895
v -0.000313729 -0.02832687 0.07800227
v -0.0002147555 -0.02287798 0.08981435
v -0.0001782179 -0.02083392 0.0917013
v -0.02114928 -0.02199183 0.08980605
v -0.0002656579 -0.02569662 0.08591899
v -0.02169448 -0.02479319 0.08608884
v -0.02215606 -0.02598644 0.08364865
v -8.928776e-05 -0.01586339 0.09480704
v -0.02075171 -0.0171666 0.0935255
v -0.0001281798 -0.0180415 0.09364671
v -0.02127251 -0.02066265 0.09104243
v -0.02043074 -0.01468818 0.09479862
v -0.02107203 -0.01902849 0.09231794
v -0.02185664 -0.0233061 0.08823185
v -0.0002433658 -0.02446498 0.08785799
v -0.0002863407 -0.02683483 0.08357322
v -0.0225203 -0.02702073 0.08053052
v -4.333258e-05 -0.01329893 0.09589384
v -0.0003020167 -0.027703 0.08091035
v 1.400709e-06 -0.01078568 0.09673256
v 6.332994e-05 -0.007321145 0.09760815
v -0.01969346 -0.009144325 0.09674847
v -0.0202215 -0.01227866 0.09574565
v -0.012559 0.03525951 0.1020287
v -0.01730153 0.01277244 0.1004931
v 0.0004096329 0.01210413 0.1008126
v -0.01633981 0.01980134 0.10123
v 0.0002155006 0.001206622 0.09921987
v -0.01820016 0.005324345 0.0994857
v 0.0006187856 0.02383671 0.1018611
v -0.01543811 0.02781795 0.1017757
v -0.01902261 -0.001852408 0.09825915
v 0.0007636547 0.031969 0.1022217
v -0.01635405 0.0430616 0.04502198
v -0.01410192 -0.02402348 -0.08591428
v -0.004241437 -0.02280369 -0.08770332
v -0.004285306 -0.02528808 -0.08478156
v -0.01389298 -0.0253369 -0.08408493
v -0.01408142 -0.0120848 -0.09274447
v -0.004088014 -0.01414227 -0.09240568
v -0.01373753 -0.01736046 -0.09088898
v 0.01914358 0.02721137 0.1006016
v -0.01422688 -0.02676157 -0.08080834
v -0.004325062 -0.02756444 -0.07947114
v -0.01395303 -0.02750935 -0.07810137
v 0.01832053 0.02180194 0.1011412
v -0.004307151 -0.02653915 -0.08247927
v -0.01404896 -0.02158361 -0.08831355
v 0.01680699 0.02724382 0.1017708
v -0.004207432 -0.02087754 -0.08922806
v -0.004336238 -0.02822442 -0.07568181
v 0.01968381 0.01729385 0.1001565
v 0.02030891 0.02532638 0.09888393
v -0.013935 -0.01973912 -0.08962563
v -0.004157186 -0.01804326 -0.09087268
v 0.01742271 0.01920019 0.1012249
v -0.003952801 -0.008428037 -0.0989497
v -0.004241467 -0.02642229 -0.1007113
v -0.004431069 -0.03358071 -0.09696177
v 0.01945364 0.009651851 0.09984414
v -0.00437811 -0.03261852 -0.09888804
v -0.01733896 -0.01202881 0.02859551
v 0.01813352 0.01214152 0.1004877
v 0.01933181 -0.002535306 0.09825332
v 0.02308634 -0.01320783 0.09381635
v -0.01683709 -0.02655184 -0.02572778
v -0.01623774 -0.01153512 -0.0259172
v -0.00841549 -0.02685311 -0.02930328
v -0.01315078 -0.02668634 -0.02765211
v -0.01552683 -0.01068477 -0.02631217
v 0.0257639 -0.02639803 0.07381283
v 0.02609724 -0.02538495 0.07384914
v 0.02478597 -0.02621286 0.08031297
v -0.01834732 -0.02724329 0.03231357
v -0.02160168 -0.02615946 0.03366083
v -0.0200088 -0.02585819 0.03240347
v 0.02491292 -0.02252458 0.08514914
v 0.02474937 -0.02435113 0.08383316
v 0.02118206 -0.02555662 0.08608229
v 0.0216001 -0.02676553 0.08364198
v 0.02139759 -0.02407625 0.08822525
v 0.02434105 -0.02195026 0.08745697
v 0.02228746 -0.02845507 0.07697207
v 0.02343389 -0.02656095 0.08266199
v 0.02192622 -0.02781213 0.08052374
v 0.02073801 -0.02273763 0.08979966
v 0.02090868 -0.0214137 0.09103602
v 0.02327394 -0.02411906 0.08696496
v 0.02310556 -0.0210392 0.09013727
v 0.02233663 -0.02868112 0.07395628
v 0.02374223 -0.02834668 0.07405236
v 0.02302593 -0.01847581 0.09189364
v -0.02805322 -0.02589831 0.03883618
v -0.02708408 -0.02582521 0.03651282
v 0.02445146 -0.02793857 0.07417172
v 0.02421659 -0.01727968 0.09003095
v -0.027888 -0.02645226 0.04126282
v -0.02866581 -0.0251153 0.04129541
v 0.02051347 -0.01790134 0.09351921
v 0.02214971 -0.01213811 0.09511442
v 0.02519971 -0.02725773 0.07407889
v 0.02028134 -0.01541306 0.09479243
v 0.02015826 -0.01299765 0.09573951
v -0.02687064 -0.02728731 0.04151979
v -0.02508166 -0.0264142 0.03539366
v -0.0254344 -0.02718902 0.03666788
v 0.02076721 -0.01977346 0.09231159
v 0.01974264 -0.00984649 0.09674245
v 0.0244613 -0.02867511 0.03859016
v 0.02625239 -0.02823317 0.04151168
v 0.02729884 -0.02743488 0.0412544
v 0.0281238 -0.02612645 0.04128677
v 0.02832159 -0.0250398 0.0423789
v 0.02102447 -0.02691841 0.03365436
v 0.02481923 -0.02808381 0.03666019
v 0.01678702 -0.02866134 0.03421807
v 0.01944304 -0.02656063 0.03239745
v 0.0194352 -0.02491025 0.03175476
v 0.02138594 -0.02536689 0.03312154
v 0.02449381 -0.02729691 0.0353861
v 0.02435088 -0.02496317 0.0342674
v 0.02654245 -0.02538334 0.03575569
v 0.02651614 -0.02677957 0.03650463
v 0.01773334 -0.0278857 0.03230804
v 0.01732501 -0.02546088 0.02839407
v 0.02784926 -0.02532601 0.03790015
v 0.02748287 -0.02688716 0.03882772
v 0.01557732 -0.01929776 -0.02619138
v 0.01352328 -0.02611132 -0.02720436
v 0.01450887 -0.02523405 -0.02671745
v -0.02630726 -0.02547089 0.07382077
v -0.02577382 -0.02635014 0.0740867
v 0.01808092 -0.01946917 -0.02461877
v -0.02505028 -0.02705718 0.07417929
v -0.02435598 -0.02749028 0.07405971
v -0.02532133 -0.02532066 0.0803206
v -0.02218112 -0.01134879 0.09512118
v -0.02035728 0.002593014 0.09827299
v -0.02315557 -0.01238449 0.0938234
v 0.01782429 -0.01268794 0.02547702
v -0.02104685 -0.008121222 0.09655383
v 0.0180268 -0.01269355 0.02808334
v -0.02373368 -0.02328208 0.08697218
v -0.02345499 -0.02021018 0.09014438
v -0.02472284 -0.02107667 0.08746444
v 0.01807427 -0.01954892 0.02796431
v -0.02398193 -0.02571668 0.08266923
v 0.003757924 -0.0229461 -0.08770457
v 0.003714025 -0.02543051 -0.08478275
v 0.00369212 -0.02668155 -0.08248046
v 0.003674477 -0.02770686 -0.07947233
v 0.003663093 -0.02836686 -0.07568303
v 0.00400883 -0.008794777 -0.09386271
v 0.003911376 -0.01428471 -0.0924069
v -0.02328348 -0.01765126 0.09190071
v 0.003791928 -0.02101996 -0.08922926
v 0.003842026 -0.0181857 -0.09087387
v 0.003659666 -0.02860057 -0.07133469
v 0.003663391 -0.0286281 -0.04340562
v -0.02521756 -0.02346146 0.08384076
v 0.02845499 -0.01968923 0.04104018
v 0.02626941 -0.01965226 0.07316637
v 0.0190883 0.03757352 -0.08232293
v 0.019133 0.03741311 0.08398262
v -0.02021194 0.01043083 0.09865224
v -0.01866764 0.0179767 0.1001624
v -0.01870987 0.01033136 0.09984997
v -0.01714432 0.02243341 0.1011466
v -0.01492634 0.03299431 0.1018242
v -0.01639339 0.0309048 0.101371
v 0.02249247 0.01044013 0.0921112
v 0.02070898 0.02634082 0.09658182
v 0.02199453 0.01118684 0.09516168
v 0.0206182 0.02862564 0.09457324
v 0.01817369 0.03966137 0.09576119
v 0.01660544 0.04196329 0.09605554
v 0.01971334 0.03615673 0.09116064
v 0.0201076 0.03274589 0.09396763
v 0.01950011 0.03432369 0.09667511
v -0.01777449 0.0278687 0.1006073
v 0.01923829 0.0382395 0.09324156
v -0.01561773 0.03413894 0.1012898
v 0.02604946 -0.0192982 0.07564068
v 0.02553228 -0.0171054 0.0801872
v 0.01366702 0.04035561 0.09899972
v 0.01043782 0.04023024 0.09984204
v 0.007461309 0.04089705 0.09969692
v 0.02426565 -0.008001085 0.08738539
v 0.02486551 -0.01296272 0.0846009
v -0.01492071 0.04502286 0.08317897
v -0.01541221 0.04476777 0.08969821
v -0.01370886 0.04566994 0.09032196
v -0.01490295 0.04497454 0.0922153
v -0.01602075 0.04380939 0.0834998
v 0.02353275 -0.0004003234 0.08958992
v 0.01875103 -0.01834092 0.03023085
v 0.02138773 -0.01960018 0.03303176
v 0.02275804 -0.01893681 0.03357294
v 0.02519372 -0.01962284 0.03465085
v 0.02759594 -0.01968238 0.03700407
v 0.02811566 -0.0196832 0.03833474
v 0.01990429 -0.01667064 0.03166573
v 0.01846412 -0.00974353 0.07269813
v 0.01840237 -0.0113689 0.06889123
v 0.02265751 -0.01540269 0.04118592
v 0.02561975 -0.0182737 0.05797966
v 0.02177215 -0.01497421 0.07359257
v 0.02208447 -0.01333012 0.07784116
v 0.02148741 -0.01108797 0.0792037
v 0.02007857 -0.008459486 0.07808954
v 0.02197167 -0.01562238 0.07123457
v 0.02032283 -0.01340113 0.03744659
v 0.02263823 -0.01586866 0.06124943
v 0.01861921 -0.008216716 0.074458
v -0.01583326 0.04410418 0.04899058
v 0.01807123 0.005618658 -0.07608125
v 0.01822352 -0.01088296 -0.08287612
v 0.01855457 0.007572394 -0.0881891
v 0.01936078 -0.01249814 0.04890972
v 0.01962408 -0.013079 0.06913623
v -0.01440164 0.04541401 -0.02314273
v -0.01527685 0.04483924 -0.08717662
v 0.01802245 -0.01063913 0.033277
v -0.01534221 0.04474716 -0.03159979
v 0.02205116 -0.01565127 0.03478754
v 0.02132887 -0.01608498 0.03324604
v 0.01918793 -0.01479227 0.03098801
v 0.01869708 -0.01179095 0.03423214
v 0.01857859 -0.01221593 0.03151378
v 0.01807758 -0.01925453 -0.07192531
v 0.0181264 -0.01647326 -0.0774858
v 0.01892269 0.02831331 -0.09129921
v 0.01901555 0.03404323 -0.09018832
v -0.01461175 0.04523261 -0.08844778
v -0.01145741 0.04555829 -0.09112981
v 0.01820886 0.01249541 -0.07460842
v 0.01888442 0.008128405 0.08281362
v 0.02056292 0.002173252 0.08440045
v 0.01966777 0.01670958 0.08818899
v 0.01814076 0.005045433 0.07777359
v 0.01846078 0.008069079 0.08103006
v -0.01695362 -0.02634287 -0.0720785
v 0.01887336 0.02353327 0.08275345
v -0.01631141 -0.02715297 -0.02672055
v -0.01610404 -0.02727735 -0.07147005
v -0.0152238 -0.02785184 -0.02805811
v -0.01546019 -0.0270558 -0.07780686
v -0.01631334 -0.02625754 -0.07841778
v -0.0153347 -0.006235741 -0.09362832
v -0.0159893 -0.0119956 -0.09177521
v -0.01627702 -0.006698508 -0.09278631
v 0.01770756 0.04119941 -0.09125629
v 0.01487201 0.04256723 -0.09324834
v 0.008295864 0.04012339 -0.09689757
v 0.01216108 0.04025666 -0.09612092
v 0.01867083 0.04027157 -0.08723095
v -0.01517007 -0.02579996 -0.08234116
v 0.004624814 0.04244262 -0.09520307
v 0.01868737 0.029776 -0.09362498
v -0.01525033 -0.02382055 -0.08546939
v -0.01658091 -0.02382155 -0.08343807
v 0.01849791 0.03711991 -0.09198087
v -0.01618519 -0.01572859 -0.09028825
v -0.01579615 -0.01909913 -0.08901846
v 0.0177795 -0.005614042 -0.0888066
v -0.01632839 -0.02115347 -0.08691555
v -0.01510295 0.006629743 -0.09593514
v -0.01637542 0.001640607 -0.09412715
v -0.01593858 0.01657981 -0.09646568
v -0.01485842 0.01518076 -0.09708837
v -0.01644382 0.0293923 -0.09661976
v -0.01509553 0.02877814 -0.09792006
v -0.01172352 0.03694568 -0.0983474
v -0.01453388 0.03271377 -0.09821537
v 0.0001552403 -0.0005078129 -0.09539327
v 0.0001525581 -0.0006610081 -0.09535828
v 0.0006743968 -0.03155325 -0.09725815
v -0.01716667 0.001923993 -0.07026592
v -0.015039 0.002844989 -0.07028762
v 0.001007676 -0.0261852 -0.03035668
v -0.003665924 -0.03452095 -0.09649733
v -0.004063964 -0.03426649 -0.09713736
v -0.003663421 -0.02917239 -0.1008957
v -0.003514469 -0.0267676 -0.1012909
v -0.001133502 -0.01467713 -0.09858969
v -0.001162559 -0.00782872 -0.09624302
v -0.003609151 -0.0146297 -0.1011831
v -0.00356853 -0.01074997 -0.1004565
v -0.003183603 -0.005310502 -0.09762958
v -0.01705626 -0.01194451 -0.02042195
v -0.01743549 -0.008830059 -0.0642662
v -0.01742548 -0.00677659 0.07101172
v -0.01748824 -0.008518096 0.06919216
v -0.01737672 -0.006469253 -0.06773674
v -0.01501125 0.004389267 -0.06990334
v -0.01720908 0.006666556 0.0697671
v -0.01712486 0.006700214 -0.06671402
v -0.01518336 -0.006536189 0.07106483
v -0.0150283 0.002207641 0.07364652
v -0.01496294 0.005899049 0.07184672
v -0.01499015 0.004362293 0.07323796
v -0.01495239 0.006514013 0.07014339
v -0.01497161 0.006590657 -0.06677529
v -0.01497713 0.006289367 -0.06793997
v -0.01520771 -0.006638393 -0.06762683
v -0.01522666 -0.007735334 -0.06679276
f 1 2 3
f 1 4 2
f 5 1 6
f 7 8 9
f 10 11 12
f 5 4 1
f 12 13 14
f 15 16 17
f 18 19 20
f 21 9 14
f 13 21 14
f 22 23 8
f 4 5 2
f 24 2 25
f 26 10 27
f 21 7 9
f 28 29 30
f 7 22 8
f 28 30 31
f 18 26 27
f 18 32 33
f 29 28 34
f 26 11 10
f 18 27 32
f 2 5 25
f 35 24 25
f 36 24 35
f 37 28 31
f 38 24 36
f 39 40 41
f 42 43 44
f 45 46 47
f 48 49 50
f 51 30 29
f 52 53 54
f 55 56 44
f 42 41 43
f 45 47 50
f 39 48 40
f 40 50 46
f 44 41 54
f 54 57 44
f 50 47 46
f 44 43 41
f 58 34 28
f 46 54 41
f 58 28 37
f 59 60 61
f 37 62 60
f 37 60 59
f 63 62 37
f 64 50 40
f 59 61 65
f 31 63 37
f 59 65 66
f 53 55 54
f 39 41 67
f 67 41 42
f 68 69 70
f 71 72 73
f 74 75 76
f 74 76 72
f 19 71 77
f 42 44 56
f 77 71 73
f 48 64 40
f 75 78 79
f 75 74 78
f 52 46 45
f 48 50 64
f 78 6 79
f 79 6 1
f 56 80 42
f 42 80 67
f 52 54 46
f 55 44 57
f 81 80 56
f 81 82 80
f 49 83 84
f 84 83 85
f 49 48 83
f 55 57 54
f 82 86 80
f 48 39 83
f 80 83 67
f 67 83 39
f 17 87 88
f 45 50 49
f 17 88 89
f 46 41 40
f 90 91 92
f 93 94 17
f 93 17 89
f 95 96 97
f 98 99 100
f 101 97 102
f 101 95 97
f 103 104 95
f 35 105 106
f 103 95 101
f 107 108 109
f 109 108 110
f 111 112 113
f 114 112 111
f 115 116 117
f 118 119 115
f 118 113 119
f 69 120 114
f 121 122 68
f 114 120 112
f 69 68 120
f 123 110 124
f 123 124 125
f 126 122 121
f 111 113 118
f 124 127 125
f 115 119 116
f 68 122 120
f 128 129 130
f 131 132 133
f 127 134 125
f 134 127 135
f 127 136 135
f 136 98 137
f 137 98 100
f 138 132 131
f 139 16 51
f 107 51 108
f 107 139 51
f 140 136 137
f 132 141 142
f 143 144 145
f 146 145 144
f 134 135 140
f 140 137 147
f 148 141 132
f 146 149 145
f 150 149 146
f 137 100 147
f 145 149 151
f 135 136 140
f 150 152 149
f 142 141 153
f 128 154 129
f 140 155 134
f 149 152 151
f 134 155 125
f 123 156 110
f 138 148 132
f 123 125 155
f 157 151 152
f 156 123 155
f 156 158 109
f 109 110 156
f 151 157 159
f 158 160 109
f 109 160 139
f 129 133 161
f 157 162 159
f 129 154 163
f 129 163 133
f 109 139 107
f 159 164 165
f 162 164 159
f 166 167 168
f 168 167 169
f 167 170 169
f 164 171 165
f 172 173 174
f 172 174 175
f 176 177 178
f 138 144 148
f 175 177 176
f 179 180 181
f 179 182 180
f 183 176 178
f 181 180 184
f 185 184 186
f 148 187 141
f 188 189 190
f 191 192 188
f 193 194 186
f 186 194 195
f 196 175 197
f 197 175 174
f 192 130 188
f 190 161 198
f 144 187 148
f 188 130 189
f 189 161 190
f 177 199 178
f 196 199 177
f 146 144 138
f 200 132 142
f 144 143 187
f 175 196 177
f 189 130 161
f 187 201 141
f 153 201 202
f 128 130 192
f 141 201 153
f 178 203 183
f 199 203 178
f 130 129 161
f 204 205 193
f 206 205 204
f 183 206 204
f 154 207 163
f 207 133 163
f 207 131 133
f 133 132 200
f 203 206 183
f 208 209 210
f 205 211 194
f 209 212 210
f 209 213 212
f 214 215 213
f 216 217 218
f 218 217 219
f 193 205 194
f 210 220 216
f 208 221 222
f 220 210 212
f 195 211 223
f 224 208 222
f 194 211 195
f 186 225 185
f 195 225 186
f 224 209 208
f 223 225 195
f 185 226 184
f 181 227 179
f 226 227 181
f 174 173 197
f 173 228 197
f 229 215 214
f 230 215 231
f 208 210 216
f 182 228 173
f 232 229 233
f 232 233 234
f 209 214 213
f 182 227 228
f 179 227 182
f 231 229 232
f 217 216 201
f 230 213 215
f 187 217 201
f 214 235 229
f 235 233 229
f 209 224 214
f 87 236 106
f 201 216 220
f 208 216 221
f 87 237 236
f 229 231 215
f 224 235 214
f 238 165 239
f 165 171 239
f 240 241 224
f 237 242 236
f 237 243 242
f 244 245 233
f 246 245 247
f 248 249 250
f 243 251 242
f 249 241 250
f 217 252 219
f 243 253 251
f 254 9 8
f 241 249 247
f 252 217 187
f 247 244 241
f 255 256 257
f 258 96 14
f 23 254 8
f 247 245 244
f 259 159 165
f 254 14 9
f 254 258 14
f 96 12 14
f 260 261 262
f 263 264 265
f 266 267 268
f 265 269 263
f 265 264 269
f 266 263 22
f 267 266 22
f 263 269 22
f 270 34 271
f 272 270 271
f 273 270 272
f 274 270 273
f 275 276 277
f 262 278 279
f 272 277 273
f 272 275 277
f 260 262 279
f 273 277 99
f 278 280 281
f 281 280 282
f 277 283 99
f 277 276 283
f 271 275 272
f 184 226 181
f 284 285 279
f 286 287 288
f 260 289 261
f 288 290 286
f 117 191 291
f 292 117 291
f 292 293 294
f 295 296 293
f 297 298 294
f 260 299 289
f 293 296 297
f 297 300 298
f 301 285 302
f 298 300 303
f 261 289 250
f 143 252 187
f 304 303 305
f 306 307 308
f 248 257 249
f 309 255 257
f 306 308 310
f 241 233 235
f 255 311 301
f 252 312 313
f 259 312 252
f 287 314 288
f 249 256 246
f 145 252 143
f 308 315 310
f 316 317 318
f 315 290 319
f 287 304 314
f 285 260 279
f 151 159 259
f 285 284 320
f 297 294 293
f 245 234 233
f 238 318 259
f 294 298 321
f 298 303 321
f 238 259 165
f 259 318 317
f 292 291 295
f 292 295 293
f 280 262 317
f 317 262 261
f 321 307 294
f 308 307 321
f 303 300 305
f 303 322 321
f 280 278 262
f 308 321 322
f 322 303 304
f 286 308 322
f 286 315 308
f 316 280 317
f 322 304 287
f 286 322 287
f 286 290 315
f 323 324 325
f 281 326 278
f 327 323 328
f 329 330 324
f 323 325 328
f 328 331 327
f 328 332 331
f 333 334 332
f 327 331 335
f 260 285 299
f 332 334 336
f 335 331 337
f 331 332 336
f 331 336 337
f 219 252 313
f 335 337 338
f 278 326 279
f 285 301 299
f 337 339 338
f 339 337 336
f 340 299 301
f 341 342 326
f 335 338 343
f 343 338 344
f 342 279 326
f 338 345 344
f 261 240 317
f 338 339 345
f 284 279 342
f 320 302 285
f 257 289 309
f 309 289 299
f 240 261 250
f 289 257 248
f 339 346 345
f 311 309 340
f 325 324 330
f 289 248 250
f 332 328 325
f 145 151 252
f 252 151 259
f 325 333 332
f 333 325 330
f 343 344 314
f 344 288 314
f 288 344 290
f 344 345 290
f 345 319 290
f 347 348 349
f 348 350 323
f 348 323 349
f 241 235 224
f 350 324 323
f 350 351 324
f 311 255 309
f 299 340 309
f 249 257 256
f 349 323 327
f 244 233 241
f 324 351 329
f 249 246 247
f 237 351 243
f 301 311 340
f 243 351 350
f 243 350 253
f 253 348 251
f 240 250 241
f 302 352 301
f 253 350 348
f 251 347 353
f 352 302 354
f 326 281 355
f 341 326 355
f 251 348 347
f 356 357 358
f 359 341 355
f 320 354 302
f 360 361 362
f 360 363 361
f 358 357 363
f 320 364 354
f 284 364 320
f 357 365 363
f 198 81 357
f 355 281 366
f 284 367 364
f 342 367 284
f 81 368 357
f 357 356 198
f 342 341 367
f 367 341 359
f 366 281 282
f 358 363 360
f 232 369 231
f 370 369 371
f 232 234 369
f 365 357 368
f 369 234 371
f 361 372 362
f 361 363 365
f 245 373 234
f 365 374 375
f 246 373 245
f 371 234 373
f 376 377 375
f 378 373 246
f 379 372 380
f 212 381 382
f 372 377 380
f 383 384 385
f 376 375 386
f 387 388 389
f 375 374 386
f 377 361 375
f 386 374 390
f 391 392 393
f 392 394 393
f 395 396 383
f 380 377 376
f 394 395 393
f 380 376 388
f 377 372 361
f 397 398 383
f 397 383 396
f 396 395 394
f 375 361 365
f 381 212 399
f 392 400 394
f 400 392 401
f 398 397 402
f 402 397 403
f 394 404 396
f 397 396 403
f 403 396 404
f 387 380 388
f 255 405 256
f 400 406 394
f 380 387 379
f 407 388 408
f 405 378 256
f 404 394 406
f 256 378 246
f 388 407 389
f 409 84 385
f 385 410 409
f 383 398 384
f 411 408 412
f 408 386 412
f 408 411 413
f 401 414 415
f 390 416 412
f 417 213 230
f 414 417 415
f 415 417 418
f 407 408 413
f 416 411 412
f 408 388 376
f 390 412 386
f 376 386 408
f 409 416 390
f 381 399 419
f 419 399 414
f 409 420 416
f 401 392 421
f 419 414 421
f 414 399 213
f 410 420 409
f 422 402 403
f 212 213 399
f 423 424 425
f 414 401 421
f 426 427 428
f 213 417 414
f 422 429 430
f 430 429 431
f 382 220 212
f 421 391 419
f 432 433 434
f 421 392 391
f 432 435 433
f 433 436 437
f 433 435 438
f 433 439 436
f 231 417 230
f 417 369 418
f 418 369 370
f 231 369 417
f 440 97 441
f 442 443 444
f 97 440 102
f 445 446 447
f 448 449 450
f 444 443 451
f 448 452 449
f 453 450 449
f 443 453 451
f 454 455 442
f 456 447 457
f 442 444 454
f 458 452 448
f 453 443 450
f 455 454 446
f 459 456 457
f 456 445 447
f 446 445 455
f 460 461 462
f 452 458 463
f 458 460 463
f 463 460 462
f 457 441 459
f 440 441 457
f 464 429 404
f 465 466 467
f 468 466 469
f 469 466 465
f 467 470 471
f 472 461 468
f 466 470 467
f 472 462 461
f 471 473 464
f 464 473 429
f 471 470 473
f 472 468 469
f 474 220 382
f 202 201 474
f 201 220 474
f 255 301 405
f 301 352 405
f 438 439 433
f 475 476 477
f 475 477 478
f 479 480 481
f 479 126 480
f 439 482 436
f 483 484 485
f 439 486 482
f 122 126 479
f 483 487 484
f 488 476 475
f 439 489 486
f 488 490 476
f 93 491 94
f 492 423 493
f 494 490 488
f 478 487 483
f 494 495 490
f 478 477 487
f 481 495 494
f 485 491 93
f 485 484 491
f 486 489 496
f 481 480 495
f 94 15 17
f 497 495 480
f 498 495 497
f 499 15 94
f 499 94 491
f 498 490 495
f 423 492 424
f 498 476 490
f 497 126 121
f 497 480 126
f 499 491 484
f 499 484 487
f 499 487 477
f 499 477 476
f 492 486 500
f 499 476 498
f 501 499 498
f 426 492 500
f 282 280 366
f 280 502 366
f 503 427 500
f 366 502 33
f 428 427 504
f 425 424 505
f 502 19 33
f 434 433 437
f 19 18 33
f 316 502 280
f 318 502 316
f 424 426 505
f 78 74 506
f 74 507 506
f 493 436 482
f 506 318 239
f 25 508 106
f 507 318 506
f 432 431 435
f 25 5 508
f 493 482 492
f 482 486 492
f 239 318 238
f 486 496 503
f 438 435 489
f 5 6 508
f 6 509 508
f 438 489 439
f 503 500 486
f 78 506 6
f 6 506 509
f 426 500 427
f 72 507 74
f 510 507 72
f 424 492 426
f 511 512 513
f 514 515 516
f 514 103 515
f 513 512 517
f 33 516 355
f 513 517 518
f 514 516 33
f 519 520 521
f 518 517 522
f 523 524 525
f 524 520 525
f 526 521 527
f 520 528 521
f 521 529 527
f 530 531 523
f 527 529 532
f 533 352 354
f 364 534 354
f 529 522 532
f 531 524 523
f 531 535 524
f 522 517 536
f 524 528 520
f 533 537 538
f 539 532 540
f 522 536 532
f 535 541 513
f 542 539 543
f 513 524 535
f 533 544 537
f 532 536 505
f 539 540 543
f 518 528 513
f 533 534 101
f 543 540 428
f 545 367 515
f 522 528 518
f 528 529 521
f 536 425 505
f 546 101 534
f 547 527 539
f 544 533 101
f 515 367 359
f 532 539 527
f 543 428 548
f 540 532 505
f 524 513 528
f 538 352 533
f 548 428 504
f 528 522 529
f 428 540 426
f 534 533 354
f 101 546 103
f 540 505 426
f 541 511 513
f 530 549 550
f 530 550 531
f 531 550 535
f 103 514 104
f 33 355 366
f 535 551 541
f 535 550 551
f 104 514 33
f 541 551 511
f 511 551 552
f 534 364 545
f 511 552 512
f 512 552 553
f 554 555 556
f 557 558 559
f 555 554 560
f 545 546 534
f 560 561 562
f 559 554 557
f 560 563 555
f 563 560 562
f 359 516 515
f 545 364 367
f 254 23 564
f 23 565 558
f 556 254 564
f 549 556 555
f 563 566 567
f 552 567 553
f 554 559 561
f 550 549 567
f 555 563 549
f 560 554 561
f 567 549 563
f 567 551 550
f 567 552 551
f 562 566 563
f 567 566 553
f 564 23 557
f 23 558 557
f 564 554 556
f 546 545 515
f 516 359 355
f 515 103 546
f 564 557 554
f 266 268 263
f 268 568 263
f 569 242 251
f 570 569 251
f 569 236 242
f 36 236 569
f 405 352 538
f 571 405 538
f 571 538 537
f 572 571 537
f 353 573 264
f 574 537 544
f 574 572 537
f 575 574 544
f 35 236 36
f 102 575 544
f 102 544 101
f 263 251 264
f 35 106 236
f 251 353 264
f 568 251 263
f 570 251 568
f 572 576 571
f 577 578 579
f 264 580 269
f 581 578 577
f 580 582 269
f 583 584 585
f 269 23 22
f 565 23 269
f 582 565 269
f 462 472 581
f 586 565 582
f 156 155 158
f 587 583 576
f 158 155 588
f 158 588 589
f 158 589 590
f 158 590 591
f 158 591 592
f 140 593 594
f 577 579 595
f 140 147 593
f 155 596 588
f 155 597 596
f 158 592 598
f 158 598 160
f 155 140 597
f 463 462 581
f 140 594 597
f 595 451 449
f 598 599 160
f 453 449 451
f 373 579 371
f 346 597 594
f 329 592 591
f 329 351 592
f 346 339 597
f 333 590 589
f 583 454 584
f 585 600 583
f 463 581 577
f 339 596 597
f 333 330 590
f 600 576 583
f 449 463 577
f 595 579 373
f 576 574 587
f 452 463 449
f 339 336 596
f 351 598 592
f 336 588 596
f 574 576 572
f 336 334 588
f 330 591 590
f 585 595 373
f 319 345 593
f 449 577 595
f 330 329 591
f 345 594 593
f 345 346 594
f 334 333 589
f 587 447 583
f 585 373 378
f 334 589 588
f 601 512 553
f 575 587 574
f 575 440 587
f 584 595 585
f 602 512 601
f 603 387 604
f 379 387 603
f 451 595 584
f 387 389 604
f 504 427 468
f 489 473 470
f 435 429 473
f 489 435 473
f 504 461 548
f 466 496 470
f 504 468 461
f 496 489 470
f 427 503 466
f 102 440 575
f 468 427 466
f 503 496 466
f 454 451 584
f 435 431 429
f 523 525 441
f 525 459 441
f 543 548 460
f 447 454 583
f 444 451 454
f 458 543 460
f 587 457 447
f 542 543 458
f 440 457 587
f 460 548 461
f 519 455 445
f 600 585 378
f 456 520 445
f 459 525 456
f 455 519 521
f 547 450 443
f 458 448 542
f 442 521 526
f 446 454 447
f 576 600 378
f 456 525 520
f 521 442 455
f 576 378 405
f 443 527 547
f 547 539 450
f 448 539 542
f 571 576 405
f 526 527 443
f 448 450 539
f 445 520 519
f 97 530 523
f 605 578 606
f 442 526 443
f 578 469 607
f 523 441 97
f 465 608 607
f 609 610 471
f 611 612 613
f 493 423 613
f 609 471 464
f 612 493 613
f 608 465 467
f 611 614 612
f 615 411 616
f 615 413 411
f 389 617 604
f 618 619 612
f 620 606 608
f 619 615 437
f 617 621 618
f 418 606 620
f 422 430 402
f 619 618 621
f 406 464 404
f 413 615 619
f 437 615 616
f 413 619 621
f 407 413 621
f 418 620 415
f 436 493 612
f 619 436 612
f 612 614 618
f 605 579 578
f 437 436 619
f 410 384 398
f 400 401 622
f 623 624 517
f 371 579 605
f 581 472 469
f 431 432 625
f 512 623 517
f 465 607 469
f 578 607 606
f 434 625 432
f 606 607 608
f 370 605 606
f 608 467 471
f 606 418 370
f 610 608 471
f 610 620 608
f 602 623 512
f 610 415 620
f 430 431 626
f 609 622 610
f 627 430 626
f 625 626 431
f 622 415 610
f 402 430 627
f 622 609 464
f 622 401 415
f 398 402 627
f 434 437 616
f 616 625 434
f 407 621 617
f 406 622 464
f 626 625 420
f 406 400 622
f 627 626 410
f 627 410 398
f 403 404 429
f 625 416 420
f 422 403 429
f 420 410 626
f 616 416 625
f 578 581 469
f 370 371 605
f 411 416 616
f 410 385 384
f 617 389 407
f 517 624 536
f 383 85 395
f 85 393 395
f 425 536 628
f 85 83 393
f 624 629 536
f 630 631 632
f 83 632 633
f 629 628 536
f 613 425 628
f 631 630 634
f 635 613 628
f 423 425 613
f 635 611 613
f 565 586 636
f 561 559 637
f 393 633 391
f 638 561 637
f 638 639 561
f 639 562 561
f 381 419 631
f 558 565 636
f 83 633 393
f 639 640 562
f 631 419 391
f 631 633 632
f 391 633 631
f 640 566 562
f 640 641 566
f 385 85 383
f 559 558 637
f 637 558 642
f 85 385 84
f 642 558 636
f 634 382 381
f 553 566 641
f 641 601 553
f 175 643 644
f 601 645 646
f 381 631 634
f 647 648 624
f 649 643 650
f 647 623 651
f 652 653 645
f 646 653 602
f 643 176 654
f 655 202 474
f 474 634 655
f 656 173 657
f 658 656 657
f 659 644 660
f 646 645 653
f 659 660 651
f 661 86 662
f 175 644 663
f 653 652 659
f 664 662 153
f 651 653 659
f 640 665 641
f 655 634 630
f 639 638 666
f 655 630 664
f 663 172 175
f 638 642 666
f 637 642 638
f 645 601 652
f 665 652 601
f 632 83 80
f 667 666 642
f 184 180 656
f 668 652 665
f 636 667 642
f 664 661 662
f 580 172 582
f 582 669 667
f 172 663 669
f 582 172 669
f 661 632 80
f 173 172 264
f 573 670 173
f 573 173 264
f 629 650 628
f 665 640 639
f 657 173 671
f 474 382 634
f 665 666 668
f 580 264 172
f 630 632 661
f 153 655 664
f 658 672 656
f 202 655 153
f 647 624 623
f 173 656 182
f 656 180 182
f 602 601 646
f 643 654 650
f 653 651 602
f 660 647 651
f 672 673 656
f 663 644 659
f 630 661 664
f 601 641 665
f 668 659 652
f 668 663 659
f 639 666 665
f 86 661 80
f 636 586 582
f 667 636 582
f 668 666 669
f 669 666 667
f 668 669 663
f 662 86 674
f 173 670 671
f 648 649 629
f 602 651 623
f 662 142 153
f 86 82 675
f 648 643 649
f 133 200 674
f 656 673 676
f 643 648 647
f 676 184 656
f 647 644 643
f 660 644 647
f 675 198 161
f 81 675 82
f 624 648 629
f 198 675 81
f 649 650 629
f 175 176 643
f 675 674 86
f 670 353 347
f 573 353 670
f 133 674 675
f 176 677 654
f 678 679 611
f 680 204 193
f 603 604 193
f 681 677 176
f 654 678 650
f 677 678 654
f 673 603 676
f 614 679 618
f 676 603 193
f 611 635 678
f 200 662 674
f 200 142 662
f 681 618 677
f 635 628 650
f 161 133 675
f 635 650 678
f 506 171 682
f 506 239 171
f 680 193 683
f 684 682 685
f 684 506 682
f 686 684 685
f 614 611 679
f 686 685 93
f 89 686 93
f 678 677 679
f 687 485 93
f 176 680 681
f 176 183 680
f 164 162 688
f 604 617 683
f 680 183 204
f 683 193 604
f 186 184 676
f 193 186 676
f 685 687 93
f 677 618 679
f 685 688 687
f 682 164 688
f 682 688 685
f 681 617 618
f 171 164 682
f 681 683 617
f 680 683 681
f 479 689 122
f 690 689 479
f 691 689 690
f 358 360 692
f 690 150 691
f 297 358 300
f 152 150 690
f 297 693 358
f 296 693 297
f 694 356 695
f 696 372 603
f 295 291 694
f 372 379 603
f 673 696 603
f 478 483 697
f 698 356 694
f 699 673 672
f 697 700 478
f 360 362 692
f 700 697 701
f 304 305 699
f 698 190 356
f 188 698 694
f 699 702 673
f 190 198 356
f 697 483 687
f 291 188 694
f 494 479 481
f 191 188 291
f 188 190 698
f 703 479 494
f 703 690 479
f 152 690 703
f 702 696 673
f 305 702 699
f 349 670 347
f 327 671 349
f 157 152 703
f 494 488 704
f 704 703 494
f 671 670 349
f 695 358 693
f 695 693 296
f 335 671 327
f 695 356 358
f 657 671 335
f 335 343 657
f 157 703 704
f 305 692 702
f 705 657 343
f 295 695 296
f 362 372 696
f 314 705 343
f 706 704 488
f 706 488 700
f 157 704 706
f 658 657 705
f 700 488 475
f 162 157 706
f 314 304 705
f 304 658 705
f 702 692 696
f 304 699 658
f 672 658 699
f 478 700 475
f 692 362 696
f 305 300 692
f 300 358 692
f 701 706 700
f 295 694 695
f 701 162 706
f 100 315 319
f 115 292 294
f 111 118 306
f 688 701 697
f 593 147 319
f 485 687 483
f 162 701 688
f 118 307 306
f 114 310 315
f 688 697 687
f 147 100 319
f 69 114 315
f 118 294 307
f 118 115 294
f 115 117 292
f 707 120 689
f 707 708 709
f 114 111 310
f 709 708 146
f 111 306 310
f 707 710 120
f 556 549 258
f 556 258 254
f 549 97 258
f 707 709 710
f 549 530 97
f 709 146 711
f 258 97 96
f 351 237 599
f 710 709 712
f 711 712 709
f 711 138 131
f 351 599 598
f 599 87 17
f 710 712 113
f 599 237 87
f 53 52 390
f 374 53 390
f 45 390 52
f 712 119 113
f 116 713 128
f 368 374 365
f 116 128 192
f 714 712 711
f 119 712 714
f 49 390 45
f 84 409 390
f 49 84 390
f 81 374 368
f 207 713 119
f 708 150 146
f 120 122 689
f 81 56 374
f 55 53 374
f 56 55 374
f 166 168 569
f 710 112 120
f 570 166 569
f 167 570 568
f 708 691 150
f 113 112 710
f 167 166 570
f 196 197 267
f 22 196 267
f 146 138 711
f 568 268 170
f 568 170 167
f 267 197 268
f 715 69 716
f 100 70 69
f 714 711 131
f 273 99 98
f 207 714 131
f 108 274 110
f 273 98 136
f 110 274 124
f 274 273 127
f 274 127 124
f 713 207 154
f 273 136 127
f 207 119 714
f 270 274 717
f 128 713 154
f 116 119 713
f 270 717 34
f 274 108 717
f 116 192 117
f 117 192 191
f 29 34 717
f 691 707 689
f 707 691 708
f 717 108 51
f 717 51 29
f 219 718 719
f 160 599 17
f 160 17 16
f 160 16 139
f 36 168 38
f 36 569 168
f 168 24 38
f 168 169 24
f 65 68 66
f 25 106 720
f 721 722 31
f 722 63 31
f 723 62 63
f 723 724 62
f 271 725 275
f 726 92 276
f 276 92 283
f 62 724 60
f 60 724 727
f 727 728 60
f 60 728 61
f 726 66 92
f 61 729 65
f 729 68 65
f 30 51 16
f 59 66 726
f 721 31 30
f 721 30 16
f 497 729 61
f 727 497 728
f 497 121 729
f 729 121 68
f 728 497 61
f 725 726 275
f 725 59 726
f 275 726 276
f 497 727 498
f 727 724 498
f 37 59 58
f 723 63 501
f 59 725 58
f 723 498 724
f 501 498 723
f 725 271 58
f 58 271 34
f 501 722 499
f 507 19 502
f 722 501 63
f 499 722 15
f 722 16 15
f 722 721 16
f 79 1 75
f 71 19 510
f 510 19 507
f 730 502 318
f 730 507 502
f 1 3 75
f 75 3 76
f 317 731 259
f 317 240 731
f 224 732 733
f 240 224 733
f 734 718 313
f 734 313 312
f 222 732 224
f 718 219 313
f 510 72 71
f 735 218 219
f 216 218 736
f 218 737 736
f 77 73 240
f 73 731 240
f 733 732 738
f 77 733 738
f 240 733 77
f 732 222 739
f 507 730 318
f 738 732 739
f 221 216 740
f 741 221 740
f 222 221 741
f 739 222 741
f 96 10 12
f 740 736 742
f 104 10 95
f 104 27 10
f 33 32 104
f 95 10 96
f 216 736 740
f 737 743 742
f 104 32 27
f 736 737 742
f 218 735 744
f 686 506 684
f 686 509 506
f 89 509 686
f 737 218 744
f 89 508 509
f 743 737 744
f 88 508 89
f 735 219 719
f 88 106 508
f 718 734 745
f 719 718 745
f 88 87 106
f 734 312 745
f 312 746 745
f 731 73 259
f 259 73 746
f 312 259 746
