v -0.01693147 0.02564502 -0.03482863
v -0.02149016 0.02309203 -0.02169255
v -0.02538013 0.02041376 -0.01049943
v -0.03452969 -0.01290739 0.01484946
v -0.03547961 -0.01448417 0.01456705
v -0.03502709 -0.03484464 0.01264784
v -0.03396189 -0.0366962 0.01233784
v -0.03547961 -0.01448417 0.01456705
v -0.01078808 0.02841246 -0.05256015
v -0.007797778 0.02666259 -0.06130347
v -0.009483337 0.02721786 -0.05957564
v -0.01118243 0.02820957 -0.05455045
v -0.03037983 0.01513493 0.003821507
v -0.03080261 0.01527691 0.003455341
v -0.0140897 0.02806067 -0.04299022
v -0.03337467 0.004320383 0.01212115
v -0.03412402 0.005260825 0.01170258
v -0.03230315 0.01088905 0.009249136
v -0.01337963 0.02849054 -0.04828206
v -0.01608676 0.02765298 -0.04042416
v -0.02175951 0.02460241 -0.02389662
v -0.02726501 0.01991677 -0.005046576
v -0.02850187 0.0196135 -0.004352354
v -0.03048241 0.01742196 0.001402736
v -0.03165674 0.01406646 0.007487714
v -0.03310204 0.01273417 0.008816086
v -0.03292769 0.01032472 0.01104072
v -0.03389424 -0.004786491 0.01329827
v -0.0340609 -0.0275197 0.01295757
v -0.03482544 -0.01297522 0.01352937
v -0.03440279 0.006938219 0.01237594
v -0.03370774 0.004954815 0.01311049
v -0.03454798 0.001720786 0.01227264
v -0.03519917 -0.00622952 0.01430361
v -0.03375649 -0.03431416 0.01179519
v -0.03438205 -0.02929604 0.01261553
v 0.0004808307 -0.008550882 -0.09014682
v 0.001703322 -0.01371849 -0.09034289
v 0.0005782843 -0.01606417 -0.09058078
v 2.461672e-05 -0.001263738 -0.08850939
v 0.001045287 -0.0002800226 -0.08794624
v -0.0002765656 0.008706689 -0.08378306
v -0.002475202 0.01708782 -0.07709879
v -0.002082348 0.01189864 -0.08183482
v -0.00462389 0.02219796 -0.07067734
v -0.005137384 0.02105987 -0.07254677
v -0.007153511 0.02467895 -0.06645527
v -0.01372927 -0.05796051 -0.0471558
v -0.02503139 -0.05165064 -0.0141242
v -0.01771849 -0.05675411 -0.03852914
v -0.01086324 -0.05759335 -0.05545996
v -0.01325864 -0.05797058 -0.05154131
v -0.01040435 -0.05667019 -0.05989733
v -0.006545365 -0.05349112 -0.0678442
v -0.04397428 -0.009284973 -0.002937458
v -0.03948909 -0.006810308 0.007372797
v -0.0438143 -0.002499938 -0.004281461
v -0.03010988 0.01509356 -0.04723512
v -0.02234197 0.02266908 -0.04441025
v -0.02409041 0.01895976 -0.05285125
v -0.002150238 -0.04342115 -0.08023614
v -0.005638957 -0.04978049 -0.07379714
v -0.003216565 -0.04336238 -0.08047309
v 0.0007314086 -0.02913857 -0.08808079
v -3.433228e-05 -0.03428483 -0.08604483
v -0.0001548529 -0.02718115 -0.08890406
v -0.01704431 -0.008453727 -0.07991115
v -0.0110091 -0.01216066 -0.08485843
v -0.01492912 -0.01485431 -0.08206055
v 0.0003428459 -0.02124786 -0.09015031
v -0.02436972 0.02229333 -0.03203928
v -0.04109496 -0.01413894 0.004534207
v -0.02374929 -0.05319083 -0.02089454
v -0.02945489 -0.0486235 -0.004103977
v -0.03099388 -0.04562652 0.003400628
v -0.03778005 0.009576082 0.001497097
v -0.03581029 0.01305974 -0.006105565
v -0.042656 0.005284071 -0.01478174
v -0.03399605 -0.04117286 0.009319697
v -0.03248453 -0.04468882 0.004821368
v -0.03459722 -0.03699672 0.01202295
v -0.0346117 -0.03688133 0.01206852
v -0.03444946 -0.03811669 0.01154537
v -0.001048803 0.006887913 -0.08504017
v -0.008446813 0.003525615 -0.08299242
v -0.01405895 0.01985943 -0.06678669
v -0.009088695 0.01797831 -0.07316593
v -0.04167938 0.006972671 -0.02062119
v -0.03995186 0.008821249 -0.02954759
v -0.002384305 -0.04019356 -0.08285585
v -0.0075441 -0.05336493 -0.06825434
v -0.0151788 0.01469421 -0.07116809
v -0.01411706 0.01207805 -0.07422686
v -0.01481527 -0.05789924 -0.04705618
v -0.0440852 -0.01773632 -0.002983823
v -0.03759354 -0.03873229 -0.0413244
v -0.03209126 -0.03642237 -0.05289458
v -0.03373659 -0.03868198 -0.05326214
v -0.03773111 -0.0360105 -0.033906
v -0.03189951 -0.03782475 -0.05803017
v -0.006069779 0.009775043 -0.08127601
v -0.02730942 0.0185914 -0.04357021
v -0.0276823 -0.03134608 -0.06453097
v -0.04397517 -0.02957904 -0.006385341
v -0.04240406 -0.02925467 -0.008631855
v -0.04348052 -0.03311598 -0.01194257
v -0.02554709 -0.00377965 -0.07143155
v -0.02736688 0.002299786 -0.06754696
v -0.01641506 0.001429915 -0.07802704
v -0.02813804 -0.0322113 -0.06681985
v -0.03761047 0.005127311 0.007994525
v -0.0371061 0.00903213 0.005439915
v -0.04411328 -0.02456987 -0.003779076
v -0.04261851 -0.0229032 -0.005191803
v -0.04265451 -0.03498566 -0.01820014
v -0.02285331 0.006050825 -0.07005721
v -0.0269264 -0.02915514 -0.06931975
v -0.01261371 0.02310133 -0.06368431
v -0.02473056 -0.02186525 -0.07046858
v -0.04204679 -0.03595603 -0.02195922
v -0.02493376 -0.02069414 -0.07306942
v -0.03952312 -0.03827286 -0.03385317
v -0.04244268 -0.007521391 -0.004949413
v -0.02449638 -0.01518583 -0.07376234
v -0.02406478 -0.01214421 -0.07145613
v -0.0378052 0.009809256 -0.03828185
v -0.03238869 0.009533405 -0.05517142
v -0.03762949 0.006937504 -0.03219237
v -0.03209776 0.007556915 -0.05124766
v -0.02976167 0.006280422 -0.05802611
v -0.02909493 0.005951405 -0.0635732
v -0.007684708 -0.001806617 -0.08524464
v -0.007348001 -0.00741148 -0.0866353
v -0.04370439 -0.000543952 -0.00522127
v -0.04335207 0.002967715 -0.008628629
v -0.04191238 0.001195431 -0.009655088
v -0.02699083 0.001608253 -0.0651731
v -0.02528894 -0.003604889 -0.06896582
v -0.02473968 -0.008810043 -0.07317197
v -0.03278661 -0.04439914 -0.03670706
v -0.02967799 -0.04832971 -0.0234459
v -0.02613181 -0.05053085 -0.03501039
v -0.02861691 0.01886177 -0.03193877
v -0.02379107 0.0102917 -0.06608853
v -0.02896166 -0.04595232 -0.04754537
v -0.01088619 -0.02108788 -0.08468164
v -0.004462898 -0.0159843 -0.0886981
v -0.02314478 -0.05183589 -0.04546703
v -0.004776657 -0.02437675 -0.0877013
v -0.01954377 -0.01474094 -0.07822093
v -0.01740956 -0.004452705 -0.07890996
v -0.03635824 -0.003235579 0.01228758
v -0.01245981 0.002433062 -0.0807469
v -0.02214408 -0.05148757 -0.05064733
v -0.01536679 -0.03841043 -0.07573073
v -0.009326756 -0.03826618 -0.08031546
v -0.01026082 -0.04373503 -0.07615705
v -0.02481651 -0.04775143 -0.05399261
v -0.01866907 -0.03464746 -0.07486493
v -0.01751232 -0.03073692 -0.07747252
v -0.01636821 0.02219319 -0.06039654
v -0.009138644 -0.0477317 -0.07353778
v -0.02081752 -0.04726458 -0.0620451
v -0.01742631 -0.05149513 -0.060349
v -0.02704877 -0.04429412 -0.05640633
v -0.01595581 -0.05479604 -0.05562601
v -0.01824552 -0.05509442 -0.0490493
v -0.02722251 0.02078128 -0.01796532
v -0.01495671 -0.04921776 -0.06683391
v -0.04060411 -0.02382958 0.00516206
v -0.03737855 -0.02508712 0.01118282
v -0.01821125 0.01727462 -0.06538802
v -0.03649968 -0.01447093 0.0131519
v -0.03884631 -0.03085232 0.007554471
v -0.01235914 -0.02914321 -0.08203755
v -0.04004157 -0.03390479 0.003307343
v -0.01993418 -0.02200294 -0.07744107
v -0.01565057 -0.02446103 -0.08065909
v -0.01495111 0.02492726 -0.05689949
v -0.007950604 -0.03343821 -0.08342328
v -0.02529305 -0.0391345 -0.0653422
v -0.03971672 -0.03573918 0.001955077
v -0.0196889 -0.0392729 -0.07126446
v -0.03848541 -0.03570366 0.005967975
v -0.04039252 -0.03661489 -0.004417032
v -0.03679675 -0.0409317 0.0004123747
v -0.007904947 -0.02705228 -0.08549055
v -0.03331715 0.01516581 -0.02601279
v -0.04033321 0.005419016 2.048165e-05
v -0.004046381 -0.03458309 -0.0849916
v -0.01684892 -0.04350388 -0.07077898
v -0.005039454 -0.03093076 -0.08589904
v -0.03505713 -0.04354835 -0.005513594
v -0.03297663 0.01594794 -0.01384931
v -0.0330025 -0.0456872 -0.01230615
v -0.02274436 0.01460397 -0.06292032
v -0.01581961 0.006319284 -0.07638463
v -0.03467357 -0.04371488 -0.02230417
v -0.0153529 0.02654815 -0.05130878
v -0.03317785 0.0156908 -0.004677258
v -0.01646775 0.02652264 -0.04795619
v -0.03388661 0.0134449 0.00527817
v -0.02228767 0.01801777 -0.05850949
v -0.039644 0.001243114 0.005348697
v -0.007060945 -0.01120448 -0.08722137
f 1 2 3
f 4 5 6
f 7 4 6
f 4 8 5
f 9 10 11
f 12 9 11
f 13 14 3
f 15 9 12
f 16 17 18
f 15 12 19
f 15 20 21
f 22 15 21
f 23 22 21
f 22 23 24
f 25 22 24
f 26 25 24
f 27 25 26
f 13 18 14
f 28 29 30
f 31 27 26
f 32 27 31
f 16 28 33
f 32 31 34
f 4 32 34
f 29 35 36
f 4 34 8
f 37 38 39
f 40 38 37
f 41 38 40
f 42 41 40
f 43 42 44
f 45 43 46
f 47 45 46
f 10 45 47
f 10 47 11
f 48 49 50
f 51 48 52
f 53 51 52
f 54 51 53
f 55 56 57
f 58 59 60
f 61 54 62
f 61 62 63
f 64 65 66
f 67 68 69
f 70 64 66
f 38 64 70
f 71 21 20
f 39 38 70
f 72 56 55
f 73 49 74
f 49 73 50
f 49 75 74
f 76 77 78
f 75 7 79
f 80 75 79
f 74 75 80
f 81 7 82
f 83 7 81
f 84 40 85
f 79 7 83
f 86 47 87
f 82 7 6
f 78 88 89
f 79 83 82
f 66 65 90
f 65 61 90
f 90 61 63
f 62 54 91
f 91 54 53
f 92 86 93
f 52 48 94
f 94 48 50
f 46 43 44
f 44 42 84
f 95 72 55
f 42 40 84
f 20 15 19
f 96 97 98
f 96 99 97
f 98 97 100
f 101 84 85
f 102 59 58
f 100 97 103
f 104 105 106
f 107 108 109
f 100 103 110
f 111 31 112
f 104 113 105
f 106 105 99
f 113 114 105
f 106 99 115
f 108 116 109
f 110 103 117
f 113 95 114
f 118 11 47
f 103 119 117
f 115 99 120
f 119 121 117
f 120 99 122
f 114 95 123
f 119 124 121
f 119 125 124
f 122 99 96
f 126 127 128
f 127 129 128
f 127 130 129
f 116 92 93
f 127 131 130
f 132 133 67
f 134 135 136
f 135 78 136
f 131 137 130
f 58 60 127
f 134 136 123
f 134 123 57
f 131 108 137
f 137 108 138
f 138 108 107
f 57 123 55
f 138 107 125
f 78 89 136
f 58 127 126
f 89 128 136
f 111 34 31
f 125 107 139
f 55 123 95
f 125 139 124
f 89 126 128
f 140 122 96
f 141 142 73
f 143 59 102
f 143 71 59
f 144 92 116
f 140 96 145
f 146 68 147
f 145 148 140
f 140 148 142
f 149 70 66
f 78 77 88
f 145 96 98
f 118 47 86
f 67 69 150
f 151 132 67
f 152 34 111
f 153 85 132
f 145 154 148
f 155 156 157
f 145 158 154
f 149 146 147
f 44 84 101
f 159 160 155
f 161 118 86
f 157 63 162
f 149 147 70
f 158 163 164
f 142 50 73
f 142 148 50
f 148 94 50
f 158 98 165
f 158 165 163
f 158 145 98
f 154 158 166
f 148 167 94
f 166 53 52
f 167 148 154
f 147 39 70
f 167 52 94
f 168 21 71
f 167 166 52
f 167 154 166
f 158 164 166
f 126 102 58
f 164 163 169
f 95 170 72
f 95 113 170
f 72 170 171
f 172 86 92
f 72 171 173
f 166 164 53
f 170 174 171
f 170 113 174
f 164 169 53
f 165 98 100
f 171 5 173
f 155 160 175
f 113 176 174
f 165 100 163
f 176 113 104
f 160 177 178
f 179 11 118
f 162 63 62
f 179 12 11
f 171 6 5
f 109 153 132
f 168 71 143
f 156 155 180
f 110 181 100
f 143 102 126
f 176 104 182
f 100 181 163
f 171 174 6
f 181 110 183
f 157 156 63
f 174 176 184
f 121 124 177
f 175 180 155
f 124 150 177
f 63 156 90
f 163 181 169
f 174 82 6
f 176 182 184
f 182 104 185
f 89 143 126
f 160 178 175
f 174 184 82
f 185 186 182
f 180 175 187
f 182 186 184
f 188 168 143
f 109 132 151
f 172 92 144
f 117 159 110
f 183 110 159
f 189 112 76
f 189 76 135
f 156 180 190
f 161 86 172
f 156 190 90
f 181 191 169
f 181 183 191
f 184 79 82
f 185 104 106
f 169 91 53
f 175 178 146
f 189 111 112
f 168 23 21
f 135 76 78
f 169 162 91
f 183 155 191
f 184 186 79
f 180 187 192
f 180 192 190
f 131 116 108
f 185 106 115
f 185 115 193
f 177 69 178
f 177 150 69
f 186 80 79
f 175 146 187
f 117 160 159
f 185 193 186
f 169 191 162
f 183 159 155
f 194 168 188
f 117 121 160
f 178 68 146
f 186 74 80
f 190 66 90
f 190 192 66
f 186 193 74
f 193 115 195
f 191 155 157
f 178 69 68
f 195 115 120
f 196 172 144
f 187 149 192
f 197 101 85
f 193 195 74
f 195 120 198
f 187 146 149
f 121 177 160
f 191 157 162
f 195 73 74
f 139 150 124
f 89 188 143
f 198 141 195
f 198 120 122
f 195 141 73
f 196 161 172
f 87 44 101
f 192 149 66
f 198 122 140
f 199 12 179
f 198 140 142
f 198 142 141
f 162 62 91
f 116 197 109
f 67 133 68
f 139 67 150
f 200 168 194
f 200 23 168
f 59 71 201
f 107 109 151
f 85 40 132
f 179 118 161
f 112 202 76
f 60 203 127
f 116 93 197
f 76 202 77
f 204 111 189
f 112 31 26
f 133 205 68
f 72 173 56
f 59 199 60
f 86 87 93
f 59 201 199
f 77 194 88
f 132 37 133
f 127 203 196
f 71 20 201
f 87 46 44
f 68 205 147
f 132 40 37
f 87 47 46
f 56 204 57
f 77 202 200
f 88 194 89
f 112 26 202
f 107 151 139
f 201 20 19
f 173 34 56
f 133 37 205
f 202 24 200
f 197 85 153
f 56 152 204
f 60 199 161
f 134 189 135
f 173 8 34
f 144 116 131
f 77 200 194
f 139 151 67
f 37 39 205
f 197 153 109
f 57 189 134
f 205 39 147
f 199 19 12
f 60 161 203
f 127 196 131
f 152 111 204
f 56 34 152
f 202 26 24
f 57 204 189
f 131 196 144
f 89 194 188
f 201 19 199
f 93 87 101
f 199 179 161
f 24 23 200
f 93 101 197
f 203 161 196
