v -0.1164092 0.1868894 -0.2725448
v 0.1172023 0.1868933 -0.2725429
v -0.1164153 0.1868893 0.2725581
v 0.1172033 0.1868934 0.2725598
v -0.1164093 0.2024637 -0.2725448
v 0.1172024 0.2024677 -0.2725431
v -0.1164154 0.2024637 0.2725581
v 0.1172034 0.2024677 0.2725596
vt 0.00144958 0.180327
vt 0.00144973 0.82184
vt 0.998578 0.180322
vt 0.998578 0.180322
vt 0.00144973 0.82184
vt 0.998578 0.821854
vt 0.714389 1.01322
vt 0.287055 1.01321
vt 0.287055 1.05598
vt 0.714389 1.01322
vt 0.287055 1.05598
vt 0.714389 1.05599
vt 0.287051 1.01321
vt 0.714398 1.01322
vt 0.287051 1.05598
vt 0.287051 1.05598
vt 0.714398 1.01322
vt 0.714398 1.05599
vt 0.998578 0.180321
vt 0.998578 0.821854
vt 0.00144964 0.180327
vt 0.00144964 0.180327
vt 0.998578 0.821854
vt 0.00144953 0.82184
vt 0.841874 1.24846
vt 0.841874 -0.248423
vt 0.870363 1.24846
vt 0.870363 1.24846
vt 0.841874 -0.248423
vt 0.870364 -0.248424
vt 0.841867 -0.248423
vt 0.841867 1.24847
vt 0.870356 1.24847
vt 0.841867 -0.248423
vt 0.870356 1.24847
vt 0.870356 -0.248423
f 1/1 2/2 3/3
f 3/4 2/5 4/6
f 2/7 1/8 5/9
f 2/10 5/11 6/12
f 3/13 4/14 7/15
f 7/16 4/17 8/18
f 7/19 8/20 5/21
f 5/22 8/23 6/24
f 4/25 2/26 8/27
f 8/28 2/29 6/30
f 1/31 3/32 7/33
f 1/34 7/35 5/36
