v -0.04722154 -0.01622611 -0.01066348
v -0.04800022 -4.440546e-05 0.05634698
v -0.04689169 0.02819854 -0.0390493
v -0.01211178 -0.04077482 -0.04541031
v -0.03130788 -0.04141259 -0.0259746
v -0.00563103 -0.05353475 0.05634847
v 0.02959812 -0.04299808 0.05634907
v -0.04197013 -0.02924567 0.05634895
v 0.01678288 -0.05045384 0.05634812
v -0.04121602 0.02078462 0.05634692
v 0.004097402 0.04287231 0.05634865
v -0.003756464 0.05353475 -0.02701071
v -0.02036238 0.03865212 0.05634305
v 0.03537267 0.02721441 0.05634263
v 0.04514885 0.01109004 0.05634388
v 0.04800022 -0.009477377 0.0563446
v 0.04594111 0.007974744 -0.01965269
v 0.04777861 -0.01128912 -0.01703921
v 0.04090196 -0.03078735 0.05634579
v -0.04049778 -0.03138793 -0.0188593
v -0.04737389 -0.01453906 0.05634764
v -0.008238256 -0.04915994 -0.0330098
v -0.02911735 -0.04410279 0.05634812
v 0.0417223 0.002182722 -0.0368683
v 0.0426172 -0.01523906 -0.03478304
v -0.01392627 0.05192721 -0.03854898
v -0.0249663 0.04749244 -0.04095039
v -0.03964001 0.0374707 -0.04115322
v 0.02308464 0.03671968 0.05634376
v 0.03193957 0.03044981 -0.02026305
v -0.01778126 -0.05021811 -0.01983753
v 0.04053676 0.0196256 -0.02254513
v 0.04206622 -0.02763951 -0.02345052
v 0.002334893 -0.03999507 -0.04872444
v 0.01578856 -0.05048478 -0.02147982
v 0.02645278 -0.04204822 -0.03194657
v 0.03081977 -0.004417658 -0.05106285
v 0.02652907 0.01855147 -0.04723957
v 0.001154661 -0.0534274 -0.01909754
v 0.03454375 0.02229345 -0.03492776
v 0.03138995 -0.04196346 -0.0150508
v 0.0003644228 0.008639336 -0.05634907
v 0.01667869 0.01440525 -0.05343065
v 0.01896787 -0.01300949 -0.05626354
v -0.01914257 0.006494522 -0.05371585
v 0.0322156 -0.02338207 -0.04508439
f 1 2 3
f 4 5 3
f 6 7 8
f 7 6 9
f 2 10 3
f 10 2 8
f 11 12 13
f 10 11 13
f 14 11 15
f 7 11 8
f 11 10 8
f 16 17 15
f 17 16 18
f 11 16 15
f 16 11 7
f 16 19 18
f 19 16 7
f 1 20 8
f 5 20 3
f 20 1 3
f 2 21 8
f 21 1 8
f 1 21 2
f 4 22 5
f 23 6 8
f 20 23 8
f 23 20 5
f 24 17 18
f 25 24 18
f 12 26 13
f 26 27 13
f 28 10 13
f 27 28 13
f 10 28 3
f 29 11 14
f 11 29 12
f 30 29 14
f 29 30 12
f 22 31 5
f 31 23 5
f 23 31 6
f 32 30 14
f 32 14 15
f 17 32 15
f 24 32 17
f 19 33 18
f 33 25 18
f 34 22 4
f 22 34 35
f 34 36 35
f 37 24 25
f 24 37 38
f 39 22 35
f 39 31 22
f 31 39 6
f 9 39 35
f 6 39 9
f 40 24 38
f 40 32 24
f 32 40 30
f 30 40 12
f 26 40 38
f 40 26 12
f 41 19 7
f 41 33 19
f 33 41 36
f 36 41 35
f 41 9 35
f 41 7 9
f 42 43 44
f 37 43 38
f 43 37 44
f 43 26 38
f 26 43 27
f 43 42 27
f 45 28 27
f 42 45 27
f 28 45 3
f 45 4 3
f 45 34 4
f 45 42 44
f 34 45 44
f 46 37 25
f 37 46 44
f 33 46 25
f 46 33 36
f 34 46 36
f 46 34 44
