v -0.003295586 -0.01777637 -0.02688181
v 0.0001223832 -0.01910031 -0.02676621
v -0.002656862 -0.02081984 0.02688184
v -0.004096791 0.008077502 -0.02684277
v -0.003958777 0.01800358 0.02453321
v -0.003820792 0.01387 -0.02681804
v 0.003011867 0.01122338 -0.02658635
v -0.00410004 -0.0096187 -0.02596804
v 0.002962247 -0.007261992 0.02471
v 0.002928331 0.01042849 0.02475417
v 0.004006669 -0.005525231 0.01373914
v 0.004065827 0.01833248 -0.005441695
v -0.000501737 0.02067447 -0.003577501
v 0.002585486 0.01944971 0.02200639
v 0.003974989 -0.008015752 -0.013762
v -0.001547143 0.02013749 -0.005318195
v -0.001278386 0.02081978 0.01885405
v -0.003731117 -0.001721382 0.02449095
v 0.002681717 0.01740116 0.02476466
v 0.00389953 0.00927645 0.01194346
v 0.002560094 0.01529455 -0.02475655
v 0.002435938 -0.01311678 -0.0266692
v 0.003756866 0.0166496 -0.01553965
v -0.002479956 0.02020574 0.02127835
v -0.004093215 0.01511693 0.02452254
v 0.00410004 0.01628262 -0.0008610785
v 0.003204331 0.01826823 0.01927644
v -0.00161095 0.01596147 -0.02507806
v 0.001018837 0.01949322 -0.009630144
v -0.001862541 0.01848334 -0.01380906
f 1 2 3
f 4 5 6
f 1 4 2
f 7 4 6
f 4 7 2
f 8 1 3
f 8 4 1
f 2 9 3
f 9 10 3
f 10 9 11
f 12 13 14
f 15 9 2
f 9 15 11
f 5 16 6
f 13 17 14
f 16 17 13
f 18 8 3
f 5 19 14
f 19 5 3
f 10 19 3
f 20 10 11
f 21 7 6
f 7 22 2
f 22 15 2
f 15 22 7
f 23 15 7
f 15 23 12
f 21 23 7
f 24 5 14
f 17 24 14
f 24 16 5
f 24 17 16
f 18 25 8
f 4 25 5
f 8 25 4
f 5 25 3
f 25 18 3
f 26 20 11
f 15 26 11
f 26 15 12
f 27 19 10
f 20 27 10
f 26 27 20
f 19 27 14
f 27 12 14
f 27 26 12
f 28 21 6
f 29 23 21
f 28 29 21
f 12 29 13
f 23 29 12
f 30 16 13
f 29 30 13
f 30 29 28
f 16 30 6
f 30 28 6
