v 0.05276027 -0.0607819 -0.003947739
v 0.03133765 -0.06084108 0.02557385
v 0.05481759 -0.06083292 -0.0306288
v 0.04855189 0.01276439 0.0509628
v -0.05360714 -0.06084096 -0.006454829
v 0.0008207858 -0.06083769 0.03467041
v -0.02728251 -0.06083643 0.02798172
v 0.05393663 0.06012791 0.05267423
v 0.02893004 0.06084102 0.07468691
v 0.02608886 0.05683559 0.02891701
v -0.004703075 0.0563345 0.04122582
v -0.04629877 -0.06081098 0.009521838
v -0.02229288 -0.06084096 -0.07208186
v -0.02643052 0.02171183 -0.02216745
v -0.03778771 0.01534557 -0.007156912
v -0.05481759 -0.0323379 -0.02466324
v -0.05359021 -0.03624159 -0.01080266
v -0.04581967 -0.003461182 -0.0386608
v -0.0329586 0.002687395 -0.04882625
v -0.04971185 -0.02637815 -0.04382709
v -0.0385873 -0.02560574 -0.05901167
v -0.04419264 -0.06082338 -0.05389858
v -0.02588955 -0.04118574 -0.06908211
v 0.05420759 0.02292746 0.03642702
v 0.02324608 0.00410378 0.06202998
v 0.01226345 0.0489437 0.07516474
v 0.02441147 0.01931226 -0.03943402
v 0.008283049 0.02255374 -0.03834868
v 0.01018623 0.00848639 -0.05675251
v 0.02604464 -0.002444565 -0.06160611
v 0.05162129 -0.01749009 -0.02958799
v 0.04709056 -0.03945577 -0.0489505
v 0.0432274 0.002496779 -0.04178086
v 0.04031143 -0.06070685 -0.05880443
v -0.002054721 0.05410367 0.06875524
v -0.04680261 -0.02519965 0.006387081
v -0.01534441 0.02058917 -0.03562978
v -0.05341813 -0.06083703 -0.03571216
v -0.04726335 0.002406478 -0.01069817
v 0.02331254 -0.03046864 -0.07041579
v 0.02567557 -0.06083232 -0.06925261
v 0.01063189 -0.06083184 -0.07516474
v -0.0007242858 -0.01275438 -0.07196778
v 0.006238967 0.004580677 0.06348541
v 0.04245552 0.04826027 0.02040341
v 0.05136499 0.04920208 0.03145167
v 0.03419933 -0.02356821 -0.06221289
v -0.009021729 0.0125457 0.05775535
v -0.01457003 0.04263616 0.04802867
v 0.01021734 -0.02804571 -0.0742195
v -0.01174203 0.001388669 -0.06237907
v -0.02442834 -0.01447213 -0.06600046
v 0.03943297 0.01306754 -0.03466237
v 0.006101519 0.02536726 0.07023048
v -0.005282193 -0.0340398 -0.07493806
f 1 2 3
f 2 1 4
f 5 6 7
f 6 5 2
f 8 9 4
f 9 10 11
f 9 8 10
f 12 5 7
f 5 13 2
f 2 13 3
f 14 15 11
f 16 5 17
f 18 14 19
f 14 18 15
f 16 18 20
f 21 18 19
f 18 21 20
f 20 21 22
f 21 13 22
f 13 21 23
f 24 8 4
f 1 24 4
f 8 24 3
f 24 1 3
f 25 2 4
f 25 6 2
f 9 25 4
f 25 9 26
f 27 28 10
f 29 27 30
f 27 29 28
f 31 8 3
f 31 32 33
f 34 32 3
f 32 31 3
f 35 9 11
f 9 35 26
f 5 36 17
f 12 36 5
f 35 36 12
f 14 37 19
f 37 14 11
f 10 37 11
f 28 37 10
f 16 38 5
f 13 38 22
f 38 13 5
f 38 20 22
f 38 16 20
f 18 39 15
f 39 18 16
f 39 16 17
f 36 39 17
f 40 41 42
f 41 40 34
f 41 34 3
f 13 41 3
f 41 13 42
f 43 29 30
f 25 44 6
f 6 44 7
f 8 45 10
f 45 27 10
f 31 46 8
f 46 31 33
f 46 45 8
f 40 47 34
f 47 32 34
f 47 40 30
f 33 47 30
f 32 47 33
f 48 12 7
f 48 35 12
f 49 36 35
f 49 39 36
f 49 35 11
f 15 49 11
f 39 49 15
f 50 40 42
f 40 50 30
f 50 43 30
f 43 51 29
f 37 51 19
f 29 51 28
f 51 37 28
f 21 52 23
f 52 51 43
f 52 21 19
f 51 52 19
f 45 53 27
f 46 53 45
f 53 46 33
f 53 33 30
f 27 53 30
f 44 54 7
f 54 48 7
f 54 25 26
f 54 44 25
f 35 54 26
f 48 54 35
f 13 55 42
f 55 50 42
f 50 55 43
f 55 13 23
f 52 55 23
f 55 52 43
