v -0.002382904 -0.001667917 0.01795697
v 0.001174986 -0.006310403 0.0184285
v 0.0004930496 0.003732443 0.01740062
v -0.002356678 -0.002574027 -0.01787466
v 0.001222014 -0.006301582 -0.01749697
v -0.002245337 0.003588796 0.006362766
v -0.002270252 0.001163721 -0.01733059
v 0.00213933 -0.006324291 -0.01749474
v -0.002296925 0.001973689 0.01758361
v 0.00209105 -0.006331444 0.01842853
v 0.002382874 0.005771875 0.01074067
v 0.002350986 0.002786934 -0.01842853
v 0.002200335 0.003429294 0.01647973
v 0.002377391 0.004165888 -0.01395899
v 0.001484394 0.006331444 0.006998777
v -0.0003932416 0.003224611 -0.014781
v 0.001461208 0.004187107 -0.01396012
f 1 2 3
f 2 4 5
f 1 4 2
f 4 6 7
f 6 4 1
f 8 2 5
f 9 1 3
f 9 6 1
f 8 10 2
f 10 8 11
f 2 10 3
f 12 4 7
f 4 12 5
f 12 8 5
f 13 11 3
f 10 13 3
f 13 10 11
f 8 14 11
f 12 14 8
f 14 15 11
f 11 15 3
f 15 9 3
f 9 15 6
f 16 12 7
f 6 16 7
f 15 16 6
f 17 15 14
f 17 16 15
f 17 14 12
f 16 17 12
