v -0.002873361 0.02489752 0.02717143
v -0.00287351 0.0482164 -0.05270869
v -0.002873391 -0.04081407 -0.05035824
v -0.002666384 0.04822001 0.05486506
v 0.002873525 -0.01965857 -0.05855769
v -0.00272274 -0.03568754 0.02585727
v 0.002482787 0.04563591 -0.04977393
v 0.002704993 0.04705706 0.05100095
v -0.00268653 -0.0186722 0.04368973
v -0.002666861 -0.0007588267 0.05359769
v -0.00269872 -0.02934006 0.03379947
v 0.002689525 0.01781377 0.05375284
v -0.002672076 0.02371654 0.05855769
v 0.001707584 0.04821268 -0.05271691
v 0.0008952171 -0.005186319 0.04932868
v -0.002649903 0.01267102 0.05705637
v -0.002652436 0.03802803 0.05733919
v 0.00257358 -0.02780849 0.0295853
v 0.002629668 -0.005146056 0.04708534
v 0.00248529 -0.0358153 -0.05049384
v -0.001872629 -0.0470854 -0.003456593
v 0.0009158701 0.007224023 0.05395329
v 0.0009404719 0.03495914 0.05591005
v 0.0008540899 -0.02541667 0.03510147
v 0.002530485 -0.04300404 -0.0007736683
v 0.002502084 -0.04417816 -0.0245145
v 0.002674207 0.01157686 0.05268621
v 4.063547e-05 0.02064192 0.05677658
v 0.001833826 0.04736817 0.05218261
v 0.00254184 -0.03929973 0.01053077
v 0.0007885247 -0.04533133 -0.001705587
v 0.0008138567 -0.03962791 0.01499861
v 0.001729056 -0.01732448 0.04083735
v 0.002489701 -0.04329267 -0.03063822
v -0.001908422 -0.04821998 -0.02125251
v 0.002552047 -0.03296944 0.02260417
v -0.001860768 -0.0453212 0.004480302
v -0.001929164 -0.04551989 -0.0363003
v 0.0007778406 -0.04636717 -0.008824587
v 0.0007309914 -0.04302478 -0.03911465
v 0.0007545799 -0.04648677 -0.02307373
f 1 2 3
f 2 1 4
f 2 5 3
f 6 1 3
f 7 8 5
f 9 10 1
f 9 6 11
f 6 9 1
f 8 12 5
f 1 13 4
f 10 13 1
f 14 5 2
f 14 7 5
f 7 14 8
f 14 2 4
f 9 15 10
f 16 13 10
f 13 17 4
f 18 5 19
f 5 20 3
f 21 6 3
f 15 22 10
f 22 16 10
f 22 15 19
f 23 17 13
f 23 12 8
f 17 23 4
f 6 24 11
f 24 9 11
f 25 26 5
f 27 22 19
f 22 27 12
f 5 27 19
f 12 27 5
f 16 28 13
f 22 28 16
f 28 22 12
f 23 28 12
f 28 23 13
f 23 29 4
f 29 23 8
f 29 14 4
f 14 29 8
f 30 25 5
f 18 30 5
f 30 31 25
f 31 30 32
f 33 15 9
f 24 33 9
f 15 33 19
f 33 18 19
f 33 24 18
f 34 20 5
f 26 34 5
f 35 21 3
f 36 30 18
f 30 36 32
f 32 36 6
f 36 24 6
f 24 36 18
f 31 37 21
f 37 31 32
f 21 37 6
f 37 32 6
f 38 35 3
f 39 26 25
f 31 39 25
f 39 31 21
f 35 39 21
f 34 40 20
f 20 40 3
f 40 38 3
f 39 41 26
f 41 39 35
f 41 34 26
f 38 41 35
f 41 40 34
f 40 41 38
