v 0.01060422 -0.02844402 -0.1110383
v 0.01130087 -0.003879309 0.1208017
v -0.008378059 -0.0281713 0.1149768
v 0.004270777 0.01147896 -0.117587
v 0.0003048033 0.02844404 -0.08897936
v -0.0006894916 0.004397199 0.08496356
v -0.009569123 0.02010068 -0.07201517
v -0.01130087 -0.0141207 0.09630466
v 0.001272984 0.01937297 -0.1116198
v -0.002554812 -0.004960984 -0.1165413
v 0.003974766 0.003424704 0.1030866
v 0.004847497 -0.00237602 -0.1208017
v 0.0001244098 -0.02600311 -0.1030172
v -0.01086449 -0.01612259 0.09203351
v -0.009208083 -0.01862261 0.04212636
v -0.0006165355 0.02650538 -0.0976094
v -0.006880306 0.01776609 -0.1037663
v -0.005702913 -0.01816411 -0.08850712
v -0.01002888 0.002239943 -0.06982112
v -0.007923752 -0.006571352 -0.0850876
v -0.008561894 0.001364484 -0.09469754
f 1 2 3
f 2 1 4
f 5 2 4
f 6 5 7
f 8 6 7
f 9 5 4
f 10 9 4
f 5 11 2
f 11 5 6
f 8 11 6
f 2 11 3
f 11 8 3
f 1 12 4
f 12 10 4
f 10 12 1
f 13 10 1
f 13 1 3
f 14 15 3
f 8 14 3
f 5 16 7
f 9 16 5
f 17 9 10
f 16 17 7
f 17 16 9
f 13 18 10
f 15 18 3
f 18 13 3
f 19 8 7
f 14 19 15
f 19 14 8
f 19 18 15
f 18 19 20
f 21 17 10
f 18 21 10
f 21 18 20
f 19 21 20
f 17 21 7
f 21 19 7
