v -0.002237007 0.001539052 -0.02743094
v 0.002267882 -0.003225744 -0.02455537
v -0.002369925 -0.006573677 -0.02137782
v -0.002221897 0.002497196 -0.02586745
v -0.002369359 -0.006519914 0.01727338
v -0.00225468 0.0004954934 0.02694918
v -0.001453444 -0.006590128 -0.0213771
v 0.002251223 -0.004199862 0.02118112
v 0.002306446 -0.0008800626 -0.0259947
v -0.001350388 -0.000304997 0.02743094
v -0.001452461 -0.006533623 0.01727341
v -0.001305327 0.002481461 -0.0258684
v 0.002308205 -0.0007150173 0.02334221
v -0.001237437 0.006590068 -0.006886587
v -0.000380531 0.00305748 0.01890902
v 0.002365336 0.002779961 0.01152427
v 0.002369925 0.003001153 -0.01439719
v -0.002217278 0.002785444 0.0201665
v 0.0005682856 0.004981399 0.008044705
f 1 2 3
f 4 1 3
f 4 5 6
f 5 4 3
f 2 7 3
f 8 7 2
f 7 5 3
f 1 9 2
f 9 8 2
f 5 10 6
f 10 5 8
f 5 11 8
f 11 7 8
f 7 11 5
f 4 12 1
f 12 9 1
f 13 10 8
f 10 13 6
f 14 12 4
f 13 15 6
f 15 13 16
f 12 17 9
f 14 17 12
f 13 17 16
f 9 17 8
f 17 13 8
f 15 18 6
f 18 4 6
f 18 14 4
f 19 15 16
f 17 19 16
f 19 17 14
f 18 19 14
f 19 18 15
