v -0.006920159 -0.006939642 0.004040763
v 0.0003923774 -0.005662777 -0.01534669
v 0.006842673 -0.006938208 0.004411802
v -0.006285965 -5.381554e-05 0.01577373
v 0.004680514 0.003573857 0.01486991
v -0.005962431 0.005230047 0.0131328
v 0.006720424 0.006856598 0.01076184
v 0.006643593 0.0001254082 0.01501529
v 0.008165896 0.006128021 0.009064987
v 0.005541921 -0.001566499 -0.01527317
v 0.004303217 0.003363155 -0.01542793
v 0.006219029 -0.007145956 0.009247676
v 0.004748702 -0.001079284 0.01579894
v 0.005733907 -0.005248431 0.01363803
v -0.00600177 -0.005080078 0.01334147
v 0.003617823 -0.004832797 -0.01526777
v 0.008069336 -0.006317839 0.009210721
v 0.006896257 0.00662715 0.004138425
v -0.008166373 0.007146008 0.008852765
v -0.007428944 0.006865382 0.004673257
v -0.008158445 -0.007106867 0.009223863
v -0.003028452 -0.004627243 -0.0154895
v 0.007965147 -0.0002092272 0.002829894
v -0.0005796552 0.004613444 -0.01558952
v -0.003857017 0.002729312 -0.01565351
v 0.001961946 0.003048889 -0.01568116
v -0.007320285 0.001599178 0.01431547
v -0.008039117 -0.0008422062 0.002763018
v -0.00275439 0.002659969 -0.01576664
v 0.003997922 -0.002076596 -0.01551406
v -0.004744053 -0.00122451 -0.01561044
v -0.003173709 -0.002054688 -0.0157982
v -0.003162563 0.001009762 -0.01579891
v 0.004008889 0.0009859279 -0.01557545
v 0.0003998876 -0.004939463 -0.01551335
v 0.001933396 -0.004125144 -0.01553659
f 1 2 3
f 4 5 6
f 7 5 8
f 5 7 6
f 9 7 8
f 9 10 11
f 12 1 3
f 13 14 8
f 5 13 8
f 13 5 4
f 13 4 15
f 14 13 15
f 2 16 3
f 16 10 3
f 17 9 8
f 17 12 3
f 10 17 3
f 14 17 8
f 12 17 14
f 18 9 11
f 9 18 7
f 7 19 6
f 18 19 7
f 19 18 20
f 12 21 1
f 21 14 15
f 21 12 14
f 4 21 15
f 22 2 1
f 9 23 10
f 23 17 10
f 17 23 9
f 24 18 11
f 18 24 20
f 20 24 25
f 26 24 11
f 27 4 6
f 19 27 6
f 27 21 4
f 21 27 19
f 28 21 19
f 24 29 25
f 29 24 26
f 16 30 10
f 21 31 1
f 31 22 1
f 28 31 21
f 22 31 32
f 31 20 25
f 31 19 20
f 31 28 19
f 33 26 32
f 33 29 26
f 29 33 25
f 33 31 25
f 31 33 32
f 26 34 32
f 34 30 32
f 34 26 11
f 10 34 11
f 30 34 10
f 22 35 2
f 35 22 32
f 35 16 2
f 36 30 16
f 35 36 16
f 30 36 32
f 36 35 32
