v 0.01404408 -0.0193905 -0.02756537
v -0.004862785 -0.01905291 -0.02957593
v 0.01250347 -0.01936118 -0.03088404
v 0.004539013 -0.01925682 0.03291659
v -0.01282749 -0.0189482 0.03422479
v -0.01436776 -0.01891879 0.0309061
v -0.001974046 -0.02263205 0.01639016
v 0.001408249 -0.02169712 0.01741399
v -0.007674217 -0.02151995 0.01557903
v -0.01306903 -0.02243002 0.009066805
v -0.01556373 -0.02137881 -0.001983538
v -0.01158625 -0.0224463 -0.007809475
v -0.01473501 -0.02239755 0.00458549
v -0.01008895 -0.02146373 -0.01062416
v -0.002341092 -0.02260834 -0.01299991
v -0.0001753569 -0.02017277 0.0323046
v 0.01262301 -0.02288732 0.009062871
v 0.01219559 -0.02186995 0.01143697
v -0.009388328 -0.02000768 0.03085035
v -0.02643147 -0.01969632 0.01739158
v -0.02125075 -0.0187932 0.02510007
v -0.02906829 -0.0186476 0.01423927
v -0.03143603 -0.01860049 0.005598024
v 0.01453206 -0.02291643 0.0008532852
v -0.03075832 -0.01960938 0.0005742311
v -0.03127757 -0.01859807 -0.003360167
v -0.028606 -0.01864058 -0.011912
v -0.02523902 -0.01969823 -0.0158902
v 0.0127047 -0.02037853 -0.007452503
v 0.01486 -0.02041937 -0.003254965
v 0.01046121 -0.02182796 -0.00996913
v -0.02363634 -0.01872465 -0.01936717
v -0.01419044 -0.01888766 -0.02773921
v -0.01257235 -0.01991751 -0.02626486
v 0.009028912 -0.02030157 -0.02751078
v -0.01488853 -0.01235813 0.03010117
v -0.01501623 -0.009790272 0.02952592
v -0.0167177 -0.01208661 0.02749036
v -0.01489052 -0.01233566 -0.02675585
v -0.02394652 -0.01321843 -0.0188988
v -0.01737985 -0.01227204 -0.02356397
v -0.02658913 -0.01217406 -0.01355
v -0.02875948 -0.01313689 -0.01136892
v 0.01556 -0.02045002 0.02784303
v 0.0161958 -0.01946092 0.028652
v -0.03059098 -0.01211696 0.001199663
v -0.03126606 -0.01309711 -0.002790347
v -0.02983755 -0.01212706 0.004568309
v -0.03031552 -0.01312195 0.01052536
v 0.0284633 -0.02067083 0.01243411
v 0.02667004 -0.0196423 0.01821184
v -0.02760944 -0.01217256 0.01496188
v -0.02661642 -0.01319264 0.01866071
v 0.03023914 -0.0197011 0.009993881
v -0.02078331 -0.01330058 0.02543058
v 0.03135294 -0.01971582 0.001103833
v 0.02970818 -0.020683 -0.004886225
v 0.02992079 -0.01968516 -0.007740691
v -0.01503283 -0.009845298 -0.02616031
v 0.01602647 -0.0122312 -0.02476256
v 0.01756328 -0.01293309 -0.02329688
v 0.0147872 -0.01287107 -0.02676548
v 0.02605852 -0.01961166 -0.01582505
v 0.0150173 -0.01029253 -0.02617462
v 0.02132952 -0.02052499 -0.02009602
v 0.01479924 -0.01289756 0.03010421
v 0.02193162 -0.01405972 0.02432929
v 0.01729769 -0.01292191 0.02691634
v 0.02649671 -0.01313695 0.01689826
v 0.02587304 -0.01412769 0.01958616
v 0.02985698 -0.0141939 0.01158616
v 0.03049824 -0.01320523 0.002148613
v -0.02080974 -0.01329656 0.01929934
v -0.02035087 -0.01973283 0.01752125
v -0.01666984 -0.0133686 0.01647048
v 0.03143612 -0.01421677 0.002789304
v -0.01756632 -0.01979295 0.01625991
v -0.0160318 -0.01988255 0.02210043
v -0.02023494 -0.01973157 0.02131772
v -0.01744673 -0.01335811 0.02237703
v 0.02974549 -0.01318457 -0.001220062
v 0.03048334 -0.01419465 -0.006096974
v 0.02751732 -0.01313861 -0.01161353
v 0.0270755 -0.01412928 -0.0143586
v 0.02148664 -0.01402584 -0.02133147
v 0.01503018 -0.01041309 0.02951159
v -0.01503846 -0.01339844 0.01792301
v 0.01211619 -0.0203793 0.01163352
v 0.001274109 -0.02018961 0.0174302
v -0.01457378 -0.0199072 0.0197103
v 0.01492843 -0.02042622 0.006460622
v -0.01274285 -0.01891131 -0.03155269
v 0.01386625 -0.01942161 0.03107993
v 0.01241928 -0.01939818 0.03489338
v 0.006796628 -0.02027039 -0.01253693
v 0.003322542 -0.02171329 -0.01373892
v -0.001633465 -0.02011944 -0.01409076
v 0.01933181 -0.01650128 0.001742408
v 0.02141654 -0.01304036 0.005935624
v 0.02356136 -0.01657973 0.007046103
v 0.01939401 -0.01300182 0.001597881
v 0.02362204 -0.01307402 -0.003707066
v 0.02393991 -0.01658016 -0.003836587
v 0.02690834 -0.01313873 0.006834611
v 0.02658442 -0.01663354 0.007006332
v -0.03068537 -0.015611 0.002147838
v -0.02917165 -0.01563995 0.005526841
v -0.007155985 -0.02003851 0.01587644
v -0.0278289 -0.01216385 0.006446809
v -0.02387503 -0.01573518 0.007061556
v -0.0146679 -0.01990024 0.007901579
v -0.02700102 -0.01217279 -0.00348632
v -0.02976039 -0.01562541 -0.001437292
v -0.02829212 -0.01565388 0.002620921
v -0.02450469 -0.01572272 0.004970476
v -0.02839395 -0.01965264 0.002508491
v -0.02469203 -0.01971614 -0.001639947
v -0.02593508 -0.01569349 -0.001522616
v -0.02707592 -0.01967406 -0.001029745
v -0.02469108 -0.01971993 0.004986957
v -0.01591679 -0.01987337 0.0002201051
v -0.01324406 -0.01991662 -0.007235989
v 0.02754092 -0.02064705 -0.0001821667
v 0.02418134 -0.01658577 -0.001537189
v 0.02228743 -0.02055328 -0.0004817098
v 0.02174354 -0.02054557 0.002833113
v 0.02458543 -0.01659675 0.004979715
v 0.02614772 -0.02062507 0.004671514
v 0.02954373 -0.01668492 0.0047815
v 0.03046858 -0.01669932 0.00119631
v 0.0218288 -0.01654505 0.0004499853
v 0.02895498 -0.0166704 -0.002182588
v 0.02822167 -0.01665977 0.001971915
v 0.02760354 -0.01664754 -0.0001741201
v -0.0223369 -0.01976095 0.003449306
v -0.02186027 -0.01576523 -0.002835497
v -0.02179679 -0.01227114 0.006188378
v -0.01972657 -0.01230441 0.0001230091
v -0.0197883 -0.01580565 0.003229216
v -0.02098095 -0.01228082 -0.002114639
v -0.02188343 -0.015767 0.0009662807
f 1 2 3
f 4 5 6
f 7 8 9
f 7 9 10
f 11 12 13
f 11 14 12
f 12 14 15
f 4 6 16
f 8 7 17
f 17 18 8
f 6 19 16
f 6 20 19
f 6 21 20
f 21 22 20
f 22 23 20
f 24 18 17
f 23 25 20
f 23 26 25
f 26 27 25
f 27 28 25
f 24 29 30
f 31 29 24
f 27 32 28
f 32 33 28
f 33 34 28
f 33 2 34
f 2 35 34
f 36 37 38
f 39 40 41
f 40 42 41
f 40 43 42
f 4 16 44
f 45 4 44
f 43 46 42
f 43 47 46
f 47 48 46
f 47 49 48
f 45 44 50
f 51 45 50
f 49 52 48
f 49 53 52
f 54 51 50
f 53 55 52
f 55 38 52
f 56 54 50
f 55 36 38
f 56 50 57
f 58 56 57
f 39 41 59
f 60 61 62
f 63 58 57
f 62 64 60
f 63 57 65
f 66 67 68
f 1 63 65
f 67 69 68
f 67 70 69
f 1 65 35
f 70 71 69
f 71 72 69
f 2 1 35
f 73 74 75
f 71 76 72
f 74 77 75
f 78 79 80
f 80 79 73
f 76 81 72
f 76 82 81
f 82 83 81
f 82 84 83
f 84 85 83
f 79 74 73
f 85 61 83
f 85 62 61
f 66 68 86
f 87 73 75
f 88 89 8
f 88 8 18
f 87 80 73
f 90 78 80
f 87 90 80
f 91 88 18
f 91 18 24
f 77 90 87
f 75 77 87
f 91 24 30
f 6 5 36
f 92 33 39
f 1 3 62
f 93 45 66
f 94 93 66
f 95 29 31
f 38 37 41
f 95 31 96
f 97 95 96
f 41 37 59
f 68 61 60
f 68 60 86
f 60 64 86
f 31 24 96
f 24 12 15
f 24 7 12
f 98 99 100
f 101 99 98
f 102 101 103
f 103 101 98
f 24 15 96
f 24 17 7
f 99 104 100
f 12 7 13
f 13 7 10
f 100 104 105
f 46 48 106
f 106 48 107
f 89 9 8
f 89 108 9
f 108 10 9
f 48 109 107
f 107 109 110
f 108 111 10
f 112 46 113
f 113 46 106
f 111 13 10
f 114 115 116
f 117 118 119
f 116 115 120
f 111 121 13
f 121 11 13
f 121 122 11
f 118 114 119
f 119 114 116
f 122 14 11
f 122 97 14
f 123 124 125
f 97 15 14
f 126 127 128
f 97 96 15
f 129 72 130
f 124 131 125
f 125 131 126
f 104 72 129
f 132 102 103
f 131 127 126
f 6 36 55
f 21 6 55
f 81 102 132
f 105 104 129
f 21 55 53
f 22 21 53
f 130 81 132
f 72 81 130
f 22 53 49
f 23 22 49
f 129 130 133
f 105 133 127
f 23 49 47
f 26 23 47
f 105 127 100
f 130 134 133
f 130 132 134
f 27 26 47
f 27 47 43
f 127 98 100
f 127 131 98
f 32 27 43
f 32 43 40
f 134 132 103
f 134 103 124
f 33 32 40
f 33 40 39
f 131 124 98
f 77 108 90
f 117 121 135
f 124 103 98
f 25 116 20
f 126 50 91
f 129 133 105
f 88 44 89
f 136 112 113
f 91 50 88
f 137 138 139
f 140 112 136
f 110 137 139
f 138 140 136
f 139 138 136
f 35 97 34
f 88 50 44
f 78 20 79
f 109 137 110
f 65 57 29
f 121 111 135
f 110 141 115
f 116 120 20
f 139 136 141
f 110 115 107
f 78 19 20
f 115 114 107
f 89 16 19
f 141 136 118
f 114 106 107
f 29 57 30
f 35 95 97
f 118 136 113
f 114 113 106
f 135 111 120
f 114 118 113
f 139 141 110
f 2 33 92
f 65 95 35
f 28 97 122
f 90 19 78
f 45 94 4
f 57 50 123
f 34 97 28
f 108 19 90
f 77 74 20
f 120 77 20
f 25 117 119
f 4 94 5
f 111 77 120
f 28 122 25
f 123 50 128
f 45 93 94
f 119 116 25
f 102 83 61
f 25 122 117
f 102 61 101
f 101 61 68
f 65 29 95
f 81 83 102
f 89 19 108
f 72 104 69
f 30 125 91
f 69 104 99
f 99 101 68
f 57 125 30
f 69 99 68
f 89 44 16
f 45 67 66
f 125 126 91
f 74 79 20
f 45 51 67
f 111 108 77
f 51 70 67
f 51 54 70
f 54 71 70
f 54 56 71
f 56 76 71
f 57 123 125
f 56 58 76
f 58 82 76
f 128 50 126
f 122 121 117
f 58 63 82
f 63 84 82
f 63 85 84
f 127 133 128
f 63 1 85
f 134 124 123
f 1 62 85
f 128 133 123
f 38 137 52
f 133 134 123
f 52 137 109
f 141 118 117
f 120 115 135
f 115 141 135
f 52 109 48
f 38 138 137
f 38 41 138
f 138 41 140
f 135 141 117
f 140 41 42
f 140 42 112
f 3 2 92
f 112 42 46
