v 0.002871513 -0.002814144 2.66717e-06
v 0.001858443 -0.003281921 -0.003886625
v 7.459521e-05 0.005409747 -0.003924295
v -0.002871424 0.005652815 0.005980238
v -0.002871424 0.005649626 -0.005980328
v -0.002871335 -0.005651206 0.003999755
v 7.426739e-05 0.005412519 0.003925815
v -0.002869517 -0.005652994 -0.003994897
v 0.001197845 0.005319506 1.087647e-06
v -0.0008057654 -0.00450629 0.005938068
v -0.0008053482 -0.004508376 -0.005932644
v 0.001857251 -0.003280222 0.003891691
f 1 2 3
f 4 5 6
f 2 5 3
f 7 5 4
f 5 8 6
f 8 1 6
f 8 2 1
f 9 1 3
f 9 7 1
f 5 9 3
f 7 9 5
f 10 4 6
f 11 5 2
f 8 11 2
f 11 8 5
f 7 12 1
f 1 12 6
f 12 10 6
f 12 7 4
f 10 12 4
