v 0.0006125569 -0.005935043 0.005589902
v -0.001696587 -0.003889463 0.003783166
v 0.002575248 -0.0059325 -0.006859988
v -0.001697123 0.003888958 0.003781229
v -0.002575397 -1.183071e-07 0.003094196
v 0.0006123781 0.005935043 0.005587488
v -0.0008087456 -1.986395e-06 -0.00690186
v 0.0001839995 0.003796169 -0.006890893
v 0.002575248 -0.003996391 0.00690186
v 0.002575397 0.003998231 0.006900311
v 0.002575338 0.005927438 -0.006862074
v 0.0001838505 -0.003801367 -0.006889105
f 1 2 3
f 2 4 5
f 4 1 6
f 4 2 1
f 7 8 3
f 7 2 5
f 7 4 8
f 4 7 5
f 9 1 3
f 10 9 3
f 1 9 6
f 9 10 6
f 8 11 3
f 11 10 3
f 10 11 6
f 11 4 6
f 4 11 8
f 2 12 3
f 12 7 3
f 7 12 2
