v -0.0005418733 0.004793607 0.03861684
v -0.0005417839 -0.004625238 -0.03740919
v -0.0005418062 -0.004793607 0.03861818
v 0.0003263131 -0.004654743 0.03803772
v 0.0003268346 0.004654795 0.03803706
v -6.157905e-05 0.004533648 -0.03861821
v -0.0005415976 0.004612371 -0.03741005
v -6.233901e-05 -0.004546113 -0.03861749
v 0.0004359409 0.00463666 0.0377602
v 0.0005415902 0.004618235 0.03718621
v 0.0005418733 -0.004618265 0.0371865
v 0.0004365444 -0.004636206 0.03776115
f 1 2 3
f 2 4 3
f 5 1 3
f 4 5 3
f 1 5 6
f 7 1 6
f 7 2 1
f 2 8 4
f 8 7 6
f 7 8 2
f 9 10 6
f 5 9 6
f 8 11 4
f 10 11 6
f 11 8 6
f 11 12 4
f 12 5 4
f 12 9 5
f 9 12 10
f 12 11 10
