v -0.004725307 -0.003287047 0.03824401
v 0.004273519 -0.01906911 0.02873147
v 0.001824275 0.01906915 0.03906214
v 0.004908159 0.01575372 -0.02132034
v 0.0009941012 0.01045534 -0.03906208
v -0.0049081 0.005261213 -0.01974714
v 0.004009053 0.01487724 0.005137563
v 0.004885137 -0.01532702 0.02038896
v 0.001559094 -0.004124239 -0.00896728
v 0.003438562 -0.007744536 0.0006796718
f 1 2 3
f 4 5 3
f 5 6 3
f 6 1 3
f 1 6 2
f 7 4 3
f 7 8 4
f 2 8 3
f 8 7 3
f 9 6 5
f 6 9 2
f 4 10 5
f 8 10 4
f 10 9 5
f 10 8 2
f 9 10 2
