v 0.01541272 -0.01773155 0.04320148
v 0.01315729 -0.005470917 -0.04353756
v 0.01542531 -0.003480539 -0.0443033
v 0.01246697 0.0181358 0.04162756
v 0.01347998 -0.01919916 0.04245242
v -0.011979 -0.01494358 -0.03589144
v -0.01305519 -0.0155082 -0.03307772
v -0.01290295 -0.01537446 -0.03465256
v 0.008259863 -0.01040502 0.04332215
v 0.008649841 -0.01027086 0.0438388
v 0.01382992 -0.01899652 0.04297614
v 0.005889073 -0.0004189312 0.04331586
v 0.007005423 0.009758934 0.04295999
v 0.006602287 0.009781629 0.04243526
v -0.01471406 0.004679456 -0.03396419
v -0.01542526 -0.005521715 -0.03308347
v -0.00187625 0.01754992 -0.04088068
v 0.01215616 0.006329775 -0.04404616
v 0.008670002 0.01371202 -0.04356629
v -0.01098846 0.01409659 -0.0356316
v 0.01032668 0.01919918 0.0407683
v 0.01421408 -0.01872498 0.04324853
v 0.009650558 -0.00988853 0.04430342
v 0.01468591 -0.01837207 0.04346505
v -0.01003373 0.01291774 -0.03829479
v -0.01031274 0.01311436 -0.03815699
v -0.01087485 0.01367606 -0.03715876
v 0.006298661 -0.0003626198 0.04383364
v 0.01164424 0.01867032 0.0418402
v 0.007470384 0.009688631 0.04323179
v 0.008050948 0.009585381 0.04344881
v -0.0105107 0.0132896 -0.03790271
v -0.01249813 -0.01517391 -0.03544739
v -0.01522908 -0.005574569 -0.03465846
v -0.0142097 -0.005545363 -0.03589684
v 0.00677219 -0.0003128499 0.04409528
v 0.01070127 0.01910241 0.04130468
v -0.0122809 -0.0150734 -0.035725
v -0.01453723 -0.005565003 -0.03573018
v -0.01477741 -0.005572721 -0.0354529
v -0.01385918 0.004148021 -0.03656864
v 0.007363915 -0.0002551526 0.04429829
v 0.00909628 -0.01010348 0.04410034
v 0.0111226 0.01892154 0.04159674
v -0.01353908 0.004055038 -0.03672445
v -0.01453032 0.00443548 -0.03552169
v -0.01409204 0.004235357 -0.03629875
f 1 2 3
f 4 1 3
f 1 5 2
f 2 6 3
f 5 7 8
f 7 5 9
f 5 10 9
f 11 10 5
f 12 13 14
f 15 12 14
f 16 12 15
f 12 7 9
f 7 12 16
f 10 12 9
f 17 18 3
f 19 18 17
f 18 4 3
f 18 19 4
f 20 21 17
f 21 19 17
f 13 21 14
f 21 15 14
f 21 20 15
f 22 10 11
f 22 11 5
f 23 22 24
f 22 1 24
f 22 5 1
f 25 26 17
f 27 20 17
f 20 27 15
f 12 28 13
f 28 12 10
f 19 29 4
f 29 30 31
f 1 29 24
f 4 29 1
f 26 32 17
f 32 27 17
f 33 5 8
f 7 34 8
f 34 7 16
f 34 16 15
f 35 25 17
f 35 17 3
f 6 35 3
f 36 30 13
f 28 36 13
f 30 36 31
f 36 28 10
f 21 37 19
f 37 21 13
f 38 35 6
f 35 38 39
f 33 38 5
f 5 38 2
f 38 6 2
f 38 40 39
f 40 38 33
f 40 33 8
f 34 40 8
f 25 41 26
f 41 35 39
f 40 41 39
f 41 32 26
f 36 42 31
f 42 36 23
f 42 29 31
f 42 23 24
f 29 42 24
f 36 43 23
f 43 36 10
f 43 22 23
f 22 43 10
f 44 29 19
f 37 44 19
f 29 44 30
f 30 44 13
f 44 37 13
f 35 45 25
f 45 41 25
f 41 45 35
f 46 40 34
f 46 34 15
f 27 46 15
f 32 46 27
f 47 41 40
f 46 47 40
f 41 47 32
f 47 46 32
