v 0.2189307 -0.3203269 -0.0085
v -0.2189307 -0.3203269 -0.0085
v 0.2189307 0.3203269 -0.0085
v -0.2189307 0.3203269 -0.0085
v 0.2189307 -0.3203269 0.0085
v -0.2189307 -0.3203269 0.0085
v 0.2189307 0.3203269 0.0085
v -0.2189307 0.3203269 0.0085
vt 0.878571 -0.33152
vt 0.121429 -0.33152
vt 0.878571 1.33152
vt 0.878571 1.33152
vt 0.121429 -0.33152
vt 0.121429 1.33152
vt 0.485302 -0.068311
vt 0.485302 1.06831
vt 0.514698 1.06831
vt 0.485302 -0.068311
vt 0.514698 1.06831
vt 0.514698 -0.068311
vt 0.485302 1.06831
vt 0.485302 -0.068311
vt 0.514698 1.06831
vt 0.514698 1.06831
vt 0.485302 -0.068311
vt 0.514698 -0.068311
vt 0.878571 1.33152
vt 0.121429 1.33152
vt 0.878571 -0.33152
vt 0.878571 -0.33152
vt 0.121429 1.33152
vt 0.121429 -0.33152
vt 1.0539 0.477935
vt -0.0539041 0.477935
vt 1.0539 0.522065
vt 1.0539 0.522065
vt -0.0539041 0.477935
vt -0.0539041 0.522065
vt -0.0539041 0.477935
vt 1.0539 0.477935
vt 1.0539 0.522065
vt -0.0539041 0.477935
vt 1.0539 0.522065
vt -0.0539041 0.522065
f 1/1 2/2 3/3
f 3/4 2/5 4/6
f 2/7 1/8 5/9
f 2/10 5/11 6/12
f 3/13 4/14 7/15
f 7/16 4/17 8/18
f 7/19 8/20 5/21
f 5/22 8/23 6/24
f 4/25 2/26 8/27
f 8/28 2/29 6/30
f 1/31 3/32 7/33
f 1/34 7/35 5/36
