v 0.01186389 0.0102637 -0.04340281
v 0.01438373 0.008773878 -0.03816879
v 0.01237565 0.001021393 -0.04518327
v 0.01161849 0.008287489 -0.04529306
v 0.01441181 -0.008934103 -0.03805012
v 0.01211441 -0.008002378 -0.04509377
v 0.01121849 0.008427627 -0.03448784
v 0.0110535 -0.01058219 -0.03511019
v 0.01164818 -0.009071149 -0.03544734
v 0.01343757 -0.01032998 -0.03825407
v 0.01383251 -0.009133376 -0.03694694
v 0.01352805 0.009816244 -0.03728375
v 0.0114603 -0.009615317 -0.04480016
v 0.008705378 -0.0017922 -0.04523952
v 0.01145583 0.008484371 -0.0361319
v 0.01028264 -0.01187237 -0.03728287
v 0.008017063 -0.01058057 -0.04502238
v 0.01087403 0.01120513 -0.03579411
v 0.01108491 0.01032087 -0.03736031
v 0.008241415 0.01082943 -0.04471399
v 0.01127917 -0.001654372 -0.03671443
v 0.009483278 0.01034099 -0.04266627
v 0.008883834 -0.008567996 -0.0446461
v 0.007864773 0.006800734 -0.04605244
v 0.007864714 -0.006867394 -0.04604903
f 1 2 3
f 4 1 3
f 5 6 3
f 5 3 2
f 7 8 9
f 6 5 10
f 10 5 11
f 12 11 5
f 12 5 2
f 2 1 12
f 13 14 6
f 6 14 3
f 3 14 4
f 6 10 13
f 7 9 15
f 16 17 8
f 17 10 8
f 11 9 10
f 10 9 8
f 18 19 20
f 12 15 21
f 12 21 11
f 19 18 15
f 11 21 9
f 1 19 12
f 12 19 15
f 1 22 19
f 4 20 22
f 4 22 1
f 15 18 7
f 13 23 14
f 4 14 20
f 13 17 23
f 10 17 13
f 20 19 22
f 20 14 24
f 24 14 25
f 15 9 21
f 14 23 25
f 25 23 17
