v -0.002888799 0.03611818 -0.04041207
v 0.002888784 -0.02522597 -0.04356486
v -0.00288862 -0.03587991 -0.03947628
v -0.002888411 0.03612456 0.0435648
v 0.002682954 0.03614283 -0.03576034
v 0.002547979 0.03522694 0.03897566
v 0.002412945 0.007093132 0.03144932
v 0.002394125 -0.0150843 0.01443475
v 0.001711577 0.03527015 -0.03942531
v 0.0007914752 -0.03539097 -0.03906149
v 0.002647907 -0.03349915 -0.03349423
v 0.002479106 -0.02704281 -0.00521487
v 0.001616567 0.02842173 0.03920174
v -0.00282827 -0.01134196 0.02398121
v 0.0007030815 -0.02292222 0.006890059
v -0.002847046 -0.03614286 -0.03064877
v 0.0007086098 -0.01527971 0.01719248
v -0.002784044 -0.01908386 0.01575464
v 0.002501324 -0.02995747 -0.01406491
v -0.001027256 -0.03351524 -0.01583225
v -0.002819061 -0.02834168 0.001782179
v 0.001708344 0.003098637 0.03314811
v -0.002841413 -0.03408682 -0.0143469
v -0.0001494437 -0.02879146 -0.002581656
v -0.002819449 -0.002374232 0.0309878
v -0.002806574 0.009184539 0.03701061
v -0.002829731 0.02454025 0.04178089
v 0.001708791 0.004962981 0.03407276
f 1 2 3
f 4 1 3
f 2 5 6
f 5 4 6
f 4 5 1
f 7 2 6
f 7 8 2
f 9 2 1
f 5 9 1
f 9 5 2
f 2 10 3
f 11 10 2
f 8 12 2
f 12 11 2
f 4 13 6
f 14 4 3
f 15 12 8
f 10 16 3
f 17 14 18
f 17 15 8
f 15 17 18
f 12 19 11
f 19 20 11
f 20 10 11
f 20 16 10
f 14 21 18
f 21 15 18
f 17 22 14
f 7 22 8
f 22 17 8
f 23 14 3
f 23 21 14
f 16 23 3
f 20 23 16
f 24 19 12
f 24 20 19
f 15 24 12
f 21 24 15
f 24 23 20
f 23 24 21
f 22 25 14
f 25 22 26
f 14 25 4
f 25 26 4
f 26 27 4
f 27 13 4
f 22 28 26
f 28 27 26
f 27 28 13
f 13 28 6
f 28 7 6
f 28 22 7
