v 0.001881063 0.01822972 -0.03572579
v -0.004006922 -0.02154022 -0.02996241
v -0.004714459 0.01875937 -0.03433193
v 0.003885001 -0.02175677 0.001736671
v -0.00312072 -0.02174956 -0.02998507
v 0.0006684065 -0.01080459 0.03572579
v -0.004813313 -0.0097996 0.03106897
v 9.915233e-05 0.02103353 -0.03469843
v 0.002483904 -0.005425096 -0.03320201
v -0.004777938 0.01292467 -0.03366281
v 0.004329175 -0.01443255 0.001826897
v 0.004489988 -0.01296937 -0.006012589
v -0.001632005 -0.0001579523 0.02401493
v -0.0005266964 -0.003419638 0.03036551
v -0.000469625 0.008498669 0.01012942
v -0.003481597 0.0180043 -0.02016971
v -0.0006449521 0.01452863 -0.003667504
v 0.003395766 0.0148567 -0.003151938
v 0.001433372 0.01961136 -0.01856664
v -0.003032744 0.02175689 -0.03121588
v 0.004078329 -0.007466674 -0.01993293
v -0.00481388 0.01799488 -0.03327304
v 0.003414273 0.006302118 0.01501365
v 0.004577219 0.01317978 -0.009926274
v 0.002084047 -0.01088542 0.03254436
v 0.004599333 0.003200173 0.0112714
v 0.003164351 -0.005337596 0.02689461
v 0.004629046 0.006114125 0.01093617
v -0.003532082 -0.008759499 0.03412788
v 0.003078282 -0.005124152 -0.03050213
v 0.002704799 -0.004811108 0.02885221
v 0.00481388 0.01191807 -0.0002812743
v 0.00371024 0.01777971 -0.0188629
v 0.003485054 -0.0132522 0.01719318
v 0.00397408 0.01572752 -0.01869079
f 1 2 3
f 4 2 5
f 4 6 7
f 2 4 7
f 8 1 3
f 9 4 5
f 2 9 5
f 9 2 1
f 10 2 7
f 2 10 3
f 11 4 12
f 13 14 15
f 16 13 15
f 17 16 15
f 17 18 19
f 18 17 15
f 16 20 3
f 20 8 3
f 8 20 19
f 20 17 19
f 17 20 16
f 4 21 12
f 22 10 7
f 10 22 3
f 16 22 7
f 22 16 3
f 23 18 15
f 14 23 15
f 21 24 12
f 4 25 6
f 26 11 12
f 27 26 28
f 29 16 7
f 29 13 16
f 13 29 14
f 6 29 7
f 14 29 6
f 30 9 1
f 9 30 4
f 30 21 4
f 31 23 14
f 31 14 6
f 31 27 28
f 23 31 28
f 25 31 6
f 31 25 27
f 32 23 28
f 23 32 18
f 24 32 12
f 32 26 12
f 26 32 28
f 18 33 19
f 32 33 18
f 33 32 24
f 33 8 19
f 8 33 1
f 34 26 27
f 26 34 11
f 11 34 4
f 34 25 4
f 25 34 27
f 30 35 21
f 35 24 21
f 35 33 24
f 35 30 1
f 33 35 1
