v -0.003256023 -0.009066045 -0.007591724
v -0.002871811 0.008579671 0.009116828
v -0.003101289 0.008577585 -0.008526623
v 0.003257513 -0.009128094 -0.006748438
v -0.002109051 -0.00907287 0.009109318
v -0.001943082 0.008572072 0.009104431
v -0.002877951 -0.00862655 0.00867933
v -0.003258854 -0.008138686 -0.008522213
v 0.003258824 -0.006341964 -0.008606493
v -0.0003115535 0.007620573 -0.007634103
v -0.001335591 0.009128094 -0.009116769
f 1 2 3
f 1 4 5
f 6 2 5
f 4 6 5
f 2 7 5
f 7 1 5
f 1 7 2
f 8 1 3
f 1 8 4
f 9 6 4
f 6 9 10
f 8 9 4
f 11 6 10
f 9 11 10
f 2 11 3
f 6 11 2
f 11 8 3
f 11 9 8
