v -0.0009289235 0.005108804 0.00370878
v -0.001857921 0.002320409 -0.02229297
v -0.001857996 0.005108446 0.02229309
v 0.001857027 0.005109876 0.009287059
v -0.001857191 -0.005109727 -0.02136326
v 0.001857191 0.000464201 -0.02229232
v 0.001856923 -0.003249645 -0.02136445
v 0.001857996 0.001393437 0.01299578
v -2.384186e-07 0.002319247 -0.02229309
v 0.001857713 -0.003249586 -0.006494105
v -0.001857966 -0.001393646 0.01114708
v -0.001857594 0.004178673 0.02229238
v -0.001856238 -0.005109876 -0.005564272
v 0.001857162 0.005109668 0.01857364
v 1.385808e-06 -0.002319992 0.006493151
v -0.0009278208 -0.005109161 -0.005565166
f 1 2 3
f 4 1 3
f 5 6 7
f 6 5 2
f 8 6 4
f 9 6 2
f 6 9 4
f 1 9 2
f 9 1 4
f 6 10 7
f 8 10 6
f 11 8 12
f 11 12 3
f 11 5 13
f 2 11 3
f 5 11 2
f 14 4 3
f 14 8 4
f 12 14 3
f 8 14 12
f 15 10 8
f 11 15 8
f 15 16 10
f 10 16 7
f 16 11 13
f 16 15 11
f 16 5 7
f 5 16 13
