v 0.003699034 0.01089969 -0.01347315
v -0.001246691 -0.01272646 -0.01287812
v -0.002986997 0.01151624 -0.01267552
v 0.0005657375 -0.01238057 -0.01309383
v 0.003650039 -0.01237515 0.01272887
v -0.003699034 0.003357977 -0.01138783
v -0.00262168 0.01100427 0.01347315
v 0.001836419 -0.01272061 0.01294476
v -0.003683984 0.009896338 -0.001173854
v 0.003685981 0.01272646 -0.0106619
v 0.0008926094 0.01169488 0.01211625
v 3.612041e-05 0.01179951 0.01346928
f 1 2 3
f 2 4 5
f 4 1 5
f 1 4 2
f 2 6 3
f 7 6 2
f 8 2 5
f 8 7 2
f 9 7 3
f 6 9 3
f 9 6 7
f 1 10 5
f 10 11 5
f 10 1 3
f 11 12 5
f 12 8 5
f 8 12 7
f 10 12 11
f 7 12 3
f 12 10 3
