v -5.307794e-05 -0.01418015 -0.02555341
v -0.002390712 0.02001241 -0.02939427
v 0.003773957 0.02206104 -0.02909315
v 0.004033267 0.01355448 0.02342147
v 0.002019703 0.02225877 0.005423665
v 0.00153771 0.01731807 0.02037138
v 0.002365381 0.02386259 -0.01252568
v -0.004010648 0.02105837 -0.003398418
v -0.002985835 0.01412721 0.02276134
v 0.001988024 -0.02386257 0.02939427
v -0.003721356 0.02171332 -0.01374829
v -0.004018098 0.01953684 0.007083595
v -0.003086537 -0.002424523 -0.02395928
v -0.003702313 0.003077865 -0.02766562
v -0.004015744 0.003479034 -0.02398098
v -0.004085958 -0.008463874 0.01855797
v 0.002695888 -0.001587436 -0.02661377
v 0.0008343458 -0.01384589 -0.02543926
v 0.001958132 -0.02346647 0.01695317
v 0.00357905 -0.01486301 0.02553344
v -0.00300777 0.01592439 -0.02900398
v -0.004055202 0.01675254 -0.01323628
v -0.002922714 -0.01302162 0.02571857
v -0.003193229 0.01490358 0.0217216
v 0.004085958 0.01052916 0.02281535
v 0.004033446 0.01826435 -0.02865815
v -0.00406599 0.02010988 0.004199505
v 0.0002150834 -0.02265799 0.02703595
v 0.001072854 -0.023862 0.01698673
f 1 2 3
f 4 5 6
f 2 7 3
f 5 7 8
f 7 4 3
f 7 5 4
f 4 9 10
f 9 4 6
f 11 7 2
f 7 11 8
f 5 12 6
f 13 14 1
f 14 13 15
f 13 16 15
f 16 13 1
f 17 18 1
f 19 18 17
f 20 19 17
f 20 4 10
f 19 20 10
f 21 11 2
f 21 14 15
f 1 21 2
f 14 21 1
f 11 22 8
f 16 22 15
f 22 21 15
f 21 22 11
f 9 23 10
f 16 24 12
f 24 9 6
f 12 24 6
f 24 23 9
f 23 24 16
f 20 25 4
f 26 20 17
f 26 1 3
f 26 17 1
f 26 25 20
f 4 26 3
f 25 26 4
f 27 16 12
f 27 22 16
f 22 27 8
f 27 5 8
f 27 12 5
f 23 28 10
f 29 19 10
f 28 29 10
f 18 29 1
f 29 18 19
f 29 28 23
f 29 16 1
f 29 23 16
