v 0.006605264 -0.002945013 -0.07808924
v 0.006478969 0.006764337 -0.08165473
v 0.006640684 -0.01675681 0.08165479
v -0.004936937 0.01675681 0.04108286
v -0.005113088 -0.01254183 0.07215762
v 0.00418942 -0.01673331 -0.06582248
v -0.004369624 -0.009192444 -0.05875117
v -0.006111991 -0.01257801 -0.02519351
v -0.006640684 0.002955645 0.02420884
v -0.006353501 0.003263958 -0.04663098
v -0.006032381 0.0008643717 0.05620772
v -0.005019385 0.01626559 -0.002241731
v -0.006583046 0.002724595 0.001657963
v -0.005646884 0.01380298 0.0227704
v -0.005683016 0.01332989 0.03955227
v -0.006288644 0.01095831 0.02528214
f 1 2 3
f 4 5 3
f 2 4 3
f 6 1 3
f 5 6 3
f 7 2 1
f 6 7 1
f 8 6 5
f 8 7 6
f 9 8 5
f 7 10 2
f 8 10 7
f 4 11 5
f 11 9 5
f 12 4 2
f 10 12 2
f 13 8 9
f 13 10 8
f 12 14 4
f 15 11 4
f 16 12 10
f 16 14 12
f 13 16 10
f 16 13 9
f 11 16 9
f 15 16 11
f 14 16 4
f 16 15 4
