v 0.003741533 -0.006860256 -0.01460952
v 0.003741562 -0.006861955 0.01417923
v 0.002934843 -0.007166773 0.01481026
v 0.003740489 0.002426744 -0.01461118
v 0.003740877 0.007068664 -0.008106589
v -0.003741592 0.007166773 -0.01481026
v 0.0009537041 -0.006859988 -0.01461059
v -0.003689677 0.006139815 -0.009964824
v 0.001882762 0.007068872 0.01417965
v 0.003741533 0.007069051 0.01417899
v 0.002810061 0.007071346 -0.01275033
v 0.001882702 0.002423346 0.01417851
v -0.002760708 0.001496524 -0.01367873
f 1 2 3
f 1 4 5
f 6 4 1
f 7 1 3
f 7 6 1
f 8 9 6
f 10 9 3
f 2 10 3
f 6 10 5
f 9 10 6
f 10 1 5
f 10 2 1
f 11 6 5
f 4 11 5
f 11 4 6
f 9 12 3
f 12 8 3
f 8 12 9
f 7 13 6
f 13 8 6
f 13 7 3
f 8 13 3
