v 0.001879022 -0.002349347 0.01170707
v 0.002805948 -0.005135149 0.008918762
v 0.002794847 0.0115962 0.01170605
v -0.001840353 -0.001426458 0.009853661
v 0.001866579 -0.008859366 0.001490355
v 0.002805948 0.01165974 0.009900212
v 0.002805963 -0.0005188882 -0.01171207
v 0.002781346 -0.01165539 -0.007792175
v 0.001844943 -0.01165977 -0.0115068
v -0.002786726 -0.006083071 -0.001279056
v -0.002775237 0.005070686 0.01077765
v -0.002805963 -0.005159676 -0.0105719
v 0.001829997 0.0004151165 -0.01058686
v -0.002768695 0.001357049 0.01171207
v -0.002804056 -0.007947832 -0.0115003
v -0.001865402 -0.0088723 -0.007784486
v 0.001858652 0.01158077 0.009836197
f 1 2 3
f 1 4 2
f 4 5 2
f 2 6 3
f 7 6 2
f 7 8 9
f 8 7 2
f 5 8 2
f 10 5 4
f 10 11 12
f 13 7 12
f 13 6 7
f 14 10 4
f 10 14 11
f 1 14 4
f 14 1 3
f 11 14 3
f 15 10 12
f 15 7 9
f 7 15 12
f 16 8 5
f 10 16 5
f 8 16 9
f 16 15 9
f 15 16 10
f 17 13 12
f 13 17 6
f 11 17 12
f 17 11 3
f 6 17 3
