v 0.003740013 -0.0176506 0.02134562
v -0.002842158 -0.02024692 0.01699173
v 0.001641095 -0.02025354 -0.02108753
v -0.002427131 -0.01697922 0.02075973
v 0.004031509 0.008215785 0.02132273
v 0.003468096 0.02032244 -0.02073389
v 0.003175855 -0.005539179 -0.02070981
v 0.004346192 0.01771605 -0.01970789
v -0.00245899 0.00975728 0.02070364
v -0.002903342 0.005625546 0.02066964
v 0.002114475 0.01318043 0.01428568
v 0.0009405315 0.01611948 0.005611926
v 0.0007546842 -0.02032244 -0.02090999
v -0.001385838 -0.01857251 0.01979455
v 0.004369766 -0.01645231 0.02046606
v 0.001295745 0.01215434 0.01773125
v -0.001189739 0.01957917 -0.02117282
v -0.002598315 0.01805574 -0.02130458
v 0.001101613 0.01849806 -0.005553067
v -0.003076732 0.01754367 -0.003621995
v -0.002897471 0.01235723 0.01505673
v 0.004205823 0.00821352 0.01947054
v -0.003124565 0.01806629 -0.01575369
v -0.0001506507 0.01911974 -0.01284084
v -0.003435612 -0.008997858 -0.02133086
v -0.003400713 -0.01850265 0.01600155
v -0.004369736 -0.01070762 -0.004621267
v -0.00427866 -0.01330096 0.004715294
v -0.003620625 0.01376033 0.006590843
v -0.00353387 -0.006067276 -0.02134565
v -0.003622085 0.01635319 -0.003671616
v -0.003356546 0.01116508 0.01408082
v -0.004129291 -0.004851103 -0.009274691
f 1 2 3
f 4 1 5
f 6 7 3
f 8 6 5
f 8 7 6
f 4 9 10
f 9 4 5
f 6 11 5
f 12 11 6
f 2 13 3
f 14 2 1
f 4 14 1
f 14 4 2
f 1 15 5
f 8 15 7
f 15 1 3
f 7 15 3
f 16 11 12
f 16 9 5
f 11 16 5
f 17 6 3
f 18 17 3
f 19 12 6
f 19 20 12
f 20 21 12
f 21 16 12
f 16 21 9
f 22 8 5
f 15 22 5
f 22 15 8
f 23 17 18
f 17 23 20
f 24 17 20
f 19 24 20
f 17 24 6
f 24 19 6
f 13 25 3
f 26 4 10
f 4 26 2
f 25 26 27
f 26 13 2
f 26 25 13
f 28 26 10
f 26 28 27
f 29 21 20
f 28 29 27
f 30 18 3
f 25 30 3
f 30 23 18
f 30 25 27
f 29 31 27
f 23 31 20
f 31 29 20
f 29 32 21
f 9 32 10
f 21 32 9
f 32 28 10
f 32 29 28
f 33 30 27
f 30 33 23
f 31 33 27
f 33 31 23
