v 0.0004495382 0.01220161 0.01869231
v 0.001408517 0.01220137 -0.01886129
v -0.001408368 0.01220226 0.0186916
v -0.001408488 0.01194265 -0.0184586
v -0.001408368 -0.01194358 0.01886129
v 0.001379073 0.01107186 -0.01009083
v 0.0004481077 -0.01220223 -0.01828998
v -0.001408279 -0.01220167 -0.01828843
v -0.0004804134 -0.0119431 0.01886106
v 0.000449717 0.006629199 0.01873213
v 0.0004490614 -0.01213181 -0.008071721
f 1 2 3
f 2 4 3
f 4 5 3
f 2 6 7
f 1 6 2
f 8 2 7
f 8 4 2
f 4 8 5
f 9 10 5
f 10 1 3
f 5 10 3
f 10 6 1
f 6 11 7
f 10 11 6
f 11 10 9
f 11 9 5
f 11 8 7
f 8 11 5
