v -2.500001 -2.500001 -2.099668e-08
v -2.250001 -2.500001 6.329702e-08
v -2.250001 -2.250001 6.329702e-08
v -2.500001 -2.250001 -2.099668e-08
v -2.000001 -2.250001 -2.099668e-08
v -2.250001 -2.000001 6.329702e-08
v -2.500001 -2.000001 -2.099668e-08
v -2.000001 -2.000001 -2.099668e-08
v -2.000001 -2.500001 -2.099668e-08
v -1.500001 -2.500001 6.329702e-08
v -1.250001 -2.500001 1.054439e-07
v -1.250001 -2.250001 1.054439e-07
v -1.500001 -2.250001 -2.099668e-08
v -1 -2.500001 1.475907e-07
v -1 -2.250001 1.054439e-07
v -1.250001 -2.000001 1.054439e-07
v -1 -2.000001 1.054439e-07
v -1.500001 -2.000001 -2.099668e-08
v -0.5000003 -2.500001 -1.263638e-07
v -0.2500002 -2.500001 -7.368024e-08
v -0.2500002 -2.250001 -7.368024e-08
v -0.5000002 -2.250001 -8.421696e-08
v 0 -2.500001 5.082989e-08
v 0 -2.250001 5.082989e-08
v -0.2500002 -2.000001 -7.368024e-08
v -0.5000002 -2.000001 -8.421696e-08
v 0 -2.000001 5.082989e-08
v 0.5000002 -2.500001 -6.314353e-08
v 0.7500003 -2.500001 2.115017e-08
v 0.7500003 -2.250001 2.115017e-08
v 0.5000002 -2.250001 -8.421696e-08
v 1 -2.500001 1.475907e-07
v 1 -2.250001 1.054439e-07
v 0.7500004 -2.000001 6.329702e-08
v 0.5000002 -2.000001 -8.421696e-08
v 1 -2.000001 1.054439e-07
v 1.500001 -2.500001 6.329702e-08
v 1.750001 -2.500001 6.329702e-08
v 1.750001 -2.250001 6.329702e-08
v 1.500001 -2.250001 -2.099668e-08
v 2.000001 -2.500001 -2.099668e-08
v 2.000001 -2.250001 -2.099668e-08
v 1.750001 -2.000001 6.329702e-08
v 1.500001 -2.000001 -2.099668e-08
v 2.000001 -2.000001 -2.099668e-08
v 2.250001 -2.000001 6.329702e-08
v 2.250001 -1.750001 6.329702e-08
v 2.000001 -1.750001 -2.099668e-08
v 2.500001 -2.000001 -2.099668e-08
v 2.500001 -1.750001 -2.099668e-08
v 2.250001 -1.500001 -2.099668e-08
v 2.000001 -1.500001 -1.052904e-07
v 2.500001 -1.500001 -1.895841e-07
v 1.250001 -2.000001 1.054439e-07
v 1.25 -1.750001 6.329702e-08
v 1 -1.750001 6.329702e-08
v 1.500001 -1.750001 -2.099668e-08
v 1.250001 -1.500001 6.329702e-08
v 1 -1.500001 6.329702e-08
v 1.500001 -1.500001 -1.052904e-07
v 0.2500001 -2.000001 4.22236e-08
v 0.2500001 -1.750001 4.22236e-08
v 2.980233e-08 -1.750001 2.102756e-08
v 0.5000002 -1.750001 -6.314353e-08
v 0.2500002 -1.500001 2.115017e-08
v -8.940699e-08 -1.500001 2.102756e-08
v 0.5000002 -1.500001 4.22236e-08
v -0.7500004 -2.000001 6.329702e-08
v -0.7500004 -1.750001 6.329702e-08
v -1 -1.750001 6.329702e-08
v -0.5000002 -1.750001 -6.314353e-08
v -0.7500004 -1.500001 6.329702e-08
v -1 -1.500001 6.329702e-08
v -0.5000002 -1.500001 4.22236e-08
v -1.750001 -2.000001 6.329702e-08
v -1.750001 -1.750001 6.329702e-08
v -2.000001 -1.750001 -2.099668e-08
v -1.500001 -1.750001 -2.099668e-08
v -1.750001 -1.500001 6.329702e-08
v -2.000001 -1.500001 -2.099668e-08
v -1.500001 -1.500001 6.329702e-08
v -2.500001 -1.500001 -2.099668e-08
v -2.250001 -1.500001 6.329702e-08
v -2.250001 -1.250001 -2.099668e-08
v -2.500001 -1.250001 -2.099668e-08
v -2.000001 -1.25 -1.895841e-07
v -2.250001 -1 -2.099668e-08
v -2.500001 -1 -2.099668e-08
v -2.000001 -1 -2.099668e-08
v -1.250001 -1.500001 6.329702e-08
v -1.250001 -1.250001 6.329702e-08
v -1.500001 -1.250001 -2.099668e-08
v -1 -1.250001 6.329702e-08
v -1.250001 -1 6.329702e-08
v -1.500001 -1 -2.099668e-08
v -1 -1 6.329702e-08
v -0.2500001 -1.500001 3.168688e-08
v -0.25 -1.250001 4.22236e-08
v -0.5000002 -1.250001 -4.207011e-08
v 1.490116e-08 -1.250001 3.592872e-08
v -0.2500001 -1 7.674572e-11
v -0.5000002 -1 -4.207011e-08
v 1.816765e-08 -1 3.266224e-08
v 0.7500004 -1.500001 6.329702e-08
v 0.7500004 -1.250001 6.329702e-08
v 0.5000002 -1.250001 -4.207011e-08
v 1 -1.250001 6.329702e-08
v 0.7500004 -1 6.329702e-08
v 0.5000002 -1 -4.207011e-08
v 1 -1 6.329702e-08
v 1.750001 -1.500001 -2.099668e-08
v 1.750001 -1.25 -1.052904e-07
v 1.500001 -1.250001 -2.099668e-08
v 2.000001 -1.250001 -1.895841e-07
v 1.750001 -1 6.329702e-08
v 1.500001 -1 -2.099668e-08
v 2.000001 -1 -2.099668e-08
v 2.250001 -1 -2.099668e-08
v 2.250001 -0.7500004 -2.099668e-08
v 2.000001 -0.7500003 -2.099668e-08
v 2.500001 -1 -2.099668e-08
v 2.500001 -0.7500005 -1.895841e-07
v 2.250001 -0.5000001 6.329702e-08
v 2.000001 -0.5000003 -1.052904e-07
v 2.500001 -0.5000003 -2.099668e-08
v 1.250001 -1 6.329702e-08
v 1.250001 -0.7500004 6.329702e-08
v 1 -0.7500005 6.329702e-08
v 1.500001 -0.7500004 -2.099668e-08
v 1.250001 -0.5000001 6.329702e-08
v 1 -0.5000001 6.329702e-08
v 1.500001 -0.5000003 -1.052904e-07
v 0.2500001 -1 7.674572e-11
v 0.2500001 -0.7500004 3.168688e-08
v -4.47035e-08 -0.7500004 3.592872e-08
v 0.5000002 -0.7500003 2.115017e-08
v 0.2500001 -0.5000001 3.168688e-08
v -4.47035e-08 -0.5000001 3.592872e-08
v 0.5000002 -0.5000003 -2.099668e-08
v -0.7500004 -1 6.329702e-08
v -0.7500004 -0.7500004 6.329702e-08
v -1 -0.7500004 6.329702e-08
v -0.5000002 -0.7500005 -4.207011e-08
v -0.7500004 -0.5000001 6.329702e-08
v -1 -0.5000001 6.329702e-08
v -0.5000002 -0.5000001 7.674572e-11
v -1.750001 -1 6.329702e-08
v -1.750001 -0.7500005 6.329702e-08
v -2.000001 -0.7500003 -2.099668e-08
v -1.500001 -0.7500004 -1.052904e-07
v -1.750001 -0.5000003 -1.052904e-07
v -2.000001 -0.5000003 -1.052904e-07
v -1.500001 -0.5000003 -1.052904e-07
v -2.500001 -0.5000003 -1.052904e-07
v -2.250001 -0.5000003 -1.052904e-07
v -2.250001 -0.25 6.329702e-08
v -2.500001 -0.2500001 -2.099668e-08
v -2.000001 -0.2500001 -1.052904e-07
v -2.250001 0 6.329702e-08
v -2.500001 -8.42937e-08 -2.099668e-08
v -2.000001 -8.42937e-08 -2.099668e-08
v -1.250001 -0.5000001 6.329702e-08
v -1.250001 -0.25 2.115017e-08
v -1.500001 -0.2500001 -1.052904e-07
v -1 -0.25 6.329702e-08
v -1.250001 0 6.329702e-08
v -1.500001 0 -2.099668e-08
v -1 0 2.115017e-08
v -0.2500001 -0.5000001 3.168688e-08
v -0.2500001 -0.2500001 4.22236e-08
v -0.5000002 -0.2500001 -2.099668e-08
v 2.980233e-08 -0.25 2.102756e-08
v -0.2500001 0 -4.207011e-08
v -0.5000002 0 4.22236e-08
v 0 0 2.102756e-08
v 0.7500004 -0.5000001 6.329702e-08
v 0.7500004 -0.25 2.115017e-08
v 0.5000002 -0.25 4.22236e-08
v 1 -0.25 6.329702e-08
v 0.7500004 0 6.329702e-08
v 0.5000002 0 4.22236e-08
v 1 0 2.115017e-08
v 1.750001 -0.5000001 6.329702e-08
v 1.750001 -0.25 6.329702e-08
v 1.500001 -0.25 -2.099668e-08
v 2.000001 -0.25 6.329702e-08
v 1.750001 0 6.329702e-08
v 1.500001 0 -2.099668e-08
v 2.000001 8.42937e-08 -2.099668e-08
v 2.250001 0 6.329702e-08
v 2.250001 0.25 6.329702e-08
v 2.000001 0.2500001 -1.052904e-07
v 2.500001 8.42937e-08 -2.099668e-08
v 2.500001 0.2500001 -2.099668e-08
v 2.250001 0.5000003 -1.052904e-07
v 2.000001 0.5000003 -1.052904e-07
v 2.500001 0.5000003 -1.052904e-07
v 1.250001 0 6.329702e-08
v 1.500001 0.2500001 -1.052904e-07
v 1.250001 0.25 2.115017e-08
v 1 0.25 6.329702e-08
v 1.250001 0.5000001 6.329702e-08
v 1 0.5000001 6.329702e-08
v 1.500001 0.5000003 -1.052904e-07
v 0.2500001 0 -4.207011e-08
v 0.2500001 0.2500001 4.22236e-08
v -2.980233e-08 0.25 2.102756e-08
v 0.5000002 0.2500001 -2.099668e-08
v 0.2500001 0.5000001 3.168688e-08
v 4.47035e-08 0.5000001 3.592872e-08
v 0.5000002 0.5000001 7.674572e-11
v -0.7500004 0 6.329702e-08
v -0.7500004 0.25 2.115017e-08
v -1 0.25 6.329702e-08
v -0.5000002 0.25 4.22236e-08
v -0.7500004 0.5000001 6.329702e-08
v -1 0.5000001 6.329702e-08
v -0.5000002 0.5000003 -2.099668e-08
v -1.750001 0 6.329702e-08
v -1.750001 0.25 6.329702e-08
v -2.000001 0.25 6.329702e-08
v -1.500001 0.25 -2.099668e-08
v -1.750001 0.5000001 6.329702e-08
v -2.000001 0.5000003 -1.052904e-07
v -1.500001 0.5000003 -1.052904e-07
v -2.500001 0.5000003 -2.099668e-08
v -2.250001 0.5000001 6.329702e-08
v -2.250001 0.7500004 -2.099668e-08
v -2.500001 0.7500005 -1.895841e-07
v -2.000001 0.7500003 -2.099668e-08
v -2.250001 1 -2.099668e-08
v -2.500001 1 -2.099668e-08
v -2.000001 1 -2.099668e-08
v -1.250001 0.5000001 6.329702e-08
v -1.250001 0.7500004 6.329702e-08
v -1.500001 0.7500004 -2.099668e-08
v -1 0.7500005 6.329702e-08
v -1.250001 1 6.329702e-08
v -1.500001 1 -2.099668e-08
v -1 1 6.329702e-08
v -0.2500001 0.5000001 3.168688e-08
v -0.2500001 0.7500004 3.168688e-08
v -0.5000002 0.7500003 2.115017e-08
v 4.47035e-08 0.7500004 3.592872e-08
v -0.2500001 1 7.674572e-11
v -0.5000002 1 -4.207011e-08
v -1.816765e-08 1 3.266224e-08
v 0.7500004 0.5000001 6.329702e-08
v 0.7500004 0.7500004 6.329702e-08
v 0.5000002 0.7500005 -4.207011e-08
v 1 0.7500004 6.329702e-08
v 0.7500004 1 6.329702e-08
v 0.5000002 1 -4.207011e-08
v 1 1 6.329702e-08
v 1.750001 0.5000003 -1.052904e-07
v 1.750001 0.7500005 6.329702e-08
v 1.500001 0.7500004 -1.052904e-07
v 2.000001 0.7500003 -2.099668e-08
v 1.750001 1 6.329702e-08
v 1.500001 1 -2.099668e-08
v 2.000001 1 -2.099668e-08
v 2.250001 1 -2.099668e-08
v 2.250001 1.250001 -2.099668e-08
v 2.000001 1.25 -1.895841e-07
v 2.500001 1 -2.099668e-08
v 2.500001 1.250001 -2.099668e-08
v 2.250001 1.500001 6.329702e-08
v 2.000001 1.500001 -2.099668e-08
v 2.500001 1.500001 -2.099668e-08
v 1.250001 1 6.329702e-08
v 1.250001 1.250001 6.329702e-08
v 1 1.250001 6.329702e-08
v 1.500001 1.250001 -2.099668e-08
v 1.250001 1.500001 6.329702e-08
v 1 1.500001 6.329702e-08
v 1.500001 1.500001 6.329702e-08
v 0.2500001 1 7.674572e-11
v 0.25 1.250001 4.22236e-08
v -1.490116e-08 1.250001 3.592872e-08
v 0.5000002 1.250001 -4.207011e-08
v 0.2500001 1.500001 3.168688e-08
v 8.940699e-08 1.500001 2.102756e-08
v 0.5000002 1.500001 4.22236e-08
v -0.7500004 1 6.329702e-08
v -0.7500004 1.250001 6.329702e-08
v -1 1.250001 6.329702e-08
v -0.5000002 1.250001 -4.207011e-08
v -0.7500004 1.500001 6.329702e-08
v -1 1.500001 6.329702e-08
v -0.5000002 1.500001 4.22236e-08
v -1.750001 1 6.329702e-08
v -1.750001 1.25 -1.052904e-07
v -2.000001 1.250001 -1.895841e-07
v -1.500001 1.250001 -2.099668e-08
v -1.750001 1.500001 -2.099668e-08
v -2.000001 1.500001 -1.052904e-07
v -1.500001 1.500001 -1.052904e-07
v -2.500001 1.500001 -1.895841e-07
v -2.250001 1.500001 -2.099668e-08
v -2.250001 1.750001 6.329702e-08
v -2.500001 1.750001 -2.099668e-08
v -2.000001 1.750001 -2.099668e-08
v -2.250001 2.000001 6.329702e-08
v -2.500001 2.000001 -2.099668e-08
v -2.000001 2.000001 -2.099668e-08
v -1.250001 1.500001 6.329702e-08
v -1.25 1.750001 6.329702e-08
v -1.500001 1.750001 -2.099668e-08
v -1 1.750001 6.329702e-08
v -1.250001 2.000001 1.054439e-07
v -1.500001 2.000001 -2.099668e-08
v -1 2.000001 1.054439e-07
v -0.2500002 1.500001 2.115017e-08
v -0.2500001 1.750001 4.22236e-08
v -0.5000002 1.750001 -6.314353e-08
v -2.980233e-08 1.750001 2.102756e-08
v -0.2500001 2.000001 4.22236e-08
v -0.5000002 2.000001 -8.421696e-08
v 0 2.000001 5.082989e-08
v 0.7500004 1.500001 6.329702e-08
v 0.7500004 1.750001 6.329702e-08
v 0.5000002 1.750001 -6.314353e-08
v 1 1.750001 6.329702e-08
v 0.7500004 2.000001 6.329702e-08
v 0.5000002 2.000001 -8.421696e-08
v 1 2.000001 1.054439e-07
v 1.750001 1.500001 6.329702e-08
v 1.750001 1.750001 6.329702e-08
v 1.500001 1.750001 -2.099668e-08
v 2.000001 1.750001 -2.099668e-08
v 1.750001 2.000001 6.329702e-08
v 1.500001 2.000001 -2.099668e-08
v 2.000001 2.000001 -2.099668e-08
v 2.250001 2.000001 6.329702e-08
v 2.250001 2.250001 6.329702e-08
v 2.000001 2.250001 -2.099668e-08
v 2.500001 2.000001 -2.099668e-08
v 2.500001 2.250001 -2.099668e-08
v 2.250001 2.500001 6.329702e-08
v 2.000001 2.500001 -2.099668e-08
v 2.500001 2.500001 -2.099668e-08
v 1.250001 2.000001 1.054439e-07
v 1.250001 2.250001 1.054439e-07
v 1 2.250001 1.054439e-07
v 1.500001 2.250001 -2.099668e-08
v 1.250001 2.500001 1.054439e-07
v 1 2.500001 1.475907e-07
v 1.500001 2.500001 6.329702e-08
v 0.2500002 2.000001 -7.368024e-08
v 0.2500002 2.250001 -7.368024e-08
v 0 2.250001 5.082989e-08
v 0.5000002 2.250001 -8.421696e-08
v 0.2500002 2.500001 -7.368024e-08
v 0 2.500001 5.082989e-08
v 0.5000003 2.500001 -1.263638e-07
v -0.7500004 2.000001 6.329702e-08
v -0.7500003 2.250001 2.115017e-08
v -1 2.250001 1.054439e-07
v -0.5000002 2.250001 -8.421696e-08
v -0.7500003 2.500001 2.115017e-08
v -1 2.500001 1.475907e-07
v -0.5000002 2.500001 -6.314353e-08
v -1.750001 2.000001 6.329702e-08
v -1.750001 2.250001 6.329702e-08
v -2.000001 2.250001 -2.099668e-08
v -1.500001 2.250001 -2.099668e-08
v -1.750001 2.500001 6.329702e-08
v -2.000001 2.500001 -2.099668e-08
v -1.500001 2.500001 6.329702e-08
vt -2 -2
vt -1.75 -2
vt -1.75 -1.75
vt -2 -2
vt -1.75 -1.75
vt -2 -1.75
vt -1.75 -2
vt -1.5 -1.75
vt -1.75 -1.75
vt -2 -1.75
vt -1.75 -1.75
vt -1.75 -1.5
vt -2 -1.75
vt -1.75 -1.5
vt -2 -1.5
vt -1.75 -1.75
vt -1.5 -1.75
vt -1.5 -1.5
vt -1.75 -1.75
vt -1.5 -1.5
vt -1.75 -1.5
vt -1.75 -2
vt -1.5 -2
vt -1.5 -1.75
vt -1 -2
vt -0.750001 -2
vt -0.750001 -1.75
vt -1 -2
vt -0.750001 -1.75
vt -1 -1.75
vt -0.750001 -2
vt -0.5 -2
vt -0.5 -1.75
vt -0.750001 -2
vt -0.5 -1.75
vt -0.750001 -1.75
vt -1 -1.75
vt -0.750001 -1.75
vt -0.750001 -1.5
vt -0.750001 -1.75
vt -0.5 -1.75
vt -0.5 -1.5
vt -0.750001 -1.75
vt -0.5 -1.5
vt -0.750001 -1.5
vt -1 -1.75
vt -0.750001 -1.5
vt -1 -1.5
vt -2.98023e-07 -2
vt 0.25 -2
vt 0.25 -1.75
vt -2.98023e-07 -2
vt 0.25 -1.75
vt -2.38419e-07 -1.75
vt 0.25 -2
vt 0.5 -2
vt 0.5 -1.75
vt 0.25 -2
vt 0.5 -1.75
vt 0.25 -1.75
vt -2.38419e-07 -1.75
vt 0.25 -1.75
vt 0.25 -1.5
vt -2.38419e-07 -1.75
vt 0.25 -1.5
vt -2.38419e-07 -1.5
vt 0.25 -1.75
vt 0.5 -1.75
vt 0.5 -1.5
vt 0.25 -1.75
vt 0.5 -1.5
vt 0.25 -1.5
vt 1 -2
vt 1.25 -2
vt 1.25 -1.75
vt 1 -2
vt 1.25 -1.75
vt 1 -1.75
vt 1.25 -2
vt 1.5 -2
vt 1.5 -1.75
vt 1.25 -2
vt 1.5 -1.75
vt 1.25 -1.75
vt 1 -1.75
vt 1.25 -1.75
vt 1.25 -1.5
vt 1 -1.75
vt 1.25 -1.5
vt 1 -1.5
vt 1.25 -1.75
vt 1.5 -1.75
vt 1.5 -1.5
vt 1.25 -1.75
vt 1.5 -1.5
vt 1.25 -1.5
vt 2 -2
vt 2.25 -2
vt 2.25 -1.75
vt 2 -2
vt 2.25 -1.75
vt 2 -1.75
vt 2.25 -2
vt 2.5 -2
vt 2.5 -1.75
vt 2.25 -2
vt 2.5 -1.75
vt 2.25 -1.75
vt 2 -1.75
vt 2.25 -1.75
vt 2.25 -1.5
vt 2 -1.75
vt 2.25 -1.5
vt 2 -1.5
vt 2.25 -1.75
vt 2.5 -1.75
vt 2.5 -1.5
vt 2.25 -1.75
vt 2.5 -1.5
vt 2.25 -1.5
vt 2.5 -1.5
vt 2.75 -1.5
vt 2.75 -1.25
vt 2.5 -1.5
vt 2.75 -1.25
vt 2.5 -1.25
vt 2.75 -1.5
vt 3 -1.5
vt 3 -1.25
vt 2.75 -1.5
vt 3 -1.25
vt 2.75 -1.25
vt 2.5 -1.25
vt 2.75 -1.25
vt 2.75 -1
vt 2.5 -1.25
vt 2.75 -1
vt 2.5 -1
vt 2.75 -1.25
vt 3 -1.25
vt 3 -1
vt 2.75 -1.25
vt 3 -1
vt 2.75 -1
vt 1.5 -1.5
vt 1.75 -1.5
vt 1.75 -1.25
vt 1.5 -1.5
vt 1.75 -1.25
vt 1.5 -1.25
vt 1.75 -1.5
vt 2 -1.5
vt 2 -1.25
vt 1.75 -1.5
vt 2 -1.25
vt 1.75 -1.25
vt 1.5 -1.25
vt 1.75 -1.25
vt 1.75 -1
vt 1.5 -1.25
vt 1.75 -1
vt 1.5 -1
vt 1.75 -1.25
vt 2 -1.25
vt 2 -1
vt 1.75 -1.25
vt 2 -1
vt 1.75 -1
vt 0.5 -1.5
vt 0.75 -1.5
vt 0.75 -1.25
vt 0.5 -1.5
vt 0.75 -1.25
vt 0.5 -1.25
vt 0.75 -1.5
vt 1 -1.5
vt 1 -1.25
vt 0.75 -1.5
vt 1 -1.25
vt 0.75 -1.25
vt 0.5 -1.25
vt 0.75 -1.25
vt 0.75 -1
vt 0.5 -1.25
vt 0.75 -1
vt 0.5 -1
vt 0.75 -1.25
vt 1 -1.25
vt 1 -1
vt 0.75 -1.25
vt 1 -1
vt 0.75 -1
vt -0.5 -1.5
vt -0.25 -1.5
vt -0.25 -1.25
vt -0.5 -1.5
vt -0.25 -1.25
vt -0.5 -1.25
vt -0.25 -1.5
vt -2.38419e-07 -1.5
vt -2.38419e-07 -1.25
vt -0.25 -1.5
vt -2.38419e-07 -1.25
vt -0.25 -1.25
vt -0.5 -1.25
vt -0.25 -1.25
vt -0.25 -1
vt -0.5 -1.25
vt -0.25 -1
vt -0.5 -1
vt -0.25 -1.25
vt -2.38419e-07 -1.25
vt -2.38419e-07 -1
vt -0.25 -1.25
vt -2.38419e-07 -1
vt -0.25 -1
vt -1.5 -1.5
vt -1.25 -1.5
vt -1.25 -1.25
vt -1.5 -1.5
vt -1.25 -1.25
vt -1.5 -1.25
vt -1.25 -1.5
vt -1 -1.5
vt -1 -1.25
vt -1.25 -1.5
vt -1 -1.25
vt -1.25 -1.25
vt -1.5 -1.25
vt -1.25 -1.25
vt -1.25 -1
vt -1.5 -1.25
vt -1.25 -1
vt -1.5 -1
vt -1.25 -1.25
vt -1 -1.25
vt -1 -1
vt -1.25 -1.25
vt -1 -1
vt -1.25 -1
vt -2 -1
vt -1.75 -1
vt -1.75 -0.750001
vt -2 -1
vt -1.75 -0.750001
vt -2 -0.750001
vt -1.75 -1
vt -1.5 -1
vt -1.5 -0.75
vt -1.75 -1
vt -1.5 -0.75
vt -1.75 -0.750001
vt -2 -0.750001
vt -1.75 -0.750001
vt -1.75 -0.5
vt -2 -0.750001
vt -1.75 -0.5
vt -2 -0.5
vt -1.75 -0.750001
vt -1.5 -0.75
vt -1.5 -0.5
vt -1.75 -0.750001
vt -1.5 -0.5
vt -1.75 -0.5
vt -1 -1
vt -0.750001 -1
vt -0.750001 -0.750001
vt -1 -1
vt -0.750001 -0.750001
vt -1 -0.750001
vt -0.750001 -1
vt -0.5 -1
vt -0.5 -0.750001
vt -0.750001 -1
vt -0.5 -0.750001
vt -0.750001 -0.750001
vt -1 -0.750001
vt -0.750001 -0.750001
vt -0.750001 -0.5
vt -1 -0.750001
vt -0.750001 -0.5
vt -1 -0.5
vt -0.750001 -0.750001
vt -0.5 -0.750001
vt -0.5 -0.5
vt -0.750001 -0.750001
vt -0.5 -0.5
vt -0.750001 -0.5
vt -2.38419e-07 -1
vt 0.25 -1
vt 0.25 -0.750001
vt -2.38419e-07 -1
vt 0.25 -0.750001
vt -2.38419e-07 -0.750001
vt 0.25 -1
vt 0.5 -1
vt 0.5 -0.750001
vt 0.25 -1
vt 0.5 -0.750001
vt 0.25 -0.750001
vt -2.38419e-07 -0.750001
vt 0.25 -0.750001
vt 0.25 -0.5
vt -2.38419e-07 -0.750001
vt 0.25 -0.5
vt -2.38419e-07 -0.5
vt 0.25 -0.750001
vt 0.5 -0.750001
vt 0.5 -0.5
vt 0.25 -0.750001
vt 0.5 -0.5
vt 0.25 -0.5
vt 1 -1
vt 1.25 -1
vt 1.25 -0.750001
vt 1 -1
vt 1.25 -0.750001
vt 1 -0.750001
vt 1.25 -1
vt 1.5 -1
vt 1.5 -0.750001
vt 1.25 -1
vt 1.5 -0.750001
vt 1.25 -0.750001
vt 1 -0.750001
vt 1.25 -0.750001
vt 1.25 -0.5
vt 1 -0.750001
vt 1.25 -0.5
vt 1 -0.5
vt 1.25 -0.750001
vt 1.5 -0.750001
vt 1.5 -0.5
vt 1.25 -0.750001
vt 1.5 -0.5
vt 1.25 -0.5
vt 2 -1
vt 2.25 -1
vt 2.25 -0.75
vt 2 -1
vt 2.25 -0.75
vt 2 -0.750001
vt 2.25 -1
vt 2.5 -1
vt 2.5 -0.750001
vt 2.25 -1
vt 2.5 -0.750001
vt 2.25 -0.75
vt 2 -0.750001
vt 2.25 -0.75
vt 2.25 -0.5
vt 2 -0.750001
vt 2.25 -0.5
vt 2 -0.5
vt 2.25 -0.75
vt 2.5 -0.750001
vt 2.5 -0.5
vt 2.25 -0.75
vt 2.5 -0.5
vt 2.25 -0.5
vt 2.5 -0.5
vt 2.75 -0.5
vt 2.75 -0.25
vt 2.5 -0.5
vt 2.75 -0.25
vt 2.5 -0.25
vt 2.75 -0.5
vt 3 -0.5
vt 3 -0.25
vt 2.75 -0.5
vt 3 -0.25
vt 2.75 -0.25
vt 2.5 -0.25
vt 2.75 -0.25
vt 2.75 -5.96046e-08
vt 2.5 -0.25
vt 2.75 -5.96046e-08
vt 2.5 -2.98023e-07
vt 2.75 -0.25
vt 3 -0.25
vt 3 -2.98023e-07
vt 2.75 -0.25
vt 3 -2.98023e-07
vt 2.75 -5.96046e-08
vt 1.5 -0.5
vt 1.75 -0.5
vt 1.75 -0.25
vt 1.5 -0.5
vt 1.75 -0.25
vt 1.5 -0.25
vt 1.75 -0.5
vt 2 -0.5
vt 2 -0.25
vt 1.75 -0.5
vt 2 -0.25
vt 1.75 -0.25
vt 1.5 -0.25
vt 1.75 -0.25
vt 1.75 -5.96046e-08
vt 1.5 -0.25
vt 1.75 -5.96046e-08
vt 1.5 -5.96046e-08
vt 1.75 -0.25
vt 2 -0.25
vt 2 -2.98023e-07
vt 1.75 -0.25
vt 2 -2.98023e-07
vt 1.75 -5.96046e-08
vt 0.5 -0.5
vt 0.75 -0.5
vt 0.75 -0.25
vt 0.5 -0.5
vt 0.75 -0.25
vt 0.5 -0.25
vt 0.75 -0.5
vt 1 -0.5
vt 1 -0.25
vt 0.75 -0.5
vt 1 -0.25
vt 0.75 -0.25
vt 0.5 -0.25
vt 0.75 -0.25
vt 0.75 -5.96046e-08
vt 0.5 -0.25
vt 0.75 -5.96046e-08
vt 0.5 -5.96046e-08
vt 0.75 -0.25
vt 1 -0.25
vt 1 -2.98023e-07
vt 0.75 -0.25
vt 1 -2.98023e-07
vt 0.75 -5.96046e-08
vt -0.5 -0.5
vt -0.25 -0.5
vt -0.25 -0.25
vt -0.5 -0.5
vt -0.25 -0.25
vt -0.5 -0.25
vt -0.25 -0.5
vt -2.38419e-07 -0.5
vt -2.38419e-07 -0.25
vt -0.25 -0.5
vt -2.38419e-07 -0.25
vt -0.25 -0.25
vt -0.5 -0.25
vt -0.25 -0.25
vt -0.25 -5.96046e-08
vt -0.5 -0.25
vt -0.25 -5.96046e-08
vt -0.5 -5.96046e-08
vt -0.25 -0.25
vt -2.38419e-07 -0.25
vt -2.38419e-07 -5.96046e-08
vt -0.25 -0.25
vt -2.38419e-07 -5.96046e-08
vt -0.25 -5.96046e-08
vt -1.5 -0.5
vt -1.25 -0.5
vt -1.25 -0.25
vt -1.5 -0.5
vt -1.25 -0.25
vt -1.5 -0.25
vt -1.25 -0.5
vt -1 -0.5
vt -1 -0.25
vt -1.25 -0.5
vt -1 -0.25
vt -1.25 -0.25
vt -1.5 -0.25
vt -1.25 -0.25
vt -1.25 -2.98023e-07
vt -1.5 -0.25
vt -1.25 -2.98023e-07
vt -1.5 -2.98023e-07
vt -1.25 -0.25
vt -1 -0.25
vt -1 -2.98023e-07
vt -1.25 -0.25
vt -1 -2.98023e-07
vt -1.25 -2.98023e-07
vt -2 -2.98023e-07
vt -1.75 -2.98023e-07
vt -1.75 0.25
vt -2 -2.98023e-07
vt -1.75 0.25
vt -2 0.25
vt -1.75 -2.98023e-07
vt -1.5 -2.98023e-07
vt -1.5 0.25
vt -1.75 -2.98023e-07
vt -1.5 0.25
vt -1.75 0.25
vt -2 0.25
vt -1.75 0.25
vt -1.75 0.5
vt -2 0.25
vt -1.75 0.5
vt -2 0.5
vt -1.75 0.25
vt -1.5 0.25
vt -1.5 0.5
vt -1.75 0.25
vt -1.5 0.5
vt -1.75 0.5
vt -1 -2.98023e-07
vt -0.750001 -5.96046e-08
vt -0.750001 0.25
vt -1 -2.98023e-07
vt -0.750001 0.25
vt -1 0.25
vt -0.750001 -5.96046e-08
vt -0.5 -5.96046e-08
vt -0.5 0.25
vt -0.750001 -5.96046e-08
vt -0.5 0.25
vt -0.750001 0.25
vt -1 0.25
vt -0.750001 0.25
vt -0.750001 0.5
vt -1 0.25
vt -0.750001 0.5
vt -1 0.5
vt -0.750001 0.25
vt -0.5 0.25
vt -0.5 0.5
vt -0.750001 0.25
vt -0.5 0.5
vt -0.750001 0.5
vt -2.38419e-07 -5.96046e-08
vt 0.25 -5.96046e-08
vt 0.25 0.25
vt -2.38419e-07 -5.96046e-08
vt 0.25 0.25
vt -2.38419e-07 0.25
vt 0.25 -5.96046e-08
vt 0.5 -5.96046e-08
vt 0.5 0.25
vt 0.25 -5.96046e-08
vt 0.5 0.25
vt 0.25 0.25
vt -2.38419e-07 0.25
vt 0.25 0.25
vt 0.25 0.5
vt -2.38419e-07 0.25
vt 0.25 0.5
vt -2.38419e-07 0.5
vt 0.25 0.25
vt 0.5 0.25
vt 0.5 0.5
vt 0.25 0.25
vt 0.5 0.5
vt 0.25 0.5
vt 1 -2.98023e-07
vt 1.25 -5.96046e-08
vt 1.25 0.25
vt 1 -2.98023e-07
vt 1.25 0.25
vt 1 0.25
vt 1.25 -5.96046e-08
vt 1.5 -5.96046e-08
vt 1.5 0.25
vt 1.25 -5.96046e-08
vt 1.5 0.25
vt 1.25 0.25
vt 1 0.25
vt 1.25 0.25
vt 1.25 0.5
vt 1 0.25
vt 1.25 0.5
vt 1 0.5
vt 1.25 0.25
vt 1.5 0.25
vt 1.5 0.5
vt 1.25 0.25
vt 1.5 0.5
vt 1.25 0.5
vt 2 -2.98023e-07
vt 2.25 -5.96046e-08
vt 2.25 0.25
vt 2 -2.98023e-07
vt 2.25 0.25
vt 2 0.25
vt 2.25 -5.96046e-08
vt 2.5 -2.98023e-07
vt 2.5 0.25
vt 2.25 -5.96046e-08
vt 2.5 0.25
vt 2.25 0.25
vt 2 0.25
vt 2.25 0.25
vt 2.25 0.5
vt 2 0.25
vt 2.25 0.5
vt 2 0.5
vt 2.25 0.25
vt 2.5 0.25
vt 2.5 0.5
vt 2.25 0.25
vt 2.5 0.5
vt 2.25 0.5
vt 2.5 0.5
vt 2.75 0.5
vt 2.75 0.75
vt 2.5 0.5
vt 2.75 0.75
vt 2.5 0.75
vt 2.75 0.5
vt 3 0.5
vt 3 0.75
vt 2.75 0.5
vt 3 0.75
vt 2.75 0.75
vt 2.5 0.75
vt 2.75 0.75
vt 2.75 1
vt 2.5 0.75
vt 2.75 1
vt 2.5 1
vt 2.75 0.75
vt 3 0.75
vt 3 1
vt 2.75 0.75
vt 3 1
vt 2.75 1
vt 1.75 0.5
vt 2 0.5
vt 2 0.75
vt 1.5 0.5
vt 1.75 0.5
vt 1.75 0.75
vt 1.5 0.5
vt 1.75 0.75
vt 1.5 0.75
vt 1.75 0.5
vt 2 0.75
vt 1.75 0.75
vt 1.5 0.75
vt 1.75 0.75
vt 1.75 1
vt 1.5 0.75
vt 1.75 1
vt 1.5 1
vt 1.75 0.75
vt 2 0.75
vt 2 1
vt 1.75 0.75
vt 2 1
vt 1.75 1
vt 0.5 0.5
vt 0.75 0.5
vt 0.75 0.75
vt 0.5 0.5
vt 0.75 0.75
vt 0.5 0.75
vt 0.75 0.5
vt 1 0.5
vt 1 0.75
vt 0.75 0.5
vt 1 0.75
vt 0.75 0.75
vt 0.5 0.75
vt 0.75 0.75
vt 0.75 1
vt 0.5 0.75
vt 0.75 1
vt 0.5 1
vt 0.75 0.75
vt 1 0.75
vt 1 1
vt 0.75 0.75
vt 1 1
vt 0.75 1
vt -0.5 0.5
vt -0.25 0.5
vt -0.25 0.75
vt -0.5 0.5
vt -0.25 0.75
vt -0.5 0.75
vt -0.25 0.5
vt -2.38419e-07 0.5
vt -2.38419e-07 0.75
vt -0.25 0.5
vt -2.38419e-07 0.75
vt -0.25 0.75
vt -0.5 0.75
vt -0.25 0.75
vt -0.25 1
vt -0.5 0.75
vt -0.25 1
vt -0.5 1
vt -0.25 0.75
vt -2.38419e-07 0.75
vt -2.38419e-07 1
vt -0.25 0.75
vt -2.38419e-07 1
vt -0.25 1
vt -1.5 0.5
vt -1.25 0.5
vt -1.25 0.75
vt -1.5 0.5
vt -1.25 0.75
vt -1.5 0.75
vt -1.25 0.5
vt -1 0.5
vt -1 0.75
vt -1.25 0.5
vt -1 0.75
vt -1.25 0.75
vt -1.5 0.75
vt -1.25 0.75
vt -1.25 1
vt -1.5 0.75
vt -1.25 1
vt -1.5 1
vt -1.25 0.75
vt -1 0.75
vt -1 1
vt -1.25 0.75
vt -1 1
vt -1.25 1
vt -2 1
vt -1.75 1
vt -1.75 1.25
vt -2 1
vt -1.75 1.25
vt -2 1.25
vt -1.75 1
vt -1.5 1
vt -1.5 1.25
vt -1.75 1
vt -1.5 1.25
vt -1.75 1.25
vt -2 1.25
vt -1.75 1.25
vt -1.75 1.5
vt -2 1.25
vt -1.75 1.5
vt -2 1.5
vt -1.75 1.25
vt -1.5 1.25
vt -1.5 1.5
vt -1.75 1.25
vt -1.5 1.5
vt -1.75 1.5
vt -1 1
vt -0.750001 1
vt -0.750001 1.25
vt -1 1
vt -0.750001 1.25
vt -1 1.25
vt -0.750001 1
vt -0.5 1
vt -0.5 1.25
vt -0.750001 1
vt -0.5 1.25
vt -0.750001 1.25
vt -1 1.25
vt -0.750001 1.25
vt -0.750001 1.5
vt -1 1.25
vt -0.750001 1.5
vt -1 1.5
vt -0.750001 1.25
vt -0.5 1.25
vt -0.5 1.5
vt -0.750001 1.25
vt -0.5 1.5
vt -0.750001 1.5
vt -2.38419e-07 1
vt 0.25 1
vt 0.25 1.25
vt -2.38419e-07 1
vt 0.25 1.25
vt -2.38419e-07 1.25
vt 0.25 1
vt 0.5 1
vt 0.5 1.25
vt 0.25 1
vt 0.5 1.25
vt 0.25 1.25
vt -2.38419e-07 1.25
vt 0.25 1.25
vt 0.25 1.5
vt -2.38419e-07 1.25
vt 0.25 1.5
vt -2.38419e-07 1.5
vt 0.25 1.25
vt 0.5 1.25
vt 0.5 1.5
vt 0.25 1.25
vt 0.5 1.5
vt 0.25 1.5
vt 1 1
vt 1.25 1
vt 1.25 1.25
vt 1 1
vt 1.25 1.25
vt 1 1.25
vt 1.25 1
vt 1.5 1
vt 1.5 1.25
vt 1.25 1
vt 1.5 1.25
vt 1.25 1.25
vt 1 1.25
vt 1.25 1.25
vt 1.25 1.5
vt 1 1.25
vt 1.25 1.5
vt 1 1.5
vt 1.25 1.25
vt 1.5 1.25
vt 1.5 1.5
vt 1.25 1.25
vt 1.5 1.5
vt 1.25 1.5
vt 2 1
vt 2.25 1
vt 2.25 1.25
vt 2 1
vt 2.25 1.25
vt 2 1.25
vt 2.25 1
vt 2.5 1
vt 2.5 1.25
vt 2.25 1
vt 2.5 1.25
vt 2.25 1.25
vt 2 1.25
vt 2.25 1.25
vt 2.25 1.5
vt 2 1.25
vt 2.25 1.5
vt 2 1.5
vt 2.25 1.25
vt 2.5 1.25
vt 2.5 1.5
vt 2.25 1.25
vt 2.5 1.5
vt 2.25 1.5
vt 2.5 1.5
vt 2.75 1.5
vt 2.75 1.75
vt 2.5 1.5
vt 2.75 1.75
vt 2.5 1.75
vt 2.75 1.5
vt 3 1.5
vt 3 1.75
vt 2.75 1.5
vt 3 1.75
vt 2.75 1.75
vt 2.5 1.75
vt 2.75 1.75
vt 2.75 2
vt 2.5 1.75
vt 2.75 2
vt 2.5 2
vt 2.75 1.75
vt 3 1.75
vt 3 2
vt 2.75 1.75
vt 3 2
vt 2.75 2
vt 1.5 1.5
vt 1.75 1.5
vt 1.75 1.75
vt 1.5 1.5
vt 1.75 1.75
vt 1.5 1.75
vt 1.75 1.5
vt 2 1.5
vt 2 1.75
vt 1.75 1.5
vt 2 1.75
vt 1.75 1.75
vt 1.5 1.75
vt 1.75 1.75
vt 1.75 2
vt 1.5 1.75
vt 1.75 2
vt 1.5 2
vt 1.75 1.75
vt 2 1.75
vt 2 2
vt 1.75 1.75
vt 2 2
vt 1.75 2
vt 0.5 1.5
vt 0.75 1.5
vt 0.75 1.75
vt 0.5 1.5
vt 0.75 1.75
vt 0.5 1.75
vt 0.75 1.5
vt 1 1.5
vt 1 1.75
vt 0.75 1.5
vt 1 1.75
vt 0.75 1.75
vt 0.5 1.75
vt 0.75 1.75
vt 0.75 2
vt 0.5 1.75
vt 0.75 2
vt 0.5 2
vt 0.75 1.75
vt 1 1.75
vt 1 2
vt 0.75 1.75
vt 1 2
vt 0.75 2
vt -0.5 1.5
vt -0.25 1.5
vt -0.25 1.75
vt -0.5 1.5
vt -0.25 1.75
vt -0.5 1.75
vt -0.25 1.5
vt -2.38419e-07 1.5
vt -2.38419e-07 1.75
vt -0.25 1.5
vt -2.38419e-07 1.75
vt -0.25 1.75
vt -0.5 1.75
vt -0.25 1.75
vt -0.25 2
vt -0.5 1.75
vt -0.25 2
vt -0.5 2
vt -0.25 1.75
vt -2.38419e-07 1.75
vt -2.38419e-07 2
vt -0.25 1.75
vt -2.38419e-07 2
vt -0.25 2
vt -1.5 1.5
vt -1.25 1.5
vt -1.25 1.75
vt -1.5 1.5
vt -1.25 1.75
vt -1.5 1.75
vt -1.25 1.5
vt -1 1.5
vt -1 1.75
vt -1.25 1.5
vt -1 1.75
vt -1.25 1.75
vt -1.5 1.75
vt -1.25 1.75
vt -1.25 2
vt -1.5 1.75
vt -1.25 2
vt -1.5 2
vt -1.25 1.75
vt -1 1.75
vt -1 2
vt -1.25 1.75
vt -1 2
vt -1.25 2
vt -2 2
vt -1.75 2
vt -1.75 2.25
vt -2 2
vt -1.75 2.25
vt -2 2.25
vt -1.75 2
vt -1.5 2
vt -1.5 2.25
vt -1.75 2
vt -1.5 2.25
vt -1.75 2.25
vt -2 2.25
vt -1.75 2.25
vt -1.75 2.5
vt -2 2.25
vt -1.75 2.5
vt -2 2.5
vt -1.75 2.25
vt -1.5 2.25
vt -1.5 2.5
vt -1.75 2.25
vt -1.5 2.5
vt -1.75 2.5
vt -1 2
vt -0.750001 2
vt -0.75 2.25
vt -1 2
vt -0.75 2.25
vt -1 2.25
vt -0.750001 2
vt -0.5 2
vt -0.5 2.25
vt -0.750001 2
vt -0.5 2.25
vt -0.75 2.25
vt -1 2.25
vt -0.75 2.25
vt -0.750001 2.5
vt -1 2.25
vt -0.750001 2.5
vt -1 2.5
vt -0.75 2.25
vt -0.5 2.25
vt -0.5 2.5
vt -0.75 2.25
vt -0.5 2.5
vt -0.750001 2.5
vt -2.38419e-07 2
vt 0.25 2
vt 0.25 2.25
vt -2.38419e-07 2
vt 0.25 2.25
vt -2.38419e-07 2.25
vt 0.25 2
vt 0.5 2
vt 0.5 2.25
vt 0.25 2
vt 0.5 2.25
vt 0.25 2.25
vt -2.38419e-07 2.25
vt 0.25 2.25
vt 0.25 2.5
vt -2.38419e-07 2.25
vt 0.25 2.5
vt -2.38419e-07 2.5
vt 0.25 2.25
vt 0.5 2.25
vt 0.5 2.5
vt 0.25 2.25
vt 0.5 2.5
vt 0.25 2.5
vt 1 2
vt 1.25 2
vt 1.25 2.25
vt 1 2
vt 1.25 2.25
vt 1 2.25
vt 1.25 2
vt 1.5 2
vt 1.5 2.25
vt 1.25 2
vt 1.5 2.25
vt 1.25 2.25
vt 1 2.25
vt 1.25 2.25
vt 1.25 2.5
vt 1 2.25
vt 1.25 2.5
vt 1 2.5
vt 1.25 2.25
vt 1.5 2.25
vt 1.5 2.5
vt 1.25 2.25
vt 1.5 2.5
vt 1.25 2.5
vt 2 2
vt 2.25 2
vt 2.25 2.25
vt 2 2
vt 2.25 2.25
vt 2 2.25
vt 2.25 2
vt 2.5 2
vt 2.5 2.25
vt 2.25 2
vt 2.5 2.25
vt 2.25 2.25
vt 2 2.25
vt 2.25 2.25
vt 2.25 2.5
vt 2 2.25
vt 2.25 2.5
vt 2 2.5
vt 2.25 2.25
vt 2.5 2.25
vt 2.5 2.5
vt 2.25 2.25
vt 2.5 2.5
vt 2.25 2.5
vt 2.5 2.5
vt 2.75 2.5
vt 2.75 2.75
vt 2.5 2.5
vt 2.75 2.75
vt 2.5 2.75
vt 2.75 2.5
vt 3 2.5
vt 3 2.75
vt 2.75 2.5
vt 3 2.75
vt 2.75 2.75
vt 2.5 2.75
vt 2.75 2.75
vt 2.75 3
vt 2.5 2.75
vt 2.75 3
vt 2.5 3
vt 2.75 2.75
vt 3 2.75
vt 3 3
vt 2.75 2.75
vt 3 3
vt 2.75 3
vt 1.5 2.5
vt 1.75 2.5
vt 1.75 2.75
vt 1.5 2.5
vt 1.75 2.75
vt 1.5 2.75
vt 1.75 2.5
vt 2 2.5
vt 2 2.75
vt 1.75 2.5
vt 2 2.75
vt 1.75 2.75
vt 1.5 2.75
vt 1.75 2.75
vt 1.75 3
vt 1.5 2.75
vt 1.75 3
vt 1.5 3
vt 1.75 2.75
vt 2 2.75
vt 2 3
vt 1.75 2.75
vt 2 3
vt 1.75 3
vt 0.5 2.5
vt 0.75 2.5
vt 0.75 2.75
vt 0.5 2.5
vt 0.75 2.75
vt 0.5 2.75
vt 0.75 2.5
vt 1 2.5
vt 1 2.75
vt 0.75 2.5
vt 1 2.75
vt 0.75 2.75
vt 0.5 2.75
vt 0.75 2.75
vt 0.75 3
vt 0.5 2.75
vt 0.75 3
vt 0.5 3
vt 0.75 2.75
vt 1 2.75
vt 1 3
vt 0.75 2.75
vt 1 3
vt 0.75 3
vt -0.5 2.5
vt -0.25 2.5
vt -0.25 2.75
vt -0.5 2.5
vt -0.25 2.75
vt -0.5 2.75
vt -0.25 2.5
vt -2.38419e-07 2.5
vt -2.38419e-07 2.75
vt -0.25 2.5
vt -2.38419e-07 2.75
vt -0.25 2.75
vt -0.5 2.75
vt -0.25 2.75
vt -0.25 3
vt -0.5 2.75
vt -0.25 3
vt -0.5 3
vt -0.25 2.75
vt -2.38419e-07 2.75
vt -2.38419e-07 3
vt -0.25 2.75
vt -2.38419e-07 3
vt -0.25 3
vt -1.5 2.5
vt -1.25 2.5
vt -1.25 2.75
vt -1.5 2.5
vt -1.25 2.75
vt -1.5 2.75
vt -1.25 2.5
vt -1 2.5
vt -1 2.75
vt -1.25 2.5
vt -1 2.75
vt -1.25 2.75
vt -1.5 2.75
vt -1.25 2.75
vt -1.25 3
vt -1.5 2.75
vt -1.25 3
vt -1.5 3
vt -1.25 2.75
vt -1 2.75
vt -1 3
vt -1.25 2.75
vt -1 3
vt -1.25 3
f 1/1 2/2 3/3
f 1/4 3/5 4/6
f 2/7 5/8 3/9
f 4/10 3/11 6/12
f 4/13 6/14 7/15
f 3/16 5/17 8/18
f 3/19 8/20 6/21
f 2/22 9/23 5/24
f 10/25 11/26 12/27
f 10/28 12/29 13/30
f 11/31 14/32 15/33
f 11/34 15/35 12/36
f 13/37 12/38 16/39
f 12/40 15/41 17/42
f 12/43 17/44 16/45
f 13/46 16/47 18/48
f 19/49 20/50 21/51
f 19/52 21/53 22/54
f 20/55 23/56 24/57
f 20/58 24/59 21/60
f 22/61 21/62 25/63
f 22/64 25/65 26/66
f 21/67 24/68 27/69
f 21/70 27/71 25/72
f 28/73 29/74 30/75
f 28/76 30/77 31/78
f 29/79 32/80 33/81
f 29/82 33/83 30/84
f 31/85 30/86 34/87
f 31/88 34/89 35/90
f 30/91 33/92 36/93
f 30/94 36/95 34/96
f 37/97 38/98 39/99
f 37/100 39/101 40/102
f 38/103 41/104 42/105
f 38/106 42/107 39/108
f 40/109 39/110 43/111
f 40/112 43/113 44/114
f 39/115 42/116 45/117
f 39/118 45/119 43/120
f 45/121 46/122 47/123
f 45/124 47/125 48/126
f 46/127 49/128 50/129
f 46/130 50/131 47/132
f 48/133 47/134 51/135
f 48/136 51/137 52/138
f 47/139 50/140 53/141
f 47/142 53/143 51/144
f 36/145 54/146 55/147
f 36/148 55/149 56/150
f 54/151 44/152 57/153
f 54/154 57/155 55/156
f 56/157 55/158 58/159
f 56/160 58/161 59/162
f 55/163 57/164 60/165
f 55/166 60/167 58/168
f 27/169 61/170 62/171
f 27/172 62/173 63/174
f 61/175 35/176 64/177
f 61/178 64/179 62/180
f 63/181 62/182 65/183
f 63/184 65/185 66/186
f 62/187 64/188 67/189
f 62/190 67/191 65/192
f 17/193 68/194 69/195
f 17/196 69/197 70/198
f 68/199 26/200 71/201
f 68/202 71/203 69/204
f 70/205 69/206 72/207
f 70/208 72/209 73/210
f 69/211 71/212 74/213
f 69/214 74/215 72/216
f 8/217 75/218 76/219
f 8/220 76/221 77/222
f 75/223 18/224 78/225
f 75/226 78/227 76/228
f 77/229 76/230 79/231
f 77/232 79/233 80/234
f 76/235 78/236 81/237
f 76/238 81/239 79/240
f 82/241 83/242 84/243
f 82/244 84/245 85/246
f 83/247 80/248 86/249
f 83/250 86/251 84/252
f 85/253 84/254 87/255
f 85/256 87/257 88/258
f 84/259 86/260 89/261
f 84/262 89/263 87/264
f 81/265 90/266 91/267
f 81/268 91/269 92/270
f 90/271 73/272 93/273
f 90/274 93/275 91/276
f 92/277 91/278 94/279
f 92/280 94/281 95/282
f 91/283 93/284 96/285
f 91/286 96/287 94/288
f 74/289 97/290 98/291
f 74/292 98/293 99/294
f 97/295 66/296 100/297
f 97/298 100/299 98/300
f 99/301 98/302 101/303
f 99/304 101/305 102/306
f 98/307 100/308 103/309
f 98/310 103/311 101/312
f 67/313 104/314 105/315
f 67/316 105/317 106/318
f 104/319 59/320 107/321
f 104/322 107/323 105/324
f 106/325 105/326 108/327
f 106/328 108/329 109/330
f 105/331 107/332 110/333
f 105/334 110/335 108/336
f 60/337 111/338 112/339
f 60/340 112/341 113/342
f 111/343 52/344 114/345
f 111/346 114/347 112/348
f 113/349 112/350 115/351
f 113/352 115/353 116/354
f 112/355 114/356 117/357
f 112/358 117/359 115/360
f 117/361 118/362 119/363
f 117/364 119/365 120/366
f 118/367 121/368 122/369
f 118/370 122/371 119/372
f 120/373 119/374 123/375
f 120/376 123/377 124/378
f 119/379 122/380 125/381
f 119/382 125/383 123/384
f 110/385 126/386 127/387
f 110/388 127/389 128/390
f 126/391 116/392 129/393
f 126/394 129/395 127/396
f 128/397 127/398 130/399
f 128/400 130/401 131/402
f 127/403 129/404 132/405
f 127/406 132/407 130/408
f 103/409 133/410 134/411
f 103/412 134/413 135/414
f 133/415 109/416 136/417
f 133/418 136/419 134/420
f 135/421 134/422 137/423
f 135/424 137/425 138/426
f 134/427 136/428 139/429
f 134/430 139/431 137/432
f 96/433 140/434 141/435
f 96/436 141/437 142/438
f 140/439 102/440 143/441
f 140/442 143/443 141/444
f 142/445 141/446 144/447
f 142/448 144/449 145/450
f 141/451 143/452 146/453
f 141/454 146/455 144/456
f 89/457 147/458 148/459
f 89/460 148/461 149/462
f 147/463 95/464 150/465
f 147/466 150/467 148/468
f 149/469 148/470 151/471
f 149/472 151/473 152/474
f 148/475 150/476 153/477
f 148/478 153/479 151/480
f 154/481 155/482 156/483
f 154/484 156/485 157/486
f 155/487 152/488 158/489
f 155/490 158/491 156/492
f 157/493 156/494 159/495
f 157/496 159/497 160/498
f 156/499 158/500 161/501
f 156/502 161/503 159/504
f 153/505 162/506 163/507
f 153/508 163/509 164/510
f 162/511 145/512 165/513
f 162/514 165/515 163/516
f 164/517 163/518 166/519
f 164/520 166/521 167/522
f 163/523 165/524 168/525
f 163/526 168/527 166/528
f 146/529 169/530 170/531
f 146/532 170/533 171/534
f 169/535 138/536 172/537
f 169/538 172/539 170/540
f 171/541 170/542 173/543
f 171/544 173/545 174/546
f 170/547 172/548 175/549
f 170/550 175/551 173/552
f 139/553 176/554 177/555
f 139/556 177/557 178/558
f 176/559 131/560 179/561
f 176/562 179/563 177/564
f 178/565 177/566 180/567
f 178/568 180/569 181/570
f 177/571 179/572 182/573
f 177/574 182/575 180/576
f 132/577 183/578 184/579
f 132/580 184/581 185/582
f 183/583 124/584 186/585
f 183/586 186/587 184/588
f 185/589 184/590 187/591
f 185/592 187/593 188/594
f 184/595 186/596 189/597
f 184/598 189/599 187/600
f 189/601 190/602 191/603
f 189/604 191/605 192/606
f 190/607 193/608 194/609
f 190/610 194/611 191/612
f 192/613 191/614 195/615
f 192/616 195/617 196/618
f 191/619 194/620 197/621
f 191/622 197/623 195/624
f 198/625 188/626 199/627
f 182/628 198/629 200/630
f 182/631 200/632 201/633
f 198/634 199/635 200/636
f 201/637 200/638 202/639
f 201/640 202/641 203/642
f 200/643 199/644 204/645
f 200/646 204/647 202/648
f 175/649 205/650 206/651
f 175/652 206/653 207/654
f 205/655 181/656 208/657
f 205/658 208/659 206/660
f 207/661 206/662 209/663
f 207/664 209/665 210/666
f 206/667 208/668 211/669
f 206/670 211/671 209/672
f 168/673 212/674 213/675
f 168/676 213/677 214/678
f 212/679 174/680 215/681
f 212/682 215/683 213/684
f 214/685 213/686 216/687
f 214/688 216/689 217/690
f 213/691 215/692 218/693
f 213/694 218/695 216/696
f 161/697 219/698 220/699
f 161/700 220/701 221/702
f 219/703 167/704 222/705
f 219/706 222/707 220/708
f 221/709 220/710 223/711
f 221/712 223/713 224/714
f 220/715 222/716 225/717
f 220/718 225/719 223/720
f 226/721 227/722 228/723
f 226/724 228/725 229/726
f 227/727 224/728 230/729
f 227/730 230/731 228/732
f 229/733 228/734 231/735
f 229/736 231/737 232/738
f 228/739 230/740 233/741
f 228/742 233/743 231/744
f 225/745 234/746 235/747
f 225/748 235/749 236/750
f 234/751 217/752 237/753
f 234/754 237/755 235/756
f 236/757 235/758 238/759
f 236/760 238/761 239/762
f 235/763 237/764 240/765
f 235/766 240/767 238/768
f 218/769 241/770 242/771
f 218/772 242/773 243/774
f 241/775 210/776 244/777
f 241/778 244/779 242/780
f 243/781 242/782 245/783
f 243/784 245/785 246/786
f 242/787 244/788 247/789
f 242/790 247/791 245/792
f 211/793 248/794 249/795
f 211/796 249/797 250/798
f 248/799 203/800 251/801
f 248/802 251/803 249/804
f 250/805 249/806 252/807
f 250/808 252/809 253/810
f 249/811 251/812 254/813
f 249/814 254/815 252/816
f 204/817 255/818 256/819
f 204/820 256/821 257/822
f 255/823 196/824 258/825
f 255/826 258/827 256/828
f 257/829 256/830 259/831
f 257/832 259/833 260/834
f 256/835 258/836 261/837
f 256/838 261/839 259/840
f 261/841 262/842 263/843
f 261/844 263/845 264/846
f 262/847 265/848 266/849
f 262/850 266/851 263/852
f 264/853 263/854 267/855
f 264/856 267/857 268/858
f 263/859 266/860 269/861
f 263/862 269/863 267/864
f 254/865 270/866 271/867
f 254/868 271/869 272/870
f 270/871 260/872 273/873
f 270/874 273/875 271/876
f 272/877 271/878 274/879
f 272/880 274/881 275/882
f 271/883 273/884 276/885
f 271/886 276/887 274/888
f 247/889 277/890 278/891
f 247/892 278/893 279/894
f 277/895 253/896 280/897
f 277/898 280/899 278/900
f 279/901 278/902 281/903
f 279/904 281/905 282/906
f 278/907 280/908 283/909
f 278/910 283/911 281/912
f 240/913 284/914 285/915
f 240/916 285/917 286/918
f 284/919 246/920 287/921
f 284/922 287/923 285/924
f 286/925 285/926 288/927
f 286/928 288/929 289/930
f 285/931 287/932 290/933
f 285/934 290/935 288/936
f 233/937 291/938 292/939
f 233/940 292/941 293/942
f 291/943 239/944 294/945
f 291/946 294/947 292/948
f 293/949 292/950 295/951
f 293/952 295/953 296/954
f 292/955 294/956 297/957
f 292/958 297/959 295/960
f 298/961 299/962 300/963
f 298/964 300/965 301/966
f 299/967 296/968 302/969
f 299/970 302/971 300/972
f 301/973 300/974 303/975
f 301/976 303/977 304/978
f 300/979 302/980 305/981
f 300/982 305/983 303/984
f 297/985 306/986 307/987
f 297/988 307/989 308/990
f 306/991 289/992 309/993
f 306/994 309/995 307/996
f 308/997 307/998 310/999
f 308/1000 310/1001 311/1002
f 307/1003 309/1004 312/1005
f 307/1006 312/1007 310/1008
f 290/1009 313/1010 314/1011
f 290/1012 314/1013 315/1014
f 313/1015 282/1016 316/1017
f 313/1018 316/1019 314/1020
f 315/1021 314/1022 317/1023
f 315/1024 317/1025 318/1026
f 314/1027 316/1028 319/1029
f 314/1030 319/1031 317/1032
f 283/1033 320/1034 321/1035
f 283/1036 321/1037 322/1038
f 320/1039 275/1040 323/1041
f 320/1042 323/1043 321/1044
f 322/1045 321/1046 324/1047
f 322/1048 324/1049 325/1050
f 321/1051 323/1052 326/1053
f 321/1054 326/1055 324/1056
f 276/1057 327/1058 328/1059
f 276/1060 328/1061 329/1062
f 327/1063 268/1064 330/1065
f 327/1066 330/1067 328/1068
f 329/1069 328/1070 331/1071
f 329/1072 331/1073 332/1074
f 328/1075 330/1076 333/1077
f 328/1078 333/1079 331/1080
f 333/1081 334/1082 335/1083
f 333/1084 335/1085 336/1086
f 334/1087 337/1088 338/1089
f 334/1090 338/1091 335/1092
f 336/1093 335/1094 339/1095
f 336/1096 339/1097 340/1098
f 335/1099 338/1100 341/1101
f 335/1102 341/1103 339/1104
f 326/1105 342/1106 343/1107
f 326/1108 343/1109 344/1110
f 342/1111 332/1112 345/1113
f 342/1114 345/1115 343/1116
f 344/1117 343/1118 346/1119
f 344/1120 346/1121 347/1122
f 343/1123 345/1124 348/1125
f 343/1126 348/1127 346/1128
f 319/1129 349/1130 350/1131
f 319/1132 350/1133 351/1134
f 349/1135 325/1136 352/1137
f 349/1138 352/1139 350/1140
f 351/1141 350/1142 353/1143
f 351/1144 353/1145 354/1146
f 350/1147 352/1148 355/1149
f 350/1150 355/1151 353/1152
f 312/1153 356/1154 357/1155
f 312/1156 357/1157 358/1158
f 356/1159 318/1160 359/1161
f 356/1162 359/1163 357/1164
f 358/1165 357/1166 360/1167
f 358/1168 360/1169 361/1170
f 357/1171 359/1172 362/1173
f 357/1174 362/1175 360/1176
f 305/1177 363/1178 364/1179
f 305/1180 364/1181 365/1182
f 363/1183 311/1184 366/1185
f 363/1186 366/1187 364/1188
f 365/1189 364/1190 367/1191
f 365/1192 367/1193 368/1194
f 364/1195 366/1196 369/1197
f 364/1198 369/1199 367/1200
