v -0.001757422 0.002346943 -0.02080694
v 0.001439661 -6.940216e-06 -0.01803002
v -0.001881814 0.003360286 -0.01907176
v -0.00170737 0.001202307 -0.0214738
v -0.001692874 -0.0009073969 -0.02163565
v -0.001777316 -0.002576033 -0.02056709
v -0.001895986 -0.003468173 -0.01873034
v 0.004093744 -0.01040388 0.02329403
v 0.005368033 0.01030508 0.02334765
v 0.005409742 -0.01030446 0.02335206
v 0.003908459 0.01040297 0.02324584
v 0.00328687 -0.01032765 0.02088305
v 0.003219362 0.01020708 0.02208164
v 0.003180314 -0.01040151 0.02242139
v 0.003276173 0.01033841 0.02084392
v -0.01184427 -0.01035803 0.02432641
v -0.006353511 -0.01046921 0.02477717
v -0.01200164 -0.01037457 0.02598602
v -0.006247655 -0.01034313 0.02268204
v -0.003616862 -0.01050108 0.02289996
v -0.000427451 -0.01038218 0.008045584
v 0.003724327 -0.01050124 0.009482414
v -0.001716521 -0.01037876 0.009035647
v -0.002771504 -0.01040613 0.02196726
v 0.002984652 -0.01033412 0.008313686
v 0.006296635 -0.01046117 0.0256798
v 0.006494943 -0.01025322 0.02350935
v 0.01172002 -0.01038375 0.02764836
v 0.01179562 -0.01034301 0.02601331
v -0.004000638 0.01020894 0.02266142
v -0.006410351 0.006778777 0.02258536
v -0.006260624 0.01033371 0.02267969
v -0.004011491 -0.01021365 0.02266452
v -0.006446904 -0.006693448 0.0225929
v -0.008306661 -0.00503958 0.02249813
v -0.01167504 -0.004883112 0.02225778
v -0.007955657 0.004876222 0.02239898
v -0.0117346 0.004866807 0.02230301
v -0.01185725 0.01034194 0.02432403
v -0.0119371 0.004853444 0.02435726
v -0.0120024 0.01037 0.02596527
v -0.011931 -0.004869562 0.02435836
v 0.01168063 0.01039595 0.0276745
v 0.01186536 0.004907429 0.02605656
v 0.01178264 0.01035697 0.02601084
v 0.01197179 -0.004831546 0.02398181
v 0.011923 0.004845295 0.02393138
v 0.01184249 -0.004906436 0.02603737
v 0.008779693 -0.004735899 0.02360043
v 0.008799562 0.004741192 0.02360278
v -0.001693467 0.01040527 0.009090155
v -0.002826188 0.01039479 0.02200916
v 0.002816767 0.01032683 0.008254141
v -0.0006240308 0.01037949 0.00808242
v 0.006448347 0.01027149 0.02349299
v 0.006331883 0.01046169 0.02567706
v -0.006366637 0.01046012 0.02477476
v -0.003645081 0.01049469 0.0229058
v 0.003711216 0.01050121 0.00947997
v 0.002983134 0.01049934 0.02244508
v 0.006547889 0.007076149 0.02553731
v 0.00808065 0.005210782 0.02564681
v 0.009014091 0.00503533 0.02390823
v 0.007802255 0.005560334 0.02382216
v 0.006690577 0.006977328 0.02374393
v -0.008280316 0.005145313 0.0244793
v -0.006611599 0.006987743 0.0245983
v -0.008328887 0.005114913 0.02267733
v 0.00654228 -0.00710124 0.02553788
v 0.008087181 -0.005201547 0.02564797
v 0.006707806 -0.006960142 0.02375636
v 0.007809224 -0.005551819 0.02382344
v 0.009012196 -0.005026831 0.02390629
v -0.008766607 -0.005057644 0.02444541
v -0.00657211 -0.007160294 0.02460209
v -0.007451158 -0.005783567 0.02453923
v 0.004012898 0.01019802 0.009445429
v 0.004035603 -0.01019372 0.009538174
v 0.006518999 -0.006563207 0.02343345
v 0.006487407 0.006605589 0.02343056
v 0.00886308 -0.01028849 0.02358931
v 0.003639065 -0.008804793 -0.008781195
v 0.003642859 0.00880124 -0.008765966
v 0.01199297 -0.01038411 0.008595437
v 0.01200224 0.01040524 0.008746117
v 0.002396669 0.008743336 -0.008950144
v 0.002408082 -0.008752 -0.008948386
v 0.003563199 -0.005334934 -0.02671686
v 0.003393464 -0.008661058 -0.02274084
v 0.003393572 -0.007806252 -0.02520618
v 0.003587641 0.004795843 -0.02673754
v 0.003433317 0.0085334 -0.02344239
v 0.003504448 0.006542035 -0.02615657
v -0.001013262 0.005524684 -0.02709189
v -0.001239724 -0.005475365 -0.02699664
v -0.001525511 -0.008786764 -0.02337825
v -0.00129135 -0.007091712 -0.026072
v -0.001338565 0.005483385 -0.0268144
v -0.002577336 -0.008751652 -0.009304017
v -0.002035681 -0.003069042 -0.0167712
v -0.002139973 -0.001960665 -0.01544011
v -0.001312532 0.007730296 -0.02549678
v -0.001483491 0.008795017 -0.02346122
v -0.00217187 0.0001376467 -0.01479569
v -0.002020869 0.003160875 -0.01705253
v -0.00258847 0.008742487 -0.009306282
v -0.002135145 0.001936465 -0.01547787
v -0.003885921 0.009002514 -0.00923866
v -0.003962738 -0.009022508 -0.009139717
v 0.004196385 -0.01019273 0.007975787
v -0.004008429 0.008955142 -0.008981049
v 0.004176836 0.01018806 0.007970303
v 0.01114878 -0.01035608 0.02161151
v 0.01109118 0.01038743 0.02163193
v 0.008850168 0.01029822 0.02358693
v 0.00446642 0.01047969 0.007919997
v 0.00447958 -0.01047913 0.007923037
v 0.003440447 -0.009058036 -0.008577317
v 0.00208188 -0.00905896 -0.0086945
v -0.002299445 -0.009055544 -0.009013563
v 0.003100198 -0.008949865 -0.02289012
v 0.003072422 0.008968683 -0.0226135
v -0.002306489 0.009043705 -0.009016424
v 0.002074655 0.009052806 -0.008695096
v 0.003429087 0.009053549 -0.008579403
v -0.001179438 -0.00840201 -0.02470016
v 0.003229093 0.008192535 -0.02477959
v 0.003718961 -0.009822783 0.01610526
v 0.00363707 -0.008969467 0.0177134
v 0.006658718 -0.009826403 0.01580721
v 0.006470116 -0.008379791 0.01843673
v 0.00694776 -0.005242969 0.01171511
v 0.004263218 -0.005418669 0.01148781
v 0.006943526 -0.006985092 0.01178992
v 0.004237568 -0.007580747 0.01178047
v 0.003759496 -0.007901782 0.01847965
v 0.006862568 -0.008934853 0.01294255
v 0.003726762 -0.006164984 0.01901409
v 0.006413799 -0.005997159 0.01920477
v 0.004153797 -0.009009744 0.0129621
v 0.004050214 -0.009712014 0.01448926
v 0.00394145 -0.008163752 0.01172894
v 0.003806589 -0.009805016 0.01363689
v 0.003974311 -0.002159627 0.015439
v 0.00375361 -0.001916827 0.01433086
v 0.004126044 -0.002760833 0.01329869
v 0.003917564 -0.003453004 0.01201835
v 0.004205028 -0.003756067 0.0122039
v 0.003984548 -0.005659091 0.01110682
v 0.003418995 -0.007441072 0.01904336
v 0.003410133 -0.004799084 0.01915413
v 0.003530666 -0.002533099 0.01744139
v 0.003745772 -0.004240088 0.01857415
v 0.003826302 -0.002988522 0.01749796
v 0.006858833 -0.003060339 0.01294187
v 0.006467126 -0.003614636 0.01843616
v 0.00665392 -0.002168337 0.01580629
v 0.006651193 0.002173562 0.01580584
v 0.003687337 0.002472485 0.01693812
v 0.006462589 0.003620172 0.01843533
v 0.006940231 0.006756992 0.01171374
v 0.004255697 0.006581238 0.01148644
v 0.006936003 0.005014875 0.01178849
v 0.004230037 0.004419152 0.01177904
v 0.003751969 0.00409818 0.01847827
v 0.006854992 0.003065111 0.01294112
v 0.00371924 0.005834975 0.01901272
v 0.006406274 0.006002806 0.01920345
v 0.00414627 0.002990217 0.01296067
v 0.003909597 0.002158492 0.01474056
v 0.003875567 0.002778883 0.01257062
v 0.003601179 0.009967523 0.01634032
v 0.003784467 0.009844619 0.01376861
v 0.003966786 0.009840331 0.0154376
v 0.004118519 0.009239075 0.01329732
v 0.004079472 0.008363264 0.01217735
v 0.003982943 0.005933947 0.01104197
v 0.003450703 0.008496631 0.01845878
v 0.003421672 0.004167879 0.01892093
v 0.003396397 0.006599293 0.01923087
v 0.003738243 0.007759874 0.01857272
v 0.003818776 0.00901144 0.01749665
v 0.006851308 0.008939624 0.01294056
v 0.006459601 0.008385326 0.01843485
v 0.006646395 0.009831565 0.01580498
f 1 2 3
f 4 2 1
f 4 5 2
f 5 6 2
f 7 2 6
f 8 9 10
f 8 11 9
f 12 13 14
f 12 15 13
f 16 17 18
f 19 20 17
f 21 22 23
f 23 22 24
f 24 22 14
f 21 25 22
f 14 8 20
f 24 14 20
f 20 26 17
f 8 26 20
f 8 27 26
f 26 28 17
f 17 28 18
f 26 29 28
f 30 31 32
f 30 33 31
f 31 33 34
f 33 19 34
f 35 36 37
f 37 36 38
f 31 34 37
f 34 35 37
f 39 40 41
f 38 42 40
f 36 42 38
f 16 18 42
f 18 41 40
f 18 40 42
f 43 44 45
f 44 46 47
f 48 46 44
f 28 29 48
f 43 28 44
f 44 28 48
f 49 47 46
f 49 50 47
f 18 43 41
f 18 28 43
f 51 23 52
f 23 24 52
f 25 21 53
f 53 21 54
f 55 11 56
f 43 56 57
f 43 57 41
f 57 39 41
f 45 56 43
f 58 32 57
f 59 52 60
f 59 51 52
f 59 54 51
f 53 54 59
f 60 52 58
f 11 60 58
f 56 58 57
f 56 11 58
f 45 61 56
f 62 61 45
f 44 62 45
f 63 64 62
f 62 65 61
f 64 65 62
f 47 63 44
f 44 63 62
f 65 56 61
f 65 55 56
f 66 40 39
f 67 39 57
f 67 66 39
f 67 31 66
f 31 68 66
f 32 67 57
f 32 31 67
f 68 38 66
f 66 38 40
f 29 26 69
f 29 70 48
f 29 69 70
f 69 71 70
f 71 72 70
f 72 73 70
f 27 71 69
f 27 69 26
f 73 46 48
f 73 48 70
f 16 42 74
f 75 74 76
f 75 16 74
f 17 16 75
f 74 35 76
f 35 34 76
f 76 34 75
f 36 35 74
f 36 74 42
f 75 19 17
f 34 19 75
f 52 24 30
f 24 33 30
f 8 14 11
f 11 14 13
f 77 78 25
f 53 77 25
f 54 21 23
f 51 54 23
f 71 27 79
f 71 79 72
f 79 49 72
f 72 49 73
f 46 73 49
f 10 27 8
f 78 12 22
f 12 14 22
f 25 78 22
f 47 50 63
f 63 50 64
f 50 80 64
f 64 80 65
f 80 55 65
f 24 20 33
f 11 55 9
f 19 33 20
f 13 60 11
f 15 60 13
f 59 15 77
f 59 60 15
f 77 53 59
f 30 58 52
f 32 58 30
f 37 38 68
f 31 37 68
f 79 81 49
f 79 27 81
f 82 83 84
f 83 85 84
f 82 86 83
f 87 86 82
f 88 89 90
f 91 89 88
f 92 89 91
f 86 87 92
f 92 87 89
f 92 91 93
f 88 94 91
f 95 94 88
f 96 6 97
f 97 6 95
f 6 5 95
f 96 7 6
f 95 5 98
f 96 99 7
f 99 100 7
f 5 4 98
f 4 1 98
f 99 101 100
f 98 1 102
f 1 103 102
f 99 104 101
f 3 103 1
f 105 106 3
f 107 106 105
f 3 106 103
f 104 106 107
f 99 106 104
f 99 108 106
f 109 108 99
f 110 111 109
f 112 111 110
f 78 77 110
f 77 112 110
f 15 112 77
f 110 12 78
f 84 85 113
f 85 114 113
f 55 80 115
f 115 80 50
f 15 114 85
f 15 85 116
f 9 115 114
f 9 114 15
f 113 12 84
f 84 12 117
f 81 10 113
f 113 10 12
f 117 118 84
f 117 109 118
f 119 109 120
f 119 118 109
f 120 96 121
f 120 121 119
f 122 123 124
f 103 123 122
f 111 123 108
f 125 124 111
f 111 124 123
f 125 116 85
f 111 116 125
f 9 12 10
f 15 12 9
f 115 50 114
f 49 113 50
f 50 113 114
f 49 81 113
f 95 88 90
f 97 95 90
f 126 97 90
f 126 90 121
f 96 126 121
f 103 122 127
f 102 103 127
f 102 127 93
f 94 102 93
f 94 93 91
f 106 108 123
f 111 112 116
f 103 106 123
f 102 94 98
f 94 95 98
f 126 96 97
f 112 15 116
f 99 96 120
f 9 55 115
f 109 99 120
f 110 109 117
f 85 83 125
f 117 12 110
f 125 86 124
f 83 86 125
f 10 81 27
f 86 92 122
f 86 122 124
f 127 122 92
f 127 92 93
f 121 90 89
f 89 87 119
f 89 119 121
f 82 84 118
f 87 118 119
f 87 82 118
f 3 2 105
f 107 105 2
f 100 2 7
f 100 101 2
f 101 104 2
f 104 107 2
f 108 109 111
f 128 129 130
f 130 129 131
f 132 133 134
f 133 135 134
f 129 136 131
f 134 135 137
f 131 138 139
f 136 138 131
f 135 140 137
f 140 141 137
f 137 141 130
f 141 128 130
f 135 142 140
f 142 143 140
f 144 145 146
f 140 143 141
f 146 147 148
f 145 147 146
f 143 128 141
f 148 147 133
f 147 149 133
f 133 149 135
f 149 142 135
f 150 147 151
f 151 147 152
f 149 147 150
f 152 147 145
f 143 142 128
f 142 149 128
f 128 149 129
f 129 149 150
f 153 152 154
f 151 152 153
f 154 152 144
f 152 145 144
f 129 150 136
f 136 150 138
f 150 151 138
f 138 151 153
f 144 146 155
f 146 148 155
f 139 153 156
f 138 153 139
f 155 148 132
f 148 133 132
f 153 154 156
f 156 154 157
f 154 144 157
f 157 144 155
f 155 132 134
f 155 134 137
f 155 137 130
f 156 155 130
f 156 130 131
f 156 157 155
f 156 131 139
f 158 159 160
f 161 162 163
f 162 164 163
f 159 165 160
f 163 164 166
f 160 167 168
f 165 167 160
f 164 169 166
f 169 170 166
f 166 170 158
f 170 159 158
f 164 171 169
f 172 173 174
f 174 173 175
f 169 171 170
f 173 176 175
f 176 177 162
f 162 177 164
f 177 171 164
f 178 173 172
f 177 173 178
f 177 176 173
f 159 171 179
f 179 171 180
f 180 177 178
f 171 177 180
f 170 171 159
f 180 178 181
f 181 178 182
f 178 172 182
f 182 172 174
f 159 179 165
f 165 179 167
f 179 180 167
f 167 180 181
f 174 175 183
f 175 176 183
f 168 181 184
f 167 181 168
f 183 176 161
f 176 162 161
f 181 182 184
f 184 182 185
f 182 174 185
f 185 174 183
f 160 166 158
f 184 161 163
f 184 183 161
f 184 185 183
f 184 163 168
f 168 163 166
f 168 166 160
