v -0.001617167 0.004633352 0.03741744
v -0.001617104 0.005131751 -0.03734127
v -0.001617093 -0.005131751 -0.03733957
v 0.0005742572 0.004793167 -0.0385794
v -0.0004149154 0.004949689 -0.03863963
v -0.001172066 -0.004524946 0.03863966
v 0.001617167 -0.004619122 -0.03711656
v -0.001172394 0.004554331 0.03863749
v 0.001616243 0.004617751 -0.03711814
v -0.001338638 0.00509131 -0.03794026
v -0.001617149 -0.004603863 0.03741926
v 0.00142549 0.004653916 -0.03797445
v 0.0005747192 -0.004794121 -0.03857762
v -0.0009402074 -0.005032703 -0.03830281
v -0.0004147887 -0.004951432 -0.03863773
v 0.001527481 0.004636437 -0.03769469
v 0.00142559 -0.004655242 -0.03797218
v -0.001337614 -0.005092502 -0.03793782
v -0.0009401292 0.005030513 -0.03830516
v 0.001527835 -0.004636884 -0.03769264
f 1 2 3
f 4 5 2
f 6 7 8
f 7 9 8
f 2 10 3
f 5 10 2
f 11 1 3
f 1 11 8
f 11 6 8
f 12 13 4
f 6 14 7
f 11 14 6
f 15 5 4
f 13 15 4
f 14 15 13
f 16 9 7
f 9 16 8
f 16 1 8
f 16 12 4
f 16 4 2
f 1 16 2
f 12 17 13
f 14 17 7
f 17 14 13
f 10 18 3
f 14 18 10
f 18 11 3
f 18 14 11
f 19 10 5
f 19 14 10
f 15 19 5
f 19 15 14
f 20 16 7
f 17 20 7
f 16 20 12
f 20 17 12
