v -2 -2.5 4.805574e-08
v -1.75 -2.5 4.805574e-08
v -1.75 -2.25 4.805574e-08
v -2 -2.25 5.550632e-08
v -1.5 -2.5 6.841134e-09
v -1.5 -2.25 4.805574e-08
v -1 -2.5 7.040748e-08
v -0.75 -2.5 7.040748e-08
v -0.7499999 -2.25 4.060516e-08
v -1 -2.25 7.040748e-08
v -0.4999999 -2.5 4.060516e-08
v -0.5000001 -2.25 1.598144e-07
v -1.75 -2 5.550632e-08
v -2 -2 4.060516e-08
v -1.5 -2 4.805574e-08
v -0.7500001 -2 1.523639e-07
v -1 -2 8.545058e-08
v -2.5 -2 4.805574e-08
v -2.25 -2 5.550632e-08
v -2.25 -1.75 4.805574e-08
v -2.5 -1.75 4.805574e-08
v -2 -1.75 5.550632e-08
v -1.25 -2 4.805574e-08
v -1.25 -1.75 8.530864e-08
v -1.5 -1.75 5.550632e-08
v -1 -1.75 8.903393e-08
v -2.25 -1.5 4.805574e-08
v -2.5 -1.5 6.841134e-09
v -2 -1.5 4.805574e-08
v -1.25 -1.5 8.530864e-08
v -1.5 -1.5 4.060516e-08
v -1 -1.5 8.530864e-08
v -1.75 -1.5 5.550632e-08
v -1.75 -1.25 8.530864e-08
v -2 -1.25 4.805574e-08
v -1.5 -1.25 8.530864e-08
v -0.75 -1.5 8.903393e-08
v -0.75 -1.25 4.060516e-08
v -1 -1.25 8.530864e-08
v -0.5 -1.5 3.795313e-08
v -0.5 -1.25 6.668219e-08
v -1.75 -1 8.903393e-08
v -2 -1 8.545058e-08
v -1.5 -1 8.530864e-08
v -0.75 -1 7.040748e-08
v -1 -1 5.550632e-08
v -0.5 -1 7.040748e-08
v -2.5 -1 7.040748e-08
v -2.25 -1 7.040748e-08
v -2.25 -0.7499999 4.060516e-08
v -2.5 -0.75 7.040748e-08
v -2 -0.7500001 1.523639e-07
v -1.25 -1 8.530864e-08
v -1.25 -0.75 4.060516e-08
v -1.5 -0.75 8.903393e-08
v -1 -0.75 7.040748e-08
v -0.25 -1 7.040748e-08
v -8.202177e-08 -1 1.226269e-07
v -5.587935e-08 -0.75 3.687987e-08
v -2.25 -0.5000001 1.598144e-07
v -2.5 -0.4999999 4.060516e-08
v -1.25 -0.5 6.668219e-08
v -1.5 -0.5 3.795313e-08
v -1 -0.5 7.040748e-08
v -0.5 -0.75 1.002098e-07
v -0.25 -0.5 1.002098e-07
v -0.5 -0.5 4.680069e-08
v -0.75 -0.5 1.002098e-07
v -0.5 -0.25 1.002098e-07
v -1 -0.25 7.040748e-08
v -0.75 -5.587935e-08 3.687987e-08
v -1 -8.202177e-08 1.226269e-07
v -0.5000001 -2 1.598144e-07
v -0.2500001 -2 1.598144e-07
v -0.2500001 -1.75 1.598144e-07
v -0.5000001 -1.75 1.523639e-07
v -5.960464e-08 -2 1.598144e-07
v -5.960464e-08 -1.75 1.598144e-07
v -0.2500001 -1.5 1.560892e-07
v -5.960464e-08 -1.5 1.598144e-07
v -0.2500001 -0.75 1.570242e-07
v -2 -0.5000001 1.598144e-07
v 0 -0.5 1.002098e-07
v -1.75 -0.5000001 1.523639e-07
v -1.75 -0.2500001 1.598144e-07
v -2 -0.2500001 1.598144e-07
v -1.5 -0.2500001 1.560892e-07
v -0.75 -0.2500001 1.570242e-07
v -1.75 -5.960464e-08 1.598144e-07
v -2 -5.960464e-08 1.598144e-07
v -1.5 -5.960464e-08 1.598144e-07
v -0.5 0 1.002098e-07
v -0.5 0.2499999 1.002098e-07
v -0.2499999 0.5 1.002098e-07
v -0.5 0.5 1.152238e-07
v -1 0.4999999 1.002098e-07
v -0.7500001 0.4999999 1.262868e-07
v -0.75 0.75 8.530864e-08
v -1 0.75 7.040748e-08
v -1.75 0.7499999 1.580646e-07
v -1.5 0.75 8.530864e-08
v -1.5 1 8.530864e-08
v -1.75 1 8.530864e-08
v -0.75 1 7.040748e-08
v -1 1 1.002098e-07
v -0.4999999 0.7500001 1.262868e-07
v -0.4999999 1 1.002098e-07
v -2.5 1 7.040748e-08
v -2.25 1 7.040748e-08
v -2.25 1.25 7.101508e-08
v -2.5 1.25 7.040748e-08
v -2 0.9999999 1.895841e-07
v -2 1.25 4.805574e-08
v -1.25 1 8.530864e-08
v -1.25 1.25 1.002098e-07
v -1.5 1.25 8.530864e-08
v -1 1.25 8.530864e-08
v -2.25 1.5 4.805574e-08
v -2.5 1.5 7.101508e-08
v -2 1.5 5.550632e-08
v -1.25 1.5 8.530864e-08
v -1.5 1.5 1.300121e-07
v -1 1.5 8.530864e-08
v -1.75 1.5 5.550632e-08
v -1.75 1.75 4.060516e-08
v -2 1.75 5.550632e-08
v -1.5 1.75 5.550632e-08
v -0.75 1.5 8.530864e-08
v -0.7499999 1.75 1.580646e-07
v -1 1.75 8.530864e-08
v -1.75 2 5.550632e-08
v -2 2 4.060516e-08
v -1.5 2 5.550632e-08
v -2.5 2 5.550632e-08
v -2.25 2 5.550632e-08
v -2.25 2.25 4.060516e-08
v -2.5 2.25 5.550632e-08
v -2 2.25 5.550632e-08
v -1.25 2 4.805574e-08
v -1.25 2.25 7.101508e-08
v -1.5 2.25 4.805574e-08
v -0.9999999 2 1.895841e-07
v -1 2.25 7.040748e-08
v -2.25 2.5 5.550632e-08
v -2.5 2.5 4.060516e-08
v -2 2.5 5.550632e-08
v -1.25 2.5 7.040748e-08
v -1.5 2.5 7.101508e-08
v -1 2.5 7.040748e-08
v -2.5 -5.960464e-08 1.598144e-07
v -2.25 -5.960464e-08 1.598144e-07
v -2.25 0.2499999 1.598144e-07
v -2.5 0.2499999 1.598144e-07
v -2 0.2499999 1.598144e-07
v -1.25 -5.587935e-08 1.560892e-07
v -1.25 0.2499999 1.566677e-07
v -1.5 0.2499999 1.598144e-07
v -1 0.2499999 1.225615e-07
v -0.25 0 1.002098e-07
v -0.25 0.25 1.002098e-07
v 0 0 1.002098e-07
v 0 0.25 1.002098e-07
v -2.25 0.4999999 1.598144e-07
v -2.5 0.4999999 1.598144e-07
v -2 0.4999999 1.598144e-07
v -1.25 0.4999999 1.262868e-07
v -1.5 0.4999999 1.571333e-07
v 0 0.5 1.002098e-07
v -1.75 0.4999999 1.523639e-07
v -2 0.7499999 1.523639e-07
v -0.2499999 1 1.225615e-07
v -0.2499999 1.25 1.566677e-07
v -0.4999999 1.25 1.262868e-07
v 8.202177e-08 1 1.226269e-07
v 5.587935e-08 1.25 1.560892e-07
v -0.2499999 1.5 1.598144e-07
v -0.4999999 1.5 1.571333e-07
v 5.960464e-08 1.5 1.598144e-07
v -0.4999999 1.75 1.523639e-07
v -0.7499999 2 1.523639e-07
v -0.4999999 2 1.598144e-07
v -0.2499999 2 1.598144e-07
v -0.2499999 2.25 1.598144e-07
v -0.4999999 2.25 1.598144e-07
v 5.960464e-08 2 1.598144e-07
v 5.960464e-08 2.25 1.598144e-07
v -0.2499999 2.5 1.598144e-07
v -0.4999999 2.5 1.598144e-07
v 5.960464e-08 2.5 1.598144e-07
v 1 -2.5 7.040748e-08
v 1.25 -2.5 7.040748e-08
v 1.25 -2.25 7.101508e-08
v 1 -2.25 7.040748e-08
v 1.5 -2.5 7.101508e-08
v 1.5 -2.25 4.805574e-08
v 2 -2.5 5.550632e-08
v 2.25 -2.5 5.550632e-08
v 2.25 -2.25 4.060516e-08
v 2 -2.25 5.550632e-08
v 2.5 -2.5 4.060516e-08
v 2.5 -2.25 5.550632e-08
v 1.25 -2 4.805574e-08
v 0.9999999 -2 1.895841e-07
v 1.5 -2 5.550632e-08
v 2.25 -2 5.550632e-08
v 2 -2 4.060516e-08
v 2.5 -2 5.550632e-08
v 1.75 -2 5.550632e-08
v 1.75 -1.75 4.060516e-08
v 1.5 -1.75 5.550632e-08
v 2 -1.75 5.550632e-08
v 0.7499999 -1.75 1.580646e-07
v 1 -1.75 8.530864e-08
v 1 -1.5 8.530864e-08
v 0.75 -1.5 8.530864e-08
v 1.75 -1.5 5.550632e-08
v 1.5 -1.5 1.300121e-07
v 2 -1.5 5.550632e-08
v 1.25 -1.5 8.530864e-08
v 1.25 -1.25 1.002098e-07
v 1 -1.25 8.530864e-08
v 1.5 -1.25 8.530864e-08
v 2.25 -1.5 4.805574e-08
v 2.25 -1.25 7.101508e-08
v 2 -1.25 4.805574e-08
v 2.5 -1.5 7.101508e-08
v 2.5 -1.25 7.040748e-08
v 1.25 -1 8.530864e-08
v 1 -1 1.002098e-07
v 1.5 -1 8.530864e-08
v 2.25 -1 7.040748e-08
v 2 -0.9999999 1.895841e-07
v 2.5 -1 7.040748e-08
v 0.4999999 -1 1.002098e-07
v 0.75 -1 7.040748e-08
v 0.75 -0.75 8.530864e-08
v 0.4999999 -0.7500001 1.262868e-07
v 1 -0.75 7.040748e-08
v 1.75 -1 8.530864e-08
v 1.75 -0.7499999 1.580646e-07
v 1.5 -0.75 8.530864e-08
v 1 -0.4999999 1.002098e-07
v 0.7500001 -0.4999999 1.262868e-07
v 0.2499999 -0.5 1.002098e-07
v 0.5 -0.5 1.152238e-07
v 0.5 -0.2499999 1.002098e-07
v -5.960464e-08 -2.5 1.598144e-07
v 0.2499999 -2.5 1.598144e-07
v 0.2499999 -2.25 1.598144e-07
v -5.960464e-08 -2.25 1.598144e-07
v 0.4999999 -2.5 1.598144e-07
v 0.4999999 -2.25 1.598144e-07
v 0.2499999 -2 1.598144e-07
v 0.4999999 -2 1.598144e-07
v 0.7499999 -2 1.523639e-07
v 0.4999999 -1.75 1.523639e-07
v 0.4999999 -1.5 1.571333e-07
v 0.2499999 -1.5 1.598144e-07
v 0.2499999 -1.25 1.566677e-07
v -5.587935e-08 -1.25 1.560892e-07
v 0.4999999 -1.25 1.262868e-07
v 0.2499999 -1 1.225615e-07
v 2 -0.7499999 1.523639e-07
v 1.75 -0.4999999 1.523639e-07
v 1.5 -0.4999999 1.571333e-07
v 2 -0.4999999 1.598144e-07
v 0.25 -0.25 1.002098e-07
v 0 -0.25 1.002098e-07
v 1.25 -0.4999999 1.262868e-07
v 1.25 -0.2499999 1.566677e-07
v 1 -0.2499999 1.225615e-07
v 1.5 -0.2499999 1.598144e-07
v 2.25 -0.4999999 1.598144e-07
v 2.25 -0.2499999 1.598144e-07
v 2 -0.2499999 1.598144e-07
v 2.5 -0.4999999 1.598144e-07
v 2.5 -0.2499999 1.598144e-07
v 0.25 0 1.002098e-07
v 0.5 0 1.002098e-07
v 1.25 5.587935e-08 1.560892e-07
v 1 8.202177e-08 1.226269e-07
v 1.5 5.960464e-08 1.598144e-07
v 2.25 5.960464e-08 1.598144e-07
v 2 5.960464e-08 1.598144e-07
v 2.5 5.960464e-08 1.598144e-07
v 0.75 5.587935e-08 3.687987e-08
v 1 0.25 7.040748e-08
v 0.5 0.25 1.002098e-07
v 0.75 0.5 1.002098e-07
v 0.5 0.5 4.680069e-08
v 0.25 0.5 1.002098e-07
v 0.5 0.75 1.002098e-07
v 1 0.5 7.040748e-08
v 1.25 0.5 6.668219e-08
v 1.25 0.75 4.060516e-08
v 1 0.75 7.040748e-08
v 1.5 0.5 3.795313e-08
v 1.5 0.75 8.903393e-08
v 2.25 0.5000001 1.598144e-07
v 2.5 0.4999999 4.060516e-08
v 2.5 0.75 7.040748e-08
v 2.25 0.7499999 4.060516e-08
v 5.587935e-08 0.75 3.687987e-08
v 0.25 1 7.040748e-08
v 1.25 1 8.530864e-08
v 1 1 5.550632e-08
v 1.5 1 8.530864e-08
v 2 0.7500001 1.523639e-07
v 2.25 1 7.040748e-08
v 2 1 8.545058e-08
v 2.5 1 7.040748e-08
v 0.5 1 7.040748e-08
v 0.75 1 7.040748e-08
v 0.75 1.25 4.060516e-08
v 0.5 1.25 6.668219e-08
v 1 1.25 8.530864e-08
v 1.75 1 8.903393e-08
v 1.75 1.25 8.530864e-08
v 1.5 1.25 8.530864e-08
v 2 1.25 4.805574e-08
v 0.75 1.5 8.903393e-08
v 0.5 1.5 3.795313e-08
v 1 1.5 8.530864e-08
v 1.75 1.5 5.550632e-08
v 1.5 1.5 4.060516e-08
v 2 1.5 4.805574e-08
v 1.25 1.5 8.530864e-08
v 1.25 1.75 8.530864e-08
v 1 1.75 8.903393e-08
v 1.5 1.75 5.550632e-08
v 2.25 1.5 4.805574e-08
v 2.25 1.75 4.805574e-08
v 2 1.75 5.550632e-08
v 2.5 1.5 6.841134e-09
v 2.5 1.75 4.805574e-08
v 1.25 2 4.805574e-08
v 1 2 8.545058e-08
v 1.5 2 4.805574e-08
v 2.25 2 5.550632e-08
v 2 2 4.060516e-08
v 2.5 2 4.805574e-08
v 0.7500001 2 1.523639e-07
v 1 2.25 7.040748e-08
v 0.7499999 2.25 4.060516e-08
v 1.75 2 5.550632e-08
v 1.75 2.25 4.805574e-08
v 1.5 2.25 4.805574e-08
v 2 2.25 5.550632e-08
v 0.5000001 2.25 1.598144e-07
v 0.75 2.5 7.040748e-08
v 0.4999999 2.5 4.060516e-08
v 1 2.5 7.040748e-08
v 1.75 2.5 4.805574e-08
v 1.5 2.5 6.841134e-09
v 2 2.5 4.805574e-08
v 0.75 0.2500001 1.570242e-07
v 1.75 5.960464e-08 1.598144e-07
v 1.75 0.2500001 1.598144e-07
v 1.5 0.2500001 1.560892e-07
v 2 0.2500001 1.598144e-07
v 1.75 0.5000001 1.523639e-07
v 2 0.5000001 1.598144e-07
v 0.2500001 0.75 1.570242e-07
v 0.2500001 1.5 1.560892e-07
v 0.2500001 1.75 1.598144e-07
v 5.960464e-08 1.75 1.598144e-07
v 0.5000001 1.75 1.523639e-07
v 0.2500001 2 1.598144e-07
v 0.5000001 2 1.598144e-07
vt -1.5 -2
vt -1.25 -2
vt -1.25 -1.75
vt -1.5 -2
vt -1.25 -1.75
vt -1.5 -1.75
vt -1.25 -2
vt -1 -2
vt -1 -1.75
vt -1.25 -2
vt -1 -1.75
vt -1.25 -1.75
vt -0.5 -2
vt -0.25 -2
vt -0.25 -1.75
vt -0.5 -2
vt -0.25 -1.75
vt -0.5 -1.75
vt -0.25 -2
vt 5.96046e-08 -2
vt -5.96046e-08 -1.75
vt -0.25 -2
vt -5.96046e-08 -1.75
vt -0.25 -1.75
vt -1.5 -1.75
vt -1.25 -1.75
vt -1.25 -1.5
vt -1.5 -1.75
vt -1.25 -1.5
vt -1.5 -1.5
vt -1.25 -1.75
vt -1 -1.75
vt -1 -1.5
vt -1.25 -1.75
vt -1 -1.5
vt -1.25 -1.5
vt -0.5 -1.75
vt -0.25 -1.75
vt -0.25 -1.5
vt -0.5 -1.75
vt -0.25 -1.5
vt -0.5 -1.5
vt -2 -1.5
vt -1.75 -1.5
vt -1.75 -1.25
vt -2 -1.5
vt -1.75 -1.25
vt -2 -1.25
vt -1.75 -1.5
vt -1.5 -1.5
vt -1.5 -1.25
vt -1.75 -1.5
vt -1.5 -1.25
vt -1.75 -1.25
vt -1 -1.5
vt -0.75 -1.5
vt -0.75 -1.25
vt -1 -1.5
vt -0.75 -1.25
vt -1 -1.25
vt -0.75 -1.5
vt -0.5 -1.5
vt -0.5 -1.25
vt -0.75 -1.5
vt -0.5 -1.25
vt -0.75 -1.25
vt -2 -1.25
vt -1.75 -1.25
vt -1.75 -1
vt -2 -1.25
vt -1.75 -1
vt -2 -1
vt -1.75 -1.25
vt -1.5 -1.25
vt -1.5 -1
vt -1.75 -1.25
vt -1.5 -1
vt -1.75 -1
vt -1 -1.25
vt -0.75 -1.25
vt -0.75 -1
vt -1 -1.25
vt -0.75 -1
vt -1 -1
vt -0.75 -1.25
vt -0.5 -1.25
vt -0.5 -1
vt -0.75 -1.25
vt -0.5 -1
vt -0.75 -1
vt -1.5 -1
vt -1.25 -1
vt -1.25 -0.75
vt -1.5 -1
vt -1.25 -0.75
vt -1.5 -0.75
vt -1.25 -1
vt -1 -1
vt -1 -0.75
vt -1.25 -1
vt -1 -0.75
vt -1.25 -0.75
vt -0.5 -1
vt -0.25 -1
vt -0.25 -0.75
vt -0.5 -1
vt -0.25 -0.75
vt -0.5 -0.75
vt -0.25 -1
vt 0 -1
vt 2.98023e-08 -0.75
vt -0.25 -1
vt 2.98023e-08 -0.75
vt -0.25 -0.75
vt -1.5 -0.75
vt -1.25 -0.75
vt -1.25 -0.5
vt -1.5 -0.75
vt -1.25 -0.5
vt -1.5 -0.5
vt -1.25 -0.75
vt -1 -0.75
vt -1 -0.5
vt -1.25 -0.75
vt -1 -0.5
vt -1.25 -0.5
vt -0.5 -0.75
vt -0.25 -0.75
vt -0.25 -0.5
vt -0.5 -0.75
vt -0.25 -0.5
vt -0.5 -0.5
vt -0.25 -0.75
vt 2.98023e-08 -0.75
vt 2.98023e-08 -0.5
vt -0.25 -0.75
vt 2.98023e-08 -0.5
vt -0.25 -0.5
vt -2 -0.5
vt -1.75 -0.5
vt -1.75 -0.25
vt -2 -0.5
vt -1.75 -0.25
vt -2 -0.25
vt -1.75 -0.5
vt -1.5 -0.5
vt -1.5 -0.25
vt -1.75 -0.5
vt -1.5 -0.25
vt -1.75 -0.25
vt -1 -0.5
vt -0.75 -0.5
vt -0.75 -0.25
vt -1 -0.5
vt -0.75 -0.25
vt -1 -0.25
vt -0.75 -0.5
vt -0.5 -0.5
vt -0.5 -0.25
vt -0.75 -0.5
vt -0.5 -0.25
vt -0.75 -0.25
vt 0.25 -0.5
vt 0.5 -0.5
vt 0.5 -0.25
vt -2 -0.25
vt -1.75 -0.25
vt -1.75 -5.96046e-08
vt -2 -0.25
vt -1.75 -5.96046e-08
vt -2 5.96046e-08
vt -1 -0.25
vt -0.75 -0.25
vt -0.75 2.98023e-08
vt -1 -0.25
vt -0.75 2.98023e-08
vt -1 0
vt -0.75 -0.25
vt -0.5 -0.25
vt -0.5 2.98023e-08
vt -0.75 -0.25
vt -0.5 2.98023e-08
vt -0.75 2.98023e-08
vt 0 -0.25
vt 0.25 0
vt 2.98023e-08 2.98023e-08
vt -0.25 0
vt 2.98023e-08 2.98023e-08
vt 0 0.25
vt -0.5 0.25
vt -0.25 0.5
vt -0.5 0.5
vt -0.25 -1.75
vt -5.96046e-08 -1.75
vt -5.96046e-08 -1.5
vt -0.25 -1.75
vt -5.96046e-08 -1.5
vt -0.25 -1.5
vt -5.96046e-08 -1.5
vt 0.25 -1.5
vt 0.25 -1.25
vt -5.96046e-08 -1.5
vt 0.25 -1.25
vt -5.96046e-08 -1.25
vt 0.25 -1.5
vt 0.5 -1.5
vt 0.5 -1.25
vt 0.25 -1.5
vt 0.5 -1.25
vt 0.25 -1.25
vt -5.96046e-08 -1.25
vt 0.25 -1.25
vt 0.25 -1
vt -5.96046e-08 -1.25
vt 0.25 -1
vt 0 -1
vt 0.25 -1.25
vt 0.5 -1.25
vt 0.5 -1
vt 0.25 -1.25
vt 0.5 -1
vt 0.25 -1
vt 2.98023e-08 -0.5
vt 0.25 -0.5
vt 0.25 -0.25
vt 2.98023e-08 -0.5
vt 0.25 -0.25
vt 0 -0.25
vt 0.25 -0.5
vt 0.5 -0.25
vt 0.25 -0.25
vt -1.75 -0.25
vt -1.5 -0.25
vt -1.5 -5.96046e-08
vt -1.75 -0.25
vt -1.5 -5.96046e-08
vt -1.75 -5.96046e-08
vt 0 -0.25
vt 0.25 -0.25
vt 0.25 0
vt 0.25 -0.25
vt 0.5 -0.25
vt 0.5 0
vt 0.25 -0.25
vt 0.5 0
vt 0.25 0
vt -1.5 -5.96046e-08
vt -1.25 -5.96046e-08
vt -1.25 0.25
vt -1.5 -5.96046e-08
vt -1.25 0.25
vt -1.5 0.25
vt -1.25 -5.96046e-08
vt -1 0
vt -1 0.25
vt -1.25 -5.96046e-08
vt -1 0.25
vt -1.25 0.25
vt -0.5 2.98023e-08
vt -0.25 0
vt -0.25 0.25
vt -0.5 2.98023e-08
vt -0.25 0.25
vt -0.5 0.25
vt -0.25 0
vt 0 0.25
vt -0.25 0.25
vt -1.5 0.25
vt -1.25 0.25
vt -1.25 0.5
vt -1.5 0.25
vt -1.25 0.5
vt -1.5 0.5
vt -1.25 0.25
vt -1 0.25
vt -1 0.5
vt -1.25 0.25
vt -1 0.5
vt -1.25 0.5
vt -0.5 0.25
vt -0.25 0.25
vt -0.25 0.5
vt -0.25 0.25
vt 0 0.25
vt 0 0.5
vt -0.25 0.25
vt 0 0.5
vt -0.25 0.5
vt 0 0.75
vt 0.25 1
vt 2.98023e-08 1
vt -0.5 1
vt -0.25 1
vt -0.25 1.25
vt -0.5 1
vt -0.25 1.25
vt -0.5 1.25
vt -1.25 1.25
vt -1 1.25
vt -1 1.5
vt -1.25 1.25
vt -1 1.5
vt -1.25 1.5
vt -0.5 1.25
vt -0.25 1.25
vt -0.25 1.5
vt -0.5 1.25
vt -0.25 1.5
vt -0.5 1.5
vt -0.25 1.25
vt 8.9407e-08 1.25
vt 5.96046e-08 1.5
vt -0.25 1.25
vt 5.96046e-08 1.5
vt -0.25 1.5
vt -2 1.5
vt -1.75 1.5
vt -1.75 1.75
vt -2 1.5
vt -1.75 1.75
vt -2 1.75
vt -1.75 1.5
vt -1.5 1.5
vt -1.5 1.75
vt -1.75 1.5
vt -1.5 1.75
vt -1.75 1.75
vt -1 1.5
vt -0.75 1.5
vt -0.75 1.75
vt -1 1.5
vt -0.75 1.75
vt -1 1.75
vt -0.75 1.5
vt -0.5 1.5
vt -0.5 1.75
vt -0.75 1.5
vt -0.5 1.75
vt -0.75 1.75
vt -2 1.75
vt -1.75 1.75
vt -1.75 2
vt -2 1.75
vt -1.75 2
vt -2 2
vt -1.75 1.75
vt -1.5 1.75
vt -1.5 2
vt -1.75 1.75
vt -1.5 2
vt -1.75 2
vt -1 1.75
vt -0.75 1.75
vt -0.75 2
vt -1 1.75
vt -0.75 2
vt -1 2
vt -0.75 1.75
vt -0.5 1.75
vt -0.5 2
vt -0.75 1.75
vt -0.5 2
vt -0.75 2
vt -1.5 2
vt -1.25 2
vt -1.25 2.25
vt -1.5 2
vt -1.25 2.25
vt -1.5 2.25
vt -1.25 2
vt -1 2
vt -1 2.25
vt -1.25 2
vt -1 2.25
vt -1.25 2.25
vt -0.5 2
vt -0.25 2
vt -0.25 2.25
vt -0.5 2
vt -0.25 2.25
vt -0.5 2.25
vt -1.5 2.25
vt -1.25 2.25
vt -1.25 2.5
vt -1.5 2.25
vt -1.25 2.5
vt -1.5 2.5
vt -1.25 2.25
vt -1 2.25
vt -1 2.5
vt -1.25 2.25
vt -1 2.5
vt -1.25 2.5
vt -2 2.5
vt -1.75 2.5
vt -1.75 2.75
vt -2 2.5
vt -1.75 2.75
vt -2 2.75
vt -1.75 2.5
vt -1.5 2.5
vt -1.5 2.75
vt -1.75 2.5
vt -1.5 2.75
vt -1.75 2.75
vt -1 2.5
vt -0.75 2.5
vt -0.75 2.75
vt -1 2.5
vt -0.75 2.75
vt -1 2.75
vt -0.75 2.5
vt -0.5 2.5
vt -0.5 2.75
vt -0.75 2.5
vt -0.5 2.75
vt -0.75 2.75
vt -2 2.75
vt -1.75 2.75
vt -1.75 3
vt -2 2.75
vt -1.75 3
vt -2 3
vt -1.75 2.75
vt -1.5 2.75
vt -1.5 3
vt -1.75 2.75
vt -1.5 3
vt -1.75 3
vt -1 2.75
vt -0.75 2.75
vt -0.75 3
vt -1 2.75
vt -0.75 3
vt -1 3
vt -0.75 2.75
vt -0.5 2.75
vt -0.5 3
vt -0.75 2.75
vt -0.5 3
vt -0.75 3
vt -2 0.5
vt -1.75 0.5
vt -1.75 0.75
vt -2 0.5
vt -1.75 0.75
vt -2 0.75
vt -1.75 0.5
vt -1.5 0.5
vt -1.5 0.75
vt -1.75 0.5
vt -1.5 0.75
vt -1.75 0.75
vt -1 0.5
vt -0.75 0.5
vt -0.75 0.75
vt -1 0.5
vt -0.75 0.75
vt -1 0.75
vt -0.75 0.5
vt -0.5 0.5
vt -0.5 0.75
vt -0.75 0.5
vt -0.5 0.75
vt -0.75 0.75
vt 0 0.5
vt 0.25 0.5
vt 0.25 0.75
vt 0 0.5
vt 0.25 0.75
vt 0 0.75
vt 0.25 0.5
vt 0.5 0.5
vt 0.5 0.75
vt 0.25 0.5
vt 0.5 0.75
vt 0.25 0.75
vt -2 0.75
vt -1.75 0.75
vt -1.75 1
vt -2 0.75
vt -1.75 1
vt -2 1
vt -1.75 0.75
vt -1.5 0.75
vt -1.5 1
vt -1.75 0.75
vt -1.5 1
vt -1.75 1
vt -1 0.75
vt -0.75 0.75
vt -0.75 1
vt -1 0.75
vt -0.75 1
vt -1 1
vt -0.75 0.75
vt -0.5 0.75
vt -0.5 1
vt -0.75 0.75
vt -0.5 1
vt -0.75 1
vt 0 0.75
vt 0.25 0.75
vt 0.25 1
vt 0.25 0.75
vt 0.5 0.75
vt 0.5 1
vt 0.25 0.75
vt 0.5 1
vt 0.25 1
vt -1.5 1
vt -1.25 1
vt -1.25 1.25
vt -1.5 1
vt -1.25 1.25
vt -1.5 1.25
vt -1.25 1
vt -1 1
vt -1 1.25
vt -1.25 1
vt -1 1.25
vt -1.25 1.25
vt -0.25 1
vt 2.98023e-08 1
vt 8.9407e-08 1.25
vt -0.25 1
vt 8.9407e-08 1.25
vt -0.25 1.25
vt -1.5 1.25
vt -1.25 1.25
vt -1.25 1.5
vt -1.5 1.25
vt -1.25 1.5
vt -1.5 1.5
vt 5.96046e-08 1.5
vt 0.25 1.5
vt 0.25 1.75
vt 5.96046e-08 1.5
vt 0.25 1.75
vt 8.9407e-08 1.75
vt 0.25 1.5
vt 0.5 1.5
vt 0.5 1.75
vt 0.25 1.5
vt 0.5 1.75
vt 0.25 1.75
vt 8.9407e-08 1.75
vt 0.25 1.75
vt 0.25 2
vt 8.9407e-08 1.75
vt 0.25 2
vt 5.96046e-08 2
vt 0.25 1.75
vt 0.5 1.75
vt 0.5 2
vt 0.25 1.75
vt 0.5 2
vt 0.25 2
vt -0.25 2
vt 5.96046e-08 2
vt 5.96046e-08 2.25
vt -0.25 2
vt 5.96046e-08 2.25
vt -0.25 2.25
vt -0.5 2.25
vt -0.25 2.25
vt -0.25 2.5
vt -0.5 2.25
vt -0.25 2.5
vt -0.5 2.5
vt -0.25 2.25
vt 5.96046e-08 2.25
vt 5.96046e-08 2.5
vt -0.25 2.25
vt 5.96046e-08 2.5
vt -0.25 2.5
vt 5.96046e-08 2.5
vt 0.25 2.5
vt 0.25 2.75
vt 5.96046e-08 2.5
vt 0.25 2.75
vt 5.96046e-08 2.75
vt 0.25 2.5
vt 0.5 2.5
vt 0.5 2.75
vt 0.25 2.5
vt 0.5 2.75
vt 0.25 2.75
vt 5.96046e-08 2.75
vt 0.25 2.75
vt 0.25 3
vt 5.96046e-08 2.75
vt 0.25 3
vt 5.96046e-08 3
vt 0.25 2.75
vt 0.5 2.75
vt 0.5 3
vt 0.25 2.75
vt 0.5 3
vt 0.25 3
vt 1.5 -2
vt 1.75 -2
vt 1.75 -1.75
vt 1.5 -2
vt 1.75 -1.75
vt 1.5 -1.75
vt 1.75 -2
vt 2 -2
vt 2 -1.75
vt 1.75 -2
vt 2 -1.75
vt 1.75 -1.75
vt 2.5 -2
vt 2.75 -2
vt 2.75 -1.75
vt 2.5 -2
vt 2.75 -1.75
vt 2.5 -1.75
vt 2.75 -2
vt 3 -2
vt 3 -1.75
vt 2.75 -2
vt 3 -1.75
vt 2.75 -1.75
vt 1.5 -1.75
vt 1.75 -1.75
vt 1.75 -1.5
vt 1.5 -1.75
vt 1.75 -1.5
vt 1.5 -1.5
vt 1.75 -1.75
vt 2 -1.75
vt 2 -1.5
vt 1.75 -1.75
vt 2 -1.5
vt 1.75 -1.5
vt 2.5 -1.75
vt 2.75 -1.75
vt 2.75 -1.5
vt 2.5 -1.75
vt 2.75 -1.5
vt 2.5 -1.5
vt 2.75 -1.75
vt 3 -1.75
vt 3 -1.5
vt 2.75 -1.75
vt 3 -1.5
vt 2.75 -1.5
vt 2 -1.5
vt 2.25 -1.5
vt 2.25 -1.25
vt 2 -1.5
vt 2.25 -1.25
vt 2 -1.25
vt 2.25 -1.5
vt 2.5 -1.5
vt 2.5 -1.25
vt 2.25 -1.5
vt 2.5 -1.25
vt 2.25 -1.25
vt 1.25 -1.25
vt 1.5 -1.25
vt 1.5 -1
vt 1.25 -1.25
vt 1.5 -1
vt 1.25 -1
vt 2 -1.25
vt 2.25 -1.25
vt 2.25 -1
vt 2 -1.25
vt 2.25 -1
vt 2 -1
vt 2.25 -1.25
vt 2.5 -1.25
vt 2.5 -1
vt 2.25 -1.25
vt 2.5 -1
vt 2.25 -1
vt 1.5 -1
vt 1.75 -1
vt 1.75 -0.75
vt 1.5 -1
vt 1.75 -0.75
vt 1.5 -0.75
vt 1.75 -1
vt 2 -1
vt 2 -0.75
vt 1.75 -1
vt 2 -0.75
vt 1.75 -0.75
vt 2.5 -1
vt 2.75 -1
vt 2.75 -0.75
vt 2.5 -1
vt 2.75 -0.75
vt 2.5 -0.75
vt 2.75 -1
vt 3 -1
vt 3 -0.75
vt 2.75 -1
vt 3 -0.75
vt 2.75 -0.75
vt 1.5 -0.75
vt 1.75 -0.75
vt 1.75 -0.5
vt 1.5 -0.75
vt 1.75 -0.5
vt 1.5 -0.5
vt 1.75 -0.75
vt 2 -0.75
vt 2 -0.5
vt 1.75 -0.75
vt 2 -0.5
vt 1.75 -0.5
vt 2.5 -0.75
vt 2.75 -0.75
vt 2.75 -0.5
vt 2.5 -0.75
vt 2.75 -0.5
vt 2.5 -0.5
vt 2.75 -0.75
vt 3 -0.75
vt 3 -0.5
vt 2.75 -0.75
vt 3 -0.5
vt 2.75 -0.5
vt 1 -0.5
vt 1.25 -0.5
vt 1.25 -0.25
vt 1 -0.5
vt 1.25 -0.25
vt 1 -0.25
vt 1.25 -0.5
vt 1.5 -0.5
vt 1.5 -0.25
vt 1.25 -0.5
vt 1.5 -0.25
vt 1.25 -0.25
vt 2 -0.5
vt 2.25 -0.5
vt 2.25 -0.25
vt 2 -0.5
vt 2.25 -0.25
vt 2 -0.25
vt 1.25 -0.25
vt 1.5 -0.25
vt 1.5 5.96046e-08
vt 1.25 -0.25
vt 1.5 5.96046e-08
vt 1.25 8.9407e-08
vt 0.75 0
vt 1 2.98023e-08
vt 1 0.25
vt 0.5 -2
vt 0.75 -2
vt 0.75 -1.75
vt 0.5 -2
vt 0.75 -1.75
vt 0.5 -1.75
vt 0.75 -2
vt 1 -2
vt 1 -1.75
vt 0.75 -2
vt 1 -1.75
vt 0.75 -1.75
vt 0.5 -1.75
vt 0.75 -1.75
vt 0.75 -1.5
vt 0.5 -1.75
vt 0.75 -1.5
vt 0.5 -1.5
vt 0.75 -1.75
vt 1 -1.75
vt 1 -1.5
vt 0.75 -1.75
vt 1 -1.5
vt 0.75 -1.5
vt 1 -1.5
vt 1.25 -1.5
vt 1.25 -1.25
vt 1 -1.5
vt 1.25 -1.25
vt 1 -1.25
vt 1.25 -1.5
vt 1.5 -1.5
vt 1.5 -1.25
vt 1.25 -1.5
vt 1.5 -1.25
vt 1.25 -1.25
vt 1 -1.25
vt 1.25 -1.25
vt 1.25 -1
vt 1 -1.25
vt 1.25 -1
vt 1 -1
vt 0.5 -1
vt 0.75 -1
vt 0.75 -0.75
vt 0.5 -1
vt 0.75 -0.75
vt 0.5 -0.75
vt 0.75 -1
vt 1 -1
vt 1 -0.75
vt 0.75 -1
vt 1 -0.75
vt 0.75 -0.75
vt 0.5 -0.75
vt 0.75 -0.75
vt 0.75 -0.5
vt 0.5 -0.75
vt 0.75 -0.5
vt 0.5 -0.5
vt 0.75 -0.75
vt 1 -0.75
vt 1 -0.5
vt 0.75 -0.75
vt 1 -0.5
vt 0.75 -0.5
vt 2.25 -0.5
vt 2.5 -0.5
vt 2.5 -0.25
vt 2.25 -0.5
vt 2.5 -0.25
vt 2.25 -0.25
vt 1 -0.25
vt 1.25 -0.25
vt 1.25 8.9407e-08
vt 1 -0.25
vt 1.25 8.9407e-08
vt 1 2.98023e-08
vt 2 -0.25
vt 2.25 -0.25
vt 2.25 5.96046e-08
vt 2 -0.25
vt 2.25 5.96046e-08
vt 2 5.96046e-08
vt 2.25 -0.25
vt 2.5 -0.25
vt 2.5 5.96046e-08
vt 2.25 -0.25
vt 2.5 5.96046e-08
vt 2.25 5.96046e-08
vt 0.5 0
vt 0.75 0
vt 0.75 0.25
vt 0.5 0
vt 0.75 0.25
vt 0.5 0.25
vt 0.75 0
vt 1 0.25
vt 0.75 0.25
vt 1.5 5.96046e-08
vt 1.75 8.9407e-08
vt 1.75 0.25
vt 1.5 5.96046e-08
vt 1.75 0.25
vt 1.5 0.25
vt 1.75 8.9407e-08
vt 2 5.96046e-08
vt 2 0.25
vt 1.75 8.9407e-08
vt 2 0.25
vt 1.75 0.25
vt 2.5 5.96046e-08
vt 2.75 5.96046e-08
vt 2.75 0.25
vt 2.5 5.96046e-08
vt 2.75 0.25
vt 2.5 0.25
vt 2.75 5.96046e-08
vt 3 5.96046e-08
vt 3 0.25
vt 2.75 5.96046e-08
vt 3 0.25
vt 2.75 0.25
vt 0.5 0.25
vt 0.75 0.25
vt 0.75 0.5
vt 0.5 0.25
vt 0.75 0.5
vt 0.5 0.5
vt 0.75 0.25
vt 1 0.25
vt 1 0.5
vt 0.75 0.25
vt 1 0.5
vt 0.75 0.5
vt 1.5 0.25
vt 1.75 0.25
vt 1.75 0.5
vt 1.5 0.25
vt 1.75 0.5
vt 1.5 0.5
vt 1.75 0.25
vt 2 0.25
vt 2 0.5
vt 1.75 0.25
vt 2 0.5
vt 1.75 0.5
vt 2.5 0.25
vt 2.75 0.25
vt 2.75 0.5
vt 2.5 0.25
vt 2.75 0.5
vt 2.5 0.5
vt 2.75 0.25
vt 3 0.25
vt 3 0.5
vt 2.75 0.25
vt 3 0.5
vt 2.75 0.5
vt 1.25 0.5
vt 1.5 0.5
vt 1.5 0.75
vt 1 0.75
vt 1.25 1
vt 1 1
vt 0.75 1
vt 1 1
vt 1 1.25
vt 1.5 1
vt 1.75 1
vt 1.75 1.25
vt 1.5 1
vt 1.75 1.25
vt 1.5 1.25
vt 1.75 1
vt 2 1
vt 2 1.25
vt 1.75 1
vt 2 1.25
vt 1.75 1.25
vt 2.75 1
vt 3 1
vt 3 1.25
vt 2.75 1
vt 3 1.25
vt 2.75 1.25
vt 0.5 1.25
vt 0.75 1.5
vt 0.5 1.5
vt 1.5 1.25
vt 1.75 1.25
vt 1.75 1.5
vt 1.5 1.25
vt 1.75 1.5
vt 1.5 1.5
vt 1.75 1.25
vt 2 1.25
vt 2 1.5
vt 1.75 1.25
vt 2 1.5
vt 1.75 1.5
vt 2.5 1.25
vt 2.75 1.25
vt 2.75 1.5
vt 2.5 1.25
vt 2.75 1.5
vt 2.5 1.5
vt 2.75 1.25
vt 3 1.25
vt 3 1.5
vt 2.75 1.25
vt 3 1.5
vt 2.75 1.5
vt 1 1.5
vt 1.25 1.5
vt 1.25 1.75
vt 1 1.5
vt 1.25 1.75
vt 1 1.75
vt 1.25 1.5
vt 1.5 1.5
vt 1.5 1.75
vt 1.25 1.5
vt 1.5 1.75
vt 1.25 1.75
vt 2 1.5
vt 2.25 1.5
vt 2.25 1.75
vt 2 1.5
vt 2.25 1.75
vt 2 1.75
vt 2.25 1.5
vt 2.5 1.5
vt 2.5 1.75
vt 2.25 1.5
vt 2.5 1.75
vt 2.25 1.75
vt 1 1.75
vt 1.25 1.75
vt 1.25 2
vt 1 1.75
vt 1.25 2
vt 1 2
vt 1.25 1.75
vt 1.5 1.75
vt 1.5 2
vt 1.25 1.75
vt 1.5 2
vt 1.25 2
vt 2 1.75
vt 2.25 1.75
vt 2.25 2
vt 2 1.75
vt 2.25 2
vt 2 2
vt 2.25 1.75
vt 2.5 1.75
vt 2.5 2
vt 2.25 1.75
vt 2.5 2
vt 2.25 2
vt 1.5 2
vt 1.75 2
vt 1.75 2.25
vt 1.5 2
vt 1.75 2.25
vt 1.5 2.25
vt 1.75 2
vt 2 2
vt 2 2.25
vt 1.75 2
vt 2 2.25
vt 1.75 2.25
vt 2.5 2
vt 2.75 2
vt 2.75 2.25
vt 2.5 2
vt 2.75 2.25
vt 2.5 2.25
vt 2.75 2
vt 3 2
vt 3 2.25
vt 2.75 2
vt 3 2.25
vt 2.75 2.25
vt 1.5 2.25
vt 1.75 2.25
vt 1.75 2.5
vt 1.5 2.25
vt 1.75 2.5
vt 1.5 2.5
vt 1.75 2.25
vt 2 2.25
vt 2 2.5
vt 1.75 2.25
vt 2 2.5
vt 1.75 2.5
vt 2.5 2.25
vt 2.75 2.25
vt 2.75 2.5
vt 2.5 2.25
vt 2.75 2.5
vt 2.5 2.5
vt 2.75 2.25
vt 3 2.25
vt 3 2.5
vt 2.75 2.25
vt 3 2.5
vt 2.75 2.5
vt 1.25 2.5
vt 1.5 2.5
vt 1.5 2.75
vt 1.25 2.5
vt 1.5 2.75
vt 1.25 2.75
vt 2 2.5
vt 2.25 2.5
vt 2.25 2.75
vt 2 2.5
vt 2.25 2.75
vt 2 2.75
vt 2.25 2.5
vt 2.5 2.5
vt 2.5 2.75
vt 2.25 2.5
vt 2.5 2.75
vt 2.25 2.75
vt 1 2.75
vt 1.25 2.75
vt 1.25 3
vt 1 2.75
vt 1.25 3
vt 1 3
vt 1.25 2.75
vt 1.5 2.75
vt 1.5 3
vt 1.25 2.75
vt 1.5 3
vt 1.25 3
vt 2 2.75
vt 2.25 2.75
vt 2.25 3
vt 2 2.75
vt 2.25 3
vt 2 3
vt 2.25 2.75
vt 2.5 2.75
vt 2.5 3
vt 2.25 2.75
vt 2.5 3
vt 2.25 3
vt 1 0.5
vt 1.25 0.5
vt 1.25 0.75
vt 1 0.5
vt 1.25 0.75
vt 1 0.75
vt 1.25 0.5
vt 1.5 0.75
vt 1.25 0.75
vt 2 0.5
vt 2.25 0.5
vt 2.25 0.75
vt 2 0.5
vt 2.25 0.75
vt 2 0.75
vt 2.25 0.5
vt 2.5 0.5
vt 2.5 0.75
vt 2.25 0.5
vt 2.5 0.75
vt 2.25 0.75
vt 1 0.75
vt 1.25 0.75
vt 1.25 1
vt 1.25 0.75
vt 1.5 0.75
vt 1.5 1
vt 1.25 0.75
vt 1.5 1
vt 1.25 1
vt 2 0.75
vt 2.25 0.75
vt 2.25 1
vt 2 0.75
vt 2.25 1
vt 2 1
vt 2.25 0.75
vt 2.5 0.75
vt 2.5 1
vt 2.25 0.75
vt 2.5 1
vt 2.25 1
vt 0.5 1
vt 0.75 1
vt 0.75 1.25
vt 0.5 1
vt 0.75 1.25
vt 0.5 1.25
vt 0.75 1
vt 1 1.25
vt 0.75 1.25
vt 2.5 1
vt 2.75 1
vt 2.75 1.25
vt 2.5 1
vt 2.75 1.25
vt 2.5 1.25
vt 0.5 1.25
vt 0.75 1.25
vt 0.75 1.5
vt 0.75 1.25
vt 1 1.25
vt 1 1.5
vt 0.75 1.25
vt 1 1.5
vt 0.75 1.5
vt 0.5 2
vt 0.75 2
vt 0.75 2.25
vt 0.5 2
vt 0.75 2.25
vt 0.5 2.25
vt 0.75 2
vt 1 2
vt 1 2.25
vt 0.75 2
vt 1 2.25
vt 0.75 2.25
vt 0.5 2.25
vt 0.75 2.25
vt 0.75 2.5
vt 0.5 2.25
vt 0.75 2.5
vt 0.5 2.5
vt 0.75 2.25
vt 1 2.25
vt 1 2.5
vt 0.75 2.25
vt 1 2.5
vt 0.75 2.5
vt 1 2.5
vt 1.25 2.5
vt 1.25 2.75
vt 1 2.5
vt 1.25 2.75
vt 1 2.75
f 1/1 2/2 3/3
f 1/4 3/5 4/6
f 2/7 5/8 6/9
f 2/10 6/11 3/12
f 7/13 8/14 9/15
f 7/16 9/17 10/18
f 8/19 11/20 12/21
f 8/22 12/23 9/24
f 4/25 3/26 13/27
f 4/28 13/29 14/30
f 3/31 6/32 15/33
f 3/34 15/35 13/36
f 10/37 9/38 16/39
f 10/40 16/41 17/42
f 18/43 19/44 20/45
f 18/46 20/47 21/48
f 19/49 14/50 22/51
f 19/52 22/53 20/54
f 15/55 23/56 24/57
f 15/58 24/59 25/60
f 23/61 17/62 26/63
f 23/64 26/65 24/66
f 21/67 20/68 27/69
f 21/70 27/71 28/72
f 20/73 22/74 29/75
f 20/76 29/77 27/78
f 25/79 24/80 30/81
f 25/82 30/83 31/84
f 24/85 26/86 32/87
f 24/88 32/89 30/90
f 29/91 33/92 34/93
f 29/94 34/95 35/96
f 33/97 31/98 36/99
f 33/100 36/101 34/102
f 32/103 37/104 38/105
f 32/106 38/107 39/108
f 37/109 40/110 41/111
f 37/112 41/113 38/114
f 35/115 34/116 42/117
f 35/118 42/119 43/120
f 34/121 36/122 44/123
f 34/124 44/125 42/126
f 39/127 38/128 45/129
f 39/130 45/131 46/132
f 38/133 41/134 47/135
f 38/136 47/137 45/138
f 48/139 49/140 50/141
f 48/142 50/143 51/144
f 49/145 43/146 52/147
f 49/148 52/149 50/150
f 44/151 53/152 54/153
f 44/154 54/155 55/156
f 53/157 46/158 56/159
f 53/160 56/161 54/162
f 57/163 58/164 59/165
f 51/166 50/167 60/168
f 51/169 60/170 61/171
f 55/172 54/173 62/174
f 55/175 62/176 63/177
f 54/178 56/179 64/180
f 54/181 64/182 62/183
f 65/184 66/185 67/186
f 68/187 67/188 69/189
f 70/190 71/191 72/192
f 9/193 12/194 73/195
f 9/196 73/197 16/198
f 73/199 74/200 75/201
f 73/202 75/203 76/204
f 74/205 77/206 78/207
f 74/208 78/209 75/210
f 76/211 75/212 79/213
f 76/214 79/215 40/216
f 75/217 78/218 80/219
f 75/220 80/221 79/222
f 47/223 57/224 81/225
f 47/226 81/227 65/228
f 57/229 59/230 81/231
f 50/232 52/233 82/234
f 50/235 82/236 60/237
f 65/238 81/239 66/240
f 81/241 59/242 83/243
f 81/244 83/245 66/246
f 82/247 84/248 85/249
f 82/250 85/251 86/252
f 84/253 63/254 87/255
f 84/256 87/257 85/258
f 64/259 68/260 88/261
f 64/262 88/263 70/264
f 68/265 69/266 88/267
f 86/268 85/269 89/270
f 86/271 89/272 90/273
f 85/274 87/275 91/276
f 85/277 91/278 89/279
f 70/280 88/281 71/282
f 88/283 69/284 92/285
f 88/286 92/287 71/288
f 93/289 94/290 95/291
f 96/292 97/293 98/294
f 96/295 98/296 99/297
f 100/298 101/299 102/300
f 100/301 102/302 103/303
f 99/304 98/305 104/306
f 99/307 104/308 105/309
f 98/310 106/311 107/312
f 98/313 107/314 104/315
f 108/316 109/317 110/318
f 108/319 110/320 111/321
f 109/322 112/323 113/324
f 109/325 113/326 110/327
f 102/328 114/329 115/330
f 102/331 115/332 116/333
f 114/334 105/335 117/336
f 114/337 117/338 115/339
f 111/340 110/341 118/342
f 111/343 118/344 119/345
f 110/346 113/347 120/348
f 110/349 120/350 118/351
f 116/352 115/353 121/354
f 116/355 121/356 122/357
f 115/358 117/359 123/360
f 115/361 123/362 121/363
f 120/364 124/365 125/366
f 120/367 125/368 126/369
f 124/370 122/371 127/372
f 124/373 127/374 125/375
f 123/376 128/377 129/378
f 123/379 129/380 130/381
f 126/382 125/383 131/384
f 126/385 131/386 132/387
f 125/388 127/389 133/390
f 125/391 133/392 131/393
f 134/394 135/395 136/396
f 134/397 136/398 137/399
f 135/400 132/401 138/402
f 135/403 138/404 136/405
f 133/406 139/407 140/408
f 133/409 140/410 141/411
f 139/412 142/413 143/414
f 139/415 143/416 140/417
f 137/418 136/419 144/420
f 137/421 144/422 145/423
f 136/424 138/425 146/426
f 136/427 146/428 144/429
f 141/430 140/431 147/432
f 141/433 147/434 148/435
f 140/436 143/437 149/438
f 140/439 149/440 147/441
f 150/442 151/443 152/444
f 150/445 152/446 153/447
f 151/448 90/449 154/450
f 151/451 154/452 152/453
f 91/454 155/455 156/456
f 91/457 156/458 157/459
f 155/460 72/461 158/462
f 155/463 158/464 156/465
f 92/466 159/467 160/468
f 92/469 160/470 93/471
f 159/472 161/473 162/474
f 159/475 162/476 160/477
f 153/478 152/479 163/480
f 153/481 163/482 164/483
f 152/484 154/485 165/486
f 152/487 165/488 163/489
f 157/490 156/491 166/492
f 157/493 166/494 167/495
f 156/496 158/497 96/498
f 156/499 96/500 166/501
f 93/502 160/503 94/504
f 160/505 162/506 168/507
f 160/508 168/509 94/510
f 165/511 169/512 100/513
f 165/514 100/515 170/516
f 169/517 167/518 101/519
f 169/520 101/521 100/522
f 97/523 95/524 106/525
f 97/526 106/527 98/528
f 170/529 100/530 103/531
f 170/532 103/533 112/534
f 107/535 171/536 172/537
f 107/538 172/539 173/540
f 171/541 174/542 175/543
f 171/544 175/545 172/546
f 173/547 172/548 176/549
f 173/550 176/551 177/552
f 172/553 175/554 178/555
f 172/556 178/557 176/558
f 128/559 177/560 179/561
f 128/562 179/563 129/564
f 130/565 129/566 180/567
f 130/568 180/569 142/570
f 129/571 179/572 181/573
f 129/574 181/575 180/576
f 181/577 182/578 183/579
f 181/580 183/581 184/582
f 182/583 185/584 186/585
f 182/586 186/587 183/588
f 184/589 183/590 187/591
f 184/592 187/593 188/594
f 183/595 186/596 189/597
f 183/598 189/599 187/600
f 190/601 191/602 192/603
f 190/604 192/605 193/606
f 191/607 194/608 195/609
f 191/610 195/611 192/612
f 196/613 197/614 198/615
f 196/616 198/617 199/618
f 197/619 200/620 201/621
f 197/622 201/623 198/624
f 193/625 192/626 202/627
f 193/628 202/629 203/630
f 192/631 195/632 204/633
f 192/634 204/635 202/636
f 199/637 198/638 205/639
f 199/640 205/641 206/642
f 198/643 201/644 207/645
f 198/646 207/647 205/648
f 204/649 208/650 209/651
f 204/652 209/653 210/654
f 208/655 206/656 211/657
f 208/658 211/659 209/660
f 212/661 213/662 214/663
f 212/664 214/665 215/666
f 210/667 209/668 216/669
f 210/670 216/671 217/672
f 209/673 211/674 218/675
f 209/676 218/677 216/678
f 214/679 219/680 220/681
f 214/682 220/683 221/684
f 219/685 217/686 222/687
f 219/688 222/689 220/690
f 218/691 223/692 224/693
f 218/694 224/695 225/696
f 223/697 226/698 227/699
f 223/700 227/701 224/702
f 221/703 220/704 228/705
f 221/706 228/707 229/708
f 220/709 222/710 230/711
f 220/712 230/713 228/714
f 225/715 224/716 231/717
f 225/718 231/719 232/720
f 224/721 227/722 233/723
f 224/724 233/725 231/726
f 234/727 235/728 236/729
f 234/730 236/731 237/732
f 235/733 229/734 238/735
f 235/736 238/737 236/738
f 230/739 239/740 240/741
f 230/742 240/743 241/744
f 236/745 238/746 242/747
f 236/748 242/749 243/750
f 244/751 245/752 246/753
f 247/754 248/755 249/756
f 247/757 249/758 250/759
f 248/760 251/761 252/762
f 248/763 252/764 249/765
f 250/766 249/767 253/768
f 250/769 253/770 77/771
f 249/772 252/773 254/774
f 249/775 254/776 253/777
f 254/778 255/779 212/780
f 254/781 212/782 256/783
f 255/784 203/785 213/786
f 255/787 213/788 212/789
f 256/790 212/791 215/792
f 256/793 215/794 257/795
f 80/796 258/797 259/798
f 80/799 259/800 260/801
f 258/802 257/803 261/804
f 258/805 261/806 259/807
f 260/808 259/809 262/810
f 260/811 262/812 58/813
f 259/814 261/815 234/816
f 259/817 234/818 262/819
f 239/820 232/821 263/822
f 239/823 263/824 240/825
f 237/826 236/827 243/828
f 237/829 243/830 245/831
f 241/832 240/833 264/834
f 241/835 264/836 265/837
f 240/838 263/839 266/840
f 240/841 266/842 264/843
f 83/844 244/845 267/846
f 83/847 267/848 268/849
f 244/850 246/851 267/852
f 242/853 269/854 270/855
f 242/856 270/857 271/858
f 269/859 265/860 272/861
f 269/862 272/863 270/864
f 266/865 273/866 274/867
f 266/868 274/869 275/870
f 273/871 276/872 277/873
f 273/874 277/875 274/876
f 268/877 267/878 278/879
f 268/880 278/881 161/882
f 267/883 246/884 279/885
f 267/886 279/887 278/888
f 271/889 270/890 280/891
f 271/892 280/893 281/894
f 270/895 272/896 282/897
f 270/898 282/899 280/900
f 275/901 274/902 283/903
f 275/904 283/905 284/906
f 274/907 277/908 285/909
f 274/910 285/911 283/912
f 286/913 281/914 287/915
f 288/916 289/917 290/918
f 291/919 290/920 292/921
f 293/922 294/923 295/924
f 293/925 295/926 296/927
f 294/928 297/929 298/930
f 294/931 298/932 295/933
f 299/934 300/935 301/936
f 299/937 301/938 302/939
f 303/940 304/941 174/942
f 296/943 295/944 305/945
f 296/946 305/947 306/948
f 295/949 298/950 307/951
f 295/952 307/953 305/954
f 308/955 302/956 309/957
f 308/958 309/959 310/960
f 302/961 301/962 311/963
f 302/964 311/965 309/966
f 312/967 313/968 314/969
f 312/970 314/971 315/972
f 313/973 306/974 316/975
f 313/976 316/977 314/978
f 307/979 317/980 318/981
f 307/982 318/983 319/984
f 317/985 310/986 320/987
f 317/988 320/989 318/990
f 315/991 314/992 321/993
f 315/994 321/995 322/996
f 314/997 316/998 323/999
f 314/1000 323/1001 321/1002
f 319/1003 318/1004 324/1005
f 319/1006 324/1007 325/1008
f 318/1009 320/1010 326/1011
f 318/1012 326/1013 324/1014
f 323/1015 327/1016 328/1017
f 323/1018 328/1019 329/1020
f 327/1021 325/1022 330/1023
f 327/1024 330/1025 328/1026
f 326/1027 331/1028 332/1029
f 326/1030 332/1031 333/1032
f 331/1033 334/1034 335/1035
f 331/1036 335/1037 332/1038
f 329/1039 328/1040 336/1041
f 329/1042 336/1043 337/1044
f 328/1045 330/1046 338/1047
f 328/1048 338/1049 336/1050
f 333/1051 332/1052 339/1053
f 333/1054 339/1055 340/1056
f 332/1057 335/1058 341/1059
f 332/1060 341/1061 339/1062
f 342/1063 337/1064 343/1065
f 342/1066 343/1067 344/1068
f 338/1069 345/1070 346/1071
f 338/1072 346/1073 347/1074
f 345/1075 340/1076 348/1077
f 345/1078 348/1079 346/1080
f 349/1081 344/1082 350/1083
f 349/1084 350/1085 351/1086
f 344/1087 343/1088 352/1089
f 344/1090 352/1091 350/1092
f 347/1093 346/1094 353/1095
f 347/1096 353/1097 354/1098
f 346/1099 348/1100 355/1101
f 346/1102 355/1103 353/1104
f 279/1105 286/1106 356/1107
f 279/1108 356/1109 288/1110
f 286/1111 287/1112 356/1113
f 282/1114 357/1115 358/1116
f 282/1117 358/1118 359/1119
f 357/1120 284/1121 360/1122
f 357/1123 360/1124 358/1125
f 288/1126 356/1127 289/1128
f 356/1129 287/1130 293/1131
f 356/1132 293/1133 289/1134
f 359/1135 358/1136 361/1137
f 359/1138 361/1139 297/1140
f 358/1141 360/1142 362/1143
f 358/1144 362/1145 361/1146
f 168/1147 291/1148 363/1149
f 168/1150 363/1151 303/1152
f 291/1153 292/1154 363/1155
f 362/1156 299/1157 302/1158
f 362/1159 302/1160 308/1161
f 303/1162 363/1163 304/1164
f 363/1165 292/1166 312/1167
f 363/1168 312/1169 304/1170
f 178/1171 364/1172 365/1173
f 178/1174 365/1175 366/1176
f 364/1177 322/1178 367/1179
f 364/1180 367/1181 365/1182
f 366/1183 365/1184 368/1185
f 366/1186 368/1187 185/1188
f 365/1189 367/1190 369/1191
f 365/1192 369/1193 368/1194
f 369/1195 342/1196 344/1197
f 369/1198 344/1199 349/1200
