v -0.116442 0.1946776 -0.2647637
v -0.1164421 -0.1946813 -0.264762
v 0.1171733 0.1946775 -0.2647724
v 0.1171733 -0.1946812 -0.2647684
v -0.1164423 0.1946776 -0.2803384
v -0.1164424 -0.1946813 -0.2803399
v 0.117173 0.1946776 -0.280345
v 0.1171729 -0.1946813 -0.2803465
vt 0.286995 1.0346
vt 0.286995 -0.0346077
vt 0.714335 1.0346
vt 0.714335 1.0346
vt 0.286995 -0.0346077
vt 0.714335 -0.0346076
vt 0.14388 -0.22705
vt 0.856114 -0.227055
vt 0.856114 -0.269825
vt 0.14388 -0.22705
vt 0.856114 -0.269825
vt 0.14388 -0.269829
vt 0.856113 -0.227084
vt 0.14388 -0.227073
vt 0.856114 -0.269847
vt 0.856114 -0.269847
vt 0.14388 -0.227073
vt 0.14388 -0.269851
vt 0.714334 1.0346
vt 0.714334 -0.0346078
vt 0.286994 1.0346
vt 0.286994 1.0346
vt 0.714334 -0.0346078
vt 0.286994 -0.0346076
vt 0.0156719 0.82176
vt 0.0156868 0.180237
vt -0.0128242 0.821758
vt -0.0128242 0.821758
vt 0.0156868 0.180237
vt -0.0128092 0.180235
vt 0.0156837 0.180237
vt 0.0156646 0.82176
vt -0.0128216 0.821759
vt 0.0156837 0.180237
vt -0.0128216 0.821759
vt -0.0128065 0.180235
f 1/1 2/2 3/3
f 3/4 2/5 4/6
f 2/7 1/8 5/9
f 2/10 5/11 6/12
f 3/13 4/14 7/15
f 7/16 4/17 8/18
f 7/19 8/20 5/21
f 5/22 8/23 6/24
f 4/25 2/26 8/27
f 8/28 2/29 6/30
f 1/31 3/32 7/33
f 1/34 7/35 5/36
