v -0.0002469718 0.004654594 0.03832781
v -0.0002470016 0.004631594 -0.03712419
v -0.0002469718 -0.004654586 0.03832677
v -2.129376e-05 -0.004617967 0.03747836
v 0.0002470016 -0.004526511 -0.03832781
v 0.000246495 0.004552454 -0.0383262
v -0.0002467781 -0.004605785 -0.03712547
v -0.0001339763 0.004636914 0.03805324
v -0.0001336187 -0.004637294 0.03805152
v -2.203882e-05 0.004619159 0.03747988
f 1 2 3
f 4 5 6
f 5 7 6
f 7 2 6
f 2 7 3
f 8 2 1
f 4 9 5
f 7 9 3
f 9 7 5
f 8 9 4
f 9 1 3
f 9 8 1
f 10 4 6
f 10 8 4
f 2 10 6
f 8 10 2
