v -0.003878355 0.01303133 -0.01800152
v -0.002360761 0.01146236 -0.01925017
v -0.003701359 0.001384676 -0.01929069
v -0.003876805 0.01305437 0.0180177
v 0.0005779117 -0.01305437 2.265722e-05
v -0.002327755 0.01149428 0.01929069
v -0.002834469 -0.01121378 -0.01478098
v -0.003071874 0.01293597 -0.01859131
v -0.002448902 0.01212698 0.01913937
v -0.003070116 0.01295999 0.01860785
v 0.001383185 0.01232174 -0.009771474
v 0.002288282 0.01083329 -0.01012851
v 0.002132595 0.01147059 -0.01004968
v 0.00387837 0.01061723 8.799136e-06
v -0.001350135 -0.001262486 -0.01457683
v -0.001011685 -0.01283938 -0.01011495
v 0.001820266 0.01190031 -0.009930767
v -0.002465427 0.01210037 -0.01911087
v -0.002705708 0.01254824 0.01891158
v 0.00181976 0.01191252 0.009946756
v 0.002287522 0.01084501 0.0101456
v 0.001382023 0.01233426 0.009786315
v -0.002713576 0.01252678 -0.01888945
v 0.002130941 0.01148322 0.01006628
v 0.002916828 0.01211426 7.666647e-06
v 0.003378779 0.01168889 8.024275e-06
v 0.003709778 0.01125735 8.068979e-06
f 1 2 3
f 4 5 6
f 4 7 5
f 7 4 3
f 4 1 3
f 8 2 1
f 9 10 6
f 10 4 6
f 8 10 11
f 4 10 1
f 10 8 1
f 12 13 14
f 12 15 2
f 15 7 3
f 2 15 3
f 7 16 5
f 16 14 5
f 16 12 14
f 15 16 7
f 16 15 12
f 17 8 11
f 8 18 2
f 18 12 2
f 18 13 12
f 19 10 9
f 20 19 9
f 19 20 10
f 5 21 6
f 14 21 5
f 10 22 11
f 20 22 10
f 17 23 8
f 23 18 8
f 23 17 13
f 18 23 13
f 24 20 9
f 24 9 6
f 21 24 6
f 22 25 11
f 25 17 11
f 25 26 17
f 26 25 20
f 25 22 20
f 27 26 20
f 24 27 20
f 13 27 14
f 27 21 14
f 27 24 21
f 17 27 13
f 26 27 17
