v 0.0005420335 0.004618898 0.03718743
v -6.219e-05 -0.004526421 -0.03861842
v -6.25141e-05 0.004552439 -0.0386169
v -0.0005420223 0.004793674 0.03861845
v -0.0005419925 -0.004605517 -0.0374113
v -0.0005420297 -0.004793674 0.03861752
v 0.0004364252 0.004637226 0.03776136
v 0.0005415343 -0.004618689 0.03718567
v -0.0005419292 0.004631072 -0.03740939
v 0.0003264062 0.004655123 0.03803828
v 0.0003262833 -0.004654393 0.0380367
v 0.0004360192 -0.004636198 0.03775972
f 1 2 3
f 4 5 6
f 2 5 3
f 7 1 3
f 1 8 2
f 5 8 6
f 8 5 2
f 5 9 3
f 9 5 4
f 9 7 3
f 7 9 4
f 10 4 6
f 10 7 4
f 10 11 7
f 8 11 6
f 11 10 6
f 11 12 7
f 12 11 8
f 7 12 1
f 12 8 1
