v 0.00879918 -0.02958672 0.04005972
v 0.0004801825 -0.02278712 -0.03935921
v 0.00879956 -0.02879691 -0.03941819
v 0.0004800633 -0.02357623 0.04011899
v -0.008799262 0.005515844 -0.03907776
v -0.008772336 -0.004746959 -0.0391795
v -0.008772843 -0.005536869 0.04029801
v 0.008681275 0.02958564 -0.03881073
v 0.008799396 0.02928065 -0.03123164
v 0.0007925108 0.02318527 -0.04036608
v -0.006864943 -0.004416525 -0.04155639
v -0.006890416 0.005242631 -0.04146013
v 0.008753218 0.0290527 0.0008727312
v -0.005653702 0.01466705 0.02321944
v 0.0003569946 0.02320966 0.0008148253
v 0.008799255 0.02905093 -0.008064568
v -0.005105391 0.01502177 -0.04044792
v -0.008165643 -0.004634947 -0.04064322
v 0.002630673 -0.02142145 0.04090518
v -0.005574964 -0.01528853 0.04020119
v -0.00879956 0.004898414 0.02312329
v 0.00408978 0.02657238 -0.02596202
v 0.008627288 0.02958672 -0.02823138
v 0.004268706 0.02661741 -0.01589873
v -0.008192636 0.005436286 -0.04054275
v -0.005653583 0.01528555 -0.03898022
v -0.007523842 -0.004524961 -0.04128391
v -0.004543565 -0.01477373 0.04155639
v -0.003650926 -0.01431605 0.04154351
v -0.002861612 -0.01390494 0.04097977
v 0.0006601065 -0.02340047 0.04073119
v -0.005574569 -0.01467539 -0.02157301
v -0.007550105 0.005342767 -0.04118574
v 0.000356935 0.02360448 -0.03889802
v -0.007221557 -0.004473984 -0.04148555
v 0.002004854 -0.02205667 0.04146573
v 0.001297481 -0.02276824 0.04147562
v 0.000932388 -0.02313089 0.04111594
v -0.005347013 -0.01517843 0.04081309
v -0.007247351 0.00529775 -0.04138884
v -0.005003579 -0.01500568 0.0411959
f 1 2 3
f 4 2 1
f 5 6 7
f 8 9 3
f 9 1 3
f 10 8 3
f 2 11 3
f 11 10 3
f 10 11 12
f 13 14 7
f 15 14 13
f 16 13 1
f 9 16 1
f 16 9 13
f 17 10 12
f 6 18 2
f 13 19 1
f 4 20 2
f 21 5 7
f 14 21 7
f 22 23 8
f 23 9 8
f 9 23 13
f 24 15 13
f 24 22 15
f 23 24 13
f 24 23 22
f 25 6 5
f 25 18 6
f 21 26 5
f 26 21 14
f 26 25 5
f 25 26 17
f 26 14 15
f 18 27 2
f 25 27 18
f 28 29 7
f 30 13 7
f 30 19 13
f 29 30 7
f 30 29 19
f 31 4 1
f 32 6 2
f 20 32 2
f 6 32 7
f 32 20 7
f 33 25 17
f 33 27 25
f 34 26 15
f 22 34 15
f 17 34 10
f 26 34 17
f 10 34 8
f 34 22 8
f 35 11 2
f 27 35 2
f 29 36 19
f 19 36 1
f 36 37 1
f 37 36 28
f 36 29 28
f 38 37 28
f 37 38 1
f 38 31 1
f 20 39 7
f 38 39 31
f 39 20 4
f 31 39 4
f 40 17 12
f 40 33 17
f 11 40 12
f 35 40 11
f 33 40 27
f 40 35 27
f 41 28 7
f 39 41 7
f 41 38 28
f 41 39 38
