v -0.001617163 0.004633367 0.03741744
v -0.0016171 0.005131751 -0.0373413
v -0.001617089 -0.005131751 -0.0373396
v 0.0005742535 0.004793197 -0.03857943
v -0.0004149191 0.004949689 -0.03863963
v -0.001172047 -0.004524916 0.03863963
v 0.001617163 -0.004619092 -0.0371165
v -0.001172382 0.004554361 0.03863755
v 0.00161624 0.004617751 -0.03711814
v -0.001338627 0.005091339 -0.03794026
v -0.001617145 -0.004603833 0.03741923
v 0.001425494 0.004653931 -0.03797448
v 0.0005747043 -0.004794106 -0.03857765
v -0.0009402223 -0.005032688 -0.03830281
v -0.0004148073 -0.004951417 -0.03863767
v 0.001527485 0.004636467 -0.03769469
v 0.001425587 -0.004655242 -0.03797215
v -0.001337629 -0.005092472 -0.0379377
v -0.0009401403 0.005030543 -0.03830516
v 0.001527835 -0.004636854 -0.03769258
f 1 2 3
f 4 5 2
f 6 7 8
f 7 9 8
f 2 10 3
f 5 10 2
f 11 1 3
f 1 11 8
f 11 6 8
f 12 13 4
f 6 14 7
f 11 14 6
f 15 5 4
f 13 15 4
f 14 15 13
f 16 9 7
f 9 16 8
f 16 1 8
f 16 12 4
f 16 4 2
f 1 16 2
f 12 17 13
f 14 17 7
f 17 14 13
f 10 18 3
f 14 18 10
f 18 11 3
f 18 14 11
f 19 10 5
f 19 14 10
f 15 19 5
f 19 15 14
f 20 16 7
f 17 20 7
f 16 20 12
f 20 17 12
