v -0.007538891 0.008075723 0.005434073
v -0.008429724 0.00574643 -0.006878957
v -0.00773245 0.008280793 -0.007120786
v -0.008423665 0.005210051 -0.01779878
v -0.008397806 0.005252082 0.005071276
v -0.006363238 0.009228652 0.005465106
v -0.007550425 0.008019572 -0.01800215
v -0.008493186 0.004486194 -0.0176202
v -0.008522085 0.005218765 -0.007014283
v -0.007811769 0.006752653 0.01576411
v -0.006404717 0.009606326 -0.006978201
v -0.006631541 0.007942092 0.01602568
v -0.008451044 0.004912281 -0.01975082
v -0.008568593 0.004155943 -0.01969573
v -0.008524354 0.00476687 0.004936264
v -0.00847095 0.004311163 0.01542253
v -0.004599444 0.009782987 0.005815762
v -0.005160651 0.008600557 0.0162236
v -0.007663553 0.007836839 -0.01990903
v -0.006199033 0.009426808 -0.01792016
v -0.00831145 0.002645152 -0.0197842
v -0.008406905 0.003286513 -0.01752041
v -0.008277404 0.004255233 -0.007182612
v -0.007906797 0.005621102 0.02067171
v -0.006661237 0.007069485 0.02112742
v -0.004575229 0.01036909 -0.007039984
v -0.005130681 0.007883007 0.02129243
v -0.008337357 0.004211465 -0.02241194
v -0.008524369 0.003601314 -0.02190883
v -0.008384864 0.001446044 -0.0212475
v -0.008264017 0.003759382 0.005090957
v -0.008522575 0.003569474 0.0153016
v -0.008490906 0.003472283 0.02036675
v -1.400989e-05 0.009751448 0.005732496
v -9.818375e-05 0.008682268 0.01611359
v -0.0001417808 0.007974193 0.02109379
v -0.006229931 0.009121383 -0.02014002
v -0.007585409 0.007470721 -0.02262614
v -0.004268619 0.01016243 -0.01797958
v -0.007214882 0.00112983 -0.01942409
v -0.007591843 0.002324658 -0.01724236
v -0.0076586 0.003334051 -0.007285305
v -0.008004003 0.004829736 0.02495841
v -0.007029486 0.006037271 0.02498477
v -0.005230808 0.007122485 0.02534534
v 7.738825e-05 0.01036186 -0.007124384
v -0.0001793401 0.007258497 0.02503215
v -0.008394101 0.003007187 -0.02557273
v -0.008586195 0.002318684 -0.02530719
v -0.007173666 -3.74224e-05 -0.02080024
v -0.007558345 0.002751993 0.004905618
v -0.008278833 0.002567902 0.0151588
v -0.00850214 0.002831446 0.02015053
v -0.008525469 0.002451247 0.02462358
v 0.004568539 0.009619476 0.00587313
v 0.004725929 0.0102032 -0.006981772
v 0.004956863 0.008420097 0.01628695
v 0.004837738 0.007705214 0.02135479
v -0.004276155 0.009938719 -0.02026005
v -0.006241891 0.008860992 -0.02265117
v -0.007735484 0.006625634 -0.02623901
v -0.008241813 -0.002199313 -0.02322615
v 0.0001398306 0.01007154 -0.017949
v -0.006418419 0.0008896235 -0.01925982
v -0.006534959 0.001825752 -0.01732584
v -0.006414522 0.002721647 -0.0074489
v -0.00755928 0.00161957 0.01505841
v -0.007952626 0.004124207 0.02851954
v -0.006988044 0.00530895 0.02869162
v -0.004982545 0.006326009 0.0286806
v -0.0002136324 0.006579721 0.02859117
v 0.0045491 0.01000516 -0.01792442
v 0.004859999 0.006942509 0.02540848
v -0.008386019 0.000197798 -0.03017878
v -0.008657211 -0.0005282089 -0.0298837
v -0.008411416 -0.002568007 -0.02486632
v -0.007298687 -0.002202941 -0.02196787
v -0.006098387 -0.0004408024 -0.02056823
v -0.006511121 0.002230415 0.0049677
v -0.007520626 0.000565106 0.01976224
v -0.008254266 0.001454404 0.01977764
v -0.008575399 0.00181614 0.02451418
v -0.008554173 0.001409641 0.02787893
v 0.006315352 0.009002531 0.005544466
v 0.006526073 0.009375686 -0.006897288
v 0.006451123 0.009201204 -0.017841
v 0.006405599 0.007709572 0.01610726
v 0.006340344 0.006837578 0.02120879
v 0.0001491308 0.009728817 -0.02039928
v -0.00410059 0.009564845 -0.02285147
v -0.006203503 0.00827316 -0.0264823
v -0.007881398 0.004893633 -0.03078366
v -0.008538659 -0.003437953 -0.02950038
v -0.008194092 -0.006938124 -0.02479079
v 0.004577125 0.009780819 -0.02020464
v -0.007591856 -0.006727122 -0.02359866
v -1.686066e-05 0.001508178 -0.01730517
v -1.97133e-05 0.000698695 -0.0191868
v -6.24964e-05 0.002450531 -0.007319156
v -0.005965904 0.001088778 0.01478036
v -0.007946429 0.0029152 0.03282306
v -0.006742778 0.004186336 0.03302403
v -0.005187591 0.005148949 0.03312501
v -0.0002593575 0.005451234 0.03268958
v 0.00454187 0.006156141 0.02874021
v 0.006498828 0.008894352 -0.02006038
v 0.0066232 0.005793756 0.02507022
v -0.007877725 0.002957633 -0.03482609
v -0.008702247 -0.00253243 -0.03209777
v -0.008567194 -0.004133696 -0.03170592
v -0.008183437 -0.007623718 -0.02846443
v -0.006144078 -0.002288504 -0.02145673
v -3.469549e-05 -0.000594547 -0.02042443
v -0.0001417808 0.002196182 0.004617424
v -0.005880256 0.0001977216 0.01936302
v -0.008224524 0.0003272425 0.02402042
v -0.008460429 0.0008801017 0.02742583
v -0.008476575 -0.0003366377 0.03182483
v 0.007449477 0.007808415 0.005527859
v 0.007807706 0.008003617 -0.007023529
v 0.007752079 0.007746639 -0.01790638
v 0.007882744 0.007559566 -0.01981176
v 0.007545729 0.00647874 0.01586021
v 0.007539079 0.00534562 0.02076837
v 0.004420849 0.009412842 -0.02279813
v 0.0001602015 0.009501936 -0.02282368
v -0.004292057 0.008963602 -0.02625047
v -0.006560278 0.006572964 -0.03088594
v -0.008500175 -0.002362696 -0.03295667
v -0.008175558 -0.008127068 -0.03116222
v -0.006315959 -0.007388752 -0.02830056
v 0.006532889 0.008633142 -0.02257121
v -0.005936359 -0.006686835 -0.02321349
v 0.00638253 0.0006612819 -0.01917971
v 0.006031668 -0.0006571468 -0.02049232
v 0.006296024 0.002494937 -0.007369367
v 0.006219692 0.002003325 0.005047373
v -0.0002227901 0.001076786 0.01439193
v -0.007200402 -0.001093034 0.02394153
v -0.007762405 0.00138253 0.03569309
v -0.006503551 0.003316844 0.03589845
v -0.004783834 0.003907835 0.03627045
v -0.0003073569 0.004051605 0.03636206
v 0.004648962 0.004973482 0.03318657
v 0.006509257 0.005068207 0.02877606
v 0.007825712 0.007195838 -0.02252968
v 0.007554067 0.00455221 0.02505577
v -0.006963157 0.003842065 -0.03597637
v -0.008111143 0.000645848 -0.03767041
v -0.008641972 -0.004941817 -0.03419783
v -0.008168046 -0.008595145 -0.03367002
v -0.007429139 -0.007822279 -0.0308102
v -0.005069637 -0.007158449 -0.0268986
v -6.236322e-05 -0.002465611 -0.02137449
v 0.006508263 0.001593104 -0.01724421
v 0.006022758 -0.00250552 -0.0213806
v 0.005511555 0.000884071 0.01485217
v -0.0002700659 0.0001231115 0.01921089
v -0.005606965 -0.001623826 0.02366348
v -0.008128346 -0.001458785 0.02704262
v -0.008650993 -0.001074232 0.03170336
v -0.008543494 -0.002314942 0.03514291
v 0.008211885 0.004955824 0.005175223
v 0.008411031 0.005446047 -0.006773562
v 0.008522308 0.004907804 -0.01769273
v 0.008563157 0.004608808 -0.01964435
v 0.008458091 0.003911903 -0.02230684
v 0.00812196 0.004015202 0.01552635
v 0.00805011 0.00317725 0.02047024
v 0.006521589 0.008046178 -0.02640267
v 0.004633176 0.008804413 -0.02619462
v 0.0001703734 0.009026857 -0.02581965
v -0.004287523 0.00745322 -0.0311111
v -0.00860897 -0.004135702 -0.03452017
v -0.004319576 -0.007285977 -0.02999914
v 0.007990517 0.006345121 -0.0261406
v -0.0001281044 -0.006790418 -0.02317713
v -0.002972673 -0.006957419 -0.02556911
v 0.007123537 -0.0002924185 -0.02071077
v 0.007189149 0.0008729231 -0.01933393
v 0.007185942 -0.002461284 -0.02187724
v 0.00755952 0.003062619 -0.007190082
v 0.007285818 0.002487222 0.00499851
v 0.007119184 0.001357777 0.01515027
v 0.005336927 -2.341345e-06 0.0194332
v -0.006588348 -0.003382804 0.02684421
v -0.008267452 -0.003242394 0.03642586
v -0.005487219 0.001490803 0.03869213
v -0.004490378 0.002677908 0.03843598
v 0.004162114 0.003748281 0.03632645
v 0.006170036 0.003956025 0.03310483
v 0.007433218 0.003849784 0.02861581
v 0.008511335 0.002705654 -0.02546694
v 0.007995039 0.002156587 0.02472695
v -0.004844825 0.004414013 -0.03672264
v -0.00713154 0.001789091 -0.03862654
v -0.008270958 -0.002101051 -0.03945435
v -0.008703108 -0.006097537 -0.04029959
v -0.00815088 -0.009689854 -0.03953666
v -0.007563968 -0.008339692 -0.03368118
v -0.004841908 -0.007544813 -0.03148294
v -0.003355599 -0.00710143 -0.02888005
v 0.00568042 -0.006894043 -0.0231408
v 0.00758121 0.002054038 -0.01714741
v 0.007337823 -0.006993387 -0.02350522
v 0.006984331 0.0003063921 0.01985299
v 0.004944866 -0.001812017 0.02372951
v -0.0003261864 -0.001602037 0.02327044
v -0.005174835 -0.003437445 0.02587999
v -0.008051029 -0.004823485 0.03116567
v -0.008661442 -0.002901258 0.03464335
v -0.006598295 0.0002545491 0.03861571
v -0.00177002 0.002734141 0.03865571
v 0.00379788 0.0025301 0.03848785
v 0.0083226 0.004466403 0.005041684
v 0.008485915 0.004915433 -0.006907849
v 0.008563401 0.004181962 -0.01751349
v 0.008653155 0.003848808 -0.01958795
v 0.00861684 0.003295565 -0.02180158
v 0.008675702 0.002010802 -0.02519916
v 0.008148458 0.00327212 0.01540594
v 0.008040992 0.002536392 0.02025406
v 0.008131584 0.004608018 -0.03068344
v 0.006872552 0.006333387 -0.03080188
v 0.004635623 0.007294046 -0.03105524
v 0.0001731217 0.007282326 -0.03121912
v -0.00858516 -0.005306328 -0.04030377
v -8.17338e-05 -0.00740247 -0.03234296
v 0.008460488 -0.0001026765 -0.03007338
v -0.0001190277 -0.006900737 -0.02495716
v 0.00273829 -0.007059289 -0.0255334
v -0.001974103 -0.006969867 -0.02800848
v 0.008144265 -0.002491584 -0.02312361
v 0.008392194 0.00114678 -0.02114253
v 0.008343397 0.002348078 -0.01967998
v 0.008024266 0.00346886 0.005192877
v 0.008209035 0.003961196 -0.007079456
v 0.007870907 0.002279863 0.01525984
v 0.006552853 -0.001338324 0.02402761
v -0.004627055 -0.005320048 0.02697064
v -0.005963187 -0.005374115 0.02799795
v -0.008447777 -0.003947185 0.03607304
v -0.00772293 -0.003722761 0.03826211
v -0.005064168 -0.0008769222 0.04097058
v -0.004207038 0.000709543 0.04078289
v -0.0003486006 0.002669694 0.03899079
v -0.003341333 0.001793476 0.03989943
v 0.004748571 0.001308246 0.03875618
v 0.001078697 0.002683317 0.03867353
v 0.005864155 0.003096264 0.03597585
v 0.007330113 0.002642728 0.03291868
v 0.00794559 0.001115358 0.02798221
v 0.008702157 -0.0008378271 -0.02977508
v 0.008023263 0.001520073 0.02461806
v 0.0001553632 0.004358102 -0.03671347
v -0.005146896 0.00228378 -0.03916888
v -0.007311639 -0.001480015 -0.04094183
v -0.007658659 -0.006463723 -0.04203793
v -0.007523744 -0.01002451 -0.04126637
v -0.006259386 -0.008880535 -0.03652965
v -0.004873482 -0.007819523 -0.03300245
v 0.004843104 -0.00733527 -0.02683656
v 0.008433611 0.002986128 -0.01741501
v 0.007947182 -0.007226016 -0.0246898
v 0.007748762 0.001168987 0.01987777
v 0.007625983 4.453771e-05 0.0241196
v 0.004420849 -0.003608584 0.02594004
v 0.005823174 -0.003604176 0.02692189
v -0.0003751954 -0.003588308 0.02542898
v -0.002088496 -0.005097026 0.02644921
v -0.00636698 -0.008066244 0.03062947
v -0.008067197 -0.005447943 0.0339119
v -0.00182159 0.001210345 0.04101294
v 0.00341527 0.0005735736 0.04083058
v 0.002599861 0.001687506 0.03993661
v 0.008475125 -0.003741411 -0.0293939
v 0.008109236 0.002672473 -0.03472605
v 0.007241526 0.003588716 -0.03588747
v 0.005154475 0.004235663 -0.03666008
v 0.0001331903 0.00231611 -0.03898648
v -0.007751289 -0.005666366 -0.04198742
v -0.004810869 -0.009185567 -0.03806195
v -0.004408925 -0.008100548 -0.03450624
v -0.0001030918 -0.006930349 -0.02759427
v 0.008703231 -0.00284286 -0.03198885
v 0.001770551 -0.007036658 -0.02798502
v 0.003157172 -0.007217629 -0.0288393
v 0.006098187 -0.007610159 -0.02822288
v 0.008321051 -0.002866447 -0.02476159
v 0.007428114 -0.001736265 0.02713997
v -0.003766072 -0.007511383 0.02787051
v -0.00212283 -0.007388597 0.02717935
v -0.005209225 -0.007738294 0.02902818
v -0.006986781 -0.008591322 0.03310038
v -0.007233853 -0.006587597 0.03749176
v -0.007709797 -0.004547806 0.03817486
v -0.005250593 -0.004467709 0.04095257
v -0.002797528 -0.00122034 0.04237616
v 0.001046411 0.001159197 0.04103088
v -0.000394118 0.0009603668 0.0414356
v 0.004213056 -0.001042416 0.04102863
v 0.007055555 0.001118233 0.03578583
v 0.007756415 -0.0006261636 0.03192638
v 0.007838732 0.0005893651 0.02752781
v 0.008506322 -0.004438223 -0.03159908
v 0.008518348 -0.002666242 -0.03285019
v 8.178595e-05 -0.001458233 -0.04151203
v -0.005502499 -0.00123943 -0.04153496
v -0.005750985 -0.005840877 -0.04263937
v -0.005706347 -0.01016815 -0.04185163
v -0.0034081 -0.008360046 -0.0358338
v 0.004128059 -0.007436639 -0.02994625
v 0.007957896 -0.007911608 -0.02836341
v 0.001270426 -0.005156944 0.02647028
v 0.003792562 -0.005470224 0.02702334
v 0.007179489 -0.005095145 0.031261
v -0.0004046056 -0.004988384 0.02617438
v -0.0005160533 -0.008734131 0.0332678
v -0.00210853 0.0003011134 0.04181679
v 0.001918091 -0.001304453 0.04240569
v 0.005815373 3.313459e-05 0.03869338
v 0.007965775 -0.00841497 -0.0310612
v 0.00829595 0.000353232 -0.03756773
v 0.007369543 0.001530422 -0.03853581
v 0.005410779 0.002095491 -0.0391028
v -0.005609429 -0.006582592 -0.04254699
v -0.002857483 -0.00943604 -0.03924013
v -0.00159575 -0.008582622 -0.03687249
v 0.008583471 -0.005249066 -0.03409004
v 0.007226463 -0.008083678 -0.03071846
v 0.007905968 -0.001369512 0.03180698
v 0.005112892 -0.005571662 0.02806726
v -0.0004526936 -0.007381488 0.02701936
v -0.006381915 -0.009248177 0.03608666
v -0.005157475 -0.005264567 0.04091287
v -0.003204049 -0.004803592 0.04211923
v -0.000414866 4.670955e-05 0.04211995
v 0.00129084 0.0002404619 0.04183805
v 0.004271288 -0.004637552 0.04101215
v 0.00680209 -0.003981831 0.038353
v 0.007386267 -0.003521597 0.03652378
v 0.007711343 -0.002604883 0.03524462
v 0.007973108 -0.008883039 -0.03356902
v 0.008583419 -0.004442362 -0.03441257
v 8.945353e-06 -0.005950943 -0.0426791
v 0.005670243 -0.001438728 -0.04146503
v -5.072914e-06 -0.006714894 -0.04262164
v -7.35959e-05 -0.01026861 -0.04181638
v -7.436797e-05 -0.00957773 -0.03973173
v -7.408112e-05 -0.008663815 -0.0371616
v 0.004659317 -0.007714278 -0.03142349
v 0.001214035 -0.007448131 0.02720023
v 0.002983728 -0.007635312 0.0278398
v 0.007814175 -0.003195124 0.03474646
v 0.005387506 -0.008275889 0.03070302
v -0.004587776 -0.009762911 0.03832544
v -0.004833722 -0.007390281 0.03973379
v -0.001934235 -0.002607068 0.04266075
v -0.000439574 -0.001166223 0.04261422
v 0.002199665 -0.004899981 0.04215305
v 0.008379748 -0.002398033 -0.03935017
v 0.007461908 -0.001743533 -0.04084938
v 0.001445996 -0.008636894 -0.03685344
v 0.007990155 -0.009977736 -0.03943564
v 0.008679805 -0.006407591 -0.0401908
v 0.004700233 -0.007990281 -0.03294254
v 0.007378586 -0.008606209 -0.0335877
v 0.00426249 -0.007907232 0.02908746
v 0.00713909 -0.005719157 0.03400706
v 0.005957453 -0.00882219 0.0331814
v -0.002599969 -0.01003632 0.03943678
v -0.003379201 -0.005567046 0.04203814
v -0.001975509 -0.004963158 0.04258779
v 0.006760912 -0.004805909 0.03826542
v 0.001002142 -0.002659461 0.04267912
v 0.00415045 -0.005430577 0.04097111
v 0.007545744 -0.004232457 0.03617313
v 0.008590298 -0.005612668 -0.04019628
v 0.005768113 -0.006046327 -0.04256729
v 0.007765051 -0.005943114 -0.04189033
v 0.00559911 -0.006782504 -0.04247685
v 0.005559276 -0.01036909 -0.04178115
v 0.002706027 -0.009535263 -0.03920532
v 0.003252218 -0.008478859 -0.03579213
v 0.004244678 -0.008254896 -0.0344521
v -0.002927543 -0.007452684 0.04074639
v -0.0005819062 -0.01014575 0.03978795
v -0.0004661512 -0.002633279 0.04266993
v -0.001933445 -0.004508892 0.0371387
v 0.0009606294 -0.005015517 0.04260616
v 0.002348516 -0.005669205 0.04207399
v 0.004652173 -0.009354348 -0.03800273
v 0.006091327 -0.009100808 -0.03645236
v 0.007373086 -0.0102902 -0.04117316
v 0.007644738 -0.006736662 -0.04194217
v 0.006220794 -0.006827543 0.03757597
v 0.005292181 -0.009456376 0.03615971
v -0.001152088 -0.007205708 0.04156095
v -0.0005409541 -0.00721659 0.04156476
v 0.001443027 -0.01010844 0.03946207
v -0.001985745 -0.005607555 0.04238034
v -0.001881787 -0.001508418 0.03741908
v 0.001054472 -0.0015608 0.03743744
v 0.003765632 -0.007543648 0.0397876
v 0.003453114 -0.009906327 0.03837575
v -0.001099729 -0.00610703 0.03631929
v 0.001002843 -0.004561258 0.03715706
v 0.0009506335 -0.00565994 0.04239873
v 0.001845691 -0.007537795 0.04077627
v 0.0001228061 -0.006128846 0.03632691
v 7.050671e-05 -0.007227486 0.0415686
f 1 2 3
f 2 4 3
f 5 2 1
f 1 3 6
f 3 4 7
f 8 4 2
f 5 9 2
f 10 5 1
f 6 3 11
f 12 1 6
f 4 13 7
f 3 7 11
f 8 14 4
f 9 8 2
f 5 15 9
f 16 5 10
f 12 10 1
f 6 11 17
f 12 6 18
f 13 19 7
f 14 13 4
f 11 7 20
f 21 14 8
f 22 8 9
f 15 23 9
f 16 15 5
f 24 16 10
f 25 10 12
f 11 26 17
f 6 17 18
f 12 18 27
f 7 19 20
f 13 28 19
f 14 29 13
f 20 26 11
f 21 30 14
f 22 21 8
f 23 22 9
f 15 31 23
f 16 32 15
f 33 16 24
f 24 10 25
f 25 12 27
f 26 34 17
f 17 35 18
f 18 36 27
f 19 37 20
f 28 38 19
f 29 28 13
f 30 29 14
f 20 39 26
f 40 30 21
f 41 21 22
f 41 22 23
f 31 42 23
f 32 31 15
f 33 32 16
f 43 33 24
f 44 24 25
f 25 27 45
f 17 34 35
f 26 46 34
f 18 35 36
f 27 36 47
f 37 39 20
f 38 37 19
f 28 48 38
f 29 49 28
f 30 49 29
f 39 46 26
f 40 50 30
f 41 40 21
f 42 41 23
f 31 51 42
f 32 52 31
f 33 53 32
f 54 33 43
f 43 24 44
f 44 25 45
f 27 47 45
f 34 55 35
f 46 56 34
f 35 57 36
f 36 58 47
f 37 59 39
f 38 60 37
f 48 61 38
f 49 48 28
f 30 62 49
f 39 63 46
f 50 62 30
f 50 40 64
f 65 40 41
f 65 41 42
f 66 42 51
f 67 51 31
f 52 67 31
f 53 52 32
f 54 53 33
f 68 54 43
f 69 43 44
f 44 45 70
f 45 47 71
f 35 55 57
f 34 56 55
f 46 72 56
f 36 57 58
f 47 58 73
f 39 59 63
f 60 59 37
f 38 61 60
f 48 74 61
f 49 75 48
f 62 76 49
f 63 72 46
f 77 62 50
f 64 40 65
f 78 50 64
f 66 65 42
f 66 51 79
f 79 51 67
f 80 67 52
f 81 52 53
f 54 82 53
f 83 54 68
f 68 43 69
f 69 44 70
f 45 71 70
f 47 73 71
f 55 84 57
f 56 85 55
f 72 86 56
f 57 87 58
f 58 88 73
f 59 89 63
f 60 90 59
f 61 91 60
f 74 92 61
f 75 74 48
f 93 75 49
f 76 93 49
f 94 76 62
f 95 72 63
f 77 96 62
f 77 50 78
f 97 64 65
f 78 64 98
f 97 65 66
f 99 66 79
f 100 79 67
f 100 67 80
f 81 80 52
f 82 81 53
f 83 82 54
f 101 83 68
f 102 68 69
f 69 70 103
f 70 71 104
f 71 73 105
f 84 87 57
f 85 84 55
f 56 86 85
f 72 106 86
f 87 88 58
f 88 107 73
f 89 95 63
f 90 89 59
f 91 90 60
f 61 92 91
f 74 108 92
f 75 109 74
f 93 110 75
f 111 93 76
f 94 111 76
f 96 94 62
f 95 106 72
f 96 77 112
f 112 77 78
f 98 64 97
f 113 78 98
f 97 66 99
f 114 99 79
f 114 79 100
f 115 100 80
f 116 80 81
f 116 81 82
f 83 117 82
f 118 83 101
f 102 101 68
f 102 69 103
f 70 104 103
f 71 105 104
f 73 107 105
f 119 87 84
f 120 84 85
f 121 85 86
f 106 122 86
f 123 88 87
f 124 107 88
f 89 125 95
f 90 126 89
f 91 127 90
f 92 128 91
f 92 108 128
f 74 129 108
f 109 129 74
f 110 109 75
f 130 110 93
f 111 130 93
f 131 111 94
f 131 94 96
f 95 132 106
f 96 112 133
f 112 78 113
f 134 98 97
f 135 113 98
f 136 97 99
f 99 114 137
f 138 114 100
f 138 100 115
f 115 80 139
f 116 139 80
f 117 116 82
f 118 117 83
f 140 118 101
f 141 101 102
f 102 103 142
f 103 104 143
f 104 105 144
f 107 145 105
f 123 87 119
f 120 119 84
f 121 120 85
f 122 121 86
f 106 146 122
f 123 124 88
f 124 147 107
f 125 132 95
f 126 125 89
f 90 127 126
f 91 128 127
f 108 148 128
f 129 149 108
f 109 150 129
f 110 150 109
f 130 151 110
f 152 130 111
f 152 111 131
f 153 131 96
f 132 146 106
f 133 112 154
f 153 96 133
f 112 113 154
f 134 135 98
f 134 97 155
f 113 135 156
f 155 97 136
f 136 99 137
f 137 114 157
f 114 138 157
f 158 138 115
f 159 115 139
f 160 139 116
f 160 116 117
f 118 161 117
f 162 118 140
f 140 101 141
f 141 102 142
f 142 103 143
f 104 144 143
f 105 145 144
f 147 145 107
f 163 123 119
f 164 119 120
f 165 120 121
f 122 166 121
f 146 167 122
f 168 124 123
f 169 147 124
f 125 170 132
f 171 125 126
f 127 172 126
f 128 173 127
f 148 173 128
f 108 149 148
f 129 174 149
f 150 174 129
f 151 150 110
f 151 130 152
f 175 152 131
f 175 131 153
f 176 146 132
f 177 133 154
f 178 153 133
f 154 113 156
f 179 135 134
f 180 134 155
f 156 135 181
f 155 136 182
f 183 136 137
f 137 157 184
f 157 138 185
f 138 158 185
f 158 115 159
f 159 139 186
f 160 186 139
f 161 160 117
f 162 161 118
f 187 162 140
f 188 140 141
f 141 142 188
f 142 143 189
f 144 190 143
f 145 191 144
f 147 192 145
f 163 168 123
f 164 163 119
f 165 164 120
f 166 165 121
f 167 166 122
f 193 167 146
f 168 169 124
f 169 194 147
f 170 176 132
f 171 170 125
f 172 171 126
f 127 173 172
f 148 195 173
f 149 196 148
f 174 197 149
f 150 198 174
f 151 199 150
f 200 151 152
f 201 152 175
f 202 175 153
f 176 193 146
f 177 178 133
f 177 154 203
f 202 153 178
f 203 154 156
f 135 179 181
f 180 179 134
f 180 155 204
f 156 181 205
f 182 136 183
f 204 155 182
f 183 137 184
f 184 157 206
f 157 185 206
f 185 158 207
f 208 158 159
f 209 159 186
f 210 186 160
f 210 160 161
f 162 211 161
f 187 211 162
f 212 187 140
f 212 140 188
f 189 188 142
f 189 143 213
f 143 190 214
f 144 191 190
f 192 191 145
f 194 192 147
f 215 168 163
f 216 163 164
f 165 217 164
f 166 218 165
f 167 219 166
f 193 220 167
f 221 169 168
f 222 194 169
f 223 176 170
f 224 170 171
f 225 171 172
f 173 226 172
f 195 226 173
f 196 195 148
f 149 197 196
f 174 227 197
f 198 227 174
f 199 198 150
f 200 199 151
f 201 200 152
f 228 201 175
f 228 175 202
f 229 193 176
f 230 178 177
f 203 231 177
f 232 202 178
f 203 156 205
f 233 181 179
f 179 180 234
f 180 204 235
f 205 181 233
f 183 236 182
f 204 182 237
f 183 184 236
f 184 206 238
f 206 185 239
f 158 208 207
f 185 207 239
f 208 159 209
f 209 186 240
f 210 241 186
f 211 210 161
f 187 242 211
f 243 187 212
f 212 188 244
f 188 189 245
f 213 143 246
f 189 213 247
f 248 214 190
f 143 214 249
f 191 250 190
f 251 191 192
f 194 252 192
f 221 168 215
f 215 163 216
f 217 216 164
f 218 217 165
f 219 218 166
f 220 219 167
f 253 220 193
f 222 169 221
f 254 194 222
f 223 229 176
f 224 223 170
f 225 224 171
f 226 225 172
f 195 255 226
f 196 256 195
f 197 257 196
f 197 227 257
f 198 258 227
f 199 259 198
f 260 199 200
f 261 200 201
f 228 261 201
f 228 202 232
f 229 253 193
f 232 178 230
f 231 230 177
f 262 231 203
f 205 262 203
f 233 179 234
f 234 180 235
f 235 204 263
f 264 205 233
f 182 236 237
f 263 204 237
f 184 238 236
f 206 265 238
f 239 266 206
f 207 208 267
f 239 207 268
f 208 209 269
f 186 241 240
f 209 240 270
f 271 241 210
f 272 210 211
f 242 272 211
f 243 242 187
f 244 243 212
f 245 244 188
f 189 247 245
f 143 249 246
f 213 246 273
f 247 213 273
f 274 214 248
f 190 250 248
f 249 214 275
f 251 250 191
f 252 251 192
f 254 252 194
f 236 221 215
f 237 215 216
f 217 263 216
f 218 235 217
f 219 234 218
f 220 234 219
f 253 276 220
f 238 222 221
f 265 254 222
f 277 229 223
f 277 223 224
f 225 278 224
f 226 279 225
f 255 279 226
f 280 255 195
f 256 280 195
f 196 257 256
f 227 281 257
f 258 281 227
f 259 258 198
f 259 199 282
f 282 199 260
f 260 200 261
f 283 261 228
f 228 232 284
f 285 253 229
f 284 232 230
f 231 286 230
f 262 287 231
f 288 262 205
f 233 234 220
f 234 235 218
f 235 263 217
f 264 288 205
f 289 264 233
f 236 215 237
f 263 237 216
f 238 221 236
f 238 265 222
f 206 266 265
f 239 290 266
f 208 269 267
f 207 267 268
f 268 290 239
f 209 270 269
f 240 241 291
f 270 240 292
f 271 293 241
f 294 271 210
f 272 294 210
f 295 272 242
f 296 242 243
f 297 243 244
f 244 245 298
f 245 247 273
f 246 249 299
f 273 246 300
f 275 214 274
f 301 274 248
f 302 248 250
f 249 275 299
f 251 302 250
f 252 303 251
f 304 252 254
f 276 289 220
f 305 276 253
f 265 266 254
f 306 229 277
f 278 277 224
f 279 278 225
f 255 280 279
f 280 256 307
f 257 308 256
f 257 281 308
f 281 258 309
f 258 259 310
f 310 259 282
f 282 260 311
f 283 260 261
f 311 283 228
f 286 228 284
f 285 305 253
f 306 285 229
f 286 284 230
f 287 286 231
f 312 287 262
f 288 312 262
f 289 233 220
f 313 288 264
f 313 264 289
f 266 290 304
f 269 314 267
f 267 315 268
f 268 316 290
f 269 270 317
f 241 293 291
f 240 291 292
f 270 292 317
f 293 271 318
f 271 294 318
f 295 294 272
f 296 295 242
f 297 296 243
f 297 244 298
f 298 245 319
f 319 245 273
f 246 299 300
f 319 273 300
f 299 275 274
f 320 274 301
f 301 248 321
f 302 321 248
f 303 302 251
f 304 303 252
f 266 304 254
f 276 313 289
f 305 322 276
f 323 306 277
f 323 277 278
f 279 324 278
f 280 325 279
f 256 308 307
f 280 307 325
f 281 309 308
f 309 258 326
f 258 310 326
f 327 310 282
f 311 260 283
f 328 282 311
f 328 311 228
f 287 228 286
f 329 305 285
f 329 285 306
f 312 228 287
f 330 312 288
f 313 330 288
f 290 331 304
f 314 315 267
f 269 317 314
f 315 332 268
f 290 316 331
f 332 316 268
f 291 293 318
f 292 291 318
f 317 292 333
f 318 294 334
f 334 294 295
f 335 295 296
f 297 335 296
f 336 297 298
f 298 319 337
f 300 299 338
f 319 300 337
f 338 299 274
f 320 338 274
f 320 301 339
f 340 301 321
f 341 321 302
f 303 342 302
f 331 303 304
f 322 313 276
f 343 322 305
f 344 306 323
f 324 323 278
f 325 324 279
f 307 308 345
f 325 307 346
f 308 309 345
f 309 326 347
f 326 310 348
f 349 310 327
f 327 282 328
f 350 328 228
f 329 343 305
f 344 329 306
f 351 228 312
f 330 351 312
f 322 330 313
f 314 352 315
f 317 352 314
f 315 353 332
f 316 354 331
f 332 355 316
f 333 292 318
f 317 333 352
f 318 334 356
f 357 334 295
f 357 295 335
f 335 297 336
f 336 298 358
f 359 298 337
f 337 300 338
f 337 338 320
f 340 339 301
f 360 320 339
f 341 340 321
f 342 341 302
f 331 342 303
f 322 343 330
f 361 344 323
f 361 323 324
f 324 325 362
f 307 345 346
f 325 346 362
f 345 309 347
f 347 326 348
f 348 310 349
f 349 327 350
f 350 327 328
f 363 350 228
f 364 343 329
f 365 329 344
f 366 228 351
f 367 351 330
f 352 353 315
f 353 368 332
f 354 342 331
f 316 369 354
f 355 370 316
f 368 355 332
f 352 333 318
f 356 334 357
f 318 356 371
f 357 335 372
f 372 335 336
f 358 298 359
f 373 336 358
f 359 337 320
f 374 339 340
f 375 320 360
f 376 360 339
f 377 340 341
f 354 341 342
f 343 367 330
f 378 344 361
f 362 361 324
f 346 345 379
f 362 346 380
f 345 347 379
f 347 348 381
f 382 348 349
f 383 349 350
f 383 350 363
f 384 363 228
f 364 367 343
f 365 364 329
f 378 365 344
f 366 385 228
f 367 366 351
f 353 352 318
f 368 353 318
f 369 377 354
f 370 369 316
f 370 355 318
f 355 368 318
f 356 357 386
f 356 386 371
f 318 371 387
f 357 372 386
f 372 336 373
f 388 358 359
f 389 373 358
f 375 359 320
f 376 339 374
f 377 374 340
f 390 375 360
f 391 360 376
f 377 341 354
f 378 361 362
f 346 379 380
f 380 378 362
f 347 381 379
f 381 348 382
f 382 349 383
f 392 383 363
f 392 363 384
f 385 384 228
f 364 393 367
f 394 364 365
f 395 365 378
f 393 385 366
f 367 393 366
f 369 396 377
f 370 396 369
f 370 318 397
f 371 386 398
f 387 371 399
f 400 318 387
f 386 372 398
f 401 372 373
f 388 402 358
f 388 359 375
f 401 373 389
f 389 358 402
f 396 376 374
f 396 374 377
f 375 390 403
f 390 360 391
f 404 391 376
f 379 395 380
f 380 395 378
f 379 381 395
f 381 382 395
f 382 383 392
f 393 392 384
f 393 384 385
f 364 392 393
f 364 394 392
f 395 394 365
f 370 397 396
f 397 318 405
f 371 398 399
f 387 399 400
f 405 318 400
f 372 401 398
f 375 402 388
f 406 401 389
f 389 402 403
f 396 404 376
f 390 407 403
f 403 402 375
f 408 390 391
f 409 391 404
f 382 394 395
f 394 382 392
f 397 404 396
f 397 405 404
f 398 410 399
f 399 411 400
f 400 409 405
f 406 398 401
f 406 389 410
f 389 403 407
f 390 408 407
f 411 408 391
f 409 411 391
f 405 409 404
f 399 410 411
f 406 410 398
f 400 411 409
f 410 389 407
f 408 411 407
f 411 410 407
