v -0.0005417764 -0.004609101 0.03741109
v -6.175041e-05 -0.004530132 0.03861868
v -6.206334e-05 0.004549369 0.03861701
v -0.0005417913 -0.004793458 -0.03861657
v -0.0005418211 0.004793458 -0.03861868
v 0.0005416274 0.004618928 -0.03718701
v 0.0003262162 0.00465519 -0.03803748
v -0.0005415976 0.004628249 0.03740954
v 0.000541836 -0.004618272 -0.03718585
v 0.0004370809 -0.004636317 -0.03775996
v 0.0003263205 -0.004653886 -0.0380367
v 0.0004361719 0.004636802 -0.03776097
f 1 2 3
f 2 1 4
f 1 5 4
f 2 6 3
f 6 7 3
f 8 1 3
f 1 8 5
f 7 8 3
f 5 8 7
f 9 6 2
f 10 2 4
f 10 9 2
f 9 10 6
f 11 10 4
f 10 11 7
f 5 11 4
f 11 5 7
f 6 12 7
f 12 10 7
f 10 12 6
