v 0.01069162 0.01928228 -0.02152132
v 0.01069162 0.01928228 -0.01489747
v 0.01535124 0.0101373 -0.01489747
v 0.01535124 0.0101373 -0.02152132
v 0.003434099 0.0265398 -0.02152132
v 0.003434099 0.0265398 -0.01489747
v -0.005710883 0.03119942 -0.02152132
v -0.005710883 0.03119942 -0.01489747
v -0.01584819 0.032805 -0.02152132
v -0.01584819 0.032805 -0.01489747
v -0.02598549 0.03119942 -0.02152132
v -0.02598549 0.03119942 -0.01489747
v -0.03513047 0.0265398 -0.02152132
v -0.03513047 0.0265398 -0.01489747
v -0.04238799 0.01928232 -0.02152132
v -0.04238799 0.01928232 -0.01489747
v -0.04704761 0.0101373 -0.02152132
v -0.04704761 0.0101373 -0.01489747
v -0.04865318 -9.776651e-10 -0.02152132
v -0.04865318 -9.776651e-10 -0.01489747
v -0.04704761 -0.0101373 -0.02152132
v -0.04704761 -0.0101373 -0.01489747
v -0.04238799 -0.01928229 -0.02152132
v -0.04238799 -0.01928229 -0.01489747
v -0.03513047 -0.0265398 -0.02152132
v -0.03513047 -0.0265398 -0.01489747
v -0.02598549 -0.03119943 -0.02152132
v -0.02598549 -0.03119943 -0.01489747
v -0.01584819 -0.032805 -0.02152132
v -0.01584819 -0.032805 -0.01489747
v -0.005710883 -0.03119943 -0.02152132
v -0.005710883 -0.03119943 -0.01489747
v 0.003434133 -0.0265398 -0.02152132
v 0.003434133 -0.0265398 -0.01489747
v 0.01069165 -0.01928229 -0.02152132
v 0.01069165 -0.01928229 -0.01489747
v 0.01535124 -0.0101373 -0.02152132
v 0.01535124 -0.0101373 -0.01489747
v 0.01535124 0.0101373 0.0004888959
v 0.01671917 -9.776651e-10 0.0004888959
v 0.01661732 -9.776651e-10 -0.0084484
v 0.01069162 0.01928228 0.0004888959
v 0.003434099 0.0265398 0.0004888959
v -0.005710883 0.03119942 0.0004888959
v -0.01584819 0.032805 0.0004888959
v -0.02598549 0.03119942 0.0004888959
v -0.03513047 0.0265398 0.0004888959
v -0.04238799 0.01928232 0.0004888959
v -0.04704761 0.0101373 0.0004888959
v -0.04865318 -9.776651e-10 0.0004888959
v -0.04704761 -0.0101373 0.0004888959
v -0.04238799 -0.01928229 0.0004888959
v -0.03513047 -0.0265398 0.0004888959
v -0.02598549 -0.03119943 0.0004888959
v -0.01584819 -0.032805 0.0004888959
v -0.005710883 -0.03119943 0.0004888959
v 0.003434133 -0.0265398 0.0004888959
v 0.01069165 -0.01928229 0.0004888959
v 0.01535124 -0.0101373 0.0004888959
v 0.01661732 -9.776651e-10 -0.0084484
v 0.01671917 -9.776651e-10 0.0004888959
v 0.01535124 -0.0101373 -0.02844846
v 0.01069165 -0.01928229 -0.02844846
v 0.003434133 -0.0265398 -0.02844846
v -0.005710883 -0.03119943 -0.02844846
v -0.01584819 -0.032805 -0.02844846
v -0.02598549 -0.03119943 -0.02844846
v -0.03513047 -0.0265398 -0.02844846
v -0.04238799 -0.01928229 -0.02844846
v -0.04704761 -0.0101373 -0.02844846
v -0.04865318 -9.776651e-10 -0.02844846
v -0.04704761 0.0101373 -0.02844846
v -0.04238799 0.01928232 -0.02844846
v -0.03513047 0.0265398 -0.02844846
v -0.02598549 0.03119942 -0.02844846
v -0.01584819 0.032805 -0.02844846
v -0.005710883 0.03119942 -0.02844846
v 0.003434099 0.0265398 -0.02844846
v 0.01069162 0.01928228 -0.02844846
v 0.01535124 0.0101373 -0.02844846
v 0.01581894 0.008032926 -0.02148182
v 0.01640316 0.005402917 -0.02631997
v 0.01661732 -9.776651e-10 -0.03161581
v 0.01699438 -9.776651e-10 -0.02861894
v 0.01640477 -0.005395898 -0.02631879
v 0.01645139 -0.005170364 -0.01625868
v 0.01582159 -0.008021183 -0.02148159
v 0.01644981 0.005177317 -0.01625737
v 0.0166413 3.017082e-06 -0.01467761
v 0.01698594 0.004945714 -0.02591184
v 0.01748694 0.004552676 -0.02556096
v 0.01799073 -9.776651e-10 -0.02751378
v 0.01753015 -9.776651e-10 -0.02802465
v 0.01698637 -0.004941615 -0.02591115
v 0.01748639 -0.004551072 -0.0255607
v 0.01698542 -0.006763211 -0.02145797
v 0.01644742 -0.007344745 -0.0214689
v 0.01702354 0.004733432 -0.01677109
v 0.01751699 0.004350827 -0.01723751
v 0.01698621 0.006765899 -0.02145804
v 0.01644663 0.007351633 -0.02146903
v 0.01702396 -0.004729366 -0.01677185
v 0.01751643 -0.004349222 -0.01723781
v 0.01768197 6.879274e-07 -0.01592397
v 0.01720035 1.770492e-06 -0.01533305
v 0.01877277 -9.776651e-10 -0.02714689
v 0.01829841 0.004271603 -0.02530902
v 0.01939623 0.004086453 -0.02514303
v 0.0198507 -9.776651e-10 -0.02690524
v 0.01829804 -0.004270785 -0.02530889
v 0.0193959 -0.004086159 -0.02514299
v 0.01894355 -0.006070665 -0.02155521
v 0.01782598 -0.006345668 -0.02146178
v 0.01782651 0.006347078 -0.02146181
v 0.0183254 0.004075233 -0.01765148
v 0.01942145 0.003897594 -0.01807857
v 0.01894405 0.006071122 -0.02155524
v 0.01832508 -0.004074415 -0.01765161
v 0.01942116 -0.003897301 -0.0180786
v 0.01957912 1.302423e-07 -0.01692967
v 0.01848467 3.598773e-07 -0.01643419
v 0.01939623 0.004086453 -0.02514303
v 0.02718092 0.004025632 -0.02551815
v 0.02734527 3.182734e-08 -0.02682579
v 0.0198507 -9.776651e-10 -0.02690524
v 0.02718078 -0.004025502 -0.02551812
v 0.02701725 -0.005980188 -0.02319506
v 0.01942116 -0.003897301 -0.0180786
v 0.02718279 -0.003924594 -0.02024419
v 0.02724604 6.463234e-08 -0.01911826
v 0.01957912 1.302423e-07 -0.01692967
v 0.02718292 0.003924756 -0.02024419
v 0.02701741 0.005980383 -0.02319506
v 0.0166413 3.017082e-06 -0.01467761
v 0.01699438 -9.776651e-10 -0.02861894
v 0.01069162 0.01928228 0.02297803
v 0.01535124 0.0101373 0.02297803
v 0.01535124 0.0101373 0.01635419
v 0.01069162 0.01928228 0.01635419
v 0.003434099 0.0265398 0.02297803
v 0.003434099 0.0265398 0.01635419
v -0.005710883 0.03119942 0.02297803
v -0.005710883 0.03119942 0.01635419
v -0.01584819 0.032805 0.02297803
v -0.01584819 0.032805 0.01635419
v -0.02598549 0.03119942 0.02297803
v -0.02598549 0.03119942 0.01635419
v -0.03513047 0.0265398 0.02297803
v -0.03513047 0.0265398 0.01635419
v -0.04238799 0.01928232 0.02297803
v -0.04238799 0.01928232 0.01635419
v -0.04704761 0.0101373 0.02297803
v -0.04704761 0.0101373 0.01635419
v -0.04865318 -9.776651e-10 0.02297803
v -0.04865318 -9.776651e-10 0.01635419
v -0.04704761 -0.0101373 0.02297803
v -0.04704761 -0.0101373 0.01635419
v -0.04238799 -0.01928229 0.02297803
v -0.04238799 -0.01928229 0.01635419
v -0.03513047 -0.0265398 0.02297803
v -0.03513047 -0.0265398 0.01635419
v -0.02598549 -0.03119943 0.02297803
v -0.02598549 -0.03119943 0.01635419
v -0.01584819 -0.032805 0.02297803
v -0.01584819 -0.032805 0.01635419
v -0.005710883 -0.03119943 0.02297803
v -0.005710883 -0.03119943 0.01635419
v 0.003434133 -0.0265398 0.02297803
v 0.003434133 -0.0265398 0.01635419
v 0.01069165 -0.01928229 0.02297803
v 0.01069165 -0.01928229 0.01635419
v 0.01535124 -0.0101373 0.02297803
v 0.01535124 -0.0101373 0.01635419
v 0.01661732 -9.776651e-10 0.009905145
v 0.01661732 -9.776651e-10 0.009905145
v 0.01535124 -0.0101373 0.02990517
v 0.01069165 -0.01928229 0.02990517
v 0.003434133 -0.0265398 0.02990517
v -0.005710883 -0.03119943 0.02990517
v -0.01584819 -0.032805 0.02990517
v -0.02598549 -0.03119943 0.02990517
v -0.03513047 -0.0265398 0.02990517
v -0.04238799 -0.01928229 0.02990517
v -0.04704761 -0.0101373 0.02990517
v -0.04865318 -9.776651e-10 0.02990517
v -0.04704761 0.0101373 0.02990517
v -0.04238799 0.01928232 0.02990517
v -0.03513047 0.0265398 0.02990517
v -0.02598549 0.03119942 0.02990517
v -0.01584819 0.032805 0.02990517
v -0.005710883 0.03119942 0.02990517
v 0.003434099 0.0265398 0.02990517
v 0.01069162 0.01928228 0.02990517
v 0.01535124 0.0101373 0.02990517
v 0.01661732 -9.776651e-10 0.03307253
v 0.01699438 -9.776651e-10 0.03007567
v 0.01640316 0.005402917 0.02777669
v 0.01640477 -0.005395898 0.02777551
v 0.01582159 -0.008021183 0.02293831
v 0.0166413 3.017082e-06 0.01613432
v 0.01645139 -0.005170364 0.01771539
v 0.01581894 0.008032926 0.02293854
v 0.01644981 0.005177317 0.01771408
v 0.01748694 0.004552676 0.02701767
v 0.01698594 0.004945714 0.02736856
v 0.01753015 -9.776651e-10 0.02948137
v 0.01799073 -9.776651e-10 0.02897049
v 0.01748639 -0.004551072 0.02701744
v 0.01698637 -0.004941615 0.02736787
v 0.01644742 -0.007344745 0.02292561
v 0.01698542 -0.006763211 0.02291469
v 0.01751699 0.004350827 0.01869426
v 0.01702354 0.004733432 0.01822781
v 0.01644663 0.007351633 0.02292575
v 0.01698621 0.006765899 0.02291476
v 0.01751643 -0.004349222 0.01869452
v 0.01702396 -0.004729366 0.01822856
v 0.01720035 1.770492e-06 0.01678977
v 0.01768197 6.879274e-07 0.01738068
v 0.01877277 -9.776651e-10 0.0286036
v 0.0198507 -9.776651e-10 0.02836196
v 0.01939623 0.004086453 0.02659975
v 0.01829841 0.004271603 0.02676574
v 0.0193959 -0.004086159 0.02659971
v 0.01829804 -0.004270785 0.0267656
v 0.01782598 -0.006345668 0.02291849
v 0.01894355 -0.006070665 0.02301192
v 0.01782651 0.006347078 0.02291853
v 0.01894405 0.006071122 0.02301196
v 0.01942145 0.003897594 0.01953529
v 0.0183254 0.004075233 0.0191082
v 0.01942116 -0.003897301 0.01953531
v 0.01832508 -0.004074415 0.01910832
v 0.01848467 3.598773e-07 0.0178909
v 0.01957912 1.302423e-07 0.01838638
v 0.02718092 0.004025632 0.02697484
v 0.01939623 0.004086453 0.02659975
v 0.0198507 -9.776651e-10 0.02836196
v 0.02734527 3.182734e-08 0.0282825
v 0.02718078 -0.004025502 0.02697484
v 0.02701725 -0.005980188 0.02465178
v 0.02718279 -0.003924594 0.0217009
v 0.01942116 -0.003897301 0.01953531
v 0.01957912 1.302423e-07 0.01838638
v 0.02724604 6.463234e-08 0.02057497
v 0.02718292 0.003924756 0.0217009
v 0.02701741 0.005980383 0.02465178
v 0.03889677 3.182734e-08 0.02537671
v 0.03831684 0.003997156 0.02436424
v 0.03712018 0.005935178 0.02232875
v 0.03582674 0.003889261 0.01969754
v 0.03533427 3.182734e-08 0.0186957
v 0.03582674 -0.003889197 0.01969754
v 0.03712014 -0.005935114 0.02232875
v 0.0383168 -0.003997093 0.02436424
v 0.03831684 0.003997156 -0.02290753
v 0.03889677 3.182734e-08 -0.02391999
v 0.03582674 0.003889229 -0.01824082
v 0.03712018 0.005935178 -0.02087204
v 0.03582674 -0.003889197 -0.01824082
v 0.03533431 3.182734e-08 -0.01723899
v 0.03831684 -0.003997093 -0.02290753
v 0.03712014 -0.005935114 -0.02087204
v 0.04724885 0.00399368 -0.0113936
v 0.04865317 3.182734e-08 -0.01173943
v 0.04216181 0.003799015 -0.009448621
v 0.04430257 0.005930159 -0.01051518
v 0.04216181 -0.003798984 -0.009448621
v 0.04127326 3.182734e-08 -0.009005949
v 0.04724885 -0.003993649 -0.0113936
v 0.04430257 -0.005930128 -0.01051518
v 0.04865317 3.182734e-08 0.0003268756
v 0.04724983 0.003994926 0.0003344901
v 0.04724885 0.00399368 0.01285031
v 0.04865317 3.182734e-08 0.01319614
v 0.04430257 0.005930159 0.0003643371
v 0.04216056 0.003799507 0.0004002601
v 0.04216181 0.003799015 0.01090534
v 0.04430257 0.005930159 0.01197189
v 0.04121782 3.182734e-08 0.0004160367
v 0.04216056 -0.003799476 0.0004002601
v 0.04216178 -0.003798984 0.01090534
v 0.04127326 3.182734e-08 0.01046267
v 0.04430257 -0.005930128 0.0003643371
v 0.04724983 -0.003994895 0.0003344901
v 0.04724885 -0.003993649 0.01285031
v 0.04430257 -0.005930128 0.01197189
v 0.01039479 0.008555018 -0.04160539
v 0.011717 -9.776651e-10 -0.04160539
v 0.002861751 -9.776651e-10 -0.04160539
v 0.00201853 0.005880951 -0.04160539
v 0.006554905 0.01624441 -0.04160539
v -0.0004360359 0.01111046 -0.04160539
v 0.0004338883 0.0222517 -0.04160539
v -0.004636422 0.01500484 -0.04160539
v -0.007289854 0.02611537 -0.04160539
v -0.009958278 0.01752338 -0.04160539
v -0.01584819 0.02744722 -0.04160539
v -0.01584819 0.01839268 -0.04160539
v -0.02440652 0.02611537 -0.04160539
v -0.02173809 0.01752338 -0.04160539
v -0.03213026 0.0222517 -0.04160539
v -0.02705995 0.01500484 -0.04160539
v -0.03825128 0.01624444 -0.04160539
v -0.03126033 0.01111046 -0.04160539
v -0.0420912 0.008555018 -0.04160539
v -0.0337149 0.005880951 -0.04160539
v -0.04341337 -9.776651e-10 -0.04160539
v -0.03455812 -9.776651e-10 -0.04160539
v -0.0420912 -0.00855502 -0.04160539
v -0.0337149 -0.005880953 -0.04160539
v -0.03825131 -0.01624441 -0.04160539
v -0.03126033 -0.01111046 -0.04160539
v -0.03213026 -0.0222517 -0.04160539
v -0.02705995 -0.01500484 -0.04160539
v -0.02440652 -0.02611537 -0.04160539
v -0.02173809 -0.01752338 -0.04160539
v -0.01584819 -0.02744722 -0.04160539
v -0.01584819 -0.01839268 -0.04160539
v -0.007289854 -0.02611537 -0.04160539
v -0.009958278 -0.01752338 -0.04160539
v 0.00043392 -0.0222517 -0.04160539
v -0.004636422 -0.01500484 -0.04160539
v 0.006554937 -0.01624441 -0.04160539
v -0.0004360359 -0.01111046 -0.04160539
v 0.01039483 -0.00855502 -0.04160539
v 0.002018563 -0.005880953 -0.04160539
v 0.011717 -9.776651e-10 -0.04160539
v 0.002861751 -9.776651e-10 -0.04160539
v 0.00201853 0.005880951 -0.04160539
v 0.002861751 -9.776651e-10 -0.04160539
v -0.004828396 -9.776651e-10 -0.04160539
v -0.005041432 0.003963269 -0.04160539
v -0.0004360359 0.01111046 -0.04160539
v 0.00201853 0.005880951 -0.04160539
v -0.005041432 0.003963269 -0.04160539
v -0.005566147 0.007203747 -0.04160539
v -0.004636422 0.01500484 -0.04160539
v -0.0004360359 0.01111046 -0.04160539
v -0.005566147 0.007203747 -0.04160539
v -0.008422742 0.008543602 -0.04160539
v -0.009958278 0.01752338 -0.04160539
v -0.004636422 0.01500484 -0.04160539
v -0.008422742 0.008543602 -0.04160539
v -0.01202076 0.009608779 -0.04160539
v -0.01584819 0.01839268 -0.04160539
v -0.009958278 0.01752338 -0.04160539
v -0.01202076 0.009608779 -0.04160539
v -0.01584819 0.01002593 -0.04160539
v -0.02173809 0.01752338 -0.04160539
v -0.01584819 0.01839268 -0.04160539
v -0.01584819 0.01002593 -0.04160539
v -0.01967561 0.009608779 -0.04160539
v -0.02705995 0.01500484 -0.04160539
v -0.02173809 0.01752338 -0.04160539
v -0.01967561 0.009608779 -0.04160539
v -0.02327363 0.008543602 -0.04160539
v -0.03126033 0.01111046 -0.04160539
v -0.02705995 0.01500484 -0.04160539
v -0.02327363 0.008543602 -0.04160539
v -0.02613023 0.007203747 -0.04160539
v -0.0337149 0.005880951 -0.04160539
v -0.03126033 0.01111046 -0.04160539
v -0.02613023 0.007203747 -0.04160539
v -0.02665494 0.003963269 -0.04160539
v -0.03455812 -9.776651e-10 -0.04160539
v -0.0337149 0.005880951 -0.04160539
v -0.02665494 0.003963269 -0.04160539
v -0.02686797 -9.776651e-10 -0.04160539
v -0.0337149 -0.005880953 -0.04160539
v -0.03455812 -9.776651e-10 -0.04160539
v -0.02686797 -9.776651e-10 -0.04160539
v -0.02665494 -0.003963271 -0.04160539
v -0.03126033 -0.01111046 -0.04160539
v -0.0337149 -0.005880953 -0.04160539
v -0.02665494 -0.003963271 -0.04160539
v -0.02613023 -0.007203716 -0.04160539
v -0.02705995 -0.01500484 -0.04160539
v -0.03126033 -0.01111046 -0.04160539
v -0.02613023 -0.007203716 -0.04160539
v -0.02327363 -0.008543604 -0.04160539
v -0.02173809 -0.01752338 -0.04160539
v -0.02705995 -0.01500484 -0.04160539
v -0.02327363 -0.008543604 -0.04160539
v -0.01967561 -0.009608781 -0.04160539
v -0.01584819 -0.01839268 -0.04160539
v -0.02173809 -0.01752338 -0.04160539
v -0.01967561 -0.009608781 -0.04160539
v -0.01584819 -0.01002593 -0.04160539
v -0.009958278 -0.01752338 -0.04160539
v -0.01584819 -0.01839268 -0.04160539
v -0.01584819 -0.01002593 -0.04160539
v -0.01202073 -0.009608781 -0.04160539
v -0.004636422 -0.01500484 -0.04160539
v -0.009958278 -0.01752338 -0.04160539
v -0.01202073 -0.009608781 -0.04160539
v -0.008422742 -0.008543604 -0.04160539
v -0.0004360359 -0.01111046 -0.04160539
v -0.004636422 -0.01500484 -0.04160539
v -0.008422742 -0.008543604 -0.04160539
v -0.005566147 -0.007203749 -0.04160539
v 0.002018563 -0.005880953 -0.04160539
v -0.0004360359 -0.01111046 -0.04160539
v -0.005566147 -0.007203749 -0.04160539
v -0.005041398 -0.003963271 -0.04160539
v 0.002861751 -9.776651e-10 -0.04160539
v 0.002018563 -0.005880953 -0.04160539
v -0.005041398 -0.003963271 -0.04160539
v -0.004828396 -9.776651e-10 -0.04160539
v -0.01258753 -0.004068379 -0.04160539
v -0.009195922 -0.003869876 -0.04160539
v -0.01910884 -0.004068379 -0.04160539
v -0.01584819 -0.004170369 -0.04160539
v -0.01910884 0.004068377 -0.04160539
v -0.01584819 0.004170367 -0.04160539
v -0.01584819 -9.776651e-10 -0.04160539
v -0.01896174 -9.776651e-10 -0.04160539
v -0.01258753 0.004068377 -0.04160539
v -0.009195922 0.003869874 -0.04160539
v -0.009364179 -9.776651e-10 -0.04160539
v -0.01273463 -9.776651e-10 -0.04160539
v -0.02250045 -0.003869876 -0.04160539
v -0.02250045 0.003869874 -0.04160539
v -0.02233219 -9.776651e-10 -0.04160539
v -0.02653432 0.008714286 -0.03612965
v -0.02048727 0.008140724 -0.03612965
v -0.02050571 0.0131279 -0.03612965
v -0.02439828 0.01202119 -0.03612965
v 0.003632966 0.006258078 -0.03662021
v 0.001045927 0.01197586 -0.03659545
v -0.005162056 0.008714286 -0.03612965
v -0.003635901 0.004507669 -0.03612965
v -0.003238568 0.01745665 -0.03656218
v -0.007298088 0.01202119 -0.03612965
v -0.00956629 0.01993169 -0.03658971
v -0.01119066 0.0131279 -0.03612965
v -0.01584819 0.0207548 -0.03660299
v -0.01584819 0.01351805 -0.03612965
v -0.02213008 0.01993169 -0.03658971
v -0.0284578 0.01745665 -0.03656218
v -0.0327423 0.01197586 -0.03659545
v -0.03532934 0.006258078 -0.03662021
v -0.02806047 0.004507669 -0.03612965
v -0.03624187 -9.776651e-10 -0.03662724
v -0.02863449 -9.776651e-10 -0.03612965
v -0.03532934 -0.00625808 -0.03662021
v -0.02806047 -0.004507671 -0.03612965
v -0.0327423 -0.01197586 -0.03659545
v -0.02653432 -0.008714288 -0.03612965
v -0.0284578 -0.01745666 -0.03656218
v -0.02439828 -0.01202116 -0.03612965
v -0.02213008 -0.0199317 -0.03658971
v -0.02050571 -0.01312791 -0.03612965
v -0.01584819 -0.02075481 -0.03660299
v -0.01584819 -0.01351805 -0.03612965
v -0.00956629 -0.0199317 -0.03658971
v -0.01119066 -0.01312791 -0.03612965
v -0.003238568 -0.01745666 -0.03656218
v -0.007298088 -0.01202116 -0.03612965
v 0.001045927 -0.01197586 -0.03659545
v -0.005162056 -0.008714288 -0.03612965
v 0.003632966 -0.00625808 -0.03662021
v -0.003635901 -0.004507671 -0.03612965
v 0.004545502 -9.776651e-10 -0.03662724
v -0.003061878 -9.776651e-10 -0.03612965
v -0.02067131 -0.004058373 -0.03612965
v -0.02077015 -9.776651e-10 -0.03612965
v -0.01092622 -9.776651e-10 -0.03612965
v -0.01102506 -0.004058373 -0.03612965
v -0.0112091 0.008140724 -0.03612965
v -0.02067131 0.004058404 -0.03612965
v -0.01102506 0.004058404 -0.03612965
v -0.02048727 -0.008140692 -0.03612965
v -0.0112091 -0.008140692 -0.03612965
v -0.01584819 0.007984736 -0.03612965
v -0.01584819 0.003926889 -0.03612965
v -0.01584819 -9.776651e-10 -0.03612965
v -0.01584819 -0.00392689 -0.03612965
v -0.01584819 -0.007984738 -0.03612965
v 0.01059625 0.008592318 -0.03612965
v 0.006646793 0.01634358 -0.03612965
v 0.0004953966 0.02249501 -0.03612965
v -0.007255867 0.02644447 -0.03612965
v -0.01584819 0.02780535 -0.03612965
v -0.0244405 0.02644447 -0.03612965
v -0.03219177 0.02249501 -0.03612965
v -0.03834317 0.01634358 -0.03612965
v -0.04229262 0.008592318 -0.03612965
v -0.04365354 -9.776651e-10 -0.03612965
v -0.04229262 -0.00859232 -0.03612965
v -0.0383432 -0.01634355 -0.03612965
v -0.03219177 -0.02249498 -0.03612965
v -0.0244405 -0.02644444 -0.03612965
v -0.01584819 -0.02780535 -0.03612965
v -0.007255867 -0.02644444 -0.03612965
v 0.0004953966 -0.02249501 -0.03612965
v 0.006646827 -0.01634358 -0.03612965
v 0.01059628 -0.00859232 -0.03612965
v 0.01195717 -9.776651e-10 -0.03612965
v 0.01367631 -9.776651e-10 -0.03443163
v 0.01317279 -9.776651e-10 -0.03563229
v 0.0117524 -0.008967969 -0.03563229
v 0.01223128 -0.009123564 -0.03443163
v 0.01317279 -9.776651e-10 -0.03563229
v 0.0117524 0.008967967 -0.03563229
v 0.01367631 -9.776651e-10 -0.03443163
v 0.01223128 0.009123562 -0.03443163
v 0.0117524 0.008967967 -0.03563229
v 0.007630289 0.01705811 -0.03563229
v 0.01223128 0.009123562 -0.03443163
v 0.008037627 0.01735407 -0.03443163
v 0.007630289 0.01705811 -0.03563229
v 0.001209924 0.02347847 -0.03563229
v 0.008037627 0.01735407 -0.03443163
v 0.001505889 0.02388584 -0.03443163
v 0.001209924 0.02347847 -0.03563229
v -0.006880218 0.02760058 -0.03563229
v 0.001505889 0.02388584 -0.03443163
v -0.006724623 0.02807947 -0.03443163
v -0.006880218 0.02760058 -0.03563229
v -0.01584819 0.02902097 -0.03563229
v -0.006724623 0.02807947 -0.03443163
v -0.01584819 0.0295245 -0.03443163
v -0.01584819 0.02902097 -0.03563229
v -0.02481615 0.02760058 -0.03563229
v -0.01584819 0.0295245 -0.03443163
v -0.02497175 0.02807947 -0.03443163
v -0.02481615 0.02760058 -0.03563229
v -0.03290629 0.02347847 -0.03563229
v -0.02497175 0.02807947 -0.03443163
v -0.03320226 0.02388584 -0.03443163
v -0.03290629 0.02347847 -0.03563229
v -0.03932666 0.01705811 -0.03563229
v -0.03320226 0.02388584 -0.03443163
v -0.039734 0.01735407 -0.03443163
v -0.03932666 0.01705811 -0.03563229
v -0.04344877 0.008967967 -0.03563229
v -0.039734 0.01735407 -0.03443163
v -0.04392765 0.009123562 -0.03443163
v -0.04344877 0.008967967 -0.03563229
v -0.04486916 -9.776651e-10 -0.03563229
v -0.04392765 0.009123562 -0.03443163
v -0.04537268 -9.776651e-10 -0.03443163
v -0.04486916 -9.776651e-10 -0.03563229
v -0.04344877 -0.008967969 -0.03563229
v -0.04537268 -9.776651e-10 -0.03443163
v -0.04392765 -0.009123564 -0.03443163
v -0.04344877 -0.008967969 -0.03563229
v -0.03932666 -0.01705811 -0.03563229
v -0.04392765 -0.009123564 -0.03443163
v -0.039734 -0.01735408 -0.03443163
v -0.03932666 -0.01705811 -0.03563229
v -0.03290629 -0.02347848 -0.03563229
v -0.039734 -0.01735408 -0.03443163
v -0.03320226 -0.02388581 -0.03443163
v -0.03290629 -0.02347848 -0.03563229
v -0.02481615 -0.02760059 -0.03563229
v -0.03320226 -0.02388581 -0.03443163
v -0.02497175 -0.02807947 -0.03443163
v -0.02481615 -0.02760059 -0.03563229
v -0.01584819 -0.02902098 -0.03563229
v -0.02497175 -0.02807947 -0.03443163
v -0.01584819 -0.0295245 -0.03443163
v -0.01584819 -0.02902098 -0.03563229
v -0.006880218 -0.02760059 -0.03563229
v -0.01584819 -0.0295245 -0.03443163
v -0.006724623 -0.02807947 -0.03443163
v -0.006880218 -0.02760059 -0.03563229
v 0.001209924 -0.02347848 -0.03563229
v -0.006724623 -0.02807947 -0.03443163
v 0.001505889 -0.02388581 -0.03443163
v 0.001209924 -0.02347848 -0.03563229
v 0.007630289 -0.01705811 -0.03563229
v 0.001505889 -0.02388581 -0.03443163
v 0.008037657 -0.01735408 -0.03443163
v 0.007630289 -0.01705811 -0.03563229
v 0.008037657 -0.01735408 -0.03443163
v 0.01223128 -0.009123564 -0.03443163
v 0.0117524 -0.008967969 -0.03563229
v 0.01629838 -9.776651e-10 -0.04067701
v 0.016875 -9.776651e-10 -0.03919771
v 0.01535124 -0.0101373 -0.03922572
v 0.01476711 -0.009947527 -0.04069014
v 0.016875 -9.776651e-10 -0.03919771
v 0.01629838 -9.776651e-10 -0.04067701
v 0.01476711 0.009947525 -0.04069014
v 0.01535124 0.0101373 -0.03922572
v 0.01019475 0.0189213 -0.0406901
v 0.01069162 0.01928228 -0.03922565
v 0.01069165 -0.01928229 -0.03922565
v 0.01019478 -0.0189213 -0.0406901
v 0.003073115 0.02604293 -0.0406901
v 0.003434099 0.0265398 -0.03922565
v -0.00590066 0.03061533 -0.0406901
v -0.005710883 0.03119942 -0.03922565
v -0.01584819 0.03219086 -0.0406901
v -0.01584819 0.032805 -0.03922565
v -0.02579571 0.03061533 -0.0406901
v -0.02598549 0.03119942 -0.03922565
v -0.03476949 0.02604293 -0.0406901
v -0.03513047 0.0265398 -0.03922565
v -0.04189112 0.0189213 -0.0406901
v -0.04238799 0.01928232 -0.03922565
v -0.04646352 0.009947525 -0.0406901
v -0.04704761 0.0101373 -0.03922565
v -0.04803905 -9.776651e-10 -0.0406901
v -0.04865318 -9.776651e-10 -0.03922565
v -0.04646352 -0.009947527 -0.0406901
v -0.04704761 -0.0101373 -0.03922565
v -0.04189112 -0.0189213 -0.0406901
v -0.04238799 -0.01928229 -0.03922565
v -0.03476949 -0.02604294 -0.0406901
v -0.03513047 -0.0265398 -0.03922565
v -0.02579571 -0.03061533 -0.0406901
v -0.02598549 -0.03119943 -0.03922565
v -0.01584819 -0.03219086 -0.0406901
v -0.01584819 -0.032805 -0.03922565
v -0.00590066 -0.03061533 -0.0406901
v -0.005710883 -0.03119943 -0.03922565
v 0.003073147 -0.02604294 -0.0406901
v 0.003434133 -0.0265398 -0.03922565
v 0.01661732 -9.776651e-10 -0.03161581
v 0.0135137 0.009540809 -0.04160539
v 0.01499731 -9.776651e-10 -0.04160539
v 0.01499731 -9.776651e-10 -0.04160539
v 0.01351376 -0.009540843 -0.04160539
v 0.009128785 -0.01814681 -0.04160539
v 0.002298653 -0.02497697 -0.04160539
v -0.006307836 -0.02936218 -0.04160539
v -0.01584819 -0.03087321 -0.04160539
v -0.02538854 -0.02936218 -0.04160539
v -0.03399499 -0.02497694 -0.04160539
v -0.04082512 -0.01814681 -0.04160539
v -0.04521037 -0.009540351 -0.04160539
v -0.0467214 -9.776651e-10 -0.04160539
v -0.04521037 0.009540349 -0.04160539
v -0.04082512 0.01814684 -0.04160539
v -0.03399499 0.02497697 -0.04160539
v -0.02538854 0.02936218 -0.04160539
v -0.01584819 0.03087321 -0.04160539
v -0.006307836 0.02936218 -0.04160539
v 0.00229862 0.02497697 -0.04160539
v 0.009128751 0.0181468 -0.04160539
v 0.0156621 -9.776651e-10 -0.04132691
v 0.01414874 0.009746593 -0.04133229
v 0.0156621 -9.776651e-10 -0.04132691
v 0.01414874 -0.009746595 -0.04133236
v 0.009668689 0.01853909 -0.04133236
v 0.002690904 0.02551687 -0.04133236
v -0.006101592 0.02999689 -0.04133236
v -0.01584819 0.03154059 -0.04133236
v -0.02559475 0.02999689 -0.04133236
v -0.03438728 0.02551687 -0.04133236
v -0.04136506 0.01853909 -0.04133236
v -0.04584508 0.009746593 -0.04133236
v -0.04738878 -9.776651e-10 -0.04133236
v -0.04584508 -0.009746563 -0.04133236
v -0.04136506 -0.01853909 -0.04133236
v -0.03438728 -0.02551688 -0.04133236
v -0.02559478 -0.02999689 -0.04133236
v -0.01584819 -0.03154059 -0.04133236
v -0.006101592 -0.02999689 -0.04133236
v 0.002690904 -0.02551688 -0.04133236
v 0.009668689 -0.01853909 -0.04133236
v 0.01535836 -9.776651e-10 -0.04153293
v 0.01385747 -0.009652084 -0.04153447
v 0.01535836 -9.776651e-10 -0.04153293
v 0.01385747 0.009652082 -0.04153447
v 0.009421013 -0.01835912 -0.04153447
v 0.009420982 0.01835912 -0.04153447
v 0.002510933 0.02526917 -0.04153447
v -0.006196233 0.02970568 -0.04153447
v -0.01584819 0.03123443 -0.04153447
v -0.02550014 0.02970568 -0.04153447
v -0.03420731 0.02526917 -0.04153447
v -0.04111736 0.01835912 -0.04153447
v -0.04555387 0.009651985 -0.04153447
v -0.04708261 -9.776651e-10 -0.04153447
v -0.04555387 -0.009651953 -0.04153447
v -0.04111736 -0.01835912 -0.04153447
v -0.03420731 -0.02526917 -0.04153447
v -0.02550014 -0.02970568 -0.04153447
v -0.01584819 -0.03123443 -0.04153447
v -0.0061962 -0.02970568 -0.04153447
v 0.002510967 -0.02526917 -0.04153447
v 0.01753015 -9.776651e-10 -0.02802465
v 0.01799073 -9.776651e-10 -0.02751378
v 0.01877277 -9.776651e-10 -0.02714689
v 0.01877277 -9.776651e-10 0.0286036
v 0.01799073 -9.776651e-10 0.02897049
v 0.01753015 -9.776651e-10 0.02948137
v 0.01699438 -9.776651e-10 0.03007567
v 0.01698621 0.006765899 -0.02145804
v 0.01782651 0.006347078 -0.02146181
v 0.01894405 0.006071122 -0.02155524
v 0.01894405 0.006071122 0.02301196
v 0.01782651 0.006347078 0.02291853
v 0.01698621 0.006765899 0.02291476
v 0.01661732 -9.776651e-10 0.03307253
v 0.0166783 -9.776651e-10 0.04085949
v 0.01691505 -9.776651e-10 0.04024189
v 0.01535124 0.0101373 0.04025603
v 0.01510789 0.01005824 0.04086612
v 0.01691505 -9.776651e-10 0.04024189
v 0.0166783 -9.776651e-10 0.04085949
v 0.01510789 -0.01005824 0.04086612
v 0.01535124 -0.0101373 0.04025603
v 0.01069162 0.01928228 0.04025603
v 0.01048462 0.01913191 0.04086612
v 0.01048465 -0.01913191 0.04086612
v 0.01069165 -0.01928229 0.04025603
v 0.003434099 0.0265398 0.04025603
v 0.003283722 0.0263328 0.04086612
v -0.005710883 0.03119942 0.04025603
v -0.005789944 0.03095607 0.04086612
v -0.01584819 0.032805 0.04025603
v -0.01584819 0.03254915 0.04086612
v -0.02598549 0.03119942 0.04025603
v -0.02590643 0.03095607 0.04086612
v -0.03513047 0.0265398 0.04025603
v -0.0349801 0.02633283 0.04086612
v -0.04238799 0.01928232 0.04025603
v -0.04218099 0.01913191 0.04086612
v -0.04704761 0.0101373 0.04025603
v -0.04680426 0.01005824 0.04086612
v -0.04865318 -9.776651e-10 0.04025603
v -0.04839734 -9.776651e-10 0.04086612
v -0.04704761 -0.0101373 0.04025603
v -0.04680426 -0.01005824 0.04086612
v -0.04238799 -0.01928229 0.04025603
v -0.04218099 -0.01913191 0.04086612
v -0.03513047 -0.0265398 0.04025603
v -0.0349801 -0.0263328 0.04086612
v -0.02598549 -0.03119943 0.04025603
v -0.02590643 -0.03095608 0.04086612
v -0.01584819 -0.032805 0.04025603
v -0.01584819 -0.03254915 0.04086612
v -0.005710883 -0.03119943 0.04025603
v -0.005789944 -0.03095608 0.04086612
v 0.003434133 -0.0265398 0.04025603
v 0.003283722 -0.02633284 0.04086612
v 0.01630078 -9.776651e-10 0.04124796
v 0.01474021 0.009938765 0.04124796
v 0.01630078 -9.776651e-10 0.04124796
v 0.01474025 -0.009938767 0.04124796
v 0.01017186 0.01890467 0.04124796
v 0.003056481 0.02602007 0.04124796
v -0.00590942 0.03058839 0.04124796
v -0.01584819 0.03216255 0.04124796
v -0.02578695 0.03058839 0.04124796
v -0.03475285 0.02602007 0.04124796
v -0.04186823 0.01890467 0.04124796
v -0.04643658 0.009938765 0.04124796
v -0.04801073 -9.776651e-10 0.04124796
v -0.04643658 -0.009938767 0.04124796
v -0.04186823 -0.01890467 0.04124796
v -0.03475285 -0.02602004 0.04124796
v -0.02578695 -0.0305884 0.04124796
v -0.01584819 -0.03216255 0.04124796
v -0.00590942 -0.0305884 0.04124796
v 0.003056515 -0.02602007 0.04124796
v 0.01017188 -0.01890467 0.04124796
v 0.0139069 -9.776651e-10 0.0410202
v 0.01418525 -9.776651e-10 0.0411341
v 0.01271529 0.009280829 0.0411341
v 0.01245059 0.009194846 0.0410202
v 0.008449361 0.01765322 0.04113406
v 0.008224189 0.01748959 0.0410202
v 0.001805006 0.02429754 0.04113406
v 0.001641406 0.02407237 0.0410202
v -0.006567356 0.02856347 0.0411341
v -0.00665337 0.02829878 0.0410202
v -0.01584819 0.03003343 0.0411341
v -0.01584819 0.02975509 0.0410202
v -0.02512902 0.02856347 0.0411341
v -0.025043 0.02829878 0.0410202
v -0.03350138 0.02429754 0.04113406
v -0.03333778 0.02407237 0.0410202
v -0.04014573 0.01765322 0.04113406
v -0.03992056 0.01748959 0.0410202
v -0.04441166 0.009280829 0.0411341
v -0.04414696 0.009194846 0.0410202
v -0.04588162 -9.776651e-10 0.0411341
v -0.04560328 -9.776651e-10 0.0410202
v -0.04441166 -0.009280831 0.0411341
v -0.04414696 -0.009194816 0.0410202
v -0.04014573 -0.01765319 0.04113406
v -0.03992056 -0.01748959 0.0410202
v -0.03350138 -0.02429755 0.04113406
v -0.03333778 -0.02407238 0.0410202
v -0.02512902 -0.02856348 0.0411341
v -0.025043 -0.02829878 0.0410202
v -0.01584819 -0.03003344 0.0411341
v -0.01584819 -0.02975509 0.0410202
v -0.006567356 -0.02856348 0.0411341
v -0.006653339 -0.02829878 0.0410202
v 0.001805037 -0.02429755 0.04113406
v 0.001641439 -0.02407238 0.0410202
v 0.008449361 -0.01765319 0.04113406
v 0.008224189 -0.01748959 0.0410202
v 0.01271533 -0.009280831 0.0411341
v 0.01245059 -0.009194816 0.0410202
v 0.01418525 -9.776651e-10 0.0411341
v 0.0139069 -9.776651e-10 0.0410202
v 0.01379159 -9.776651e-10 0.04074526
v 0.01367631 -9.776651e-10 0.04017284
v 0.01223128 -0.009123564 0.04017284
v 0.01234092 -0.009159191 0.04074526
v 0.01367631 -9.776651e-10 0.04017284
v 0.01379159 -9.776651e-10 0.04074526
v 0.01234092 0.009159189 0.04074526
v 0.01223128 0.009123562 0.04017284
v 0.01223128 0.009123562 0.04017284
v 0.01234092 0.009159189 0.04074526
v 0.008130889 0.01742182 0.04074526
v 0.008037627 0.01735407 0.04017284
v 0.01234092 -0.009159191 0.04074526
v 0.01223128 -0.009123564 0.04017284
v 0.008037657 -0.01735408 0.04017284
v 0.008130925 -0.01742182 0.04074526
v 0.008037627 0.01735407 0.04017284
v 0.008130889 0.01742182 0.04074526
v 0.001573632 0.02397911 0.04074526
v 0.001505889 0.02388584 0.04017284
v 0.001505889 0.02388584 0.04017284
v 0.001573632 0.02397911 0.04074526
v -0.006688996 0.0281891 0.04074526
v -0.006724623 0.02807947 0.04017284
v -0.006724623 0.02807947 0.04017284
v -0.006688996 0.0281891 0.04074526
v -0.01584819 0.02963977 0.04074526
v -0.01584819 0.0295245 0.04017284
v -0.01584819 0.0295245 0.04017284
v -0.01584819 0.02963977 0.04074526
v -0.02500737 0.0281891 0.04074526
v -0.02497175 0.02807947 0.04017284
v -0.02497175 0.02807947 0.04017284
v -0.02500737 0.0281891 0.04074526
v -0.03327 0.02397911 0.04074526
v -0.03320226 0.02388584 0.04017284
v -0.03320226 0.02388584 0.04017284
v -0.03327 0.02397911 0.04074526
v -0.03982726 0.01742182 0.04074526
v -0.039734 0.01735407 0.04017284
v -0.039734 0.01735407 0.04017284
v -0.03982726 0.01742182 0.04074526
v -0.04403729 0.009159189 0.04074526
v -0.04392765 0.009123562 0.04017284
v -0.04392765 0.009123562 0.04017284
v -0.04403729 0.009159189 0.04074526
v -0.04548796 -9.776651e-10 0.04074526
v -0.04537268 -9.776651e-10 0.04017284
v -0.04537268 -9.776651e-10 0.04017284
v -0.04548796 -9.776651e-10 0.04074526
v -0.04403729 -0.009159191 0.04074526
v -0.04392765 -0.009123564 0.04017284
v -0.04392765 -0.009123564 0.04017284
v -0.04403729 -0.009159191 0.04074526
v -0.03982726 -0.01742182 0.04074526
v -0.039734 -0.01735408 0.04017284
v -0.039734 -0.01735408 0.04017284
v -0.03982726 -0.01742182 0.04074526
v -0.03327 -0.02397908 0.04074526
v -0.03320226 -0.02388581 0.04017284
v -0.03320226 -0.02388581 0.04017284
v -0.03327 -0.02397908 0.04074526
v -0.02500737 -0.02818911 0.04074526
v -0.02497175 -0.02807947 0.04017284
v -0.02497175 -0.02807947 0.04017284
v -0.02500737 -0.02818911 0.04074526
v -0.01584819 -0.02963978 0.04074526
v -0.01584819 -0.0295245 0.04017284
v -0.01584819 -0.0295245 0.04017284
v -0.01584819 -0.02963978 0.04074526
v -0.006688996 -0.02818911 0.04074526
v -0.006724623 -0.02807947 0.04017284
v -0.006724623 -0.02807947 0.04017284
v -0.006688996 -0.02818911 0.04074526
v 0.001573663 -0.02397908 0.04074526
v 0.001505889 -0.02388581 0.04017284
v 0.001505889 -0.02388581 0.04017284
v 0.001573663 -0.02397908 0.04074526
v 0.008130925 -0.01742182 0.04074526
v 0.008037657 -0.01735408 0.04017284
v 0.0139069 -9.776651e-10 0.0410202
v 0.01245059 0.009194846 0.0410202
v 0.01245059 0.009194846 0.0410202
v 0.008224189 0.01748959 0.0410202
v 0.008224189 0.01748959 0.0410202
v 0.001641406 0.02407237 0.0410202
v 0.001641406 0.02407237 0.0410202
v -0.00665337 0.02829878 0.0410202
v -0.00665337 0.02829878 0.0410202
v -0.01584819 0.02975509 0.0410202
v -0.01584819 0.02975509 0.0410202
v -0.025043 0.02829878 0.0410202
v -0.025043 0.02829878 0.0410202
v -0.03333778 0.02407237 0.0410202
v -0.03333778 0.02407237 0.0410202
v -0.03992056 0.01748959 0.0410202
v -0.03992056 0.01748959 0.0410202
v -0.04414696 0.009194846 0.0410202
v -0.04414696 0.009194846 0.0410202
v -0.04560328 -9.776651e-10 0.0410202
v -0.04560328 -9.776651e-10 0.0410202
v -0.04414696 -0.009194816 0.0410202
v -0.04414696 -0.009194816 0.0410202
v -0.03992056 -0.01748959 0.0410202
v -0.03992056 -0.01748959 0.0410202
v -0.03333778 -0.02407238 0.0410202
v -0.03333778 -0.02407238 0.0410202
v -0.025043 -0.02829878 0.0410202
v -0.025043 -0.02829878 0.0410202
v -0.01584819 -0.02975509 0.0410202
v -0.01584819 -0.02975509 0.0410202
v -0.006653339 -0.02829878 0.0410202
v -0.006653339 -0.02829878 0.0410202
v 0.001641439 -0.02407238 0.0410202
v 0.001641439 -0.02407238 0.0410202
v 0.008224189 -0.01748959 0.0410202
v 0.008224189 -0.01748959 0.0410202
v 0.01245059 -0.009194816 0.0410202
v 0.0139069 -9.776651e-10 0.0410202
v 0.01245059 -0.009194816 0.0410202
v 0.01579303 -9.776651e-10 0.04160317
v 0.01478975 -9.776651e-10 0.04158697
v 0.01329469 -0.009469099 0.04158792
v 0.01424899 -0.00977917 0.04160533
v 0.01478975 -9.776651e-10 0.04158697
v 0.01579303 -9.776651e-10 0.04160317
v 0.01424896 0.009779168 0.04160536
v 0.01329472 0.009469097 0.04158795
v 0.009753983 0.01860106 0.04160536
v 0.008942258 0.01801132 0.04158795
v 0.002752872 0.02560217 0.04160536
v 0.002163135 0.02479044 0.04158795
v -0.006069017 0.03009714 0.04160536
v -0.006379087 0.02914291 0.04158795
v -0.01584819 0.031646 0.04160536
v -0.01584819 0.03064266 0.04158795
v -0.02562732 0.03009714 0.04160536
v -0.02531729 0.02914291 0.04158795
v -0.03444924 0.02560217 0.04160536
v -0.03385951 0.02479044 0.04158795
v -0.04145036 0.01860106 0.04160536
v -0.04063863 0.01801132 0.04158795
v -0.04594533 0.009779168 0.04160536
v -0.04499109 0.009469097 0.04158795
v -0.04749419 -9.776651e-10 0.04160536
v -0.04649085 -9.776651e-10 0.04158795
v -0.04594533 -0.009779138 0.04160536
v -0.04499109 -0.009469099 0.04158795
v -0.04145036 -0.01860106 0.04160536
v -0.04063863 -0.01801129 0.04158795
v -0.03444924 -0.02560217 0.04160536
v -0.03385951 -0.02479045 0.04158795
v -0.02562732 -0.03009715 0.04160536
v -0.02531729 -0.02914291 0.04158795
v -0.01584819 -0.031646 0.04160536
v -0.01584819 -0.03064266 0.04158795
v -0.006069017 -0.03009715 0.04160536
v -0.006379087 -0.02914291 0.04158795
v 0.002752872 -0.02560217 0.04160536
v 0.002163135 -0.02479045 0.04158795
v 0.009753983 -0.01860106 0.04160536
v 0.008942258 -0.01801132 0.04158795
v 0.01223128 0.009123593 -0.004588362
v 0.01223128 0.009123593 0.02525045
v 0.008037627 0.01735407 0.02525045
v 0.008037627 0.01735407 -0.004588362
v 0.01223128 0.009123593 0.02525045
v 0.01223128 0.009123593 -0.004588362
v 0.01367631 -9.776651e-10 -0.004588362
v 0.01367631 -9.776651e-10 0.02525045
v 0.01367631 -9.776651e-10 0.02525045
v 0.01367631 -9.776651e-10 -0.004588362
v 0.01223128 -0.009123564 -0.004588362
v 0.01223128 -0.009123564 0.02525045
v 0.01223128 -0.009123564 0.02525045
v 0.01223128 -0.009123564 -0.004588362
v 0.008037657 -0.01735408 -0.004588362
v 0.008037657 -0.01735408 0.02525045
v 0.008037657 -0.01735408 0.02525045
v 0.008037657 -0.01735408 -0.004588362
v 0.001505889 -0.02388581 -0.004588362
v 0.001505889 -0.02388581 0.02525045
v 0.001505889 -0.02388581 0.02525045
v 0.001505889 -0.02388581 -0.004588362
v -0.006724623 -0.02807947 -0.004588362
v -0.006724623 -0.02807947 0.02525045
v -0.006724623 -0.02807947 0.02525045
v -0.006724623 -0.02807947 -0.004588362
v -0.01584819 -0.0295245 -0.004588362
v -0.01584819 -0.0295245 0.02525045
v -0.01584819 -0.0295245 0.02525045
v -0.01584819 -0.0295245 -0.004588362
v -0.02497175 -0.02807947 -0.004588362
v -0.02497175 -0.02807947 0.02525045
v -0.02497175 -0.02807947 0.02525045
v -0.02497175 -0.02807947 -0.004588362
v -0.03320226 -0.02388581 -0.004588362
v -0.03320226 -0.02388581 0.02525045
v -0.03320226 -0.02388581 0.02525045
v -0.03320226 -0.02388581 -0.004588362
v -0.039734 -0.01735408 -0.004588362
v -0.039734 -0.01735408 0.02525045
v -0.039734 -0.01735408 0.02525045
v -0.039734 -0.01735408 -0.004588362
v -0.04392765 -0.009123564 -0.004588362
v -0.04392765 -0.009123564 0.02525045
v -0.04392765 -0.009123564 0.02525045
v -0.04392765 -0.009123564 -0.004588362
v -0.04537268 -9.776651e-10 -0.004588362
v -0.04537268 -9.776651e-10 0.02525045
v -0.04537268 -9.776651e-10 0.02525045
v -0.04537268 -9.776651e-10 -0.004588362
v -0.04392765 0.009123593 -0.004588362
v -0.04392765 0.009123593 0.02525045
v -0.04392765 0.009123593 0.02525045
v -0.04392765 0.009123593 -0.004588362
v -0.039734 0.01735407 -0.004588362
v -0.039734 0.01735407 0.02525045
v -0.039734 0.01735407 0.02525045
v -0.039734 0.01735407 -0.004588362
v -0.03320226 0.02388584 -0.004588362
v -0.03320226 0.02388584 0.02525045
v -0.03320226 0.02388584 0.02525045
v -0.03320226 0.02388584 -0.004588362
v -0.02497175 0.02807947 -0.004588362
v -0.02497175 0.02807947 0.02525045
v -0.02497175 0.02807947 0.02525045
v -0.02497175 0.02807947 -0.004588362
v -0.01584819 0.0295245 -0.004588362
v -0.01584819 0.0295245 0.02525045
v -0.01584819 0.0295245 0.02525045
v -0.01584819 0.0295245 -0.004588362
v -0.006724623 0.02807947 -0.004588362
v -0.006724623 0.02807947 0.02525045
v -0.006724623 0.02807947 0.02525045
v -0.006724623 0.02807947 -0.004588362
v 0.001505889 0.02388584 -0.004588362
v 0.001505889 0.02388584 0.02525045
v 0.001505889 0.02388584 0.02525045
v 0.001505889 0.02388584 -0.004588362
v 0.008037627 0.01735407 -0.004588362
v 0.008037627 0.01735407 0.02525045
v 0.01720035 1.770492e-06 -0.01533305
v 0.01768197 6.879274e-07 -0.01592397
v 0.01848467 3.598773e-07 -0.01643419
v 0.01848467 3.598773e-07 0.0178909
v 0.01768197 6.879274e-07 0.01738068
v 0.01720035 1.770492e-06 0.01678977
v 0.0166413 3.017082e-06 0.01613432
f 1 2 3
f 1 3 4
f 5 6 2
f 5 2 1
f 7 8 6
f 7 6 5
f 9 10 8
f 9 8 7
f 11 12 10
f 11 10 9
f 13 14 12
f 13 12 11
f 15 16 14
f 15 14 13
f 17 18 16
f 17 16 15
f 19 20 18
f 19 18 17
f 21 22 20
f 21 20 19
f 23 24 22
f 23 22 21
f 25 26 24
f 25 24 23
f 27 28 26
f 27 26 25
f 29 30 28
f 29 28 27
f 31 32 30
f 31 30 29
f 33 34 32
f 33 32 31
f 35 36 34
f 35 34 33
f 37 38 36
f 37 36 35
f 3 39 40
f 3 40 41
f 2 42 39
f 2 39 3
f 6 43 42
f 6 42 2
f 8 44 43
f 8 43 6
f 10 45 44
f 10 44 8
f 12 46 45
f 12 45 10
f 14 47 46
f 14 46 12
f 16 48 47
f 16 47 14
f 18 49 48
f 18 48 16
f 20 50 49
f 20 49 18
f 22 51 50
f 22 50 20
f 24 52 51
f 24 51 22
f 26 53 52
f 26 52 24
f 28 54 53
f 28 53 26
f 30 55 54
f 30 54 28
f 32 56 55
f 32 55 30
f 34 57 56
f 34 56 32
f 36 58 57
f 36 57 34
f 38 59 58
f 38 58 36
f 60 61 59
f 60 59 38
f 62 37 35
f 62 35 63
f 63 35 33
f 63 33 64
f 64 33 31
f 64 31 65
f 65 31 29
f 65 29 66
f 66 29 27
f 66 27 67
f 67 27 25
f 67 25 68
f 68 25 23
f 68 23 69
f 69 23 21
f 69 21 70
f 70 21 19
f 70 19 71
f 71 19 17
f 71 17 72
f 72 17 15
f 72 15 73
f 73 15 13
f 73 13 74
f 74 13 11
f 74 11 75
f 75 11 9
f 75 9 76
f 76 9 7
f 76 7 77
f 77 7 5
f 77 5 78
f 78 5 1
f 78 1 79
f 79 1 4
f 79 4 80
f 80 4 81
f 80 81 82
f 83 84 85
f 83 85 62
f 86 38 37
f 86 37 87
f 88 3 41
f 88 41 89
f 90 91 92
f 90 92 93
f 94 95 96
f 94 96 97
f 98 99 100
f 98 100 101
f 102 103 104
f 102 104 105
f 106 107 108
f 106 108 109
f 110 111 112
f 110 112 113
f 114 115 116
f 114 116 117
f 118 119 120
f 118 120 121
f 92 91 107
f 92 107 106
f 95 110 113
f 95 113 96
f 100 99 115
f 100 115 114
f 103 118 121
f 103 121 104
f 122 123 124
f 122 124 125
f 111 126 127
f 111 127 112
f 128 129 130
f 128 130 131
f 116 132 133
f 116 133 117
f 97 87 85
f 97 85 94
f 105 134 86
f 105 86 102
f 81 88 98
f 81 98 101
f 135 82 90
f 135 90 93
f 136 137 138
f 136 138 139
f 140 136 139
f 140 139 141
f 142 140 141
f 142 141 143
f 144 142 143
f 144 143 145
f 146 144 145
f 146 145 147
f 148 146 147
f 148 147 149
f 150 148 149
f 150 149 151
f 152 150 151
f 152 151 153
f 154 152 153
f 154 153 155
f 156 154 155
f 156 155 157
f 158 156 157
f 158 157 159
f 160 158 159
f 160 159 161
f 162 160 161
f 162 161 163
f 164 162 163
f 164 163 165
f 166 164 165
f 166 165 167
f 168 166 167
f 168 167 169
f 170 168 169
f 170 169 171
f 172 170 171
f 172 171 173
f 138 174 40
f 138 40 39
f 139 138 39
f 139 39 42
f 141 139 42
f 141 42 43
f 143 141 43
f 143 43 44
f 145 143 44
f 145 44 45
f 147 145 45
f 147 45 46
f 149 147 46
f 149 46 47
f 151 149 47
f 151 47 48
f 153 151 48
f 153 48 49
f 155 153 49
f 155 49 50
f 157 155 50
f 157 50 51
f 159 157 51
f 159 51 52
f 161 159 52
f 161 52 53
f 163 161 53
f 163 53 54
f 165 163 54
f 165 54 55
f 167 165 55
f 167 55 56
f 169 167 56
f 169 56 57
f 171 169 57
f 171 57 58
f 173 171 58
f 173 58 59
f 175 173 59
f 175 59 61
f 176 177 170
f 176 170 172
f 177 178 168
f 177 168 170
f 178 179 166
f 178 166 168
f 179 180 164
f 179 164 166
f 180 181 162
f 180 162 164
f 181 182 160
f 181 160 162
f 182 183 158
f 182 158 160
f 183 184 156
f 183 156 158
f 184 185 154
f 184 154 156
f 185 186 152
f 185 152 154
f 186 187 150
f 186 150 152
f 187 188 148
f 187 148 150
f 188 189 146
f 188 146 148
f 189 190 144
f 189 144 146
f 190 191 142
f 190 142 144
f 191 192 140
f 191 140 142
f 192 193 136
f 192 136 140
f 193 194 137
f 193 137 136
f 194 195 196
f 194 196 197
f 198 176 172
f 198 172 199
f 200 201 173
f 200 173 175
f 137 202 203
f 137 203 138
f 204 205 206
f 204 206 207
f 208 209 210
f 208 210 211
f 212 213 214
f 212 214 215
f 216 217 218
f 216 218 219
f 220 221 222
f 220 222 223
f 224 225 226
f 224 226 227
f 228 229 230
f 228 230 231
f 232 233 234
f 232 234 235
f 207 220 223
f 207 223 204
f 225 208 211
f 225 211 226
f 215 228 231
f 215 231 212
f 233 216 219
f 233 219 234
f 236 237 238
f 236 238 239
f 240 224 227
f 240 227 241
f 242 243 244
f 242 244 245
f 246 230 229
f 246 229 247
f 210 209 198
f 210 198 199
f 218 217 201
f 218 201 200
f 202 214 213
f 202 213 203
f 196 206 205
f 196 205 197
f 248 249 236
f 248 236 239
f 250 251 246
f 250 246 247
f 252 253 242
f 252 242 245
f 254 255 240
f 254 240 241
f 124 123 256
f 124 256 257
f 133 132 258
f 133 258 259
f 130 129 260
f 130 260 261
f 127 126 262
f 127 262 263
f 257 256 264
f 257 264 265
f 259 258 266
f 259 266 267
f 261 260 268
f 261 268 269
f 263 262 270
f 263 270 271
f 272 273 274
f 272 274 275
f 276 277 278
f 276 278 279
f 280 281 282
f 280 282 283
f 284 285 286
f 284 286 287
f 275 274 249
f 275 249 248
f 279 278 251
f 279 251 250
f 283 282 253
f 283 253 252
f 287 286 255
f 287 255 254
f 265 264 273
f 265 273 272
f 267 266 277
f 267 277 276
f 269 268 281
f 269 281 280
f 271 270 285
f 271 285 284
f 288 289 290
f 288 290 291
f 292 288 291
f 292 291 293
f 294 292 293
f 294 293 295
f 296 294 295
f 296 295 297
f 298 296 297
f 298 297 299
f 300 298 299
f 300 299 301
f 302 300 301
f 302 301 303
f 304 302 303
f 304 303 305
f 306 304 305
f 306 305 307
f 308 306 307
f 308 307 309
f 310 308 309
f 310 309 311
f 312 310 311
f 312 311 313
f 314 312 313
f 314 313 315
f 316 314 315
f 316 315 317
f 318 316 317
f 318 317 319
f 320 318 319
f 320 319 321
f 322 320 321
f 322 321 323
f 324 322 323
f 324 323 325
f 326 324 325
f 326 325 327
f 328 326 327
f 328 327 329
f 330 331 332
f 330 332 333
f 334 335 336
f 334 336 337
f 338 339 340
f 338 340 341
f 342 343 344
f 342 344 345
f 346 347 348
f 346 348 349
f 350 351 352
f 350 352 353
f 354 355 356
f 354 356 357
f 358 359 360
f 358 360 361
f 362 363 364
f 362 364 365
f 366 367 368
f 366 368 369
f 370 371 372
f 370 372 373
f 374 375 376
f 374 376 377
f 378 379 380
f 378 380 381
f 382 383 384
f 382 384 385
f 386 387 388
f 386 388 389
f 390 391 392
f 390 392 393
f 394 395 396
f 394 396 397
f 398 399 400
f 398 400 401
f 402 403 404
f 402 404 405
f 406 407 408
f 406 408 409
f 393 410 411
f 393 411 397
f 385 412 413
f 385 413 389
f 414 415 416
f 414 416 417
f 418 419 420
f 418 420 421
f 413 410 393
f 413 393 389
f 415 418 421
f 415 421 416
f 381 422 412
f 381 412 385
f 423 414 417
f 423 417 424
f 333 409 420
f 333 420 419
f 397 411 405
f 397 405 401
f 373 422 381
f 373 381 377
f 365 423 424
f 365 424 369
f 369 424 422
f 369 422 373
f 412 422 424
f 412 424 417
f 413 412 417
f 413 417 416
f 416 421 410
f 416 410 413
f 411 410 421
f 411 421 420
f 405 411 420
f 405 420 409
f 357 423 365
f 357 365 361
f 353 414 423
f 353 423 357
f 349 415 414
f 349 414 353
f 345 418 415
f 345 415 349
f 341 419 418
f 341 418 345
f 333 419 341
f 333 341 337
f 425 426 427
f 425 427 428
f 429 430 431
f 429 431 432
f 430 433 434
f 430 434 431
f 433 435 436
f 433 436 434
f 435 437 438
f 435 438 436
f 437 439 427
f 437 427 438
f 439 440 428
f 439 428 427
f 440 441 425
f 440 425 428
f 441 442 443
f 441 443 425
f 442 444 445
f 442 445 443
f 444 446 447
f 444 447 445
f 446 448 449
f 446 449 447
f 448 450 451
f 448 451 449
f 450 452 453
f 450 453 451
f 452 454 455
f 452 455 453
f 454 456 457
f 454 457 455
f 456 458 459
f 456 459 457
f 458 460 461
f 458 461 459
f 460 462 463
f 460 463 461
f 462 464 465
f 462 465 463
f 464 429 432
f 464 432 465
f 447 466 467
f 447 467 445
f 465 468 469
f 465 469 463
f 436 470 431
f 436 431 434
f 467 471 443
f 467 443 445
f 432 472 468
f 432 468 465
f 449 473 466
f 449 466 447
f 463 469 474
f 463 474 461
f 453 473 449
f 453 449 451
f 461 474 457
f 461 457 459
f 443 471 426
f 443 426 425
f 432 431 470
f 432 470 472
f 475 470 436
f 475 436 438
f 472 470 475
f 472 475 476
f 468 472 476
f 468 476 477
f 469 468 477
f 469 477 478
f 474 469 478
f 474 478 479
f 457 474 479
f 457 479 455
f 455 479 473
f 455 473 453
f 466 473 479
f 466 479 478
f 467 466 478
f 467 478 477
f 477 476 471
f 477 471 467
f 426 471 476
f 426 476 475
f 427 426 475
f 427 475 438
f 480 481 430
f 480 430 429
f 481 482 433
f 481 433 430
f 482 483 435
f 482 435 433
f 483 484 437
f 483 437 435
f 484 485 439
f 484 439 437
f 485 486 440
f 485 440 439
f 486 487 441
f 486 441 440
f 487 488 442
f 487 442 441
f 488 489 444
f 488 444 442
f 489 490 446
f 489 446 444
f 490 491 448
f 490 448 446
f 491 492 450
f 491 450 448
f 492 493 452
f 492 452 450
f 493 494 454
f 493 454 452
f 494 495 456
f 494 456 454
f 495 496 458
f 495 458 456
f 496 497 460
f 496 460 458
f 497 498 462
f 497 462 460
f 498 499 464
f 498 464 462
f 499 480 429
f 499 429 464
f 500 501 502
f 500 502 503
f 504 499 498
f 504 498 502
f 499 504 505
f 499 505 480
f 504 506 507
f 504 507 508
f 480 505 509
f 480 509 481
f 505 510 511
f 505 511 512
f 481 509 513
f 481 513 482
f 509 514 515
f 509 515 516
f 482 513 517
f 482 517 483
f 513 518 519
f 513 519 520
f 483 517 521
f 483 521 484
f 517 522 523
f 517 523 524
f 484 521 525
f 484 525 485
f 521 526 527
f 521 527 528
f 485 525 529
f 485 529 486
f 525 530 531
f 525 531 532
f 486 529 533
f 486 533 487
f 529 534 535
f 529 535 536
f 487 533 537
f 487 537 488
f 533 538 539
f 533 539 540
f 488 537 541
f 488 541 489
f 537 542 543
f 537 543 544
f 489 541 545
f 489 545 490
f 541 546 547
f 541 547 548
f 490 545 549
f 490 549 491
f 545 550 551
f 545 551 552
f 491 549 553
f 491 553 492
f 549 554 555
f 549 555 556
f 492 553 557
f 492 557 493
f 553 558 559
f 553 559 560
f 493 557 561
f 493 561 494
f 557 562 563
f 557 563 564
f 494 561 565
f 494 565 495
f 561 566 567
f 561 567 568
f 495 565 569
f 495 569 496
f 565 570 571
f 565 571 572
f 496 569 573
f 496 573 497
f 569 574 575
f 569 575 576
f 497 573 502
f 497 502 498
f 573 577 578
f 573 578 579
f 580 581 582
f 580 582 583
f 584 585 586
f 584 586 587
f 587 586 588
f 587 588 589
f 583 582 590
f 583 590 591
f 589 588 592
f 589 592 593
f 593 592 594
f 593 594 595
f 595 594 596
f 595 596 597
f 597 596 598
f 597 598 599
f 599 598 600
f 599 600 601
f 601 600 602
f 601 602 603
f 603 602 604
f 603 604 605
f 605 604 606
f 605 606 607
f 607 606 608
f 607 608 609
f 609 608 610
f 609 610 611
f 611 610 612
f 611 612 613
f 613 612 614
f 613 614 615
f 615 614 616
f 615 616 617
f 617 616 618
f 617 618 619
f 619 618 620
f 619 620 621
f 621 620 591
f 621 591 590
f 581 83 62
f 581 62 582
f 582 62 63
f 582 63 590
f 590 63 64
f 590 64 621
f 621 64 65
f 621 65 619
f 619 65 66
f 619 66 617
f 617 66 67
f 617 67 615
f 615 67 68
f 615 68 613
f 613 68 69
f 613 69 611
f 611 69 70
f 611 70 609
f 609 70 71
f 609 71 607
f 607 71 72
f 607 72 605
f 605 72 73
f 605 73 603
f 603 73 74
f 603 74 601
f 601 74 75
f 601 75 599
f 599 75 76
f 599 76 597
f 597 76 77
f 597 77 595
f 595 77 78
f 595 78 593
f 593 78 79
f 593 79 589
f 589 79 80
f 589 80 587
f 587 80 622
f 587 622 584
f 623 624 289
f 623 289 288
f 625 626 326
f 625 326 328
f 626 627 324
f 626 324 326
f 627 628 322
f 627 322 324
f 628 629 320
f 628 320 322
f 629 630 318
f 629 318 320
f 630 631 316
f 630 316 318
f 631 632 314
f 631 314 316
f 632 633 312
f 632 312 314
f 633 634 310
f 633 310 312
f 634 635 308
f 634 308 310
f 635 636 306
f 635 306 308
f 636 637 304
f 636 304 306
f 637 638 302
f 637 302 304
f 638 639 300
f 638 300 302
f 639 640 298
f 639 298 300
f 640 641 296
f 640 296 298
f 641 642 294
f 641 294 296
f 642 643 292
f 642 292 294
f 643 623 288
f 643 288 292
f 585 644 645
f 585 645 586
f 646 580 583
f 646 583 647
f 586 645 648
f 586 648 588
f 588 648 649
f 588 649 592
f 592 649 650
f 592 650 594
f 594 650 651
f 594 651 596
f 596 651 652
f 596 652 598
f 598 652 653
f 598 653 600
f 600 653 654
f 600 654 602
f 602 654 655
f 602 655 604
f 604 655 656
f 604 656 606
f 606 656 657
f 606 657 608
f 608 657 658
f 608 658 610
f 610 658 659
f 610 659 612
f 612 659 660
f 612 660 614
f 614 660 661
f 614 661 616
f 616 661 662
f 616 662 618
f 618 662 663
f 618 663 620
f 620 663 664
f 620 664 591
f 591 664 647
f 591 647 583
f 625 665 666
f 625 666 626
f 665 646 647
f 665 647 666
f 644 667 668
f 644 668 645
f 667 624 623
f 667 623 668
f 626 666 669
f 626 669 627
f 666 647 664
f 666 664 669
f 645 668 670
f 645 670 648
f 668 623 643
f 668 643 670
f 648 670 671
f 648 671 649
f 670 643 642
f 670 642 671
f 649 671 672
f 649 672 650
f 671 642 641
f 671 641 672
f 650 672 673
f 650 673 651
f 672 641 640
f 672 640 673
f 651 673 674
f 651 674 652
f 673 640 639
f 673 639 674
f 652 674 675
f 652 675 653
f 674 639 638
f 674 638 675
f 653 675 676
f 653 676 654
f 675 638 637
f 675 637 676
f 654 676 677
f 654 677 655
f 676 637 636
f 676 636 677
f 655 677 678
f 655 678 656
f 677 636 635
f 677 635 678
f 656 678 679
f 656 679 657
f 678 635 634
f 678 634 679
f 657 679 680
f 657 680 658
f 679 634 633
f 679 633 680
f 658 680 681
f 658 681 659
f 680 633 632
f 680 632 681
f 659 681 682
f 659 682 660
f 681 632 631
f 681 631 682
f 660 682 683
f 660 683 661
f 682 631 630
f 682 630 683
f 661 683 684
f 661 684 662
f 683 630 629
f 683 629 684
f 662 684 685
f 662 685 663
f 684 629 628
f 684 628 685
f 663 685 669
f 663 669 664
f 685 628 627
f 685 627 669
f 94 85 84
f 94 84 686
f 687 95 94
f 687 94 686
f 688 110 95
f 688 95 687
f 125 111 110
f 125 110 688
f 125 124 126
f 125 126 111
f 262 126 124
f 262 124 257
f 270 262 257
f 270 257 265
f 285 270 265
f 285 265 272
f 286 285 272
f 286 272 275
f 255 286 275
f 255 275 248
f 240 255 248
f 240 248 239
f 238 224 240
f 238 240 239
f 238 689 225
f 238 225 224
f 689 690 208
f 689 208 225
f 690 691 209
f 690 209 208
f 198 209 691
f 198 691 692
f 90 82 81
f 90 81 101
f 101 693 91
f 101 91 90
f 107 91 693
f 107 693 694
f 108 107 694
f 108 694 695
f 117 133 123
f 117 123 122
f 256 123 133
f 256 133 259
f 264 256 259
f 264 259 267
f 273 264 267
f 273 267 276
f 274 273 276
f 274 276 279
f 249 274 279
f 249 279 250
f 236 249 250
f 236 250 247
f 229 237 236
f 229 236 247
f 223 222 696
f 223 696 697
f 204 223 697
f 204 697 698
f 214 205 204
f 214 204 698
f 197 205 214
f 197 214 202
f 699 176 198
f 699 198 692
f 194 197 202
f 194 202 137
f 62 85 87
f 62 87 37
f 80 82 135
f 80 135 622
f 700 701 702
f 700 702 703
f 704 705 706
f 704 706 707
f 703 702 708
f 703 708 709
f 707 706 710
f 707 710 711
f 709 708 712
f 709 712 713
f 713 712 714
f 713 714 715
f 715 714 716
f 715 716 717
f 717 716 718
f 717 718 719
f 719 718 720
f 719 720 721
f 721 720 722
f 721 722 723
f 723 722 724
f 723 724 725
f 725 724 726
f 725 726 727
f 727 726 728
f 727 728 729
f 729 728 730
f 729 730 731
f 731 730 732
f 731 732 733
f 733 732 734
f 733 734 735
f 735 734 736
f 735 736 737
f 737 736 738
f 737 738 739
f 739 738 740
f 739 740 741
f 741 740 711
f 741 711 710
f 742 700 703
f 742 703 743
f 705 744 745
f 705 745 706
f 743 703 709
f 743 709 746
f 746 709 713
f 746 713 747
f 747 713 715
f 747 715 748
f 748 715 717
f 748 717 749
f 749 717 719
f 749 719 750
f 750 719 721
f 750 721 751
f 751 721 723
f 751 723 752
f 752 723 725
f 752 725 753
f 753 725 727
f 753 727 754
f 754 727 729
f 754 729 755
f 755 729 731
f 755 731 756
f 756 731 733
f 756 733 757
f 757 733 735
f 757 735 758
f 758 735 737
f 758 737 759
f 759 737 739
f 759 739 760
f 760 739 741
f 760 741 761
f 761 741 710
f 761 710 762
f 762 710 706
f 762 706 745
f 704 707 176
f 704 176 699
f 707 711 177
f 707 177 176
f 711 740 178
f 711 178 177
f 740 738 179
f 740 179 178
f 738 736 180
f 738 180 179
f 736 734 181
f 736 181 180
f 734 732 182
f 734 182 181
f 732 730 183
f 732 183 182
f 730 728 184
f 730 184 183
f 728 726 185
f 728 185 184
f 726 724 186
f 726 186 185
f 724 722 187
f 724 187 186
f 722 720 188
f 722 188 187
f 720 718 189
f 720 189 188
f 718 716 190
f 718 190 189
f 716 714 191
f 716 191 190
f 714 712 192
f 714 192 191
f 712 708 193
f 712 193 192
f 708 702 194
f 708 194 193
f 702 701 195
f 702 195 194
f 763 764 765
f 763 765 766
f 766 765 767
f 766 767 768
f 768 767 769
f 768 769 770
f 770 769 771
f 770 771 772
f 772 771 773
f 772 773 774
f 774 773 775
f 774 775 776
f 776 775 777
f 776 777 778
f 778 777 779
f 778 779 780
f 780 779 781
f 780 781 782
f 782 781 783
f 782 783 784
f 784 783 785
f 784 785 786
f 786 785 787
f 786 787 788
f 788 787 789
f 788 789 790
f 790 789 791
f 790 791 792
f 792 791 793
f 792 793 794
f 794 793 795
f 794 795 796
f 796 795 797
f 796 797 798
f 798 797 799
f 798 799 800
f 800 799 801
f 800 801 802
f 803 804 802
f 803 802 801
f 805 806 807
f 805 807 808
f 809 810 811
f 809 811 812
f 813 814 815
f 813 815 816
f 817 818 819
f 817 819 820
f 821 822 823
f 821 823 824
f 825 826 827
f 825 827 828
f 829 830 831
f 829 831 832
f 833 834 835
f 833 835 836
f 837 838 839
f 837 839 840
f 841 842 843
f 841 843 844
f 845 846 847
f 845 847 848
f 849 850 851
f 849 851 852
f 853 854 855
f 853 855 856
f 857 858 859
f 857 859 860
f 861 862 863
f 861 863 864
f 865 866 867
f 865 867 868
f 869 870 871
f 869 871 872
f 873 874 875
f 873 875 876
f 877 878 879
f 877 879 880
f 881 882 883
f 881 883 884
f 810 885 886
f 810 886 811
f 814 887 888
f 814 888 815
f 822 889 890
f 822 890 823
f 826 891 892
f 826 892 827
f 830 893 894
f 830 894 831
f 834 895 896
f 834 896 835
f 838 897 898
f 838 898 839
f 842 899 900
f 842 900 843
f 846 901 902
f 846 902 847
f 850 903 904
f 850 904 851
f 854 905 906
f 854 906 855
f 858 907 908
f 858 908 859
f 862 909 910
f 862 910 863
f 866 911 912
f 866 912 867
f 870 913 914
f 870 914 871
f 874 915 916
f 874 916 875
f 878 917 918
f 878 918 879
f 882 919 920
f 882 920 883
f 820 921 922
f 820 922 817
f 923 805 808
f 923 808 924
f 925 926 927
f 925 927 928
f 929 930 931
f 929 931 932
f 932 931 933
f 932 933 934
f 934 933 935
f 934 935 936
f 936 935 937
f 936 937 938
f 938 937 939
f 938 939 940
f 940 939 941
f 940 941 942
f 942 941 943
f 942 943 944
f 944 943 945
f 944 945 946
f 946 945 947
f 946 947 948
f 948 947 949
f 948 949 950
f 950 949 951
f 950 951 952
f 952 951 953
f 952 953 954
f 954 953 955
f 954 955 956
f 956 955 957
f 956 957 958
f 958 957 959
f 958 959 960
f 960 959 961
f 960 961 962
f 962 961 963
f 962 963 964
f 964 963 965
f 964 965 966
f 966 965 928
f 966 928 927
f 765 764 929
f 765 929 932
f 767 765 932
f 767 932 934
f 769 767 934
f 769 934 936
f 771 769 936
f 771 936 938
f 773 771 938
f 773 938 940
f 775 773 940
f 775 940 942
f 777 775 942
f 777 942 944
f 779 777 944
f 779 944 946
f 781 779 946
f 781 946 948
f 783 781 948
f 783 948 950
f 785 783 950
f 785 950 952
f 787 785 952
f 787 952 954
f 789 787 954
f 789 954 956
f 791 789 956
f 791 956 958
f 793 791 958
f 793 958 960
f 795 793 960
f 795 960 962
f 797 795 962
f 797 962 964
f 799 797 964
f 799 964 966
f 801 799 966
f 801 966 927
f 803 801 927
f 803 927 926
f 931 930 742
f 931 742 743
f 933 931 743
f 933 743 746
f 935 933 746
f 935 746 747
f 937 935 747
f 937 747 748
f 939 937 748
f 939 748 749
f 941 939 749
f 941 749 750
f 943 941 750
f 943 750 751
f 945 943 751
f 945 751 752
f 947 945 752
f 947 752 753
f 949 947 753
f 949 753 754
f 951 949 754
f 951 754 755
f 953 951 755
f 953 755 756
f 955 953 756
f 955 756 757
f 957 955 757
f 957 757 758
f 959 957 758
f 959 758 759
f 961 959 759
f 961 759 760
f 963 961 760
f 963 760 761
f 965 963 761
f 965 761 762
f 928 965 762
f 928 762 745
f 925 928 745
f 925 745 744
f 967 968 969
f 967 969 970
f 971 972 973
f 971 973 974
f 975 976 977
f 975 977 978
f 979 980 981
f 979 981 982
f 983 984 985
f 983 985 986
f 987 988 989
f 987 989 990
f 991 992 993
f 991 993 994
f 995 996 997
f 995 997 998
f 999 1000 1001
f 999 1001 1002
f 1003 1004 1005
f 1003 1005 1006
f 1007 1008 1009
f 1007 1009 1010
f 1011 1012 1013
f 1011 1013 1014
f 1015 1016 1017
f 1015 1017 1018
f 1019 1020 1021
f 1019 1021 1022
f 1023 1024 1025
f 1023 1025 1026
f 1027 1028 1029
f 1027 1029 1030
f 1031 1032 1033
f 1031 1033 1034
f 1035 1036 1037
f 1035 1037 1038
f 1039 1040 1041
f 1039 1041 1042
f 1043 1044 1045
f 1043 1045 1046
f 809 812 971
f 809 971 974
f 813 816 969
f 813 969 968
f 821 824 1043
f 821 1043 1046
f 825 828 1039
f 825 1039 1042
f 829 832 1035
f 829 1035 1038
f 833 836 1031
f 833 1031 1034
f 837 840 1027
f 837 1027 1030
f 841 844 1023
f 841 1023 1026
f 845 848 1019
f 845 1019 1022
f 849 852 1015
f 849 1015 1018
f 853 856 1011
f 853 1011 1014
f 857 860 1007
f 857 1007 1010
f 861 864 1003
f 861 1003 1006
f 865 868 999
f 865 999 1002
f 869 872 995
f 869 995 998
f 873 876 991
f 873 991 994
f 877 880 987
f 877 987 990
f 881 884 983
f 881 983 986
f 819 818 979
f 819 979 982
f 807 806 975
f 807 975 978
f 973 972 507
f 973 507 506
f 977 976 500
f 977 500 503
f 981 980 578
f 981 578 577
f 985 984 575
f 985 575 574
f 989 988 571
f 989 571 570
f 993 992 567
f 993 567 566
f 997 996 563
f 997 563 562
f 1001 1000 559
f 1001 559 558
f 1005 1004 555
f 1005 555 554
f 1009 1008 551
f 1009 551 550
f 1013 1012 547
f 1013 547 546
f 1017 1016 543
f 1017 543 542
f 1021 1020 539
f 1021 539 538
f 1025 1024 535
f 1025 535 534
f 1029 1028 531
f 1029 531 530
f 1033 1032 527
f 1033 527 526
f 1037 1036 523
f 1037 523 522
f 1041 1040 519
f 1041 519 518
f 1045 1044 515
f 1045 515 514
f 967 970 511
f 967 511 510
f 98 88 89
f 98 89 1047
f 1047 1048 99
f 1047 99 98
f 115 99 1048
f 115 1048 1049
f 116 115 1049
f 116 1049 131
f 131 130 132
f 131 132 116
f 258 132 130
f 258 130 261
f 266 258 261
f 266 261 269
f 277 266 269
f 277 269 280
f 278 277 280
f 278 280 283
f 251 278 283
f 251 283 252
f 246 251 252
f 246 252 245
f 244 230 246
f 244 246 245
f 231 230 244
f 231 244 1050
f 212 231 1050
f 212 1050 1051
f 1052 213 212
f 1052 212 1051
f 203 213 1052
f 203 1052 1053
f 102 86 87
f 102 87 97
f 96 103 102
f 96 102 97
f 113 118 103
f 113 103 96
f 112 119 118
f 112 118 113
f 112 127 129
f 112 129 128
f 260 129 127
f 260 127 263
f 268 260 263
f 268 263 271
f 281 268 271
f 281 271 284
f 282 281 284
f 282 284 287
f 253 282 287
f 253 287 254
f 242 253 254
f 242 254 241
f 227 243 242
f 227 242 241
f 227 226 233
f 227 233 232
f 226 211 216
f 226 216 233
f 211 210 217
f 211 217 216
f 201 217 210
f 201 210 199
f 4 3 88
f 4 88 81
f 134 60 38
f 134 38 86
f 138 203 1053
f 138 1053 174
f 173 201 199
f 173 199 172
