v 0.05276027 -0.0607819 -0.003947737
v 0.03133765 -0.06084102 0.02557388
v 0.05481759 -0.06083286 -0.03062883
v 0.04855189 0.01276439 0.05096281
v -0.05360714 -0.06084096 -0.006454827
v 0.0008207858 -0.06083769 0.03467041
v -0.02728257 -0.06083649 0.02798176
v 0.05393657 0.06012791 0.05267414
v 0.02892998 0.06084102 0.07468694
v 0.02608886 0.05683565 0.02891698
v -0.004703194 0.0563345 0.04122579
v -0.04629889 -0.06081104 0.009521781
v -0.02229294 -0.06084102 -0.07208186
v -0.02643064 0.02171177 -0.02216745
v -0.03778777 0.01534551 -0.007156851
v -0.05481759 -0.0323379 -0.02466321
v -0.05359027 -0.03624165 -0.01080269
v -0.04581973 -0.003461242 -0.03866082
v -0.03295866 0.002687395 -0.04882625
v -0.04971179 -0.02637821 -0.04382712
v -0.03858736 -0.02560574 -0.0590117
v -0.04419264 -0.06082332 -0.05389863
v -0.02588949 -0.04118568 -0.06908211
v 0.05420741 0.02292746 0.03642705
v 0.02324608 0.00410378 0.06202993
v 0.01226333 0.04894376 0.07516471
v 0.02441147 0.01931238 -0.03943416
v 0.008283049 0.02255368 -0.03834867
v 0.01018623 0.00848645 -0.0567525
v 0.02604458 -0.002444565 -0.06160617
v 0.05162123 -0.01749003 -0.02958805
v 0.04709056 -0.03945583 -0.04895052
v 0.04322729 0.002496719 -0.04178086
v 0.04031143 -0.06070685 -0.05880448
v -0.00205484 0.05410361 0.06875527
v -0.04680261 -0.02519959 0.006387083
v -0.01534447 0.02058923 -0.03562978
v -0.05341819 -0.06083697 -0.03571215
v -0.04726347 0.002406478 -0.0106982
v 0.02331248 -0.0304687 -0.07041591
v 0.02567551 -0.06083226 -0.06925261
v 0.01063183 -0.0608319 -0.07516471
v -0.0007243454 -0.01275432 -0.07196781
v 0.006238967 0.004580617 0.06348538
v 0.04245546 0.04826021 0.02040338
v 0.05136487 0.04920214 0.03145164
v 0.03419927 -0.02356815 -0.06221288
v -0.009021789 0.0125457 0.05775523
v -0.01457015 0.04263616 0.04802871
v 0.01021722 -0.02804565 -0.0742195
v -0.01174214 0.001388609 -0.06237903
v -0.0244284 -0.01447207 -0.06600049
v 0.03943291 0.01306748 -0.03466243
v 0.006101519 0.0253672 0.07023048
v -0.005282253 -0.03403974 -0.07493812
f 1 2 3
f 2 1 4
f 5 6 7
f 6 5 2
f 8 9 4
f 9 10 11
f 9 8 10
f 12 5 7
f 5 13 2
f 2 13 3
f 14 15 11
f 16 5 17
f 18 14 19
f 14 18 15
f 16 18 20
f 21 18 19
f 18 21 20
f 20 21 22
f 21 13 22
f 13 21 23
f 24 8 4
f 1 24 4
f 8 24 3
f 24 1 3
f 25 2 4
f 25 6 2
f 9 25 4
f 25 9 26
f 27 28 10
f 29 27 30
f 27 29 28
f 31 8 3
f 31 32 33
f 34 32 3
f 32 31 3
f 35 9 11
f 9 35 26
f 5 36 17
f 12 36 5
f 35 36 12
f 14 37 19
f 37 14 11
f 10 37 11
f 28 37 10
f 16 38 5
f 13 38 22
f 38 13 5
f 38 20 22
f 38 16 20
f 18 39 15
f 39 18 16
f 39 16 17
f 36 39 17
f 40 41 42
f 41 40 34
f 41 34 3
f 13 41 3
f 41 13 42
f 43 29 30
f 25 44 6
f 6 44 7
f 8 45 10
f 45 27 10
f 31 46 8
f 46 31 33
f 46 45 8
f 40 47 34
f 47 32 34
f 47 40 30
f 33 47 30
f 32 47 33
f 48 12 7
f 48 35 12
f 49 36 35
f 49 39 36
f 49 35 11
f 15 49 11
f 39 49 15
f 50 40 42
f 40 50 30
f 50 43 30
f 43 51 29
f 37 51 19
f 29 51 28
f 51 37 28
f 21 52 23
f 52 51 43
f 52 21 19
f 51 52 19
f 45 53 27
f 46 53 45
f 53 46 33
f 53 33 30
f 27 53 30
f 44 54 7
f 54 48 7
f 54 25 26
f 54 44 25
f 35 54 26
f 48 54 35
f 13 55 42
f 55 50 42
f 50 55 43
f 55 13 23
f 52 55 23
f 55 52 43
