v 0.002871484 -0.00281404 2.637389e-06
v 0.001858383 -0.003281757 -0.003886566
v 7.4476e-05 0.005409792 -0.003924295
v -0.002871424 0.005652919 0.005980268
v -0.002871484 0.005649671 -0.005980268
v -0.002871454 -0.005651101 0.003999755
v 7.429719e-05 0.005412623 0.003925815
v -0.002869636 -0.005652919 -0.003994897
v 0.001197726 0.005319551 1.177075e-06
v -0.0008058846 -0.004506186 0.005938038
v -0.0008054078 -0.004508302 -0.005932644
v 0.001857191 -0.003280118 0.003891721
f 1 2 3
f 4 5 6
f 2 5 3
f 7 5 4
f 5 8 6
f 8 1 6
f 8 2 1
f 9 1 3
f 9 7 1
f 5 9 3
f 7 9 5
f 10 4 6
f 11 5 2
f 8 11 2
f 11 8 5
f 7 12 1
f 1 12 6
f 12 10 6
f 12 7 4
f 10 12 4
