v 0.01474598 0.007608622 -0.04434386
v -0.01227538 0.01963796 -0.03496408
v 0.001496106 0.02134995 -0.03947088
v -0.005620807 0.01932141 -0.009028316
v 0.01474592 0.01655369 0.04277563
v 0.01474598 -0.02134997 -0.01696798
v 0.006746754 -0.01888774 -0.04261398
v 0.009624094 -0.01959875 -0.01687527
v 0.01183233 -0.00276199 0.04255253
v 0.005877927 -0.01713598 -0.01411203
v 0.006269619 -0.01915565 -0.02635106
v 0.01339264 0.007367283 0.04319474
v 0.008058652 0.0170584 -0.04179645
v 0.0117294 0.01749888 0.04329333
v 0.01025636 0.007342145 0.04342684
v -0.01217848 0.0005704165 -0.03566095
v 0.006663114 -0.02016184 -0.04165313
v 0.006962284 -0.02076153 -0.04021302
v 0.006664604 -0.01923588 -0.04252285
v 0.01025544 -0.02122566 -0.03017005
v 0.01117863 0.007319704 0.04416704
v 0.01069207 0.007326156 0.04392648
v 0.01472777 0.01657958 0.04307279
v -0.001775026 -0.0163319 -0.03719157
v -0.001453519 -0.01467231 -0.03974777
v -0.00797157 -0.007958978 -0.0373528
v -0.01366091 0.01007932 -0.03483772
v -0.01474598 0.009969011 -0.03197348
v 0.006641611 -0.0195321 -0.04230899
v 0.01215249 0.01740363 0.0437924
v 0.01410374 0.0168207 0.04388669
v -0.001895651 -0.01578104 -0.03867573
v -0.008700535 -0.009197563 -0.03464517
v -0.01462406 0.01002768 -0.03355491
v 0.01272844 0.007333487 0.04401141
v 0.01320216 0.0171136 0.04421401
v -0.001737475 -0.01522778 -0.03938586
v -0.001047716 -0.01000178 -0.0115667
v -0.01307763 0.0001127124 -0.03441384
v -0.01420827 0.0100596 -0.03436884
v 0.01178166 0.007316247 0.04434386
v 0.01262249 0.01727779 0.0440354
v -0.001631051 -0.01497099 -0.0396252
v -0.01269443 0.0003443658 -0.0352104
v -0.01317014 -0.0001350343 -0.03284749
v -0.01248123 0.0004507303 -0.03548938
v -0.01398183 0.01007155 -0.03465706
f 1 2 3
f 2 4 3
f 1 5 6
f 7 1 6
f 8 6 9
f 10 8 9
f 8 10 11
f 6 12 9
f 13 1 3
f 13 5 1
f 4 14 3
f 15 14 4
f 1 16 2
f 7 16 1
f 17 7 6
f 18 17 6
f 7 17 19
f 8 20 6
f 20 18 6
f 20 8 11
f 18 20 11
f 21 22 9
f 22 15 9
f 22 14 15
f 5 23 6
f 23 12 6
f 23 13 3
f 13 23 5
f 24 18 11
f 10 24 11
f 24 17 18
f 25 26 7
f 26 16 7
f 16 27 2
f 28 15 4
f 28 4 2
f 17 29 19
f 22 30 14
f 14 30 3
f 23 31 12
f 31 23 3
f 24 32 17
f 32 29 17
f 33 32 24
f 32 33 26
f 34 28 2
f 31 35 12
f 12 35 9
f 36 31 3
f 32 37 29
f 29 37 19
f 37 32 26
f 38 10 9
f 38 24 10
f 38 33 24
f 33 39 26
f 34 39 28
f 40 34 2
f 41 21 9
f 35 41 9
f 41 35 31
f 36 41 31
f 42 22 21
f 42 30 22
f 41 42 21
f 42 41 36
f 30 42 3
f 42 36 3
f 37 43 19
f 43 7 19
f 43 25 7
f 43 26 25
f 43 37 26
f 39 44 26
f 44 39 34
f 40 44 34
f 45 39 33
f 45 38 9
f 38 45 33
f 39 45 28
f 15 45 9
f 28 45 15
f 26 46 16
f 44 46 26
f 47 44 40
f 47 46 44
f 27 47 2
f 47 40 2
f 47 27 16
f 46 47 16
