v -0.0005418733 0.004793599 0.03861696
v -0.0005417988 -0.004625246 -0.03740919
v -0.0005418211 -0.004793599 0.03861821
v 0.0003263205 -0.00465475 0.03803772
v 0.0003268048 0.004654795 0.03803712
v -6.15865e-05 0.004533641 -0.03861821
v -0.0005415976 0.004612356 -0.03741008
v -6.236881e-05 -0.004546121 -0.03861752
v 0.0004359484 0.004636668 0.03776032
v 0.0005415753 0.00461825 0.03718618
v 0.0005418658 -0.004618242 0.0371865
v 0.0004365295 -0.004636198 0.03776115
f 1 2 3
f 2 4 3
f 5 1 3
f 4 5 3
f 1 5 6
f 7 1 6
f 7 2 1
f 2 8 4
f 8 7 6
f 7 8 2
f 9 10 6
f 5 9 6
f 8 11 4
f 10 11 6
f 11 8 6
f 11 12 4
f 12 5 4
f 12 9 5
f 9 12 10
f 12 11 10
