v -0.0005353689 -0.004793361 0.02309346
v -0.0005353987 0.004793361 0.02309543
v -0.0005352795 -0.004610561 -0.02309543
v -0.0005351305 0.004626498 -0.02309439
v 0.0005353987 0.004618965 0.02165455
v 0.0005348027 -0.004618473 0.02165344
v 0.0004349351 0.004637122 0.02222905
v 0.0003270358 0.004655018 0.02250683
v 0.0003277659 -0.004654549 0.0225051
v 0.000434652 -0.004636496 0.02222827
f 1 2 3
f 2 4 3
f 4 5 3
f 6 1 3
f 5 6 3
f 7 4 2
f 8 7 2
f 7 5 4
f 9 7 8
f 6 9 1
f 1 9 2
f 9 8 2
f 10 9 6
f 9 10 7
f 10 6 5
f 7 10 5
