v -0.003334895 -8.047246e-07 -0.007527828
v -0.003334939 -0.003992707 0.007527798
v -0.00333485 0.003994584 0.007526428
v -0.00229127 -0.003997594 -0.007007629
v -0.0003961399 -0.005928993 0.006624401
v -0.0001663268 -0.005934983 -0.005977541
v 0.002369635 -0.003889591 -0.004505217
v -0.0001655221 0.005934983 -0.005978465
v -0.0003964156 0.00593102 0.006623089
v 0.00197649 0.003800184 0.006323308
v 0.002369493 0.003888726 -0.004506946
v 0.002961218 8.344032e-07 0.006198466
v -0.002291076 0.003997117 -0.007007867
v 0.001976572 -0.003798336 0.006323874
v 0.003334939 2.979614e-07 -0.003946185
f 1 2 3
f 2 1 4
f 5 6 7
f 6 2 4
f 2 6 5
f 1 6 4
f 6 1 8
f 9 8 3
f 10 9 3
f 11 6 8
f 9 11 8
f 11 9 10
f 12 11 10
f 12 10 3
f 2 12 3
f 8 13 3
f 13 1 3
f 1 13 8
f 14 5 7
f 12 14 7
f 14 2 5
f 14 12 2
f 15 12 7
f 12 15 11
f 6 15 7
f 11 15 6
