v 0.01794979 -0.002329618 0.05023512
v 0.01941949 -0.02012026 0.03788495
v 0.02326372 0.005273789 0.0458113
v 0.01776844 -0.01142566 -0.05120781
v -0.005984753 0.03051738 0.01582229
v 0.009362847 -0.0173007 -0.0516254
v 0.009744972 -0.01775581 -0.05191597
v 0.02216783 0.006070718 0.04663929
v -0.02300856 -0.0194753 0.03827506
v 0.002666771 -0.02489343 -0.04993534
v -0.01588407 -0.0287219 0.0249645
v -0.006951869 -0.01240923 -0.03196549
v 0.01229459 -0.01087344 0.0511951
v 0.01137888 -0.009779841 0.05189323
v 0.003889412 -0.01674843 0.05077754
v 0.001721919 -0.02957812 0.03498212
v 0.01101372 -0.02599519 0.03746651
v -0.005402684 -0.02033089 0.04829358
v 0.0112935 -0.01933084 -0.05019808
v -0.01421621 0.03008837 0.008549482
v 0.02135405 0.006437212 0.04681279
v 0.004794419 -0.0262453 -0.04962924
v -0.007546186 -0.03051752 0.03067458
v -0.01467061 -0.02127016 0.04398519
v 0.00521946 -0.0262177 -0.04866534
v 0.004062593 -0.02594948 -0.05024856
v 0.0105224 -0.01862553 -0.05187896
v -0.01508185 -0.01998207 0.04481895
v -0.02316812 -0.01736724 0.0395274
v -0.0232636 -0.01822096 0.03921537
v 0.01077431 -0.009096265 0.05194926
v 0.002692372 -0.01474541 0.05154847
v 0.0110496 -0.0191527 -0.05120736
v -0.02262163 0.02421281 0.008131579
v -0.01463598 0.03041449 0.01004528
v 0.02100709 0.006557554 0.04681772
v 0.0206646 0.006611109 0.04669356
v 0.01690561 -0.001598209 0.050291
v 0.01721272 -0.001797497 0.05032471
v 0.01661083 -0.001452401 0.05012617
v -0.006346047 -0.01749772 0.04898527
v -0.02255175 0.02442299 0.01118922
v -0.02291471 -0.01669264 0.03955728
v -0.01464081 0.02995202 0.01158169
v -0.02308357 -0.01701711 0.03959957
v -0.02271488 0.02457859 0.01089838
v -0.006320387 -0.01783249 0.04913726
v 0.002526611 -0.01442099 0.0515026
v -0.006241202 -0.01818952 0.04915951
v -0.01514488 -0.01872684 0.04503542
v 0.003100395 -0.0252896 -0.05023921
v -0.005987316 -0.01906043 0.04904526
v 0.003130615 -0.01554495 0.05148306
v -0.0147149 0.03028527 0.01094672
v -0.02279612 0.02463776 0.01054558
v -0.02288401 0.02464953 0.009636104
v 0.0103085 -0.008596987 0.05171628
v -0.01506859 -0.01838255 0.04493088
v -0.01515201 -0.01909348 0.0450172
v 0.003538936 -0.02560601 -0.05029267
v -0.01471224 0.03017233 0.01129593
v 0.002398729 -0.01412621 0.05132288
v 0.01053002 -0.008826882 0.05190051
v 0.01010403 -0.01816234 -0.05194938
f 1 2 3
f 4 5 3
f 2 4 3
f 6 4 7
f 5 8 3
f 8 1 3
f 9 10 11
f 10 9 12
f 6 10 12
f 13 1 14
f 13 2 1
f 15 16 17
f 16 15 18
f 2 15 17
f 13 15 2
f 15 13 14
f 19 4 2
f 20 4 6
f 4 20 5
f 21 8 5
f 8 21 1
f 22 23 11
f 16 23 22
f 23 9 11
f 23 24 9
f 23 16 18
f 24 23 18
f 16 25 17
f 25 16 22
f 25 2 17
f 19 25 22
f 25 19 2
f 26 22 11
f 26 27 22
f 28 24 18
f 28 29 30
f 24 28 9
f 28 30 9
f 1 31 14
f 31 32 14
f 33 27 4
f 19 33 4
f 27 33 22
f 33 19 22
f 34 20 6
f 34 6 12
f 9 34 12
f 20 35 5
f 36 5 37
f 36 21 5
f 38 36 37
f 21 39 1
f 39 31 1
f 39 36 38
f 36 39 21
f 5 40 37
f 40 38 37
f 41 42 43
f 44 42 5
f 42 40 5
f 45 42 46
f 43 42 45
f 41 47 48
f 47 32 48
f 32 47 49
f 50 47 41
f 47 50 49
f 10 51 11
f 51 6 7
f 51 10 6
f 52 32 49
f 52 28 18
f 28 52 49
f 53 15 14
f 32 53 14
f 52 53 32
f 15 53 18
f 53 52 18
f 35 54 5
f 55 54 35
f 29 55 30
f 55 45 46
f 55 29 45
f 34 56 20
f 56 35 20
f 56 55 35
f 55 56 30
f 30 56 9
f 56 34 9
f 57 42 41
f 42 57 40
f 58 41 43
f 58 50 41
f 58 43 45
f 50 58 45
f 59 28 49
f 50 59 49
f 28 59 29
f 29 59 45
f 59 50 45
f 60 26 11
f 51 60 11
f 26 60 27
f 42 61 46
f 61 42 44
f 61 55 46
f 55 61 54
f 61 44 5
f 54 61 5
f 62 41 48
f 57 62 48
f 62 57 41
f 63 57 48
f 32 63 48
f 63 32 31
f 63 39 38
f 39 63 31
f 40 63 38
f 57 63 40
f 60 64 27
f 4 64 7
f 27 64 4
f 64 51 7
f 64 60 51
