v 0.0006125867 -0.005935036 0.005589873
v -0.001696587 -0.003889426 0.003783196
v 0.002575248 -0.005932477 -0.006859958
v -0.001697123 0.00388898 0.003781229
v -0.002575368 -8.146162e-08 0.003094167
v 0.0006124377 0.005935035 0.005587518
v -0.0008087158 -1.949273e-06 -0.00690186
v 0.0001839697 0.003796191 -0.006890893
v 0.002575248 -0.003996384 0.00690186
v 0.002575368 0.003998253 0.006900311
v 0.002575368 0.005927461 -0.006862104
v 0.0001838207 -0.003801345 -0.006889105
f 1 2 3
f 2 4 5
f 4 1 6
f 4 2 1
f 7 8 3
f 7 2 5
f 7 4 8
f 4 7 5
f 9 1 3
f 10 9 3
f 1 9 6
f 9 10 6
f 8 11 3
f 11 10 3
f 10 11 6
f 11 4 6
f 4 11 8
f 2 12 3
f 12 7 3
f 7 12 2
