v -0.0005421578 0.004793704 -0.03861645
v 0.0003272314 -0.004654869 -0.03803849
v -0.0005421415 -0.004793704 -0.038618
v -0.000540534 0.004604131 0.03741077
v -6.023003e-05 -0.004554123 0.03861672
v 0.0005411985 0.004618257 -0.03718564
v -6.167032e-05 0.004525438 0.03861797
v -0.0005403389 -0.004633188 0.03740883
v 0.0003262134 0.004655167 -0.03803623
v 0.0005421583 -0.004618466 -0.03718695
v 0.000436177 0.004636496 -0.03775957
v 0.0004363474 -0.004636496 -0.03776243
f 1 2 3
f 4 1 3
f 5 6 7
f 8 4 3
f 2 8 3
f 5 8 2
f 8 5 7
f 4 8 7
f 9 2 1
f 6 9 7
f 9 4 7
f 4 9 1
f 10 5 2
f 10 6 5
f 9 11 2
f 11 9 6
f 10 11 6
f 12 10 2
f 11 12 2
f 12 11 10
