v -0.1164225 -0.2024673 -0.272549
v 0.1171946 -0.2024613 -0.2725472
v -0.1164254 -0.2024673 0.2725538
v 0.1171902 -0.2024613 0.2725556
v -0.1164227 -0.1868929 -0.2725489
v 0.1171921 -0.1868869 -0.2725472
v -0.1164284 -0.186893 0.2725538
v 0.11719 -0.1868869 0.2725556
vt 0.00144196 0.180289
vt 0.00144196 0.821818
vt 0.998571 0.180293
vt 0.998571 0.180293
vt 0.00144196 0.821818
vt 0.99857 0.821817
vt 0.714374 -0.0559724
vt 0.28703 -0.055989
vt 0.28703 -0.0132207
vt 0.714374 -0.0559724
vt 0.28703 -0.0132207
vt 0.714369 -0.0132041
vt 0.287032 -0.055989
vt 0.714373 -0.0559724
vt 0.287027 -0.0132209
vt 0.287027 -0.0132209
vt 0.714373 -0.0559724
vt 0.714373 -0.0132041
vt 0.99857 0.180285
vt 0.998571 0.821816
vt 0.00144199 0.180289
vt 0.00144199 0.180289
vt 0.998571 0.821816
vt 0.00144196 0.821811
vt 0.129648 1.24845
vt 0.129648 -0.248435
vt 0.158137 1.24845
vt 0.158137 1.24845
vt 0.129648 -0.248435
vt 0.158137 -0.248435
vt 0.129637 -0.248435
vt 0.129637 1.24845
vt 0.158126 1.24845
vt 0.129637 -0.248435
vt 0.158126 1.24845
vt 0.158126 -0.248435
f 1/1 2/2 3/3
f 3/4 2/5 4/6
f 2/7 1/8 5/9
f 2/10 5/11 6/12
f 3/13 4/14 7/15
f 7/16 4/17 8/18
f 7/19 8/20 5/21
f 5/22 8/23 6/24
f 4/25 2/26 8/27
f 8/28 2/29 6/30
f 1/31 3/32 7/33
f 1/34 7/35 5/36
