v -0.04722142 -0.01622605 -0.01066351
v -0.04800016 -4.434586e-05 0.05634695
v -0.04689157 0.0281986 -0.03904933
v -0.01211166 -0.04077482 -0.04541034
v -0.03130776 -0.04141247 -0.02597451
v -0.00563097 -0.05353475 0.05634844
v 0.02959824 -0.04299808 0.05634904
v -0.04197001 -0.02924562 0.05634892
v 0.016783 -0.05045384 0.05634809
v -0.04121602 0.02078462 0.05634683
v 0.004097462 0.04287237 0.05634862
v -0.003756404 0.05353481 -0.0270108
v -0.02036238 0.03865212 0.05634302
v 0.03537267 0.02721435 0.05634272
v 0.04514885 0.01109004 0.05634385
v 0.04800022 -0.009477317 0.05634469
v 0.04594123 0.007974744 -0.01965266
v 0.04777867 -0.01128906 -0.01703918
v 0.04090202 -0.03078735 0.05634582
v -0.04049766 -0.03138775 -0.01885933
v -0.04737365 -0.01453912 0.05634761
v -0.008238077 -0.04915994 -0.03300977
v -0.02911723 -0.04410291 0.05634815
v 0.04172248 0.002182722 -0.03686827
v 0.0426172 -0.01523918 -0.03478295
v -0.01392615 0.05192733 -0.03854889
v -0.02496618 0.0474925 -0.04095042
v -0.03963977 0.0374707 -0.04115319
v 0.02308464 0.03671968 0.05634367
v 0.03193951 0.03044999 -0.02026302
v -0.01778114 -0.05021793 -0.01983744
v 0.04053688 0.01962566 -0.02254504
v 0.04206634 -0.02763939 -0.02345055
v 0.002335012 -0.03999507 -0.04872453
v 0.01578867 -0.05048472 -0.02147973
v 0.0264529 -0.04204828 -0.03194666
v 0.03081989 -0.004417658 -0.05106288
v 0.02652931 0.01855165 -0.04723954
v 0.001154721 -0.05342722 -0.01909745
v 0.03454381 0.02229351 -0.03492773
v 0.03138995 -0.04196358 -0.01505089
v 0.0003644824 0.008639336 -0.05634904
v 0.01667875 0.01440525 -0.05343062
v 0.01896799 -0.01300961 -0.05626351
v -0.01914239 0.006494522 -0.05371588
v 0.03221571 -0.02338201 -0.04508442
f 1 2 3
f 4 5 3
f 6 7 8
f 7 6 9
f 2 10 3
f 10 2 8
f 11 12 13
f 10 11 13
f 14 11 15
f 7 11 8
f 11 10 8
f 16 17 15
f 17 16 18
f 11 16 15
f 16 11 7
f 16 19 18
f 19 16 7
f 1 20 8
f 5 20 3
f 20 1 3
f 2 21 8
f 21 1 8
f 1 21 2
f 4 22 5
f 23 6 8
f 20 23 8
f 23 20 5
f 24 17 18
f 25 24 18
f 12 26 13
f 26 27 13
f 28 10 13
f 27 28 13
f 10 28 3
f 29 11 14
f 11 29 12
f 30 29 14
f 29 30 12
f 22 31 5
f 31 23 5
f 23 31 6
f 32 30 14
f 32 14 15
f 17 32 15
f 24 32 17
f 19 33 18
f 33 25 18
f 34 22 4
f 22 34 35
f 34 36 35
f 37 24 25
f 24 37 38
f 39 22 35
f 39 31 22
f 31 39 6
f 9 39 35
f 6 39 9
f 40 24 38
f 40 32 24
f 32 40 30
f 30 40 12
f 26 40 38
f 40 26 12
f 41 19 7
f 41 33 19
f 33 41 36
f 36 41 35
f 41 9 35
f 41 7 9
f 42 43 44
f 37 43 38
f 43 37 44
f 43 26 38
f 26 43 27
f 43 42 27
f 45 28 27
f 42 45 27
f 28 45 3
f 45 4 3
f 45 34 4
f 45 42 44
f 34 45 44
f 46 37 25
f 37 46 44
f 33 46 25
f 46 33 36
f 34 46 36
f 46 34 44
