v -0.001759872 -0.007837474 -0.01327315
v 0.0008653253 -0.008521378 -0.01290381
v -0.003631696 -0.00848645 0.01224899
v -0.002767697 -0.008247554 0.0116742
v 0.001055822 0.006294549 0.01303345
v -0.001664326 0.006100833 0.01171833
v -0.003446504 0.007375479 -0.006946862
v -0.003452048 0.008521378 -0.0115433
v -0.0005849153 0.007082462 0.01343158
v 0.003641561 0.0064345 -0.005019367
v 0.002927825 0.006943941 -0.01248968
v -0.002736762 -0.003860116 -0.01245904
v 0.00333114 0.001187623 -0.01247498
v -0.003641561 0.006767154 -0.01343155
v -0.002185151 -0.005845606 -0.01331902
f 1 2 3
f 4 5 3
f 2 4 3
f 4 2 5
f 6 7 3
f 7 6 8
f 6 9 8
f 10 9 5
f 5 9 3
f 9 6 3
f 9 11 8
f 9 10 11
f 12 1 3
f 11 13 2
f 10 13 11
f 2 13 5
f 13 10 5
f 11 14 8
f 14 12 3
f 14 11 2
f 7 14 3
f 14 7 8
f 12 15 1
f 14 15 12
f 1 15 2
f 15 14 2
