v -0.0009195209 -0.007784784 0.01271462
v 0.0009078681 -0.007767141 0.01268506
v 0.0009195507 0.001365542 0.01285154
v 0.0009194911 -0.007771373 -0.01284873
v 0.0009195209 0.007726908 -0.01285142
v 7.688999e-06 0.007726908 -0.01285151
v 8.404255e-06 -0.007771552 -0.01284724
v -4.857779e-06 0.001348317 0.01268286
v -3.248453e-06 0.007731676 0.007208139
v 0.0009150207 0.007784724 0.007258356
v -0.0009163022 -0.005031228 0.01176888
f 1 2 3
f 2 4 3
f 4 2 1
f 5 4 6
f 4 5 3
f 4 7 6
f 7 4 1
f 8 1 3
f 9 8 3
f 10 9 3
f 5 10 3
f 9 10 6
f 10 5 6
f 8 11 1
f 11 8 9
f 11 9 6
f 7 11 6
f 11 7 1
