v 0.0004689693 -0.003188074 -0.004581809
v 0.0002419949 0.003815472 -0.004584044
v 0.0004681349 0.003749132 0.004113853
v -0.0004619062 0.004361331 0.0007725656
v -0.0004192591 -0.0002646446 0.004584014
v -7.814169e-05 -0.004361391 0.002237856
v -0.0004102588 0.001922011 0.004554451
v 5.00679e-05 0.003208578 -0.003408611
v -0.000107199 -0.003553689 -0.0001362562
v -0.0004689693 0.002296746 0.003178507
v 0.000113517 -0.002591074 -0.003065944
v -0.0003829896 -0.0021469 0.002397805
v 0.0001703799 0.0001288652 -0.00428614
f 1 2 3
f 2 4 3
f 5 6 3
f 6 1 3
f 7 5 3
f 4 7 3
f 8 4 2
f 6 9 1
f 7 10 5
f 10 7 4
f 9 11 1
f 10 12 5
f 12 10 4
f 12 6 5
f 12 9 6
f 11 12 4
f 12 11 9
f 1 13 2
f 11 13 1
f 13 8 2
f 8 13 4
f 13 11 4
