v -0.003636777 -0.003748462 0.01354069
v -0.004670396 -0.002042115 0.01364934
v -0.004758447 -0.00204207 0.008475684
v -0.003729388 -0.003748506 0.008093767
v -0.005019322 0 0.01371609
v -0.005104154 -2.980232e-08 0.008724503
v -0.005341858 -7.450581e-08 0.003613763
v -0.00502108 -0.002150223 0.003183268
v -0.004003197 -0.003906906 0.002476968
v 0.003859147 0.003748536 0.01341315
v 0.004896075 0.00204201 0.01348657
v 0.004808053 0.002041996 0.008312963
v 0.003766522 0.003748477 0.007966213
v 0.005247012 0 0.01354138
v 0.005162075 -2.980232e-08 0.008549832
v 0.005230471 0 0.00343392
v 0.004893631 0.002150044 0.003014587
v 0.003850028 0.003906935 0.002343349
v -0.003636718 0.003748477 0.01354077
v -0.001930997 0.004783884 0.01348128
v -0.002025187 0.004783943 0.007943295
v -0.003729388 0.003748432 0.008093722
v 0.0001107305 0.005133867 0.01344653
v 1.654029e-05 0.005133852 0.00790856
v -8.501112e-05 0.005165324 0.00194139
v -0.002233043 0.004876971 0.002080493
v -0.004003242 0.003906846 0.002476983
v 0.003859207 -0.003748506 0.01341321
v 0.002152458 -0.004783958 0.01341181
v 0.002058223 -0.004783928 0.0078739
v 0.003766567 -0.003748521 0.007966228
v 0.0001107454 -0.005133927 0.01344653
v 1.652539e-05 -0.005133912 0.00790856
v -8.502603e-05 -0.005165353 0.001941361
v 0.002066523 -0.004877016 0.002007253
v 0.003849909 -0.00390698 0.002343334
v -0.005577326 -0.002474517 0.0009190068
v -0.004580885 -0.004382193 -3.173202e-05
v -0.00583151 4.470348e-08 0.00140921
v -0.006428257 -5.960464e-08 0.0005659088
v -0.006259263 -0.002714202 7.715076e-05
v -0.005599439 -0.005234465 -0.00120119
v 0.005382016 0.002474517 0.0007325634
v 0.004344344 0.004382208 -0.0001835302
v 0.005659252 -1.490116e-08 0.001213737
v 0.006310448 -2.980232e-08 0.0003612861
v 0.006116956 0.002714202 -0.0001213923
v 0.005372345 0.005234435 -0.001380153
v -0.002608612 0.005156189 -0.0009235516
v -0.004580855 0.004382148 -3.176183e-05
v -0.0001413673 0.005259663 -0.001375742
v -0.0001710206 0.005455941 -0.003114425
v -0.003010049 0.005581647 -0.002416275
v -0.005599424 0.00523442 -0.001201235
v 0.002339765 -0.005156189 -0.001007758
v 0.004344329 -0.004382178 -0.0001835749
v -0.0001414716 -0.005259752 -0.001375727
v -0.0001710802 -0.005455971 -0.003114454
v 0.002690256 -0.005581692 -0.002513252
v 0.005372316 -0.00523439 -0.001380198
v -0.007312492 -0.003949076 -0.002670012
v -0.007439271 -0.002376199 -0.002057739
v -0.007822439 -0.002477199 -0.003149949
v -0.007607907 -0.004560158 -0.003775425
v -0.007473007 1.490116e-08 -0.001553528
v -0.007851005 -4.470348e-08 -0.00259421
v -0.008030698 4.470348e-08 -0.004069798
v -0.008035302 -0.002669796 -0.004592381
v -0.007891536 -0.004940122 -0.005247809
v 0.007445246 0.003948972 -0.002910458
v 0.007621571 0.002376109 -0.002374195
v 0.007921264 0.002477109 -0.003899686
v 0.007744357 0.004560247 -0.004096963
v 0.007643148 -2.980232e-08 -0.001943327
v 0.007876948 -2.980232e-08 -0.003632627
v 0.007905811 -2.980232e-08 -0.005528994
v 0.008017883 0.002669752 -0.005625509
v 0.007960945 0.004940137 -0.005647309
v -0.003295884 0.006113648 -0.003745265
v -0.005788803 0.006369829 -0.003091224
v -0.0001919866 0.005792871 -0.004346572
v -0.0002142042 0.006041497 -0.005652003
v -0.003528908 0.006522313 -0.005285583
v -0.006161854 0.006975487 -0.004906885
v 0.002930656 -0.006113723 -0.003851317
v 0.005523086 -0.006369844 -0.003271721
v -0.0001919568 -0.005792871 -0.004346631
v -0.0002141297 -0.006041512 -0.005652077
v 0.003111154 -0.006522343 -0.005398564
v 0.005834162 -0.006975487 -0.005098931
v -0.008182168 -0.004925832 -0.009191923
v -0.007944852 -0.002657369 -0.009135865
v -0.007710829 -0.002318501 -0.0112514
v -0.007806569 -0.004294008 -0.01109322
v -0.007703453 4.470348e-08 -0.009148173
v -0.00755465 1.490116e-08 -0.01147448
v -0.007302091 -2.980232e-08 -0.0134177
v -0.007326841 -0.002064541 -0.01305065
v -0.007364124 -0.00355725 -0.01249342
v 0.008182168 0.004925743 -0.009406082
v 0.00803259 0.002657399 -0.00939133
v 0.007752165 0.002318442 -0.01137515
v 0.0077485 0.004293978 -0.01126287
v 0.007795572 -1.490116e-08 -0.009435438
v 0.007605746 5.960464e-08 -0.01157155
v 0.007169574 -4.470348e-08 -0.01356351
v 0.007202461 0.002064496 -0.01320299
v 0.007192656 0.003557235 -0.01266149
v -0.006660745 0.006916463 -0.009644054
v -0.003856823 0.006215394 -0.009752564
v -0.003615543 0.005371779 -0.01193417
v -0.006228641 0.006004155 -0.0119696
v -0.0002848506 0.005564407 -0.009805478
v -0.000319168 0.004792541 -0.01182096
v -0.0003448576 0.003597558 -0.01333217
v -0.003314689 0.004022792 -0.01364511
v -0.005704001 0.004486501 -0.01389154
v 0.006171614 -0.006916478 -0.009850316
v 0.003286973 -0.006215423 -0.009873994
v 0.002971634 -0.005371839 -0.01204617
v 0.005660772 -0.00600417 -0.01215986
v -0.0002848357 -0.005564421 -0.009805553
v -0.0003191382 -0.004792616 -0.01182089
v -0.0003448576 -0.003597587 -0.01333224
v 0.00261268 -0.004022792 -0.01374596
v 0.005070925 -0.004486516 -0.01406284
v -0.003220394 0.0021438 -0.01457348
v -0.005541831 0.002388492 -0.01513443
v -0.0003564358 0.001919582 -0.01401492
v -0.0003586859 -1.490116e-08 -0.01414917
v -0.003224954 0 -0.01484206
v -0.005551249 -7.450581e-08 -0.01558609
v -0.004670411 0.002041966 0.01364934
v -0.004758418 0.002041996 0.008475654
v -0.005021051 0.002150103 0.003183194
v 0.004896089 -0.002042085 0.01348663
v 0.004808038 -0.00204207 0.008312918
v 0.004893631 -0.002150178 0.003014542
v -0.005577371 0.002474517 0.0009189919
v -0.006259263 0.002714157 7.721037e-05
v 0.005382091 -0.002474546 0.0007325932
v 0.006117031 -0.002714187 -0.0001213625
v -0.007439315 0.002376094 -0.002057649
v -0.007822469 0.002477124 -0.003149964
v -0.007312432 0.003948987 -0.002669998
v -0.007607862 0.004560202 -0.003775321
v -0.007891521 0.004940063 -0.005247809
v -0.008035362 0.002669707 -0.004592352
v 0.007621527 -0.002376124 -0.002374299
v 0.007921264 -0.002477229 -0.003899686
v 0.007445246 -0.003949001 -0.002910413
v 0.007744282 -0.004560187 -0.004096933
v 0.007960871 -0.004940167 -0.005647324
v 0.008017883 -0.002669752 -0.005625539
v -0.007944822 0.002657413 -0.00913585
v -0.007710859 0.002318516 -0.01125137
v -0.008182138 0.004925713 -0.009191923
v -0.007806554 0.004293978 -0.01109318
v -0.007364064 0.00355725 -0.0124935
v -0.007326886 0.002064526 -0.01305074
v 0.00803259 -0.002657488 -0.00939133
v 0.00775212 -0.002318516 -0.01137518
v 0.008182153 -0.004925787 -0.009406127
v 0.007748425 -0.004293978 -0.01126298
v 0.007192567 -0.003557295 -0.01266148
v 0.007202446 -0.002064496 -0.01320285
v 0.004860714 0 -0.01575116
v 0.004866615 -0.002388388 -0.01529951
v 0.002486944 -0.002143845 -0.01467056
v 0.00248234 -5.960464e-08 -0.01493915
v -0.0003564954 -0.001919553 -0.01401495
v 0.0001107305 0.005133867 0.01344653
v 0.002152488 0.004783854 0.0134119
v 0.002058253 0.004783913 0.007873856
v 1.654029e-05 0.005133852 0.00790856
v 0.002066597 0.004876941 0.002007343
v -8.501112e-05 0.005165324 0.00194139
v -0.001930952 -0.004783943 0.01348122
v -0.002025247 -0.004783958 0.00794334
v -0.002233043 -0.004877001 0.002080478
v 0.002339751 0.005156144 -0.001007713
v -0.0001413673 0.005259663 -0.001375742
v 0.002690226 0.005581632 -0.002513178
v -0.0001710206 0.005455941 -0.003114425
v -0.002608582 -0.005156189 -0.0009235665
v -0.00301002 -0.005581737 -0.00241629
v 0.002930745 0.006113678 -0.003851183
v -0.0001919866 0.005792871 -0.004346572
v 0.00552313 0.006369859 -0.003271692
v 0.005834222 0.006975397 -0.005098946
v 0.003111199 0.006522328 -0.005398549
v -0.0002142042 0.006041497 -0.005652003
v -0.003295928 -0.006113723 -0.00374537
v -0.005788818 -0.006369829 -0.003091253
v -0.006161883 -0.006975427 -0.004906885
v -0.003528908 -0.006522357 -0.005285598
v -0.0002848506 0.005564407 -0.009805478
v 0.003286868 0.006215379 -0.009874053
v 0.002971604 0.005371839 -0.01204618
v -0.000319168 0.004792541 -0.01182096
v 0.006171629 0.006916463 -0.009850316
v 0.005660743 0.00600414 -0.0121598
v 0.00507094 0.004486531 -0.01406287
v 0.00261265 0.004022747 -0.0137459
v -0.0003448576 0.003597558 -0.01333217
v -0.003856763 -0.006215394 -0.009752549
v -0.003615528 -0.005371854 -0.01193412
v -0.006660745 -0.006916523 -0.009644084
v -0.00622867 -0.006004125 -0.01196953
v -0.005704015 -0.004486546 -0.01389159
v -0.003314659 -0.004022658 -0.01364513
v 0.002486944 0.002143756 -0.01467062
v -0.0003564358 0.001919582 -0.01401492
v 0.004866526 0.002388403 -0.01529942
v -0.003220439 -0.00214383 -0.01457351
v -0.005541742 -0.002388462 -0.01513449
v -0.0079218 -1.490116e-08 -0.006467186
v -0.008064628 -0.00275217 -0.006751917
v -0.008146673 -0.005101666 -0.007148333
v 0.007887095 -1.490116e-08 -0.007442363
v 0.008088022 0.00275217 -0.007465474
v 0.008179963 0.005101547 -0.007475652
v -0.0002475083 0.005973041 -0.007610507
v -0.003771916 0.006577492 -0.007412218
v -0.006545544 0.007198974 -0.007190503
v -0.0002474785 -0.005973086 -0.007610492
v 0.003281623 -0.006577581 -0.007532217
v 0.006139904 -0.007198945 -0.007394262
v -0.008146748 0.005101532 -0.007148318
v -0.008064583 0.002752185 -0.006751977
v 0.008179963 -0.005101576 -0.007475637
v 0.008088082 -0.0027522 -0.007465519
v 0.006139919 0.00719893 -0.007394277
v 0.003281653 0.006577477 -0.007532202
v -0.0002475083 0.005973041 -0.007610507
v -0.006545484 -0.007198974 -0.007190473
v -0.003771916 -0.006577522 -0.007412188
v -0.006899059 0.00256823 -0.0009485707
v -0.00698711 -2.980232e-08 -0.0004609153
v -0.006855801 0.004674003 -0.002056099
v -0.007078037 0.005854845 -0.003428541
v -0.00744155 0.006411716 -0.005123474
v -0.007822067 0.006645381 -0.007198475
v -0.007928297 0.006416053 -0.009409256
v -0.007469058 0.005583674 -0.01151098
v -0.006920114 0.004177064 -0.01327843
v -0.006757125 0.002224892 -0.01448596
v -0.006772295 1.490116e-08 -0.01494979
v -0.00675717 -0.002224967 -0.01448592
v -0.006920099 -0.004177019 -0.0132784
v -0.007469103 -0.005583733 -0.01151099
v -0.007928357 -0.006416023 -0.009409197
v -0.007822096 -0.006645426 -0.00719852
v -0.007441536 -0.006411731 -0.005123459
v -0.007078007 -0.005854905 -0.003428526
v -0.006855875 -0.004674017 -0.002056174
v -0.006899044 -0.002568364 -0.0009485409
v 0.006941795 -0.002568349 -0.001135893
v 0.007046312 0 -0.0006515905
v 0.006860882 -0.004674003 -0.00224144
v 0.007036299 -0.00585483 -0.003620572
v 0.007341921 -0.006411716 -0.00532677
v 0.007651567 -0.006645396 -0.007413752
v 0.007682592 -0.006416023 -0.009626739
v 0.00715211 -0.005583718 -0.01171159
v 0.006543338 -0.004177123 -0.01345935
v 0.006339505 -0.002224922 -0.0146606
v 0.00633879 5.960464e-08 -0.01512472
v 0.00633949 0.002224877 -0.0146606
v 0.006543323 0.004177034 -0.01345933
v 0.007152185 0.005583644 -0.01171159
v 0.007682592 0.006416067 -0.009626724
v 0.007651582 0.006645441 -0.007413708
v 0.007341862 0.006411701 -0.00532677
v 0.007036284 0.005854875 -0.003620572
v 0.006860897 0.004674047 -0.002241381
v 0.006941721 0.002568245 -0.001135878
v -0.004637957 -0.0020421 0.01555737
v -0.004987791 -7.450581e-08 0.01556335
v -0.003602728 -0.003748477 0.01553973
v -0.003034487 -0.003182963 0.01568294
v -0.003438696 -0.001531512 0.01574335
v -0.004259408 4.470348e-08 0.0157038
v 0.004928514 0.002041996 0.01539456
v 0.005278409 -5.960464e-08 0.01538865
v 0.003893182 0.003748477 0.0154122
v 0.00333029 0.003182843 0.0155747
v 0.003736228 0.001531467 0.01562131
v 0.004555151 0 0.01555388
v -0.001896486 0.004783899 0.0155107
v 0.0001452416 0.005133867 0.01547595
v -0.003602713 0.003748506 0.0155397
v -0.003034502 0.003182814 0.01568297
v -0.00138253 0.003587902 0.01570844
v 0.0001478195 0.004407898 0.01562882
v 0.002187043 -0.004783943 0.01544128
v 0.0001452863 -0.005133942 0.015476
v 0.003893271 -0.003748551 0.01541222
v 0.003330275 -0.003182873 0.0155747
v 0.001680091 -0.003587991 0.01565624
v 0.0001478046 -0.004407957 0.01562882
v -0.004637972 0.002041996 0.0155573
v -0.003438696 0.001531512 0.01574335
v 0.004928455 -0.002042055 0.01539459
v 0.003736183 -0.001531482 0.01562127
v 0.002186999 0.004783928 0.01544116
v 0.0001452416 0.005133867 0.01547595
v 0.0001478195 0.004407898 0.01562882
v 0.001680166 0.003587916 0.01565627
v -0.001896411 -0.004783943 0.01551069
v -0.001382515 -0.003587931 0.0157083
v -0.003034487 -0.003182963 0.01568294
v -0.001382515 -0.003587931 0.0157083
v 0.0001499653 -4.470348e-08 0.01575116
v -0.003438696 -0.001531512 0.01574335
v 0.0001478046 -0.004407957 0.01562882
v 0.001680091 -0.003587991 0.01565624
v 0.003330275 -0.003182873 0.0155747
v 0.003736183 -0.001531482 0.01562127
v 0.004555151 0 0.01555388
v 0.003736228 0.001531467 0.01562131
v 0.00333029 0.003182843 0.0155747
v 0.001680166 0.003587916 0.01565627
v 0.0001478195 0.004407898 0.01562882
v -0.00138253 0.003587902 0.01570844
v -0.003034502 0.003182814 0.01568297
v -0.003438696 0.001531512 0.01574335
v -0.004259408 4.470348e-08 0.0157038
f 1 2 3
f 1 3 4
f 5 6 3
f 5 3 2
f 7 8 3
f 7 3 6
f 9 4 3
f 9 3 8
f 10 11 12
f 10 12 13
f 14 15 12
f 14 12 11
f 16 17 12
f 16 12 15
f 18 13 12
f 18 12 17
f 19 20 21
f 19 21 22
f 23 24 21
f 23 21 20
f 25 26 21
f 25 21 24
f 27 22 21
f 27 21 26
f 28 29 30
f 28 30 31
f 32 33 30
f 32 30 29
f 34 35 30
f 34 30 33
f 36 31 30
f 36 30 35
f 9 8 37
f 9 37 38
f 7 39 37
f 7 37 8
f 40 41 37
f 40 37 39
f 42 38 37
f 42 37 41
f 18 17 43
f 18 43 44
f 16 45 43
f 16 43 17
f 46 47 43
f 46 43 45
f 48 44 43
f 48 43 47
f 27 26 49
f 27 49 50
f 25 51 49
f 25 49 26
f 52 53 49
f 52 49 51
f 54 50 49
f 54 49 53
f 36 35 55
f 36 55 56
f 34 57 55
f 34 55 35
f 58 59 55
f 58 55 57
f 60 56 55
f 60 55 59
f 61 62 63
f 61 63 64
f 65 66 63
f 65 63 62
f 67 68 63
f 67 63 66
f 69 64 63
f 69 63 68
f 70 71 72
f 70 72 73
f 74 75 72
f 74 72 71
f 76 77 72
f 76 72 75
f 78 73 72
f 78 72 77
f 54 53 79
f 54 79 80
f 52 81 79
f 52 79 53
f 82 83 79
f 82 79 81
f 84 80 79
f 84 79 83
f 60 59 85
f 60 85 86
f 58 87 85
f 58 85 59
f 88 89 85
f 88 85 87
f 90 86 85
f 90 85 89
f 91 92 93
f 91 93 94
f 95 96 93
f 95 93 92
f 97 98 93
f 97 93 96
f 99 94 93
f 99 93 98
f 100 101 102
f 100 102 103
f 104 105 102
f 104 102 101
f 106 107 102
f 106 102 105
f 108 103 102
f 108 102 107
f 109 110 111
f 109 111 112
f 113 114 111
f 113 111 110
f 115 116 111
f 115 111 114
f 117 112 111
f 117 111 116
f 118 119 120
f 118 120 121
f 122 123 120
f 122 120 119
f 124 125 120
f 124 120 123
f 126 121 120
f 126 120 125
f 117 116 127
f 117 127 128
f 115 129 127
f 115 127 116
f 130 131 127
f 130 127 129
f 132 128 127
f 132 127 131
f 5 133 134
f 5 134 6
f 19 22 134
f 19 134 133
f 27 135 134
f 27 134 22
f 7 6 134
f 7 134 135
f 14 136 137
f 14 137 15
f 28 31 137
f 28 137 136
f 36 138 137
f 36 137 31
f 16 15 137
f 16 137 138
f 7 135 139
f 7 139 39
f 27 50 139
f 27 139 135
f 54 140 139
f 54 139 50
f 40 39 139
f 40 139 140
f 16 138 141
f 16 141 45
f 36 56 141
f 36 141 138
f 60 142 141
f 60 141 56
f 46 45 141
f 46 141 142
f 65 143 144
f 65 144 66
f 145 146 144
f 145 144 143
f 147 148 144
f 147 144 146
f 67 66 144
f 67 144 148
f 74 149 150
f 74 150 75
f 151 152 150
f 151 150 149
f 153 154 150
f 153 150 152
f 76 75 150
f 76 150 154
f 95 155 156
f 95 156 96
f 157 158 156
f 157 156 155
f 159 160 156
f 159 156 158
f 97 96 156
f 97 156 160
f 104 161 162
f 104 162 105
f 163 164 162
f 163 162 161
f 165 166 162
f 165 162 164
f 106 105 162
f 106 162 166
f 167 168 169
f 167 169 170
f 126 125 169
f 126 169 168
f 124 171 169
f 124 169 125
f 130 170 169
f 130 169 171
f 172 173 174
f 172 174 175
f 10 13 174
f 10 174 173
f 18 176 174
f 18 174 13
f 177 175 174
f 177 174 176
f 32 178 179
f 32 179 33
f 1 4 179
f 1 179 178
f 9 180 179
f 9 179 4
f 34 33 179
f 34 179 180
f 177 176 181
f 177 181 182
f 18 44 181
f 18 181 176
f 48 183 181
f 48 181 44
f 184 182 181
f 184 181 183
f 34 180 185
f 34 185 57
f 9 38 185
f 9 185 180
f 42 186 185
f 42 185 38
f 58 57 185
f 58 185 186
f 184 183 187
f 184 187 188
f 48 189 187
f 48 187 183
f 190 191 187
f 190 187 189
f 192 188 187
f 192 187 191
f 58 186 193
f 58 193 87
f 42 194 193
f 42 193 186
f 195 196 193
f 195 193 194
f 88 87 193
f 88 193 196
f 197 198 199
f 197 199 200
f 201 202 199
f 201 199 198
f 203 204 199
f 203 199 202
f 205 200 199
f 205 199 204
f 122 206 207
f 122 207 123
f 208 209 207
f 208 207 206
f 210 211 207
f 210 207 209
f 124 123 207
f 124 207 211
f 205 204 212
f 205 212 213
f 203 214 212
f 203 212 204
f 167 170 212
f 167 212 214
f 130 213 212
f 130 212 170
f 124 211 215
f 124 215 171
f 210 216 215
f 210 215 211
f 132 131 215
f 132 215 216
f 130 171 215
f 130 215 131
f 67 217 218
f 67 218 68
f 95 92 218
f 95 218 217
f 91 219 218
f 91 218 92
f 69 68 218
f 69 218 219
f 76 220 221
f 76 221 77
f 104 101 221
f 104 221 220
f 100 222 221
f 100 221 101
f 78 77 221
f 78 221 222
f 82 223 224
f 82 224 83
f 113 110 224
f 113 224 223
f 109 225 224
f 109 224 110
f 84 83 224
f 84 224 225
f 88 226 227
f 88 227 89
f 122 119 227
f 122 227 226
f 118 228 227
f 118 227 119
f 90 89 227
f 90 227 228
f 147 229 230
f 147 230 148
f 157 155 230
f 157 230 229
f 95 217 230
f 95 230 155
f 67 148 230
f 67 230 217
f 153 231 232
f 153 232 154
f 163 161 232
f 163 232 231
f 104 220 232
f 104 232 161
f 76 154 232
f 76 232 220
f 190 233 234
f 190 234 191
f 201 198 234
f 201 234 233
f 197 235 234
f 197 234 198
f 192 191 234
f 192 234 235
f 195 236 237
f 195 237 196
f 208 206 237
f 208 237 236
f 122 226 237
f 122 237 206
f 88 196 237
f 88 237 226
f 40 140 238
f 40 238 239
f 54 240 238
f 54 238 140
f 145 143 238
f 145 238 240
f 65 239 238
f 65 238 143
f 54 80 241
f 54 241 240
f 84 242 241
f 84 241 80
f 147 146 241
f 147 241 242
f 145 240 241
f 145 241 146
f 84 225 243
f 84 243 242
f 109 244 243
f 109 243 225
f 157 229 243
f 157 243 244
f 147 242 243
f 147 243 229
f 109 112 245
f 109 245 244
f 117 246 245
f 117 245 112
f 159 158 245
f 159 245 246
f 157 244 245
f 157 245 158
f 117 128 247
f 117 247 246
f 132 248 247
f 132 247 128
f 97 160 247
f 97 247 248
f 159 246 247
f 159 247 160
f 132 216 249
f 132 249 248
f 210 250 249
f 210 249 216
f 99 98 249
f 99 249 250
f 97 248 249
f 97 249 98
f 210 209 251
f 210 251 250
f 208 252 251
f 208 251 209
f 91 94 251
f 91 251 252
f 99 250 251
f 99 251 94
f 208 236 253
f 208 253 252
f 195 254 253
f 195 253 236
f 69 219 253
f 69 253 254
f 91 252 253
f 91 253 219
f 195 194 255
f 195 255 254
f 42 256 255
f 42 255 194
f 61 64 255
f 61 255 256
f 69 254 255
f 69 255 64
f 42 41 257
f 42 257 256
f 40 239 257
f 40 257 41
f 65 62 257
f 65 257 239
f 61 256 257
f 61 257 62
f 46 142 258
f 46 258 259
f 60 260 258
f 60 258 142
f 151 149 258
f 151 258 260
f 74 259 258
f 74 258 149
f 60 86 261
f 60 261 260
f 90 262 261
f 90 261 86
f 153 152 261
f 153 261 262
f 151 260 261
f 151 261 152
f 90 228 263
f 90 263 262
f 118 264 263
f 118 263 228
f 163 231 263
f 163 263 264
f 153 262 263
f 153 263 231
f 118 121 265
f 118 265 264
f 126 266 265
f 126 265 121
f 165 164 265
f 165 265 266
f 163 264 265
f 163 265 164
f 126 168 267
f 126 267 266
f 167 268 267
f 167 267 168
f 106 166 267
f 106 267 268
f 165 266 267
f 165 267 166
f 167 214 269
f 167 269 268
f 203 270 269
f 203 269 214
f 108 107 269
f 108 269 270
f 106 268 269
f 106 269 107
f 203 202 271
f 203 271 270
f 201 272 271
f 201 271 202
f 100 103 271
f 100 271 272
f 108 270 271
f 108 271 103
f 201 233 273
f 201 273 272
f 190 274 273
f 190 273 233
f 78 222 273
f 78 273 274
f 100 272 273
f 100 273 222
f 190 189 275
f 190 275 274
f 48 276 275
f 48 275 189
f 70 73 275
f 70 275 276
f 78 274 275
f 78 275 73
f 48 47 277
f 48 277 276
f 46 259 277
f 46 277 47
f 74 71 277
f 74 277 259
f 70 276 277
f 70 277 71
f 5 2 278
f 5 278 279
f 1 280 278
f 1 278 2
f 281 282 278
f 281 278 280
f 283 279 278
f 283 278 282
f 14 11 284
f 14 284 285
f 10 286 284
f 10 284 11
f 287 288 284
f 287 284 286
f 289 285 284
f 289 284 288
f 23 20 290
f 23 290 291
f 19 292 290
f 19 290 20
f 293 294 290
f 293 290 292
f 295 291 290
f 295 290 294
f 32 29 296
f 32 296 297
f 28 298 296
f 28 296 29
f 299 300 296
f 299 296 298
f 301 297 296
f 301 296 300
f 19 133 302
f 19 302 292
f 5 279 302
f 5 302 133
f 283 303 302
f 283 302 279
f 293 292 302
f 293 302 303
f 28 136 304
f 28 304 298
f 14 285 304
f 14 304 136
f 289 305 304
f 289 304 285
f 299 298 304
f 299 304 305
f 10 173 306
f 10 306 286
f 172 307 306
f 172 306 173
f 308 309 306
f 308 306 307
f 287 286 306
f 287 306 309
f 1 178 310
f 1 310 280
f 32 297 310
f 32 310 178
f 301 311 310
f 301 310 297
f 281 280 310
f 281 310 311
f 312 313 314
f 312 314 315
f 316 317 314
f 316 314 313
f 318 319 314
f 318 314 317
f 320 321 314
f 320 314 319
f 322 323 314
f 322 314 321
f 324 325 314
f 324 314 323
f 326 327 314
f 326 314 325
f 328 315 314
f 328 314 327
