v 0.03740337 -0.002504468 0.01521045
v 0.03924812 -0.01327753 0.02252525
v 0.03479207 -0.01312208 0.01917055
v 0.04082994 -0.002497435 0.01782456
v 0.0378198 -0.003655612 0.01163384
v 0.0413474 -0.003897905 0.01459327
v 0.03536022 -0.01451874 0.01585987
v 0.039819 -0.01432782 0.019171
v 0.04216619 0.01819706 0.01260176
v 0.04305117 0.01547199 0.008779556
v 0.04159307 0.0267961 0.01449373
v 0.03867973 -0.02092695 0.02139226
v 0.04174589 -0.008175552 0.01241663
v 0.04198298 0.005001068 0.01268241
v 0.04004942 0.03780001 0.01940662
v 0.03921631 0.04385763 0.02071872
v 0.03805161 0.00539577 0.01357445
v 0.03871383 0.004997432 0.009992093
v 0.03830332 0.0189057 0.01028553
v 0.0422802 0.006164193 0.01779723
v 0.04151201 0.01790988 0.01616022
v 0.0373176 0.01787257 0.01291075
v 0.03931597 0.03792274 0.02112433
v 0.03374365 0.03717828 0.01792452
v 0.0395281 0.036461 0.02249637
v 0.04100421 0.02569437 0.01779935
v 0.03598504 0.02580225 0.01399374
v 0.03680505 0.04688334 0.02938449
v 0.03742763 0.02659327 0.0111399
v 0.0364736 -0.02296495 0.02951977
v 0.0351803 0.0377472 0.01537845
v 0.03924373 0.03781325 0.02143404
v 0.03931597 0.03792274 0.02112433
v 0.03662413 -0.01583278 0.01180738
v 0.03270254 0.05217671 0.04036075
v 0.039279 0.01073134 0.005587846
v 0.03886074 0.0001947284 0.00664565
v 0.033701 0.02156103 0.0161753
v 0.03210518 0.002683938 0.0210903
v -0.0004351139 0.01372176 0.1234929
v -0.0004720241 -0.005488992 0.1174239
v -0.0004292876 0.007971585 0.123379
v 0.03431973 -0.022021 0.01811999
v 0.00146687 0.03953677 0.1123967
v 0.001322791 0.03526855 0.118243
v 0.003297076 0.04422402 0.1129217
v 0.02556613 0.05736285 0.0459545
v 0.03487158 0.04514766 0.01782098
v 0.03106977 0.04311389 0.0240764
v 0.03194109 0.03949422 0.02089748
v 0.02763389 -0.03002244 0.03809467
v 0.0003775805 0.02676708 0.1214961
v 0.02774695 -0.01756668 0.03287172
v -0.0001397729 0.0004661083 0.1223395
v 0.04193467 0.03184533 0.01263037
v 0.04305208 0.006970227 0.008938104
v 0.03705686 0.03873849 0.01165596
v 0.02367932 -0.02992034 0.04485863
v 0.0330105 0.03340107 0.0176743
v 0.0009742975 -0.01035666 0.1188861
v 0.02469771 -0.03430927 0.04656181
v 0.002702355 -0.02329934 0.106958
v 0.001860112 -0.01665539 0.1155084
v 0.03244749 -0.02844983 0.03948873
v 0.0306052 -0.005433083 0.02515844
v 0.01888837 -0.03653336 0.05709136
v 0.02087069 -0.03833848 0.0573962
v 0.004787341 -0.02719545 0.107166
v 0.01869503 -0.04006207 0.0645662
v 0.007264495 -0.03317535 0.09957179
v 0.005705923 -0.03047442 0.09817889
v 0.03722858 -0.02244306 0.03328037
v 0.01293726 -0.03806961 0.07607999
v 0.009988517 -0.03772056 0.09041455
v 0.01389137 -0.04056805 0.0789856
v 0.04153627 -0.003353179 0.01992944
v 0.01849633 0.06386536 0.06707138
v 0.02239856 0.06116849 0.05564925
v 0.01894778 0.06102404 0.06065831
v 0.01790425 0.06047344 0.0629867
v 0.01516604 0.06422576 0.07714131
v 0.009368137 0.05900741 0.0883784
v 0.01114964 0.06179449 0.0889326
v 0.009135395 0.05916482 0.09522206
v 0.006705835 0.05486685 0.1021526
v 0.005149767 0.05167174 0.1014573
v 0.02033263 -0.01700717 0.02642682
v 0.02132159 -0.03012598 0.04345384
v 0.01964268 -0.01819855 0.02936777
v 0.02111864 -0.01019901 0.02060649
v 0.02682343 -0.002259612 0.01858649
v 0.02478363 -0.0007160306 0.01248518
v 0.02879295 0.009754479 0.01306161
v 0.0238165 0.04287165 0.01843068
v 0.02367362 0.05400044 0.03855249
v 0.02636044 0.05294514 0.03803274
v 0.02500565 0.03565562 0.01117328
v 0.03868407 0.0434038 0.03096485
v 0.02656636 0.01056796 0.007427812
v 0.02666196 0.0239706 0.006957024
v 0.03865892 0.02613562 0.00723657
v 0.02548289 0.01091111 0.007712007
v 0.02389684 0.0371635 0.01343223
v 0.02352181 0.0526039 0.03789318
v 0.04053414 0.03619206 0.02459303
v 0.01862212 0.05708444 0.09122831
v 0.04589644 0.04543501 0.09815004
v 0.0404159 0.02391398 0.1145617
v 0.05668031 0.03822768 0.0653379
v 0.05269963 -0.02098215 0.07637337
v 0.05807993 -0.01441509 0.06002799
v 0.06037298 -0.004372358 0.05325744
v 0.04454538 -0.02081811 0.1011145
v 0.03869936 0.007986188 0.1194091
v 0.0394678 0.02438509 0.1173817
v 0.04958707 0.04814249 0.08697793
v 0.04820514 -0.02473223 0.08989868
v 0.03911395 0.000445962 0.1179621
v 0.06151563 0.0163759 0.05017146
v 0.05897368 0.03537029 0.05824012
v 0.05368219 0.04657269 0.07452807
v 0.04119913 0.03416157 0.1122517
v 0.06150164 0.007609665 0.05005321
v 0.05219066 -0.02444404 0.07772705
v 0.05455801 -0.02205348 0.070636
v 0.0556125 0.04397523 0.06860456
v 0.0408161 -0.01048541 0.1126239
v 0.04450974 0.05578125 0.06725121
v 0.04182005 0.05804485 0.07751665
v 0.05652234 0.02195394 0.03817108
v 0.05365683 0.01460397 0.03034601
v 0.05782668 0.03125459 0.04835585
v 0.05337346 0.02013159 0.03090063
v 0.05290179 0.02917755 0.03380558
v 0.0517029 0.0363822 0.03794664
v 0.05006027 0.04297626 0.04421368
v 0.04873505 0.04709679 0.04962596
v 0.05339876 0.005221128 0.03051105
v 0.05804345 0.001992702 0.04178149
v 0.05242932 -0.007017732 0.0339424
v 0.05088282 -0.01599234 0.0403932
v 0.05142844 -0.01245427 0.03691071
v 0.04890648 -0.0226838 0.04798338
v 0.04750881 -0.02616954 0.05295688
v 0.04403463 -0.0325343 0.06665847
v 0.03604561 -0.03662956 0.07360041
v 0.03758028 -0.03504014 0.0653834
v 0.03875023 -0.03313518 0.05934951
v 0.04169637 -0.03469539 0.07538989
v 0.03182748 -0.01892704 0.1144662
v 0.03483893 -0.02882266 0.1027617
v 0.03309579 0.04543716 0.1113786
v 0.0321162 0.04121923 0.1152138
v 0.03513575 0.0515213 0.1036029
v 0.03706212 0.05529749 0.09602886
v 0.03447181 -0.03709519 0.07866651
v 0.03873105 0.05723679 0.08953118
v 0.03081042 -0.01238388 0.119029
v 0.02988461 -0.004910111 0.122566
v 0.02945228 0.002668798 0.1246498
v 0.03022468 0.02808535 0.1225258
v 0.02960479 0.01978147 0.1247495
v 0.02937745 0.009774327 0.1254373
v 0.03777312 -0.03356761 0.0913069
v 0.03619199 -0.03152263 0.09743127
v 0.0344726 0.06052113 0.07725969
v 0.0378214 0.05857807 0.06639069
v 0.04242975 0.05131805 0.04967001
v 0.03123276 0.05903736 0.09033683
v 0.01972038 -0.006619811 0.1224342
v 0.02208018 -0.01559222 0.1179385
v 0.01991621 0.005216479 0.1254968
v 0.02886124 -0.03525257 0.0926359
v 0.01935528 0.02914453 0.1227333
v 0.02588569 -0.02800184 0.1063894
v 0.02397496 -0.02408826 0.1110212
v 0.02153026 0.04170638 0.1160601
v 0.01041755 -0.01913387 0.1147757
v 0.02025634 0.02091336 0.1250827
v 0.02458696 0.04646051 0.1119799
v 0.0204028 0.03473842 0.1203599
v 0.02763571 0.05493879 0.10086
f 1 2 3
f 4 2 1
f 5 6 4
f 5 4 1
f 7 8 6
f 9 10 11
f 6 12 13
f 7 6 5
f 9 14 10
f 14 13 10
f 15 11 10
f 8 12 6
f 7 3 8
f 2 8 3
f 15 10 16
f 17 14 18
f 18 14 9
f 18 9 19
f 17 20 14
f 17 21 20
f 22 21 17
f 22 9 21
f 23 15 16
f 22 19 9
f 24 25 26
f 24 26 27
f 27 26 11
f 28 23 16
f 27 11 29
f 30 12 8
f 29 11 15
f 29 15 31
f 24 31 15
f 23 24 15
f 14 6 13
f 24 32 25
f 14 4 6
f 32 24 33
f 33 24 23
f 7 34 3
f 28 16 35
f 36 37 19
f 38 22 39
f 37 18 19
f 40 41 42
f 34 43 3
f 44 45 46
f 47 48 49
f 48 50 49
f 3 43 51
f 44 52 45
f 17 3 53
f 48 24 50
f 42 41 54
f 48 31 24
f 55 16 10
f 56 10 13
f 48 57 31
f 18 1 17
f 18 37 5
f 53 3 51
f 18 5 1
f 53 51 58
f 57 29 31
f 24 59 50
f 41 60 54
f 58 51 61
f 41 62 60
f 60 62 63
f 30 64 12
f 39 22 65
f 44 40 52
f 66 58 67
f 58 61 67
f 62 68 63
f 67 69 66
f 62 70 68
f 62 71 70
f 5 37 34
f 72 64 30
f 73 66 69
f 57 36 29
f 71 74 70
f 75 73 69
f 24 27 59
f 2 4 76
f 75 74 73
f 22 17 65
f 29 36 19
f 77 78 79
f 27 38 59
f 5 34 7
f 77 79 80
f 17 1 3
f 79 78 47
f 29 19 22
f 77 80 81
f 47 49 79
f 82 83 81
f 82 84 83
f 30 2 72
f 20 76 4
f 65 17 53
f 84 82 85
f 85 82 86
f 86 46 85
f 22 38 27
f 46 86 44
f 22 27 29
f 2 30 8
f 14 20 4
f 87 58 88
f 87 53 58
f 58 66 88
f 88 66 89
f 87 89 90
f 88 89 87
f 62 41 71
f 80 82 81
f 71 73 74
f 44 41 40
f 87 65 53
f 91 39 65
f 91 92 93
f 91 93 39
f 93 38 39
f 94 95 96
f 94 96 49
f 97 50 59
f 98 25 28
f 97 49 50
f 97 94 49
f 99 100 93
f 21 9 26
f 95 79 96
f 100 38 93
f 100 59 38
f 57 101 36
f 91 65 87
f 92 91 87
f 99 93 92
f 87 90 92
f 92 90 102
f 92 102 99
f 97 103 104
f 97 104 94
f 94 104 95
f 95 104 79
f 32 23 28
f 79 104 80
f 32 28 25
f 105 25 98
f 100 97 59
f 99 102 100
f 102 103 97
f 102 97 100
f 106 86 82
f 9 11 26
f 107 108 109
f 110 111 112
f 113 110 108
f 114 108 115
f 107 109 116
f 113 117 110
f 114 118 108
f 109 119 120
f 116 109 121
f 115 108 122
f 110 112 123
f 117 124 110
f 109 110 119
f 28 35 98
f 110 124 125
f 109 126 121
f 110 123 119
f 48 47 35
f 35 16 48
f 118 127 108
f 109 120 126
f 127 113 108
f 110 125 111
f 16 57 48
f 122 108 107
f 121 128 129
f 121 129 116
f 123 130 119
f 131 130 123
f 119 130 120
f 120 130 132
f 101 55 10
f 133 130 131
f 13 34 37
f 130 134 132
f 130 133 134
f 134 135 132
f 57 55 101
f 136 120 132
f 13 37 56
f 132 135 136
f 120 136 137
f 36 56 37
f 36 10 56
f 137 126 120
f 16 55 57
f 128 121 126
f 126 137 128
f 101 10 36
f 131 123 138
f 139 123 112
f 123 139 138
f 139 140 138
f 12 34 13
f 12 43 34
f 139 112 140
f 111 141 112
f 64 51 43
f 43 12 64
f 140 112 142
f 112 141 142
f 141 111 143
f 111 125 144
f 111 144 143
f 144 125 145
f 146 67 147
f 64 148 61
f 124 117 149
f 125 124 149
f 145 125 149
f 113 150 151
f 122 152 153
f 152 107 154
f 107 155 154
f 156 75 69
f 116 129 157
f 118 158 127
f 118 159 158
f 159 118 160
f 76 140 2
f 140 142 2
f 161 162 115
f 114 163 160
f 116 155 107
f 146 156 69
f 155 116 157
f 162 114 115
f 164 149 117
f 117 113 165
f 164 117 165
f 113 151 165
f 150 113 127
f 127 158 150
f 118 114 160
f 67 146 69
f 161 115 122
f 122 153 161
f 138 140 76
f 163 114 162
f 122 107 152
f 128 166 129
f 61 147 67
f 20 138 76
f 131 138 21
f 131 21 133
f 21 26 133
f 138 20 21
f 128 167 166
f 133 26 134
f 134 26 25
f 149 156 146
f 47 78 167
f 134 25 105
f 149 146 147
f 148 147 61
f 134 105 135
f 166 167 77
f 135 98 136
f 166 77 81
f 145 147 148
f 136 98 137
f 167 78 77
f 137 98 35
f 137 168 128
f 148 144 145
f 168 167 128
f 64 61 51
f 105 98 135
f 168 47 167
f 137 35 168
f 35 47 168
f 64 144 148
f 166 169 157
f 157 169 155
f 166 157 129
f 169 166 81
f 144 64 72
f 169 81 83
f 143 72 141
f 143 144 72
f 170 54 60
f 170 60 171
f 54 170 172
f 2 141 72
f 75 156 173
f 174 45 52
f 70 173 175
f 74 173 70
f 70 175 176
f 147 145 149
f 45 177 46
f 176 68 70
f 68 176 178
f 142 141 2
f 171 60 178
f 178 60 63
f 179 40 42
f 180 85 46
f 179 174 52
f 174 181 45
f 45 181 177
f 46 177 180
f 158 176 150
f 85 180 182
f 170 159 160
f 182 84 85
f 171 176 158
f 40 179 52
f 83 182 169
f 173 74 75
f 156 149 164
f 182 83 84
f 177 181 153
f 172 179 42
f 176 171 178
f 178 63 68
f 172 42 54
f 179 172 163
f 179 163 162
f 154 180 152
f 181 161 153
f 174 162 161
f 172 170 160
f 182 155 169
f 173 156 164
f 170 171 159
f 182 154 155
f 182 180 154
f 181 174 161
f 176 175 150
f 175 151 150
f 172 160 163
f 171 158 159
f 180 177 152
f 173 164 165
f 175 173 151
f 152 177 153
f 174 179 162
f 173 165 151
