v -0.0005353987 0.004793614 -0.02309588
v -0.000535354 -0.004793614 -0.02309316
v -0.0005354136 -0.004609756 0.02309588
v -0.000535354 0.00462763 0.023094
v 0.0005354136 0.004619107 -0.02165359
v 0.0005347729 -0.004618511 -0.02165216
v 0.0003266931 -0.004654489 -0.02250519
v 0.0004352778 0.004636645 -0.02222979
v 0.0004342049 -0.00463599 -0.02222696
v 0.000328064 0.004655227 -0.02250648
f 1 2 3
f 4 1 3
f 5 4 3
f 2 6 3
f 6 5 3
f 7 2 1
f 7 6 2
f 6 8 5
f 7 9 6
f 9 8 6
f 8 9 7
f 10 7 1
f 10 8 7
f 8 10 5
f 4 10 1
f 5 10 4
