v 0.001141712 -0.009998679 0.02825728
v 0.001595549 -0.01002389 -0.02689365
v 0.001316234 0.0002577752 0.01286754
v 0.001643211 0.0002393872 -0.02689832
v 0.00134775 -0.009982944 -0.0275062
v -0.001625106 0.01002389 -0.009651899
v -0.001643211 -0.00949569 -0.0268378
v -0.001482993 0.01001586 -0.02692878
v 0.001394682 0.0002004653 -0.02751061
v 0.0005081594 6.318092e-05 -0.02825731
v 0.0004625246 -0.009837866 -0.02825272
v -0.0005277693 -0.009676531 -0.0282439
v 0.0009695143 -0.009921238 -0.02789149
v -0.0014088 -0.009533495 -0.02768296
v -0.001365073 -0.0002238005 -0.02768722
v -0.001481637 -0.0002413094 -0.0274134
v -0.0004832968 -8.98391e-05 -0.02824771
v -0.001599617 -0.0002589673 -0.02684152
v 0.001016431 0.0001411587 -0.02789584
v -0.001524612 -0.009514019 -0.02740934
f 1 2 3
f 2 4 3
f 2 5 4
f 6 7 1
f 6 1 3
f 4 6 3
f 6 4 8
f 4 9 8
f 5 9 4
f 10 11 12
f 2 13 5
f 11 13 12
f 13 2 1
f 14 15 12
f 13 14 12
f 7 14 1
f 14 13 1
f 15 16 8
f 14 16 15
f 10 17 8
f 17 15 8
f 17 10 12
f 15 17 12
f 18 6 8
f 6 18 7
f 16 18 8
f 18 16 7
f 19 10 8
f 9 19 8
f 19 11 10
f 19 13 11
f 19 9 5
f 13 19 5
f 20 14 7
f 16 20 7
f 20 16 14
