v 0.001013517 -0.01342195 -0.02631729
v 0.001013875 -0.02632219 -0.01341239
v 0.0009832382 -0.02089369 -0.02088644
v 0.001013249 0.02052009 0.02051264
v -0.000177145 -0.02585569 -0.01316634
v 0.0008966327 0.004541397 0.02865925
v 0.0007620752 -0.004537731 0.02866164
v 0.000249505 -0.004339963 0.02746843
v 0.0005914569 -0.0131723 0.02585912
v 0.0004028082 -0.02051702 0.02052423
v -9.387732e-05 -0.01965076 0.01967187
v 4.518032e-05 0.004537433 -0.02866165
v -8.97646e-05 -0.004541576 -0.02865933
v -0.0004371703 0.004354298 -0.0274534
v -0.0007016063 -0.01847568 0.009441197
v -0.0002745986 -0.0247643 0.01263669
v -0.0002354681 0.003284574 0.02021047
v -0.0001835227 0.009273469 0.018181
v -0.0009992123 -0.009244084 -0.01815173
v -0.0001766086 -0.01317555 -0.02585108
v 0.0005920529 0.02585369 -0.01318103
v 0.0004036129 0.0205169 -0.02052438
v 0.0007617474 0.02866045 -0.004547089
v 0.0008966029 0.0286608 0.004531354
v -0.0001549125 0.01443389 0.01452571
v -0.0004322529 0.01850441 -0.00941211
v 8.678436e-05 0.0247789 -0.01262146
v -9.378791e-05 0.01966527 -0.01965734
v 0.000982821 0.01317546 0.02585155
v 8.708239e-05 -0.01261264 0.02478342
v -9.024143e-05 -0.02866066 -0.004530743
v 4.476309e-05 -0.0286608 0.004547328
v -0.0005665123 -0.02745298 -0.004333168
v 0.0002147555 -0.02585381 0.01318172
v 0.0002151132 0.01317164 -0.02585892
v -0.001013845 -0.01440507 -0.01449648
v -0.0006785989 -0.01965332 -0.01964627
v -0.0004371107 -0.0274528 0.00436458
v -0.0008920431 -0.02126309 -0.003289402
v -0.0006501079 -0.02476546 -0.01260728
v -0.0005662143 -0.004343808 -0.02745124
v -0.0002068877 -0.02051991 -0.02051197
v -0.0009329319 -0.003254712 -0.02018073
v -0.0002741516 0.01262766 -0.02476843
v -0.000665009 0.00984025 -0.01914719
v 0.0004900098 0.01966798 0.01966053
v 0.0004613101 0.01263022 0.02477564
v -0.0003885925 -0.009813011 0.01917508
v -0.000808835 -0.02059445 0.003471524
v -0.0006491542 -0.01261634 -0.02476063
v -0.0005501807 0.01491883 -0.01463449
v 0.0003783107 0.02746707 0.004348636
v 0.0009834766 0.0258559 0.0131664
v 0.0003787279 0.004358143 0.02746618
v -0.0005576015 -0.0148907 0.01466314
v -0.0009752512 -0.0183244 -0.009595215
v -0.0008196235 0.003013253 -0.0204737
v 0.0002495646 0.02746698 -0.004349768
v 0.0004616082 0.02478033 0.01262209
v -0.0001445115 0.01835278 0.009623781
v -0.0002997518 -0.002984434 0.02050266
v -0.0001608729 0.02128994 0.00331755
v -0.0002995133 0.02062264 -0.003443092
f 1 2 3
f 2 1 4
f 2 5 3
f 2 6 7
f 6 8 7
f 9 2 7
f 2 9 10
f 8 9 7
f 10 9 11
f 12 1 13
f 14 12 13
f 15 16 11
f 16 10 11
f 17 18 19
f 15 17 19
f 1 20 13
f 20 1 3
f 21 1 22
f 21 23 1
f 23 24 1
f 18 25 19
f 26 27 28
f 21 27 23
f 28 27 22
f 27 21 22
f 29 2 4
f 29 6 2
f 9 30 11
f 30 9 8
f 31 32 33
f 32 31 2
f 31 5 2
f 34 2 10
f 34 32 2
f 16 34 10
f 34 16 32
f 35 12 14
f 35 28 22
f 1 35 22
f 12 35 1
f 36 15 19
f 37 36 19
f 38 16 15
f 38 39 33
f 32 38 33
f 16 38 32
f 40 37 5
f 40 31 33
f 31 40 5
f 39 40 33
f 40 36 37
f 41 14 13
f 20 41 13
f 5 42 3
f 37 42 5
f 42 20 3
f 42 37 20
f 25 43 19
f 43 25 26
f 43 41 19
f 41 43 14
f 44 45 28
f 45 44 14
f 35 44 28
f 44 35 14
f 46 25 18
f 46 29 4
f 46 47 29
f 47 46 18
f 30 48 11
f 48 30 8
f 36 49 15
f 49 38 15
f 38 49 39
f 50 37 19
f 41 50 19
f 37 50 20
f 50 41 20
f 51 43 26
f 51 26 28
f 45 51 28
f 52 24 23
f 1 53 4
f 24 53 1
f 29 54 6
f 47 54 29
f 6 54 8
f 54 17 8
f 17 54 18
f 54 47 18
f 55 17 15
f 55 15 11
f 48 55 11
f 49 56 39
f 56 49 36
f 56 40 39
f 40 56 36
f 57 51 45
f 51 57 43
f 57 45 14
f 43 57 14
f 27 58 23
f 58 52 23
f 58 27 26
f 59 60 25
f 46 59 25
f 59 46 4
f 53 59 4
f 52 59 24
f 59 53 24
f 55 61 17
f 61 55 48
f 17 61 8
f 61 48 8
f 58 62 52
f 59 62 60
f 62 59 52
f 63 58 26
f 63 62 58
f 62 63 60
f 25 63 26
f 60 63 25
