v 0.006605275 -0.002945025 -0.0780893
v 0.00647898 0.006764336 -0.08165473
v 0.00664068 -0.01675681 0.08165473
v -0.004936934 0.01675681 0.0410828
v -0.00511308 -0.01254183 0.07215762
v 0.004189432 -0.0167333 -0.06582254
v -0.004369613 -0.009192456 -0.05875117
v -0.006111983 -0.01257801 -0.02519363
v -0.006640676 0.002955623 0.02420878
v -0.00635349 0.003263962 -0.04663104
v -0.006032377 0.0008643717 0.05620766
v -0.005019374 0.01626559 -0.00224185
v -0.006583039 0.002724595 0.001657844
v -0.005646862 0.013803 0.02277035
v -0.005682997 0.01332988 0.03955227
v -0.006288625 0.01095831 0.02528214
f 1 2 3
f 4 5 3
f 2 4 3
f 6 1 3
f 5 6 3
f 7 2 1
f 6 7 1
f 8 6 5
f 8 7 6
f 9 8 5
f 7 10 2
f 8 10 7
f 4 11 5
f 11 9 5
f 12 4 2
f 10 12 2
f 13 8 9
f 13 10 8
f 12 14 4
f 15 11 4
f 16 12 10
f 16 14 12
f 13 16 10
f 16 13 9
f 11 16 9
f 15 16 11
f 14 16 4
f 16 15 4
