v -0.0005416945 -0.004793495 -0.03861597
v -0.0005417019 -0.004602566 0.03741154
v -0.0005417019 0.00479351 -0.03861853
v -6.213784e-05 -0.004523531 0.03861851
v -6.192923e-05 0.004556239 0.03861725
v 0.0003265515 -0.004654393 -0.03803629
v -0.000541091 0.00463514 0.03740981
v 0.0003263429 0.004655331 -0.03803787
v 0.0004369542 0.00463669 -0.03776136
v 0.0005417019 0.004618794 -0.03718734
v 0.000541687 -0.004617736 -0.03718567
v 0.0004361197 -0.004636288 -0.03775936
f 1 2 3
f 2 1 4
f 5 2 4
f 6 1 3
f 1 6 4
f 2 7 3
f 7 2 5
f 8 6 3
f 6 8 9
f 7 8 3
f 8 10 9
f 10 8 5
f 8 7 5
f 10 11 9
f 11 5 4
f 11 10 5
f 12 6 9
f 11 12 9
f 6 12 4
f 12 11 4
