v -0.001617175 0.004633352 0.0374175
v -0.001617081 0.005131751 -0.0373413
v -0.001617085 -0.005131766 -0.03733963
v 0.0005742721 0.004793197 -0.03857943
v -0.0004149154 0.004949689 -0.03863961
v -0.001172088 -0.004524946 0.03863963
v 0.001617175 -0.004619107 -0.03711644
v -0.001172394 0.004554331 0.03863755
v 0.001616251 0.004617751 -0.03711814
v -0.001338616 0.005091339 -0.03794026
v -0.001617149 -0.004603863 0.03741929
v 0.001425505 0.004653916 -0.03797451
v 0.000574708 -0.004794091 -0.03857753
v -0.0009401962 -0.005032688 -0.03830281
v -0.0004147962 -0.004951388 -0.0386377
v 0.001527503 0.004636467 -0.03769469
v 0.001425575 -0.004655242 -0.03797215
v -0.00133761 -0.005092457 -0.0379377
v -0.0009401292 0.005030543 -0.03830516
v 0.001527838 -0.004636869 -0.03769258
f 1 2 3
f 4 5 2
f 6 7 8
f 7 9 8
f 2 10 3
f 5 10 2
f 11 1 3
f 1 11 8
f 11 6 8
f 12 13 4
f 6 14 7
f 11 14 6
f 15 5 4
f 13 15 4
f 14 15 13
f 16 9 7
f 9 16 8
f 16 1 8
f 16 12 4
f 16 4 2
f 1 16 2
f 12 17 13
f 14 17 7
f 17 14 13
f 10 18 3
f 14 18 10
f 18 11 3
f 18 14 11
f 19 10 5
f 19 14 10
f 15 19 5
f 19 15 14
f 20 16 7
f 17 20 7
f 16 20 12
f 20 17 12
