v 0.01541269 -0.01773155 0.04320154
v 0.01315731 -0.005470917 -0.04353753
v 0.01542531 -0.003480509 -0.04430327
v 0.01246695 0.01813583 0.04162759
v 0.01347996 -0.01919916 0.04245242
v -0.01197898 -0.01494358 -0.03589141
v -0.01305519 -0.01550817 -0.03307772
v -0.01290295 -0.01537444 -0.03465256
v 0.008259863 -0.01040502 0.04332218
v 0.008649841 -0.01027086 0.04383883
v 0.01382993 -0.01899651 0.04297617
v 0.005889073 -0.0004189163 0.04331589
v 0.007005394 0.009758964 0.04296008
v 0.006602272 0.009781629 0.04243529
v -0.01471409 0.004679486 -0.03396413
v -0.01542526 -0.0055217 -0.03308344
v -0.00187625 0.01754995 -0.04088062
v 0.01215616 0.00632979 -0.04404616
v 0.008669987 0.01371202 -0.04356626
v -0.01098846 0.0140966 -0.0356316
v 0.01032667 0.01919918 0.04076833
v 0.01421405 -0.01872496 0.04324859
v 0.009650558 -0.009888515 0.04430342
v 0.01468593 -0.01837204 0.04346505
v -0.01003376 0.01291776 -0.03829476
v -0.01031274 0.01311439 -0.03815696
v -0.01087487 0.01367609 -0.0371587
v 0.006298631 -0.0003626198 0.04383367
v 0.01164423 0.01867034 0.0418402
v 0.007470384 0.009688675 0.04323182
v 0.008050948 0.009585395 0.0434489
v -0.01051071 0.0132896 -0.03790271
v -0.01249811 -0.0151739 -0.03544739
v -0.01522909 -0.005574554 -0.03465846
v -0.01420969 -0.005545348 -0.03589681
v 0.00677219 -0.000312835 0.04409528
v 0.01070125 0.01910244 0.04130477
v -0.0122809 -0.01507337 -0.035725
v -0.01453725 -0.005565003 -0.03573018
v -0.01477739 -0.005572721 -0.0354529
v -0.01385923 0.004148036 -0.03656864
v 0.007363901 -0.0002551377 0.04429829
v 0.00909625 -0.01010348 0.04410034
v 0.01112258 0.01892154 0.04159677
v -0.01353908 0.004055053 -0.03672445
v -0.01453032 0.004435495 -0.03552166
v -0.01409204 0.004235387 -0.03629875
f 1 2 3
f 4 1 3
f 1 5 2
f 2 6 3
f 5 7 8
f 7 5 9
f 5 10 9
f 11 10 5
f 12 13 14
f 15 12 14
f 16 12 15
f 12 7 9
f 7 12 16
f 10 12 9
f 17 18 3
f 19 18 17
f 18 4 3
f 18 19 4
f 20 21 17
f 21 19 17
f 13 21 14
f 21 15 14
f 21 20 15
f 22 10 11
f 22 11 5
f 23 22 24
f 22 1 24
f 22 5 1
f 25 26 17
f 27 20 17
f 20 27 15
f 12 28 13
f 28 12 10
f 19 29 4
f 29 30 31
f 1 29 24
f 4 29 1
f 26 32 17
f 32 27 17
f 33 5 8
f 7 34 8
f 34 7 16
f 34 16 15
f 35 25 17
f 35 17 3
f 6 35 3
f 36 30 13
f 28 36 13
f 30 36 31
f 36 28 10
f 21 37 19
f 37 21 13
f 38 35 6
f 35 38 39
f 33 38 5
f 5 38 2
f 38 6 2
f 38 40 39
f 40 38 33
f 40 33 8
f 34 40 8
f 25 41 26
f 41 35 39
f 40 41 39
f 41 32 26
f 36 42 31
f 42 36 23
f 42 29 31
f 42 23 24
f 29 42 24
f 36 43 23
f 43 36 10
f 43 22 23
f 22 43 10
f 44 29 19
f 37 44 19
f 29 44 30
f 30 44 13
f 44 37 13
f 35 45 25
f 45 41 25
f 41 45 35
f 46 40 34
f 46 34 15
f 27 46 15
f 32 46 27
f 47 41 40
f 46 47 40
f 41 47 32
f 47 46 32
