v -0.005677313 0.004403651 -0.01011807
v -0.005707949 -0.003160834 -0.004442215
v 0.003313601 0.005926847 0.01218849
v 0.003080785 -0.005933881 -0.006813586
v 0.004611611 0.003308594 -0.01218846
v 0.005702287 -0.001520455 -0.009711683
v -0.0007461905 0.005933851 -0.01174387
v 0.005707949 0.002441406 0.0004353225
v -0.000472337 -0.001901388 0.003221989
v 0.003457844 -0.0006500483 0.002258211
v -0.001879066 -0.004613787 -0.003948957
f 1 2 3
f 4 2 1
f 5 4 1
f 4 5 6
f 7 1 3
f 5 7 3
f 7 5 1
f 8 5 3
f 5 8 6
f 8 4 6
f 2 9 3
f 10 8 3
f 8 10 4
f 9 10 3
f 10 9 4
f 4 11 2
f 11 9 2
f 9 11 4
