v 0.00137563 0.0002140552 0.01286823
v -0.001639977 0.00993491 0.003410667
v 0.0008306205 -0.0100299 0.02825803
v -0.001391605 0.009915859 -0.01975501
v -0.0003317297 -7.926673e-05 -0.02825078
v -0.001219556 -0.0001850426 -0.02769321
v -0.001336932 -0.0001992285 -0.02741951
v -0.001457214 -0.000212118 -0.02684772
v -0.00180009 -0.00944303 -0.02684352
v 0.00180012 0.0001806244 -0.02689663
v 0.0006297529 0.004928708 -0.01443344
v 0.0006640255 4.048645e-05 -0.02825814
v 0.001173049 0.0001025125 -0.02789482
v -0.001680985 -0.009466439 -0.02741462
v 0.001419634 -0.01007661 -0.02689281
v 0.001174971 -0.01002753 -0.02750477
v 0.001552358 0.0001491904 -0.02750957
v -0.001082167 0.01007663 -0.01675442
v 0.0004692227 0.005161136 -0.004371226
v -0.000687331 -0.009660393 -0.02824706
v 0.0002970397 -0.009853907 -0.02825332
v -0.001564756 -0.009488441 -0.02768841
v 0.0008003116 -0.009953238 -0.02789062
f 1 2 3
f 4 5 6
f 7 4 6
f 4 7 8
f 2 9 3
f 7 9 8
f 4 9 2
f 9 4 8
f 10 11 1
f 12 4 13
f 12 5 4
f 9 14 3
f 14 7 6
f 14 9 7
f 14 15 3
f 15 14 16
f 15 1 3
f 15 10 1
f 4 17 13
f 10 17 4
f 17 15 16
f 15 17 10
f 18 4 2
f 18 10 4
f 18 11 10
f 1 19 2
f 11 19 1
f 19 18 2
f 18 19 11
f 12 20 5
f 5 20 6
f 14 21 16
f 20 21 14
f 21 20 12
f 22 14 6
f 20 22 6
f 22 20 14
f 23 12 13
f 23 21 12
f 21 23 16
f 17 23 13
f 23 17 16
