v 0.0005419739 -0.004618511 0.03718543
v -6.091967e-05 -0.004523411 -0.03861853
v -6.117672e-05 0.004555896 -0.03861684
v -0.0005419739 0.004793704 0.03861853
v -0.0005411021 0.004634753 -0.03740916
v -0.0005418397 -0.004793718 0.03861666
v 0.0003263541 -0.004655004 0.03803599
v 0.0005410425 0.004618898 0.0371874
v -0.0005406179 -0.004602671 -0.03741127
v 0.0004362129 0.004636854 0.03776118
v 0.0004369356 -0.004636526 0.03775939
v 0.0003259517 0.004654735 0.03803763
f 1 2 3
f 4 5 6
f 2 5 3
f 7 4 6
f 7 2 1
f 8 1 3
f 5 9 6
f 9 5 2
f 9 7 6
f 7 9 2
f 8 10 1
f 10 5 4
f 5 10 3
f 10 8 3
f 11 7 1
f 10 11 1
f 7 12 4
f 12 10 4
f 11 12 7
f 12 11 10
