v -0.003334906 -8.34254e-07 -0.007527769
v -0.003334928 -0.003992736 0.007527858
v -0.003334869 0.003994554 0.007526428
v -0.002291266 -0.003997594 -0.007007569
v -0.0003961362 -0.005929053 0.00662443
v -0.0001663305 -0.005935013 -0.005977541
v 0.002369631 -0.00388962 -0.004505187
v -0.0001655109 0.005934954 -0.005978435
v -0.0003964268 0.00593096 0.006623119
v 0.001976486 0.003800124 0.006323367
v 0.00236949 0.003888726 -0.004506916
v 0.002961215 8.048737e-07 0.006198555
v -0.002291087 0.003997087 -0.007007807
v 0.001976583 -0.003798365 0.006323963
v 0.003334943 2.982342e-07 -0.003946126
f 1 2 3
f 2 1 4
f 5 6 7
f 6 2 4
f 2 6 5
f 1 6 4
f 6 1 8
f 9 8 3
f 10 9 3
f 11 6 8
f 9 11 8
f 11 9 10
f 12 11 10
f 12 10 3
f 2 12 3
f 8 13 3
f 13 1 3
f 1 13 8
f 14 5 7
f 12 14 7
f 14 2 5
f 14 12 2
f 15 12 7
f 12 15 11
f 6 15 7
f 11 15 6
