v 0.0002900064 -0.004566252 -0.005930796
v -0.002491862 -0.003640056 -0.003885493
v 0.001227617 0.005756825 -0.005980238
v 0.002468884 -0.005476564 -0.003992662
v -0.001674056 0.005195618 -0.003924653
v 0.003550738 0.005909532 -0.004025772
v 0.003550708 -0.00591287 4.515037e-06
v 0.003550678 0.00591287 0.004025623
v 0.001226991 0.005761862 0.005980238
v 0.0002904236 -0.004562199 0.005938902
v -0.0024921 -0.003636718 0.003892556
v -0.001674563 0.0051983 0.003924742
v -0.003550738 -0.003286064 3.293142e-06
v 0.00246802 -0.005473852 0.00400202
v -0.002781808 0.004982263 6.109331e-07
f 1 2 3
f 2 1 4
f 2 5 3
f 6 1 3
f 1 6 4
f 6 7 4
f 7 6 8
f 8 9 10
f 9 11 10
f 11 9 12
f 5 9 3
f 9 6 3
f 6 9 8
f 13 11 12
f 13 5 2
f 13 2 4
f 7 13 4
f 14 8 10
f 14 7 8
f 11 14 10
f 13 14 11
f 14 13 7
f 15 13 12
f 13 15 5
f 9 15 12
f 15 9 5
