v -0.004725367 -0.003287062 0.03824413
v 0.004273474 -0.01906912 0.02873147
v 0.00182423 0.01906912 0.03906214
v 0.004908115 0.01575369 -0.02132046
v 0.0009940416 0.01045531 -0.0390622
v -0.00490813 0.005261183 -0.0197472
v 0.004008979 0.01487723 0.005137503
v 0.004885077 -0.01532704 0.02038896
v 0.001559049 -0.004124269 -0.00896734
v 0.003438488 -0.007744551 0.0006795526
f 1 2 3
f 4 5 3
f 5 6 3
f 6 1 3
f 1 6 2
f 7 4 3
f 7 8 4
f 2 8 3
f 8 7 3
f 9 6 5
f 6 9 2
f 4 10 5
f 8 10 4
f 10 9 5
f 10 8 2
f 9 10 2
