v -0.003101677 -0.006416678 -0.01025051
v -0.004593849 0.004168153 -0.01179923
v 0.00570336 0.004372448 -0.009502128
v 0.005704165 -0.004759729 -0.007045478
v 0.0007779896 0.006418139 -0.01042776
v -0.00559327 0.0008358955 0.01083119
v -0.005704165 -0.001231045 -0.01129174
v 0.0004837513 -0.006418139 0.0005538166
v -0.003440559 -0.004881591 0.000136748
v -0.003250763 -0.002467483 0.01179923
v 0.0005255044 -0.004220694 0.01177765
v 0.001868278 -0.006275952 -0.007114783
v -0.005691618 0.001708001 -0.0006107688
v -0.005678177 -0.001324922 -0.0004006624
v 0.003462657 -0.005858153 0.0008060634
f 1 2 3
f 4 1 3
f 2 5 3
f 5 6 3
f 6 5 2
f 1 7 2
f 8 9 1
f 6 9 10
f 11 4 3
f 9 11 10
f 11 9 8
f 6 11 3
f 11 6 10
f 4 12 1
f 12 8 1
f 13 6 2
f 7 13 2
f 14 9 6
f 13 14 6
f 14 13 7
f 14 7 1
f 9 14 1
f 15 12 4
f 12 15 8
f 11 15 4
f 15 11 8
