v -0.004281431 0.0008224845 0.007014096
v -0.005001724 0.00336042 -7.209182e-05
v -0.005270958 -0.00415042 0.0007600486
v 0.00321424 0.006139278 0.001435578
v 0.004042327 0.004727721 0.005224824
v 0.005407453 0.006240427 -0.00401324
v -0.003937036 0.003842682 0.007074684
v -0.005407453 -0.00354442 -0.002216458
v 0.005272031 -0.006240427 -0.001018703
v 0.005407393 -0.004102707 -0.006125659
v -0.004428625 0.004897684 0.003667712
v 0.005407423 -0.004673243 0.004668653
v -0.005393088 4.87268e-05 -0.002429396
v 0.005001336 0.001794606 -0.007074684
f 1 2 3
f 4 5 6
f 5 4 7
f 8 9 3
f 8 10 9
f 11 1 7
f 1 11 2
f 4 11 7
f 2 11 6
f 11 4 6
f 5 12 6
f 9 12 3
f 12 1 3
f 12 5 7
f 1 12 7
f 12 10 6
f 10 12 9
f 2 13 3
f 13 8 3
f 13 2 6
f 8 14 10
f 13 14 8
f 10 14 6
f 14 13 6
