v 0.02513212 0.06231892 0.05278857
v 0.02382952 0.06259 0.05247136
v 0.02728325 0.06191778 0.05253712
v 0.0001072884 0.0622375 0.04451756
v 0.001970708 0.06204188 0.04572341
v 0.001815915 0.06228828 0.04445682
v 0.001601279 0.06137645 0.04969288
v 0.001441836 0.06154811 0.0484945
v 0.001260579 0.06152439 0.04862382
v -0.02328444 0.06270969 0.04248343
v -0.02139717 0.06328285 0.04135353
v -0.02486551 0.06229782 0.0422395
v 0.002621293 0.06230986 0.04449605
v 0.001466691 0.06203532 0.04568541
v -0.0005449653 0.06171918 0.04724811
v 0.0007759333 0.06177759 0.04699181
v 0.005908132 0.06171191 0.04901535
v 0.00106591 0.06275749 0.04218933
v 0.002923548 0.06213593 0.04543354
v -0.001624227 0.06166613 0.04758518
v -0.0006373525 0.06168938 0.04742302
v 0.0008916855 0.061409 0.04932438
v 0.0002106428 0.06106114 0.0519204
v 0.003063798 0.06194186 0.04651125
v -0.001255453 0.06178355 0.04688492
v 0.003246844 0.06197023 0.0464043
v -0.003477275 0.0615449 0.04857959
v 0.006143808 0.06664884 0.0243406
v 0.00663197 0.06664264 0.02444886
v 0.007306755 0.0665791 0.0225604
v 0.0004730225 0.06160605 0.04799369
v 0.003998995 0.06194031 0.04679602
v 0.003427804 0.06187952 0.04696926
v 0.001250803 0.06233215 0.04416669
v -0.02862459 0.05952239 0.04843758
v -0.02752614 0.05842483 0.05479327
v -0.02822751 0.05945778 0.05061825
v -0.02634919 0.05861783 0.05679712
v -0.02747601 0.05913329 0.0535025
v -0.02716655 0.06178463 0.0382666
v -0.02434903 0.06282258 0.0316371
v -0.02616704 0.06199634 0.03488249
v -0.02579832 0.06254292 0.03545941
v -0.02256882 0.06361246 0.02982447
v -0.02002323 0.06414938 0.02664492
v -0.003459692 0.05690312 0.07170921
v -0.00423789 0.05656552 0.07212285
v -0.004754603 0.0555594 0.07359394
v -0.003316462 0.05551159 0.07394384
v -0.02812475 0.06017351 0.04816363
v -0.02808213 0.06098032 0.04319333
v -0.02185857 0.06324172 0.02794117
v -0.006135345 0.05599618 0.07263032
v -0.00521183 0.05626249 0.07241297
v -0.02841085 0.06056452 0.0428867
v -0.02764505 0.06127012 0.03906811
v -0.02022749 0.06362629 0.02621276
v -0.02302152 0.05987453 0.05676483
v -0.01904625 0.06078434 0.05567173
v -0.01925135 0.06113601 0.05521116
v -0.02424985 0.0588516 0.05775195
v -0.01906687 0.06014419 0.0559159
v -0.02477348 0.05911028 0.05733584
v -0.024876 0.05809426 0.05789833
v -0.02658409 0.05802655 0.05704787
v -0.02507728 0.05862558 0.05772497
v -0.005110085 0.05636096 0.0722798
v -0.005347729 0.05601871 0.07277422
v -0.005248129 0.05574012 0.07321865
v -0.01754707 0.06478751 0.02685715
v -0.01746917 0.06404686 0.02600006
v -0.01915854 0.06381273 0.02575044
v 0.003999174 0.06194115 0.04679599
v 0.003247142 0.06197071 0.04640426
v 0.003427982 0.0618794 0.04696913
v -0.0005447268 0.06172132 0.04724841
v -0.001255035 0.06178439 0.04688498
v -0.001624107 0.06166744 0.04758527
v -0.01673418 0.06410825 0.02654759
v 0.002923667 0.06213689 0.04543377
v 0.002621531 0.06231034 0.04449612
v 0.001970649 0.06204379 0.04572355
v 0.001816154 0.06228852 0.0444566
v 0.0001075864 0.06223822 0.04451773
v 0.0006724 0.06218863 0.04480673
v -0.01761919 0.06081271 0.05417458
v -0.01805866 0.06143117 0.05379451
v 0.001601577 0.06137681 0.04969271
v 0.001260877 0.06152511 0.04862344
v 0.0008918643 0.06141162 0.04932448
v 0.0008535981 0.06176281 0.04710428
v -0.0006185174 0.06168723 0.04742698
v 0.001441956 0.06154978 0.04849463
v 0.00305903 0.06193972 0.04651108
v 0.00146699 0.06203532 0.04568529
v 0.0007765889 0.06178045 0.04699162
v -0.001713574 0.06070471 0.05597335
v -0.004288554 0.06069314 0.0570823
v -0.002281606 0.06058097 0.05859982
v 0.009374321 0.06532478 0.03524805
v 0.006881475 0.06424665 0.03779421
v 0.01193571 0.06503642 0.037312
v -0.01849705 0.06154037 0.05373641
v 0.0008084774 0.06081557 0.05448306
v -0.0003127456 0.0605582 0.05886775
v 0.006346941 0.06112814 0.05401134
v 0.004189312 0.06129014 0.05120501
v -0.01547909 0.06390357 0.03666794
v -0.01344538 0.06479836 0.03374763
v -0.01560515 0.0643326 0.03642942
v 0.004257381 0.06388533 0.03842134
v 0.002326667 0.06391811 0.03796192
v -0.01373494 0.06519902 0.03315681
v -0.01808673 0.06398356 0.03977368
v -0.01854581 0.06179821 0.04756667
v -0.01749718 0.06294453 0.04086219
v -0.01882017 0.06292486 0.04478625
v -0.01829088 0.063573 0.04156502
v -0.019279 0.06319714 0.0440998
v -0.0194726 0.06266165 0.04715937
v -0.01881999 0.06229019 0.04775455
v -0.007681608 0.06081223 0.05885609
v -0.004282951 0.06056833 0.06078307
v 0.01057106 0.06234491 0.0482351
v 0.008530796 0.06241 0.04626357
v 0.00870645 0.06167459 0.05119061
v -0.01018113 0.06179976 0.05000151
v -0.01347196 0.06283617 0.04623402
v -0.012088 0.06163406 0.05346248
v 0.006413698 0.06552505 0.03365052
v -0.003513098 0.06090283 0.05369122
v 0.01583588 0.06387734 0.04462579
v 0.012734 0.0630542 0.04598621
v 0.01598173 0.06321049 0.04847705
v 0.003774703 0.06492901 0.03492135
v -0.01386887 0.06534863 0.03139819
v -0.01308268 0.06503701 0.03189275
v -0.007638872 0.06256533 0.04419516
v -0.01053733 0.06257749 0.04562019
v -0.01320165 0.0646894 0.03090704
v -0.01278859 0.06455135 0.03239252
v -0.0003842115 0.0636065 0.03879319
v -0.002013564 0.06248295 0.04335276
v -0.01522958 0.06526995 0.02995439
v -0.01498204 0.06512964 0.02946321
v 0.006235182 0.06189847 0.04798733
v -0.006466091 0.06339896 0.04027701
v -0.01746875 0.061782 0.0255591
v -0.0199247 0.0620414 0.02573311
v -0.02285922 0.06238115 0.04548962
v -0.02434105 0.06234241 0.0431013
v -0.02463353 0.06176698 0.04640172
v -0.01891273 0.06451023 0.03383317
v -0.01952738 0.06448841 0.03067417
v -0.02272725 0.06361413 0.03411733
v -0.001758873 0.06116772 0.05102208
v -0.01610982 0.06490183 0.03398219
v -0.02412742 0.06106007 0.050775
v -0.02612644 0.05991423 0.0527525
v 0.000787735 0.06476223 0.03503121
v -0.0224511 0.06297863 0.04198252
v -0.011006 0.06295943 0.04404048
v -0.01989079 0.06394196 0.03838634
v 0.01196879 0.06364965 0.04253269
v -0.008352339 0.06110692 0.0547545
v -0.0103243 0.0611999 0.0562164
v -0.01257682 0.06356037 0.04220486
v -0.01121706 0.06406844 0.03945802
v -0.02135688 0.06180513 0.0504532
v -0.02679813 0.06118989 0.04546501
v -0.02329165 0.06327152 0.03765683
v -0.02608329 0.06206715 0.04093467
v -0.02382731 0.06268287 0.04161914
v 0.01492846 0.06440043 0.04111041
v 0.01329136 0.06185567 0.05595519
v 0.01009554 0.06125855 0.05892103
v -0.002808571 0.06450105 0.0358386
v 0.00541383 0.06252134 0.04424998
v 0.006953835 0.06085265 0.06083343
v -0.0009778142 0.06544888 0.03296863
v -0.003561437 0.0615629 0.0484623
v 0.002210736 0.06061196 0.05830865
v 0.0002290606 0.06050384 0.06183158
v 0.01516086 0.06253338 0.05228243
v 0.009287119 0.06383586 0.0402359
v -0.007333994 0.06488752 0.03535599
v -0.009407759 0.06450808 0.03718595
v 0.01277244 0.06229866 0.05079024
v 0.01753008 0.0596962 0.06509426
v 0.0161007 0.06063056 0.06305381
v 0.0155822 0.05998135 0.06308863
v 0.01955616 0.05795836 0.06753965
v 0.02089143 0.0583365 0.06760585
v 0.01902014 0.05951321 0.06581138
v 0.01986933 0.05846763 0.06742652
v 0.0131647 0.06264853 0.04887441
v 0.01621091 0.06098616 0.06204274
v 0.02211362 0.05737162 0.06792297
v 0.02258736 0.05796134 0.06739628
v 0.01605523 0.06103027 0.06102037
v 0.01537794 0.06028581 0.06158978
v 0.01815754 0.06107759 0.05752941
v -0.004749894 0.06503284 0.03326076
v -0.009802341 0.06424737 0.03649408
v -0.007852137 0.06435168 0.0346131
v 0.02015722 0.06184089 0.0532444
v 0.01968706 0.06205559 0.05594858
v 0.02143431 0.06288183 0.05206248
v 0.02123398 0.06299424 0.05008923
v -0.01355088 0.0628233 0.04211377
v -0.01358145 0.06310427 0.04324786
v -0.0127582 0.06311166 0.04017281
v 0.02198631 0.06373763 0.04716832
v 0.02004004 0.06212425 0.05616227
v 0.02109742 0.06282949 0.04783347
v 0.02058077 0.06461155 0.04105415
v 0.02141142 0.06362891 0.04650643
v -0.007945716 0.06056345 0.05926012
v -0.01183146 0.06051397 0.05562817
v -0.009251773 0.06016326 0.05858158
v 0.02008057 0.06391096 0.04099246
v -0.00791198 0.06002676 0.05965037
v -0.004719257 0.05980825 0.06142384
v -0.003877342 0.06019306 0.06152979
v -0.00146538 0.05957913 0.06239591
v 0.001745105 0.06021655 0.06238828
v 0.02922654 0.06357014 0.037678
v 0.03050083 0.06269157 0.04313107
v 0.03012943 0.0627774 0.03861579
v 0.03102148 0.06219125 0.04450162
v 0.03096247 0.06211257 0.04206888
v 0.03081924 0.06156135 0.04923607
v 0.003201723 0.06550431 0.03236033
v 0.0312379 0.0608201 0.04966649
v 0.02692127 0.05839014 0.06246322
v 0.02471554 0.05804276 0.06540282
v 0.03073746 0.06061876 0.05246746
v 0.02925861 0.05928469 0.05787674
v 0.02948391 0.06330442 0.03725095
v 0.0007867217 0.06541049 0.03214776
v 0.02891886 0.05990231 0.05775616
v -0.01131594 0.0640043 0.03854962
v -0.01442707 0.06186962 0.04690087
v 0.02463967 0.05870283 0.06456359
v 0.02670842 0.05901098 0.06218258
v 0.03009921 0.06067085 0.05390588
v -0.01179528 0.06122577 0.05497877
v 0.001523614 0.06500077 0.03173605
v -0.001497149 0.06499457 0.03201605
v 0.02781957 0.06389832 0.03635228
v 0.02869928 0.0632931 0.03631096
v 0.02668732 0.0636586 0.03602391
v 0.02638453 0.0643779 0.03720749
v 0.02373588 0.06464136 0.03796388
v -0.01380193 0.06225324 0.04899082
v -0.01418787 0.06148529 0.04969857
v -0.01322043 0.06093216 0.05302206
v 0.02175486 0.06490314 0.03941998
v 0.0213843 0.06469715 0.03890669
v 0.02075487 0.06412911 0.0390351
v 0.02061558 0.06466842 0.04004848
v 0.0248577 0.06096888 0.05818552
v 0.02220142 0.06021011 0.06229453
v 0.02595097 0.06020594 0.05975223
v 0.01971519 0.06142986 0.05934085
v 0.02829397 0.06372666 0.03975429
v 0.02577335 0.06428111 0.04005618
v 0.0280202 0.0632056 0.04503554
v 0.02360284 0.06345832 0.04819462
v 0.02512777 0.06231856 0.05278599
v 0.0268814 0.06297576 0.04798806
v 0.02924043 0.06194115 0.05008028
v 0.02673692 0.06223869 0.05172953
v 0.02855796 0.06103098 0.05458713
v -0.01121521 0.06357968 0.03776216
v 0.02600801 0.06201279 0.05339843
v 0.02025735 0.06066811 0.06190861
v 0.02494019 0.06399846 0.04368044
v 0.02309608 0.0617559 0.05652335
v 0.00418669 0.06494188 0.03196561
v 0.002824843 0.05968702 0.06257416
v 0.007281065 0.06041539 0.06132537
v 0.003626645 0.06021416 0.06229711
v 0.008742869 0.06020069 0.0608038
v 0.01025134 0.06084275 0.05965874
v 0.01566321 0.06207931 0.05294118
v 0.01330376 0.06152439 0.05668649
v 0.01502734 0.06146038 0.05466634
v 0.01653039 0.06220007 0.05074175
v 0.0163852 0.06309319 0.04862318
v 0.01575845 0.0637852 0.04137045
v 0.01663291 0.06339669 0.04563984
v 0.01680136 0.06300998 0.04487486
v 0.01438844 0.06410766 0.03873412
v 0.01354069 0.0647552 0.03852854
v 0.01141751 0.06505871 0.0360194
v 0.01112717 0.06470132 0.03522617
v 0.00667876 0.06543016 0.03320282
v 0.006725013 0.06502318 0.03274807
v 0.009831965 0.05944562 0.06741521
v 0.009698987 0.05908918 0.06650195
v 0.008254588 0.05982637 0.06684007
v 0.007355034 0.05915499 0.06577659
v 0.00749886 0.05964494 0.06612455
v -0.01030916 0.05097234 0.07797777
v -0.0100503 0.05043256 0.07824877
v -0.004690349 0.0508256 0.07943098
v -0.01654273 0.05158687 0.07497992
v -0.01338315 0.05082953 0.07692072
v -0.01565146 0.05181372 0.07551459
v -0.002070189 0.05044448 0.08002455
v 0.001946032 0.05071592 0.08026635
v 0.002588034 0.05123639 0.08009639
v 0.01203406 0.06060171 0.058504
v 0.007386208 0.05312657 0.07837507
v 0.00442934 0.05172908 0.07981308
v 0.005506992 0.0512743 0.07980523
v 0.01230848 0.05470908 0.07589898
v 0.01242757 0.05541277 0.0753144
v -0.01803899 0.05385065 0.07213542
v -0.02093446 0.05574059 0.06803632
v -0.01937705 0.05387044 0.07094643
v -0.021213 0.05478704 0.06820144
v -0.01447743 0.05710638 0.06852426
v -0.01319665 0.05843282 0.0663454
v -0.01818192 0.05820417 0.06508643
v -0.005803764 0.05650043 0.07191017
v -0.009127736 0.0562197 0.07157952
v -0.008423388 0.05469608 0.07405261
v -0.004883766 0.05396068 0.07582737
v -0.004621625 0.0550338 0.07438599
v -0.0150547 0.05926311 0.0639285
v -0.01471877 0.05991864 0.0621862
v -0.01862633 0.05633879 0.06832241
v -0.01538837 0.05536318 0.07107342
v -0.01107663 0.05256009 0.0760534
v -0.0145877 0.05339408 0.07400787
v -0.005851388 0.05923629 0.06658379
v -0.00686717 0.05807269 0.06886955
v -0.006074846 0.05215156 0.07775569
v -0.01359057 0.06009662 0.06199384
v -0.02051926 0.05661798 0.06683711
v -0.0002270341 0.05711925 0.07192682
v 0.01308805 0.05469692 0.07503416
v 0.01327813 0.05554616 0.07411601
v 0.01310104 0.05607998 0.07316916
v 0.01282209 0.05636322 0.0736234
v 0.01119548 0.05786681 0.07158873
v 0.01190072 0.05655289 0.07376943
v 0.01024914 0.05881369 0.06964381
v 0.01095152 0.05853629 0.06956834
v -0.02130955 0.05538762 0.06681421
v -0.02084076 0.05645609 0.06623798
v -0.02073467 0.05614424 0.06572186
v 0.008876026 0.05492997 0.07619078
v 0.004058421 0.05378711 0.07737132
v 0.003079355 0.05555367 0.07485192
v -0.0007768869 0.05368292 0.07690206
v -0.002854824 0.05632782 0.07278153
v 0.007865727 0.05664575 0.0736265
v 0.008849919 0.0578897 0.07151425
v -4.053116e-05 0.05916381 0.06781375
v 0.01203835 0.06555963 0.01925103
v 0.01551604 0.06595552 0.02159054
v 0.01631147 0.06569815 0.02158409
v -0.002069235 0.05238295 0.07825073
v 0.01138526 0.06613874 0.01963775
v 0.008718312 0.06592488 0.01838247
v 0.01468456 0.06548309 0.02043771
v 0.01908386 0.06525445 0.02316216
v 0.01868051 0.06568241 0.02350423
v 0.02217984 0.0647434 0.02567783
v 0.02199072 0.06532609 0.02658742
v 0.00610435 0.06570649 0.01765414
v 0.006415367 0.06624389 0.01825664
v 0.0217452 0.06527138 0.02901662
v 0.0225811 0.06497478 0.02741296
v 0.02207798 0.06470335 0.02911399
v 0.008721173 0.06653821 0.0281428
v 0.01120269 0.06545448 0.03031527
v 0.01580715 0.0659802 0.03256714
v 0.01589036 0.06573117 0.0330341
v 0.003578186 0.05927181 0.0669847
v 0.003710687 0.05884469 0.06655753
v 0.001204252 0.05863929 0.06666592
v -0.002188504 0.05905676 0.06679258
v -0.003216267 0.05866647 0.06615281
v 0.005448759 0.06571364 0.02808151
v 0.008348048 0.06570363 0.0289522
v 0.005497873 0.06630111 0.0278164
v -0.008735478 0.05899477 0.06399158
v -0.01047224 0.05967259 0.06367264
v -0.005515218 0.05920565 0.06610128
v 0.01478606 0.06518435 0.03294153
v -0.01267385 0.06002975 0.06183581
v -0.01236117 0.0594461 0.06131348
v -0.01338434 0.0595814 0.06101472
v -0.01502544 0.05967772 0.06159154
v -0.0154075 0.05921841 0.06155711
v 0.002790332 0.06659842 0.0269106
v 0.0007458329 0.06634843 0.02729743
v -0.001313686 0.06650114 0.02697036
v -0.005139649 0.06593943 0.02838758
v 0.0008034706 0.06577015 0.02763876
v -0.01884258 0.05790567 0.06510917
v -0.001296818 0.06555247 0.02779306
v -0.008586884 0.06549716 0.01918867
v -0.008275807 0.06518865 0.0187892
v -0.009509563 0.06516147 0.01983082
v -0.004859984 0.06541395 0.02857676
v -0.008904338 0.06570876 0.01992109
v -0.009678304 0.06559825 0.02128772
v -0.009822488 0.06514001 0.02215818
v -0.009043157 0.06591296 0.02195389
v -0.007901609 0.06616473 0.02465181
v -0.00711745 0.06606257 0.0272441
v -0.005616844 0.06634927 0.02570268
v 0.004997134 0.06668031 0.02520412
v -0.0005351901 0.06661117 0.02445102
v 0.002672911 0.06655431 0.02072546
v -0.003424525 0.06637692 0.02126339
v -0.003921688 0.06600237 0.01830812
v -0.007031143 0.06544304 0.02791198
v 0.007486463 0.06653428 0.02175236
v -0.006206214 0.06588602 0.02821452
v 0.005313635 0.06663251 0.02300351
v 0.007952034 0.0666033 0.0235823
v 0.01541454 0.06618643 0.02429652
v 0.01142555 0.06643653 0.02275761
v -0.0007283092 0.06558537 0.0173274
v 0.00288862 0.06596959 0.01752385
v 0.0197109 0.0657444 0.02670439
v 0.01690799 0.06611681 0.02856032
v 0.02038896 0.06568432 0.02968238
v -0.003385246 0.06578779 0.01784084
v 0.01117712 0.06653404 0.02663675
v 0.01780915 0.06503916 0.03288791
v 0.01755381 0.06540036 0.03293356
v 0.01731962 0.06577015 0.03271623
v 0.01612395 0.06509662 0.03336696
f 1 2 3
f 4 5 6
f 7 8 9
f 10 11 12
f 13 6 5
f 14 5 4
f 4 15 16
f 14 4 16
f 17 18 19
f 15 20 21
f 16 15 21
f 7 22 23
f 8 16 21
f 24 5 14
f 4 18 25
f 26 19 5
f 25 18 27
f 28 29 30
f 26 5 24
f 31 21 22
f 22 21 20
f 17 32 7
f 32 19 26
f 24 16 33
f 17 7 23
f 23 20 27
f 33 16 8
f 34 18 4
f 33 26 24
f 6 18 34
f 17 19 32
f 13 18 6
f 8 31 9
f 9 31 22
f 22 20 23
f 32 33 7
f 4 25 15
f 18 13 19
f 7 33 8
f 20 25 27
f 35 36 37
f 38 39 36
f 40 41 42
f 41 43 44
f 45 41 44
f 46 47 48
f 46 48 49
f 50 37 39
f 43 40 51
f 35 37 50
f 42 41 52
f 35 50 51
f 40 43 41
f 47 53 54
f 46 53 47
f 35 51 55
f 56 51 40
f 55 51 56
f 56 40 42
f 41 57 52
f 41 45 57
f 37 36 39
f 48 53 49
f 58 59 60
f 61 62 59
f 61 58 63
f 62 61 64
f 58 61 59
f 38 65 66
f 63 38 66
f 54 53 48
f 66 64 61
f 63 66 61
f 64 66 65
f 38 36 65
f 67 68 69
f 70 71 72
f 45 72 57
f 70 72 45
f 73 74 75
f 76 77 78
f 70 79 71
f 80 81 82
f 83 84 85
f 60 86 87
f 88 89 90
f 91 92 93
f 94 95 96
f 97 98 99
f 100 101 102
f 103 60 87
f 104 97 105
f 59 62 86
f 106 107 104
f 60 59 86
f 108 109 110
f 101 111 112
f 110 113 114
f 115 116 117
f 110 118 116
f 116 118 117
f 117 119 120
f 121 117 120
f 115 117 121
f 98 122 123
f 124 125 126
f 118 110 114
f 118 119 117
f 127 128 129
f 130 101 100
f 87 120 103
f 121 120 87
f 115 121 87
f 97 131 98
f 132 133 134
f 119 118 114
f 111 101 135
f 87 86 115
f 113 110 109
f 116 108 110
f 136 113 137
f 138 139 127
f 136 137 140
f 108 141 109
f 137 141 140
f 109 141 137
f 126 107 106
f 113 109 137
f 112 142 143
f 144 136 145
f 145 70 144
f 126 146 107
f 104 131 97
f 70 145 79
f 143 147 138
f 145 140 79
f 139 128 127
f 140 145 136
f 71 79 148
f 101 130 135
f 72 149 57
f 71 148 72
f 150 151 152
f 153 154 155
f 156 104 107
f 157 144 153
f 58 158 63
f 157 113 136
f 158 159 63
f 135 160 112
f 112 160 142
f 150 161 151
f 139 162 128
f 126 125 146
f 133 125 124
f 155 44 43
f 119 163 161
f 132 164 133
f 122 165 166
f 104 156 131
f 98 165 122
f 157 136 144
f 155 154 44
f 162 167 128
f 114 163 119
f 138 168 162
f 164 125 133
f 103 120 169
f 153 144 154
f 170 51 50
f 161 163 171
f 170 172 51
f 151 173 172
f 161 171 173
f 63 159 39
f 132 174 164
f 131 165 98
f 169 152 158
f 63 39 38
f 173 171 172
f 142 147 143
f 120 119 169
f 144 70 154
f 168 167 162
f 135 130 160
f 147 168 138
f 175 126 176
f 160 177 142
f 125 178 146
f 169 150 152
f 176 106 179
f 130 180 160
f 156 181 131
f 179 182 183
f 154 45 44
f 175 184 126
f 142 177 147
f 131 127 165
f 164 185 125
f 169 119 150
f 174 102 164
f 158 50 159
f 165 129 166
f 114 157 163
f 160 180 177
f 176 126 106
f 102 185 164
f 125 185 178
f 154 70 45
f 163 153 171
f 180 186 177
f 181 127 131
f 159 50 39
f 177 186 147
f 186 187 147
f 147 187 168
f 172 171 43
f 163 157 153
f 50 158 152
f 165 127 129
f 182 105 183
f 170 50 152
f 151 170 152
f 151 172 170
f 172 43 51
f 119 161 150
f 171 153 155
f 103 169 60
f 60 158 58
f 114 113 157
f 188 126 184
f 60 169 158
f 185 101 178
f 171 155 43
f 183 105 123
f 189 190 191
f 192 189 191
f 184 134 188
f 193 194 195
f 179 106 182
f 134 196 188
f 99 123 105
f 189 195 194
f 181 138 127
f 178 112 143
f 195 189 192
f 143 138 181
f 194 197 190
f 178 101 112
f 189 194 190
f 195 192 193
f 182 104 105
f 188 124 126
f 106 104 182
f 102 101 185
f 193 192 198
f 134 133 196
f 196 133 124
f 99 98 123
f 193 198 199
f 200 201 191
f 200 191 190
f 190 197 200
f 201 200 202
f 203 204 186
f 203 205 204
f 206 202 207
f 207 208 209
f 210 211 212
f 209 206 207
f 208 213 209
f 202 200 207
f 214 208 207
f 200 214 207
f 215 206 209
f 216 217 213
f 218 219 220
f 215 217 221
f 218 220 222
f 221 217 216
f 209 213 217
f 218 222 223
f 224 218 223
f 217 215 209
f 224 223 225
f 197 214 200
f 224 225 226
f 227 228 229
f 228 230 231
f 230 228 232
f 233 180 130
f 230 232 234
f 235 236 198
f 237 238 234
f 239 227 229
f 234 231 230
f 180 240 203
f 238 241 235
f 187 204 242
f 167 242 212
f 167 212 211
f 211 243 128
f 244 236 245
f 229 228 231
f 237 232 246
f 234 232 237
f 166 247 219
f 237 246 241
f 218 166 219
f 238 237 241
f 241 245 235
f 183 123 224
f 183 224 226
f 236 244 199
f 248 249 240
f 180 203 186
f 198 236 199
f 236 235 245
f 250 251 252
f 187 186 204
f 227 251 250
f 168 187 242
f 227 250 253
f 168 242 167
f 250 252 254
f 229 251 239
f 128 167 211
f 255 128 243
f 255 243 256
f 255 256 257
f 227 239 251
f 247 255 257
f 250 254 253
f 254 258 253
f 122 166 218
f 258 254 259
f 260 259 252
f 252 259 254
f 258 259 216
f 216 259 261
f 261 221 216
f 123 218 224
f 261 260 221
f 259 260 261
f 262 263 264
f 214 197 265
f 240 249 203
f 266 267 268
f 269 208 270
f 271 272 268
f 203 249 205
f 166 129 247
f 272 271 273
f 262 264 274
f 204 205 275
f 218 123 122
f 262 274 276
f 264 263 244
f 242 204 275
f 268 232 228
f 265 197 277
f 212 242 275
f 216 213 258
f 270 273 271
f 258 213 278
f 211 210 243
f 268 272 232
f 208 279 270
f 264 245 241
f 129 255 247
f 258 267 253
f 270 279 276
f 258 278 267
f 277 194 263
f 264 244 245
f 247 257 219
f 129 128 255
f 253 267 266
f 197 194 277
f 280 248 233
f 240 233 248
f 272 246 232
f 273 274 272
f 233 240 180
f 253 266 227
f 278 268 267
f 273 276 274
f 263 194 244
f 214 265 208
f 213 269 278
f 208 265 279
f 272 274 246
f 281 282 283
f 281 284 282
f 194 193 244
f 282 285 176
f 284 285 282
f 279 262 276
f 244 193 199
f 286 287 288
f 286 288 289
f 286 289 290
f 269 271 278
f 278 271 268
f 265 277 279
f 291 292 293
f 294 174 291
f 295 294 296
f 266 268 228
f 296 294 297
f 266 228 227
f 213 208 269
f 274 241 246
f 269 270 271
f 279 277 263
f 298 297 299
f 279 263 262
f 274 264 241
f 298 299 280
f 300 301 302
f 298 280 233
f 303 304 301
f 301 304 302
f 305 306 307
f 308 309 310
f 281 226 225
f 305 309 306
f 310 309 305
f 311 312 313
f 183 226 179
f 281 283 226
f 313 307 311
f 306 311 307
f 287 285 314
f 315 316 317
f 317 316 312
f 312 316 313
f 292 290 293
f 318 319 315
f 174 292 291
f 318 315 317
f 174 294 295
f 310 320 308
f 320 321 322
f 308 320 322
f 323 322 321
f 296 297 298
f 324 325 326
f 327 328 329
f 330 331 329
f 329 331 327
f 179 282 176
f 325 332 326
f 287 176 285
f 284 314 285
f 333 326 332
f 175 287 286
f 324 334 335
f 286 184 175
f 184 286 290
f 184 290 134
f 336 337 310
f 338 332 325
f 324 326 334
f 328 335 329
f 295 296 102
f 100 102 296
f 339 324 328
f 330 329 336
f 100 296 298
f 330 336 340
f 338 341 332
f 337 335 320
f 100 298 130
f 337 320 310
f 233 130 298
f 335 334 320
f 339 325 324
f 320 334 321
f 329 335 337
f 292 134 290
f 334 326 342
f 174 132 292
f 340 305 307
f 340 336 305
f 334 342 321
f 328 324 335
f 338 339 343
f 329 337 336
f 341 333 332
f 336 310 305
f 339 328 327
f 176 287 175
f 288 287 314
f 338 325 339
f 318 344 319
f 345 344 346
f 347 344 345
f 319 344 347
f 347 345 346
f 289 293 290
f 347 348 349
f 102 174 295
f 300 350 351
f 302 350 300
f 300 351 301
f 134 292 132
f 346 301 351
f 347 351 348
f 346 351 347
f 348 351 350
f 352 353 354
f 353 352 321
f 342 353 321
f 321 352 323
f 355 356 315
f 357 358 356
f 356 316 315
f 343 359 357
f 226 283 179
f 348 360 349
f 343 339 327
f 283 282 179
f 349 360 355
f 327 359 343
f 361 343 360
f 362 343 361
f 349 319 347
f 356 358 316
f 363 364 365
f 316 358 366
f 363 367 364
f 368 367 363
f 359 331 357
f 349 355 319
f 357 330 358
f 316 366 313
f 369 365 370
f 370 365 371
f 365 364 371
f 372 371 373
f 374 368 363
f 357 331 330
f 375 367 368
f 343 357 360
f 369 363 365
f 358 330 366
f 366 307 313
f 360 357 356
f 360 356 355
f 370 371 372
f 373 376 377
f 376 378 377
f 330 340 366
f 366 340 307
f 355 315 319
f 377 372 373
f 362 338 343
f 350 361 348
f 350 302 362
f 350 362 361
f 361 360 348
f 379 380 381
f 381 380 382
f 383 362 302
f 384 385 383
f 383 302 304
f 338 362 386
f 385 387 386
f 303 383 304
f 384 383 303
f 388 389 390
f 389 380 379
f 389 379 390
f 385 386 383
f 362 383 386
f 391 392 393
f 380 394 382
f 392 338 393
f 391 393 387
f 386 393 338
f 387 393 386
f 341 338 392
f 341 392 395
f 395 392 391
f 395 391 396
f 341 397 398
f 398 397 399
f 333 341 398
f 390 379 400
f 401 402 403
f 390 404 388
f 395 396 397
f 341 395 397
f 405 398 354
f 342 326 405
f 342 405 353
f 353 405 354
f 399 354 398
f 401 406 404
f 402 401 400
f 405 333 398
f 326 333 405
f 407 408 409
f 404 390 401
f 406 403 410
f 390 400 401
f 411 407 409
f 401 403 406
f 411 409 412
f 412 409 413
f 411 412 414
f 412 415 414
f 415 416 417
f 400 418 419
f 419 420 421
f 402 417 416
f 414 422 411
f 414 421 422
f 413 415 412
f 423 416 413
f 413 416 415
f 424 375 420
f 416 423 425
f 425 423 410
f 425 410 403
f 426 418 427
f 416 425 403
f 416 403 402
f 402 400 419
f 420 375 422
f 420 426 424
f 418 426 420
f 417 419 421
f 415 421 414
f 428 371 364
f 421 420 422
f 400 379 418
f 417 421 415
f 402 419 417
f 419 418 420
f 424 429 375
f 374 375 368
f 430 431 374
f 374 431 375
f 428 432 371
f 433 434 432
f 431 430 435
f 422 431 435
f 379 381 436
f 375 429 367
f 435 408 407
f 429 364 367
f 434 373 432
f 436 433 428
f 422 407 411
f 371 432 373
f 429 428 364
f 435 430 408
f 436 428 429
f 422 435 407
f 433 436 381
f 375 431 422
f 381 434 433
f 428 433 432
f 418 379 436
f 418 436 427
f 437 376 438
f 427 429 424
f 376 434 439
f 439 434 381
f 427 436 429
f 382 394 440
f 378 376 437
f 376 439 438
f 382 440 438
f 373 434 376
f 439 382 438
f 381 382 439
f 438 440 437
