v -0.001151269 -0.002336696 0.02083838
v 0.002002474 1.519173e-05 0.01801086
v -0.001303485 -0.003350414 0.01910582
v -0.001090216 -0.001191918 0.02150419
v -0.001072297 0.0009178165 0.02166523
v -0.001172948 0.002586227 0.02059778
v -0.001320279 0.003477966 0.01876291
v 0.004007144 0.01040085 -0.02335263
v 0.005272016 -0.01030863 -0.0234211
v 0.005322019 0.01030088 -0.02343137
v 0.003814192 -0.0104059 -0.02329624
v 0.003238458 0.01032555 -0.02092915
v 0.003143659 -0.01020945 -0.02212138
v 0.003107622 0.01039907 -0.02246567
v 0.003219981 -0.01034049 -0.02088467
v -0.01194521 0.01036128 -0.02413294
v -0.006462224 0.01047011 -0.02467042
v -0.0121288 0.01037747 -0.02578991
v -0.006323318 0.0103445 -0.02257732
v -0.003696228 0.01050131 -0.02283672
v -0.0002724323 0.01038477 -0.008034738
v 0.003856162 0.01050177 -0.009536974
v -0.001576996 0.01038164 -0.0090042
v -0.002836268 0.01040624 -0.02191742
v 0.003134988 0.01033524 -0.008356664
v 0.006172068 0.01045665 -0.02577301
v 0.006404579 0.01024915 -0.02360583
v 0.01156362 0.01037653 -0.02782702
v 0.01166503 0.01033615 -0.02619331
v -0.004084606 -0.01020848 -0.02258694
v -0.006491413 -0.006777318 -0.02247369
v -0.006344644 -0.01033233 -0.02256948
v -0.004087204 0.0102141 -0.02259499
v -0.006522611 0.006694914 -0.02248409
v -0.008381311 0.00504184 -0.02235955
v -0.01174553 0.00488681 -0.02206593
v -0.008032808 -0.00487408 -0.02226336
v -0.01180975 -0.004863093 -0.02210766
v -0.01196657 -0.01033868 -0.0241251
v -0.01204471 -0.004850157 -0.02415846
v -0.01213766 -0.01036708 -0.02576385
v -0.01203468 0.004872847 -0.02416212
v 0.01151538 -0.01040317 -0.02784728
v 0.01172789 -0.004914325 -0.02623393
v 0.01164369 -0.01036382 -0.0261854
v 0.01187107 0.004825117 -0.02416345
v 0.01181915 -0.004851688 -0.02410981
v 0.01170931 0.004899545 -0.02621682
v 0.008685354 0.004730873 -0.02373175
v 0.008701332 -0.004746228 -0.02373207
v -0.00156324 -0.01040242 -0.009053826
v -0.002900051 -0.01039466 -0.02195318
v 0.002959672 -0.01032562 -0.00828927
v -0.0004779939 -0.01037683 -0.008063052
v 0.006349904 -0.01027552 -0.0235836
v 0.006198851 -0.01046622 -0.02576541
v -0.006483816 -0.01045921 -0.0246625
v -0.003733069 -0.01049444 -0.02283687
v 0.003834561 -0.01050068 -0.009529045
v 0.002901597 -0.01050169 -0.0224811
v 0.006418422 -0.007080736 -0.02563004
v 0.007950004 -0.005216023 -0.02576425
v 0.008910891 -0.005040532 -0.02404063
v 0.007700358 -0.005565014 -0.02393526
v 0.006589472 -0.006981527 -0.02383914
v -0.008390425 -0.005143557 -0.02433829
v -0.006724548 -0.006986694 -0.0244831
v -0.008410489 -0.005112691 -0.02253568
v 0.006418556 0.00709666 -0.02563412
v 0.00796075 0.005196305 -0.02576816
v 0.00661217 0.006955921 -0.02385533
v 0.007711818 0.005547134 -0.02393944
v 0.008913111 0.00502163 -0.02404134
v -0.008871976 0.005059611 -0.02429923
v -0.006679372 0.00716132 -0.02449113
v -0.007557881 0.005784974 -0.02441407
v 0.004136872 -0.01019759 -0.009499317
v 0.004166393 0.01019411 -0.009597618
v 0.006428331 0.006559146 -0.02352939
v 0.00639144 -0.006609628 -0.02352266
v 0.008771168 0.01028343 -0.02372323
v 0.004058955 0.008809857 0.008726109
v 0.004055358 -0.008796172 0.008715302
v 0.01213774 0.01038146 -0.008780815
v 0.01213618 -0.01040793 -0.008926276
v 0.002812263 -0.008737713 0.008919083
v 0.002830751 0.008757609 0.008912779
v 0.004265245 0.005344452 0.0266616
v 0.004034027 0.008669665 0.02268799
v 0.004072759 0.007815466 0.02515321
v 0.004285891 -0.004786333 0.0266844
v 0.004077977 -0.008524625 0.02339309
v 0.00419282 -0.006532632 0.02610538
v -0.0003091302 -0.005513195 0.02711166
v -0.0005325964 0.005486922 0.02701719
v -0.0008742064 0.008797544 0.02340306
v -0.0005981736 0.007103065 0.0260932
v -0.0006387625 -0.005471826 0.02683943
v -0.002148425 0.008759396 0.009347085
v -0.001491095 0.00307841 0.0168062
v -0.001616862 0.001969745 0.01547724
v -0.000634471 -0.007719072 0.02552211
v -0.0008380152 -0.008784231 0.02348988
v -0.001659796 -0.0001287162 0.01483401
v -0.001474366 -0.003151441 0.01708904
v -0.002166625 -0.008734738 0.009354003
v -0.001613021 -0.001927376 0.01551609
v -0.003465088 -0.008994246 0.009307008
v -0.003536138 0.009030779 0.009204682
v 0.004351862 0.01019343 -0.008037867
v -0.003591632 -0.008946884 0.009051368
v 0.00432412 -0.01018734 -0.008026982
v 0.01108787 0.01035057 -0.02178194
v 0.01102152 -0.01039292 -0.02179617
v 0.008749928 -0.01030328 -0.02371544
v 0.004614336 -0.01047908 -0.007981265
v 0.004635965 0.01047974 -0.007989729
v 0.003857244 0.009063125 0.008525368
v 0.002500704 0.009064643 0.00866399
v -0.00187503 0.009063104 0.009052221
v 0.003743272 0.008958629 0.02284181
v 0.003703842 -0.008959971 0.02257015
v -0.001889383 -0.009036135 0.009059928
v 0.002486125 -0.009047117 0.008669257
v 0.003838561 -0.009048449 0.008532159
v -0.000507433 0.008412979 0.02471938
v 0.003895057 -0.008183353 0.02473334
v 0.003745824 0.009821683 -0.01615865
v 0.003638163 0.008968003 -0.01776523
v 0.006689925 0.009824162 -0.01590718
v 0.006459188 0.008376984 -0.01853304
v 0.007041756 0.005241629 -0.01181906
v 0.004361222 0.005418479 -0.01154935
v 0.007037051 0.006983731 -0.0118942
v 0.004331818 0.0075805 -0.0118421
v 0.003748033 0.00790008 -0.01853302
v 0.006938668 0.008933244 -0.01304594
v 0.003706146 0.006163161 -0.01906643
v 0.006389767 0.005994184 -0.01929953
v 0.004229963 0.009009239 -0.01302261
v 0.004102539 0.009711173 -0.01454811
v 0.004036797 0.008163641 -0.01178604
v 0.003872458 0.009804484 -0.01369197
v 0.004008565 0.002158582 -0.01549454
v 0.003805306 0.001916144 -0.01438308
v 0.004194353 0.002760256 -0.01335715
v 0.004006427 0.00345283 -0.01207379
v 0.004291033 0.003755724 -0.0122641
v 0.004088704 0.005659109 -0.01116413
v 0.003398474 0.007439364 -0.01909114
v 0.003386781 0.00479736 -0.01920115
v 0.003533468 0.002531746 -0.01748991
v 0.003731329 0.004238365 -0.01862621
v 0.00382835 0.002987033 -0.01755131
v 0.006932558 0.003058733 -0.01304366
v 0.00645427 0.003611833 -0.01853121
v 0.006682023 0.002166104 -0.01590433
v 0.006677546 -0.002175793 -0.01590265
v 0.003696039 -0.002473773 -0.01698789
v 0.006446809 -0.003622973 -0.01852848
v 0.007029377 -0.006758329 -0.01181446
v 0.004348841 -0.006581418 -0.01154475
v 0.007024672 -0.005016226 -0.01188969
v 0.004319441 -0.004419394 -0.01183757
v 0.003735654 -0.004099878 -0.01852843
v 0.006926239 -0.003066713 -0.01304135
v 0.003693767 -0.005836794 -0.01906184
v 0.006377388 -0.006005771 -0.01929493
v 0.00421758 -0.002990715 -0.0130181
v 0.003953138 -0.002159333 -0.01479427
v 0.00395317 -0.002779176 -0.01262383
v 0.003616298 -0.009968637 -0.01638685
v 0.003840262 -0.009845167 -0.01381843
v 0.003996182 -0.009841373 -0.01549006
v 0.004181974 -0.009239642 -0.01335261
v 0.004160997 -0.008363547 -0.01223245
v 0.004083414 -0.005933901 -0.01109624
v 0.003432948 -0.008498201 -0.01850309
v 0.003398364 -0.004169546 -0.01896582
v 0.003367217 -0.006601032 -0.01927465
v 0.003718948 -0.007761586 -0.01862174
v 0.003815973 -0.009012921 -0.01754671
v 0.006920181 -0.008941226 -0.01303913
v 0.006441893 -0.008388123 -0.01852668
v 0.006669648 -0.009833794 -0.01589974
f 1 2 3
f 4 2 1
f 4 5 2
f 5 6 2
f 7 2 6
f 8 9 10
f 8 11 9
f 12 13 14
f 12 15 13
f 16 17 18
f 19 20 17
f 21 22 23
f 23 22 24
f 24 22 14
f 21 25 22
f 14 8 20
f 24 14 20
f 20 26 17
f 8 26 20
f 8 27 26
f 26 28 17
f 17 28 18
f 26 29 28
f 30 31 32
f 30 33 31
f 31 33 34
f 33 19 34
f 35 36 37
f 37 36 38
f 31 34 37
f 34 35 37
f 39 40 41
f 38 42 40
f 36 42 38
f 16 18 42
f 18 41 40
f 18 40 42
f 43 44 45
f 44 46 47
f 48 46 44
f 28 29 48
f 43 28 44
f 44 28 48
f 49 47 46
f 49 50 47
f 18 43 41
f 18 28 43
f 51 23 52
f 23 24 52
f 25 21 53
f 53 21 54
f 55 11 56
f 43 56 57
f 43 57 41
f 57 39 41
f 45 56 43
f 58 32 57
f 59 52 60
f 59 51 52
f 59 54 51
f 53 54 59
f 60 52 58
f 11 60 58
f 56 58 57
f 56 11 58
f 45 61 56
f 62 61 45
f 44 62 45
f 63 64 62
f 62 65 61
f 64 65 62
f 47 63 44
f 44 63 62
f 65 56 61
f 65 55 56
f 66 40 39
f 67 39 57
f 67 66 39
f 67 31 66
f 31 68 66
f 32 67 57
f 32 31 67
f 68 38 66
f 66 38 40
f 29 26 69
f 29 70 48
f 29 69 70
f 69 71 70
f 71 72 70
f 72 73 70
f 27 71 69
f 27 69 26
f 73 46 48
f 73 48 70
f 16 42 74
f 75 74 76
f 75 16 74
f 17 16 75
f 74 35 76
f 35 34 76
f 76 34 75
f 36 35 74
f 36 74 42
f 75 19 17
f 34 19 75
f 52 24 30
f 24 33 30
f 8 14 11
f 11 14 13
f 77 78 25
f 53 77 25
f 54 21 23
f 51 54 23
f 71 27 79
f 71 79 72
f 79 49 72
f 72 49 73
f 46 73 49
f 10 27 8
f 78 12 22
f 12 14 22
f 25 78 22
f 47 50 63
f 63 50 64
f 50 80 64
f 64 80 65
f 80 55 65
f 24 20 33
f 11 55 9
f 19 33 20
f 13 60 11
f 15 60 13
f 59 15 77
f 59 60 15
f 77 53 59
f 30 58 52
f 32 58 30
f 37 38 68
f 31 37 68
f 79 81 49
f 79 27 81
f 82 83 84
f 83 85 84
f 82 86 83
f 87 86 82
f 88 89 90
f 91 89 88
f 92 89 91
f 86 87 92
f 92 87 89
f 92 91 93
f 88 94 91
f 95 94 88
f 96 6 97
f 97 6 95
f 6 5 95
f 96 7 6
f 95 5 98
f 96 99 7
f 99 100 7
f 5 4 98
f 4 1 98
f 99 101 100
f 98 1 102
f 1 103 102
f 99 104 101
f 3 103 1
f 105 106 3
f 107 106 105
f 3 106 103
f 104 106 107
f 99 106 104
f 99 108 106
f 109 108 99
f 110 111 109
f 112 111 110
f 78 77 110
f 77 112 110
f 15 112 77
f 110 12 78
f 84 85 113
f 85 114 113
f 55 80 115
f 115 80 50
f 15 114 85
f 15 85 116
f 9 115 114
f 9 114 15
f 113 12 84
f 84 12 117
f 81 10 113
f 113 10 12
f 117 118 84
f 117 109 118
f 119 109 120
f 119 118 109
f 120 96 121
f 120 121 119
f 122 123 124
f 103 123 122
f 111 123 108
f 125 124 111
f 111 124 123
f 125 116 85
f 111 116 125
f 9 12 10
f 15 12 9
f 115 50 114
f 49 113 50
f 50 113 114
f 49 81 113
f 95 88 90
f 97 95 90
f 126 97 90
f 126 90 121
f 96 126 121
f 103 122 127
f 102 103 127
f 102 127 93
f 94 102 93
f 94 93 91
f 106 108 123
f 111 112 116
f 103 106 123
f 102 94 98
f 94 95 98
f 126 96 97
f 112 15 116
f 99 96 120
f 9 55 115
f 109 99 120
f 110 109 117
f 85 83 125
f 117 12 110
f 125 86 124
f 83 86 125
f 10 81 27
f 86 92 122
f 86 122 124
f 127 122 92
f 127 92 93
f 121 90 89
f 89 87 119
f 89 119 121
f 82 84 118
f 87 118 119
f 87 82 118
f 3 2 105
f 107 105 2
f 100 2 7
f 100 101 2
f 101 104 2
f 104 107 2
f 108 109 111
f 128 129 130
f 130 129 131
f 132 133 134
f 133 135 134
f 129 136 131
f 134 135 137
f 131 138 139
f 136 138 131
f 135 140 137
f 140 141 137
f 137 141 130
f 141 128 130
f 135 142 140
f 142 143 140
f 144 145 146
f 140 143 141
f 146 147 148
f 145 147 146
f 143 128 141
f 148 147 133
f 147 149 133
f 133 149 135
f 149 142 135
f 150 147 151
f 151 147 152
f 149 147 150
f 152 147 145
f 143 142 128
f 142 149 128
f 128 149 129
f 129 149 150
f 153 152 154
f 151 152 153
f 154 152 144
f 152 145 144
f 129 150 136
f 136 150 138
f 150 151 138
f 138 151 153
f 144 146 155
f 146 148 155
f 139 153 156
f 138 153 139
f 155 148 132
f 148 133 132
f 153 154 156
f 156 154 157
f 154 144 157
f 157 144 155
f 155 132 134
f 155 134 137
f 155 137 130
f 156 155 130
f 156 130 131
f 156 157 155
f 156 131 139
f 158 159 160
f 161 162 163
f 162 164 163
f 159 165 160
f 163 164 166
f 160 167 168
f 165 167 160
f 164 169 166
f 169 170 166
f 166 170 158
f 170 159 158
f 164 171 169
f 172 173 174
f 174 173 175
f 169 171 170
f 173 176 175
f 176 177 162
f 162 177 164
f 177 171 164
f 178 173 172
f 177 173 178
f 177 176 173
f 159 171 179
f 179 171 180
f 180 177 178
f 171 177 180
f 170 171 159
f 180 178 181
f 181 178 182
f 178 172 182
f 182 172 174
f 159 179 165
f 165 179 167
f 179 180 167
f 167 180 181
f 174 175 183
f 175 176 183
f 168 181 184
f 167 181 168
f 183 176 161
f 176 162 161
f 181 182 184
f 184 182 185
f 182 174 185
f 185 174 183
f 160 166 158
f 184 161 163
f 184 183 161
f 184 185 183
f 184 163 168
f 168 163 166
f 168 166 160
