v 0.00209707 -0.00385537 -0.09471722
v 0.0008400083 -0.007555697 -0.1003009
v 0.0003008544 -0.001408562 -0.09517677
v -0.0008688271 -0.04234786 -0.07934318
v 0.001406699 -0.04085516 -0.07934265
v -0.0007948875 -0.03819818 -0.07934077
v -0.0001112521 -0.03827108 -0.08643498
v -0.001477003 -0.03697796 -0.09735043
v 0.001473337 -0.03907724 -0.09186603
v -0.0007410645 -0.04160343 -0.09012677
v 0.001113206 -0.03148495 -0.1004884
v 0.0008732677 -0.03503322 -0.09467466
v 0.0002066195 -0.03434561 -0.09962793
v -0.001969695 -0.03326173 -0.09956963
v 0.0009843111 -0.02659148 -0.09873028
v 0.001016259 -0.02674973 -0.1018156
v -0.001656115 -0.02666835 -0.1018001
v -0.001428962 -0.03565763 -0.09355037
v -0.002346873 -0.02763385 -0.1003302
v 0.001996458 -0.009187866 -0.09936239
v 0.0009400845 -0.0114536 -0.09802927
v -0.001434147 -0.02653209 -0.09861441
v -0.002037346 -0.01103005 -0.09969558
v -0.001858234 -0.004202917 -0.09455289
v 0.0001976192 -0.01378449 -0.1022731
v -0.002074689 -0.04156014 -0.08674599
f 1 2 3
f 4 5 6
f 7 6 5
f 7 8 6
f 8 4 6
f 9 7 5
f 4 10 5
f 9 11 12
f 13 14 11
f 12 11 15
f 10 9 5
f 14 16 11
f 10 13 9
f 17 16 14
f 8 13 10
f 9 18 7
f 18 19 14
f 9 12 18
f 9 13 11
f 20 21 15
f 21 22 15
f 21 23 22
f 23 19 22
f 20 15 11
f 3 23 24
f 3 2 23
f 2 25 23
f 3 24 1
f 19 17 14
f 24 23 21
f 25 16 17
f 25 20 16
f 20 11 16
f 18 14 8
f 23 17 19
f 23 25 17
f 8 26 4
f 26 8 10
f 1 20 2
f 1 21 20
f 2 20 25
f 24 21 1
f 7 18 8
f 12 19 18
f 22 12 15
f 12 22 19
f 8 14 13
f 26 10 4
