v -0.001620263 -0.006847858 -0.01156044
v -0.001773238 -0.006837368 0.009399414
v -0.002997071 0.00497964 -0.01872444
v -0.0006316006 -0.006159991 -0.0109387
v 0.003268838 -0.001345888 0.01370746
v -0.003268853 0.006728694 -0.006124616
v -0.002361819 0.006847873 -0.006124377
v -0.00278838 0.002432957 0.0194416
v -0.002281457 0.005901247 0.007454455
v 0.002591535 0.004140705 1.549721e-05
v 0.002856284 0.001765221 0.0147292
v 0.002668172 0.003773078 -0.007846594
v -0.00201112 0.00453344 -0.01944381
v 0.002986342 0.001562506 -0.01658958
v 0.003263623 -0.0005763024 -0.01488966
v -0.00188145 0.002551898 0.01944387
f 1 2 3
f 2 1 4
f 5 2 4
f 6 7 3
f 2 6 3
f 6 2 8
f 9 6 8
f 6 9 7
f 10 9 11
f 9 10 7
f 10 12 7
f 12 10 11
f 5 12 11
f 13 1 3
f 1 13 14
f 13 12 14
f 7 13 3
f 12 13 7
f 15 5 4
f 1 15 4
f 15 1 14
f 12 15 14
f 15 12 5
f 9 16 11
f 16 9 8
f 16 5 11
f 2 16 8
f 5 16 2
