v -0.003994673 0.02534133 -0.02950418
v 0.00391221 0.025334 -0.002130389
v 0.00354819 0.003139108 -0.02682364
v -0.004632682 0.02292889 0.02490473
v -0.004647069 -0.0221926 -0.02269238
v -0.002506599 -0.02440423 -0.0173673
v -0.002947114 0.02057955 0.02845609
v 0.002076522 -0.02308089 -0.02434272
v 0.001593992 0.02478522 0.02790308
v -0.0004696324 0.002554983 0.01413071
v 0.0007119626 0.004412204 0.0174343
v 0.001902804 -0.01154482 0.001343608
v 0.002543792 -0.02001747 -0.01237053
v 0.004281469 -0.006046891 0.005023241
v 0.00149218 0.006561995 0.01895463
v 0.0009008944 -0.0253413 -0.02386075
v 0.002530955 -0.02293631 -0.02256954
v 0.00455372 -0.008856684 -0.0004978776
v 0.004647076 -0.0002042055 0.005413771
v 0.00463146 0.01788187 -0.007410765
v 0.0046404 0.01116461 -0.01446426
v 0.004073814 -0.01476926 -0.00844121
v 0.003151834 0.02423465 0.01521832
v 0.002836332 0.0203591 0.0241462
v 0.003987208 0.01206258 0.01598227
v 0.003624298 -0.005274773 0.007029116
v -0.0001124367 -0.006351471 0.005751073
v 0.0003830343 0.02347988 0.02927214
v 0.004172951 0.02445853 -0.002127349
v 0.004243761 0.006396681 0.01447159
v 0.004003078 0.003282428 -0.02505177
v -0.0007276684 0.02410549 0.02950424
v 0.003488228 0.01001656 0.01912022
f 1 2 3
f 4 1 5
f 4 6 7
f 6 4 5
f 8 1 3
f 9 2 1
f 10 11 7
f 12 13 14
f 13 12 6
f 11 15 7
f 13 16 17
f 16 13 6
f 16 8 17
f 16 6 5
f 1 16 5
f 8 16 1
f 18 19 14
f 20 19 21
f 19 18 21
f 22 13 17
f 13 22 14
f 22 18 14
f 9 23 2
f 23 9 24
f 25 23 24
f 26 12 14
f 12 26 11
f 26 15 11
f 12 27 6
f 27 12 11
f 10 27 11
f 6 27 7
f 27 10 7
f 15 28 7
f 29 25 20
f 29 20 21
f 23 29 2
f 29 23 25
f 2 29 3
f 30 19 20
f 25 30 20
f 19 30 14
f 30 25 24
f 18 31 21
f 22 31 18
f 29 31 3
f 31 29 21
f 31 22 17
f 31 8 3
f 8 31 17
f 32 4 7
f 28 32 7
f 32 28 9
f 4 32 1
f 32 9 1
f 33 26 14
f 30 33 14
f 26 33 15
f 33 30 24
f 33 28 15
f 9 33 24
f 28 33 9
