v -0.001214385 0.006440938 -0.02300844
v 0.002342373 0.00157851 -0.02036452
v -0.001222491 0.005996883 -0.0238125
v 0.002337664 0.003638804 0.02117392
v 0.002292871 0.001239002 0.02249596
v -0.00125435 0.006454408 0.01860803
v -0.00217554 0.006117284 0.0198504
v -0.002342373 -0.005167782 -0.01765642
v 0.002243817 -0.003490746 -0.01445213
v -0.001461864 -0.006458342 -0.00862661
v -0.002323538 -0.001957655 0.0222083
v 0.002223611 -0.003483415 0.006355107
v -0.002126545 0.006458282 -0.02300948
v 0.002274245 -0.002056599 -0.01941091
v -0.00139755 -0.001092017 0.0238125
v -0.0005275309 -0.00390619 0.01493746
f 1 2 3
f 4 5 2
f 4 1 6
f 1 4 2
f 7 4 6
f 4 7 5
f 8 9 10
f 11 8 10
f 8 11 7
f 5 12 2
f 12 9 2
f 9 12 10
f 13 8 7
f 13 7 6
f 1 13 6
f 13 1 3
f 8 13 3
f 9 14 2
f 8 14 9
f 2 14 3
f 14 8 3
f 7 15 5
f 11 15 7
f 16 15 11
f 16 11 10
f 12 16 10
f 16 12 5
f 15 16 5
