v -0.0024281 0.003522217 0.03000218
v -0.002427995 -0.006842434 -0.01822257
v -0.002428085 -0.00684309 0.03079987
v -0.0006152093 0.0021092 0.03253049
v 0.002127096 -0.003261447 0.03151113
v -0.00210762 -0.003021628 -0.03253043
v -0.002172977 0.003866851 -0.02005911
v 0.002402917 -0.004915416 -0.02265644
v 0.002428114 -0.002987117 -0.02785403
v -0.001195818 -0.002125472 -0.03235441
v -0.001515016 -0.006840944 0.03080392
v -0.00239712 0.005624056 0.02390915
v -0.001466483 0.006312817 0.02033269
v 0.002379581 0.001731455 -0.01859194
v -0.001289934 0.005518377 -0.01416302
v 0.002155662 0.002591729 0.02520549
v -0.001898468 0.00684306 0.001017928
v 0.0003536642 0.00524509 0.02106547
v 0.001706928 0.004307687 -0.0001043081
v -0.0004254133 0.006059855 0.009429991
v 0.001446396 0.003726751 -0.01449609
f 1 2 3
f 4 1 3
f 5 4 3
f 6 2 7
f 8 6 9
f 6 8 2
f 10 6 7
f 6 10 9
f 11 5 3
f 11 8 5
f 2 11 3
f 8 11 2
f 2 12 7
f 12 2 1
f 4 12 1
f 13 12 4
f 14 8 9
f 8 14 5
f 15 14 7
f 14 10 7
f 10 14 9
f 16 4 5
f 14 16 5
f 17 12 13
f 12 17 7
f 17 15 7
f 18 13 4
f 16 18 4
f 19 16 14
f 19 18 16
f 20 19 17
f 19 20 18
f 20 17 13
f 18 20 13
f 17 21 15
f 19 21 17
f 21 14 15
f 21 19 14
