v 0.0527603 -0.06078196 -0.003947793
v 0.03133768 -0.06084102 0.02557388
v 0.05481756 -0.06083292 -0.03062883
v 0.04855186 0.01276439 0.05096284
v -0.05360717 -0.06084102 -0.006454853
v 0.0008208156 -0.06083781 0.03467035
v -0.02728248 -0.06083655 0.0279817
v 0.0539366 0.06012791 0.05267414
v 0.02893001 0.06084102 0.07468694
v 0.02608883 0.05683559 0.02891696
v -0.004703164 0.05633444 0.04122579
v -0.04629874 -0.06081098 0.009521784
v -0.02229291 -0.06084102 -0.07208183
v -0.02643061 0.02171183 -0.02216744
v -0.03778768 0.01534557 -0.007156936
v -0.05481756 -0.03233784 -0.02466321
v -0.0535903 -0.03624171 -0.01080268
v -0.0458197 -0.003461242 -0.03866082
v -0.03295857 0.002687395 -0.04882628
v -0.04971176 -0.02637815 -0.04382706
v -0.03858727 -0.0256058 -0.05901173
v -0.04419255 -0.06082326 -0.05389863
v -0.02588946 -0.04118574 -0.06908211
v 0.05420756 0.0229274 0.03642699
v 0.02324611 0.00410372 0.06202993
v 0.0122633 0.0489437 0.07516471
v 0.0244115 0.01931232 -0.03943413
v 0.008283019 0.02255368 -0.03834867
v 0.0101862 0.00848645 -0.0567525
v 0.02604461 -0.002444565 -0.06160617
v 0.05162132 -0.01749009 -0.02958798
v 0.04709059 -0.03945577 -0.04895052
v 0.04322731 0.002496719 -0.04178086
v 0.04031146 -0.06070691 -0.05880445
v -0.002054811 0.05410355 0.06875524
v -0.04680258 -0.02519959 0.006387057
v -0.01534444 0.02058917 -0.03562984
v -0.05341804 -0.06083703 -0.03571218
v -0.04726338 0.002406478 -0.0106982
v 0.02331257 -0.03046864 -0.07041585
v 0.02567554 -0.06083232 -0.06925267
v 0.01063186 -0.06083184 -0.07516471
v -0.0007243156 -0.01275438 -0.07196781
v 0.006238997 0.004580557 0.06348535
v 0.04245549 0.04826015 0.02040333
v 0.0513649 0.0492022 0.03145164
v 0.03419936 -0.02356821 -0.06221288
v -0.009021759 0.01254576 0.05775529
v -0.01457 0.04263622 0.04802871
v 0.01021731 -0.02804565 -0.07421952
v -0.01174212 0.001388609 -0.06237903
v -0.02442843 -0.01447207 -0.06600049
v 0.039433 0.01306748 -0.03466243
v 0.006101489 0.0253672 0.07023042
v -0.005282223 -0.0340398 -0.07493812
f 1 2 3
f 2 1 4
f 5 6 7
f 6 5 2
f 8 9 4
f 9 10 11
f 9 8 10
f 12 5 7
f 5 13 2
f 2 13 3
f 14 15 11
f 16 5 17
f 18 14 19
f 14 18 15
f 16 18 20
f 21 18 19
f 18 21 20
f 20 21 22
f 21 13 22
f 13 21 23
f 24 8 4
f 1 24 4
f 8 24 3
f 24 1 3
f 25 2 4
f 25 6 2
f 9 25 4
f 25 9 26
f 27 28 10
f 29 27 30
f 27 29 28
f 31 8 3
f 31 32 33
f 34 32 3
f 32 31 3
f 35 9 11
f 9 35 26
f 5 36 17
f 12 36 5
f 35 36 12
f 14 37 19
f 37 14 11
f 10 37 11
f 28 37 10
f 16 38 5
f 13 38 22
f 38 13 5
f 38 20 22
f 38 16 20
f 18 39 15
f 39 18 16
f 39 16 17
f 36 39 17
f 40 41 42
f 41 40 34
f 41 34 3
f 13 41 3
f 41 13 42
f 43 29 30
f 25 44 6
f 6 44 7
f 8 45 10
f 45 27 10
f 31 46 8
f 46 31 33
f 46 45 8
f 40 47 34
f 47 32 34
f 47 40 30
f 33 47 30
f 32 47 33
f 48 12 7
f 48 35 12
f 49 36 35
f 49 39 36
f 49 35 11
f 15 49 11
f 39 49 15
f 50 40 42
f 40 50 30
f 50 43 30
f 43 51 29
f 37 51 19
f 29 51 28
f 51 37 28
f 21 52 23
f 52 51 43
f 52 21 19
f 51 52 19
f 45 53 27
f 46 53 45
f 53 46 33
f 53 33 30
f 27 53 30
f 44 54 7
f 54 48 7
f 54 25 26
f 54 44 25
f 35 54 26
f 48 54 35
f 13 55 42
f 55 50 42
f 50 55 43
f 55 13 23
f 52 55 23
f 55 52 43
