v 0.00306353 0.005985141 -0.01536793
v 0.003107995 0.005906045 0.02430683
v 0.001303792 -0.005578518 0.01972044
v 0.002342701 0.001494884 -0.02755773
v -0.001832217 0.004781306 -0.02058214
v 0.001765937 -0.002693653 0.02755493
v -0.002015561 0.003186882 0.02561224
v 0.002190351 0.006050527 0.02430868
v -0.002224207 0.002316117 -0.02460867
v -7.015467e-05 -0.002405703 0.02755773
v 0.00214541 0.006129444 -0.01536518
v 0.0002356172 -0.006129444 -0.00876236
v 0.001743078 -0.002383113 -0.02212685
v 0.00207448 -0.000225544 -0.02690643
v -0.0002060831 -0.002852201 -0.0188576
v -0.002917528 -0.002218962 -0.01298749
v -0.003107995 -0.003662705 0.01233643
v -0.001560539 -0.005772769 0.01004159
v -0.0004298091 -0.004653335 0.02145737
v -0.002759278 -0.00153631 0.02342826
f 1 2 3
f 1 4 5
f 2 6 3
f 7 8 5
f 8 6 2
f 4 9 5
f 10 8 7
f 8 10 6
f 1 11 2
f 11 8 2
f 11 1 5
f 8 11 5
f 12 13 3
f 14 9 4
f 13 14 3
f 14 1 3
f 1 14 4
f 15 13 12
f 14 15 9
f 15 14 13
f 16 17 9
f 16 15 12
f 15 16 9
f 18 12 3
f 18 16 12
f 16 18 17
f 19 18 3
f 6 19 3
f 10 19 6
f 18 19 17
f 20 19 10
f 19 20 17
f 20 10 7
f 17 20 9
f 20 7 5
f 9 20 5
