v 0.000542026 0.004618898 0.03718731
v -6.215647e-05 -0.004526421 -0.03861845
v -6.248429e-05 0.004552439 -0.03861699
v -0.0005420111 0.004793689 0.03861842
v -0.0005419739 -0.004605502 -0.03741133
v -0.000542026 -0.004793689 0.03861749
v 0.0004364252 0.004637256 0.0377613
v 0.0005415529 -0.004618689 0.03718561
v -0.0005418994 0.004631072 -0.03740951
v 0.0003264137 0.004655123 0.03803822
v 0.0003262796 -0.004654378 0.03803664
v 0.0004360303 -0.004636168 0.0377596
f 1 2 3
f 4 5 6
f 2 5 3
f 7 1 3
f 1 8 2
f 5 8 6
f 8 5 2
f 5 9 3
f 9 5 4
f 9 7 3
f 7 9 4
f 10 4 6
f 10 7 4
f 10 11 7
f 8 11 6
f 11 10 6
f 11 12 7
f 12 11 8
f 7 12 1
f 12 8 1
