v -0.005431578 0.006369531 -0.04284966
v -0.005431473 -0.0120852 -0.04284471
v -0.005431771 -0.01307255 0.04686999
v -0.004993767 0.006869912 -0.04682618
v -0.004923046 0.01328249 -0.03031528
v 0.0005028993 -0.01328245 -0.04685003
v 0.005083889 -0.0068703 -0.0468691
v 0.004506335 -0.01328248 0.03286099
v 0.004530564 -0.01328218 0.03835827
v 0.00543052 -0.01145032 0.0346877
v 0.005431771 -0.009618253 0.03468722
v -0.005041108 0.004611433 0.0246104
v -0.004882634 0.009184152 0.01336044
v -0.00484392 0.0128434 -0.003092289
v -0.005208641 0.01106074 -0.02925187
v 0.005387515 -0.002288014 0.02460468
v -0.0009731054 -0.004120767 0.03653425
v -0.001000553 0.0004612207 0.03013146
v 0.005138546 0.003203213 -0.03403646
v 0.004501954 0.006096303 -0.01521474
v -2.783537e-05 -0.01236728 0.04387593
v -0.005125269 -0.0003438592 0.03277481
v -0.001051068 0.006869972 0.01822138
v -0.0003542602 0.00870347 -0.03308946
v 0.005083442 -0.003202111 -0.04687005
v -0.001191765 0.01236762 -0.01476353
v 0.004369304 0.005895883 -0.003116906
v -0.0003939718 0.005034894 -0.04225463
v 0.004348233 0.003556311 0.008251786
f 1 2 3
f 2 1 4
f 1 5 4
f 6 7 8
f 2 6 3
f 6 2 4
f 6 9 3
f 9 6 8
f 10 7 11
f 7 10 8
f 9 10 11
f 10 9 8
f 12 13 14
f 5 15 14
f 15 5 1
f 15 12 14
f 15 1 3
f 12 15 3
f 16 17 11
f 17 16 18
f 16 19 20
f 7 19 11
f 19 16 11
f 21 9 11
f 17 21 11
f 9 21 3
f 21 17 3
f 12 22 18
f 22 17 18
f 22 12 3
f 17 22 3
f 16 23 18
f 23 12 18
f 23 13 12
f 13 23 14
f 5 24 4
f 25 19 7
f 25 6 4
f 6 25 7
f 23 26 14
f 26 5 14
f 26 24 5
f 19 26 20
f 24 26 19
f 27 16 20
f 26 27 20
f 27 26 23
f 24 28 4
f 28 24 19
f 28 25 4
f 25 28 19
f 29 23 16
f 27 29 16
f 29 27 23
