v -0.005584277 0.02307049 0.08262116
v 0.01531491 -0.03362931 0.02959871
v 0.02072172 0.02953807 0.02436876
v 0.02080873 -0.02206963 0.01665795
v 0.01902081 -0.0239825 -0.07379735
v 0.007661946 0.03362931 0.02049816
v 0.0001463518 -0.03271009 -0.08088976
v 0.01725323 0.01655887 -0.07519436
v -0.004044347 0.02733041 -0.08262116
v -0.01943141 -0.003460266 0.06111521
v -0.01604623 -0.02264446 0.04028982
v 0.009685926 -0.03251927 -0.0687418
v -0.005577058 -0.0299408 0.01323885
v 0.02082282 0.01108521 0.01580149
v 0.005291052 0.029149 -0.07356775
v -0.01679095 0.02406057 0.05254149
v -0.01557725 0.0172413 -0.08054584
v -0.0199144 0.0166555 0.006951869
v 0.01922464 0.0001945419 -0.06888199
v -0.007586129 -0.02945357 -0.08224547
v -0.01300841 -0.0232971 -0.08065796
v -0.01765227 0.005501196 -0.07827216
v -0.01660568 -0.01223473 -0.07789099
v -0.02082282 -0.003527981 0.002723694
v 0.01314124 0.02448041 -0.07440281
v -0.02079866 0.009989858 0.04813123
v -0.01016579 0.02792466 0.005462945
v -0.01771732 -0.01902976 0.0157479
v -0.01801736 0.01822043 0.05988014
v -0.01199079 0.02263108 -0.074714
f 1 2 3
f 2 4 3
f 5 4 2
f 6 1 3
f 7 8 5
f 8 7 9
f 10 2 1
f 10 11 2
f 12 5 2
f 7 12 2
f 12 7 5
f 11 13 2
f 13 7 2
f 4 14 3
f 15 6 3
f 6 15 9
f 6 16 1
f 16 17 18
f 19 8 3
f 8 19 5
f 14 19 3
f 19 4 5
f 19 14 4
f 13 20 7
f 7 20 9
f 21 20 11
f 20 13 11
f 20 17 9
f 17 20 21
f 22 21 23
f 22 17 21
f 24 22 23
f 17 22 18
f 22 24 18
f 25 8 9
f 15 25 9
f 8 25 3
f 25 15 3
f 26 16 18
f 24 26 18
f 26 24 10
f 27 6 9
f 27 16 6
f 10 28 11
f 24 28 10
f 28 24 23
f 21 28 23
f 28 21 11
f 29 26 10
f 26 29 16
f 29 10 1
f 16 29 1
f 16 30 17
f 27 30 16
f 17 30 9
f 30 27 9
