v 0.001336724 -0.02200624 -0.02708113
v -0.004524827 -0.02121064 -0.02550429
v 0.002810389 0.008295983 -0.02889466
v -0.002631359 0.02159157 -0.02532464
v -0.004542515 0.01419869 0.02479714
v 0.00347323 0.02281705 -0.005936682
v -0.001728289 -0.02281705 -0.0206399
v 0.002393462 -0.01884899 -0.0263055
v 0.003653914 0.0114508 -0.02276975
v -0.001596861 0.02118555 -0.02479023
v 0.004424565 0.0002256334 0.004952669
v 0.003889903 0.02085993 -0.008526981
v 0.00370796 0.006912082 0.01953483
v -0.004016273 -0.00564611 -0.02509218
v -0.002189808 0.005650729 0.02198964
v -0.002254672 0.01347509 0.02889466
v 0.0008014739 0.01553825 0.02815938
v 0.002521835 0.01529887 0.02674466
v 0.003620975 0.01843092 0.00391984
v -0.004530981 -0.01833269 -0.02540225
v -0.002847992 -0.02225718 -0.02032369
v 0.001795083 -0.02082273 -0.01961464
v 0.002604023 0.004586309 0.01974463
v 0.003901228 0.01650536 -0.01544696
v 0.004457809 -0.009651959 -0.001051843
v 0.002769545 -0.02013233 -0.02267581
v -0.0004199147 -0.006117374 0.006813228
v 0.002503559 -0.008154124 0.005165815
v 0.001230516 -0.01663074 -0.007994294
v 0.004542507 -0.007196069 0.002777219
v 0.003872789 -0.01534501 -0.01147729
v 0.0003434196 -0.0004543364 0.01544672
f 1 2 3
f 2 4 3
f 5 6 4
f 7 2 1
f 8 1 3
f 9 8 3
f 6 10 4
f 4 10 3
f 10 9 3
f 11 12 13
f 12 10 6
f 14 5 4
f 5 15 16
f 17 5 16
f 5 17 6
f 17 18 6
f 18 19 6
f 19 12 6
f 19 18 13
f 12 19 13
f 5 20 2
f 14 20 5
f 2 20 4
f 20 14 4
f 21 5 2
f 21 15 5
f 7 21 2
f 22 7 1
f 15 23 16
f 18 23 13
f 23 17 16
f 17 23 18
f 24 25 9
f 10 24 9
f 12 24 10
f 24 12 11
f 8 26 1
f 26 22 1
f 26 8 9
f 21 27 15
f 28 29 25
f 22 29 7
f 29 21 7
f 29 27 21
f 27 29 28
f 30 24 11
f 24 30 25
f 30 11 13
f 23 30 13
f 30 28 25
f 28 30 23
f 26 31 22
f 29 31 25
f 31 29 22
f 25 31 9
f 31 26 9
f 27 32 15
f 32 27 28
f 32 23 15
f 32 28 23
