v 0.001619875 -0.004592774 -0.02309823
v -0.001620203 -0.005123105 0.01139495
v 0.001620188 0.00464464 -0.02309385
v -0.00161989 -0.005128615 0.02174583
v 0.001620069 -0.004615448 0.02166289
v 0.001619995 0.004622456 0.02166882
v -0.001284331 0.005085871 0.01456794
v -0.001345515 0.005091626 0.02235472
v -0.001578778 0.005128615 0.02173683
v 0.0005201846 0.004795965 0.02308187
v -0.0004751384 -0.004947681 0.02309555
v 0.0005155355 -0.004790928 0.02307793
v -0.001367554 -0.00508843 0.02235582
v -0.0004709065 0.004952453 0.02309823
v 0.001392365 -0.004651619 0.02250978
v -0.0009857863 -0.005028687 0.02273777
v 0.001505673 -0.004633641 0.02223521
v 0.001391947 0.004657988 0.02251533
v -0.0009723902 0.005031943 0.02274257
v 0.001505807 0.004639823 0.02223995
f 1 2 3
f 2 1 4
f 1 5 4
f 5 1 3
f 6 5 3
f 2 7 3
f 8 9 4
f 9 2 4
f 7 9 8
f 9 7 2
f 10 11 12
f 10 7 8
f 10 6 3
f 7 10 3
f 13 8 4
f 14 10 8
f 10 14 11
f 15 10 12
f 14 16 11
f 16 13 4
f 11 16 12
f 5 16 4
f 16 5 12
f 17 5 6
f 5 17 12
f 17 15 12
f 10 18 6
f 15 18 10
f 19 14 8
f 19 16 14
f 13 19 8
f 16 19 13
f 20 17 6
f 18 20 6
f 17 20 15
f 20 18 15
