v -0.000475198 -0.04172003 -0.0494737
v 0.0004754663 -0.03827918 -0.04520249
v 0.0004440546 -0.04114854 0.0494737
v -0.0004754663 -0.04046446 0.04870012
v 0.0004532337 0.04160529 -0.008160383
v 0.0004507303 0.04103643 -0.04335716
v -0.0004684925 0.04172003 -0.04413053
v 0.0004531741 -0.02272153 0.03754777
v -0.0004754663 0.04020905 -0.007794559
v 0.0004534423 0.03010881 6.952882e-05
f 1 2 3
f 4 1 3
f 5 6 7
f 6 5 2
f 6 1 7
f 6 2 1
f 2 8 3
f 8 4 3
f 9 5 7
f 1 9 7
f 4 9 1
f 8 9 4
f 5 10 2
f 10 8 2
f 9 10 5
f 10 9 8
