v 0.0006125569 -0.005935036 0.005589843
v -0.001696557 -0.003889456 0.003783166
v 0.002575248 -0.005932508 -0.006859958
v -0.001697153 0.00388898 0.003781229
v -0.002575397 -1.116132e-07 0.003094196
v 0.0006124079 0.005935036 0.005587518
v -0.0008087456 -1.98013e-06 -0.00690186
v 0.0001839399 0.00379619 -0.006890863
v 0.002575248 -0.003996383 0.00690186
v 0.002575397 0.003998223 0.006900311
v 0.002575338 0.00592743 -0.006862044
v 0.0001838505 -0.003801361 -0.006889105
f 1 2 3
f 2 4 5
f 4 1 6
f 4 2 1
f 7 8 3
f 7 2 5
f 7 4 8
f 4 7 5
f 9 1 3
f 10 9 3
f 1 9 6
f 9 10 6
f 8 11 3
f 11 10 3
f 10 11 6
f 11 4 6
f 4 11 8
f 2 12 3
f 12 7 3
f 7 12 2
