v 1.019239e-05 -0.01867473 0.01900318
v -0.005656868 -0.01932448 0.01948029
v 0.005557865 -0.01911408 -0.008164048
v 0.004557878 0.007765055 0.01873964
v -0.005656987 -0.001029968 -0.01092696
v -0.005657047 0.01932454 0.01881611
v -0.004067987 -0.01930088 -0.01946485
v 0.005657047 -0.01915729 -0.01089871
v -0.005070418 0.01396286 0.007333875
v -0.0008459389 0.01684731 0.01656589
v -0.004068047 -0.0183807 -0.01948026
v -0.003225327 -0.01379198 -0.01769346
v 0.0003879666 -0.01742178 -0.01659113
v 0.005587667 -0.01274073 -0.009177834
v -0.000657469 -0.009160817 -0.01311684
v -1.40965e-05 -0.000833869 -0.005925894
v -0.003927439 0.009300828 0.001065314
v 0.005354702 -0.004432559 -0.002934635
v 0.004622698 0.011383 0.01685315
v 0.004921287 0.00669235 0.008726597
v -0.0004144013 0.009363055 0.004842222
v 0.003264248 0.004794359 0.004138172
v 0.004556179 0.01141262 0.01868063
f 1 2 3
f 4 1 3
f 1 4 2
f 5 2 6
f 5 7 2
f 2 8 3
f 7 8 2
f 8 4 3
f 9 5 6
f 10 9 6
f 5 11 7
f 12 11 5
f 8 13 14
f 13 11 12
f 13 8 7
f 11 13 7
f 14 15 16
f 15 5 16
f 15 12 5
f 13 15 14
f 15 13 12
f 5 17 16
f 9 17 5
f 18 14 16
f 18 8 14
f 8 18 4
f 19 20 10
f 18 19 4
f 19 18 20
f 20 21 10
f 21 9 10
f 21 17 9
f 17 21 16
f 22 18 16
f 18 22 20
f 21 22 16
f 22 21 20
f 23 10 6
f 23 19 10
f 19 23 4
f 2 23 6
f 4 23 2
