v -0.0005416945 -0.00479351 -0.03861588
v -0.0005416721 -0.004602596 0.03741157
v -0.0005416796 0.004793495 -0.03861851
v -6.212294e-05 -0.00452356 0.03861853
v -6.189942e-05 0.004556209 0.03861737
v 0.0003265589 -0.004654393 -0.03803617
v -0.0005410761 0.004635096 0.0374099
v 0.0003263503 0.004655316 -0.03803772
v 0.0004369467 0.004636675 -0.03776133
v 0.0005416945 0.004618764 -0.03718725
v 0.0005417019 -0.004617766 -0.03718558
v 0.0004361197 -0.004636288 -0.03775933
f 1 2 3
f 2 1 4
f 5 2 4
f 6 1 3
f 1 6 4
f 2 7 3
f 7 2 5
f 8 6 3
f 6 8 9
f 7 8 3
f 8 10 9
f 10 8 5
f 8 7 5
f 10 11 9
f 11 5 4
f 11 10 5
f 12 6 9
f 11 12 9
f 6 12 4
f 12 11 4
