v -0.0005418211 -0.004583359 -0.0374119
v -0.0005418658 -0.004793487 0.03861517
v -0.0005418807 0.004793487 0.03861967
v -6.228685e-05 0.004575394 -0.03861594
v -6.253272e-05 -0.004504293 -0.0386197
v 0.0005418807 -0.004618354 0.03718537
v -0.000541769 0.00465367 -0.03740785
v 0.0003264844 0.004654966 0.03803933
v 0.000326708 -0.004654899 0.03803527
v 0.0005418435 0.00461901 0.03718948
v 0.0004364178 0.004636832 0.03776303
v 0.000435777 -0.004636385 0.0377585
f 1 2 3
f 1 4 5
f 4 6 5
f 7 1 3
f 1 7 4
f 8 7 3
f 4 7 8
f 2 9 3
f 9 8 3
f 6 9 5
f 9 1 5
f 1 9 2
f 10 4 8
f 10 6 4
f 9 11 8
f 11 10 8
f 10 11 6
f 12 9 6
f 11 12 6
f 12 11 9
