v 0.002387032 -0.01491306 0.01670074
v 0.002387047 0.01405723 -0.04095608
v 0.002387047 0.01464917 0.0409264
v 0.0007092506 0.01491307 -0.03853771
v -0.000453338 -0.004810579 -0.04095882
v 0.001737028 -0.01481152 -0.01410425
v -0.0008079857 -0.004870176 -0.04088056
v 0.001888648 -0.01481797 -0.007876575
v -0.002307788 -0.005135879 -0.0385398
v -0.001135334 -0.005320005 0.01702672
v -0.002387047 0.00512711 -0.03850433
v 0.001986668 -0.01489441 0.001060337
v -0.0007095486 0.004863851 0.04095885
v -0.0005274564 0.004847974 -0.04092488
v 0.002275437 -0.01487875 0.01047271
v -0.001105651 -0.004921608 -0.04067242
v -0.00181067 0.005040824 -0.03998181
v -0.001180902 0.00494656 -0.04063788
v 0.001227438 0.01464331 -0.04001436
v -0.001733229 -0.005030438 -0.04001695
v 0.0002059489 -0.01023948 0.0183439
v -0.0008826852 0.004901603 -0.04084641
v 0.002065018 0.01421877 -0.04087767
v 0.001795024 0.01435464 -0.04066911
f 1 2 3
f 2 4 3
f 5 6 7
f 6 5 2
f 8 6 2
f 9 10 11
f 12 6 1
f 10 13 11
f 4 13 3
f 13 4 11
f 13 1 3
f 5 14 2
f 6 15 1
f 8 15 6
f 1 15 2
f 15 8 2
f 16 17 18
f 6 16 7
f 4 19 11
f 19 17 11
f 17 20 11
f 20 9 11
f 16 20 17
f 9 20 6
f 20 16 6
f 9 21 10
f 21 12 1
f 21 9 6
f 12 21 6
f 13 21 1
f 21 13 10
f 14 22 2
f 16 22 7
f 22 16 18
f 22 5 7
f 22 14 5
f 22 23 2
f 23 4 2
f 23 19 4
f 17 24 18
f 19 24 17
f 23 24 19
f 24 22 18
f 24 23 22
