v 0.002423316 -0.01591477 0.01950151
v 0.002516568 0.01467282 0.01944804
v 0.001577169 0.01591477 0.01949316
v -0.003603131 -0.01230577 0.01040423
v 0.002184004 -0.01079533 -0.01950145
v 0.002723664 0.01470646 0.01855719
v -0.002385706 -0.003767788 0.01465237
v 0.003290057 -0.01034802 -0.0180251
v -0.003341675 -0.01306024 0.01703191
v 0.003342241 0.006904155 0.01840472
v 0.003601909 -0.0122014 0.01773983
v 0.00328505 -0.01476628 0.01568639
v -0.003591269 -0.007274479 0.01719117
v 0.003603131 -0.01188886 -0.003892124
v -0.003540605 -0.01185796 0.01514715
f 1 2 3
f 1 4 5
f 2 6 3
f 5 7 3
f 4 7 5
f 8 5 3
f 6 8 3
f 8 1 5
f 9 4 1
f 10 6 2
f 10 2 1
f 11 10 1
f 10 8 6
f 8 12 1
f 12 11 1
f 13 7 4
f 7 13 3
f 13 1 3
f 13 9 1
f 10 14 8
f 14 10 11
f 14 12 8
f 12 14 11
f 9 15 4
f 15 13 4
f 13 15 9
