v -0.0005415827 -0.00479305 -0.03861851
v 0.000541538 -0.004618315 -0.03718823
v -5.76973e-05 -0.004552906 0.03861642
v -0.0005415678 0.004793057 -0.03861573
v -0.0005415529 0.004605668 0.03741029
v 0.0003219247 0.00465559 -0.03803641
v -6.224215e-05 0.004527045 0.03861833
v 0.000326544 -0.004653921 -0.03803831
v 0.0004315525 0.0046369 -0.03776014
v 0.0005377531 0.004618617 -0.03718597
v -0.0005372465 -0.004631154 0.03740856
v 0.0004362911 -0.004635939 -0.03776133
f 1 2 3
f 4 5 6
f 5 7 6
f 5 4 1
f 8 2 1
f 8 4 6
f 4 8 1
f 9 8 6
f 10 7 3
f 2 10 3
f 7 10 6
f 10 9 6
f 11 1 3
f 11 5 1
f 7 11 3
f 5 11 7
f 8 12 2
f 9 12 8
f 12 10 2
f 10 12 9
