v -0.00161716 0.004633307 0.0374172
v -0.001617137 0.005131707 -0.03734154
v -0.001617111 -0.005131811 -0.03733975
v 0.000574246 0.004793137 -0.03857958
v -0.000414934 0.004949644 -0.03863978
v -0.001172077 -0.004524991 0.03863952
v 0.001617149 -0.004619151 -0.03711668
v -0.001172394 0.004554272 0.03863734
v 0.001616232 0.004617721 -0.03711832
v -0.001338642 0.00509131 -0.03794041
v -0.001617145 -0.004603922 0.03741911
v 0.001425479 0.004653871 -0.03797463
v 0.0005746894 -0.004794151 -0.03857777
v -0.0009402223 -0.005032748 -0.03830299
v -0.0004148297 -0.004951462 -0.03863788
v 0.001527477 0.004636407 -0.03769487
v 0.001425557 -0.004655272 -0.03797236
v -0.001337644 -0.005092502 -0.03793785
v -0.0009401478 0.005030483 -0.03830537
v 0.001527805 -0.004636914 -0.03769279
f 1 2 3
f 4 5 2
f 6 7 8
f 7 9 8
f 2 10 3
f 5 10 2
f 11 1 3
f 1 11 8
f 11 6 8
f 12 13 4
f 6 14 7
f 11 14 6
f 15 5 4
f 13 15 4
f 14 15 13
f 16 9 7
f 9 16 8
f 16 1 8
f 16 12 4
f 16 4 2
f 1 16 2
f 12 17 13
f 14 17 7
f 17 14 13
f 10 18 3
f 14 18 10
f 18 11 3
f 18 14 11
f 19 10 5
f 19 14 10
f 15 19 5
f 19 15 14
f 20 16 7
f 17 20 7
f 16 20 12
f 20 17 12
