v -0.003644153 -0.01095659 -0.02363028
v -0.0004700273 -0.01325285 0.01349853
v -0.003943637 0.002261579 0.03004093
v 0.00335981 0.01213694 0.01445188
v -0.001241997 0.01296151 0.03026952
v -0.003704473 0.0132395 -0.01631375
v 0.003127173 0.0120815 -0.01712947
v 0.002988234 -0.007439673 -0.02761884
v -0.002879545 0.0009883046 -0.0259407
v 0.003286824 0.003672779 -0.02237867
v -0.003280774 -0.009176075 -0.03030713
v 0.003413811 -0.01015723 -0.002628461
v 0.003188893 -0.01211464 -0.02445285
v -0.003945693 -0.009988368 -0.02854843
v -0.003076777 0.002115548 0.03030713
v -0.002976343 0.01325291 0.0297478
v -0.002938196 0.01310146 -0.01894803
v 0.003434077 0.01017255 -0.01598601
v 0.003891811 0.000800848 -0.01631857
v 0.003945693 -0.005711615 -0.01691891
v -0.003857747 0.01233268 -0.01631178
v 0.002836302 -0.01206076 -0.02646698
v 0.003593341 -0.0103125 -0.02155976
v -0.003527865 0.01237893 0.01816736
f 1 2 3
f 4 5 2
f 5 4 6
f 4 7 6
f 8 9 10
f 9 8 11
f 12 4 2
f 13 12 2
f 14 1 3
f 14 9 11
f 2 15 3
f 5 15 2
f 16 5 6
f 15 16 3
f 16 15 5
f 7 17 6
f 14 17 9
f 9 17 10
f 17 7 10
f 18 7 4
f 19 18 4
f 7 18 10
f 18 19 10
f 20 19 4
f 12 20 4
f 20 8 10
f 19 20 10
f 21 14 3
f 17 21 6
f 21 17 14
f 14 22 1
f 22 13 2
f 1 22 2
f 22 14 11
f 8 22 11
f 22 8 13
f 23 12 13
f 23 20 12
f 8 23 13
f 20 23 8
f 24 16 6
f 21 24 6
f 16 24 3
f 24 21 3
