v -0.002785236 -0.006953597 -0.01581168
v -0.00278528 -0.006841391 0.01581162
v -0.002785295 0.006000638 0.01488894
v -0.002717316 0.005149305 -0.01534534
v -0.001832664 0.006953627 -0.001592875
v -0.001799747 0.005149364 -0.0153451
v 0.002784476 0.001486421 -0.01534271
v -0.001863748 -0.006826699 0.01578259
v 0.002714455 -0.0004086494 0.01580572
v 0.00278528 -0.001258582 -0.01534808
v 0.002723515 0.003263026 0.01123065
v -0.001792714 -0.006760359 -0.01536995
v 0.001841515 0.004212558 -0.004340887
v -0.001851231 0.006936163 0.006648064
v -0.0009541661 0.005084038 0.01580977
f 1 2 3
f 4 1 3
f 5 4 3
f 6 7 1
f 4 6 1
f 5 6 4
f 8 2 1
f 8 9 2
f 7 10 1
f 9 10 7
f 8 10 9
f 11 9 7
f 12 8 1
f 10 12 1
f 12 10 8
f 13 11 7
f 6 13 7
f 13 6 5
f 14 5 3
f 14 13 5
f 13 14 11
f 15 14 3
f 14 15 11
f 11 15 9
f 2 15 3
f 9 15 2
