v -0.0005415827 -0.004793052 -0.03861848
v 0.0005415231 -0.004618315 -0.03718817
v -5.77122e-05 -0.004552919 0.03861645
v -0.0005415827 0.004793055 -0.03861567
v -0.0005415827 0.004605662 0.03741035
v 0.0003219098 0.004655588 -0.03803638
v -6.224215e-05 0.004527029 0.03861839
v 0.0003265291 -0.004653921 -0.03803828
v 0.0004315227 0.004636902 -0.03776014
v 0.0005377382 0.004618615 -0.03718597
v -0.0005372614 -0.004631167 0.03740862
v 0.0004362762 -0.004635941 -0.03776127
f 1 2 3
f 4 5 6
f 5 7 6
f 5 4 1
f 8 2 1
f 8 4 6
f 4 8 1
f 9 8 6
f 10 7 3
f 2 10 3
f 7 10 6
f 10 9 6
f 11 1 3
f 11 5 1
f 7 11 3
f 5 11 7
f 8 12 2
f 9 12 8
f 12 10 2
f 10 12 9
