v 0.00425218 -0.007446319 -0.02101099
v 0.003820159 -0.006579399 0.02571225
v -0.001962163 -0.02213815 0.0321545
v -0.0009333417 -0.02208042 -0.03209269
v -0.002654679 -0.02144778 -0.03211951
v -0.002604462 0.02114797 0.02560365
v -0.003323004 0.01943156 0.03109276
v 0.003073864 0.01808155 0.02752829
v -0.002820089 -0.02174646 0.03203475
v -0.004204005 0.01425347 -0.03215289
v -0.004283577 0.01685035 0.03200167
v 0.002770849 -0.009158462 0.03212142
v 0.002851605 -0.01175532 -0.03203493
v -0.003566243 -0.007808924 0.0320189
v -0.003831372 -0.01126796 -0.03030229
v -0.004100204 -0.001403451 -0.03122395
v -0.002084307 0.01920429 -0.02255726
v -0.0009399205 0.01714873 -0.02977121
v -0.004291102 0.0113546 -0.03215444
v 0.004291102 0.01979357 -0.009104133
v -0.0001676679 0.01953733 -0.02179742
v 0.0004806593 0.02213815 -0.005258501
v 0.004154339 0.01776141 0.01380557
v 0.0001830235 0.02210769 0.01313078
v 0.003880695 0.01980066 0.01653862
v 0.002943873 -0.003362477 0.03212309
v 0.002750188 0.01462662 -0.03111911
v -0.001426771 0.02151453 -0.007768035
v 0.00392171 -0.003678441 0.02479678
v 0.002368554 0.01635996 0.03210878
v 0.003562786 0.01720583 -0.02286148
v 0.003135562 -0.01089647 -0.03018928
v 0.002679422 0.01172966 -0.03204322
f 1 2 3
f 4 3 5
f 6 7 8
f 3 9 5
f 10 7 6
f 7 10 11
f 2 12 3
f 13 1 3
f 4 13 3
f 11 14 3
f 14 9 3
f 9 15 5
f 15 16 5
f 14 15 9
f 16 15 11
f 15 14 11
f 10 17 18
f 19 16 11
f 10 19 11
f 16 19 5
f 19 4 5
f 19 13 4
f 20 21 22
f 17 21 18
f 21 17 22
f 20 23 1
f 24 25 22
f 25 20 22
f 25 6 8
f 25 24 6
f 23 25 8
f 25 23 20
f 12 26 3
f 26 12 2
f 27 10 18
f 17 28 22
f 24 28 6
f 28 24 22
f 28 10 6
f 28 17 10
f 29 2 1
f 23 29 1
f 29 23 8
f 26 29 8
f 29 26 2
f 30 7 11
f 30 11 3
f 26 30 3
f 7 30 8
f 30 26 8
f 31 20 1
f 27 31 1
f 31 21 20
f 21 31 18
f 31 27 18
f 13 32 1
f 33 32 13
f 27 33 10
f 33 27 1
f 32 33 1
f 33 19 10
f 19 33 13
