v 0.014746 0.007608563 -0.04434374
v -0.01227538 0.01963791 -0.03496403
v 0.001496099 0.02134992 -0.03947097
v -0.005620785 0.01932141 -0.009028196
v 0.01474594 0.01655371 0.04277569
v 0.01474599 -0.02135 -0.01696795
v 0.006746776 -0.01888782 -0.04261392
v 0.009624116 -0.01959878 -0.01687536
v 0.01183232 -0.002761975 0.0425525
v 0.005877949 -0.01713602 -0.01411191
v 0.006269641 -0.01915565 -0.02635106
v 0.01339265 0.007367268 0.04319474
v 0.008058675 0.01705837 -0.04179651
v 0.01172943 0.01749888 0.04329339
v 0.0102564 0.007342145 0.04342699
v -0.01217846 0.0005703866 -0.03566092
v 0.006663121 -0.02016188 -0.04165304
v 0.006962292 -0.02076159 -0.04021305
v 0.006664611 -0.01923594 -0.04252288
v 0.01025548 -0.02122571 -0.03017005
v 0.01117864 0.007319704 0.04416704
v 0.0106921 0.007326141 0.04392648
v 0.01472776 0.0165796 0.04307285
v -0.001774989 -0.01633193 -0.03719151
v -0.001453511 -0.01467234 -0.0397478
v -0.007971562 -0.007959008 -0.03735274
v -0.01366089 0.01007926 -0.03483778
v -0.01474597 0.009968981 -0.03197339
v 0.006641619 -0.01953214 -0.04230893
v 0.0121525 0.0174036 0.04379231
v 0.01410376 0.01682071 0.04388663
v -0.001895629 -0.0157811 -0.03867573
v -0.008700497 -0.009197623 -0.03464526
v -0.01462405 0.01002768 -0.03355491
v 0.01272843 0.007333502 0.04401141
v 0.01320218 0.0171136 0.04421404
v -0.001737483 -0.01522782 -0.0393858
v -0.001047708 -0.01000175 -0.01156664
v -0.01307762 0.0001127124 -0.03441387
v -0.01420823 0.0100596 -0.0343689
v 0.01178167 0.007316247 0.04434392
v 0.0126225 0.01727779 0.04403552
v -0.001631029 -0.014971 -0.03962523
v -0.01269438 0.000344336 -0.03521028
v -0.01317013 -0.0001350641 -0.03284761
v -0.01248119 0.0004507303 -0.03548923
v -0.01398181 0.0100715 -0.03465709
f 1 2 3
f 2 4 3
f 1 5 6
f 7 1 6
f 8 6 9
f 10 8 9
f 8 10 11
f 6 12 9
f 13 1 3
f 13 5 1
f 4 14 3
f 15 14 4
f 1 16 2
f 7 16 1
f 17 7 6
f 18 17 6
f 7 17 19
f 8 20 6
f 20 18 6
f 20 8 11
f 18 20 11
f 21 22 9
f 22 15 9
f 22 14 15
f 5 23 6
f 23 12 6
f 23 13 3
f 13 23 5
f 24 18 11
f 10 24 11
f 24 17 18
f 25 26 7
f 26 16 7
f 16 27 2
f 28 15 4
f 28 4 2
f 17 29 19
f 22 30 14
f 14 30 3
f 23 31 12
f 31 23 3
f 24 32 17
f 32 29 17
f 33 32 24
f 32 33 26
f 34 28 2
f 31 35 12
f 12 35 9
f 36 31 3
f 32 37 29
f 29 37 19
f 37 32 26
f 38 10 9
f 38 24 10
f 38 33 24
f 33 39 26
f 34 39 28
f 40 34 2
f 41 21 9
f 35 41 9
f 41 35 31
f 36 41 31
f 42 22 21
f 42 30 22
f 41 42 21
f 42 41 36
f 30 42 3
f 42 36 3
f 37 43 19
f 43 7 19
f 43 25 7
f 43 26 25
f 43 37 26
f 39 44 26
f 44 39 34
f 40 44 34
f 45 39 33
f 45 38 9
f 38 45 33
f 39 45 28
f 15 45 9
f 28 45 15
f 26 46 16
f 44 46 26
f 47 44 40
f 47 46 44
f 27 47 2
f 47 40 2
f 47 27 16
f 46 47 16
