v -0.005493402 0.02011579 -0.032554
v -0.005493194 0.01897389 0.03065503
v -0.0003244877 0.02015835 0.03252646
v -0.005493313 -0.02020603 0.03249934
v -0.004517376 -0.01928049 0.01966506
v -0.005400777 -0.01562011 0.006834388
v -0.005391151 -0.003704131 -0.01423207
v -0.004468232 -0.01011783 -0.005063325
v 0.005475461 0.01653397 -0.02150711
v 0.005493373 -0.01003569 0.01788101
v 0.005480915 0.0146991 -0.01967347
v -0.004495591 -0.01744395 0.01233405
v -0.004575163 -0.02019882 0.03250375
v 0.005433351 -0.01186746 0.03255367
v -0.005420297 0.005448818 -0.0233964
v -0.004473746 -0.003696322 -0.01422745
v -0.004501432 0.005456984 -0.0233919
v 0.004194468 0.002120614 -0.005900741
v -0.004551142 0.01645237 -0.03163812
v 0.005448341 0.02020484 -0.0224236
v 0.005411237 -0.009116352 0.03255403
v 6.201863e-05 -0.01191264 0.007778585
v 2.384186e-06 -0.01649052 0.02701735
v 5.507469e-05 0.003658354 -0.01603985
v 0.005435199 0.02020597 -0.0196723
f 1 2 3
f 2 4 3
f 5 4 6
f 4 2 1
f 7 8 6
f 9 10 11
f 12 5 6
f 5 12 10
f 8 12 6
f 4 13 14
f 13 4 5
f 15 7 6
f 4 15 6
f 15 4 1
f 16 8 7
f 15 16 7
f 16 15 17
f 10 18 11
f 19 9 17
f 19 15 1
f 15 19 17
f 20 19 1
f 9 19 20
f 10 21 14
f 9 21 10
f 4 21 3
f 21 4 14
f 12 22 10
f 22 12 8
f 22 18 10
f 18 22 8
f 13 23 14
f 23 13 5
f 23 10 14
f 23 5 10
f 16 24 8
f 24 18 8
f 18 24 11
f 24 16 17
f 24 9 11
f 9 24 17
f 25 9 20
f 25 21 9
f 21 25 3
f 25 1 3
f 25 20 1
