v 0.00439778 0.01636243 -0.02088553
v 0.004418105 -0.0197494 0.02339441
v 0.002500802 -0.02254003 0.02020109
v 0.002489239 0.01441634 -0.02507776
v -0.0006050766 0.0173375 -0.02522737
v 6.657839e-05 -0.01741666 0.009065092
v 0.0002249479 0.005280077 -0.01817006
v -0.003151655 0.02379388 0.008665621
v -0.003648341 0.02388602 0.009562492
v 0.00112474 0.02340806 0.02257735
v 0.002814621 0.02280754 0.02208799
v 0.003749013 0.001959503 0.02268189
v 0.001914859 -0.02388602 0.02335244
v -0.00259769 -0.02032918 0.02458
v -0.003448993 0.01139551 0.02494723
v -0.003928483 -0.01253521 0.0139693
v -0.004327089 -0.001669288 -0.007739127
v -0.002299368 0.01247209 -0.02159256
v -0.002945125 -0.008178949 -0.002054989
v 0.003968954 0.0183863 -0.007232368
v -0.00118801 -0.0226481 0.02522719
v -0.003732532 0.01325536 0.02177703
v -0.002262235 -0.02111697 0.01965314
v -0.002968639 0.01064098 0.02522737
v -0.004418075 -0.0004318357 0.0009797215
v -0.00403285 0.006351471 -0.01302999
v -0.003168225 0.01402551 -0.019449
v -0.002601683 0.01746899 -0.02171057
v -0.002564967 -0.02074069 0.02167231
v -0.00387758 -0.01503778 0.01016814
v -0.004410833 -0.008816838 0.004236937
v -0.002022684 0.01797444 -0.02385122
f 1 2 3
f 4 5 1
f 4 1 3
f 6 4 3
f 4 6 7
f 5 8 1
f 8 9 10
f 11 8 10
f 12 2 1
f 2 13 3
f 13 6 3
f 14 15 16
f 9 15 10
f 17 18 7
f 4 18 5
f 18 4 7
f 6 19 7
f 19 17 7
f 20 12 1
f 12 20 11
f 8 20 1
f 20 8 11
f 21 13 2
f 15 22 16
f 22 15 9
f 13 23 6
f 21 23 13
f 24 15 14
f 21 24 14
f 24 21 2
f 12 24 2
f 24 12 11
f 24 11 10
f 15 24 10
f 25 22 9
f 26 18 17
f 26 27 18
f 27 26 9
f 26 25 9
f 25 26 17
f 28 27 9
f 29 21 14
f 29 23 21
f 19 30 17
f 30 19 6
f 23 30 6
f 29 30 23
f 30 14 16
f 30 29 14
f 22 31 16
f 25 31 22
f 31 30 16
f 31 25 17
f 30 31 17
f 27 32 18
f 28 32 27
f 18 32 5
f 32 28 9
f 32 8 5
f 8 32 9
