v 0.001283288 -0.006462097 0.01272735
v -0.002544761 -0.007412076 -0.01272732
v 0.003486097 -0.005880415 -0.01084355
v -0.003231764 -0.00471133 -0.01272601
v -0.003415704 -0.006689429 0.005511105
v 0.002867103 0.007376969 -0.01002744
v -0.003163099 0.0058465 -0.01190972
v -0.002784073 0.005921841 0.01246917
v 0.003028989 0.007412076 -0.004154712
v -0.001947343 0.005574584 0.01167542
v 0.003367484 -0.005925 0.005610049
v -0.002165854 -0.00733602 0.01165086
v -0.003486395 0.003843665 -0.009240448
v 0.003486395 0.005611837 -0.004155397
f 1 2 3
f 2 4 3
f 5 4 2
f 4 6 3
f 6 4 7
f 6 7 8
f 9 6 8
f 1 10 8
f 10 9 8
f 9 10 1
f 11 1 3
f 1 12 2
f 12 5 2
f 12 1 8
f 5 12 8
f 4 13 7
f 5 13 4
f 7 13 8
f 13 5 8
f 14 9 1
f 11 14 1
f 14 11 3
f 6 14 3
f 14 6 9
