v 0.001141705 -0.009998679 0.02825734
v 0.001595549 -0.01002391 -0.02689365
v 0.001316197 0.0002577752 0.01286754
v 0.001643203 0.0002393872 -0.02689829
v 0.00134775 -0.009982958 -0.02750617
v -0.001625121 0.01002391 -0.009651929
v -0.001643211 -0.00949572 -0.02683783
v -0.001482971 0.01001586 -0.02692881
v 0.001394682 0.0002004504 -0.02751052
v 0.0005081743 6.318092e-05 -0.02825734
v 0.0004625469 -0.009837881 -0.02825266
v -0.0005277768 -0.009676531 -0.02824384
v 0.0009694993 -0.009921253 -0.02789155
v -0.001408786 -0.00953351 -0.02768296
v -0.001365088 -0.0002238154 -0.02768725
v -0.001481645 -0.0002413243 -0.0274134
v -0.0004833117 -8.98391e-05 -0.02824771
v -0.001599647 -0.0002589971 -0.02684152
v 0.001016416 0.0001411587 -0.02789578
v -0.001524612 -0.009514034 -0.02740929
f 1 2 3
f 2 4 3
f 2 5 4
f 6 7 1
f 6 1 3
f 4 6 3
f 6 4 8
f 4 9 8
f 5 9 4
f 10 11 12
f 2 13 5
f 11 13 12
f 13 2 1
f 14 15 12
f 13 14 12
f 7 14 1
f 14 13 1
f 15 16 8
f 14 16 15
f 10 17 8
f 17 15 8
f 17 10 12
f 15 17 12
f 18 6 8
f 6 18 7
f 16 18 8
f 18 16 7
f 19 10 8
f 9 19 8
f 19 11 10
f 19 13 11
f 19 9 5
f 13 19 5
f 20 14 7
f 16 20 7
f 20 16 14
