v 0.01541269 -0.01773156 0.04320148
v 0.01315729 -0.005470932 -0.04353762
v 0.01542529 -0.003480554 -0.04430336
v 0.01246694 0.01813579 0.04162753
v 0.01347995 -0.01919916 0.04245239
v -0.011979 -0.01494358 -0.03589141
v -0.01305521 -0.0155082 -0.03307772
v -0.01290296 -0.01537447 -0.03465259
v 0.008259863 -0.01040503 0.04332212
v 0.008649826 -0.01027088 0.04383877
v 0.0138299 -0.01899654 0.04297614
v 0.005889058 -0.0004189461 0.04331586
v 0.007005379 0.009758919 0.04296002
v 0.006602272 0.009781629 0.04243523
v -0.01471409 0.004679471 -0.03396419
v -0.01542528 -0.0055217 -0.03308344
v -0.001876235 0.01754993 -0.04088068
v 0.01215613 0.00632976 -0.04404622
v 0.008669987 0.01371202 -0.04356626
v -0.01098847 0.01409657 -0.03563166
v 0.01032665 0.01919921 0.04076836
v 0.01421407 -0.01872497 0.04324853
v 0.009650528 -0.00988853 0.04430339
v 0.0146859 -0.01837207 0.04346502
v -0.01003376 0.01291773 -0.03829479
v -0.01031277 0.01311436 -0.03815702
v -0.01087485 0.01367608 -0.03715873
v 0.006298631 -0.0003626049 0.04383364
v 0.01164421 0.01867032 0.04184014
v 0.007470369 0.009688646 0.04323176
v 0.008050933 0.009585381 0.04344884
v -0.01051071 0.01328957 -0.03790274
v -0.01249811 -0.01517391 -0.03544736
v -0.01522911 -0.005574554 -0.03465852
v -0.0142097 -0.005545378 -0.0358969
v 0.00677219 -0.0003128499 0.04409525
v 0.01070124 0.01910242 0.04130471
v -0.01228093 -0.01507339 -0.03572503
v -0.01453726 -0.005565003 -0.03573024
v -0.01477744 -0.005572721 -0.0354529
v -0.01385921 0.004148021 -0.03656864
v 0.007363901 -0.0002551526 0.04429823
v 0.00909625 -0.01010349 0.04410034
v 0.01112257 0.01892154 0.04159671
v -0.01353909 0.004055023 -0.03672451
v -0.01453033 0.004435465 -0.03552172
v -0.01409203 0.004235357 -0.03629881
f 1 2 3
f 4 1 3
f 1 5 2
f 2 6 3
f 5 7 8
f 7 5 9
f 5 10 9
f 11 10 5
f 12 13 14
f 15 12 14
f 16 12 15
f 12 7 9
f 7 12 16
f 10 12 9
f 17 18 3
f 19 18 17
f 18 4 3
f 18 19 4
f 20 21 17
f 21 19 17
f 13 21 14
f 21 15 14
f 21 20 15
f 22 10 11
f 22 11 5
f 23 22 24
f 22 1 24
f 22 5 1
f 25 26 17
f 27 20 17
f 20 27 15
f 12 28 13
f 28 12 10
f 19 29 4
f 29 30 31
f 1 29 24
f 4 29 1
f 26 32 17
f 32 27 17
f 33 5 8
f 7 34 8
f 34 7 16
f 34 16 15
f 35 25 17
f 35 17 3
f 6 35 3
f 36 30 13
f 28 36 13
f 30 36 31
f 36 28 10
f 21 37 19
f 37 21 13
f 38 35 6
f 35 38 39
f 33 38 5
f 5 38 2
f 38 6 2
f 38 40 39
f 40 38 33
f 40 33 8
f 34 40 8
f 25 41 26
f 41 35 39
f 40 41 39
f 41 32 26
f 36 42 31
f 42 36 23
f 42 29 31
f 42 23 24
f 29 42 24
f 36 43 23
f 43 36 10
f 43 22 23
f 22 43 10
f 44 29 19
f 37 44 19
f 29 44 30
f 30 44 13
f 44 37 13
f 35 45 25
f 45 41 25
f 41 45 35
f 46 40 34
f 46 34 15
f 27 46 15
f 32 46 27
f 47 41 40
f 46 47 40
f 41 47 32
f 47 46 32
