v -0.0008203983 0.004879117 0.02328682
v 0.00287047 -0.007699728 0.02889019
v 0.003875136 0.01077271 0.01722729
v -0.001027048 0.01283085 0.01771811
v -0.003095329 0.01403278 0.01473996
v 0.00216496 0.01212329 0.01661462
v -0.002652168 -0.01064736 0.03070256
v -0.003708333 -0.01106107 0.02874556
v 0.002833813 -0.01236564 0.0286212
v -0.003841698 0.01324582 -0.02148372
v -0.003452539 0.01223332 0.01474026
v 0.003754169 0.0005239844 0.02336115
v 0.003873438 -0.01163131 0.01588494
v 0.003036708 0.00367707 -0.001842469
v 0.003097147 -0.01085973 0.00642702
v 0.002456993 0.01084292 -0.008444369
v -0.00259766 0.01404077 -0.03070253
v -0.003637999 0.01320428 -0.03017402
v -0.0004298985 -0.006611109 0.02920759
v -0.003875136 -0.009157598 0.02699876
v 0.0003957748 -0.01404071 -0.007094979
v 0.003013223 -0.01146358 0.02862182
v -0.003568441 -0.01108986 0.02295756
v -0.002237111 -0.01135242 0.002415627
v -0.0009076893 -0.01161754 -0.005653828
f 1 2 3
f 4 1 3
f 4 5 1
f 6 4 3
f 4 6 5
f 5 7 1
f 8 7 5
f 7 8 9
f 10 11 5
f 11 8 5
f 2 12 3
f 12 13 3
f 14 13 15
f 14 16 3
f 13 14 3
f 16 17 3
f 17 6 3
f 6 17 5
f 10 17 18
f 17 10 5
f 19 2 1
f 7 19 1
f 19 7 2
f 20 11 10
f 11 20 8
f 20 10 18
f 8 21 9
f 21 13 9
f 13 21 15
f 21 17 16
f 17 21 18
f 21 14 15
f 14 21 16
f 13 22 9
f 12 22 13
f 22 12 2
f 22 7 9
f 7 22 2
f 20 23 8
f 23 21 8
f 21 23 24
f 24 23 18
f 23 20 18
f 25 24 18
f 21 25 18
f 25 21 24
