v -0.002071828 0.003314011 -0.002777994
v -0.002071977 -0.003313974 -0.005562365
v -0.002071947 -0.003289789 0.005562067
v -0.0008366704 0.002781153 0.00208503
v 0.002072155 -0.0001654327 -0.0009686351
v -0.000230521 -0.002766088 0.004765868
v -0.001478791 -0.003242798 -0.004003704
v 0.001097471 -0.001297168 -0.0009191632
v 0.001036644 -0.001594089 0.003422737
v -0.0003771484 -0.002358317 -0.003230155
f 1 2 3
f 4 1 3
f 1 5 2
f 1 4 5
f 6 4 3
f 2 7 3
f 7 6 3
f 7 8 6
f 9 8 5
f 8 9 6
f 4 9 5
f 6 9 4
f 8 10 5
f 10 8 7
f 5 10 2
f 10 7 2
