v 0.002788708 -0.02781159 0.03751212
v -0.002788708 -0.02790862 0.02821794
v 0.002665743 -0.02781284 -0.03751215
v -0.002695218 -0.02734542 -0.03252634
v -0.001742482 -0.02615356 0.0352402
v 0.00278835 -0.007207155 -0.02959818
v 0.002788439 0.02790856 0.03563404
v 0.002603009 0.01063383 -0.01211143
v -0.0007887036 0.007777929 -0.01250541
v -0.0007763505 0.02491701 0.02549818
v -0.002631202 0.02360636 0.0359785
v 0.002690122 0.02245355 0.007582396
v 0.002606645 0.01663446 -0.003621817
v -0.0007655472 0.02063143 0.008882433
v -0.002714187 0.01491946 0.03702649
v -0.002787217 -0.009029806 -0.02679279
v -0.001541257 0.01234365 -0.004988641
v -0.002428412 0.01890576 0.009689003
v -0.002476141 0.02200705 0.02010348
v 0.002718136 0.02535677 0.0164119
v -0.002368852 0.005968213 -0.01135221
f 1 2 3
f 2 4 3
f 1 5 2
f 6 1 3
f 1 6 7
f 8 6 9
f 10 11 7
f 12 6 8
f 13 8 9
f 13 12 8
f 12 13 14
f 15 5 1
f 11 15 7
f 15 1 7
f 5 15 2
f 6 16 9
f 4 16 3
f 16 6 3
f 16 15 11
f 16 4 2
f 15 16 2
f 17 18 14
f 17 13 9
f 13 17 14
f 10 19 11
f 19 16 11
f 16 19 18
f 19 10 14
f 18 19 14
f 10 20 14
f 20 12 14
f 20 10 7
f 6 20 7
f 12 20 6
f 21 16 18
f 17 21 18
f 16 21 9
f 21 17 9
