v -0.0005415529 -0.00479305 -0.03861842
v 0.0005415678 -0.004618315 -0.03718817
v -5.766749e-05 -0.004552921 0.03861648
v -0.0005415529 0.004793052 -0.03861564
v -0.000541538 0.004605655 0.03741038
v 0.0003219396 0.004655585 -0.03803635
v -6.219745e-05 0.004527029 0.03861842
v 0.0003265589 -0.004653923 -0.03803825
v 0.0004315674 0.004636902 -0.03776011
v 0.0005377531 0.004618615 -0.03718594
v -0.0005372316 -0.004631167 0.03740865
v 0.000436306 -0.004635941 -0.03776127
f 1 2 3
f 4 5 6
f 5 7 6
f 5 4 1
f 8 2 1
f 8 4 6
f 4 8 1
f 9 8 6
f 10 7 3
f 2 10 3
f 7 10 6
f 10 9 6
f 11 1 3
f 11 5 1
f 7 11 3
f 5 11 7
f 8 12 2
f 9 12 8
f 12 10 2
f 10 12 9
