v -0.00363677 -0.003748506 0.01354077
v -0.004670464 -0.0020421 0.01364931
v -0.004758455 -0.00204204 0.008475684
v -0.003729396 -0.003748491 0.008093797
v -0.005019359 -1.490116e-08 0.01371603
v -0.005104221 -1.490116e-08 0.008724503
v -0.005341865 -5.960464e-08 0.003613763
v -0.005021088 -0.002150208 0.003183298
v -0.004003234 -0.003906891 0.002476968
v 0.00385914 0.003748521 0.01341318
v 0.004896007 0.002041996 0.01348659
v 0.004808016 0.002041981 0.008312963
v 0.003766485 0.003748491 0.007966213
v 0.005246975 1.490116e-08 0.01354142
v 0.005162038 4.470348e-08 0.008549832
v 0.005230494 -1.490116e-08 0.00343398
v 0.004893593 0.002150074 0.003014587
v 0.003849991 0.00390695 0.002343349
v -0.003636785 0.003748491 0.01354077
v -0.001931034 0.004783869 0.01348128
v -0.002025194 0.004783884 0.007943325
v -0.003729425 0.003748477 0.008093722
v 0.0001106933 0.005133852 0.01344653
v 1.647323e-05 0.005133867 0.00790856
v -8.507818e-05 0.005165339 0.001941361
v -0.002233051 0.004876927 0.002080522
v -0.004003309 0.003906861 0.002476953
v 0.003859155 -0.003748491 0.01341321
v 0.00215245 -0.004783988 0.01341184
v 0.002058186 -0.004783973 0.0078739
v 0.003766529 -0.003748506 0.007966258
v 0.0001106635 -0.005133927 0.01344655
v 1.654774e-05 -0.005133897 0.00790862
v -8.506328e-05 -0.005165339 0.001941331
v 0.002066515 -0.004877031 0.002007328
v 0.003849946 -0.003906995 0.002343364
v -0.005577333 -0.002474532 0.0009190664
v -0.004580952 -0.004382208 -3.176183e-05
v -0.005831547 2.980232e-08 0.00140921
v -0.006428264 -4.470348e-08 0.0005659088
v -0.0062593 -0.002714187 7.712096e-05
v -0.005599461 -0.00523445 -0.00120119
v 0.005382009 0.002474502 0.0007325932
v 0.004344307 0.004382193 -0.0001835302
v 0.005659215 0 0.001213767
v 0.006310411 -1.490116e-08 0.0003612861
v 0.006116934 0.002714142 -0.0001213625
v 0.005372308 0.005234376 -0.001380093
v -0.002608649 0.005156144 -0.0009235218
v -0.004580833 0.004382133 -3.170222e-05
v -0.000141345 0.005259678 -0.001375683
v -0.0001710877 0.005455926 -0.003114454
v -0.003010087 0.005581662 -0.002416275
v -0.005599432 0.005234405 -0.001201205
v 0.002339683 -0.005156174 -0.001007698
v 0.004344292 -0.004382223 -0.0001835749
v -0.0001415089 -0.005259767 -0.001375683
v -0.0001710877 -0.005456015 -0.003114454
v 0.002690218 -0.005581677 -0.002513222
v 0.005372338 -0.00523445 -0.001380198
v -0.007312514 -0.003949076 -0.002669938
v -0.007439278 -0.002376184 -0.002057679
v -0.007822491 -0.002477154 -0.003149919
v -0.007607929 -0.004560187 -0.003775381
v -0.007473044 0 -0.001553558
v -0.007851042 2.980232e-08 -0.00259424
v -0.008030705 0 -0.004069798
v -0.008035339 -0.002669781 -0.004592381
v -0.007891558 -0.004940167 -0.005247779
v 0.007445268 0.003948987 -0.002910428
v 0.007621534 0.002376124 -0.002374165
v 0.007921256 0.002477124 -0.003899656
v 0.00774426 0.004560217 -0.004096933
v 0.007643096 -1.490116e-08 -0.001943298
v 0.00787691 1.490116e-08 -0.003632598
v 0.007905759 -1.490116e-08 -0.005528994
v 0.008017816 0.002669737 -0.005625568
v 0.007960938 0.004940122 -0.005647279
v -0.003295951 0.006113663 -0.003745265
v -0.005788796 0.006369844 -0.003091194
v -0.0001920238 0.005792886 -0.004346572
v -0.0002142712 0.006041512 -0.005652033
v -0.003528945 0.006522283 -0.005285554
v -0.006161891 0.006975502 -0.004906856
v 0.002930678 -0.006113708 -0.003851257
v 0.005523078 -0.006369859 -0.003271662
v -0.0001919344 -0.005792826 -0.004346542
v -0.0002142116 -0.006041527 -0.005652092
v 0.003111146 -0.006522387 -0.005398564
v 0.005834125 -0.006975472 -0.005098931
v -0.008182175 -0.004925862 -0.009191923
v -0.00794486 -0.002657354 -0.009135835
v -0.007710867 -0.002318531 -0.01125137
v -0.007806577 -0.004293993 -0.01109316
v -0.007703476 2.980232e-08 -0.009148173
v -0.007554658 2.980232e-08 -0.01147444
v -0.007302098 1.490116e-08 -0.01341765
v -0.007326879 -0.002064526 -0.01305065
v -0.007364161 -0.003557235 -0.01249342
v 0.008182131 0.004925787 -0.009406053
v 0.008032583 0.002657413 -0.0093913
v 0.007752128 0.002318516 -0.01137515
v 0.007748462 0.004293993 -0.01126287
v 0.007795565 2.980232e-08 -0.009435408
v 0.007605739 4.470348e-08 -0.01157155
v 0.007169507 0 -0.01356357
v 0.007202424 0.002064481 -0.01320296
v 0.007192589 0.00355722 -0.01266149
v -0.006660752 0.006916478 -0.009644054
v -0.00385686 0.006215408 -0.009752564
v -0.003615595 0.005371809 -0.01193417
v -0.006228708 0.00600417 -0.01196962
v -0.0002848879 0.005564377 -0.009805538
v -0.0003192052 0.004792526 -0.0118209
v -0.0003449246 0.003597543 -0.01333217
v -0.003314681 0.004022792 -0.01364509
v -0.005704008 0.004486486 -0.01389154
v 0.006171577 -0.006916493 -0.009850316
v 0.003286891 -0.006215408 -0.009874053
v 0.002971567 -0.005371854 -0.01204618
v 0.005660705 -0.006004184 -0.01215986
v -0.0002848431 -0.005564377 -0.009805523
v -0.0003192052 -0.004792601 -0.01182092
v -0.0003448948 -0.003597632 -0.01333221
v 0.002612673 -0.004022762 -0.01374593
v 0.005070888 -0.004486561 -0.01406287
v -0.003220461 0.002143815 -0.01457348
v -0.005541839 0.002388462 -0.0151344
v -0.000356473 0.001919627 -0.01401492
v -0.0003587231 2.980232e-08 -0.01414914
v -0.003224991 1.490116e-08 -0.01484206
v -0.005551286 0 -0.01558612
v -0.004670449 0.00204201 0.01364934
v -0.004758425 0.00204201 0.008475624
v -0.005021088 0.002150089 0.003183194
v 0.004896022 -0.00204207 0.01348657
v 0.004807957 -0.002042055 0.008312888
v 0.004893653 -0.002150193 0.003014602
v -0.005577348 0.002474532 0.0009190217
v -0.00625927 0.002714172 7.726997e-05
v 0.005382024 -0.002474561 0.0007325634
v 0.006116964 -0.002714202 -0.0001214221
v -0.007439323 0.002376109 -0.002057649
v -0.007822536 0.002477139 -0.003149949
v -0.007312499 0.003949001 -0.002669968
v -0.007607915 0.004560187 -0.003775351
v -0.007891528 0.004940063 -0.005247779
v -0.008035369 0.002669722 -0.004592322
v 0.007621519 -0.00237605 -0.002374299
v 0.007921256 -0.002477214 -0.003899656
v 0.007445239 -0.003948957 -0.002910413
v 0.007744245 -0.004560232 -0.004096903
v 0.007960863 -0.004940152 -0.005647294
v 0.008017831 -0.002669752 -0.005625553
v -0.00794486 0.002657458 -0.00913585
v -0.007710882 0.002318457 -0.01125132
v -0.008182146 0.004925728 -0.009191863
v -0.007806621 0.004293993 -0.01109321
v -0.007364072 0.003557265 -0.01249344
v -0.007326908 0.002064541 -0.01305068
v 0.008032553 -0.002657443 -0.0093913
v 0.007752113 -0.002318531 -0.01137515
v 0.008182175 -0.004925773 -0.009406067
v 0.007748403 -0.004294008 -0.0112629
v 0.007192545 -0.00355728 -0.01266145
v 0.007202379 -0.002064511 -0.01320288
v 0.004860647 -1.490116e-08 -0.01575116
v 0.004866622 -0.002388388 -0.01529943
v 0.002486862 -0.00214383 -0.01467059
v 0.002482332 -1.490116e-08 -0.01493912
v -0.0003565326 -0.001919538 -0.01401495
v 0.0001106933 0.005133852 0.01344653
v 0.002152406 0.004783869 0.01341184
v 0.002058245 0.004783869 0.007873856
v 1.647323e-05 0.005133867 0.00790856
v 0.00206656 0.004876927 0.002007343
v -8.507818e-05 0.005165339 0.001941361
v -0.00193096 -0.004783988 0.01348125
v -0.002025254 -0.004783943 0.007943369
v -0.002233051 -0.004877046 0.002080478
v 0.002339743 0.00515613 -0.001007669
v -0.000141345 0.005259678 -0.001375683
v 0.002690174 0.005581632 -0.002513163
v -0.0001710877 0.005455926 -0.003114454
v -0.002608605 -0.005156204 -0.0009235665
v -0.003010087 -0.005581722 -0.00241629
v 0.002930693 0.006113693 -0.003851183
v -0.0001920238 0.005792886 -0.004346572
v 0.005523063 0.006369844 -0.003271751
v 0.005834214 0.006975412 -0.005098887
v 0.003111191 0.006522313 -0.005398519
v -0.0002142712 0.006041512 -0.005652033
v -0.003295951 -0.006113663 -0.003745295
v -0.00578884 -0.006369844 -0.003091253
v -0.006161921 -0.006975412 -0.004906856
v -0.003528915 -0.006522313 -0.005285598
v -0.0002848879 0.005564377 -0.009805538
v 0.003286891 0.006215364 -0.009873994
v 0.002971537 0.005371854 -0.01204621
v -0.0003192052 0.004792526 -0.0118209
v 0.006171592 0.006916478 -0.009850346
v 0.00566069 0.006004095 -0.01215983
v 0.005070873 0.004486546 -0.01406281
v 0.002612598 0.004022777 -0.0137459
v -0.0003449246 0.003597543 -0.01333217
v -0.00385683 -0.006215379 -0.009752579
v -0.003615595 -0.005371869 -0.01193412
v -0.006660782 -0.006916478 -0.009644054
v -0.006228708 -0.00600408 -0.01196956
v -0.005704023 -0.004486561 -0.01389153
v -0.003314696 -0.004022688 -0.01364509
v 0.002486937 0.00214377 -0.01467062
v -0.000356473 0.001919627 -0.01401492
v 0.004866488 0.002388388 -0.01529942
v -0.003220476 -0.002143815 -0.01457351
v -0.005541779 -0.002388358 -0.01513443
v -0.007921807 0 -0.006467156
v -0.008064635 -0.002752215 -0.006751917
v -0.008146726 -0.005101666 -0.007148288
v 0.007887058 2.980232e-08 -0.007442303
v 0.008088045 0.002752155 -0.007465415
v 0.008179955 0.005101532 -0.007475652
v -0.0002475753 0.005973056 -0.007610507
v -0.003771923 0.006577447 -0.007412218
v -0.006545551 0.00719896 -0.007190444
v -0.0002475157 -0.005973071 -0.007610492
v 0.003281631 -0.006577566 -0.007532157
v 0.006139897 -0.007198974 -0.007394262
v -0.008146755 0.005101487 -0.007148348
v -0.008064605 0.002752125 -0.006751947
v 0.008179955 -0.005101591 -0.007475637
v 0.008088075 -0.002752185 -0.00746543
v 0.006139882 0.007198974 -0.007394247
v 0.003281645 0.006577462 -0.007532172
v -0.0002475753 0.005973056 -0.007610507
v -0.006545492 -0.00719896 -0.007190444
v -0.003771953 -0.006577477 -0.007412158
v -0.006899096 0.002568215 -0.0009485707
v -0.006987147 1.490116e-08 -0.0004609153
v -0.006855838 0.004673988 -0.002056129
v -0.007078044 0.00585486 -0.003428482
v -0.007441618 0.006411716 -0.005123474
v -0.007822074 0.006645381 -0.007198445
v -0.007928304 0.006416067 -0.009409226
v -0.007469095 0.005583689 -0.01151098
v -0.006920122 0.004177049 -0.0132784
v -0.006757163 0.002224907 -0.01448595
v -0.006772362 1.490116e-08 -0.01494978
v -0.006757192 -0.002224922 -0.01448592
v -0.006920151 -0.004177004 -0.01327843
v -0.00746911 -0.005583689 -0.01151096
v -0.007928394 -0.006416038 -0.009409197
v -0.007822074 -0.006645441 -0.00719849
v -0.007441543 -0.006411716 -0.005123429
v -0.007078044 -0.005854875 -0.003428496
v -0.006855853 -0.004674017 -0.002056114
v -0.006899126 -0.002568305 -0.0009485558
v 0.006941788 -0.002568305 -0.001135893
v 0.00704626 1.490116e-08 -0.0006515905
v 0.006860845 -0.004674047 -0.00224141
v 0.007036231 -0.00585486 -0.003620572
v 0.007341914 -0.006411701 -0.00532674
v 0.00765153 -0.006645441 -0.007413752
v 0.007682554 -0.006416082 -0.009626739
v 0.007152073 -0.005583674 -0.01171156
v 0.006543316 -0.004177108 -0.01345932
v 0.006339453 -0.002224907 -0.0146606
v 0.006338753 7.450581e-08 -0.01512472
v 0.006339453 0.002224892 -0.01466063
v 0.006543331 0.004177049 -0.0134593
v 0.007152148 0.005583659 -0.01171159
v 0.007682584 0.006416112 -0.009626724
v 0.007651515 0.006645426 -0.007413708
v 0.007341824 0.006411746 -0.00532677
v 0.007036246 0.00585486 -0.003620513
v 0.00686083 0.004674032 -0.00224141
v 0.006941728 0.002568245 -0.001135804
v -0.004638009 -0.002042055 0.01555734
v -0.004987858 -5.960464e-08 0.01556335
v -0.003602766 -0.003748491 0.0155397
v -0.00303451 -0.003182948 0.01568294
v -0.003438763 -0.001531497 0.01574332
v -0.004259415 2.980232e-08 0.0157038
v 0.004928477 0.00204201 0.01539456
v 0.005278371 -1.490116e-08 0.01538865
v 0.003893115 0.003748521 0.01541217
v 0.003330283 0.003182858 0.0155747
v 0.003736146 0.001531482 0.01562131
v 0.004555114 1.490116e-08 0.01555388
v -0.001896493 0.004783884 0.01551073
v 0.0001452044 0.005133852 0.01547595
v -0.00360278 0.003748521 0.01553967
v -0.00303454 0.003182858 0.015683
v -0.001382597 0.003587976 0.01570841
v 0.0001477823 0.004407883 0.01562882
v 0.002187006 -0.004783928 0.01544119
v 0.0001452789 -0.005133897 0.01547603
v 0.003893234 -0.003748536 0.01541225
v 0.003330208 -0.003182888 0.0155747
v 0.001680054 -0.003588006 0.01565628
v 0.0001477972 -0.004408002 0.01562882
v -0.004638009 0.002042025 0.01555733
v -0.003438704 0.001531526 0.0157434
v 0.004928418 -0.00204204 0.01539459
v 0.003736146 -0.001531497 0.01562127
v 0.002186961 0.004783913 0.01544119
v 0.0001452044 0.005133852 0.01547595
v 0.0001477823 0.004407883 0.01562882
v 0.001680084 0.003587902 0.01565627
v -0.001896419 -0.004783988 0.01551069
v -0.001382522 -0.003587946 0.01570833
v -0.00303451 -0.003182948 0.01568294
v -0.001382522 -0.003587946 0.01570833
v 0.0001499578 -2.980232e-08 0.01575116
v -0.003438763 -0.001531497 0.01574332
v 0.0001477972 -0.004408002 0.01562882
v 0.001680054 -0.003588006 0.01565628
v 0.003330208 -0.003182888 0.0155747
v 0.003736146 -0.001531497 0.01562127
v 0.004555114 1.490116e-08 0.01555388
v 0.003736146 0.001531482 0.01562131
v 0.003330283 0.003182858 0.0155747
v 0.001680084 0.003587902 0.01565627
v 0.0001477823 0.004407883 0.01562882
v -0.001382597 0.003587976 0.01570841
v -0.00303454 0.003182858 0.015683
v -0.003438704 0.001531526 0.0157434
v -0.004259415 2.980232e-08 0.0157038
f 1 2 3
f 1 3 4
f 5 6 3
f 5 3 2
f 7 8 3
f 7 3 6
f 9 4 3
f 9 3 8
f 10 11 12
f 10 12 13
f 14 15 12
f 14 12 11
f 16 17 12
f 16 12 15
f 18 13 12
f 18 12 17
f 19 20 21
f 19 21 22
f 23 24 21
f 23 21 20
f 25 26 21
f 25 21 24
f 27 22 21
f 27 21 26
f 28 29 30
f 28 30 31
f 32 33 30
f 32 30 29
f 34 35 30
f 34 30 33
f 36 31 30
f 36 30 35
f 9 8 37
f 9 37 38
f 7 39 37
f 7 37 8
f 40 41 37
f 40 37 39
f 42 38 37
f 42 37 41
f 18 17 43
f 18 43 44
f 16 45 43
f 16 43 17
f 46 47 43
f 46 43 45
f 48 44 43
f 48 43 47
f 27 26 49
f 27 49 50
f 25 51 49
f 25 49 26
f 52 53 49
f 52 49 51
f 54 50 49
f 54 49 53
f 36 35 55
f 36 55 56
f 34 57 55
f 34 55 35
f 58 59 55
f 58 55 57
f 60 56 55
f 60 55 59
f 61 62 63
f 61 63 64
f 65 66 63
f 65 63 62
f 67 68 63
f 67 63 66
f 69 64 63
f 69 63 68
f 70 71 72
f 70 72 73
f 74 75 72
f 74 72 71
f 76 77 72
f 76 72 75
f 78 73 72
f 78 72 77
f 54 53 79
f 54 79 80
f 52 81 79
f 52 79 53
f 82 83 79
f 82 79 81
f 84 80 79
f 84 79 83
f 60 59 85
f 60 85 86
f 58 87 85
f 58 85 59
f 88 89 85
f 88 85 87
f 90 86 85
f 90 85 89
f 91 92 93
f 91 93 94
f 95 96 93
f 95 93 92
f 97 98 93
f 97 93 96
f 99 94 93
f 99 93 98
f 100 101 102
f 100 102 103
f 104 105 102
f 104 102 101
f 106 107 102
f 106 102 105
f 108 103 102
f 108 102 107
f 109 110 111
f 109 111 112
f 113 114 111
f 113 111 110
f 115 116 111
f 115 111 114
f 117 112 111
f 117 111 116
f 118 119 120
f 118 120 121
f 122 123 120
f 122 120 119
f 124 125 120
f 124 120 123
f 126 121 120
f 126 120 125
f 117 116 127
f 117 127 128
f 115 129 127
f 115 127 116
f 130 131 127
f 130 127 129
f 132 128 127
f 132 127 131
f 5 133 134
f 5 134 6
f 19 22 134
f 19 134 133
f 27 135 134
f 27 134 22
f 7 6 134
f 7 134 135
f 14 136 137
f 14 137 15
f 28 31 137
f 28 137 136
f 36 138 137
f 36 137 31
f 16 15 137
f 16 137 138
f 7 135 139
f 7 139 39
f 27 50 139
f 27 139 135
f 54 140 139
f 54 139 50
f 40 39 139
f 40 139 140
f 16 138 141
f 16 141 45
f 36 56 141
f 36 141 138
f 60 142 141
f 60 141 56
f 46 45 141
f 46 141 142
f 65 143 144
f 65 144 66
f 145 146 144
f 145 144 143
f 147 148 144
f 147 144 146
f 67 66 144
f 67 144 148
f 74 149 150
f 74 150 75
f 151 152 150
f 151 150 149
f 153 154 150
f 153 150 152
f 76 75 150
f 76 150 154
f 95 155 156
f 95 156 96
f 157 158 156
f 157 156 155
f 159 160 156
f 159 156 158
f 97 96 156
f 97 156 160
f 104 161 162
f 104 162 105
f 163 164 162
f 163 162 161
f 165 166 162
f 165 162 164
f 106 105 162
f 106 162 166
f 167 168 169
f 167 169 170
f 126 125 169
f 126 169 168
f 124 171 169
f 124 169 125
f 130 170 169
f 130 169 171
f 172 173 174
f 172 174 175
f 10 13 174
f 10 174 173
f 18 176 174
f 18 174 13
f 177 175 174
f 177 174 176
f 32 178 179
f 32 179 33
f 1 4 179
f 1 179 178
f 9 180 179
f 9 179 4
f 34 33 179
f 34 179 180
f 177 176 181
f 177 181 182
f 18 44 181
f 18 181 176
f 48 183 181
f 48 181 44
f 184 182 181
f 184 181 183
f 34 180 185
f 34 185 57
f 9 38 185
f 9 185 180
f 42 186 185
f 42 185 38
f 58 57 185
f 58 185 186
f 184 183 187
f 184 187 188
f 48 189 187
f 48 187 183
f 190 191 187
f 190 187 189
f 192 188 187
f 192 187 191
f 58 186 193
f 58 193 87
f 42 194 193
f 42 193 186
f 195 196 193
f 195 193 194
f 88 87 193
f 88 193 196
f 197 198 199
f 197 199 200
f 201 202 199
f 201 199 198
f 203 204 199
f 203 199 202
f 205 200 199
f 205 199 204
f 122 206 207
f 122 207 123
f 208 209 207
f 208 207 206
f 210 211 207
f 210 207 209
f 124 123 207
f 124 207 211
f 205 204 212
f 205 212 213
f 203 214 212
f 203 212 204
f 167 170 212
f 167 212 214
f 130 213 212
f 130 212 170
f 124 211 215
f 124 215 171
f 210 216 215
f 210 215 211
f 132 131 215
f 132 215 216
f 130 171 215
f 130 215 131
f 67 217 218
f 67 218 68
f 95 92 218
f 95 218 217
f 91 219 218
f 91 218 92
f 69 68 218
f 69 218 219
f 76 220 221
f 76 221 77
f 104 101 221
f 104 221 220
f 100 222 221
f 100 221 101
f 78 77 221
f 78 221 222
f 82 223 224
f 82 224 83
f 113 110 224
f 113 224 223
f 109 225 224
f 109 224 110
f 84 83 224
f 84 224 225
f 88 226 227
f 88 227 89
f 122 119 227
f 122 227 226
f 118 228 227
f 118 227 119
f 90 89 227
f 90 227 228
f 147 229 230
f 147 230 148
f 157 155 230
f 157 230 229
f 95 217 230
f 95 230 155
f 67 148 230
f 67 230 217
f 153 231 232
f 153 232 154
f 163 161 232
f 163 232 231
f 104 220 232
f 104 232 161
f 76 154 232
f 76 232 220
f 190 233 234
f 190 234 191
f 201 198 234
f 201 234 233
f 197 235 234
f 197 234 198
f 192 191 234
f 192 234 235
f 195 236 237
f 195 237 196
f 208 206 237
f 208 237 236
f 122 226 237
f 122 237 206
f 88 196 237
f 88 237 226
f 40 140 238
f 40 238 239
f 54 240 238
f 54 238 140
f 145 143 238
f 145 238 240
f 65 239 238
f 65 238 143
f 54 80 241
f 54 241 240
f 84 242 241
f 84 241 80
f 147 146 241
f 147 241 242
f 145 240 241
f 145 241 146
f 84 225 243
f 84 243 242
f 109 244 243
f 109 243 225
f 157 229 243
f 157 243 244
f 147 242 243
f 147 243 229
f 109 112 245
f 109 245 244
f 117 246 245
f 117 245 112
f 159 158 245
f 159 245 246
f 157 244 245
f 157 245 158
f 117 128 247
f 117 247 246
f 132 248 247
f 132 247 128
f 97 160 247
f 97 247 248
f 159 246 247
f 159 247 160
f 132 216 249
f 132 249 248
f 210 250 249
f 210 249 216
f 99 98 249
f 99 249 250
f 97 248 249
f 97 249 98
f 210 209 251
f 210 251 250
f 208 252 251
f 208 251 209
f 91 94 251
f 91 251 252
f 99 250 251
f 99 251 94
f 208 236 253
f 208 253 252
f 195 254 253
f 195 253 236
f 69 219 253
f 69 253 254
f 91 252 253
f 91 253 219
f 195 194 255
f 195 255 254
f 42 256 255
f 42 255 194
f 61 64 255
f 61 255 256
f 69 254 255
f 69 255 64
f 42 41 257
f 42 257 256
f 40 239 257
f 40 257 41
f 65 62 257
f 65 257 239
f 61 256 257
f 61 257 62
f 46 142 258
f 46 258 259
f 60 260 258
f 60 258 142
f 151 149 258
f 151 258 260
f 74 259 258
f 74 258 149
f 60 86 261
f 60 261 260
f 90 262 261
f 90 261 86
f 153 152 261
f 153 261 262
f 151 260 261
f 151 261 152
f 90 228 263
f 90 263 262
f 118 264 263
f 118 263 228
f 163 231 263
f 163 263 264
f 153 262 263
f 153 263 231
f 118 121 265
f 118 265 264
f 126 266 265
f 126 265 121
f 165 164 265
f 165 265 266
f 163 264 265
f 163 265 164
f 126 168 267
f 126 267 266
f 167 268 267
f 167 267 168
f 106 166 267
f 106 267 268
f 165 266 267
f 165 267 166
f 167 214 269
f 167 269 268
f 203 270 269
f 203 269 214
f 108 107 269
f 108 269 270
f 106 268 269
f 106 269 107
f 203 202 271
f 203 271 270
f 201 272 271
f 201 271 202
f 100 103 271
f 100 271 272
f 108 270 271
f 108 271 103
f 201 233 273
f 201 273 272
f 190 274 273
f 190 273 233
f 78 222 273
f 78 273 274
f 100 272 273
f 100 273 222
f 190 189 275
f 190 275 274
f 48 276 275
f 48 275 189
f 70 73 275
f 70 275 276
f 78 274 275
f 78 275 73
f 48 47 277
f 48 277 276
f 46 259 277
f 46 277 47
f 74 71 277
f 74 277 259
f 70 276 277
f 70 277 71
f 5 2 278
f 5 278 279
f 1 280 278
f 1 278 2
f 281 282 278
f 281 278 280
f 283 279 278
f 283 278 282
f 14 11 284
f 14 284 285
f 10 286 284
f 10 284 11
f 287 288 284
f 287 284 286
f 289 285 284
f 289 284 288
f 23 20 290
f 23 290 291
f 19 292 290
f 19 290 20
f 293 294 290
f 293 290 292
f 295 291 290
f 295 290 294
f 32 29 296
f 32 296 297
f 28 298 296
f 28 296 29
f 299 300 296
f 299 296 298
f 301 297 296
f 301 296 300
f 19 133 302
f 19 302 292
f 5 279 302
f 5 302 133
f 283 303 302
f 283 302 279
f 293 292 302
f 293 302 303
f 28 136 304
f 28 304 298
f 14 285 304
f 14 304 136
f 289 305 304
f 289 304 285
f 299 298 304
f 299 304 305
f 10 173 306
f 10 306 286
f 172 307 306
f 172 306 173
f 308 309 306
f 308 306 307
f 287 286 306
f 287 306 309
f 1 178 310
f 1 310 280
f 32 297 310
f 32 310 178
f 301 311 310
f 301 310 297
f 281 280 310
f 281 310 311
f 312 313 314
f 312 314 315
f 316 317 314
f 316 314 313
f 318 319 314
f 318 314 317
f 320 321 314
f 320 314 319
f 322 323 314
f 322 314 321
f 324 325 314
f 324 314 323
f 326 327 314
f 326 314 325
f 328 315 314
f 328 314 327
