v 0.0004688799 -0.003188252 -0.004581898
v 0.0002419055 0.003815293 -0.004584104
v 0.0004680455 0.003748894 0.004113823
v -0.0004619658 0.004361153 0.0007724464
v -0.0004193187 -0.0002648234 0.004584014
v -7.814169e-05 -0.00436151 0.002237827
v -0.0004102886 0.001921952 0.004554361
v 5.00083e-05 0.003208458 -0.003408581
v -0.0001072884 -0.003553867 -0.0001363158
v -0.0004689693 0.002296686 0.003178447
v 0.0001134276 -0.002591193 -0.003065914
v -0.0003830492 -0.002147019 0.002397805
v 0.0001702905 0.0001286864 -0.004286259
f 1 2 3
f 2 4 3
f 5 6 3
f 6 1 3
f 7 5 3
f 4 7 3
f 8 4 2
f 6 9 1
f 7 10 5
f 10 7 4
f 9 11 1
f 10 12 5
f 12 10 4
f 12 6 5
f 12 9 6
f 11 12 4
f 12 11 9
f 1 13 2
f 11 13 1
f 13 8 2
f 8 13 4
f 13 11 4
