v -0.003805444 0.01041222 0.0290103
v -0.002778128 0.01007384 0.03145006
v -0.0008392781 0.01037151 0.03179255
v 0.003184333 -0.01157945 0.01584131
v 0.003002092 -0.009839416 0.01972356
v -0.002226964 -0.01172042 0.01896349
v 0.0005701631 -0.006193638 0.02281919
v -0.003486797 -0.01269567 0.01580614
v -0.002754703 -0.01228058 -0.03179255
v -0.003868952 -0.01078123 -0.01884982
v -0.003166035 -0.008482873 -0.02873918
v -0.003792956 -0.01086158 0.01586074
v -0.001153246 -0.0004121661 0.02668557
v 0.002217188 -0.008857667 -0.008741349
v 0.0002143532 0.01269567 -0.008247018
v -0.002409026 0.01140821 0.003503203
v 0.003903851 0.01117092 0.01524755
v 0.003110215 0.01035708 0.005788237
v -0.003903851 0.009479284 0.02808535
v -0.001824126 -0.0110774 -0.02907011
v -0.0007641762 0.01201421 -0.0075728
v 0.003504083 -0.001378298 0.02329382
v 0.002562329 -0.005839527 -0.005760908
v 0.003757223 -0.001160979 0.01742932
v 0.002961412 0.004029334 0.02817869
v 0.002864614 0.01152861 0.02904618
f 1 2 3
f 4 5 6
f 5 7 6
f 4 8 9
f 8 4 6
f 2 8 6
f 8 2 1
f 10 11 9
f 8 10 9
f 10 8 12
f 13 2 6
f 7 13 6
f 2 13 3
f 14 4 9
f 11 15 9
f 15 16 1
f 15 17 18
f 10 19 11
f 16 19 1
f 11 19 16
f 19 10 12
f 19 8 1
f 8 19 12
f 20 14 9
f 15 20 9
f 21 11 16
f 15 21 16
f 21 15 11
f 22 5 4
f 17 23 18
f 23 15 18
f 14 23 4
f 20 23 14
f 23 20 15
f 24 22 4
f 22 24 17
f 23 24 4
f 24 23 17
f 22 25 5
f 13 25 3
f 5 25 7
f 25 13 7
f 26 22 17
f 26 25 22
f 25 26 3
f 26 17 15
f 26 1 3
f 26 15 1
