v 0.001064837 -0.02398726 -0.02274925
v -0.003701746 -0.005527288 -0.02653706
v 0.001190245 -0.02213053 -0.02544653
v 0.004523814 -0.01990071 0.02143508
v 0.002361655 -0.02019686 0.02653712
v 0.004082203 -0.01526675 0.0213542
v 0.004525065 0.01989788 -0.02434897
v -0.003774464 -0.02399555 -0.003177762
v -0.00403291 -0.02311532 -0.003236651
v -0.002543092 -0.02088919 0.02343953
v -0.00391531 -0.009494618 0.01471162
v 0.002032161 -0.02184841 -0.0252139
v -0.002282858 -0.02176978 0.02349806
v -0.002171636 -0.01975974 0.02447838
v 0.002171278 0.02399553 -0.02396554
v -0.002178192 0.02067085 -0.02600372
v -0.0003711581 0.02320364 -0.02459908
v -0.003065944 0.00800553 -0.02629805
v -0.002909124 0.01146796 -0.003692627
v -0.003560007 0.01712203 -0.01602906
v -0.004372656 0.00567171 0.001539707
v -0.004309416 -0.01335829 0.001440883
v -0.004521787 -0.01233327 -0.01080889
v 0.001891732 -0.02361481 -0.02243787
v 0.001846194 -0.01844521 0.02641994
v -0.0007743835 -0.01284352 0.02204728
v -0.003879189 -0.005736291 0.01380694
v 0.003094971 0.02250198 -0.02186602
v 5.978346e-05 0.01754506 -0.01137209
v -0.003016531 0.01977251 -0.02151787
v -0.00408119 0.001580924 -0.01813293
v -0.002158344 0.01939869 -0.01660913
v 0.0001764297 -0.005298555 0.01669014
v -0.004348934 -0.01081792 -0.01733053
v -0.004525125 0.004545838 -0.0003867745
v 0.0006763339 0.007013813 0.0016222
v 0.002758503 -0.01002336 0.02011698
v -0.002004862 0.0003143847 0.0105496
f 1 2 3
f 1 4 5
f 4 6 5
f 6 4 7
f 1 8 9
f 8 10 9
f 10 11 9
f 7 12 3
f 4 12 7
f 12 1 3
f 8 13 10
f 14 13 5
f 13 14 10
f 13 1 5
f 13 8 1
f 15 16 17
f 16 15 7
f 16 7 3
f 2 16 3
f 18 16 2
f 19 20 21
f 22 23 9
f 11 22 9
f 24 4 1
f 12 24 1
f 24 12 4
f 6 25 5
f 25 14 5
f 25 26 14
f 26 27 14
f 14 27 10
f 27 11 10
f 28 15 29
f 15 28 7
f 30 18 2
f 30 16 18
f 16 30 17
f 31 30 2
f 30 31 20
f 32 19 29
f 32 20 19
f 32 15 17
f 15 32 29
f 30 32 17
f 32 30 20
f 25 33 26
f 34 31 2
f 23 34 9
f 34 1 9
f 34 2 1
f 22 35 23
f 20 35 21
f 31 35 20
f 35 34 23
f 34 35 31
f 35 22 11
f 35 27 21
f 27 35 11
f 36 28 29
f 37 25 6
f 37 33 25
f 37 36 33
f 36 37 28
f 37 6 7
f 28 37 7
f 38 27 26
f 33 38 26
f 27 38 21
f 38 19 21
f 36 38 33
f 19 38 29
f 38 36 29
