v -0.003890008 0.01713365 0.01766048
v 0.002486229 0.01778692 0.01913719
v -0.00230518 0.01859522 -0.02054344
v 0.00231126 -0.01798332 -0.01937433
v -0.003631979 -0.01859528 -0.01711626
v -0.00302425 -0.0185312 0.0128672
v 0.002916753 -0.0179227 0.01060896
v 0.002615958 -0.01703548 0.01263516
v -0.003099382 0.01721561 -0.006025419
v -0.003853381 -0.01678294 0.01115958
v 0.003352612 -0.01695967 0.009434029
v -0.003589958 0.01533002 0.02054344
v -0.002749413 0.007159472 0.02054285
v -0.002663851 -0.01574415 0.01457141
v -0.0003519356 -0.002504349 0.01779906
v -0.003932089 -0.01770699 -0.01508601
v 0.002632618 -0.01795107 -0.01851846
v -0.003818542 -0.01678085 -0.01711749
v 0.003483146 0.01789165 -0.006577983
v 0.003909349 0.01059854 -0.007431313
v 0.003932089 -0.002225459 -0.01084279
v 0.003534585 -0.005021453 0.01572548
v 0.003177971 0.015109 0.01508133
v 0.003768444 0.005082488 0.01134692
v 0.003333241 -0.01420879 -0.01308031
v 0.003832638 -0.004989803 0.008790895
v 0.003285021 0.006861389 0.01828437
f 1 2 3
f 4 5 3
f 6 7 8
f 5 7 6
f 9 1 3
f 10 5 6
f 7 11 8
f 1 12 2
f 12 13 2
f 10 12 1
f 14 6 8
f 14 10 6
f 12 14 13
f 14 12 10
f 15 14 8
f 14 15 13
f 16 10 1
f 10 16 5
f 9 16 1
f 17 11 7
f 17 5 4
f 17 7 5
f 5 18 3
f 16 18 5
f 18 9 3
f 18 16 9
f 19 4 3
f 19 20 4
f 2 19 3
f 20 21 4
f 21 17 4
f 11 22 8
f 22 15 8
f 23 24 20
f 19 23 20
f 23 19 2
f 17 25 11
f 25 21 11
f 21 25 17
f 22 26 24
f 24 26 20
f 26 21 20
f 21 26 11
f 26 22 11
f 27 22 24
f 23 27 24
f 27 23 2
f 13 27 2
f 15 27 13
f 22 27 15
