v 0.003436267 -0.01628688 0.01075697
v 0.004025519 -0.01775351 -0.01804668
v 0.004016161 0.01690251 0.02050549
v 0.002586842 -0.01799154 0.01249701
v 0.003669918 -0.01866326 -0.02005923
v 0.002927423 0.01339361 0.02228409
v 0.002095312 -0.004948288 0.01829201
v -0.003368765 -0.01724526 0.01031661
v -0.003181785 -0.01758531 -0.008991539
v 0.002270997 0.01698434 0.02141714
v -0.002435744 0.01866326 0.02002996
v 0.003895819 0.01780885 0.01846874
v -0.002664477 -0.01780739 -0.01849383
v -0.001434654 -0.01802391 -0.02192891
v -0.003572285 0.01842633 -0.003644824
v -0.003378779 0.01503724 0.01603532
v -0.003597707 0.004986554 0.01853168
v -0.004025489 0.01017931 -0.005223572
v -0.003833592 0.004984736 0.01650995
v 0.002258658 0.003560692 -0.02196932
v 0.001885235 0.01750788 -0.0161894
v 0.003231823 0.01757672 -0.001153588
v -0.003768712 -0.01070023 0.01364416
v -0.003146797 0.01323709 0.02011722
v 0.001036018 0.01792428 -0.01680303
v -0.004024327 -0.004261374 0.01120907
v 0.001406878 0.003668398 -0.02228403
v -0.003817558 -0.007426769 -0.01180017
v -0.003674448 -0.01538238 0.009120882
f 1 2 3
f 2 1 4
f 5 2 4
f 6 7 4
f 6 1 3
f 1 6 4
f 8 9 4
f 9 5 4
f 10 6 3
f 6 10 11
f 12 10 3
f 10 12 11
f 5 13 14
f 9 13 5
f 15 16 11
f 6 17 7
f 18 16 15
f 16 18 19
f 5 20 2
f 20 21 2
f 21 22 2
f 2 22 3
f 22 12 3
f 23 17 19
f 17 23 7
f 7 23 4
f 23 8 4
f 24 16 19
f 17 24 19
f 16 24 11
f 24 6 11
f 24 17 6
f 20 25 21
f 25 18 15
f 25 15 11
f 13 25 14
f 25 22 21
f 12 25 11
f 22 25 12
f 18 26 19
f 26 23 19
f 25 27 14
f 27 25 20
f 27 5 14
f 27 20 5
f 28 26 18
f 28 13 9
f 28 25 13
f 25 28 18
f 26 29 23
f 28 29 26
f 23 29 8
f 29 9 8
f 29 28 9
