v 0.003552154 0.0003920197 -0.02075845
v 0.00176619 -0.003777176 -0.01939589
v 0.0008820593 0.006312132 -0.02460992
v 0.0005582869 0.00626111 0.02117753
v 0.001440495 0.005661696 0.02023363
v 0.003563374 0.001196414 0.02201194
v -0.001767248 -0.004944921 -0.01810431
v 0.001755953 0.005610451 -0.02297527
v -0.003122628 -0.003807962 -0.01670039
v -0.003408432 -0.006312132 -0.0118255
v -0.003563389 -0.004582584 0.009794295
v 0.00158903 0.005202025 -0.02380073
v -0.002419725 -0.001337484 0.02313054
v -0.001797125 -0.001860693 0.02460998
v -0.002969205 -0.004756778 0.01679569
v -0.001460209 -0.006118834 0.007686436
v 0.00107871 -0.004823595 0.01179296
v 0.001292661 -0.004820421 -0.01562488
v 0.00259082 -0.001061976 0.02332437
v 0.0006814748 -0.006089777 -0.006449103
f 1 2 3
f 4 5 3
f 5 4 6
f 2 7 3
f 1 8 6
f 5 8 3
f 8 5 6
f 7 9 3
f 9 7 10
f 11 9 10
f 9 4 3
f 12 1 3
f 8 12 3
f 12 8 1
f 9 13 4
f 13 9 11
f 4 13 14
f 13 15 14
f 15 13 11
f 15 11 10
f 16 15 10
f 17 15 16
f 18 7 2
f 7 18 10
f 19 17 6
f 19 4 14
f 4 19 6
f 15 19 14
f 17 19 15
f 20 17 16
f 20 16 10
f 18 20 10
f 17 20 6
f 20 1 6
f 1 20 2
f 20 18 2
