v -0.0004348978 -0.02063024 -0.02428883
v -0.001502477 -0.02120528 -0.02509993
v 0.00360956 -0.00707677 -0.02529162
v -0.004400469 0.02196234 -0.0172767
v 0.001686685 0.02408126 -0.01860946
v -0.003397934 0.024468 -0.01624084
v 0.003740914 -0.024468 -0.009357989
v -0.004410245 -0.02233583 0.02226079
v -0.003837802 -0.02179408 0.01074487
v 0.00437177 -0.0205349 -0.01274538
v 0.002844058 0.02087474 -0.01841229
v -0.002581634 -0.01422417 0.02099478
v -0.001531266 -0.02241161 0.02529168
v -0.001238577 0.01951939 -0.007981598
v 0.00110098 -0.005446792 0.01552361
v 0.003572263 0.01726457 -0.009581983
v 0.002920099 0.0111419 0.0002132654
v 0.004370622 -0.0002774 0.008703768
v 0.003881074 0.01428509 -0.00913161
v 0.004410245 0.005949825 4.422665e-05
v 0.002787657 -0.005908787 0.01500785
v 0.003624611 -0.01297018 0.01760358
v 0.003876545 0.001660526 -0.02042288
v 0.002180524 0.005272567 0.006250322
v 0.001521848 0.02294919 -0.01491201
v 0.004137971 -0.02120861 -0.005586505
v 0.002596609 -0.02330759 0.0202499
v 0.002753682 -0.020569 0.02154219
v 0.0001645461 -0.01603627 0.02191597
v 0.004307739 -0.009000391 -0.0191673
v 0.0007433817 -0.02397722 0.02446443
f 1 2 3
f 2 4 3
f 4 5 3
f 4 6 5
f 1 7 2
f 7 8 2
f 8 9 2
f 9 4 2
f 4 9 8
f 10 1 3
f 10 7 1
f 5 11 3
f 4 12 6
f 12 4 8
f 12 8 13
f 12 14 6
f 14 12 15
f 16 17 18
f 16 11 5
f 11 16 19
f 10 20 18
f 20 16 18
f 16 20 19
f 21 22 18
f 11 23 3
f 23 11 19
f 24 14 15
f 14 24 17
f 21 24 15
f 17 24 18
f 24 21 18
f 25 14 17
f 16 25 17
f 25 16 5
f 6 25 5
f 14 25 6
f 26 22 27
f 26 27 7
f 10 26 7
f 26 10 18
f 22 26 18
f 22 28 27
f 29 22 21
f 29 21 15
f 29 28 22
f 29 12 13
f 12 29 15
f 30 20 10
f 30 10 3
f 23 30 3
f 20 30 19
f 30 23 19
f 31 29 13
f 29 31 28
f 28 31 27
f 8 31 13
f 7 31 8
f 27 31 7
