v -0.006920159 -0.00693965 0.004040807
v 0.0003923774 -0.005662762 -0.01534668
v 0.006842613 -0.006938186 0.004411846
v -0.006286025 -5.379319e-05 0.0157738
v 0.004680514 0.003573813 0.01486987
v -0.005962372 0.00523001 0.01313281
v 0.006720483 0.006856568 0.01076186
v 0.006643534 0.0001254305 0.01501533
v 0.008165896 0.006127976 0.009065032
v 0.00554198 -0.001566477 -0.01527309
v 0.004303277 0.003363207 -0.01542789
v 0.006219029 -0.007145993 0.00924769
v 0.004748642 -0.001079261 0.01579893
v 0.005733788 -0.005248409 0.01363814
v -0.00600183 -0.005080055 0.01334152
v 0.003617942 -0.004832745 -0.01526779
v 0.008069336 -0.006317846 0.009210825
v 0.006896377 0.006627113 0.00413847
v -0.008166254 0.007146001 0.008852839
v -0.007429004 0.006865382 0.004673332
v -0.008158505 -0.007106967 0.009223908
v -0.003028393 -0.00462734 -0.01548946
v 0.007965088 -0.0002092943 0.002829939
v -0.0005796552 0.004613429 -0.01558951
v -0.003856957 0.002729326 -0.01565349
v 0.001961887 0.003048822 -0.01568106
v -0.007320285 0.001599081 0.01431552
v -0.008039057 -0.0008422434 0.002763063
v -0.00275445 0.002659984 -0.01576653
v 0.003997862 -0.002076577 -0.01551405
v -0.004744112 -0.001224518 -0.0156104
v -0.003173769 -0.002054755 -0.01579812
v -0.003162622 0.001009792 -0.01579878
v 0.004008889 0.0009859502 -0.01557529
v 0.0003997087 -0.004939441 -0.01551327
v 0.001933455 -0.004125182 -0.01553646
f 1 2 3
f 4 5 6
f 7 5 8
f 5 7 6
f 9 7 8
f 9 10 11
f 12 1 3
f 13 14 8
f 5 13 8
f 13 5 4
f 13 4 15
f 14 13 15
f 2 16 3
f 16 10 3
f 17 9 8
f 17 12 3
f 10 17 3
f 14 17 8
f 12 17 14
f 18 9 11
f 9 18 7
f 7 19 6
f 18 19 7
f 19 18 20
f 12 21 1
f 21 14 15
f 21 12 14
f 4 21 15
f 22 2 1
f 9 23 10
f 23 17 10
f 17 23 9
f 24 18 11
f 18 24 20
f 20 24 25
f 26 24 11
f 27 4 6
f 19 27 6
f 27 21 4
f 21 27 19
f 28 21 19
f 24 29 25
f 29 24 26
f 16 30 10
f 21 31 1
f 31 22 1
f 28 31 21
f 22 31 32
f 31 20 25
f 31 19 20
f 31 28 19
f 33 26 32
f 33 29 26
f 29 33 25
f 33 31 25
f 31 33 32
f 26 34 32
f 34 30 32
f 34 26 11
f 10 34 11
f 30 34 10
f 22 35 2
f 35 22 32
f 35 16 2
f 36 30 16
f 35 36 16
f 30 36 32
f 36 35 32
