v -0.002633184 0.003990378 0.01132309
v -0.002633736 0.005932968 -0.001504242
v -0.002633788 -0.003997143 0.01131982
v 3.20822e-05 0.005927552 0.00979197
v -0.002633743 -0.005927343 -0.001510501
v -0.001837298 7.334922e-06 -0.01132295
v 3.203005e-05 -0.005932968 0.009786516
v -0.0005407855 -0.003796194 -0.001966506
v 0.001870982 -0.003801111 0.008258283
v -0.0005407855 0.003802549 -0.001962692
v 0.002633743 -1.404609e-06 0.007624954
v 0.001871064 0.00379673 0.008261979
v 0.0003806576 3.155146e-06 -0.002165139
f 1 2 3
f 2 1 4
f 2 5 3
f 5 2 6
f 5 7 3
f 7 1 3
f 1 7 4
f 8 5 6
f 7 8 9
f 8 7 5
f 2 10 6
f 10 2 4
f 11 12 9
f 7 12 4
f 12 7 9
f 12 10 4
f 10 13 6
f 13 8 6
f 13 12 11
f 12 13 10
f 13 11 9
f 8 13 9
