v -0.005492866 -0.01903856 0.03201669
v -0.005492896 -0.02009165 -0.03389627
v -0.0003078282 -0.02016205 0.03387016
v -0.005492985 0.02019501 0.02559644
v -2.05934e-05 0.01648802 0.02562112
v 0.005407691 0.01187253 0.03389573
v 0.005467087 0.01095563 0.01923347
v 0.004522979 -0.02019495 -0.02199587
v 0.005449802 -0.0192821 -0.0229075
v 0.005457669 -0.01928097 -0.02473918
v 0.005492985 -0.01103514 -0.02015996
v -0.0009129643 -0.01740175 -0.03118032
v -0.00461185 0.02018976 0.03385091
v 0.005389094 0.009119868 0.03389627
v -0.005466819 0.01927572 0.01826888
v -0.004512191 0.0156036 0.004526556
v -0.004510641 -0.0008875132 -0.02112055
v -0.0009270906 -0.02015615 -0.03209597
v -0.004545003 -0.01188278 -0.03027987
v 0.004297286 0.003539741 -1.186132e-05
v -0.004548877 0.01927054 0.01827306
v -0.0008746386 -0.006406426 -0.02293593
v -0.0008657277 -0.002742469 -0.0192717
f 1 2 3
f 1 4 2
f 5 6 7
f 8 9 3
f 9 8 10
f 9 11 7
f 11 9 10
f 12 11 10
f 5 13 6
f 1 13 4
f 13 1 3
f 6 14 7
f 14 9 7
f 9 14 3
f 14 13 3
f 13 14 6
f 15 16 17
f 4 15 2
f 15 17 2
f 12 18 2
f 18 12 10
f 8 18 10
f 2 18 3
f 18 8 3
f 17 19 2
f 19 12 2
f 20 16 7
f 11 20 7
f 21 15 4
f 13 21 4
f 21 13 5
f 21 5 7
f 16 21 7
f 15 21 16
f 22 11 12
f 19 22 12
f 22 19 17
f 23 20 11
f 23 22 17
f 22 23 11
f 16 23 17
f 20 23 16
