v 0.001931101 0.002558798 0.02569377
v -0.002454638 -0.01220429 0.01309967
v 0.002847612 0.001619071 0.02387309
v -0.002847612 -0.01168647 -0.03824818
v 0.002847344 -0.02646452 -0.03535962
v -0.00258708 -0.02945572 -0.03449452
v -0.002580881 0.02945569 0.03824812
v -0.002609521 0.02899081 -0.03541285
v -0.00264743 0.01455873 0.0347293
v 0.002847597 0.0136061 0.03106201
v 0.002847359 0.02940127 -0.03594202
v 0.002734065 0.02890581 0.03409636
v -0.00249365 -0.02206227 -0.002188921
v -0.002470434 -0.001023173 0.02419031
v 0.0009141415 -0.0141812 0.006933153
v 0.002575994 -0.02115443 -0.01025009
v 0.0001011342 0.02898264 0.0367862
v -0.00250867 -0.008069366 0.01763606
v -0.002512664 -0.02580181 -0.01175624
v -0.001559943 -0.01779303 0.004577518
v 0.001714185 -0.01980707 -0.004338741
v 0.002476186 -0.01381445 0.004416645
v -0.002553523 -0.02902213 -0.02697998
v 0.001931757 -0.02723604 -0.02162457
f 1 2 3
f 4 5 6
f 4 7 8
f 4 9 7
f 10 1 3
f 10 9 1
f 11 4 8
f 4 11 5
f 7 11 8
f 12 11 7
f 10 11 12
f 5 11 3
f 11 10 3
f 4 13 9
f 9 14 1
f 2 15 3
f 16 5 3
f 9 17 7
f 10 17 9
f 17 12 7
f 17 10 12
f 18 13 2
f 13 18 9
f 18 14 9
f 1 18 2
f 14 18 1
f 19 13 4
f 20 13 21
f 15 20 21
f 13 20 2
f 20 15 2
f 22 16 3
f 16 22 21
f 15 22 3
f 22 15 21
f 23 4 6
f 23 19 4
f 16 24 5
f 23 24 19
f 24 16 21
f 5 24 6
f 24 23 6
f 13 24 21
f 19 24 13
