v 0.0009534359 0.02042714 -0.0372366
v 0.007091939 0.02341512 -0.03919888
v 0.01106954 0.02060673 -0.04052395
v -0.01795101 0.01145762 0.009072661
v -0.01850724 0.002491593 0.003491312
v -0.005752623 0.0221335 0.01110107
v 0.002239525 0.02373788 0.002257377
v 0.002063036 0.02361152 0.00927034
v -0.01349258 0.017382 0.01019207
v 0.008983135 0.02185091 0.006008238
v 0.007010996 0.0206472 0.01860577
v 0.01271415 0.01749888 0.01767081
v -0.004520833 0.02194831 0.001293361
v -0.007387519 0.01937547 0.02184573
v -0.01442891 0.0167385 0.02209124
v 0.01571643 -0.01325908 0.002703339
v 0.01022893 0.01428723 -0.03720137
v -0.01536214 0.01680401 0.01704723
v 0.009524405 -0.02227384 0.01268888
v 0.0008871555 -0.02370006 0.01875308
v 0.001077056 -0.02373788 0.01075155
v 0.004310787 -0.02218267 0.02624884
v -0.008906543 -0.02078888 0.0270187
v -0.01141518 -0.01473665 0.02720562
v -0.01219159 -0.02181911 0.02046102
v -0.004994452 0.008873969 0.03643826
v 0.001616478 0.008700937 0.03795958
v 0.004036486 0.01198485 0.03548241
v -0.01080507 0.008907169 0.03284204
v -0.003531992 0.00122118 0.03909835
v -0.01440465 0.01269993 0.02763247
v -0.01572394 0.007650793 0.02753904
v -0.01895535 0.007043779 0.02005601
v -0.01978147 0.005317748 0.01583058
v 0.01647592 0.01402506 0.01151252
v 0.01326752 0.01809594 0.00577271
v 0.0009272099 0.01916352 0.02482417
v -0.002903223 0.01658729 0.02919871
v 0.003551602 0.01002228 -0.03458646
v 0.003635526 -0.009011716 -0.01484025
v 0.0003763437 -0.01623425 -0.007846802
v 0.01612186 -0.003664345 -0.004719555
v 0.01844049 -0.008340329 0.006406605
v 0.01987523 -0.002949983 0.008448899
v 0.01987529 0.004847348 0.01301494
v -0.01742399 -0.01450673 0.01585191
v -0.0115568 -0.02259308 0.01360196
v -0.01618749 -0.0194253 0.01059437
v -0.01406854 -0.01917338 0.006609112
v -0.0007594824 -0.02191713 0.001998782
v 0.0003798604 0.01319063 -0.03642371
v -0.009705424 -0.01335052 -0.003840148
v -0.005290091 -0.01883584 -0.002093017
v -0.003347993 -0.009622306 0.03631788
v 0.005805731 -0.006934941 0.04005662
v 0.003631353 -0.01195362 0.03788173
v 0.006856918 -0.02268875 0.008329511
v -0.002745152 -0.017149 0.03320241
v 1.549721e-05 -0.02144861 0.02911365
v -0.008710921 -0.01094568 0.03199393
v -0.00757587 -0.02336457 0.02086127
v 0.004447818 0.001305759 0.04052398
v 0.01069987 -0.0009574294 0.03976426
v -0.01648808 0.01498297 0.01922143
v -0.009853005 0.01398572 0.03070614
v 0.0004090667 0.02244177 0.01583427
v 0.007594764 -0.01563796 -0.00695768
v 0.01862609 0.003332734 0.002016544
v -0.01589501 -0.01915678 0.01370603
v -0.01974219 -0.005345076 0.01149622
v -0.009237647 -0.02159509 0.007529318
v -0.001628816 -0.008494794 -0.01448131
v 0.007921994 -0.01932856 0.03119755
v 0.01364237 -0.01869828 0.02296653
v 0.01269144 -0.01490867 0.03295368
v 0.01695389 0.01014361 0.02327755
v 0.01979226 0.001316845 0.02304715
v 0.008620024 0.01551136 0.02831671
v 0.01190519 0.006879359 0.03612894
v -0.004991293 -0.01299304 0.0338946
v -0.01143378 6.788969e-05 0.03264064
v -0.006699204 -0.00814718 0.03455758
v 0.00807035 0.004598051 0.03955665
v 0.0137412 -0.01186264 -0.003536165
v 0.01055515 -0.01959929 0.002798826
v -0.01981443 -1.251698e-05 0.01135135
v -0.0171808 -0.01342967 0.005085737
v -0.01853383 -0.01145023 0.009709626
v 0.01158822 -0.008576035 0.03813669
v 0.0158751 -0.005455464 0.03468299
v 0.01602221 0.002956599 0.03330517
v 0.01103586 -0.02071905 0.02130821
v 0.01726681 -0.01300254 0.02450398
v 0.007270753 -0.01607934 0.03557113
v 0.01283383 0.01253143 0.02824461
v -0.004405379 -0.008848995 0.03597298
v -0.01080823 -0.007375181 0.03111693
v 0.00481987 -0.02106097 0.0004732013
v 0.01446193 -0.01826137 0.01079196
v -0.01987535 0.0002655387 0.01206315
v -0.0177747 -0.006333292 0.002500027
v 0.0198704 -0.006138414 0.02009302
v -0.009635568 -0.00840643 0.03212559
v 0.01781189 -0.01348618 0.01328993
v 0.01753128 -0.007272303 0.03114107
f 1 2 3
f 4 1 5
f 6 7 2
f 7 6 8
f 4 9 1
f 2 10 3
f 10 11 12
f 11 10 8
f 10 7 8
f 7 10 2
f 13 2 1
f 13 6 2
f 9 13 1
f 13 9 6
f 14 6 15
f 16 17 3
f 18 9 4
f 6 18 15
f 9 18 6
f 19 20 21
f 20 19 22
f 23 24 25
f 26 27 28
f 26 29 30
f 27 26 30
f 29 31 32
f 31 33 32
f 34 4 5
f 35 36 12
f 36 10 12
f 36 35 3
f 10 36 3
f 37 14 38
f 28 37 38
f 39 40 41
f 42 16 3
f 42 43 16
f 44 43 3
f 43 42 3
f 35 45 3
f 24 46 25
f 33 46 32
f 46 24 32
f 47 48 49
f 47 50 21
f 48 47 25
f 51 39 41
f 51 1 3
f 1 51 5
f 17 51 3
f 51 17 39
f 52 53 49
f 50 53 41
f 51 53 52
f 54 55 30
f 55 54 56
f 50 57 21
f 57 19 21
f 54 58 56
f 59 58 23
f 60 24 23
f 61 20 22
f 59 61 22
f 47 61 25
f 61 23 25
f 61 59 23
f 20 61 21
f 61 47 21
f 62 27 30
f 55 62 30
f 62 55 63
f 64 31 15
f 31 64 33
f 18 64 15
f 64 18 4
f 34 64 4
f 64 34 33
f 26 65 29
f 65 31 29
f 65 28 38
f 65 26 28
f 31 65 15
f 65 14 15
f 14 65 38
f 37 66 14
f 6 66 8
f 14 66 6
f 66 11 8
f 66 37 11
f 40 67 41
f 17 67 39
f 67 40 39
f 68 44 3
f 45 68 3
f 68 45 44
f 69 48 25
f 46 69 25
f 69 46 48
f 34 70 33
f 70 46 33
f 71 47 49
f 47 71 50
f 53 71 49
f 71 53 50
f 72 51 41
f 53 72 41
f 72 53 51
f 73 59 22
f 73 74 75
f 76 35 12
f 45 76 77
f 76 45 35
f 11 78 12
f 79 78 28
f 78 37 28
f 37 78 11
f 80 58 54
f 58 80 23
f 80 60 23
f 81 29 32
f 29 81 30
f 81 82 30
f 62 83 27
f 27 83 28
f 83 79 28
f 79 83 63
f 83 62 63
f 84 17 16
f 84 67 17
f 57 85 19
f 85 84 16
f 84 85 67
f 70 86 5
f 48 87 49
f 87 52 49
f 87 51 52
f 46 88 48
f 70 88 46
f 88 87 48
f 89 90 63
f 90 89 75
f 55 89 63
f 91 79 63
f 90 91 63
f 76 91 77
f 19 92 22
f 74 92 19
f 92 73 22
f 73 92 74
f 74 93 75
f 94 58 59
f 73 94 59
f 58 94 56
f 94 55 56
f 94 89 55
f 94 73 75
f 89 94 75
f 95 78 79
f 91 95 79
f 95 91 76
f 95 76 12
f 78 95 12
f 96 54 30
f 82 96 30
f 96 80 54
f 80 96 60
f 96 82 60
f 24 97 32
f 97 81 32
f 98 57 50
f 98 85 57
f 85 98 67
f 98 50 41
f 67 98 41
f 99 74 19
f 85 99 19
f 99 85 16
f 100 70 34
f 100 86 70
f 100 34 5
f 86 100 5
f 101 70 5
f 51 101 5
f 87 101 51
f 101 88 70
f 88 101 87
f 102 45 77
f 45 102 44
f 97 103 81
f 82 103 60
f 81 103 82
f 60 103 24
f 103 97 24
f 104 93 74
f 99 104 74
f 104 102 93
f 43 104 16
f 104 99 16
f 104 43 44
f 102 104 44
f 102 105 93
f 105 90 75
f 93 105 75
f 105 102 77
f 91 105 77
f 105 91 90
