v -0.004214752 0.0151726 0.0211488
v -0.004021268 0.01591963 0.02221549
v -0.00262766 0.007710457 -0.02013934
v -0.002969537 0.006859601 -0.02029133
v -0.003634799 0.002998292 -0.01989031
v -0.003724944 -0.008073986 0.01954722
v -0.004124042 -0.01005995 -0.01955515
v 0.00235391 0.008250415 -0.01737493
v 0.003475893 0.0052948 -0.0203712
v 0.003998067 0.008715391 -0.01232213
v -0.002400827 -0.01741982 0.01775455
v 0.003398929 -0.01838547 -0.001240015
v 2.082437e-06 -0.01860243 0.01896274
v -0.00352988 -0.009646714 -0.02320379
v 0.002272222 -0.01226807 -0.02160418
v -0.0009493791 0.01860237 0.02302074
v 0.002812181 -0.01325047 0.02215707
v 0.002616752 0.0151003 0.02320379
v 0.004211951 0.007298648 -0.01055402
v 0.003610034 0.01517922 0.01484931
v -0.003336575 0.003203988 -0.021716
v -0.004187386 -0.008537412 -0.02223372
v -0.003556889 -0.0101344 0.01934123
v 0.003672708 -0.01169765 -0.005218565
v 0.003697772 -0.01419353 0.003019035
v 0.002406653 0.01651537 0.02143234
v 0.002547886 0.01695329 0.01298499
v 0.003434438 -0.01192969 0.0136466
v 0.003113825 -0.005493283 -0.02165163
v -0.001294818 0.01378834 -0.0009989142
v 0.004214752 0.01376277 0.004374802
v 0.003627259 0.01185435 -0.006345809
f 1 2 3
f 4 1 3
f 4 5 1
f 6 2 1
f 7 6 1
f 8 9 3
f 9 8 10
f 11 12 13
f 7 12 11
f 12 14 15
f 12 7 14
f 16 17 18
f 12 17 13
f 17 16 2
f 6 17 2
f 19 9 10
f 17 20 18
f 4 21 5
f 21 4 3
f 9 21 3
f 21 9 14
f 5 22 1
f 22 7 1
f 7 22 14
f 22 21 14
f 21 22 5
f 23 7 11
f 23 6 7
f 23 11 13
f 17 23 13
f 23 17 6
f 12 24 25
f 24 19 25
f 26 16 18
f 20 26 18
f 26 27 16
f 27 26 20
f 28 20 17
f 28 12 25
f 28 17 12
f 19 29 9
f 24 29 19
f 14 29 15
f 9 29 14
f 29 12 15
f 29 24 12
f 27 30 16
f 2 30 3
f 16 30 2
f 31 27 20
f 31 19 10
f 19 31 25
f 31 28 25
f 28 31 20
f 32 30 27
f 31 32 27
f 32 8 3
f 30 32 3
f 8 32 10
f 32 31 10
