v 0.002857983 0.006765485 -0.02035884
v 0.002920628 0.006772161 0.01251493
v 0.002731174 -0.00284344 -0.02578488
v -0.002896637 0.002066135 0.02076966
v -0.002868861 0.003213763 0.01827131
v -0.002920628 -0.001917839 0.01187627
v 0.001604825 -0.003836036 0.01811188
v 0.001626343 -0.0003012419 0.02578488
v 0.002530783 -0.001147628 0.02540791
v 0.002528548 -0.006233335 0.007943712
v 0.001611918 -0.006217778 0.007940859
v 0.001675457 -0.006768882 -0.008435063
v 0.00259307 -0.006780863 -0.008430772
v 0.001790732 0.006201386 0.0116287
v 0.00174889 -0.005058467 -0.01874368
v -0.002779275 -0.001721799 -0.01928302
v -0.002696633 0.002687752 -0.02229539
v -0.002720743 0.0005731583 -0.02427948
v 0.001941442 0.006780863 -0.02036206
v -0.001954436 -0.004211903 -0.007302135
v 0.001940072 0.006330371 -0.02158087
f 1 2 3
f 4 5 6
f 4 7 8
f 7 4 6
f 2 4 8
f 4 2 5
f 7 9 8
f 9 7 10
f 9 2 8
f 2 9 10
f 11 7 6
f 7 11 10
f 11 12 10
f 2 13 3
f 13 2 10
f 12 13 10
f 2 14 5
f 13 15 3
f 15 13 12
f 16 17 18
f 16 15 12
f 5 16 6
f 17 16 5
f 16 18 3
f 15 16 3
f 19 17 5
f 14 19 5
f 19 2 1
f 19 14 2
f 20 11 6
f 11 20 12
f 16 20 6
f 20 16 12
f 17 21 18
f 19 21 17
f 21 19 1
f 21 1 3
f 18 21 3
