v -0.002129614 0.006027281 0.02593909
v -0.002193362 0.006002605 -0.01580597
v -0.0023323 -0.00456214 0.01903556
v -0.002398789 -0.005604208 -0.01236372
v -0.002349168 -0.001773775 -0.02576219
v -0.002282619 0.001026571 -0.0285884
v 0.002355129 0.001408875 -0.02502979
v -0.002251506 -0.0009159446 0.0285884
v -0.001264364 0.005986452 -0.01580785
v -0.001438737 -0.006027281 0.0126292
v 0.002286583 -0.004522502 0.001102671
v 0.002307087 -0.001812041 -0.01783209
v 0.000549376 -9.864569e-05 0.02825283
v 0.00155586 0.004223228 0.02659528
v 0.001494974 0.0007523894 0.02791966
v 0.002398789 0.003600657 -0.02188982
v 0.002396375 0.0004373193 0.01410367
v 0.0006410778 0.005109131 0.02626456
v -0.001469165 -0.005621254 -0.01236479
v 0.002321392 -0.003488362 0.01163028
f 1 2 3
f 2 4 3
f 5 4 2
f 6 5 2
f 5 6 7
f 8 1 3
f 1 9 2
f 4 10 3
f 11 12 7
f 12 5 7
f 8 13 1
f 14 13 15
f 13 14 1
f 13 8 3
f 10 13 3
f 6 16 7
f 16 6 2
f 9 16 2
f 17 14 15
f 17 16 14
f 16 17 7
f 18 9 1
f 14 18 1
f 18 16 9
f 16 18 14
f 19 12 11
f 10 19 11
f 19 10 4
f 19 4 5
f 12 19 5
f 20 17 15
f 20 10 11
f 20 11 7
f 17 20 7
f 13 20 15
f 20 13 10
