v 0.02697307 -0.05431163 -0.006827317
v 0.009253383 -0.05442846 -0.0123838
v 0.02770972 -0.05544287 -0.0102107
v 0.04139799 -0.04637158 -0.07139186
v 0.0236479 -0.009033203 0.01069566
v 0.03956479 -0.05388081 -0.06355098
v 0.03852862 -0.0568924 -0.05904995
v 0.008180201 -0.05421489 -0.007535324
v 0.03628522 -0.06123263 -0.04918277
v 0.03510791 -0.06250322 -0.04394798
v 0.03391403 -0.06314909 -0.03860335
v 0.03271937 -0.06316137 -0.03322021
v 0.03925776 -0.01435721 -0.08303667
v 0.04421228 -0.008413911 -0.08194884
v 0.04403996 -0.02239895 -0.08195601
v 0.03493768 -0.008400321 -0.08400849
v 0.03066146 -0.06162691 -0.02385988
v 0.03490198 -0.01844049 -0.08441001
v 0.02314359 -0.06640804 0.009753536
v 0.004255652 -0.06617206 0.003211208
v 0.01550943 -0.06631219 0.005906001
v -0.007763207 -0.0660243 0.00364814
v 0.02800834 -0.06650102 0.07667707
v 0.02836955 -0.05731541 -0.01328866
v -0.003281057 -0.06022775 0.002892632
v 0.00836581 -0.06194323 0.003840379
v 0.02338016 -0.0592345 0.009089477
v 0.0241465 -0.05560684 0.005834784
v 0.03508025 0.03251135 -0.03849981
v 0.03625476 0.03185117 -0.04382968
v 0.03739756 0.03057039 -0.04905237
v 0.03849375 0.02868581 -0.0540986
v 0.03952926 0.02622223 -0.05890299
v 0.04049003 0.02321231 -0.06340156
v 0.04136348 0.0196954 -0.06753515
v 0.04213834 0.01571751 -0.07125007
v 0.04280406 0.01133132 -0.07449644
v 0.04335231 0.006594658 -0.07723259
v 0.04377562 0.001569748 -0.07942148
v 0.03388995 0.03254247 -0.03313353
v 0.03269899 0.03194368 -0.02779985
v 0.03152341 0.03072298 -0.02257022
v 0.02439219 0.002073765 0.007963754
v 0.02396256 -0.003154278 0.009607036
v 0.03037864 0.02889657 -0.01751324
v 0.02494645 0.007073164 0.005745735
v 0.02927965 0.02648866 -0.01269518
v 0.0256179 0.01177824 0.002983086
v 0.0282408 0.02353013 -0.008179329
v 0.02639794 0.01612639 -0.0002887845
v 0.02727604 0.02006125 -0.004025742
v 0.02612007 -0.01824164 -0.08637108
v 0.02609783 -0.005974889 -0.08558402
v 0.02499747 -0.05443835 0.002069235
v 0.02555925 0.003872633 -0.08260472
v 0.0250839 0.008792162 -0.08018648
v 0.02448601 0.01339722 -0.07723405
v 0.02377379 0.01762664 -0.07378715
v 0.02295637 0.02142453 -0.0698901
v 0.04337704 -0.03218293 -0.07951594
v 0.04283309 -0.03722346 -0.07734752
v 0.04217041 -0.04197419 -0.07462705
v 0.02204454 0.02474117 -0.06559522
v 0.02105045 0.02753282 -0.06095888
v 0.01998723 0.02976251 -0.05604193
v 0.01143646 -0.05959612 -0.02251218
v 0.0188688 0.03140092 -0.05090955
v 0.01339406 -0.06224513 -0.03148348
v 0.01770979 0.0324266 -0.04562911
v 0.01769727 -0.05719322 0.004748572
v 0.01457071 -0.06291223 -0.03682358
v 0.01652569 0.03282547 -0.04027028
v 0.01576364 -0.06294775 -0.04220148
v 0.0153321 0.03259301 -0.03490391
v 0.01414472 0.03173208 -0.02960063
v 0.01813507 -0.06112939 -0.05278735
v 0.01297891 0.03025365 -0.02443001
v 0.01185054 0.02817738 -0.01946051
v 0.02038354 -0.05688548 -0.06268309
v -0.007137954 -0.05653393 0.001351543
v 0.01091158 -0.05450094 -0.001754902
v 0.0005390048 -0.05697978 0.001136612
v 0.01077414 0.02553046 -0.01475771
v 0.009763956 0.02234864 -0.01038356
v 0.0223906 -0.05044019 -0.07136732
v 0.008833408 0.01867282 -0.00639578
v 0.00799489 0.01455188 -0.002847143
v 0.02405053 -0.04213214 -0.07838267
v 0.007258952 0.0100404 0.0002161935
v 0.006245136 0.001312852 0.004296012
v 0.02527589 -0.03239977 -0.08335983
v 0.02570426 -0.02715731 -0.08499708
v -0.004568994 -0.05355614 -0.01005797
v -0.005945563 -0.05407178 -0.003883231
v 0.01714545 -0.05948943 0.005993072
v 0.003292143 -0.05931699 0.002614543
f 1 2 3
f 4 5 6
f 6 5 7
f 8 2 1
f 7 5 9
f 9 5 10
f 10 5 11
f 11 5 12
f 13 14 15
f 16 14 13
f 12 5 17
f 18 16 13
f 18 13 15
f 19 20 21
f 19 22 20
f 22 19 23
f 17 5 24
f 25 26 20
f 27 28 19
f 24 5 3
f 14 5 15
f 29 5 30
f 30 5 31
f 31 5 32
f 32 5 33
f 33 5 34
f 34 5 35
f 35 5 36
f 36 5 37
f 37 5 38
f 38 5 39
f 39 5 14
f 26 21 20
f 29 40 5
f 40 41 5
f 26 27 21
f 27 19 21
f 41 42 5
f 5 43 44
f 42 45 5
f 5 46 43
f 45 47 5
f 5 48 46
f 47 49 5
f 5 50 48
f 49 51 5
f 5 51 50
f 25 20 22
f 3 5 1
f 52 16 18
f 52 53 16
f 54 5 28
f 16 53 14
f 1 5 54
f 53 55 14
f 55 39 14
f 55 38 39
f 55 56 38
f 56 37 38
f 56 57 37
f 28 5 19
f 57 36 37
f 57 58 36
f 58 35 36
f 58 59 35
f 59 34 35
f 15 5 60
f 60 5 61
f 61 5 62
f 62 5 4
f 59 63 34
f 63 33 34
f 63 64 33
f 2 24 3
f 64 32 33
f 64 65 32
f 2 66 24
f 66 17 24
f 65 31 32
f 65 67 31
f 66 68 17
f 67 30 31
f 67 69 30
f 68 12 17
f 70 28 27
f 68 71 12
f 69 29 30
f 69 72 29
f 71 73 12
f 73 11 12
f 72 40 29
f 72 74 40
f 73 10 11
f 74 41 40
f 74 75 41
f 73 76 10
f 76 9 10
f 75 42 41
f 75 77 42
f 76 7 9
f 77 45 42
f 77 78 45
f 76 79 7
f 78 47 45
f 80 81 82
f 78 83 47
f 79 6 7
f 83 49 47
f 83 84 49
f 79 85 6
f 85 4 6
f 84 51 49
f 81 54 28
f 84 86 51
f 86 50 51
f 86 87 50
f 85 88 4
f 88 62 4
f 87 48 50
f 87 89 48
f 22 80 25
f 88 61 62
f 89 46 48
f 89 90 46
f 88 91 61
f 91 60 61
f 90 43 46
f 91 92 60
f 92 15 60
f 90 44 43
f 90 5 44
f 92 18 15
f 92 52 18
f 93 8 94
f 54 81 1
f 1 81 8
f 81 94 8
f 81 28 70
f 70 27 95
f 94 81 80
f 96 70 25
f 25 70 26
f 82 81 70
f 25 82 96
f 26 95 27
f 82 70 96
f 80 82 25
f 70 95 26
