v -0.003710866 -0.007581174 0.02441893
v 0.0008779764 -0.02313489 0.02264602
v 0.001827121 -0.02331364 0.02285633
v 0.00444603 -0.01886958 -0.02089402
v -0.002275348 -0.02073443 -0.02207808
v 0.003268957 -0.01794505 -0.02441893
v 0.00284338 -0.007472694 0.02275271
v 0.004451215 0.01921207 0.02260298
v 0.001989305 0.01755089 0.01074497
v 0.001827419 0.02341002 0.02138675
v -0.003468394 -0.01277316 -0.01690213
v -0.003578722 -0.02162308 -0.004501268
v -0.001884997 0.01560742 0.00883662
v -0.0002999902 0.0135197 0.004580714
v -0.002706587 0.01794457 0.02441222
v -0.003617883 -0.02341002 0.005064674
v -0.0005492568 -0.004339218 -0.01468731
v -0.001794517 -0.0002001524 -0.01049817
v -0.001269579 -0.01928854 -0.02423315
v 0.0009846687 -0.01024735 -0.01993018
v -0.004263163 -0.003077984 -0.007979132
v -0.004239619 0.001608968 -0.006024979
v -0.002015471 0.02058589 0.01850564
v -0.003982306 0.0138979 0.01031495
v -0.002823174 0.02001137 0.02253906
v -0.003605962 0.004156172 0.02354
v -0.00430578 -0.01020056 0.01878933
v -0.003877759 -0.02252007 0.005140103
v -0.004353106 -0.01546729 0.01203787
v -0.002773583 -0.01425558 -0.01996899
v -0.001159728 0.02231282 0.02406035
v -0.004451215 0.003647149 0.003621317
v -0.002959609 0.00831902 -0.0005351081
v -0.002813637 -0.007803559 -0.01606311
v -0.004289508 0.00952065 0.003638394
f 1 2 3
f 4 5 6
f 7 1 3
f 4 7 3
f 7 4 8
f 8 9 10
f 9 4 6
f 4 9 8
f 11 5 12
f 9 13 10
f 13 9 14
f 7 15 1
f 15 7 8
f 2 16 3
f 16 2 1
f 5 16 12
f 16 4 3
f 4 16 5
f 17 18 14
f 5 19 6
f 20 17 14
f 9 20 14
f 20 9 6
f 19 20 6
f 21 11 12
f 11 21 22
f 13 23 10
f 23 24 25
f 24 23 13
f 26 27 1
f 15 26 1
f 26 15 25
f 24 26 25
f 26 24 27
f 16 28 12
f 28 21 12
f 21 28 29
f 28 27 29
f 27 28 1
f 28 16 1
f 11 30 5
f 30 19 5
f 23 31 10
f 31 23 25
f 15 31 25
f 31 8 10
f 31 15 8
f 24 32 27
f 27 32 29
f 21 32 22
f 32 21 29
f 33 13 14
f 33 18 22
f 18 33 14
f 34 18 17
f 20 34 17
f 18 34 22
f 34 20 19
f 30 34 19
f 34 11 22
f 34 30 11
f 32 35 22
f 35 32 24
f 35 33 22
f 35 24 13
f 33 35 13
