v 0.006882749 -0.01362082 0.04003817
v 0.004169144 -0.01511839 -0.02380762
v 0.006887816 0.007720947 -0.04164714
v 0.006883793 0.0139937 0.04343635
v 0.001670703 -0.004812002 0.04034057
v -0.006887063 0.01502793 -0.03683302
v -0.006887786 0.004841283 -0.03808647
v 0.003364362 -0.01130523 -0.04360506
v -0.002592199 -0.003798619 -0.04195961
v -0.002279952 -0.003623471 -0.04204339
v 0.001671948 0.00537467 0.0415943
v 0.004825212 0.0151044 0.04244763
v 0.005996235 0.01443219 0.04360515
v 0.004823804 -0.01445895 0.03880978
v 0.002262607 -0.01296782 -0.04127702
v -0.006441362 0.01511826 -0.03835458
v -0.001990482 0.01466404 -0.03982469
v 0.005996093 -0.01408654 0.0400947
v 0.002954938 0.005046293 0.04278183
v 0.005118236 0.01491798 0.04301223
v -0.003735013 -0.004805386 -0.03961849
v 0.002536446 -0.01235344 -0.04271516
v -0.005247019 0.005454898 -0.0406023
v -0.005246028 0.01504162 -0.0394223
v -0.005594134 0.005385861 -0.04050097
v -0.005872391 0.01510441 -0.03906953
v 0.002924845 -0.01181306 -0.04334277
v 0.005115896 -0.0144144 0.03940177
v 0.001988582 -0.004843071 0.04092076
v 0.001988679 0.005264163 0.04216453
v 0.005500712 0.01470219 0.04333004
v -0.003348313 -0.004343659 -0.04108763
v -0.00559327 0.01508483 -0.03930736
v 0.003118314 -0.01157041 -0.04353881
v 0.002954654 -0.004781485 0.04157197
v 0.002409115 0.005163074 0.0424929
v -0.002841353 -0.003965124 -0.04174778
v 0.005499862 -0.01428238 0.03976232
v 0.002409309 -0.004824609 0.04126418
v -0.006442152 0.005122006 -0.03958505
v -0.005872808 0.005309045 -0.04027492
f 1 2 3
f 4 1 3
f 5 6 7
f 2 8 3
f 8 9 10
f 6 11 12
f 5 11 6
f 4 13 1
f 2 14 15
f 16 6 12
f 17 8 10
f 8 17 3
f 17 4 3
f 4 17 12
f 13 18 1
f 18 2 1
f 19 18 13
f 20 4 12
f 20 13 4
f 14 21 15
f 21 22 15
f 21 5 7
f 21 14 5
f 23 17 10
f 17 23 24
f 9 23 10
f 25 23 9
f 26 16 12
f 22 27 15
f 27 2 15
f 27 8 2
f 14 28 5
f 28 14 2
f 28 29 5
f 11 30 12
f 30 20 12
f 30 11 5
f 29 30 5
f 31 19 13
f 20 31 13
f 21 32 22
f 32 27 22
f 33 26 12
f 17 33 12
f 33 17 24
f 26 33 25
f 23 33 24
f 33 23 25
f 8 34 9
f 34 27 9
f 27 34 8
f 19 35 18
f 30 36 20
f 36 31 20
f 31 36 19
f 27 37 9
f 32 37 27
f 35 38 18
f 18 38 2
f 38 28 2
f 39 38 35
f 39 30 29
f 39 36 30
f 39 35 19
f 36 39 19
f 39 29 28
f 38 39 28
f 40 37 32
f 40 21 7
f 40 32 21
f 6 40 7
f 16 40 6
f 26 40 16
f 40 41 37
f 41 25 9
f 37 41 9
f 41 26 25
f 41 40 26
