v -0.004725277 -0.003287047 0.03824413
v 0.004273564 -0.01906911 0.0287317
v 0.001824304 0.01906914 0.03906226
v 0.004908174 0.01575372 -0.02132034
v 0.000994131 0.01045534 -0.03906208
v -0.004908055 0.005261213 -0.01974708
v 0.004009083 0.01487724 0.005137742
v 0.004885167 -0.01532702 0.02038908
v 0.001559123 -0.004124224 -0.008967161
v 0.003438562 -0.007744536 0.0006796718
f 1 2 3
f 4 5 3
f 5 6 3
f 6 1 3
f 1 6 2
f 7 4 3
f 7 8 4
f 2 8 3
f 8 7 3
f 9 6 5
f 6 9 2
f 4 10 5
f 8 10 4
f 10 9 5
f 10 8 2
f 9 10 2
