v -0.002477527 0.02307445 -0.02682579
v 0.001995973 -0.02078032 -0.0268746
v -0.004425056 -0.0209437 -0.02518648
v -0.004430048 0.0147258 0.02408671
v 0.003817506 0.02358079 -0.006936073
v -0.004270889 -0.01518279 -0.02503908
v -0.001745179 0.007220298 0.02124482
v -0.0006537512 -0.0176824 -0.01003468
v 0.002567634 -0.008568496 0.002614677
v 0.003266983 0.006286711 -0.0263288
v 0.0007202476 0.01596999 0.02654445
v 0.002177104 0.01654226 0.02523464
v 0.003082395 0.003472686 0.01607823
v -0.003423624 -0.02358079 -0.02459234
v 0.001470082 -0.02146775 -0.02204001
v -0.0007082671 0.01454914 0.0268746
v 0.002813071 0.01599473 0.02315944
v 0.004430056 -0.008507371 -0.001637876
v -0.003403373 0.01123837 0.0237031
v 0.004157737 0.01837397 -0.003525853
v 0.004370861 0.01080537 -0.0123167
v 0.002461284 -0.02083731 -0.02511001
v 0.003714323 -0.01596314 -0.01396024
v 0.003939271 0.007041335 -0.02270687
v 0.003092706 -0.01328784 -0.005216539
v 0.004313104 0.001096427 0.006243587
v 0.004051559 0.004943877 0.01398546
f 1 2 3
f 4 5 1
f 6 1 3
f 4 6 3
f 6 4 1
f 7 8 9
f 10 2 1
f 5 10 1
f 5 11 12
f 11 5 4
f 11 13 12
f 13 7 9
f 8 14 15
f 2 14 3
f 16 11 4
f 13 16 7
f 16 13 11
f 17 5 12
f 13 17 12
f 18 13 9
f 19 16 4
f 16 19 7
f 19 4 3
f 14 19 3
f 7 19 8
f 19 14 8
f 17 20 5
f 20 21 5
f 10 22 2
f 22 23 15
f 22 14 2
f 14 22 15
f 24 21 18
f 23 24 18
f 24 10 5
f 21 24 5
f 24 22 10
f 22 24 23
f 25 8 15
f 23 25 15
f 8 25 9
f 25 18 9
f 25 23 18
f 21 26 18
f 20 26 21
f 27 20 17
f 27 26 20
f 27 17 13
f 18 27 13
f 26 27 18
