v -0.001306087 0.00671152 0.02119732
v -0.002223268 0.006724276 0.02119982
v 0.002309039 0.003138676 0.02220899
v -0.00230895 -0.003959209 -0.01917762
v -0.00230898 0.006214902 -0.02348143
v -0.0006226748 -0.004373223 -0.02043217
v -0.002309039 -0.001163095 0.02324146
v 0.0004148483 -0.001237094 0.02348268
v -0.001558706 -0.006724283 -0.01211327
v 0.00214614 -0.004255444 -0.009987414
v 0.002222434 0.002255529 -0.02045137
v -0.001379713 0.006712556 -0.02171737
v -0.001390591 0.006201364 -0.02348274
v -0.001512513 -0.006158009 0.009655952
v 0.000346303 -0.00454177 0.01203728
v 0.002271518 0.0004971176 0.02297169
v 0.002149895 -0.002656594 -0.02094555
v -0.002131984 -0.005835682 0.002823234
f 1 2 3
f 4 5 6
f 2 5 7
f 5 4 7
f 8 2 7
f 2 8 3
f 9 4 6
f 10 11 3
f 12 1 3
f 12 11 13
f 11 12 3
f 5 12 13
f 1 12 2
f 12 5 2
f 14 8 7
f 8 14 15
f 14 10 15
f 10 14 9
f 16 10 3
f 10 16 15
f 8 16 3
f 16 8 15
f 10 17 11
f 11 17 13
f 17 9 6
f 17 10 9
f 17 5 13
f 5 17 6
f 4 18 7
f 18 14 7
f 9 18 4
f 14 18 9
