v 0.003886104 -0.02286384 0.01515228
v -0.003044307 -0.02224189 0.01570749
v 0.002318323 -0.02286667 -0.02890843
v 0.003266841 -0.02201924 -0.02860463
v -0.002226174 -0.01951694 -0.01151097
v -0.0004428327 0.02283981 -0.009190559
v -0.003678858 -0.003211081 -0.002390683
v 0.003211617 0.022313 0.02890849
v -0.003122091 0.02286667 0.02482259
v 0.002153575 0.02233064 0.003405929
v -0.001251072 0.02185366 0.02725065
v -0.003331065 0.01737216 0.02687228
v 0.00400728 0.02131194 0.02630353
v -0.002911389 -0.01421225 -0.007508636
v 0.0004652739 0.02244419 -0.008765042
v -0.003407836 0.0202322 0.00201261
v 0.001231372 0.02185777 0.028382
v 0.002280861 0.008592576 0.0280807
v -0.003923237 0.0008566976 0.02431399
v 0.002142757 -0.006118 0.02465338
v -0.003757775 -0.01389283 0.01712143
v 0.0037826 -0.02201772 -0.01294702
v -0.003835082 0.008458495 0.001241803
v 0.002801239 -0.02183339 0.01862073
v -0.003688127 -0.0129723 0.02002001
v 0.003988743 -0.02196801 0.009356916
v -0.00400728 0.006380916 0.02314031
f 1 2 3
f 4 1 3
f 2 5 3
f 6 4 3
f 5 6 3
f 6 5 7
f 8 6 9
f 10 6 8
f 11 8 9
f 12 11 9
f 13 10 8
f 13 4 10
f 14 5 2
f 5 14 7
f 4 15 10
f 15 6 10
f 6 15 4
f 6 16 9
f 16 6 7
f 11 17 8
f 17 11 12
f 17 18 8
f 18 17 12
f 18 13 8
f 19 18 12
f 18 19 20
f 21 14 2
f 14 21 7
f 4 22 1
f 13 22 4
f 23 16 7
f 21 23 7
f 13 24 1
f 18 24 13
f 24 18 20
f 1 24 2
f 25 21 2
f 21 25 19
f 19 25 20
f 24 25 2
f 25 24 20
f 26 13 1
f 22 26 1
f 26 22 13
f 27 21 19
f 27 23 21
f 27 19 12
f 23 27 16
f 27 12 9
f 16 27 9
