v 0.009802453 -0.0494426 0.006704807
v -0.008585438 -0.05026558 -0.01016963
v 0.01882108 -0.04828468 -0.01842976
v 0.03320293 -0.03576302 0.0320518
v 0.006763987 -0.03480504 0.05583769
v 0.03302657 0.03694244 0.02702928
v 0.007623978 0.02720047 0.05625278
v 0.01471161 0.02198438 0.05366707
v -0.003289364 0.02695869 0.04895812
v -0.006803118 0.05026558 0.005612493
v 0.01927234 -0.003112249 0.05625516
v 0.03141075 -0.01602948 -0.04937446
v -0.001187455 -0.0285345 -0.04728854
v 0.0005240738 -0.003048703 -0.0562551
v 0.02703643 -0.03369174 -0.03953135
v -0.01920264 0.01320718 -0.04038215
v -0.02774289 0.003861256 -0.03366935
v -0.01666404 -0.02272582 0.0489583
v -0.01343706 -0.0329726 0.04921848
v -0.02564227 0.02932724 -0.01871169
v -0.000769414 0.03682458 -0.03991282
v 0.02958384 0.00450106 0.04589057
v 0.01165785 0.04628369 0.0136112
v 0.01870456 0.04882368 -0.005656242
v 0.02514955 0.04330087 -0.02457058
v 0.0310137 0.02777953 -0.04276621
v 0.03320437 0.004247822 -0.05162632
v 0.02336184 -0.04054396 -0.02939641
v 0.02863796 -0.0277655 -0.04206252
v -0.01514192 -0.0148776 -0.04350638
v 0.0009867549 0.0214721 -0.05095911
v -0.0178746 0.02321475 0.03106827
v -0.03167883 0.008172497 0.007306933
v -0.02374264 0.03542361 -0.0003905296
v -0.02981485 -0.009719864 0.01558244
v -0.004617706 -0.04509593 -0.02962208
v -0.03046741 0.01297671 -0.02080333
v 0.02990567 -0.01616368 0.0437265
v 0.02951848 0.02328913 0.03959644
v 0.02930247 0.03258091 -0.03637433
v -0.00250553 0.04772724 -0.02252018
v 0.03242128 0.01637208 -0.04676616
v 0.03218513 -0.009582497 -0.04933262
v -0.02225554 -0.03674305 -0.001363516
v -0.01097999 -0.04880172 0.008355379
v -0.03320437 -0.005765297 -0.01324296
v -0.01705852 -0.02746505 0.0442825
v -0.02747189 -0.0259722 0.007778525
v -0.02917237 -0.02395234 -0.01441574
v -0.02737274 -0.02339056 -0.02489972
v 0.03276805 -0.002713256 -0.05003953
v -0.02521631 -0.03155889 -0.000275135
v -0.02316664 -0.0153632 -0.03512812
v -0.02043757 -0.0282351 -0.02825987
f 1 2 3
f 4 1 3
f 1 4 5
f 6 7 8
f 9 7 10
f 7 11 8
f 11 7 5
f 12 13 14
f 15 13 12
f 16 14 17
f 18 7 9
f 5 18 19
f 7 18 5
f 20 16 17
f 16 20 21
f 6 22 4
f 11 22 8
f 23 24 10
f 24 23 6
f 7 23 10
f 23 7 6
f 25 24 6
f 21 25 26
f 27 12 14
f 27 6 4
f 28 4 3
f 15 28 3
f 28 15 4
f 29 12 4
f 15 29 4
f 29 15 12
f 14 30 17
f 13 30 14
f 16 31 14
f 31 16 21
f 31 21 26
f 27 31 26
f 31 27 14
f 32 18 9
f 18 32 33
f 32 34 33
f 32 9 10
f 34 32 10
f 35 18 33
f 2 36 3
f 36 15 3
f 36 13 15
f 37 20 17
f 34 37 33
f 37 34 20
f 22 38 4
f 38 22 11
f 4 38 5
f 38 11 5
f 39 6 8
f 22 39 8
f 39 22 6
f 40 6 26
f 25 40 26
f 40 25 6
f 41 25 21
f 25 41 24
f 24 41 10
f 20 41 21
f 41 34 10
f 34 41 20
f 6 42 26
f 42 27 26
f 27 42 6
f 12 43 4
f 27 43 12
f 44 45 19
f 45 44 2
f 1 45 2
f 45 5 19
f 45 1 5
f 46 35 33
f 37 46 33
f 46 37 17
f 18 47 19
f 35 47 18
f 48 46 49
f 46 48 35
f 48 47 35
f 48 44 19
f 47 48 19
f 50 36 2
f 50 46 17
f 46 50 49
f 44 50 2
f 50 44 49
f 51 27 4
f 43 51 4
f 51 43 27
f 44 52 49
f 52 48 49
f 48 52 44
f 30 53 17
f 53 50 17
f 53 30 13
f 54 53 13
f 53 54 50
f 36 54 13
f 50 54 36
