v 0.006605286 -0.002945028 -0.07808924
v 0.006478991 0.006764336 -0.08165479
v 0.006640669 -0.01675681 0.08165479
v -0.004936945 0.01675681 0.04108274
v -0.005113099 -0.01254183 0.07215762
v 0.00418945 -0.01673332 -0.0658226
v -0.004369613 -0.009192456 -0.05875123
v -0.006111991 -0.01257801 -0.02519369
v -0.006640669 0.002955638 0.02420866
v -0.006353479 0.003263958 -0.04663104
v -0.006032389 0.0008643866 0.05620754
v -0.005019382 0.01626559 -0.00224185
v -0.006583054 0.002724584 0.001657844
v -0.005646873 0.013803 0.02277035
v -0.005683005 0.01332988 0.03955215
v -0.006288618 0.01095832 0.02528214
f 1 2 3
f 4 5 3
f 2 4 3
f 6 1 3
f 5 6 3
f 7 2 1
f 6 7 1
f 8 6 5
f 8 7 6
f 9 8 5
f 7 10 2
f 8 10 7
f 4 11 5
f 11 9 5
f 12 4 2
f 10 12 2
f 13 8 9
f 13 10 8
f 12 14 4
f 15 11 4
f 16 12 10
f 16 14 12
f 13 16 10
f 16 13 9
f 11 16 9
f 15 16 11
f 14 16 4
f 16 15 4
