v 0.01541263 -0.01773158 0.04320148
v 0.01315726 -0.005470932 -0.04353762
v 0.01542529 -0.003480524 -0.04430333
v 0.01246691 0.01813582 0.04162753
v 0.0134799 -0.01919918 0.04245237
v -0.011979 -0.01494355 -0.03589144
v -0.01305521 -0.01550818 -0.03307772
v -0.01290299 -0.01537444 -0.03465256
v 0.008259788 -0.01040503 0.04332212
v 0.008649796 -0.01027091 0.04383874
v 0.01382987 -0.01899653 0.04297608
v 0.005889013 -0.0004189312 0.04331586
v 0.007005349 0.009758905 0.04295999
v 0.006602228 0.009781614 0.04243523
v -0.01471411 0.004679486 -0.03396419
v -0.01542529 -0.005521685 -0.0330835
v -0.001876265 0.01754996 -0.04088068
v 0.01215613 0.00632976 -0.04404622
v 0.008669958 0.01371203 -0.04356629
v -0.0109885 0.01409659 -0.03563166
v 0.01032664 0.01919918 0.04076836
v 0.01421401 -0.01872499 0.04324853
v 0.009650528 -0.00988856 0.04430336
v 0.01468587 -0.01837207 0.04346499
v -0.01003376 0.01291776 -0.03829485
v -0.01031277 0.01311439 -0.03815702
v -0.01087488 0.01367611 -0.0371587
v 0.006298572 -0.0003626049 0.04383364
v 0.01164415 0.01867031 0.04184014
v 0.00747031 0.009688631 0.04323176
v 0.008050859 0.009585351 0.04344884
v -0.01051073 0.01328959 -0.03790277
v -0.01249814 -0.01517388 -0.03544742
v -0.01522914 -0.005574524 -0.03465849
v -0.01420973 -0.005545348 -0.0358969
v 0.006772146 -0.0003128797 0.04409525
v 0.01070121 0.01910242 0.04130471
v -0.01228097 -0.0150734 -0.03572503
v -0.01453727 -0.005564988 -0.03573021
v -0.01477742 -0.005572721 -0.03545293
v -0.01385924 0.004148036 -0.03656864
v 0.007363871 -0.0002551526 0.04429823
v 0.009096205 -0.01010351 0.04410034
v 0.01112254 0.01892152 0.04159671
v -0.01353914 0.004055038 -0.03672451
v -0.01453033 0.004435465 -0.03552175
v -0.01409206 0.004235372 -0.03629881
f 1 2 3
f 4 1 3
f 1 5 2
f 2 6 3
f 5 7 8
f 7 5 9
f 5 10 9
f 11 10 5
f 12 13 14
f 15 12 14
f 16 12 15
f 12 7 9
f 7 12 16
f 10 12 9
f 17 18 3
f 19 18 17
f 18 4 3
f 18 19 4
f 20 21 17
f 21 19 17
f 13 21 14
f 21 15 14
f 21 20 15
f 22 10 11
f 22 11 5
f 23 22 24
f 22 1 24
f 22 5 1
f 25 26 17
f 27 20 17
f 20 27 15
f 12 28 13
f 28 12 10
f 19 29 4
f 29 30 31
f 1 29 24
f 4 29 1
f 26 32 17
f 32 27 17
f 33 5 8
f 7 34 8
f 34 7 16
f 34 16 15
f 35 25 17
f 35 17 3
f 6 35 3
f 36 30 13
f 28 36 13
f 30 36 31
f 36 28 10
f 21 37 19
f 37 21 13
f 38 35 6
f 35 38 39
f 33 38 5
f 5 38 2
f 38 6 2
f 38 40 39
f 40 38 33
f 40 33 8
f 34 40 8
f 25 41 26
f 41 35 39
f 40 41 39
f 41 32 26
f 36 42 31
f 42 36 23
f 42 29 31
f 42 23 24
f 29 42 24
f 36 43 23
f 43 36 10
f 43 22 23
f 22 43 10
f 44 29 19
f 37 44 19
f 29 44 30
f 30 44 13
f 44 37 13
f 35 45 25
f 45 41 25
f 41 45 35
f 46 40 34
f 46 34 15
f 27 46 15
f 32 46 27
f 47 41 40
f 46 47 40
f 41 47 32
f 47 46 32
