v -0.004281327 0.0008224845 0.007014096
v -0.005001619 0.00336042 -7.206202e-05
v -0.005270943 -0.004150391 0.0007600784
v 0.003214255 0.006139249 0.001435608
v 0.004042402 0.004727691 0.005224794
v 0.005407497 0.006240398 -0.004013211
v -0.003936991 0.003842682 0.007074684
v -0.005407497 -0.00354439 -0.002216458
v 0.005272135 -0.006240427 -0.001018673
v 0.005407438 -0.004102707 -0.006125659
v -0.00442858 0.004897684 0.003667712
v 0.005407497 -0.004673243 0.004668713
v -0.005392984 4.87566e-05 -0.002429426
v 0.005001381 0.001794636 -0.007074684
f 1 2 3
f 4 5 6
f 5 4 7
f 8 9 3
f 8 10 9
f 11 1 7
f 1 11 2
f 4 11 7
f 2 11 6
f 11 4 6
f 5 12 6
f 9 12 3
f 12 1 3
f 12 5 7
f 1 12 7
f 12 10 6
f 10 12 9
f 2 13 3
f 13 8 3
f 13 2 6
f 8 14 10
f 13 14 8
f 10 14 6
f 14 13 6
