v 0.003277726 0.0133417 -0.02200449
v 0.002839878 -0.0149242 -0.02258593
v -0.003653467 0.01316449 -0.02240294
v 0.002755381 0.01754549 0.02280402
v -0.00195656 -0.01990828 0.02297884
v 0.002989486 -0.009027123 0.02229476
v 0.003976703 -0.01014683 -0.006899059
v 0.001495093 -0.0183143 -0.02272892
v 0.003999956 -0.007944584 0.01049054
v -0.0006169006 0.01502505 -0.02089709
v -0.001043424 -0.01918933 0.02186525
v -0.003583338 -0.01628798 -0.02297884
v 0.003230728 0.003702074 0.02072757
v 0.003947869 0.01795778 0.001862109
v 6.860122e-05 0.01952597 0.0007374883
v 9.027869e-05 0.01878145 -0.00531882
v -0.002011053 0.01699743 -0.01310372
v -0.003168002 0.01990828 0.02251261
v -0.003982231 -0.01224247 -0.02201003
v -0.003865357 0.01026443 -0.02156168
v 0.003820244 0.01572075 -0.01370841
v 0.003569871 0.01364693 0.01454532
v 0.00139929 0.01906922 0.02275628
v -0.001117185 0.01664147 -0.01469815
v -0.002401143 -0.01766449 0.02181846
v -0.003615133 -0.003446996 0.02202803
v 0.003814951 -0.003927529 -0.01318371
v -0.003999956 0.01533577 0.02237624
v -0.003840707 0.01821414 0.02244121
f 1 2 3
f 4 5 6
f 2 7 8
f 7 9 6
f 10 1 3
f 5 11 6
f 11 5 8
f 11 7 6
f 7 11 8
f 5 12 8
f 2 12 3
f 12 2 8
f 13 4 6
f 9 13 6
f 7 14 9
f 15 14 16
f 17 10 3
f 18 17 3
f 15 17 18
f 17 15 16
f 19 20 3
f 12 19 3
f 21 14 7
f 14 21 16
f 10 21 1
f 21 10 16
f 22 13 9
f 14 22 9
f 13 22 4
f 22 14 4
f 23 15 18
f 23 14 15
f 14 23 4
f 5 23 18
f 23 5 4
f 10 24 16
f 24 17 16
f 17 24 10
f 25 12 5
f 25 19 12
f 26 25 5
f 25 26 19
f 21 27 1
f 27 21 7
f 27 2 1
f 27 7 2
f 28 26 5
f 19 28 20
f 26 28 19
f 29 5 18
f 29 28 5
f 29 18 3
f 20 29 3
f 28 29 20
