v 0.003491044 0.02111742 -0.01964277
v 0.00265336 0.01929904 -0.02872413
v -0.003089249 0.02222754 -0.02859849
v -0.0007593334 -0.01640584 -0.02870768
v -0.002778232 -0.0230314 0.02751356
v -0.00188747 -0.02358758 0.02872407
v -0.003972828 0.01964157 -0.02854663
v -0.003903389 0.01591282 0.02805167
v 0.002450764 0.01759318 0.02786219
v -0.002752721 -0.02302159 0.02842474
v -0.003970981 0.0101352 0.02720129
v -0.003009468 -0.005740657 -0.0283103
v -0.003763497 0.008968443 -0.02844363
v 0.003121614 -0.00864622 0.02811587
v -0.001558751 0.023054 0.006538153
v 0.003386796 0.001707762 -0.02856141
v 0.003666162 -0.003185153 -0.02760541
v 0.003993273 0.02055873 0.009533167
v 0.003780782 0.002607584 -0.02492291
v -0.003507376 -0.005430326 0.02734947
v -0.003993273 0.01675922 -0.02851665
v -0.001644462 -0.01584175 -0.02824128
v 0.00339222 -0.007789522 0.02718616
v 0.00321278 0.01726004 0.02418488
v 0.001377136 0.02267623 -0.01696277
v -0.002699852 0.01864613 0.02690178
v -0.0009669662 0.02129707 0.01865423
v 0.00382334 0.0197455 0.01410955
v 0.003885686 -0.000818029 0.002761543
v -0.001096845 0.02335138 -0.01678044
v -0.0005306304 0.02358759 0.003908813
f 1 2 3
f 2 4 3
f 5 4 6
f 7 8 3
f 4 7 3
f 9 8 6
f 8 10 6
f 10 5 6
f 7 11 8
f 11 10 8
f 12 13 4
f 12 5 13
f 14 9 6
f 8 15 3
f 2 16 4
f 16 17 4
f 18 19 1
f 16 19 17
f 19 2 1
f 19 16 2
f 5 20 13
f 20 11 13
f 10 20 5
f 11 20 10
f 11 21 13
f 21 11 7
f 13 21 4
f 21 7 4
f 5 22 4
f 22 12 4
f 12 22 5
f 9 23 24
f 14 23 9
f 17 23 4
f 4 23 6
f 23 14 6
f 25 18 1
f 25 1 3
f 9 26 8
f 26 15 8
f 27 26 9
f 26 27 15
f 23 28 24
f 28 23 18
f 28 9 24
f 28 27 9
f 27 28 18
f 29 19 18
f 23 29 18
f 19 29 17
f 29 23 17
f 15 30 3
f 30 25 3
f 31 27 18
f 27 31 15
f 25 31 18
f 31 30 15
f 30 31 25
