v -0.1164261 0.1946816 0.280345
v -0.1164262 -0.1946772 0.2803432
v 0.1171891 0.1946816 0.2803397
v 0.1171891 -0.1946773 0.2803413
v -0.1164264 0.1946817 0.2647706
v -0.1164264 -0.1946772 0.2647713
v 0.1171889 0.1946816 0.2647633
v 0.1171888 -0.1946772 0.2647662
vt 0.287031 1.03461
vt 0.287031 -0.0345966
vt 0.714372 1.03461
vt 0.714372 1.03461
vt 0.287031 -0.0345966
vt 0.714372 -0.0345966
vt 0.143887 1.26984
vt 0.856121 1.26985
vt 0.856121 1.22708
vt 0.143887 1.26984
vt 0.856121 1.22708
vt 0.143887 1.22708
vt 0.856121 1.26983
vt 0.143887 1.26983
vt 0.856121 1.22705
vt 0.856121 1.22705
vt 0.143887 1.26983
vt 0.143887 1.22706
vt 0.714371 1.03461
vt 0.714371 -0.0345965
vt 0.28703 1.03461
vt 0.28703 1.03461
vt 0.714371 -0.0345965
vt 0.287031 -0.0345967
vt 1.01281 0.821814
vt 1.01282 0.180291
vt 0.984321 0.821813
vt 0.984321 0.821813
vt 1.01282 0.180291
vt 0.984334 0.18029
vt 1.01282 0.180291
vt 1.01281 0.821814
vt 0.984316 0.821813
vt 1.01282 0.180291
vt 0.984316 0.821813
vt 0.984333 0.18029
f 1/1 2/2 3/3
f 3/4 2/5 4/6
f 2/7 1/8 5/9
f 2/10 5/11 6/12
f 3/13 4/14 7/15
f 7/16 4/17 8/18
f 7/19 8/20 5/21
f 5/22 8/23 6/24
f 4/25 2/26 8/27
f 8/28 2/29 6/30
f 1/31 3/32 7/33
f 1/34 7/35 5/36
