v -0.001415901 -0.01950133 -0.01733512
v 0.003197059 -0.01976871 -0.005187631
v 0.002571605 -0.02041531 0.0186128
v -0.00198134 -0.0114063 0.0204668
v -0.001375817 -0.01837221 0.02002144
v -0.0007305518 0.004054546 0.02046573
v 0.003475264 -0.01393691 0.01556957
v 0.003303371 0.01786029 -0.006699979
v 0.003028147 0.019732 -0.007502198
v 0.003256932 0.01906943 0.01596802
v -0.002274245 -0.01928324 -0.01681411
v -0.003442079 -0.01959038 -0.004581034
v 0.002981178 0.01626658 0.01793087
v 0.003817402 0.004312783 0.0181191
v 0.003876716 -0.0002138019 0.01595306
v -0.003876351 -0.02018648 0.01718241
v -0.003715612 0.01928043 0.01571941
v -0.001765318 0.006638885 0.0199582
v -0.0004644766 0.01719964 0.01833981
v -0.003639489 0.01898801 -0.006923676
v -0.002444997 0.02021706 -0.01913297
v 0.003414482 -0.01710814 -0.002217293
v -0.001633331 0.01921964 -0.0204668
v -0.003876723 0.018444 0.01279825
v 0.003873445 0.00444901 0.01318634
v -0.001588047 0.02041531 -0.01967925
f 1 2 3
f 4 5 3
f 6 4 3
f 2 7 3
f 8 9 10
f 11 1 12
f 13 14 10
f 7 14 3
f 14 7 15
f 14 6 3
f 14 13 6
f 4 16 5
f 5 16 3
f 17 16 4
f 16 1 3
f 1 16 12
f 18 4 6
f 18 17 4
f 19 13 10
f 17 19 10
f 18 19 17
f 13 19 6
f 19 18 6
f 20 17 21
f 11 20 21
f 20 11 12
f 16 20 12
f 8 22 2
f 22 7 2
f 7 22 15
f 8 23 9
f 1 23 2
f 23 8 2
f 23 11 21
f 11 23 1
f 24 16 17
f 20 24 17
f 24 20 16
f 22 25 15
f 25 22 8
f 25 14 15
f 25 8 10
f 14 25 10
f 26 23 21
f 23 26 9
f 17 26 21
f 9 26 10
f 26 17 10
