v 0.001938641 -0.006703883 -0.0228464
v -0.002470642 0.001568794 -0.02176398
v 0.002195597 0.005000949 -0.02046674
v 0.002526641 -0.006705701 0.02147323
v -0.002526611 -0.002295077 -0.020401
v -0.001959115 -0.002071977 0.02210152
v -0.001903564 0.002927959 0.01902354
v -0.002267003 0.004861295 -0.01119506
v 0.0008327365 0.006401151 0.01296341
v 0.002496183 0.003727287 0.02064627
v 0.001022041 -0.006685764 -0.02283323
v -0.0004347861 0.005964071 -0.01292634
v 0.001838326 0.004221588 0.0228464
v 0.001608789 -0.006686151 0.02148533
v 0.002173632 0.006705701 0.0002009869
f 1 2 3
f 4 1 3
f 2 5 6
f 7 2 6
f 7 8 2
f 8 7 9
f 10 4 3
f 1 11 2
f 11 5 2
f 4 11 1
f 12 8 9
f 2 12 3
f 8 12 2
f 7 13 9
f 13 7 6
f 4 13 6
f 10 13 4
f 14 4 6
f 14 11 4
f 5 14 6
f 11 14 5
f 12 15 3
f 15 12 9
f 15 10 3
f 13 15 9
f 15 13 10
