v 0.0004689693 -0.003188074 -0.004581809
v 0.0002420247 0.003815413 -0.004584014
v 0.0004681647 0.003749132 0.004113883
v -0.0004619062 0.004361331 0.0007725656
v -0.0004192591 -0.0002646446 0.004584044
v -7.811189e-05 -0.004361391 0.002237797
v -0.000410229 0.001922071 0.004554451
v 5.00679e-05 0.003208578 -0.003408581
v -0.0001072288 -0.003553748 -0.000136286
v -0.0004689693 0.002296746 0.003178537
v 0.000113517 -0.002591074 -0.003065914
v -0.0003829598 -0.0021469 0.002397835
v 0.0001703799 0.0001288056 -0.00428617
f 1 2 3
f 2 4 3
f 5 6 3
f 6 1 3
f 7 5 3
f 4 7 3
f 8 4 2
f 6 9 1
f 7 10 5
f 10 7 4
f 9 11 1
f 10 12 5
f 12 10 4
f 12 6 5
f 12 9 6
f 11 12 4
f 12 11 9
f 1 13 2
f 11 13 1
f 13 8 2
f 8 13 4
f 13 11 4
