v 0.002604604 -0.006855845 0.02290972
v 0.002831221 -0.006854892 -0.009090565
v 0.002787739 0.003689289 0.02600786
v 0.002833515 0.005950987 -0.007702656
v 0.002715945 -0.001083255 -0.02600785
v -0.002809048 -0.002538681 -0.02073277
v -0.002786249 -0.0006113052 0.02471509
v -0.002833515 -0.00382936 -0.01633414
v -0.002816558 -0.002370179 0.02419834
v -0.002708197 0.003676713 0.006869808
v 0.001846403 0.001676083 -0.0223328
v 0.001899242 0.005256653 0.02073126
v 0.001929253 0.006855786 0.008784734
v 0.001917958 0.005969226 -0.007702745
v -0.002747059 0.001189709 -0.01390446
v 0.001688272 -0.006840527 0.0229094
v -0.002711028 0.003522038 0.01064521
v 0.002815545 0.005239367 0.02073197
f 1 2 3
f 4 2 5
f 2 6 5
f 7 8 9
f 8 7 10
f 8 6 2
f 11 4 5
f 6 11 5
f 12 7 3
f 13 14 10
f 14 13 4
f 11 14 4
f 15 8 10
f 8 15 6
f 14 15 10
f 15 11 6
f 15 14 11
f 16 2 1
f 16 8 2
f 8 16 9
f 16 7 9
f 16 1 3
f 7 16 3
f 7 17 10
f 12 17 7
f 17 13 10
f 17 12 13
f 18 12 3
f 12 18 13
f 13 18 4
f 2 18 3
f 4 18 2
