v 0.003170252 0.01481575 -0.01467372
v 0.003503591 0.01291829 -0.01640992
v -0.002576172 0.01557451 -0.01757573
v 0.002089143 0.01271147 0.01028557
v -0.002411693 0.01515502 0.02882849
v 2.747774e-05 -0.01516855 0.01033919
v -0.0002601743 0.009190261 -0.02022602
v -0.000390172 -0.00659132 -0.02618606
v 0.003071606 -0.000770092 0.001353398
v -0.002290159 0.01560909 0.02791251
v -0.002534688 -0.01490855 -0.0007167608
v -0.00327298 0.01481408 0.02762614
v -0.0038459 -0.01384431 -0.02535228
v -0.0009727776 -0.01417005 0.009409979
v 0.0001299381 -0.01570499 0.009120867
v -0.002817631 -0.01491618 -0.02882849
v 0.002931654 -0.01567388 -0.02593701
v 0.003486246 -0.00926882 -0.02506979
v 0.003737807 0.003639102 -0.02075033
v 0.002993256 -0.01310003 -0.002926961
v -0.003845364 0.01486921 0.01486959
v -0.00384602 0.01482254 -0.01409794
v 0.00384602 -0.006532252 -0.016387
v -0.003152072 0.01572251 0.02762358
v 0.003502071 -0.015733 -0.01608334
v -0.003725529 0.01573306 -0.01409884
f 1 2 3
f 4 5 6
f 1 4 2
f 2 7 3
f 7 8 3
f 9 4 6
f 4 9 2
f 4 10 5
f 10 4 1
f 11 12 13
f 14 12 11
f 5 12 6
f 12 14 6
f 14 15 6
f 15 14 11
f 16 11 13
f 15 16 17
f 16 15 11
f 16 18 17
f 16 8 18
f 8 16 3
f 19 7 2
f 8 19 18
f 19 8 7
f 20 9 6
f 15 20 6
f 21 22 13
f 12 21 13
f 20 23 9
f 9 23 2
f 23 19 2
f 19 23 18
f 24 21 12
f 10 24 5
f 24 12 5
f 25 23 20
f 25 15 17
f 25 20 15
f 18 25 17
f 23 25 18
f 26 24 10
f 26 1 3
f 26 10 1
f 16 26 3
f 21 26 22
f 24 26 21
f 22 26 13
f 26 16 13
