v -0.002244979 -0.03994817 0.0440889
v -0.002624273 0.03706932 0.04760483
v -0.002690822 -0.04438615 -0.04540905
v 0.002759993 -0.04372907 -0.04840681
v 0.002087623 -0.04436028 0.04896268
v 0.002760947 -0.04066718 0.04489207
v 0.002760679 0.04134846 0.04844341
v 0.002672374 -0.02001506 -0.04880443
v 0.002605557 0.03962272 -0.00140357
v -0.001769364 -0.02432859 -0.04580541
v -0.001582801 -0.04437912 0.04621026
v 0.002731919 -0.0407272 -0.04896265
v 0.002650023 0.04430038 0.01821274
v 0.002682656 0.04438615 0.03168315
v -0.002635524 -0.01170045 -0.04241139
v -0.002760962 0.04267663 0.02513543
v -0.0009337068 0.02229208 -0.02403209
v 0.002572685 0.02609462 -0.02343428
v 0.002563447 0.01805919 -0.03122097
v -0.00179866 0.01011461 -0.03367651
v -0.001793176 0.02997071 -0.01350498
v -0.00263226 0.0211007 -0.02281684
v 0.002590239 0.008479416 -0.03850147
v 0.002609223 -0.00211674 -0.04387206
v -0.001781523 -0.005599022 -0.04163623
v -0.002623424 0.01250678 -0.03050882
v 0.002625734 0.0432173 0.01102498
v -0.001818806 0.04267842 0.03704929
v -0.002624959 0.003087163 -0.03666496
v 0.001659006 0.03415549 -0.01087359
v -0.002631932 0.03675151 0.002920657
v 0.001640171 0.02956408 -0.01759979
v -0.001796305 0.03446108 -0.005728424
v -0.00179252 0.03807092 0.002968758
f 1 2 3
f 3 4 5
f 4 6 5
f 4 7 6
f 7 2 5
f 6 7 5
f 7 8 9
f 7 4 8
f 10 8 3
f 11 3 5
f 11 1 3
f 2 11 5
f 1 11 2
f 8 12 3
f 12 4 3
f 4 12 8
f 13 7 9
f 13 14 7
f 15 10 3
f 10 15 8
f 16 14 13
f 2 16 3
f 16 15 3
f 17 18 19
f 20 17 19
f 21 17 22
f 17 21 18
f 23 20 19
f 18 23 19
f 24 23 8
f 8 23 9
f 23 18 9
f 25 24 8
f 15 25 8
f 17 26 22
f 26 17 20
f 27 13 9
f 27 16 13
f 14 28 7
f 16 28 14
f 7 28 2
f 28 16 2
f 29 16 22
f 16 29 15
f 26 29 22
f 29 25 15
f 29 26 20
f 23 29 20
f 29 23 24
f 25 29 24
f 18 30 9
f 16 31 22
f 31 21 22
f 21 32 18
f 32 30 18
f 30 32 21
f 31 33 21
f 30 33 9
f 33 30 21
f 33 34 9
f 34 33 31
f 34 27 9
f 27 34 16
f 34 31 16
