v 0.004960358 -0.009883523 -0.03853804
v 0.002725124 -0.01634324 -0.01961589
v 0.004239023 -0.011621 -0.03935319
v 0.004933119 -0.01135373 0.03807759
v 0.004666507 -0.00594151 -0.03429595
v 0.002643287 0.01015759 -0.01732132
v 0.003370762 0.007434785 0.02407598
v -0.0008368492 -0.009444892 -0.04054043
v -0.00313431 0.00338316 0.02817923
v -0.003077984 0.008540273 0.02537498
v -0.00419426 0.006157994 0.01800081
v 0.00278759 -0.01645845 0.03435105
v -8.237362e-05 -0.01957214 0.002397627
v 3.46899e-05 -0.01379585 0.04040062
v 0.0001103282 -0.01770836 -0.02368042
v 0.001212239 -0.01739967 -0.02428707
v 0.004844964 -0.009046972 0.03632575
v 0.0004760027 0.0198043 -0.009146184
v -0.003618836 0.009518981 -0.02071702
v -0.00131011 -0.01339126 -0.03373212
v -0.001957297 -0.009863019 -0.03864369
v -0.003629804 -0.01467979 -0.02477258
v -0.00260967 -0.00438261 -0.03427008
v -0.003725708 0.006893575 -0.02225128
v -0.001855969 -0.008600354 0.03821608
v -0.003761113 -0.01511002 0.02591211
v -0.00104928 -0.01980424 0.002915561
v -0.002747893 -0.01766515 -0.01916674
v 0.001583874 0.01810545 0.01522511
v 0.0008955598 0.01978457 0.01734957
v -0.004302204 -0.01413208 -0.02018046
v -0.004921496 0.005217612 0.0009979904
v -0.004960299 -0.01633322 -0.008676738
v -0.004955173 -0.01713175 0.007502943
v -0.0043872 -0.01628965 0.01864403
v -0.003802657 -0.0193544 0.01123446
v -0.002220929 -0.01187998 0.03727537
v -0.002997935 -0.01796532 0.02307442
v -0.0005673766 -0.01919723 0.01373589
v -0.004560173 -0.01764935 -0.01138529
v 0.001206994 0.01838076 -0.008823276
v -0.004454553 0.007111132 -0.01378816
v -0.004516721 0.003104568 0.01447776
v -0.001173556 -0.01190364 0.0405404
f 1 2 3
f 2 1 4
f 5 6 7
f 8 1 3
f 9 10 11
f 12 2 4
f 2 12 13
f 12 4 14
f 15 16 13
f 16 2 13
f 16 15 3
f 2 16 3
f 1 17 4
f 5 17 1
f 17 5 7
f 5 18 6
f 18 8 19
f 18 5 1
f 8 18 1
f 8 20 21
f 21 20 22
f 15 20 3
f 20 8 3
f 23 8 21
f 8 23 19
f 23 24 19
f 9 25 10
f 26 9 11
f 27 15 13
f 20 28 22
f 28 20 15
f 27 28 15
f 6 29 7
f 10 30 11
f 29 30 7
f 30 17 7
f 25 30 10
f 17 30 4
f 23 31 24
f 31 21 22
f 31 23 21
f 30 32 11
f 32 33 34
f 35 26 11
f 36 35 34
f 37 25 9
f 26 37 9
f 38 12 14
f 38 37 26
f 38 35 36
f 35 38 26
f 27 39 36
f 39 38 36
f 38 39 12
f 12 39 13
f 39 27 13
f 40 27 36
f 40 28 27
f 40 36 34
f 33 40 34
f 28 40 22
f 40 31 22
f 40 33 31
f 18 41 6
f 41 29 6
f 30 41 18
f 41 30 29
f 24 42 19
f 42 18 19
f 32 42 33
f 42 30 18
f 42 32 30
f 31 42 24
f 33 42 31
f 32 43 11
f 43 32 34
f 43 35 11
f 35 43 34
f 44 38 14
f 38 44 37
f 37 44 25
f 4 44 14
f 30 44 4
f 44 30 25
