v -0.002755404 -0.01104075 -0.02562645
v -0.002755404 -4.464388e-05 -0.02564535
v -0.001838833 -0.011042 -0.0256277
v -0.002750784 -0.01009876 -0.01187554
v -0.001832128 -0.007334411 -0.001799673
v -0.002746165 -0.001816332 0.01009178
v -0.002755344 0.01104206 0.007344842
v -0.001838952 -4.398823e-05 -0.02564552
v 0.002742678 -0.004625976 -0.025639
v -0.001830041 0.01100832 0.007322252
v -0.001825333 0.01103878 0.02564514
v -0.00274232 0.01103878 0.02564552
v 0.002754211 0.01102257 0.01556835
v -0.001829505 -0.001817226 0.01009083
v 0.002753437 0.002765954 0.01100039
v 0.002755404 0.01011288 0.02015007
v 0.002742797 -0.007375062 -0.02563474
v 0.002745092 -0.007360458 -0.0164628
v 0.002747506 -0.00551182 -0.007304341
v -0.001826108 0.007365525 0.02290457
v -0.0009180307 -0.01010507 -0.0146237
v -0.002743602 0.004611909 0.01924175
f 1 2 3
f 4 1 3
f 5 6 4
f 1 7 2
f 6 7 4
f 7 1 4
f 8 9 2
f 7 8 2
f 8 7 10
f 11 7 12
f 8 13 9
f 13 8 10
f 7 13 10
f 11 13 7
f 14 5 15
f 5 14 6
f 13 16 15
f 16 13 11
f 13 17 9
f 17 13 15
f 17 18 3
f 2 17 3
f 9 17 2
f 5 19 15
f 19 17 15
f 17 19 18
f 20 16 11
f 20 11 12
f 20 14 15
f 16 20 15
f 19 21 18
f 21 4 3
f 18 21 3
f 21 5 4
f 21 19 5
f 22 20 12
f 7 22 12
f 22 7 6
f 14 22 6
f 20 22 14
