v -0.00363677 -0.003748469 0.01354075
v -0.004670478 -0.002042107 0.01364931
v -0.00475847 -0.002042063 0.008475684
v -0.00372941 -0.003748499 0.008093767
v -0.005019374 -2.235174e-08 0.01371603
v -0.005104236 -7.450581e-09 0.008724503
v -0.00534191 -3.72529e-08 0.003613792
v -0.005021088 -0.0021502 0.003183313
v -0.004003249 -0.003906898 0.002476968
v 0.003859095 0.003748544 0.01341321
v 0.004895993 0.002041988 0.01348659
v 0.004808046 0.002041988 0.008312978
v 0.003766514 0.003748529 0.007966258
v 0.00524696 7.450581e-09 0.01354141
v 0.005162023 3.72529e-08 0.008549832
v 0.005230479 -2.235174e-08 0.00343398
v 0.004893608 0.002150081 0.003014587
v 0.003849991 0.003906928 0.002343319
v -0.0036368 0.003748499 0.01354077
v -0.001931034 0.004783876 0.01348127
v -0.002025209 0.004783906 0.007943325
v -0.003729425 0.003748499 0.008093752
v 0.0001106784 0.005133845 0.01344653
v 1.645833e-05 0.00513386 0.00790856
v -8.504838e-05 0.005165346 0.001941375
v -0.002233081 0.004876904 0.002080537
v -0.004003309 0.003906853 0.002476953
v 0.003859214 -0.003748514 0.0134132
v 0.002152435 -0.004783966 0.01341184
v 0.002058171 -0.004783981 0.0078739
v 0.003766544 -0.003748499 0.007966273
v 0.0001106635 -0.005133919 0.01344653
v 1.653284e-05 -0.00513389 0.007908635
v -8.507818e-05 -0.005165376 0.001941331
v 0.0020665 -0.004877038 0.002007283
v 0.003849916 -0.003906973 0.002343394
v -0.005577348 -0.002474539 0.0009190664
v -0.004580967 -0.004382201 -3.174692e-05
v -0.005831562 2.235174e-08 0.00140921
v -0.006428279 -5.215406e-08 0.0005659088
v -0.0062593 -0.002714209 7.710606e-05
v -0.005599506 -0.005234472 -0.00120116
v 0.005382039 0.002474464 0.0007325932
v 0.004344307 0.004382186 -0.0001835302
v 0.0056592 -7.450581e-09 0.001213767
v 0.006310411 -2.235174e-08 0.0003612861
v 0.006116949 0.002714179 -0.0001213774
v 0.005372308 0.005234383 -0.001380108
v -0.002608664 0.005156137 -0.0009235516
v -0.004580833 0.004382126 -3.170222e-05
v -0.0001413599 0.00525967 -0.001375683
v -0.0001711026 0.005455919 -0.003114454
v -0.003010102 0.005581655 -0.002416275
v -0.005599447 0.005234398 -0.001201205
v 0.002339683 -0.005156182 -0.001007698
v 0.004344277 -0.004382215 -0.00018356
v -0.0001415238 -0.005259775 -0.001375698
v -0.0001711026 -0.005456023 -0.003114454
v 0.002690203 -0.005581699 -0.002513207
v 0.005372249 -0.005234458 -0.001380183
v -0.007312514 -0.003949054 -0.002669953
v -0.007439293 -0.002376191 -0.002057679
v -0.007822476 -0.002477191 -0.003149949
v -0.007607929 -0.00456018 -0.003775395
v -0.007473059 -7.450581e-09 -0.001553558
v -0.007851012 7.450581e-09 -0.002594195
v -0.00803072 -7.450581e-09 -0.004069798
v -0.008035354 -0.002669774 -0.004592367
v -0.007891558 -0.004940175 -0.005247779
v 0.007445298 0.003948964 -0.002910472
v 0.007621519 0.002376117 -0.002374195
v 0.007921241 0.002477117 -0.003899686
v 0.00774426 0.004560225 -0.004096948
v 0.007643081 -2.235174e-08 -0.001943298
v 0.007876895 7.450581e-09 -0.003632598
v 0.007905759 -7.450581e-09 -0.005528994
v 0.008017816 0.002669744 -0.005625553
v 0.007960923 0.004940115 -0.005647279
v -0.003295995 0.006113686 -0.003745236
v -0.005788796 0.006369807 -0.003091194
v -0.0001920387 0.005792893 -0.004346572
v -0.0002142861 0.006041504 -0.005652033
v -0.00352896 0.00652229 -0.005285539
v -0.006161906 0.006975494 -0.004906856
v 0.002930693 -0.006113701 -0.003851242
v 0.005523063 -0.006369866 -0.003271662
v -0.0001919493 -0.005792834 -0.004346542
v -0.0002141967 -0.006041564 -0.005652048
v 0.003111131 -0.006522395 -0.005398549
v 0.00583411 -0.006975479 -0.005098931
v -0.00818219 -0.004925855 -0.009191923
v -0.007944874 -0.002657361 -0.00913585
v -0.007710882 -0.002318524 -0.01125137
v -0.007806592 -0.004294001 -0.01109316
v -0.007703491 2.235174e-08 -0.009148173
v -0.007554673 2.235174e-08 -0.01147444
v -0.007302098 2.235174e-08 -0.01341764
v -0.007326894 -0.002064534 -0.01305064
v -0.007364176 -0.003557228 -0.01249342
v 0.008182146 0.00492575 -0.009406023
v 0.008032568 0.002657406 -0.0093913
v 0.007752173 0.002318479 -0.01137512
v 0.007748447 0.004293986 -0.01126287
v 0.007795565 7.450581e-09 -0.009435423
v 0.007605754 3.72529e-08 -0.01157155
v 0.007169522 -3.72529e-08 -0.01356354
v 0.007202409 0.002064474 -0.01320299
v 0.007192574 0.003557213 -0.01266149
v -0.006660767 0.006916471 -0.009644054
v -0.003856875 0.006215401 -0.009752564
v -0.00361558 0.005371816 -0.01193417
v -0.006228693 0.006004162 -0.01196963
v -0.0002849028 0.005564384 -0.009805538
v -0.0003192052 0.004792534 -0.0118209
v -0.0003449395 0.003597535 -0.01333217
v -0.003314681 0.004022799 -0.01364511
v -0.005704023 0.004486479 -0.01389153
v 0.006171562 -0.006916501 -0.009850316
v 0.003286876 -0.006215416 -0.009874068
v 0.002971552 -0.005371861 -0.01204615
v 0.00566069 -0.006004192 -0.01215985
v -0.000284858 -0.005564414 -0.009805508
v -0.0003191605 -0.004792608 -0.01182092
v -0.0003449097 -0.00359764 -0.0133322
v 0.002612688 -0.004022814 -0.01374588
v 0.005070888 -0.004486553 -0.01406284
v -0.003220476 0.002143808 -0.01457349
v -0.005541794 0.002388455 -0.01513443
v -0.0003564879 0.00191962 -0.01401492
v -0.000358738 5.215406e-08 -0.01414918
v -0.003225006 7.450581e-09 -0.01484206
v -0.005551286 7.450581e-09 -0.01558604
v -0.004670464 0.002042018 0.01364935
v -0.00475844 0.002042003 0.008475624
v -0.005021058 0.002150081 0.003183208
v 0.004896007 -0.002042077 0.01348657
v 0.004807942 -0.002042063 0.008312888
v 0.004893638 -0.002150185 0.003014602
v -0.005577318 0.002474494 0.0009190217
v -0.00625927 0.002714179 7.728487e-05
v 0.005382009 -0.002474569 0.0007325634
v 0.006116949 -0.002714209 -0.0001213923
v -0.007439293 0.002376117 -0.002057649
v -0.007822536 0.002477147 -0.003149949
v -0.007312484 0.003948964 -0.002669998
v -0.007607929 0.00456018 -0.003775351
v -0.007891513 0.00494004 -0.005247809
v -0.008035339 0.002669699 -0.004592352
v 0.007621504 -0.002376072 -0.002374284
v 0.007921241 -0.002477221 -0.003899686
v 0.007445239 -0.003948964 -0.002910413
v 0.007744245 -0.004560225 -0.004096918
v 0.007960863 -0.00494016 -0.005647294
v 0.008017801 -0.002669714 -0.005625539
v -0.007944874 0.002657451 -0.009135865
v -0.007710837 0.002318449 -0.01125135
v -0.008182161 0.00492572 -0.009191863
v -0.007806636 0.004293986 -0.01109321
v -0.007364087 0.003557257 -0.01249347
v -0.007326879 0.002064534 -0.01305068
v 0.008032583 -0.002657451 -0.009391315
v 0.007752098 -0.002318539 -0.01137515
v 0.00818219 -0.00492575 -0.009406038
v 0.007748418 -0.004293986 -0.0112629
v 0.007192545 -0.003557272 -0.01266145
v 0.007202365 -0.002064519 -0.01320288
v 0.004860632 -2.235174e-08 -0.01575116
v 0.004866622 -0.00238838 -0.01529948
v 0.002486877 -0.002143823 -0.01467057
v 0.002482317 -7.450581e-09 -0.01493912
v -0.0003565326 -0.00191953 -0.01401501
v 0.0001106784 0.005133845 0.01344653
v 0.002152406 0.004783861 0.01341187
v 0.00205823 0.004783861 0.007873856
v 1.645833e-05 0.00513386 0.00790856
v 0.00206656 0.004876934 0.002007358
v -8.504838e-05 0.005165346 0.001941375
v -0.001930974 -0.004783995 0.01348125
v -0.002025269 -0.004783951 0.007943369
v -0.002233051 -0.004877038 0.002080493
v 0.002339728 0.005156122 -0.001007684
v -0.0001413599 0.00525967 -0.001375683
v 0.002690144 0.00558167 -0.002513207
v -0.0001711026 0.005455919 -0.003114454
v -0.002608605 -0.005156212 -0.0009235665
v -0.003010102 -0.005581729 -0.00241629
v 0.002930664 0.006113715 -0.003851153
v -0.0001920387 0.005792893 -0.004346572
v 0.005523078 0.006369837 -0.003271751
v 0.005834199 0.006975405 -0.005098902
v 0.003111176 0.006522305 -0.005398519
v -0.0002142861 0.006041504 -0.005652033
v -0.003295906 -0.006113686 -0.00374534
v -0.005788811 -0.006369852 -0.003091253
v -0.006161936 -0.00697542 -0.004906856
v -0.003528975 -0.00652232 -0.005285613
v -0.0002849028 0.005564384 -0.009805538
v 0.003286876 0.006215356 -0.009873994
v 0.002971567 0.005371861 -0.01204621
v -0.0003192052 0.004792534 -0.0118209
v 0.006171606 0.006916441 -0.009850301
v 0.00566069 0.006004088 -0.0121598
v 0.005070917 0.004486524 -0.01406286
v 0.002612598 0.004022785 -0.01374591
v -0.0003449395 0.003597535 -0.01333217
v -0.00385683 -0.006215386 -0.009752579
v -0.00361561 -0.005371876 -0.01193411
v -0.006660797 -0.006916486 -0.009644084
v -0.006228678 -0.006004132 -0.01196963
v -0.005704038 -0.004486568 -0.01389151
v -0.003314696 -0.00402268 -0.01364511
v 0.002486922 0.002143763 -0.01467062
v -0.0003564879 0.00191962 -0.01401492
v 0.004866473 0.00238838 -0.01529942
v -0.003220476 -0.002143838 -0.01457352
v -0.005541794 -0.002388395 -0.01513443
v -0.007921822 7.450581e-09 -0.006467156
v -0.00806465 -0.002752222 -0.006751917
v -0.00814674 -0.005101614 -0.007148318
v 0.007887073 -7.450581e-09 -0.007442333
v 0.00808803 0.002752148 -0.007465415
v 0.00817997 0.005101554 -0.007475652
v -0.0002475753 0.005973063 -0.007610492
v -0.003771938 0.00657744 -0.007412218
v -0.006545521 0.007198907 -0.007190518
v -0.0002475306 -0.005973078 -0.007610492
v 0.003281631 -0.006577574 -0.007532172
v 0.006139897 -0.007198952 -0.007394277
v -0.008146785 0.005101509 -0.007148318
v -0.008064605 0.002752133 -0.006751977
v 0.00817994 -0.005101599 -0.007475637
v 0.00808809 -0.002752222 -0.007465459
v 0.006139867 0.007198967 -0.007394247
v 0.003281645 0.006577469 -0.007532157
v -0.0002475753 0.005973063 -0.007610492
v -0.006545492 -0.007198967 -0.007190444
v -0.003771923 -0.006577469 -0.007412173
v -0.006899111 0.002568208 -0.0009485707
v -0.006987162 7.450581e-09 -0.0004609153
v -0.006855838 0.00467401 -0.002056114
v -0.007078059 0.005854852 -0.003428467
v -0.007441632 0.006411724 -0.005123459
v -0.007822089 0.006645389 -0.007198445
v -0.007928319 0.00641606 -0.009409226
v -0.00746911 0.005583681 -0.01151098
v -0.006920137 0.004177056 -0.0132784
v -0.006757177 0.0022249 -0.01448596
v -0.006772347 2.235174e-08 -0.01494978
v -0.006757177 -0.002224915 -0.01448592
v -0.006920151 -0.004177041 -0.01327843
v -0.007469125 -0.005583681 -0.01151096
v -0.007928409 -0.00641603 -0.009409197
v -0.007822089 -0.006645449 -0.00719849
v -0.007441558 -0.006411724 -0.005123429
v -0.007077985 -0.005854852 -0.003428496
v -0.006855823 -0.004674025 -0.002056099
v -0.006899126 -0.002568297 -0.0009485707
v 0.006941788 -0.002568297 -0.001135908
v 0.007046245 -7.450581e-09 -0.0006515607
v 0.00686083 -0.004674055 -0.00224141
v 0.007036217 -0.005854838 -0.003620572
v 0.007341944 -0.006411694 -0.005326726
v 0.007651545 -0.006645434 -0.007413723
v 0.007682554 -0.00641606 -0.009626724
v 0.007152103 -0.005583681 -0.01171155
v 0.006543361 -0.004177116 -0.01345933
v 0.006339453 -0.0022249 -0.01466063
v 0.006338783 5.215406e-08 -0.01512467
v 0.006339438 0.002224885 -0.01466062
v 0.006543331 0.004177041 -0.01345932
v 0.007152133 0.005583651 -0.01171162
v 0.007682584 0.00641609 -0.009626724
v 0.00765153 0.006645419 -0.007413708
v 0.007341824 0.006411754 -0.005326785
v 0.007036217 0.005854838 -0.003620557
v 0.006860785 0.004674055 -0.002241366
v 0.006941773 0.002568223 -0.001135878
v -0.004638024 -0.002042063 0.01555734
v -0.004987858 -5.215406e-08 0.01556333
v -0.003602751 -0.003748529 0.01553967
v -0.003034525 -0.003182955 0.01568296
v -0.003438778 -0.001531504 0.01574332
v -0.004259415 2.235174e-08 0.0157038
v 0.004928462 0.002042003 0.01539456
v 0.005278356 -7.450581e-09 0.01538863
v 0.00389313 0.003748484 0.01541217
v 0.003330268 0.003182851 0.0155747
v 0.003736146 0.001531474 0.01562131
v 0.004555114 2.235174e-08 0.01555388
v -0.001896448 0.004783906 0.01551073
v 0.0001452044 0.00513386 0.01547597
v -0.003602795 0.003748529 0.01553968
v -0.003034554 0.003182851 0.015683
v -0.001382612 0.003587969 0.01570841
v 0.0001477674 0.004407875 0.01562882
v 0.002187021 -0.004783966 0.01544122
v 0.000145264 -0.00513389 0.01547603
v 0.003893189 -0.003748484 0.01541223
v 0.003330193 -0.003182895 0.0155747
v 0.001680069 -0.003587998 0.0156563
v 0.0001477823 -0.004408009 0.01562882
v -0.004637994 0.002042003 0.0155573
v -0.003438704 0.001531534 0.0157434
v 0.004928418 -0.002042048 0.01539459
v 0.003736131 -0.001531504 0.01562124
v 0.002186976 0.004783906 0.01544119
v 0.0001452044 0.00513386 0.01547597
v 0.0001477674 0.004407875 0.01562882
v 0.001680084 0.003587939 0.01565626
v -0.001896419 -0.004783995 0.01551069
v -0.001382537 -0.003587984 0.01570835
v -0.003034525 -0.003182955 0.01568296
v -0.001382537 -0.003587984 0.01570835
v 0.0001499429 -2.235174e-08 0.01575116
v -0.003438778 -0.001531504 0.01574332
v 0.0001477823 -0.004408009 0.01562882
v 0.001680069 -0.003587998 0.0156563
v 0.003330193 -0.003182895 0.0155747
v 0.003736131 -0.001531504 0.01562124
v 0.004555114 2.235174e-08 0.01555388
v 0.003736146 0.001531474 0.01562131
v 0.003330268 0.003182851 0.0155747
v 0.001680084 0.003587939 0.01565626
v 0.0001477674 0.004407875 0.01562882
v -0.001382612 0.003587969 0.01570841
v -0.003034554 0.003182851 0.015683
v -0.003438704 0.001531534 0.0157434
v -0.004259415 2.235174e-08 0.0157038
f 1 2 3
f 1 3 4
f 5 6 3
f 5 3 2
f 7 8 3
f 7 3 6
f 9 4 3
f 9 3 8
f 10 11 12
f 10 12 13
f 14 15 12
f 14 12 11
f 16 17 12
f 16 12 15
f 18 13 12
f 18 12 17
f 19 20 21
f 19 21 22
f 23 24 21
f 23 21 20
f 25 26 21
f 25 21 24
f 27 22 21
f 27 21 26
f 28 29 30
f 28 30 31
f 32 33 30
f 32 30 29
f 34 35 30
f 34 30 33
f 36 31 30
f 36 30 35
f 9 8 37
f 9 37 38
f 7 39 37
f 7 37 8
f 40 41 37
f 40 37 39
f 42 38 37
f 42 37 41
f 18 17 43
f 18 43 44
f 16 45 43
f 16 43 17
f 46 47 43
f 46 43 45
f 48 44 43
f 48 43 47
f 27 26 49
f 27 49 50
f 25 51 49
f 25 49 26
f 52 53 49
f 52 49 51
f 54 50 49
f 54 49 53
f 36 35 55
f 36 55 56
f 34 57 55
f 34 55 35
f 58 59 55
f 58 55 57
f 60 56 55
f 60 55 59
f 61 62 63
f 61 63 64
f 65 66 63
f 65 63 62
f 67 68 63
f 67 63 66
f 69 64 63
f 69 63 68
f 70 71 72
f 70 72 73
f 74 75 72
f 74 72 71
f 76 77 72
f 76 72 75
f 78 73 72
f 78 72 77
f 54 53 79
f 54 79 80
f 52 81 79
f 52 79 53
f 82 83 79
f 82 79 81
f 84 80 79
f 84 79 83
f 60 59 85
f 60 85 86
f 58 87 85
f 58 85 59
f 88 89 85
f 88 85 87
f 90 86 85
f 90 85 89
f 91 92 93
f 91 93 94
f 95 96 93
f 95 93 92
f 97 98 93
f 97 93 96
f 99 94 93
f 99 93 98
f 100 101 102
f 100 102 103
f 104 105 102
f 104 102 101
f 106 107 102
f 106 102 105
f 108 103 102
f 108 102 107
f 109 110 111
f 109 111 112
f 113 114 111
f 113 111 110
f 115 116 111
f 115 111 114
f 117 112 111
f 117 111 116
f 118 119 120
f 118 120 121
f 122 123 120
f 122 120 119
f 124 125 120
f 124 120 123
f 126 121 120
f 126 120 125
f 117 116 127
f 117 127 128
f 115 129 127
f 115 127 116
f 130 131 127
f 130 127 129
f 132 128 127
f 132 127 131
f 5 133 134
f 5 134 6
f 19 22 134
f 19 134 133
f 27 135 134
f 27 134 22
f 7 6 134
f 7 134 135
f 14 136 137
f 14 137 15
f 28 31 137
f 28 137 136
f 36 138 137
f 36 137 31
f 16 15 137
f 16 137 138
f 7 135 139
f 7 139 39
f 27 50 139
f 27 139 135
f 54 140 139
f 54 139 50
f 40 39 139
f 40 139 140
f 16 138 141
f 16 141 45
f 36 56 141
f 36 141 138
f 60 142 141
f 60 141 56
f 46 45 141
f 46 141 142
f 65 143 144
f 65 144 66
f 145 146 144
f 145 144 143
f 147 148 144
f 147 144 146
f 67 66 144
f 67 144 148
f 74 149 150
f 74 150 75
f 151 152 150
f 151 150 149
f 153 154 150
f 153 150 152
f 76 75 150
f 76 150 154
f 95 155 156
f 95 156 96
f 157 158 156
f 157 156 155
f 159 160 156
f 159 156 158
f 97 96 156
f 97 156 160
f 104 161 162
f 104 162 105
f 163 164 162
f 163 162 161
f 165 166 162
f 165 162 164
f 106 105 162
f 106 162 166
f 167 168 169
f 167 169 170
f 126 125 169
f 126 169 168
f 124 171 169
f 124 169 125
f 130 170 169
f 130 169 171
f 172 173 174
f 172 174 175
f 10 13 174
f 10 174 173
f 18 176 174
f 18 174 13
f 177 175 174
f 177 174 176
f 32 178 179
f 32 179 33
f 1 4 179
f 1 179 178
f 9 180 179
f 9 179 4
f 34 33 179
f 34 179 180
f 177 176 181
f 177 181 182
f 18 44 181
f 18 181 176
f 48 183 181
f 48 181 44
f 184 182 181
f 184 181 183
f 34 180 185
f 34 185 57
f 9 38 185
f 9 185 180
f 42 186 185
f 42 185 38
f 58 57 185
f 58 185 186
f 184 183 187
f 184 187 188
f 48 189 187
f 48 187 183
f 190 191 187
f 190 187 189
f 192 188 187
f 192 187 191
f 58 186 193
f 58 193 87
f 42 194 193
f 42 193 186
f 195 196 193
f 195 193 194
f 88 87 193
f 88 193 196
f 197 198 199
f 197 199 200
f 201 202 199
f 201 199 198
f 203 204 199
f 203 199 202
f 205 200 199
f 205 199 204
f 122 206 207
f 122 207 123
f 208 209 207
f 208 207 206
f 210 211 207
f 210 207 209
f 124 123 207
f 124 207 211
f 205 204 212
f 205 212 213
f 203 214 212
f 203 212 204
f 167 170 212
f 167 212 214
f 130 213 212
f 130 212 170
f 124 211 215
f 124 215 171
f 210 216 215
f 210 215 211
f 132 131 215
f 132 215 216
f 130 171 215
f 130 215 131
f 67 217 218
f 67 218 68
f 95 92 218
f 95 218 217
f 91 219 218
f 91 218 92
f 69 68 218
f 69 218 219
f 76 220 221
f 76 221 77
f 104 101 221
f 104 221 220
f 100 222 221
f 100 221 101
f 78 77 221
f 78 221 222
f 82 223 224
f 82 224 83
f 113 110 224
f 113 224 223
f 109 225 224
f 109 224 110
f 84 83 224
f 84 224 225
f 88 226 227
f 88 227 89
f 122 119 227
f 122 227 226
f 118 228 227
f 118 227 119
f 90 89 227
f 90 227 228
f 147 229 230
f 147 230 148
f 157 155 230
f 157 230 229
f 95 217 230
f 95 230 155
f 67 148 230
f 67 230 217
f 153 231 232
f 153 232 154
f 163 161 232
f 163 232 231
f 104 220 232
f 104 232 161
f 76 154 232
f 76 232 220
f 190 233 234
f 190 234 191
f 201 198 234
f 201 234 233
f 197 235 234
f 197 234 198
f 192 191 234
f 192 234 235
f 195 236 237
f 195 237 196
f 208 206 237
f 208 237 236
f 122 226 237
f 122 237 206
f 88 196 237
f 88 237 226
f 40 140 238
f 40 238 239
f 54 240 238
f 54 238 140
f 145 143 238
f 145 238 240
f 65 239 238
f 65 238 143
f 54 80 241
f 54 241 240
f 84 242 241
f 84 241 80
f 147 146 241
f 147 241 242
f 145 240 241
f 145 241 146
f 84 225 243
f 84 243 242
f 109 244 243
f 109 243 225
f 157 229 243
f 157 243 244
f 147 242 243
f 147 243 229
f 109 112 245
f 109 245 244
f 117 246 245
f 117 245 112
f 159 158 245
f 159 245 246
f 157 244 245
f 157 245 158
f 117 128 247
f 117 247 246
f 132 248 247
f 132 247 128
f 97 160 247
f 97 247 248
f 159 246 247
f 159 247 160
f 132 216 249
f 132 249 248
f 210 250 249
f 210 249 216
f 99 98 249
f 99 249 250
f 97 248 249
f 97 249 98
f 210 209 251
f 210 251 250
f 208 252 251
f 208 251 209
f 91 94 251
f 91 251 252
f 99 250 251
f 99 251 94
f 208 236 253
f 208 253 252
f 195 254 253
f 195 253 236
f 69 219 253
f 69 253 254
f 91 252 253
f 91 253 219
f 195 194 255
f 195 255 254
f 42 256 255
f 42 255 194
f 61 64 255
f 61 255 256
f 69 254 255
f 69 255 64
f 42 41 257
f 42 257 256
f 40 239 257
f 40 257 41
f 65 62 257
f 65 257 239
f 61 256 257
f 61 257 62
f 46 142 258
f 46 258 259
f 60 260 258
f 60 258 142
f 151 149 258
f 151 258 260
f 74 259 258
f 74 258 149
f 60 86 261
f 60 261 260
f 90 262 261
f 90 261 86
f 153 152 261
f 153 261 262
f 151 260 261
f 151 261 152
f 90 228 263
f 90 263 262
f 118 264 263
f 118 263 228
f 163 231 263
f 163 263 264
f 153 262 263
f 153 263 231
f 118 121 265
f 118 265 264
f 126 266 265
f 126 265 121
f 165 164 265
f 165 265 266
f 163 264 265
f 163 265 164
f 126 168 267
f 126 267 266
f 167 268 267
f 167 267 168
f 106 166 267
f 106 267 268
f 165 266 267
f 165 267 166
f 167 214 269
f 167 269 268
f 203 270 269
f 203 269 214
f 108 107 269
f 108 269 270
f 106 268 269
f 106 269 107
f 203 202 271
f 203 271 270
f 201 272 271
f 201 271 202
f 100 103 271
f 100 271 272
f 108 270 271
f 108 271 103
f 201 233 273
f 201 273 272
f 190 274 273
f 190 273 233
f 78 222 273
f 78 273 274
f 100 272 273
f 100 273 222
f 190 189 275
f 190 275 274
f 48 276 275
f 48 275 189
f 70 73 275
f 70 275 276
f 78 274 275
f 78 275 73
f 48 47 277
f 48 277 276
f 46 259 277
f 46 277 47
f 74 71 277
f 74 277 259
f 70 276 277
f 70 277 71
f 5 2 278
f 5 278 279
f 1 280 278
f 1 278 2
f 281 282 278
f 281 278 280
f 283 279 278
f 283 278 282
f 14 11 284
f 14 284 285
f 10 286 284
f 10 284 11
f 287 288 284
f 287 284 286
f 289 285 284
f 289 284 288
f 23 20 290
f 23 290 291
f 19 292 290
f 19 290 20
f 293 294 290
f 293 290 292
f 295 291 290
f 295 290 294
f 32 29 296
f 32 296 297
f 28 298 296
f 28 296 29
f 299 300 296
f 299 296 298
f 301 297 296
f 301 296 300
f 19 133 302
f 19 302 292
f 5 279 302
f 5 302 133
f 283 303 302
f 283 302 279
f 293 292 302
f 293 302 303
f 28 136 304
f 28 304 298
f 14 285 304
f 14 304 136
f 289 305 304
f 289 304 285
f 299 298 304
f 299 304 305
f 10 173 306
f 10 306 286
f 172 307 306
f 172 306 173
f 308 309 306
f 308 306 307
f 287 286 306
f 287 306 309
f 1 178 310
f 1 310 280
f 32 297 310
f 32 310 178
f 301 311 310
f 301 310 297
f 281 280 310
f 281 310 311
f 312 313 314
f 312 314 315
f 316 317 314
f 316 314 313
f 318 319 314
f 318 314 317
f 320 321 314
f 320 314 319
f 322 323 314
f 322 314 321
f 324 325 314
f 324 314 323
f 326 327 314
f 326 314 325
f 328 315 314
f 328 314 327
