v -0.003412724 0.01726902 0.02076006
v -0.002928108 0.01563443 0.02630562
v 0.00165388 0.01822291 0.024957
v 0.004036725 0.01515704 0.02646697
v -0.003489077 -0.005288973 -0.02651966
v 0.0007459819 -0.01739411 -0.02621758
v 0.001109719 -0.02185217 0.02632821
v -0.00395295 -0.006186649 0.02206481
v 0.00016433 0.02029058 0.01624161
v 0.003991425 0.0177137 -0.02674681
v 0.001711279 0.02134088 0.007480502
v -0.003449351 -0.00783819 0.02669442
v -0.003011107 0.01821768 -0.02507013
v 0.0002871156 0.02150904 -0.01606542
v 0.001901686 0.01982808 -0.02543759
v -0.004036754 0.01964062 0.007873952
v 0.001609445 -0.01709288 -0.02620393
v -0.002667695 0.01732269 -0.02688426
v 0.00207147 0.01990278 0.01701623
v -0.0002088845 0.02185217 0.006658971
v 0.0022614 0.0209946 -0.01756334
v -0.001024336 0.02149594 0.006625235
v -0.003473073 0.01920274 -0.01776409
v -0.003833205 0.01725447 -0.01315397
v 0.003252894 -0.01034558 0.02688426
v -0.004017502 0.001477301 -0.02022856
v 0.001996875 -0.02054417 0.02518874
v 0.003487825 -0.005429775 0.02587897
v 0.003166765 -0.004893482 -0.02637678
v -0.003852338 -0.004377276 -0.02378905
v 0.004033595 0.01481375 -0.0266946
v 0.003292292 -0.01037733 0.02504283
f 1 2 3
f 2 4 3
f 5 6 7
f 8 2 1
f 9 1 3
f 10 11 4
f 12 8 7
f 8 12 2
f 2 12 4
f 13 14 15
f 9 16 1
f 16 8 1
f 17 6 5
f 10 17 5
f 6 17 7
f 13 18 5
f 18 10 5
f 18 13 15
f 10 18 15
f 4 19 3
f 11 19 4
f 19 9 3
f 9 19 20
f 19 11 20
f 21 10 15
f 21 11 10
f 14 21 15
f 11 21 20
f 21 14 20
f 22 9 20
f 22 16 9
f 14 22 20
f 23 14 13
f 23 22 14
f 22 23 16
f 23 24 16
f 25 12 7
f 12 25 4
f 16 26 8
f 24 26 16
f 26 23 13
f 26 24 23
f 17 27 7
f 27 25 7
f 25 28 4
f 29 17 10
f 29 27 17
f 26 30 8
f 30 5 7
f 8 30 7
f 30 13 5
f 30 26 13
f 31 29 10
f 31 10 4
f 28 31 4
f 32 28 25
f 27 32 25
f 29 32 27
f 32 31 28
f 31 32 29
