v -0.008971876 0.0008849017 0.01753388
v -0.001449941 0.001757124 0.01772906
v -0.008767145 0.001550667 0.0198773
v -0.001291893 0.00131424 0.01952016
v -0.001247577 -0.000139052 0.02007319
v -0.008724028 -0.0008359775 0.02039361
v -0.001554297 0.0001721159 0.01655465
v -0.00133291 0.002103388 0.0185771
v 0.0001303097 0.002168588 0.01860166
v -0.001223855 0.001482084 0.01985562
v 0.0002618926 0.001086021 0.02015699
v -0.001531443 -0.0007053278 0.01630753
v -8.403137e-05 0.0007381681 0.01606821
v -0.001529617 0.0007139929 0.01633379
v -0.001175249 2.866797e-05 0.02041939
v -0.001447528 0.001835836 0.01719214
v 1.647137e-05 0.001982236 0.01726311
v -0.001438745 0.00290315 0.01730724
v -0.001288534 0.002992272 0.01900892
v 0.0001264764 0.003024753 0.01845948
v -4.682876e-05 0.002470035 0.01645695
v -0.001132359 0.001809299 0.02085076
v 0.0003622938 -0.0003435668 0.0211398
v 0.000323168 0.001886906 0.02058333
v -0.001092309 -0.0005032588 0.021329
v -0.001571202 0.001800817 0.01581518
v -0.0001552273 0.0009846576 0.0153618
v -0.001617597 1.1269e-06 0.01526364
v -0.000149088 -0.001011072 0.01534405
v -0.01064285 -0.002235474 0.0213923
v -0.01001793 -0.004813738 0.0278176
v -0.0100321 -0.002239568 0.02784716
v -0.01010446 -0.00704596 0.02687427
v -0.01030733 -0.008646527 0.02443234
v -0.01059498 -0.008729452 0.02139912
v -0.01151133 -0.008738255 0.01043127
v -0.01098898 -0.008732662 0.01687239
v -0.01102765 -0.002221934 0.01689816
v -0.01155116 -0.002245836 0.01041586
v -0.01063818 0.002289886 0.02139058
v -0.01002742 0.002297653 0.02784541
v -0.009988921 0.005721256 0.02769831
v -0.01018389 0.007847041 0.02602219
v -0.01032565 0.00873765 0.02404838
v -0.0105761 0.008785244 0.02139253
v -0.01154885 0.00229812 0.01041514
v -0.01102099 0.002270287 0.01689983
v -0.01097295 0.008785011 0.01686193
v -0.01147673 0.008796271 0.01042187
v -0.009204172 -0.008784126 0.01899727
v -0.0009657554 -0.008767415 0.02387071
v -0.002259178 -0.008916913 0.009447906
v -0.009191705 0.008829224 0.01899115
v -0.001011949 0.00891142 0.02319564
v -0.002239981 0.0089451 0.00944113
v -0.008435396 2.736412e-05 0.02776524
v -0.009270791 2.491102e-05 0.01900067
v -0.009963874 2.23089e-05 0.0102241
v -0.0006689746 -0.004710553 0.02718509
v -0.0006617745 0.005359264 0.02710089
v -0.001668948 0.00272315 0.01526391
v -0.001449748 0.003961243 0.01756794
v -0.001467226 -0.007476041 0.01756954
v -0.001336735 -0.007480379 0.01906698
v -0.001107326 -0.002167776 0.021677
v -0.001199178 -0.002528884 0.02010236
v -0.000899449 0.007277003 0.0239788
v -0.0008005919 0.007879771 0.02547801
v -0.002054634 -0.007483635 0.01085147
v -0.002046863 -0.00073939 0.01084452
v -0.000744855 0.004991183 0.02572138
v -0.002046039 0.0007705018 0.01084311
v -0.002039614 0.007507224 0.01084078
v -0.001452268 0.007513206 0.01756023
v -0.001227349 -0.003427774 0.02036432
v -0.0007397011 -0.006849395 0.02639178
v -0.0009401646 -0.007346861 0.02362284
v -0.0007695351 -0.005325435 0.02564394
v -0.001321654 0.007508933 0.01905695
v -0.0007420862 0.0007725954 0.02578188
v -0.001339668 -0.003906421 0.01904605
v -0.001737462 0.0007462446 0.01440831
v -0.001389191 -0.003021648 0.01796522
v -0.0007437058 -0.0007307716 0.0257776
v -0.001466783 -0.003906665 0.01758463
v -0.001741216 -0.0007182285 0.0144057
v -0.001559382 -0.002061451 0.01599497
v -0.00170422 -0.002041159 0.0148828
v -0.001591973 -0.003359372 0.01613785
v -0.001057171 0.0007510707 0.02222162
v -0.001331174 0.003939748 0.01904286
v -0.001100996 0.002074249 0.02174512
v -0.001205044 0.003392393 0.02048933
v -0.001059085 -0.0007159803 0.02222242
v -0.009961609 -0.007309988 0.01170791
v -0.009405093 -0.007306008 0.01809129
v -0.009413209 -0.0040904 0.01805165
v -0.009674011 -0.000889454 0.01494516
v -0.009619782 -0.002650954 0.01573274
v -0.009954708 -0.0008931663 0.01170534
v -0.009945666 0.007356077 0.01170146
v -0.009953102 0.0009393245 0.01170483
v -0.009670341 0.000933649 0.01494657
v -0.009600876 0.003069678 0.01597351
v -0.009392027 0.004098263 0.01809646
v -0.00938895 0.007357024 0.01808514
v -0.008847537 0.007167412 0.02442459
v -0.008693237 0.005117824 0.02620472
v -0.009228205 0.007357789 0.01991819
v -0.009238156 0.004140414 0.0199593
v -0.00896387 0.0009396002 0.02306467
v -0.00904415 0.002701575 0.0222796
v -0.008678183 0.0009437706 0.02630475
v -0.008817 -0.006581115 0.02515553
v -0.008932946 -0.007283324 0.02357213
v -0.008695533 -0.004897416 0.02624298
v -0.008679645 -0.0008881371 0.02630415
v -0.008968949 -0.0009328686 0.02310541
v -0.009243913 -0.004050294 0.01991645
v -0.009103438 -0.003261203 0.02167282
v -0.009243965 -0.007306732 0.019924
v -7.597543e-05 -0.0009700228 0.01625756
v 2.035685e-05 -0.001984579 0.01727295
v -6.899424e-05 -0.002330951 0.01637053
v 6.819516e-05 -0.002984049 0.01782997
v 0.0002711629 -0.0008110572 0.02019513
v 0.0001442395 -0.00203573 0.01900717
v 0.000257574 -0.002322894 0.02013255
v -0.001411123 -0.002138143 0.01787794
v -0.001225479 -0.001431148 0.01987254
v -0.001351578 -0.001724046 0.01889864
v -0.008929892 -0.001501732 0.01805026
v -0.001505239 -0.001281163 0.01710702
f 1 2 3
f 2 4 3
f 4 5 3
f 3 5 6
f 7 2 1
f 8 9 10
f 9 11 10
f 12 13 14
f 10 11 15
f 14 13 16
f 13 17 16
f 16 17 8
f 17 9 8
f 18 19 20
f 18 20 21
f 22 23 24
f 22 25 23
f 26 18 21
f 26 21 27
f 28 26 27
f 28 27 29
f 19 22 24
f 19 24 20
f 30 31 32
f 30 33 31
f 34 33 30
f 35 34 30
f 36 37 38
f 36 38 39
f 40 41 42
f 40 42 43
f 40 43 44
f 40 44 45
f 46 47 48
f 46 48 49
f 50 34 35
f 50 51 34
f 52 51 50
f 37 52 50
f 36 52 37
f 53 45 44
f 54 53 44
f 55 48 53
f 55 49 48
f 55 53 54
f 30 32 56
f 57 30 56
f 58 39 38
f 58 38 57
f 40 57 56
f 40 56 41
f 58 57 47
f 46 58 47
f 55 46 49
f 58 46 55
f 52 39 58
f 52 36 39
f 52 58 55
f 56 59 60
f 56 60 42
f 56 42 41
f 31 56 32
f 31 59 56
f 18 61 62
f 18 26 61
f 51 63 64
f 65 66 25
f 60 67 68
f 69 52 70
f 60 71 67
f 63 52 69
f 51 52 63
f 52 55 70
f 70 55 72
f 73 55 74
f 74 55 54
f 68 67 54
f 65 75 66
f 76 77 78
f 67 79 54
f 60 80 71
f 76 51 77
f 28 61 26
f 75 81 66
f 28 82 61
f 66 81 83
f 60 84 80
f 79 74 54
f 81 85 83
f 28 86 82
f 87 88 28
f 28 88 86
f 85 89 83
f 60 59 84
f 84 90 80
f 79 91 74
f 83 89 87
f 92 22 93
f 87 89 88
f 73 72 55
f 81 64 85
f 22 19 93
f 51 64 77
f 90 22 92
f 93 19 91
f 59 78 84
f 90 25 22
f 86 70 82
f 84 94 90
f 82 70 72
f 91 62 74
f 91 19 62
f 94 25 90
f 64 63 85
f 19 18 62
f 76 78 59
f 65 25 94
f 51 76 33
f 51 33 34
f 76 31 33
f 76 59 31
f 68 43 42
f 60 68 42
f 54 44 43
f 68 54 43
f 63 95 96
f 69 95 63
f 85 96 97
f 63 96 85
f 98 86 88
f 99 98 88
f 99 88 89
f 97 99 89
f 97 89 85
f 100 86 98
f 100 70 86
f 95 69 100
f 100 69 70
f 99 100 98
f 95 100 99
f 96 99 97
f 96 95 99
f 101 72 73
f 102 72 101
f 82 102 103
f 72 102 82
f 104 62 61
f 104 105 62
f 103 61 82
f 103 104 61
f 62 106 74
f 62 105 106
f 101 74 106
f 101 73 74
f 104 102 101
f 104 101 106
f 103 102 104
f 105 104 106
f 107 67 108
f 67 71 108
f 109 67 107
f 109 79 67
f 109 91 79
f 110 91 109
f 111 90 92
f 112 111 92
f 112 92 93
f 110 112 93
f 110 93 91
f 90 113 80
f 90 111 113
f 71 113 108
f 80 113 71
f 110 109 107
f 112 110 107
f 108 112 107
f 108 111 112
f 113 111 108
f 114 77 115
f 116 78 114
f 78 77 114
f 78 117 84
f 78 116 117
f 117 94 84
f 118 94 117
f 119 81 75
f 120 119 75
f 120 75 65
f 118 120 65
f 118 65 94
f 121 81 119
f 121 64 81
f 77 121 115
f 64 121 77
f 116 120 118
f 116 118 117
f 115 119 120
f 115 121 119
f 114 115 120
f 114 120 116
f 13 21 17
f 17 21 20
f 13 27 21
f 9 17 20
f 13 29 27
f 122 29 13
f 9 20 24
f 123 29 122
f 124 29 123
f 11 9 24
f 125 124 123
f 23 126 11
f 23 11 24
f 125 123 127
f 128 125 127
f 23 127 126
f 128 127 23
f 66 83 125
f 66 125 128
f 87 28 29
f 25 66 128
f 87 29 124
f 25 128 23
f 87 124 125
f 83 87 125
f 129 123 12
f 11 126 15
f 123 122 12
f 15 126 130
f 122 13 12
f 126 127 130
f 130 127 129
f 127 123 129
f 6 131 132
f 131 133 132
f 133 7 132
f 132 7 1
f 5 131 6
f 2 16 8
f 133 129 12
f 7 12 14
f 15 4 10
f 130 131 5
f 4 2 10
f 10 2 8
f 15 5 4
f 2 14 16
f 2 7 14
f 130 129 131
f 15 130 5
f 131 129 133
f 133 12 7
f 6 132 1
f 6 1 3
f 47 57 53
f 47 53 48
f 40 45 53
f 57 40 53
f 50 35 30
f 50 30 57
f 50 57 38
f 37 50 38
