v -0.03885481 0.02924815 0.01400456
v -0.04124003 0.02148107 0.007967353
v -0.04100055 0.01673046 0.01110017
v -0.03435962 0.02720648 0.01362363
v -0.04048018 0.01690692 0.01435629
v -0.03862716 0.02821279 0.01692992
v -0.03694558 0.01658091 0.01190293
v -0.03748146 0.01657805 0.008148074
v -0.04241652 -0.004355103 0.01314327
v -0.04322749 -0.002377629 0.008869886
v -0.04208346 -0.01238012 0.01662579
v -0.03780676 0.03560269 0.01437515
v -0.03465316 0.02822459 0.01021975
v -0.04177767 0.008611709 0.01072177
v -0.04156681 -0.02485558 0.02124426
v -0.04083168 -0.02211928 0.02332574
v -0.03842932 0.009068727 0.009117991
v -0.03888887 -3.489852e-05 0.008995682
v -0.03858359 -0.005577534 0.01097915
v -0.03794617 0.008243471 0.01170424
v -0.04217556 0.008495063 0.01595849
v -0.04175571 -0.003436834 0.01659265
v -0.03756096 -0.004098773 0.01340991
v -0.03645399 -0.01173174 0.01597705
v -0.04027939 -0.02056238 0.02638462
v -0.04206967 -0.009948701 0.02096364
v -0.03439946 -0.02141789 0.02176476
v -0.04006533 -0.02206314 0.02547562
v -0.03792255 -0.01300767 0.01331872
v -0.03574796 0.0385612 0.02139154
v -0.03599472 -0.02320588 0.01959261
v -0.03692824 -0.02977157 0.03877515
v -0.04012178 -0.02218151 0.02526072
v -0.04012184 -0.02218136 0.02526063
v -0.04019326 -0.02808571 0.02598658
v -0.03417472 -0.03237525 0.04563719
v -0.003971294 -0.01181903 0.1167657
v -0.006661437 -0.02106595 0.111008
v -0.00228814 -0.0078125 0.1152171
v -0.03914795 -0.01327336 0.009398818
v -0.03932558 0.001561284 0.004854381
v -0.001043893 0.003821552 0.1214904
v -0.03271703 0.02157184 0.01868355
v -0.02748802 0.03894857 0.0263235
v -0.02697871 0.03409988 0.0262931
v 0.0005859062 0.007745713 0.1190063
v -0.03297664 0.004767716 0.01733103
v -0.0340436 -0.007182539 0.01731139
v -0.02897125 0.04236624 0.02189988
v 0.0015065 0.02641866 0.1165938
v 0.0007541105 0.03007042 0.1186059
v 0.0003953576 0.01935998 0.1214389
v -0.03589092 -0.03002504 0.02340442
v -0.03202365 -0.02695185 0.02917761
v -0.04286466 -0.01350045 0.01316121
v -0.04298455 0.005995601 0.007415831
v -0.03352164 0.03608358 0.01125968
v -0.03789928 -0.02484161 0.01612854
v -0.0386038 0.01209071 0.003898561
v 0.0001282319 0.04007021 0.1138651
v -0.02250732 0.04847637 0.03579459
v -0.0002667829 0.04671201 0.1049545
v -0.03372649 -0.01830095 0.02089447
v -0.03681236 0.03780827 0.02455318
v -0.03133475 0.04622918 0.03072494
v -0.02338894 0.05312836 0.03663093
v -0.0007187203 0.04538614 0.1102255
v -0.001788765 0.05171081 0.1042914
v -0.029998 0.02166826 0.02128243
v -0.002787292 0.0552074 0.1000352
v -0.05328358 0.009601593 0.02823454
v -0.05277931 0.01837337 0.02841398
v -0.01996861 0.0583483 0.04518658
v -0.0178213 0.05748206 0.04758066
v -0.005005881 0.05940193 0.08612472
v -0.006958231 0.06291366 0.08512861
v -0.01494579 0.06391943 0.05948323
v -0.01237042 0.06266001 0.06159317
v -0.03358268 0.0606074 0.06069529
v -0.03351499 0.06203267 0.06713754
v -0.01345029 0.06472108 0.06381363
v -0.0003361553 0.01081258 0.1220611
v -0.01041564 0.06228828 0.06826061
v -0.00936123 0.06476876 0.07655728
v -0.04946168 0.03710672 0.0354265
v -0.03937445 0.02734163 0.01813206
v -0.02043557 -0.03954229 0.07347709
v -0.02421987 -0.03877205 0.06233418
v -0.02037177 -0.03794214 0.06853932
v -0.03664502 0.05737805 0.05426604
v -0.01665557 -0.03805709 0.0854044
v -0.02668054 -0.03710091 0.05392754
v -0.0519921 0.02502069 0.02948958
v -0.01033048 -0.03012666 0.09670627
v -0.01192909 -0.0326325 0.09809184
v -0.009421892 -0.02785987 0.1045751
v -0.03574665 0.02943215 0.006136566
v -0.03920704 0.06059593 0.06903589
v -0.04274596 0.05574539 0.05661482
v -0.02011105 0.04476845 0.03081578
v -0.03893504 0.05111295 0.043863
v -0.01986197 0.04619884 0.03367549
v -0.01988249 0.0267801 0.01720077
v -0.02073022 0.02715006 0.01648629
v -0.04644528 0.04695097 0.04430348
v -0.02640239 0.01576042 0.01469058
v -0.02422928 0.01483357 0.00999853
v -0.02880015 0.003600866 0.01203588
v -0.02576543 -0.02216962 0.01506317
v -0.02517854 -0.03163043 0.03258252
v -0.02686023 -0.0347116 0.0472154
v -0.02474583 -0.03382534 0.04441202
v -0.02709162 -0.01153219 0.008758992
v -0.02610875 0.005515069 0.007119358
v -0.02353841 0.01317534 0.009747505
v -0.02610728 -0.008307755 0.008199692
v -0.02434773 -0.02713108 0.02435786
v -0.02918886 0.02713254 0.1218121
v -0.0173771 0.03545222 0.1188753
v -0.02933296 0.03640398 0.1180713
v -0.05262561 0.04517987 0.06588858
v -0.05654417 0.03952229 0.05518806
v -0.05811602 0.03432602 0.05179626
v -0.0588749 -0.009594709 0.06289369
v -0.06103496 -0.004815429 0.05458504
v -0.05938109 -0.01288313 0.06222194
v -0.04270247 0.04960287 0.0956915
v -0.04458331 0.05176583 0.08909339
v -0.03880692 0.01797539 0.1175696
v -0.03858437 0.02989197 0.1146494
v -0.04137193 0.005296171 0.1134272
v -0.04491138 -0.01087129 0.1070866
v -0.05027869 -0.01916727 0.09274751
v -0.04114399 0.00147602 0.1151878
v -0.06112852 0.01681471 0.04769301
v -0.04935161 0.05171978 0.07407868
v -0.03953984 0.03979751 0.1086042
v -0.05544318 -0.01979971 0.07626152
v -0.06163681 0.008244902 0.04872835
v -0.05340675 0.04677206 0.06279653
v -0.05676972 -0.01834586 0.07208061
v -0.04075286 0.04515615 0.1031451
v -0.02009407 0.06430358 0.07482749
v -0.03599483 0.06108826 0.08236319
v -0.03145634 0.06184244 0.08427757
v -0.03326394 0.05793053 0.09465092
v -0.02363616 -0.007097512 0.1198296
v -0.024837 0.002227902 0.1229014
v -0.03235205 -0.004920661 0.11967
v -0.04581246 -0.03083327 0.0732103
v -0.04254175 -0.03085795 0.08662975
v -0.05694627 -0.01504081 0.05488855
v -0.05106954 -0.02221915 0.0484513
v -0.04961073 -0.02585217 0.05569392
v -0.05847484 0.009360462 0.03918529
v -0.05838666 -0.005612373 0.04547811
v -0.05356776 -0.00318867 0.03157961
v -0.05291735 -0.01395875 0.03805572
v -0.02092133 0.009694874 0.1240507
v -0.02201746 0.02002174 0.1237819
v -0.02964202 0.01628172 0.1236004
v -0.02566028 -0.01303673 0.1165827
v -0.03405576 -0.01282567 0.1151911
v -0.05711291 0.01581311 0.03668672
v -0.02080239 0.04437861 0.1135499
v -0.02501867 0.04982963 0.1085294
v -0.03043425 0.04839396 0.1091847
v -0.05523974 0.03014827 0.04009628
v -0.027545 -0.02060708 0.110645
v -0.02273483 0.02593741 0.1226709
v -0.03700493 -0.02205551 0.1064398
v -0.03973824 -0.02777809 0.09703529
v -0.01898685 -0.02914724 0.102102
v -0.03182163 -0.02880552 0.09960246
v -0.03943132 -0.03381068 0.07390863
v -0.04191208 -0.03118414 0.05795044
v -0.02520626 0.06168446 0.0878647
v -0.03587346 -0.03385809 0.08466971
v -0.04674749 -0.02029803 0.03683299
v -0.0265375 0.05629644 0.09992057
v -0.04105835 -0.02025646 0.02862692
v -0.0352455 -0.03237325 0.09037536
v -0.01310933 0.05774385 0.0973478
f 1 2 3
f 4 5 6
f 7 5 4
f 3 5 7
f 8 3 7
f 9 10 11
f 1 12 2
f 13 1 8
f 9 14 10
f 14 2 10
f 11 10 15
f 8 1 3
f 6 1 13
f 4 6 13
f 16 11 15
f 17 14 18
f 18 14 9
f 18 9 19
f 20 21 17
f 17 21 14
f 20 22 21
f 23 22 20
f 19 9 22
f 19 22 23
f 24 25 26
f 27 25 24
f 24 26 11
f 28 16 15
f 24 11 29
f 30 12 1
f 29 11 16
f 29 16 31
f 32 28 15
f 27 28 25
f 14 3 2
f 14 5 3
f 33 31 16
f 28 31 34
f 35 36 32
f 34 31 33
f 31 28 27
f 16 28 33
f 37 38 39
f 40 41 18
f 39 42 37
f 43 44 45
f 15 35 32
f 39 46 42
f 47 48 23
f 7 13 49
f 7 49 43
f 18 41 17
f 50 51 52
f 53 31 54
f 55 15 10
f 56 10 2
f 13 57 49
f 53 58 31
f 23 20 43
f 17 41 59
f 43 49 44
f 23 43 47
f 50 60 51
f 20 17 7
f 45 44 61
f 31 27 54
f 58 29 31
f 60 50 62
f 17 8 7
f 27 63 54
f 64 65 12
f 30 64 12
f 27 24 63
f 61 44 66
f 20 7 43
f 60 62 67
f 44 49 66
f 62 68 67
f 47 43 69
f 17 59 8
f 62 70 68
f 71 72 21
f 61 66 73
f 74 61 73
f 75 76 70
f 74 73 77
f 74 77 78
f 79 80 77
f 78 77 81
f 46 82 42
f 58 40 29
f 75 83 84
f 81 83 78
f 75 84 76
f 73 79 77
f 85 6 86
f 83 81 84
f 82 46 52
f 29 40 19
f 87 88 89
f 24 48 63
f 90 79 73
f 87 89 91
f 92 89 88
f 59 13 8
f 72 93 5
f 52 46 50
f 66 90 73
f 53 54 92
f 72 5 21
f 91 89 94
f 95 91 94
f 43 45 69
f 95 94 96
f 21 22 71
f 13 59 97
f 92 54 89
f 23 48 24
f 23 24 29
f 98 80 79
f 23 29 19
f 4 13 7
f 19 40 18
f 99 79 90
f 97 57 13
f 100 45 61
f 101 90 66
f 61 74 100
f 74 83 102
f 78 83 74
f 74 102 100
f 101 99 90
f 100 103 104
f 100 102 103
f 70 62 75
f 101 49 65
f 101 66 49
f 101 105 99
f 105 65 64
f 46 39 50
f 94 39 96
f 105 101 65
f 39 38 96
f 106 69 45
f 79 99 98
f 69 106 47
f 106 107 108
f 106 108 47
f 108 48 47
f 109 54 63
f 110 111 54
f 110 112 111
f 109 110 54
f 6 85 64
f 85 105 64
f 113 108 114
f 112 89 111
f 113 48 108
f 113 63 48
f 114 108 107
f 100 104 45
f 104 106 45
f 93 85 86
f 107 106 104
f 104 103 107
f 93 86 5
f 103 115 107
f 107 115 114
f 114 115 116
f 109 116 117
f 109 117 110
f 110 117 112
f 118 119 120
f 113 109 63
f 114 116 113
f 116 109 113
f 121 122 123
f 124 125 126
f 127 128 121
f 129 130 131
f 132 131 133
f 129 131 134
f 121 123 135
f 128 136 121
f 130 137 131
f 131 138 133
f 124 139 125
f 121 136 140
f 131 124 138
f 124 141 138
f 124 121 139
f 121 135 139
f 121 140 122
f 137 121 131
f 137 142 121
f 124 126 141
f 143 98 144
f 143 80 98
f 142 127 121
f 145 144 146
f 147 148 149
f 134 131 132
f 138 150 151
f 152 153 154
f 154 141 152
f 155 125 139
f 155 156 125
f 155 71 157
f 155 157 156
f 156 158 125
f 125 152 126
f 159 160 161
f 162 149 163
f 158 152 125
f 156 157 158
f 152 141 126
f 158 153 152
f 141 150 138
f 141 154 150
f 151 133 138
f 155 139 135
f 155 135 164
f 71 155 164
f 162 147 149
f 164 93 72
f 164 72 71
f 165 166 167
f 135 123 168
f 148 161 149
f 135 168 164
f 164 168 93
f 123 122 168
f 93 168 85
f 168 122 85
f 122 140 105
f 85 122 105
f 148 159 161
f 169 162 163
f 165 167 120
f 105 140 99
f 170 119 118
f 136 99 140
f 136 98 99
f 163 134 132
f 163 132 171
f 144 98 136
f 172 133 151
f 132 133 171
f 171 133 172
f 146 142 167
f 169 163 171
f 118 129 161
f 130 118 120
f 130 129 118
f 128 127 146
f 128 146 144
f 146 127 142
f 173 169 171
f 167 142 137
f 137 120 167
f 137 130 120
f 161 129 134
f 134 149 161
f 149 134 163
f 171 172 174
f 171 174 173
f 144 136 128
f 150 175 151
f 145 143 144
f 71 22 157
f 176 36 92
f 145 146 177
f 151 175 178
f 22 26 157
f 157 26 158
f 158 179 153
f 92 88 175
f 180 177 146
f 166 180 146
f 166 146 167
f 158 181 179
f 179 181 25
f 170 118 161
f 160 170 161
f 175 88 87
f 175 87 178
f 178 87 91
f 154 176 150
f 119 165 120
f 154 36 176
f 175 176 92
f 158 26 181
f 153 179 154
f 179 36 154
f 179 25 36
f 176 175 150
f 178 172 151
f 182 174 172
f 182 172 178
f 91 182 178
f 174 91 95
f 174 182 91
f 42 159 148
f 77 80 81
f 119 51 60
f 166 165 68
f 68 165 67
f 119 60 165
f 159 42 82
f 81 80 143
f 143 145 177
f 76 177 180
f 183 76 180
f 147 37 42
f 165 60 67
f 147 162 37
f 119 170 51
f 21 5 14
f 162 38 37
f 52 160 82
f 82 160 159
f 169 96 38
f 6 64 30
f 169 173 96
f 148 147 42
f 173 95 96
f 38 162 169
f 173 174 95
f 86 6 5
f 143 84 81
f 143 177 84
f 177 76 84
f 183 166 68
f 183 70 76
f 183 180 166
f 183 68 70
f 170 160 52
f 170 52 51
f 57 12 65
f 6 30 1
f 65 49 57
f 12 97 2
f 57 97 12
f 40 10 41
f 41 10 56
f 41 56 59
f 2 59 56
f 58 55 40
f 2 97 59
f 55 10 40
f 58 15 55
f 15 58 53
f 25 28 32
f 15 53 35
f 26 25 181
f 36 53 92
f 36 35 53
f 32 36 25
f 22 9 11
f 22 11 26
