v 4.87715e-05 0.07500011 0.07500008
v 4.883111e-05 0.07500011 0.07000005
v -0.0009266287 0.07500075 0.07009614
v -4.923344e-05 -0.07499985 0.07000001
v -4.926324e-05 -0.07499987 0.07500005
v -0.001024723 -0.07499918 0.07009611
v -0.001864627 0.07500137 0.07038069
v -0.001962692 -0.07499863 0.07038061
v -0.002729043 0.07500193 0.07084271
v -0.002827138 -0.07499805 0.07084268
v -0.003486738 0.07500243 0.07146451
v -0.003584802 -0.07499756 0.07146446
v -0.004108578 0.07500282 0.0722222
v -0.004206628 -0.07499713 0.07222217
v -0.004570559 0.07500319 0.07308665
v -0.004668653 -0.07499684 0.07308659
v -0.004855141 0.07500333 0.07402462
v -0.004953206 -0.07499661 0.0740246
v -0.004951239 0.07500342 0.07500005
v -0.005049258 -0.07499656 0.07500003
v -0.004855126 0.07500331 0.07597557
v -0.004953206 -0.07499665 0.07597545
v -0.004570618 0.07500318 0.07691348
v -0.004668653 -0.07499684 0.07691348
v -0.004108608 0.07500283 0.07777795
v -0.004206628 -0.07499713 0.07777789
v -0.003486738 0.07500251 0.07853562
v -0.003584802 -0.07499756 0.07853562
v -0.002729073 0.07500193 0.07915741
v -0.002827108 -0.07499804 0.0791574
v -0.001864612 0.07500139 0.07961947
v -0.001962662 -0.07499863 0.07961944
v -0.0009266436 0.07500075 0.07990396
v -0.001024663 -0.07499923 0.079904
v 4.87715e-05 0.07500009 0.08000007
v -4.923344e-05 -0.07499985 0.08000004
v 0.001024202 0.07499953 0.07990399
v 0.0009261966 -0.07500045 0.07990398
v 0.001962215 0.0749989 0.07961947
v 0.001864165 -0.07500111 0.0796195
v 0.002826616 0.07499829 0.07915741
v 0.002728611 -0.07500167 0.07915743
v 0.003584325 0.07499781 0.07853562
v 0.003486305 -0.07500218 0.0785356
v 0.004206151 0.0749974 0.07777795
v 0.004108101 -0.07500258 0.07777792
v 0.004668176 0.07499714 0.07691348
v 0.004570186 -0.07500288 0.07691348
v 0.004952714 0.07499689 0.07597557
v 0.004854679 -0.07500307 0.07597549
v 0.005048782 0.07499684 0.07500014
v 0.004950732 -0.07500313 0.07500006
v 0.004952684 0.07499689 0.07402465
v 0.004854709 -0.07500304 0.07402465
v 0.004668206 0.0749971 0.07308668
v 0.004570156 -0.07500286 0.0730866
v 0.004206121 0.07499737 0.07222226
v 0.004108101 -0.07500255 0.0722222
v 0.00358431 0.07499783 0.07146454
v 0.003486305 -0.07500215 0.07146449
v 0.002826646 0.0749983 0.07084271
v 0.002728641 -0.07500166 0.07084265
v 0.00196223 0.07499886 0.07038066
v 0.001864165 -0.07500108 0.07038064
v 0.001024231 0.07499948 0.07009614
v 0.0009261966 -0.07500046 0.07009606
f 1 2 3
f 4 5 6
f 2 4 3
f 4 6 3
f 1 3 7
f 6 5 8
f 3 6 7
f 6 8 7
f 1 7 9
f 8 5 10
f 7 8 9
f 8 10 9
f 1 9 11
f 10 5 12
f 9 10 11
f 10 12 11
f 1 11 13
f 12 5 14
f 11 12 13
f 12 14 13
f 1 13 15
f 14 5 16
f 13 14 15
f 14 16 15
f 1 15 17
f 16 5 18
f 15 16 17
f 16 18 17
f 1 17 19
f 18 5 20
f 17 18 19
f 18 20 19
f 1 19 21
f 20 5 22
f 19 20 21
f 20 22 21
f 1 21 23
f 22 5 24
f 21 22 23
f 22 24 23
f 1 23 25
f 24 5 26
f 23 24 25
f 24 26 25
f 1 25 27
f 26 5 28
f 25 26 27
f 26 28 27
f 1 27 29
f 28 5 30
f 27 28 29
f 28 30 29
f 1 29 31
f 30 5 32
f 29 30 31
f 30 32 31
f 1 31 33
f 32 5 34
f 31 32 33
f 32 34 33
f 1 33 35
f 34 5 36
f 33 34 35
f 34 36 35
f 1 35 37
f 36 5 38
f 35 36 37
f 36 38 37
f 1 37 39
f 38 5 40
f 37 38 39
f 38 40 39
f 1 39 41
f 40 5 42
f 39 40 41
f 40 42 41
f 1 41 43
f 42 5 44
f 41 42 43
f 42 44 43
f 1 43 45
f 44 5 46
f 43 44 45
f 44 46 45
f 1 45 47
f 46 5 48
f 45 46 47
f 46 48 47
f 1 47 49
f 48 5 50
f 47 48 49
f 48 50 49
f 1 49 51
f 50 5 52
f 49 50 51
f 50 52 51
f 1 51 53
f 52 5 54
f 51 52 53
f 52 54 53
f 1 53 55
f 54 5 56
f 53 54 55
f 54 56 55
f 1 55 57
f 56 5 58
f 55 56 57
f 56 58 57
f 1 57 59
f 58 5 60
f 57 58 59
f 58 60 59
f 1 59 61
f 60 5 62
f 59 60 61
f 60 62 61
f 1 61 63
f 62 5 64
f 61 62 63
f 62 64 63
f 1 63 65
f 64 5 66
f 63 64 65
f 64 66 65
f 1 65 2
f 66 5 4
f 65 66 2
f 66 4 2
