v 0.0001121166 -0.02418423 -0.05000022
v 0.005112071 -0.02420573 -0.04999943
v 0.005011805 -0.02518076 -0.0499996
v 0.005096454 -0.02422124 0.05000057
v 9.649961e-05 -0.02419975 0.0499998
v 0.004996188 -0.02519627 0.05000041
v 0.004723247 -0.02611749 -0.04999979
v 0.00470763 -0.026133 0.05000022
v 0.004257485 -0.02697993 -0.05
v 0.004241868 -0.02699544 0.05000001
v 0.003632419 -0.02773493 -0.05000022
v 0.003616803 -0.02775045 0.0499998
v 0.002872071 -0.02835348 -0.05000043
v 0.002856454 -0.028369 0.04999958
v 0.002005659 -0.02881181 -0.05000064
v 0.001990041 -0.02882733 0.04999937
v 0.001066478 -0.02909231 -0.05000083
v 0.001050861 -0.02910782 0.04999918
v 9.06225e-05 -0.02918419 -0.05000099
v 7.500548e-05 -0.0291997 0.04999902
v -0.0008844069 -0.02908392 -0.05000113
v -0.000900024 -0.02909944 0.04999888
v -0.001821141 -0.02879536 -0.05000123
v -0.001836758 -0.02881088 0.04999878
v -0.002683581 -0.0283296 -0.0500013
v -0.002699198 -0.02834512 0.04999872
v -0.003438583 -0.02770454 -0.05000132
v -0.003454201 -0.02772005 0.04999869
v -0.004057135 -0.02694419 -0.0500013
v -0.004072751 -0.0269597 0.04999872
v -0.004515465 -0.02607777 -0.05000123
v -0.004531081 -0.02609329 0.04999878
v -0.004795958 -0.02513859 -0.05000113
v -0.004811575 -0.02515411 0.04999888
v -0.004887838 -0.02416274 -0.05000099
v -0.004903454 -0.02417825 0.04999902
v -0.004787571 -0.02318771 -0.05000083
v -0.004803188 -0.02320322 0.04999918
v -0.004499014 -0.02225098 -0.05000063
v -0.00451463 -0.02226649 0.04999937
v -0.004033252 -0.02138854 -0.05000043
v -0.004048868 -0.02140405 0.04999958
v -0.003408186 -0.02063353 -0.05000021
v -0.003423803 -0.02064905 0.0499998
v -0.002647836 -0.02001498 -0.05
v -0.002663453 -0.02003049 0.05000002
v -0.001781424 -0.01955665 -0.04999979
v -0.001797041 -0.01957217 0.05000022
v -0.0008422455 -0.01927616 -0.0499996
v -0.0008578626 -0.01929167 0.05000041
v 0.0001336106 -0.01918428 -0.04999943
v 0.0001179936 -0.01919979 0.05000057
v 0.001108641 -0.01928455 -0.0499993
v 0.001093024 -0.01930006 0.05000071
v 0.002045375 -0.0195731 -0.0499992
v 0.002029758 -0.01958862 0.05000081
v 0.002907815 -0.02003887 -0.04999914
v 0.002892198 -0.02005438 0.05000088
v 0.003662818 -0.02066393 -0.04999911
v 0.003647201 -0.02067945 0.0500009
v 0.004281368 -0.02142428 -0.04999914
v 0.004265751 -0.02143979 0.05000088
v 0.004739698 -0.02229069 -0.0499992
v 0.004724081 -0.02230621 0.05000081
v 0.005020191 -0.02322987 -0.0499993
v 0.005004575 -0.02324539 0.05000071
f 1 2 3
f 4 5 6
f 2 4 3
f 4 6 3
f 1 3 7
f 6 5 8
f 3 6 7
f 6 8 7
f 1 7 9
f 8 5 10
f 7 8 9
f 8 10 9
f 1 9 11
f 10 5 12
f 9 10 11
f 10 12 11
f 1 11 13
f 12 5 14
f 11 12 13
f 12 14 13
f 1 13 15
f 14 5 16
f 13 14 15
f 14 16 15
f 1 15 17
f 16 5 18
f 15 16 17
f 16 18 17
f 1 17 19
f 18 5 20
f 17 18 19
f 18 20 19
f 1 19 21
f 20 5 22
f 19 20 21
f 20 22 21
f 1 21 23
f 22 5 24
f 21 22 23
f 22 24 23
f 1 23 25
f 24 5 26
f 23 24 25
f 24 26 25
f 1 25 27
f 26 5 28
f 25 26 27
f 26 28 27
f 1 27 29
f 28 5 30
f 27 28 29
f 28 30 29
f 1 29 31
f 30 5 32
f 29 30 31
f 30 32 31
f 1 31 33
f 32 5 34
f 31 32 33
f 32 34 33
f 1 33 35
f 34 5 36
f 33 34 35
f 34 36 35
f 1 35 37
f 36 5 38
f 35 36 37
f 36 38 37
f 1 37 39
f 38 5 40
f 37 38 39
f 38 40 39
f 1 39 41
f 40 5 42
f 39 40 41
f 40 42 41
f 1 41 43
f 42 5 44
f 41 42 43
f 42 44 43
f 1 43 45
f 44 5 46
f 43 44 45
f 44 46 45
f 1 45 47
f 46 5 48
f 45 46 47
f 46 48 47
f 1 47 49
f 48 5 50
f 47 48 49
f 48 50 49
f 1 49 51
f 50 5 52
f 49 50 51
f 50 52 51
f 1 51 53
f 52 5 54
f 51 52 53
f 52 54 53
f 1 53 55
f 54 5 56
f 53 54 55
f 54 56 55
f 1 55 57
f 56 5 58
f 55 56 57
f 56 58 57
f 1 57 59
f 58 5 60
f 57 58 59
f 58 60 59
f 1 59 61
f 60 5 62
f 59 60 61
f 60 62 61
f 1 61 63
f 62 5 64
f 61 62 63
f 62 64 63
f 1 63 65
f 64 5 66
f 63 64 65
f 64 66 65
f 1 65 2
f 66 5 4
f 65 66 2
f 66 4 2
